<svg xmlns="http://www.w3.org/2000/svg" width="40" height="40" version="1.0" viewBox="0 0 30 30"><defs><clipPath id="a"><path d="M5 1.453h5V7H5Zm0 0"/></clipPath><clipPath id="b"><path d="M20 1.453h5V7h-5Zm0 0"/></clipPath><clipPath id="c"><path d="M11 1.453h8V8h-8Zm0 0"/></clipPath><clipPath id="d"><path d="M.484 14h29.032v13.582H.484Zm0 0"/></clipPath></defs><path fill="#061c3d" d="M5.68 6.871c-.27-.156-.52-.36-.742-.586a2.81 2.81 0 0 0-1.083 2.203v2.184a.452.452 0 0 0 .902 0v-2.16c.02-.696.384-1.305.923-1.64m0 0"/><g clip-path="url(#a)"><path fill="#061c3d" d="M9.5 4.148a2.254 2.254 0 0 0-2.246-2.246 2.255 2.255 0 0 0-2.25 2.246 2.256 2.256 0 0 0 2.25 2.25A2.255 2.255 0 0 0 9.5 4.148m0 0"/></g><path fill="#061c3d" d="M5.68 11.121c.246 0 .449-.203.449-.45v-1.35a.45.45 0 0 0-.898 0v1.35c0 .247.199.45.449.45M8.828 11.121c.246 0 .45-.203.45-.45v-1.35a.452.452 0 0 0-.903 0v1.35c0 .247.203.45.453.45M25.465 11.121c.25 0 .453-.203.453-.45v-2.16c0-.898-.43-1.706-1.082-2.202-.223.226-.45.425-.742.586.539.335.902.921.902 1.617v2.16c.02.246.223.45.469.45m0 0"/><g clip-path="url(#b)"><path fill="#061c3d" d="M24.793 4.148a2.255 2.255 0 0 0-2.25-2.246 2.255 2.255 0 0 0-2.25 2.246 2.256 2.256 0 0 0 2.25 2.25 2.256 2.256 0 0 0 2.25-2.25m0 0"/></g><path fill="#061c3d" d="M20.969 11.121c.246 0 .449-.203.449-.45v-1.35a.45.45 0 0 0-.45-.45.45.45 0 0 0-.448.45v1.35c0 .247.203.45.449.45M24.117 11.121c.246 0 .45-.203.45-.45v-1.35a.45.45 0 0 0-.45-.45.45.45 0 0 0-.449.45v1.35c0 .247.203.45.45.45M20.07 8.512c0-.696.36-1.305.899-1.617a3.8 3.8 0 0 1-.742-.586 2.86 2.86 0 0 0-.989 1.507c.36.426.63.922.809 1.461v-.765ZM10.535 7.816a2.77 2.77 0 0 0-.988-1.507c-.227.226-.45.425-.742.586.539.335.898.921.898 1.617v.765c.203-.539.473-1.035.832-1.46m0 0"/><g clip-path="url(#c)"><path fill="#061c3d" d="M18.047 4.602a3.157 3.157 0 0 0-3.149-3.149 3.157 3.157 0 0 0-3.148 3.149 3.156 3.156 0 0 0 3.148 3.144 3.156 3.156 0 0 0 3.149-3.144m0 0"/></g><path fill="#061c3d" d="M17.598 11.57a.452.452 0 0 0-.903 0v2.024h.903ZM13.098 11.57a.45.45 0 0 0-.899 0v2.024h.899ZM19.395 13.594v-2.922a3.57 3.57 0 0 0-1.778-3.082c-.246.226-.515.43-.832.586a2.69 2.69 0 0 1 1.711 2.496v2.922ZM11.3 10.672c0-1.125.696-2.094 1.688-2.496a4 4 0 0 1-.832-.586 3.6 3.6 0 0 0-1.754 3.082v2.922h.899Zm0 0"/><g clip-path="url(#d)"><path fill="#061c3d" d="M28.84 14.492H.957a.452.452 0 0 0 0 .902h1.125v.493c0 .472.383.855.852.855h.699c.113.742.312 1.461.586 2.18l-.61.34a.85.85 0 0 0-.402.515c-.07.227-.023.45.09.653l.988 1.71a.846.846 0 0 0 1.145.313l.61-.336a11 11 0 0 0 1.597 1.598l-.34.605a.95.95 0 0 0-.09.653.84.84 0 0 0 .406.515l1.73.992a.865.865 0 0 0 1.168-.316l.34-.605c.72.27 1.438.449 2.204.582v.586c0 .472.383.855.855.855h2a.855.855 0 0 0 .856-.855v-.586a11 11 0 0 0 2.203-.582l.336.605a.846.846 0 0 0 1.148.316l1.73-.992a.86.86 0 0 0 .407-.515c.066-.227.02-.45-.09-.653l-.34-.605a11 11 0 0 0 1.598-1.598l.605.336a.845.845 0 0 0 1.149-.312l.988-1.711a.92.92 0 0 0 .09-.653.86.86 0 0 0-.402-.515l-.61-.34c.27-.695.473-1.438.586-2.18h.695a.855.855 0 0 0 .856-.855v-.492h1.125a.452.452 0 0 0 0-.903M14.898 23.22c-4.43 0-8.074-3.465-8.32-7.824h16.64c-.25 4.359-3.89 7.824-8.32 7.824m0 0"/></g></svg>