<svg xmlns="http://www.w3.org/2000/svg" width="40" height="40" version="1.0" viewBox="0 0 30 30"><defs><clipPath id="a"><path d="M.484 16h29.032v12.816H.484Zm0 0"/></clipPath><clipPath id="b"><path d="M1 .508h25V17H1Zm0 0"/></clipPath></defs><g clip-path="url(#a)"><path fill="#061c3d" d="M24.531 21.414q-.008-.007-.015-.02l-3.711-4.476a9 9 0 0 1-1.559 1.273l7.047 8.508h-4.91v-1.008H5.266V26.7H.734a.505.505 0 0 0 0 1.008H27.13l.531.64c.34.415.992.481 1.414.133a1.01 1.01 0 0 0 .137-1.418z"/></g><path fill="#061c3d" d="M6.426 24.684h13.797l-1.508-1.008H7.938zM8.29 21.664v1.004h10.07v-1.004zM25.414 19.648v-2.015h-2.707l2.32 2.805c.239-.188.387-.477.387-.79"/><g clip-path="url(#b)"><path fill="#061c3d" d="M6.273 3.027H3.25a.505.505 0 0 1 0-1.007h3.023a.505.505 0 0 1 0 1.007M5.77 5.043H3.25a.505.505 0 0 1 0-1.008h2.52a.505.505 0 0 1 0 1.008M4.762 7.055H3.25a.505.505 0 0 1 0-1.008h1.512a.505.505 0 0 1 0 1.008m0 8.058H3.25a.505.505 0 0 1 0-1.008h1.512a.505.505 0 0 1 0 1.008m-1.512-3.02h.504a.505.505 0 0 1 0 1.009H3.25a.505.505 0 0 1 0-1.008m-.504-3.527c0-.277.227-.504.504-.504h.504a.505.505 0 0 1 0 1.008H3.25a.505.505 0 0 1-.504-.504m.504 1.512h.504a.505.505 0 0 1 0 1.008H3.25a.505.505 0 0 1 0-1.008m22.164-8.562A1.01 1.01 0 0 0 24.406.508H2.242c-.554 0-1.004.453-1.004 1.008v15.109h6.356q-.063-.066-.121-.137c-.016-.011-.028-.027-.04-.039a9 9 0 0 1-1.335-2.101.3.3 0 0 1-.035-.075 8.9 8.9 0 0 1-.657-2.164c0-.007-.004-.011-.004-.015v-.004a9 9 0 0 1-.136-1.508c0-.156.015-.309.023-.46 0-.02-.008-.032-.008-.044 0-.023.012-.047.016-.07a8.8 8.8 0 0 1 .375-2.113.1.1 0 0 1 .016-.04 9 9 0 0 1 .914-1.984q.031-.074.074-.125a9 9 0 0 1 1.77-2.043c.015-.023.034-.035.054-.05a9 9 0 0 1 5.832-2.137c1.035 0 2.027.183 2.953.504h6.617a.505.505 0 0 1 0 1.007h-4.57q.434.29.832.625c.02.016.04.028.055.051q.186.158.367.332h3.316a.505.505 0 0 1 0 1.008h-2.41q.263.334.496.703a.5.5 0 0 1 .075.125c.414.676.746 1.41.972 2.191h.867a.505.505 0 0 1 0 1.008h-.64q.076.463.105.938c.004.023.016.047.016.07 0 .012-.008.024-.008.043.008.152.023.305.023.461a9 9 0 0 1-1.925 5.563l.398.48h3.543z"/></g><path fill="#061c3d" d="M14.332 19.648a9.03 9.03 0 0 1-5.687-2.015H1.238v2.015c0 .555.45 1.008 1.004 1.008H19.98l-1.628-1.96a8.96 8.96 0 0 1-4.02.952"/><path fill="#061c3d" d="M17.355 12.598h-3.527a.505.505 0 0 1 0-1.008h3.527a.505.505 0 0 1 0 1.008m0 4.027h-.503a.505.505 0 0 1 0-1.008h.503a.505.505 0 0 1 0 1.008m-4.03-2.52c0-.277.226-.5.503-.5h2.52a.502.502 0 1 1 0 1.004h-2.52a.505.505 0 0 1-.504-.504m1.51 2.52h-3.023a.505.505 0 0 1 0-1.008h3.024a.505.505 0 0 1 0 1.008m-3.023-6.043a.505.505 0 0 1 0-1.008h3.528a.505.505 0 0 1 0 1.008Zm1.512-3.023h2.016a.505.505 0 0 1 0 1.007h-2.016a.505.505 0 0 1 0-1.007m4.031 0h2.012a.505.505 0 0 1 0 1.007h-2.012a.505.505 0 0 1 0-1.007m5.036 3.023h-5.036a.505.505 0 0 1 0-1.008h4.965a8 8 0 0 0-1.02-3.023h-8.984a.505.505 0 0 1 0-1.008h8.297a8 8 0 0 0-.968-1.004h-6.32a.505.505 0 0 1 0-1.008h4.898a8 8 0 0 0-3.891-1.008c-1.41 0-2.738.368-3.89 1.008h.867a.505.505 0 0 1 0 1.008h-2.29a8 8 0 0 0-.968 1.004h2.25a.505.505 0 0 1 0 1.008H7.363q-.282.486-.496 1.008h4.442a.505.505 0 0 1 0 1.007h-4.77a8 8 0 0 0-.195 1.008H9.8c.277 0 .5.227.5.504a.5.5 0 0 1-.5.504H6.273c0 .344.028.676.07 1.008h5.47a.505.505 0 0 1 0 1.008H6.539c.09.343.195.68.328 1.007h4.946a.502.502 0 1 1 0 1.004h-4.45q.309.534.688 1.008H9.8c.277 0 .5.227.5.504a.5.5 0 0 1-.5.504H9.02a8.02 8.02 0 0 0 5.312 2.016c4.445 0 8.059-3.614 8.059-8.059"/></svg>