<svg xmlns="http://www.w3.org/2000/svg" width="40" height="40" version="1.0" viewBox="0 0 30 30"><defs><clipPath id="a"><path d="M5.766 0H23.91v29H5.766Zm0 0"/></clipPath></defs><g clip-path="url(#a)"><path fill="#061c3d" d="M23.016 23.645H6.648V5.598h16.368Zm-7.078 2.832h-2.211c-.266 0-.442-.18-.442-.442 0-.265.176-.441.442-.441h2.21c.266 0 .446.176.446.441 0 .219-.18.442-.445.442M11.87 2.41h5.969c.265 0 .445.18.445.442 0 .27-.18.445-.445.445H11.87c-.27 0-.445-.176-.445-.445 0-.22.176-.442.445-.442m7.828 0h.883c.27 0 .445.18.445.442 0 .27-.175.445-.445.445h-.883c-.265 0-.441-.176-.441-.445 0-.22.176-.442.441-.442m1.988-2.3H7.977a2.22 2.22 0 0 0-2.211 2.214v23.887a2.19 2.19 0 0 0 2.21 2.21h13.712a2.19 2.19 0 0 0 2.214-2.21V2.324A2.22 2.22 0 0 0 21.687.11"/></g><path fill="#061c3d" d="M13.195 9.754h.887v.887h-.887Zm2.39 0h.884v.887h-.883Zm-4.733 2.523h7.96a.445.445 0 0 0 .446-.445c0-1.191-.488-2.254-1.242-3.05l.664-.973c.133-.223.09-.489-.133-.622-.219-.132-.485-.085-.617.133l-.617.887a4.5 4.5 0 0 0-2.524-.797 4.5 4.5 0 0 0-2.523.797l-.618-.887c-.132-.218-.398-.265-.62-.133-.223.133-.266.399-.13.622l.66.972c-.753.797-1.238 1.86-1.238 3.051.09.27.309.445.532.445M9.7 18.824c.265 0 .488-.09.71-.265v1.015c0 .488.395.887.883.887h.531v1.191c0 .27.223.446.442.446.265 0 .441-.176.441-.446v-1.191h4.203v1.191c0 .27.223.446.445.446.262 0 .442-.176.442-.446v-1.191h.574a.89.89 0 0 0 .887-.887V18.56c.176.132.441.265.707.265.617 0 1.148-.531 1.148-1.152V14.93c0-.617-.531-1.153-1.148-1.153-.266 0-.488.094-.707.27v-.973a1.6 1.6 0 0 1-.445.086h-7.961c-.18 0-.309-.043-.442-.086v.973c-.18-.137-.445-.27-.71-.27-.618 0-1.15.536-1.15 1.153v2.742c0 .621.532 1.152 1.15 1.152"/></svg>