<svg xmlns="http://www.w3.org/2000/svg" width="40" height="40" version="1.0" viewBox="0 0 30 30"><defs><clipPath id="a"><path d="M.484 0h29.032v29H.484Zm0 0"/></clipPath></defs><g clip-path="url(#a)"><path fill="#061c3d" d="M21.836 14.297a.47.47 0 0 1-.465.469H16.86a.467.467 0 0 1 0-.934h4.512c.254 0 .465.207.465.465m-.465 2.637H16.86a.467.467 0 0 0 0 .933h4.512a.466.466 0 0 0 0-.933m0 1.55H16.86a.467.467 0 0 0 0 .934h4.512a.466.466 0 0 0 0-.934m0-3.101H16.86a.467.467 0 0 0 0 .934h4.512a.466.466 0 0 0 0-.934m-4.976-2.637c0 .258.207.469.464.469h4.508a.467.467 0 1 0 0-.934H16.86a.463.463 0 0 0-.464.465M28.71 6.051a4.6 4.6 0 0 1-.316.77l.218.492a.47.47 0 0 1-.097.519l-.41.406a14.3 14.3 0 0 1 1.406 6.227c0 3.863-1.504 7.496-4.235 10.23a14.39 14.39 0 0 1-10.23 4.235c-1.715 0-3.395-.297-4.988-.883-.02 0-.04.004-.059 0a.47.47 0 0 1-.395-.23l-.843-1.465h-.477l-.238.414.844 1.46a.465.465 0 0 1-.38.7q-.062.005-.132.004a2.4 2.4 0 0 1-2.086-1.207 2.4 2.4 0 0 1-.219-1.91 14.37 14.37 0 0 1-4.808-6.942 2.42 2.42 0 0 1-.555-2.46 15 15 0 0 1-.129-1.946c0-3.863 1.504-7.496 4.238-10.227A14.36 14.36 0 0 1 15.047 0c2.183 0 4.277.473 6.226 1.406l.407-.41a.47.47 0 0 1 .52-.094l.491.22q.37-.2.77-.321l.191-.5c.07-.184.243-.301.438-.301h1.18c.195 0 .367.117.437.3l.191.5q.4.123.77.321l.492-.219a.47.47 0 0 1 .52.094l.836.836a.47.47 0 0 1 .097.52l-.218.492q.192.37.316.77l.504.19c.18.071.297.243.297.438v1.18a.47.47 0 0 1-.297.437ZM5.62 24.176l-2.64-4.574q-.24 0-.477-.047a13.4 13.4 0 0 0 3.117 4.62m4.234 2.203a1.479 1.479 0 0 0-1.66-1.332.47.47 0 0 1-.465-.227l-3.59-6.218a.47.47 0 0 1 .036-.516 1.48 1.48 0 0 0-.324-2.106l.418.727a.45.45 0 0 1 0 .465l-.504.883a.48.48 0 0 1-.407.23H2.344a.47.47 0 0 1-.403-.23l-.421-.727c.02.207.085.414.195.602.297.515.875.804 1.469.726h.058c.164 0 .32.086.403.23l3.59 6.22a.47.47 0 0 1-.032.515 1.48 1.48 0 0 0 .32 2.106L7.105 27a.48.48 0 0 1 0-.469l.508-.879a.46.46 0 0 1 .403-.23H9.03c.168 0 .32.086.406.23ZM9.332 8.3v.222h4.73v-.222a2.36 2.36 0 0 0-1.113-2.008l-.113.883a.47.47 0 0 1-.465.406H11.02a.46.46 0 0 1-.461-.406l-.118-.883a2.37 2.37 0 0 0-1.109 2.008m2.098-1.653h.53l.142-1.062a1.1 1.1 0 0 0-.407-.098c-.23.02-.355.07-.402.098ZM9.727 9.457c.183.918.996 1.61 1.968 1.613.973 0 1.785-.695 1.973-1.613Zm4.765 3.54a4.5 4.5 0 0 0-1.77-.876l.614 1.938a.46.46 0 0 1-.094.449l-.824.93h2.074Zm-3.469 1.093.672.758.672-.758-.664-2.086S11.7 12 11.695 12s-.004.004-.008.004Zm-.968-.031.617-1.938a4.45 4.45 0 0 0-2.711 1.926l.348.371a.46.46 0 0 1 .12.277l.071.742h2.473l-.825-.93a.47.47 0 0 1-.093-.448m-3.551-.207-.5.285.434 1.425.757.532q.081.06.133.148l2.942 5.098.335-.195-2.94-5.094a.5.5 0 0 1-.063-.192l-.086-.921Zm3.68 8.613 2.453 4.25 1.437-.832-2.453-4.25Zm18.394-8c0-1.985-.414-3.883-1.238-5.66a.6.6 0 0 1-.18-.04l-.492-.218a4.3 4.3 0 0 1-.77.316l-.191.504a.47.47 0 0 1-.437.297h-1.18a.47.47 0 0 1-.438-.297l-.191-.504a4.3 4.3 0 0 1-.77-.316l-.492.219a.47.47 0 0 1-.52-.098l-.835-.836a.47.47 0 0 1-.094-.52l.219-.492a4.3 4.3 0 0 1-.32-.77l-.5-.19a.465.465 0 0 1-.301-.438v-1.18c0-.195.117-.367.3-.437l.5-.192q.122-.399.32-.77l-.218-.491a.4.4 0 0 1-.04-.18A13.4 13.4 0 0 0 15.048.934c-7.461 0-13.531 6.07-13.531 13.53q.002.622.054 1.243c.082.04.153.102.2.184l.843 1.46h.477l.238-.41-.844-1.46a.465.465 0 0 1 .379-.7c.914-.05 1.766.41 2.223 1.203.434.75.43 1.66.008 2.399l3.3 5.719a2.42 2.42 0 0 1 2.079 1.207c.347.609.414 1.32.199 1.964q.726.247 1.469.41a.4.4 0 0 1-.079-.101l-2.718-4.707a.88.88 0 0 1-.086-.66.9.9 0 0 1 .219-.383L6.57 16.797l-.8-.567a.48.48 0 0 1-.176-.242l-.59-1.93a.465.465 0 0 1 .21-.542l1.145-.66a.464.464 0 0 1 .575.085l.375.407a5.37 5.37 0 0 1 2.582-1.965 2.95 2.95 0 0 1-1.11-1.926h-.39a.467.467 0 0 1 0-.934h.007v-.222c0-1.336.793-2.524 2.008-3.035a.8.8 0 0 1 .145-.258c.215-.266.59-.418 1.113-.453h.063c.523.035.898.187 1.117.453a1 1 0 0 1 .144.258A3.29 3.29 0 0 1 14.996 8.3v.222H15a.467.467 0 1 1 0 .934h-.387c-.11.777-.52 1.461-1.113 1.926.348.12.68.281.992.472v-.707c0-.523.426-.945.945-.945h1.372v-.156c0-.258.21-.465.468-.465h.739a1.27 1.27 0 0 1 1.097-.621c.461 0 .871.242 1.098.621h.742c.258 0 .465.207.465.465v.156h1.371c.523 0 .945.422.945.945v8.786c0 .52-.422.941-.945.941h-7.352a.945.945 0 0 1-.945-.941V16.37H8.926l2.504 4.336a.866.866 0 0 1 .969.406l2.718 4.707a.462.462 0 0 1-.172.637L12.7 27.754a.4.4 0 0 1-.058.031q1.185.21 2.406.211c7.46 0 13.531-6.07 13.531-13.531m-8.094-3.95h-.582a.47.47 0 0 1-.453-.359.347.347 0 0 0-.672 0 .47.47 0 0 1-.453.36h-.582v.308h2.742Zm-3.675.774v-.152h-1.372c-.003 0-.011.004-.011.011v8.782c0 .008.008.011.011.011h7.352q.012 0 .012-.011v-8.782q0-.01-.012-.011h-1.371v.152a.467.467 0 0 1-.465.469h-3.676a.47.47 0 0 1-.468-.469m11.77-6.726-.423-.165a.47.47 0 0 1-.289-.328 3.2 3.2 0 0 0-.394-.953.46.46 0 0 1-.028-.433l.184-.418-.383-.383-.418.187a.46.46 0 0 1-.433-.03 3.1 3.1 0 0 0-.954-.395.47.47 0 0 1-.328-.286L24.95.934h-.539l-.164.425a.47.47 0 0 1-.328.286q-.506.118-.953.394a.46.46 0 0 1-.434.031l-.418-.187-.383.383.188.418c.062.14.05.3-.031.433a3.2 3.2 0 0 0-.395.953.47.47 0 0 1-.285.328l-.426.165v.539l.426.164c.14.054.25.18.285.328.078.336.211.66.395.953a.47.47 0 0 1 .031.437l-.188.414.383.383.418-.183c.14-.063.301-.055.434.027q.447.276.953.395a.46.46 0 0 1 .328.289l.164.421h.54l.163-.421a.48.48 0 0 1 .328-.29c.336-.078.66-.21.954-.394a.47.47 0 0 1 .437-.027l.414.183.383-.383-.184-.418a.46.46 0 0 1 .028-.433c.183-.293.316-.617.394-.953a.48.48 0 0 1 .29-.328l.421-.164Zm-1.372.269a2.53 2.53 0 0 1-2.527 2.527 2.53 2.53 0 0 1-2.528-2.527 2.53 2.53 0 0 1 2.528-2.527 2.53 2.53 0 0 1 2.527 2.527m-.934 0c0-.879-.714-1.594-1.593-1.594-.88 0-1.594.715-1.594 1.594s.715 1.594 1.594 1.594 1.593-.715 1.593-1.594m0 0"/></g></svg>