<svg xmlns="http://www.w3.org/2000/svg" width="40" height="40" version="1.0" viewBox="0 0 30 30"><defs><clipPath id="a"><path d="M1 2.594h28V20H1Zm0 0"/></clipPath><clipPath id="b"><path d="M.484 20h29.032v6.547H.484Zm0 0"/></clipPath></defs><g clip-path="url(#a)"><path fill="#061c3d" d="M3.426 2.594h23.148c.461 0 .863.23 1.207.52.29.288.461.75.461 1.206v15.086h-.922V4.32a.74.74 0 0 0-.226-.574.74.74 0 0 0-.52-.23H3.426a.74.74 0 0 0-.52.23.74.74 0 0 0-.226.574v15.086h-.922V4.32c0-.457.172-.918.46-1.207.345-.289.747-.52 1.208-.52m0 0"/></g><path fill="#061c3d" d="M5.098 5.473h9.441V18.37H5.098c-.29 0-.461-.172-.461-.46V5.933c0-.23.172-.461.46-.461m7.195 4.722c0-.23-.23-.46-.461-.46-.285 0-.46.23-.46.46v3.453c0 .29.175.461.46.461.23 0 .461-.171.461-.46Zm-2.246 0c0-.23-.23-.46-.461-.46-.23 0-.461.23-.461.46v2.246c0 .23-.113.403-.227.52-.117.172-.347.23-.52.23a.75.75 0 0 1-.577-.23.74.74 0 0 1-.23-.52v-2.246c0-.23-.173-.46-.458-.46-.23 0-.46.23-.46.46v2.246c0 .461.171.864.46 1.153l.055.054c.289.29.75.461 1.21.461.462 0 .864-.171 1.153-.46l-.289-.344.29.343q.515-.515.515-1.207Zm13.879.52c.113-.23.058-.461-.172-.633-.23-.117-.52-.059-.637.172l-.402.746-.461-.746c-.113-.23-.402-.29-.633-.172-.23.172-.289.402-.172.633l.692 1.207-.692 1.21c-.117.231-.058.516.172.634.23.113.52.058.633-.172l.46-.75.403.75c.117.23.406.285.637.172.23-.118.285-.403.172-.633l-.692-1.211Zm-3.57-.461c0-.23-.172-.461-.461-.461-.23 0-.461.23-.461.46v2.188a.96.96 0 0 1-.172.52h-.059a.66.66 0 0 1-.46.172q-.346-.001-.52-.172l-.344.285.344-.285a.7.7 0 0 1-.227-.52v-2.187c0-.23-.176-.461-.46-.461-.231 0-.462.23-.462.46v2.188c0 .403.172.864.461 1.153h.055c.289.285.691.46 1.152.46.403 0 .809-.175 1.094-.46h.059c.289-.29.46-.692.46-1.153ZM15.46 5.473h9.441c.29 0 .461.23.461.46V17.91c0 .29-.172.461-.46.461H15.46Zm0 0"/><g clip-path="url(#b)"><path fill="#061c3d" d="M.95 20.328h28.1c.231 0 .462.23.462.461v2.594c0 .805-.348 1.61-.864 2.129-.578.574-1.328.922-2.191.922H3.543c-.863 0-1.613-.348-2.191-.922a3.12 3.12 0 0 1-.864-2.13V20.79c0-.23.23-.46.461-.46m10.652 2.594c-.23 0-.461.172-.461.46 0 .231.23.462.46.462h6.797c.23 0 .461-.23.461-.461 0-.29-.23-.461-.46-.461Zm0 0"/></g></svg>