<svg xmlns="http://www.w3.org/2000/svg" width="40" height="40" version="1.0" viewBox="0 0 30 30"><defs><clipPath id="a"><path d="M1.027 14H14v9.445H1.027Zm0 0"/></clipPath><clipPath id="b"><path d="M5 6.027h7V15H5Zm0 0"/></clipPath><clipPath id="c"><path d="M7 16h13v7.445H7Zm0 0"/></clipPath><clipPath id="d"><path d="M14 6.027h15.332V16H14Zm0 0"/></clipPath></defs><path fill="#fff" d="M8.04 21.563h-.013l-3.3-.102a.335.335 0 0 1-.324-.355l.128-1.961a.34.34 0 0 1 .356-.313.336.336 0 0 1 .312.355l-.105 1.618 2.953.09c.183.003.328.16.324.343a.335.335 0 0 1-.332.325m0 0"/><g clip-path="url(#a)"><path fill="#fff" d="M7.484 23.656H3.41c-1.23 0-2.242-.96-2.3-2.187-.079-1.555.09-3.102.495-4.598l.016-.062a2.3 2.3 0 0 1 1.852-1.672l3.199-.524a.34.34 0 0 1 .215.035l1.695.946 1.691-.946a.35.35 0 0 1 .22-.035l3.163.516a.334.334 0 0 1-.11.66l-3.05-.5-1.754.977a.32.32 0 0 1-.324 0l-1.754-.977-3.082.504a1.64 1.64 0 0 0-1.316 1.187l-.02.067a14.2 14.2 0 0 0-.473 4.387 1.637 1.637 0 0 0 1.637 1.558h4.074a.332.332 0 1 1 0 .664m0 0"/></g><path fill="#fff" d="M6.723 15.277a.337.337 0 0 1-.305-.469l.27-.62a.33.33 0 0 1 .437-.176.33.33 0 0 1 .172.437l-.266.625a.34.34 0 0 1-.308.203M10.438 15.277a.34.34 0 0 1-.31-.203l-.265-.625a.333.333 0 0 1 .176-.437.33.33 0 0 1 .438.175l.265.626a.33.33 0 0 1-.176.437.4.4 0 0 1-.129.027m0 0"/><g clip-path="url(#b)"><path fill="#fff" d="M8.582 14.137c-1.516 0-2.445-1.375-2.805-2.61-.304-.261-.425-.863-.472-1.234v-.02q-.041-.626.34-.914c-.016-.609.035-2.23.93-2.671l.01-.024c.138-.285.349-.457 1.063-.539.891-.102 2.125.07 2.77.602l.027.02c.38.312 1.082.882 1.07 2.612q.381.282.344.914c-.046.38-.16.973-.453 1.243-.344 1.289-1.25 2.62-2.824 2.62m-2.383-3.125a.33.33 0 0 1 .188.222c.273 1.032 1.008 2.235 2.195 2.235 1.555 0 2.082-1.711 2.207-2.235a.34.34 0 0 1 .184-.226c.078-.094.183-.461.222-.797.016-.285-.07-.32-.14-.352a.33.33 0 0 1-.211-.32c.058-1.559-.473-1.992-.824-2.277l-.024-.02c-.422-.344-1.441-.547-2.27-.453-.445.05-.515.125-.519.125-.004.004-.012.027-.02.04-.039.081-.109.234-.316.331-.508.25-.594 1.617-.555 2.246a.335.335 0 0 1-.207.328c-.07.028-.16.063-.14.364.043.332.152.699.23.789m4.805-.016q-.006 0 0 0-.006 0 0 0m0 0"/></g><path fill="#fff" d="M11.082 8.672a.334.334 0 0 1-.324-.258.36.36 0 0 0-.184-.246c-.355-.203-1.144-.14-2.113.16-.922.29-1.613.27-2.055-.055a1.08 1.08 0 0 1-.441-.835.333.333 0 0 1 .668-.004.42.42 0 0 0 .176.308c.148.102.535.235 1.453-.05.832-.258 1.965-.489 2.64-.102.262.148.434.379.504.672.043.18-.07.36-.246.402-.027.004-.05.008-.078.008m-4.45-1.235h.005Zm0 0"/><g clip-path="url(#c)"><path fill="#fff" d="M17.672 23.656H7.484a.32.32 0 0 1-.265-.133.34.34 0 0 1-.055-.293l1.848-6.492a.33.33 0 0 1 .32-.242H19.52c.105 0 .203.047.265.133a.31.31 0 0 1 .055.289l-1.844 6.496a.34.34 0 0 1-.324.242m-9.746-.664h9.496l1.656-5.828H9.582Zm0 0"/></g><path fill="#fff" d="M18.531 12.18h-1.664a.333.333 0 0 1-.336-.332v-.59c0-.469.301-.883.742-1.031l.555-.184a.545.545 0 0 0-.172-1.062h-.035a.425.425 0 0 0-.422.421.33.33 0 0 1-.332.332.335.335 0 0 1-.336-.332 1.09 1.09 0 0 1 1.09-1.086h.035a1.212 1.212 0 0 1 .387 2.36l-.555.183a.42.42 0 0 0-.289.399v.254h1.336c.184 0 .332.152.332.336a.335.335 0 0 1-.336.332M21.3 10.648h-1.077a.91.91 0 0 1-.914-.91v-1.09c0-.183.148-.335.336-.335.183 0 .332.152.332.335v1.09c0 .133.109.246.246.246H21.3a.332.332 0 1 1 0 .664m0 0"/><path fill="#fff" d="M21.3 12.18a.333.333 0 0 1-.335-.332v-3.2c0-.183.148-.332.336-.332.183 0 .332.149.332.332v3.2a.33.33 0 0 1-.332.332M25.254 12.18q-.026.001-.05-.004a.336.336 0 0 1-.282-.383c.2-1.27.598-2.254.871-2.813h-1.336a.332.332 0 1 1 0-.664h1.89a.333.333 0 0 1 .285.508c-.007.012-.765 1.235-1.05 3.074a.33.33 0 0 1-.328.282M22.234 13.082a.333.333 0 0 1-.324-.418l1.293-5a.33.33 0 0 1 .406-.238.33.33 0 0 1 .239.406l-1.293 5a.33.33 0 0 1-.32.25m0 0"/><g clip-path="url(#d)"><path fill="#fff" d="M17.805 15.684a.872.872 0 0 1-.871-.871v-.418h-1.09c-.887 0-1.61-.723-1.61-1.61V7.711c0-.89.723-1.613 1.61-1.613h11.605c.89 0 1.613.722 1.613 1.613v5.074c0 .887-.722 1.61-1.613 1.61h-7.18l-2.03 1.171a.9.9 0 0 1-.434.118m-1.961-8.918a.945.945 0 0 0-.942.945v5.074c0 .52.422.945.942.945h1.426c.183 0 .332.149.332.332v.75a.201.201 0 0 0 .3.176l2.114-1.215a.3.3 0 0 1 .168-.046h7.265c.52 0 .946-.422.946-.946v-5.07a.946.946 0 0 0-.946-.945Zm0 0"/></g></svg>