<svg xmlns="http://www.w3.org/2000/svg" width="40" height="40" version="1.0" viewBox="0 0 30 30"><defs><clipPath id="a"><path d="M.484 1.414h29.032v26.129H.484Zm0 0"/></clipPath></defs><g clip-path="url(#a)"><path fill="#fff" d="M28.95 16.152c-.274-.457-1.4-1.812-4.368-.086l-5.234 3.051a3 3 0 0 1-.813.324c.102-.164.184-.351.238-.562.27-.996-.324-2.04-1.347-2.371q-.032-.011-.063-.016c-1.504-.27-2.988-.808-4.183-1.238a34 34 0 0 0-1.14-.402c-1.34-.434-2.552.105-3.56.687l-3.894 2.258-.285-.5a1.21 1.21 0 0 0-.742-.578 1.23 1.23 0 0 0-.938.113l-1.469.832c-.289.16-.496.426-.582.746a1.23 1.23 0 0 0 .114.938l4.32 7.629c.16.289.426.492.746.582q.164.046.332.046c.211 0 .418-.054.606-.16l1.468-.832c.59-.336.801-1.09.465-1.683l-.531-.942.89-.511 6.708 1.796q.568.153 1.113.153c.722 0 1.418-.203 2.07-.602l9.504-5.851c.863-.535 1.137-1.88.574-2.82M7.7 25.805l-1.47.832a.3.3 0 0 1-.234.027.3.3 0 0 1-.187-.14L1.492 18.89a.3.3 0 0 1-.031-.235.33.33 0 0 1 .144-.187l1.47-.828a.3.3 0 0 1 .234-.032.3.3 0 0 1 .187.145l4.32 7.633a.31.31 0 0 1-.117.418m20.187-7.621-9.504 5.851c-.754.461-1.578.578-2.457.344L9.03 22.53a.46.46 0 0 0-.351.047l-1.047.606-2.594-4.579 3.906-2.261c.871-.508 1.817-.934 2.809-.61.32.102.687.235 1.11.391 1.218.438 2.734.984 4.3 1.273.55.192.856.72.715 1.243-.168.636-.672.757-1.106.73-.859-.168-1.628-.387-2.437-.617-.348-.098-.707-.2-1.086-.3a.464.464 0 0 0-.238.894q.554.15 1.07.297c.77.218 1.508.43 2.324.597.04.016.086.031.133.035l.11.012q.255.047.523.094c.973.152 1.836.004 2.64-.465l5.235-3.05c1.512-.88 2.672-.97 3.11-.24.3.505.163 1.286-.27 1.556m-24.469.777a.524.524 0 1 1-1.042.15.524.524 0 0 1 1.042-.15m1.477-4.988h20.593a.463.463 0 0 0 .465-.461v-1.266h1.223c.254 0 .46-.207.46-.46v-9.9a.465.465 0 0 0-.46-.464H6.582a.47.47 0 0 0-.465.465v1.261H4.895a.463.463 0 0 0-.461.465v9.899c0 .254.207.46.46.46M7.047 2.352H26.71v8.968h-.758V3.613a.463.463 0 0 0-.465-.465H7.047ZM5.359 4.078h19.668v8.969H5.36Zm9.832 2.52a1.966 1.966 0 0 0-1.964 1.965c0 1.082.882 1.964 1.964 1.964a1.964 1.964 0 1 0 0-3.93m0 3.004c-.57 0-1.039-.47-1.039-1.04a1.039 1.039 0 1 1 1.04 1.04m8.121-3.024c-.39 0-.71-.332-.71-.738a.465.465 0 0 0-.461-.465H8.246a.466.466 0 0 0-.465.465c0 .406-.32.738-.71.738a.463.463 0 0 0-.462.465v3.039c0 .254.207.465.461.465.39 0 .711.328.711.738 0 .254.207.461.465.461h13.895c.254 0 .46-.207.46-.46 0-.411.32-.74.712-.74.257 0 .464-.21.464-.464V7.043a.463.463 0 0 0-.465-.465m-.46 3.11a1.65 1.65 0 0 0-1.11 1.132H8.645a1.67 1.67 0 0 0-1.11-1.133v-2.25c.531-.16.953-.59 1.11-1.132h13.097a1.65 1.65 0 0 0 1.11 1.133ZM11.965 8.562c0 .254-.207.461-.465.461H9.73a.462.462 0 0 1 0-.925h1.77c.258 0 .465.207.465.464m9.152 0c0 .254-.207.461-.465.461h-1.77a.462.462 0 0 1 0-.925h1.77c.258 0 .465.207.465.464m0 0"/></g></svg>