<svg xmlns="http://www.w3.org/2000/svg" width="40" height="40" version="1.0" viewBox="0 0 30 30"><defs><clipPath id="a"><path d="M13 19h3v10.031h-3Zm0 0"/></clipPath><clipPath id="b"><path d="M3 20h10v9.031H3Zm0 0"/></clipPath><clipPath id="c"><path d="M.484 14H7v11H.484Zm0 0"/></clipPath><clipPath id="d"><path d="M3 24h2v5.031H3Zm0 0"/></clipPath><clipPath id="e"><path d="M1 28h5v1.031H1Zm0 0"/></clipPath><clipPath id="f"><path d="M16 20h11v9.031H16Zm0 0"/></clipPath><clipPath id="g"><path d="M22 14h7.516v11H22Zm0 0"/></clipPath><clipPath id="h"><path d="M25 24h2v5.031h-2Zm0 0"/></clipPath><clipPath id="i"><path d="M23 28h5v1.031h-5Zm0 0"/></clipPath></defs><path fill="#061c3d" fill-rule="evenodd" d="M9.21 19.297h11.216v1.433H9.21Zm0 0"/><g clip-path="url(#a)"><path fill="#061c3d" fill-rule="evenodd" d="M13.836 19.879H15.8v9.516h-1.965Zm0 0"/></g><path fill="#061c3d" d="M6.82 21.477a1.963 1.963 0 0 1-2.234 1.753 1.96 1.96 0 0 1-1.754-2.234l.691-5.793a1.955 1.955 0 0 1 2.23-1.754 1.955 1.955 0 0 1 1.755 2.23Zm0 0"/><path fill="#061c3d" fill-rule="evenodd" d="M6.129 8.293c1.168 0 2.125.957 2.125 2.125a2.13 2.13 0 0 1-2.125 2.125A2.13 2.13 0 0 1 4 10.418c0-1.168.957-2.125 2.129-2.125m0 0"/><path fill="#061c3d" d="M5.648 15.309c-.316-.371-.265-.903.055-1.168.371-.32.902-.266 1.168.05l2.125 2.446h2.024a.84.84 0 0 1 .847.851.84.84 0 0 1-.847.852H8.625a.98.98 0 0 1-.637-.266l-2.39-2.71Zm0 0"/><g clip-path="url(#b)"><path fill="#061c3d" d="M4.64 23.23c-.53-.109-1.011-1.222-.956-1.753.105-.532.636-.907 1.168-.801 0 0 5.527.906 7.921 7.02.211.53-.054 1.113-.585 1.273-.532.215-1.118-.051-1.278-.582-1.914-5.051-6.219-5.157-6.219-5.157Zm0 0"/></g><g clip-path="url(#c)"><path fill="#061c3d" d="M6.66 24.344c.16.054.266.265.211.426-.05.16-.266.265-.426.214 0 0-.53-.16-1.222-.32-.477-.105-1.008-.105-1.489-.105-1.273 0-2.336 0-2.656-1.489a18 18 0 0 1-.16-.957c0-.32-.055-.691-.055-1.062v-1.278c0-1.539 0-2.761-.316-4.57-.055-.16.105-.371.265-.371.16-.055.372.105.372.266.32 1.859.32 3.082.32 4.675v1.278c0 .316 0 .691.05 1.008 0 .32.055.586.11.851.211.957 1.063.957 2.02.957.53 0 1.062 0 1.593.106.743.16 1.278.32 1.278.32Zm0 0"/></g><g clip-path="url(#d)"><path fill="#061c3d" d="M3.363 24.238h.852v4.89h-.852Zm0 0"/></g><g clip-path="url(#e)"><path fill="#061c3d" d="M5.332 28.492c.211 0 .422.211.422.426 0 .21-.211.426-.422.426H2.246c-.21 0-.426-.215-.426-.426 0-.215.215-.426.426-.426Zm0 0"/></g><path fill="#061c3d" d="M22.82 21.477a1.96 1.96 0 0 0 2.23 1.753 1.96 1.96 0 0 0 1.755-2.234l-.692-5.793a1.955 1.955 0 0 0-2.23-1.754 1.955 1.955 0 0 0-1.754 2.23Zm0 0"/><path fill="#061c3d" fill-rule="evenodd" d="M23.508 8.293a2.13 2.13 0 0 0-2.125 2.125 2.13 2.13 0 0 0 2.125 2.125 2.13 2.13 0 0 0 2.129-2.125 2.133 2.133 0 0 0-2.13-2.125m0 0"/><path fill="#061c3d" d="M23.988 15.309c.32-.371.266-.903-.054-1.168-.372-.32-.903-.266-1.168.05l-2.125 2.446h-2.02a.84.84 0 0 0-.851.851c0 .477.37.852.851.852h2.39a.98.98 0 0 0 .637-.266l2.395-2.71Zm0 0"/><g clip-path="url(#f)"><path fill="#061c3d" d="M25.05 23.23c.532-.109 1.012-1.222.958-1.753-.106-.532-.637-.907-1.168-.801 0 0-5.531.906-7.922 7.02-.211.53.055 1.113.586 1.273.531.215 1.117-.051 1.273-.582 1.914-5.051 6.22-5.157 6.22-5.157Zm0 0"/></g><g clip-path="url(#g)"><path fill="#061c3d" d="M22.977 24.344c-.157.054-.266.265-.211.426.054.16.265.265.425.214 0 0 .532-.16 1.223-.32.477-.105 1.008-.105 1.488-.105 1.274 0 2.34 0 2.657-1.489q.08-.399.16-.957c0-.32.054-.691.054-1.062v-1.278c0-1.539 0-2.761.317-4.57.055-.16-.106-.371-.266-.371-.16-.055-.37.105-.37.266-.321 1.859-.321 3.082-.321 4.675v1.278c0 .316 0 .691-.051 1.008 0 .32-.055.586-.105.851-.215.957-1.067.957-2.024.957-.531 0-1.062 0-1.594.106-.742.16-1.273.32-1.273.32Zm0 0"/></g><g clip-path="url(#h)"><path fill="#061c3d" d="M25.422 24.238v4.89h.851v-4.89Zm0 0"/></g><g clip-path="url(#i)"><path fill="#061c3d" d="M24.309 28.492a.455.455 0 0 0-.426.426c0 .21.21.426.426.426h3.082c.21 0 .425-.215.425-.426 0-.215-.214-.426-.425-.426Zm0 0"/></g><path fill="#061c3d" fill-rule="evenodd" d="M11.125 9.727c.16.054.316.054.426.054h4.676l2.5 2.496V9.781c1.273 0 2.335-1.062 2.335-2.34V4.305c0-.957-.582-1.805-1.378-2.18v1.012c.316.265.53.691.53 1.168V7.44c0 .852-.69 1.543-1.542 1.543h-.852v1.329l-1.328-1.329h-4.676l-.796.797Zm0 0"/><path fill="#061c3d" fill-rule="evenodd" d="M9.531 0h7.176c1.273 0 2.336 1.063 2.336 2.34v3.137a2.36 2.36 0 0 1-2.336 2.335h-4.68l-2.496 2.5v-2.5c-1.277 0-2.34-1.062-2.34-2.335V2.34A2.36 2.36 0 0 1 9.531 0m.797 3.031c.477 0 .902.426.902.903a.93.93 0 0 1-.902.902c-.48 0-.906-.426-.906-.902s.426-.903.906-.903m2.817 0c.476 0 .902.426.902.903a.93.93 0 0 1-.902.902.93.93 0 0 1-.903-.902c0-.477.422-.903.903-.903m2.816 0c.48 0 .902.426.902.903a.93.93 0 0 1-.902.902.93.93 0 0 1-.902-.902c0-.477.425-.903.902-.903m0 0"/></svg>