<svg xmlns="http://www.w3.org/2000/svg" width="40" height="40" version="1.0" viewBox="0 0 30 30"><defs><clipPath id="a"><path d="M.484 4H25v20H.484Zm0 0"/></clipPath><clipPath id="b"><path d="M17 12h12.516v12.984H17Zm0 0"/></clipPath></defs><g clip-path="url(#a)"><path fill="#061c3d" d="m21.406 20.07-1.281-1.285H2.156a.39.39 0 0 1-.39-.39V5.672c0-.215.175-.39.39-.39h20.832c.215 0 .39.175.39.39v10.066l1.286 1.285V5.672c0-.922-.75-1.672-1.676-1.672H2.156C1.234 4 .484 4.75.484 5.672v12.723c0 .925.75 1.675 1.672 1.675h7.676v1.223H9.16c-1.207 0-2.187.98-2.187 2.187h11.199a2.186 2.186 0 0 0-2.188-2.187h-.668V20.07z"/></g><path fill="#061c3d" d="M4.258 7.055a.641.641 0 1 0-1.282 0 .641.641 0 0 0 1.282 0M6.582 7.055a.641.641 0 1 0-1.282 0 .641.641 0 0 0 1.282 0M8.266 7.695a.64.64 0 0 0 0-1.28.641.641 0 0 0 0 1.281M20.238 7.563l.707-.84a2.432 2.432 0 0 0-3.355 1.02l1.066.284c.25-.336.653-.554 1.102-.554q.258 0 .48.09M22.191 8.848c0-.578-.203-1.11-.543-1.528l-.703.836c.121.203.188.442.188.692q-.001.086-.008.168l.953.578q.112-.353.113-.746M19.047 11.176l.172-1.063a1.38 1.38 0 0 1-.832-1.203l-1.055-.281c-.004.074-.008.144-.008.219 0 1.097.727 2.023 1.723 2.328M21.629 10.402l-.922-.558a1.38 1.38 0 0 1-.91.379l-.168 1.058c.043 0 .086.004.129.004a2.42 2.42 0 0 0 1.87-.883M4.906 17.645h.965v-6.247h-.965zM6.832 17.645h.969v-7.81h-.969zM9.727 13.73h-.965v3.915h.965zM2.977 17.645h.968v-4.2h-.968zM17.684 12.559H11.55v1.18h4.617c.219-.333.594-.552 1.008-.552.32 0 .472-.273.508-.628M11.55 14.715v.437h4.391a3 3 0 0 1-.007-.437zM11.55 16.398h4.75c-.07-.14-.132-.289-.187-.437h-4.562zM11.55 17.645h5.837a3.6 3.6 0 0 1-.461-.387q-.023-.029-.047-.051H11.55z"/><g clip-path="url(#b)"><path fill="#061c3d" d="M27.887 23.398a1.5 1.5 0 0 1-1.149.434 1.5 1.5 0 0 1-.96-.434 1.5 1.5 0 0 1 0-2.109 1.5 1.5 0 0 1 2.109 0c.265.27.41.61.433.961a1.5 1.5 0 0 1-.433 1.148m.68-2.789a2.46 2.46 0 0 0-2.489-.601l-4.531-4.531a2.297 2.297 0 0 0-2.691-2.875.088.088 0 0 0-.043.144l1.539 1.535a.227.227 0 0 1 0 .328l-1.25 1.254a.233.233 0 0 1-.329 0l-1.539-1.539a.087.087 0 0 0-.144.043c-.156.735.05 1.535.625 2.106.605.609 1.476.804 2.25.582L24.5 21.59a2.453 2.453 0 0 0 4.066 2.488 2.454 2.454 0 0 0 0-3.469"/></g></svg>