<svg xmlns="http://www.w3.org/2000/svg" width="40" height="40" version="1.0" viewBox="0 0 30 30"><defs><clipPath id="a"><path d="M.484 26h29.032v3.031H.484Zm0 0"/></clipPath></defs><g clip-path="url(#a)"><path fill="#061c3d" d="m19.73 26.309-1.19 1.62a.39.39 0 0 1-.321.165H11.41a.4.4 0 0 1-.32-.164l-1.192-1.621H.484a3.116 3.116 0 0 0 3.094 2.718h22.48a3.124 3.124 0 0 0 3.094-2.718ZM4.027 28.066h-.972a.4.4 0 0 1-.399-.398c0-.223.176-.398.399-.398h.972a.398.398 0 1 1 0 .796m3.688 0H5.84a.4.4 0 0 1-.399-.398c0-.223.176-.398.399-.398h1.87c.22 0 .4.175.4.398a.394.394 0 0 1-.395.398m16.074 0h-1.867a.4.4 0 0 1-.399-.398c0-.223.172-.398.399-.398h1.867a.398.398 0 1 1 0 .796m2.79 0h-.974a.4.4 0 0 1-.402-.398c0-.223.176-.398.402-.398h.973a.4.4 0 0 1 .399.398.395.395 0 0 1-.399.398m0 0"/></g><path fill="#061c3d" d="m18.016 27.293.722-.984h-7.847l.726.984ZM27.195 8.652c0-.699-.57-1.265-1.265-1.265h-.797v.011q-.001.037.004.067v.117q0 .35-.082.676h.875c.09 0 .183.031.254.09.02.011.035.035.054.054.063.075.09.164.09.254v15.59a.4.4 0 0 1-.398.399H3.7a.4.4 0 0 1-.4-.399V8.656c0-.09.032-.18.09-.254.02-.02.04-.035.055-.054a.4.4 0 0 1 .254-.09h.88a2.8 2.8 0 0 1-.087-.676v-.129c0-.02 0-.043.008-.058h-.8c-.696 0-1.263.566-1.263 1.261v16.86H27.2V8.652Zm0 0"/><path fill="#061c3d" d="M4.102 23.848h21.433V9.05h-.82c-.02.023-.031.047-.047.07-.02.024-.04.055-.055.078q-.03.04-.054.074c-.04.047-.079.098-.122.145-.023.023-.05.055-.074.078a2.422 2.422 0 0 1-.297.262l-.125.09a.3.3 0 0 1-.066.043c-.031.02-.062.035-.09.054-.027.012-.05.032-.074.043-.008.004-.02.012-.023.012-.024.012-.043.023-.067.027-.008 0-.008.008-.012.008-.039.02-.078.035-.117.055q-.035.016-.07.031c-.008 0-.008.004-.012.004q-.041.016-.082.031a.1.1 0 0 1-.039.012 1 1 0 0 1-.105.031c-.012 0-.016.004-.028.004a2 2 0 0 1-.176.043c-.093.02-.183.031-.273.043-.023 0-.047.008-.066.008q-.03-.001-.047.004-.04-.002-.074.008h-2.684v.84c0 .398-.309.718-.723.75l-.61.042a3 3 0 0 1-.206.489l.402.46a.76.76 0 0 1-.02 1.04l-.636.648c-.277.277-.723.29-1.04.016l-.456-.399q-.24.115-.492.207l-.043.61a.75.75 0 0 1-.75.718h-.899a.75.75 0 0 1-.75-.718l-.043-.61a3 3 0 0 1-.492-.207l-.457.399a.756.756 0 0 1-1.039-.016l-.637-.637a.8.8 0 0 1-.113-.144q-.02-.03-.039-.067c-.016-.035-.027-.074-.043-.109-.004-.02-.012-.043-.012-.059a.8.8 0 0 1 .012-.347 1 1 0 0 1 .027-.067c.004-.011.004-.023.012-.027a.8.8 0 0 1 .133-.219l.398-.46a5 5 0 0 1-.207-.489l-.61-.043a.757.757 0 0 1-.718-.75v-.84H7.13c-.024 0-.047 0-.07-.008-.02 0-.04 0-.051-.003-.024 0-.047-.008-.067-.008a1.6 1.6 0 0 1-.27-.043 1 1 0 0 1-.175-.043c-.012 0-.02-.004-.031-.004q-.051-.016-.102-.031c-.015-.004-.031-.004-.043-.012-.03-.004-.054-.02-.078-.031-.008 0-.008 0-.012-.004q-.04-.013-.074-.031-.063-.028-.113-.055c-.008 0-.008-.004-.016-.004-.023-.016-.039-.027-.066-.031-.004-.008-.016-.008-.024-.012a.3.3 0 0 1-.07-.043c-.031-.02-.062-.035-.094-.055-.023-.011-.039-.03-.066-.043q-.06-.043-.125-.09a3 3 0 0 1-.242-.207c-.02-.015-.035-.035-.055-.054-.023-.024-.047-.047-.074-.078l-.121-.145q-.026-.034-.05-.074a.4.4 0 0 1-.056-.078c-.02-.024-.03-.047-.05-.07h-.832Zm15.12-8.11 1.255-1.254c.015-.015.027-.027.046-.039a.4.4 0 0 1 .266-.074q.016-.002.04.008c.01 0 .015.004.026.004.067.02.13.055.176.101l1.254 1.254a.396.396 0 0 1-.281.676.4.4 0 0 1-.281-.113l-.575-.574v4.886a.4.4 0 0 1-.8 0v-4.886l-.575.574a.396.396 0 0 1-.562 0 .423.423 0 0 1 .012-.563M7.34 19.074a.396.396 0 0 1 .562 0l.575.574v-4.882c0-.22.175-.403.402-.403.223 0 .398.176.398.403v4.882l.575-.574a.396.396 0 0 1 .562 0 .396.396 0 0 1 0 .563L9.16 20.89c-.015.015-.035.035-.058.047q-.019.009-.032.019a.1.1 0 0 1-.03.012 1 1 0 0 1-.09.031q-.018.002-.036.004H8.84q-.016.001-.034-.004c-.024-.008-.055-.012-.078-.027-.008 0-.02-.004-.024-.012a.24.24 0 0 1-.11-.078l-1.253-1.25a.39.39 0 0 1 0-.559m0 0"/><path fill="#061c3d" d="M17.816 11.473c0-.012.004-.016.004-.028.008-.02.02-.043.024-.062a.4.4 0 0 1 .328-.211l.863-.059v-.812l-.863-.059a.4.4 0 0 1-.356-.297 3.1 3.1 0 0 0-.34-.816.395.395 0 0 1 .044-.465l.566-.66-.574-.574-.66.566a.39.39 0 0 1-.465.043 3 3 0 0 0-.817-.34.4.4 0 0 1-.297-.355l-.058-.864h-.809l-.062.864a.4.4 0 0 1-.297.355 3.1 3.1 0 0 0-.817.34.395.395 0 0 1-.464-.043l-.66-.566-.575.574.57.66a.41.41 0 0 1 .044.465 2.9 2.9 0 0 0-.34.816.4.4 0 0 1-.356.297l-.867.059v.812l.867.059a.4.4 0 0 1 .356.297c.07.285.187.562.34.816a.41.41 0 0 1-.043.465l-.57.66.573.574.66-.57a.4.4 0 0 1 .465-.039c.254.148.528.266.817.336a.4.4 0 0 1 .297.36l.062.863h.809l.058-.864a.43.43 0 0 1 .11-.25.5.5 0 0 1 .074-.058l.055-.032a.2.2 0 0 1 .058-.02c.285-.07.563-.187.817-.335a.4.4 0 0 1 .465.04l.66.57.574-.575-.566-.66a.39.39 0 0 1-.043-.465c.152-.25.265-.527.34-.812m-3 1.441a2.21 2.21 0 0 1-2.207-2.207c0-1.215.993-2.207 2.207-2.207 1.215 0 2.207.992 2.207 2.207a2.21 2.21 0 0 1-2.207 2.207m0 0"/><path fill="#061c3d" d="M5.617 8.664c.23.332.559.598.946.734.082.032.175.055.265.082q.008-.001.016.004.046.01.093.02a1 1 0 0 0 .188.016h3.332c.023-.004.04-.004.066-.004l.61-.043a3.6 3.6 0 0 1 .207-.489l-.402-.46a.76.76 0 0 1 .019-1.04l.637-.636c.277-.278.722-.29 1.039-.016l.46.398c.157-.078.321-.144.489-.207l.043-.609c.031-.414.352-.719.75-.719h.898c.403 0 .723.305.75.72l.043.608c.172.055.332.13.493.207l.457-.398a.76.76 0 0 1 1.043.016l.632.636a.76.76 0 0 1 .02 1.04l-.398.46q.116.236.203.489l.613.043c.023 0 .039.004.066.004h3.333c.066 0 .124-.012.187-.016q.041-.01.09-.02.008.001.015-.004c.094-.02.184-.043.27-.082a1.95 1.95 0 0 0 1.039-.894c.148-.277.234-.59.234-.922v-.098c0-.03-.004-.066-.004-.097a3 3 0 0 0-.03-.188c0-.008 0-.011-.009-.02a1.93 1.93 0 0 0-1.898-1.538q-.27 0-.531.07a.4.4 0 0 1-.395-.102.39.39 0 0 1-.09-.398 2.471 2.471 0 0 0-2.352-3.219c-.35 0-.69.074-1.011.219-.211.18-1.309 1.207-1.027 2.316.054.211-.07.43-.282.485-.03.004-.07.011-.097.011a.4.4 0 0 1-.387-.304c-.348-1.34.633-2.492 1.098-2.95A1.95 1.95 0 0 0 15.637.747a1.93 1.93 0 0 0-1.114.352.39.39 0 0 1-.546-.098C13.516.379 12.809.004 12.05.004c-1.23 0-2.235.973-2.297 2.187.543.207 1.668.77 2 1.977a.4.4 0 0 1-.277.492c-.036.012-.07.012-.102.012a.4.4 0 0 1-.383-.29c-.27-.987-1.36-1.405-1.656-1.495A1.947 1.947 0 0 0 7.77 5.168a.41.41 0 0 1-.09.34.39.39 0 0 1-.328.133c-.04 0-.082-.008-.118-.008-.933 0-1.718.664-1.902 1.543q.001.007-.004.015c-.012.063-.023.122-.031.188q-.005.048-.004.098v.097c0 .332.082.649.234.926.024.059.059.113.09.164m0 0"/><path fill="#061c3d" d="M14.918 9.305a1.422 1.422 0 0 1 .965.484q.18.209.27.477a1.398 1.398 0 0 1-.41 1.508q-.212.185-.481.273a1.42 1.42 0 0 1-1.075-.074 1.4 1.4 0 0 1-.433-.34 1.4 1.4 0 0 1-.274-.477 1.4 1.4 0 0 1-.07-.543c.016-.187.063-.363.149-.531a1.35 1.35 0 0 1 .336-.434q.211-.186.476-.273t.547-.07m0 0"/></svg>