<svg xmlns="http://www.w3.org/2000/svg" width="40" height="40" version="1.0" viewBox="0 0 30 30"><defs><clipPath id="a"><path d="M.484 4.535h29.032V24.86H.484Zm0 0"/></clipPath></defs><path fill="#061c3d" d="m10.395 19.688-.227.113-.09-.203a2.16 2.16 0 0 1-.84-.567 3.9 3.9 0 0 1-1.449.043.433.433 0 0 0-.5.297l-.203.567-.684-.25.207-.567a.45.45 0 0 0-.207-.547 3.6 3.6 0 0 1-1.18-1.086.46.46 0 0 0-.566-.16l-.543.25-.297-.656.547-.25c.203-.09.293-.32.25-.524a3.85 3.85 0 0 1-.07-1.609.435.435 0 0 0-.293-.5l-.566-.203.246-.68.57.203c.203.067.43 0 .543-.203a3.6 3.6 0 0 1 1.09-1.18.46.46 0 0 0 .156-.566l-.25-.547.66-.293.25.543c.09.203.317.297.52.25.5-.136 1-.16 1.496-.09.183-.34.476-.613.797-.793l.023-.046h.02c.32-.18.683-.274 1.066-.274h.387a.7.7 0 0 0-.387-.293l-.906-.34a.74.74 0 0 0-.59.024.85.85 0 0 0-.41.43l-.113.34a4.3 4.3 0 0 0-1.223.046l-.16-.32a.84.84 0 0 0-.43-.406.74.74 0 0 0-.59.023l-.883.406c-.386.184-.57.637-.386 1.043l.156.317c-.316.273-.59.57-.836.91l-.34-.113a.793.793 0 0 0-1 .476l-.34.906a.77.77 0 0 0 .024.59c.09.18.25.34.43.406l.34.114c-.044.41-.024.816.046 1.226l-.32.16a.82.82 0 0 0-.406.43.77.77 0 0 0 .023.59l.406.883a.79.79 0 0 0 1.043.387l.32-.16c.27.32.567.59.907.84l-.113.34c-.137.41.066.839.476 1l.906.339c.09.023.184.047.274.047a.7.7 0 0 0 .316-.07c.184-.09.34-.25.41-.43l.114-.34c.406.043.816.02 1.222-.047l.16.316c.09.184.25.34.43.41.203.067.41.067.59-.023l.887-.406a.83.83 0 0 0 .43-.523h-.887c-.157.046-.317.023-.453 0m0 0"/><path fill="#061c3d" d="M7.652 13.54c.25-.114.496-.18.77-.18.07 0 .16 0 .226.023v-.906a2.63 2.63 0 0 0-1.382.246 2.78 2.78 0 0 0-1.407 1.543 2.67 2.67 0 0 0 .09 2.086c.32.66.864 1.16 1.543 1.406.297.113.613.16.93.16.09 0 .183 0 .25-.023a2 2 0 0 1-.047-.383v-.524c-.27.047-.566 0-.836-.09-.457-.16-.816-.5-1.023-.93a1.82 1.82 0 0 1-.067-1.382c.18-.457.52-.84.953-1.047M21.352 12.406v.75h.543c.023 0 .023 0 .046-.023.024 0 .024 0 .043-.024.024 0 .024-.023.047-.023 0 0 .024 0 .024-.02l.066-.07 1.227-1.223h1.496c.18.52.68.907 1.27.907.75 0 1.363-.614 1.363-1.364 0-.746-.614-1.359-1.364-1.359-.59 0-1.09.387-1.27.906h-1.679a.45.45 0 0 0-.316.137l-1.227 1.246h-.27zm4.761-1.52a.453.453 0 1 1 0 .908.453.453 0 0 1 0-.907m0 0"/><g clip-path="url(#a)"><path fill="#061c3d" d="M28.156 4.535H1.844c-.746 0-1.36.613-1.36 1.363v17.239c0 .746.614 1.36 1.36 1.36h26.312c.746 0 1.36-.614 1.36-1.36V5.898c0-.75-.614-1.363-1.36-1.363m-26.312.91h26.312c.25 0 .453.203.453.453v1.813H1.391V5.898c0-.25.203-.453.453-.453M28.156 23.59H1.844a.456.456 0 0 1-.453-.453V8.617h27.218v14.52a.456.456 0 0 1-.453.453m0 0"/></g><path fill="#061c3d" d="M4.113 6.578q.001.186-.133.32a.43.43 0 0 1-.32.133.43.43 0 0 1-.32-.133.43.43 0 0 1-.133-.32q-.001-.19.133-.32a.43.43 0 0 1 .32-.133q.186-.001.32.133.134.13.133.32M6.836 6.578a.45.45 0 0 1-.133.32.43.43 0 0 1-.32.133.44.44 0 0 1-.324-.133.45.45 0 0 1 0-.64.44.44 0 0 1 .324-.133q.186-.001.32.133a.44.44 0 0 1 .133.32M9.555 6.578q.001.186-.133.32a.43.43 0 0 1-.32.133.43.43 0 0 1-.32-.133.45.45 0 0 1 0-.64.43.43 0 0 1 .32-.133q.19-.001.32.133.134.13.133.32M20.445 12.406c0-.703-.59-1.293-1.293-1.293h-8.304c-.703 0-1.293.59-1.293 1.293v5.125c0 .703.59 1.293 1.293 1.293h8.304c.703 0 1.293-.59 1.293-1.293Zm-.91 5.125c0 .207-.18.387-.383.387h-8.304a.395.395 0 0 1-.383-.387v-5.125c0-.203.18-.386.383-.386h8.304c.203 0 .383.183.383.386Zm0 0"/><path fill="#061c3d" d="M13.48 14.266v-.383c0-.094-.023-.16-.023-.23l-2.223.91c-.043.136-.043.25-.043.382 0 .137.02.274.043.434l2.223.906c0-.023.023-.066.023-.113s0-.09.024-.137v-.387c0-.066-.024-.132-.024-.203l-1.43-.5 1.407-.496c.023-.07.023-.113.023-.183M15.637 12.95h-.207c-.067 0-.137.023-.203.023l-1.293 3.836c.09.02.183.02.25.043h.406c.07 0 .137-.024.207-.024l1.293-3.832c-.094-.023-.184-.023-.25-.047zM16.543 13.633c-.023.066-.023.137-.023.226v.384c0 .07.023.136.023.206l1.406.496-1.406.477c-.023.07-.023.137-.023.207v.383c0 .047 0 .093.023.136.023.047.023.07.023.114l2.223-.907c.043-.136.043-.296.043-.43 0-.136-.023-.273-.043-.386ZM26.793 19.05h-5.441a.91.91 0 0 0-.907.91v1.813c0 .5.407.907.907.907h5.441c.5 0 .91-.407.91-.907v-1.812c0-.5-.41-.91-.91-.91m-5.441 2.723v-1.812h5.441v1.812Zm0 0"/><path fill="#061c3d" d="M25.887 20.188c-.407 0-.633.226-.77.363-.094.09-.094.09-.137.09-.046 0-.046 0-.136-.09-.137-.137-.364-.363-.77-.363-.41 0-.637.226-.773.363-.09.09-.09.09-.137.09-.043 0-.043 0-.137-.09-.132-.137-.359-.363-.77-.363a.453.453 0 0 0 0 .906c.048 0 .048 0 .138.09.136.136.363.363.77.363.41 0 .636-.227.773-.363.09-.09.09-.09.136-.09.043 0 .043 0 .133.09.137.136.363.363.773.363.407 0 .633-.227.77-.363.09-.09.09-.09.137-.09a.453.453 0 0 0 0-.907M24.074 13.61c-.59 0-1.09.386-1.273.906h-1.45v.906h1.45c.183.523.683.91 1.273.91.746 0 1.36-.613 1.36-1.363 0-.746-.614-1.36-1.36-1.36m0 1.812a.457.457 0 0 1-.457-.453.456.456 0 0 1 .91 0c0 .25-.207.453-.453.453m0 0"/></svg>