<svg xmlns="http://www.w3.org/2000/svg" width="40" height="40" version="1.0" viewBox="0 0 30 30"><defs><clipPath id="a"><path d="M.484 0h29.032v29.031H.484Zm0 0"/></clipPath></defs><path fill="#fff" d="M10.125 6.063c-1.977 0-3.602 1.578-3.602 3.554 0 1.977 1.625 3.559 3.602 3.559s3.602-1.582 3.602-3.559c0-1.976-1.582-3.555-3.602-3.555m0 6.28c-1.492 0-2.723-1.187-2.723-2.679 0-1.496 1.23-2.68 2.723-2.68s2.723 1.184 2.723 2.68c0 1.492-1.188 2.68-2.723 2.68M27.035 18.93l-1.098-.133a5.3 5.3 0 0 0-.617-1.45l1.012-1.273-1.23-1.23a.6.6 0 0 0-.79-.043l-.878.66a6 6 0 0 0-1.45-.617l-.132-1.098c-.043-.305-.309-.527-.57-.527h-1.188c-.305 0-.57.222-.57.527l-.133 1.098a5.3 5.3 0 0 0-1.45.617l-.878-.66c-.22-.176-.57-.133-.79.043l-.835.836c-.22.218-.22.527-.043.789l.66.879a5.3 5.3 0 0 0-.617 1.449l-1.098.133c-.305.043-.527.308-.527.57v1.188c0 .308.222.57.527.57l1.098.133c.132.527.351 1.007.617 1.449l-.66.879a.6.6 0 0 0 .043.789l.835.836c.22.218.528.218.79.043l.878-.66a6 6 0 0 0 1.45.617l.132 1.097c.043.309.309.528.57.528h1.188c.309 0 .57-.219.57-.528l.133-1.097a5.3 5.3 0 0 0 1.45-.617l.878.66c.086.086.22.133.395.133a.57.57 0 0 0 .438-.176l.835-.836c.22-.219.22-.528.043-.79l-.656-.878a5.5 5.5 0 0 0 .613-1.45l1.098-.132c.309-.043.527-.309.527-.57V19.5a.7.7 0 0 0-.57-.57m-.351 1.539-1.055.129a.57.57 0 0 0-.484.484 6.6 6.6 0 0 1-.614 1.54.595.595 0 0 0 .043.702l.66.832-.57.442-.879-.66c-.176-.133-.484-.176-.703-.043-.484.304-.965.527-1.539.613a.61.61 0 0 0-.48.484l-.133 1.055h-.66l-.13-1.012a.57.57 0 0 0-.484-.484c-.57-.13-1.054-.305-1.539-.613a.595.595 0 0 0-.703.042l-.832.618-.484-.485.703-.922.219-.265-.176-.262c-.305-.484-.57-1.012-.657-1.582a.62.62 0 0 0-.484-.484l-1.14-.13v-.702l1.05-.133a.556.556 0 0 0 .485-.485c.132-.527.351-1.05.617-1.535a.6.6 0 0 0-.047-.703l-.656-.836.48-.48.793.613.262.176h.308l.133-.086c.48-.309 1.008-.574 1.625-.66a.61.61 0 0 0 .48-.485l.134-1.054h.703l.133 1.054a.556.556 0 0 0 .48.485c.574.133 1.055.308 1.539.613a.595.595 0 0 0 .703-.043l.832-.66.485.484-.66.836a.59.59 0 0 0-.044.703c.309.48.528.965.618 1.535a.6.6 0 0 0 .48.485l1.055.133v.746Zm0 0"/><path fill="#fff" d="M20.621 16.82c-1.844 0-3.336 1.496-3.336 3.297 0 1.844 1.492 3.293 3.336 3.293s3.34-1.492 3.34-3.293c0-1.847-1.496-3.297-3.34-3.297m0 5.711c-1.36 0-2.457-1.097-2.457-2.414 0-1.363 1.098-2.418 2.457-2.418 1.363 0 2.461 1.098 2.461 2.418 0 1.317-1.098 2.414-2.46 2.414m0 0"/><g clip-path="url(#a)"><path fill="#fff" d="M20.621 11.242c-.351 0-.656.047-.965.047.086-.527.133-1.098.133-1.625C19.79 4.348 15.484 0 10.168 0 4.808 0 .504 4.348.504 9.664c0 5.313 4.305 9.66 9.621 9.66.57 0 1.14-.043 1.668-.129-.043.305-.043.657-.043.965 0 4.875 3.996 8.871 8.871 8.871 4.875-.043 8.875-4.039 8.875-8.914 0-4.922-4-8.875-8.875-8.875m-10.496 7.16a8.734 8.734 0 0 1-8.742-8.738c0-4.832 3.91-8.785 8.742-8.785s8.738 3.953 8.738 8.785c0 .613-.086 1.23-.175 1.8a8.7 8.7 0 0 0-3.293 1.493l-.22-.262a5.7 5.7 0 0 0 .66-1.629c.352-.043.966-.129 1.227-.171a.62.62 0 0 0 .528-.618V9.004a.61.61 0 0 0-.527-.613l-1.184-.176a5.7 5.7 0 0 0-.66-1.625l1.097-1.406L15 3.864a.6.6 0 0 0-.79-.044l-1.01.746a5.8 5.8 0 0 0-1.626-.656l-.176-1.23c-.043-.266-.308-.485-.613-.485h-1.32a.615.615 0 0 0-.613.528l-.133 1.23a5.3 5.3 0 0 0-1.625.66c-.309-.222-.79-.574-1.012-.75a.6.6 0 0 0-.789.047l-.922.922c-.219.219-.219.527-.043.79l.746.968a5.7 5.7 0 0 0-.66 1.625h-.086c-.394.086-.922.129-1.187.176a.61.61 0 0 0-.528.613v1.273c0 .309.219.57.528.618l1.23.171c.133.575.352 1.102.66 1.63-.222.304-.574.745-.75.964a.6.6 0 0 0 .047.79l.922.921c.219.223.527.223.79.047l1.01-.75a5.8 5.8 0 0 0 1.626.66l.176 1.23a.615.615 0 0 0 .613.528h1.32c.305 0 .57-.219.613-.527l.176-1.23a5.3 5.3 0 0 0 1.625-.661l.262.223a9.7 9.7 0 0 0-1.535 3.336c-.57.132-1.14.175-1.801.175m3.91-4.215-.441-.351a.59.59 0 0 0-.703-.043 5 5 0 0 1-1.668.703c-.262.043-.438.262-.485.524l-.175 1.187H9.73l-.175-1.187c-.043-.262-.22-.48-.485-.524-.613-.133-1.187-.351-1.668-.703a.595.595 0 0 0-.703.043l-.965.746-.574-.57c.266-.352.703-.88.793-1.012l.262-.305-.262-.265c-.351-.528-.57-1.098-.746-1.711-.047-.266-.266-.442-.527-.485l-1.188-.175v-.836c.266-.043.66-.086.922-.13l.266-.046c.261-.043.437-.219.527-.48a5 5 0 0 1 .703-1.672c.13-.22.13-.528-.047-.704L5.16 5.27l.574-.57c.348.265.922.702 1.051.788l.352.176.222-.219c.524-.351 1.098-.57 1.754-.703.266-.043.442-.262.485-.527l.132-1.14h.832l.176 1.187c.047.261.223.437.485.527.613.129 1.187.352 1.668.7a.59.59 0 0 0 .703-.044l.969-.746.57.57-.746.97a.67.67 0 0 0 0 .702c.351.524.57 1.051.699 1.668.047.262.266.438.527.485l1.188.172v.836c-.395.043-.965.132-1.188.175-.261.043-.437.22-.527.485a4.6 4.6 0 0 1-.7 1.668.67.67 0 0 0 0 .703l.352.437c-.265.133-.484.399-.703.617m6.586 13.922c-4.39 0-7.992-3.601-7.992-7.992 0-4.394 3.601-7.996 7.992-7.996 4.395 0 7.996 3.559 7.996 7.996 0 4.434-3.601 7.992-7.996 7.992m0 0"/></g><path fill="#fff" d="M20.094 3.516s0 .043 0 0l2.195 2.02c.176.175.441.175.617-.048.176-.172.176-.437-.043-.613L21.5 3.602h5.668v7.554c0 .262.176.438.437.438.262 0 .438-.176.438-.438V3.207c0-.266-.176-.441-.438-.441h-6.062l1.32-1.184a.47.47 0 0 0 .043-.617.47.47 0 0 0-.617-.043l-2.195 1.976a.4.4 0 0 0-.13.309c0 .133.044.262.13.309M11.047 25.871a.4.4 0 0 0-.133-.308l-2.195-2.02c-.176-.176-.438-.176-.614.043-.175.176-.175.437.043.613l1.364 1.274H3.8v-5.27c0-.262-.176-.437-.442-.437-.261 0-.437.175-.437.437v5.711c0 .262.176.438.437.438h6.106l-1.317 1.187a.47.47 0 0 0-.043.613.47.47 0 0 0 .614.047l2.195-1.976c.176-.176.133-.485.133-.352m0 0"/></svg>