<svg xmlns="http://www.w3.org/2000/svg" width="40" height="40" version="1.0" viewBox="0 0 30 30"><defs><clipPath id="a"><path d="M.484 13H5v10.336H.484Zm0 0"/></clipPath><clipPath id="b"><path d="M3 12h6v11.336H3Zm0 0"/></clipPath><clipPath id="c"><path d="M7 11h6v12.336H7Zm0 0"/></clipPath><clipPath id="d"><path d="M25 13h4.516v10.336H25Zm0 0"/></clipPath><clipPath id="e"><path d="M21 12h6v11.336h-6Zm0 0"/></clipPath><clipPath id="f"><path d="M17 11h6v12.336h-6Zm0 0"/></clipPath><clipPath id="g"><path d="M11 9h8v14.336h-8Zm0 0"/></clipPath><clipPath id="h"><path d="M13 5.914h4V10h-4Zm0 0"/></clipPath></defs><g clip-path="url(#a)"><path fill="#061c3d" d="M.965 18.434q.012.001.023-.004a.41.41 0 0 0 .387-.434q-.028-.516-.027-.937c-.004-1.25.18-1.95.355-2.317v7.727c0 .351.285.636.637.636.355 0 .64-.285.64-.636V17.82h.239v4.649a.637.637 0 0 0 1.273 0V17.96a.6.6 0 0 1-.285.09h-.035a.603.603 0 0 1-.602-.567q-.024-.41-.03-.797l-.442.56-.489-.622.282-2.074c.066.023.136.039.207.039s.14-.016.207-.04l.23 1.704c.012-1.145.145-2.024.406-2.684q.011-.035.028-.07H2.102q-.012-.001-.024.004a.9.9 0 0 0-.418.11c-.277.136-.574.437-.785.968-.21.535-.352 1.309-.352 2.477q-.001.45.028.984c.015.219.195.39.414.39m1.937-4.512h.391l.098.387-.012.02a.43.43 0 0 1-.563 0l-.011-.02Zm0 0"/></g><path fill="#061c3d" d="M4.258 12.047q0 .235-.09.445-.087.21-.25.375-.164.165-.375.254a1.17 1.17 0 0 1-1.266-.254 1.15 1.15 0 0 1-.25-.375 1.15 1.15 0 0 1 .25-1.262 1.13 1.13 0 0 1 .82-.34q.229 0 .446.087a1.16 1.16 0 0 1 .625.628q.09.213.09.442m0 0"/><g clip-path="url(#b)"><path fill="#061c3d" d="M4.074 13.625c-.234.594-.394 1.453-.394 2.75q0 .505.035 1.098a.46.46 0 0 0 .457.433h.027a.46.46 0 0 0 .43-.484 21 21 0 0 1-.031-1.047c-.004-1.387.199-2.164.398-2.574v8.597c0 .391.316.707.711.707.39 0 .707-.316.707-.707v-5.171h.266v5.171a.71.71 0 0 0 1.418 0v-4.941a.8.8 0 0 1-.239.05q-.018.006-.043.005a.734.734 0 0 1-.726-.688q-.03-.455-.035-.883l-.508.645L6 15.898l.316-2.312a.7.7 0 0 0 .23.043.7.7 0 0 0 .231-.043l.274 2.02v-.02c0-1.352.148-2.387.457-3.16v-.004H5.414a1.04 1.04 0 0 0-.465.121c-.308.152-.64.488-.875 1.082m2.254-.734h.438l.105.43-.016.023a.486.486 0 0 1-.62 0l-.016-.024Zm0 0"/></g><path fill="#061c3d" d="M7.836 10.805q.001.258-.098.492-.1.238-.281.418a1.27 1.27 0 0 1-.91.379q-.258.001-.492-.098a1.288 1.288 0 1 1 .984-2.383 1.288 1.288 0 0 1 .797 1.191m0 0"/><g clip-path="url(#c)"><path fill="#061c3d" d="M7.707 12.508c-.262.664-.437 1.625-.437 3.074q0 .563.035 1.23c.02.27.242.481.511.481h.032a.51.51 0 0 0 .48-.543 21 21 0 0 1-.035-1.168c0-1.55.223-2.422.445-2.875v9.61c0 .437.356.788.793.788a.79.79 0 0 0 .793-.789v-5.785h.297v5.785c0 .438.356.79.793.79s.79-.352.79-.79V16.72a.7.7 0 0 1-.161.027h-.047a.8.8 0 0 1-.797-.75 26 26 0 0 1-.043-1.402c0-1.453.153-2.574.465-3.434H9.234c-.011 0-.02.004-.027.004-.117 0-.309.027-.523.137-.344.168-.715.543-.977 1.207m2.52-.824h.488l.12.48-.015.031a.55.55 0 0 1-.695 0l-.02-.027Zm-.012.78a.72.72 0 0 0 .515 0l.352 2.583-.61.77-.609-.77Zm0 0"/></g><path fill="#061c3d" d="M11.914 9.355q-.002.287-.11.551-.112.264-.312.469a1.5 1.5 0 0 1-.469.313q-.263.107-.55.109c-.192 0-.375-.04-.551-.11a1.45 1.45 0 0 1-.89-1.332 1.45 1.45 0 0 1 .89-1.332 1.4 1.4 0 0 1 .55-.109 1.45 1.45 0 0 1 1.332.89q.108.264.11.551m0 0"/><g clip-path="url(#d)"><path fill="#061c3d" d="m26.46 16.254.231-1.703c.067.023.137.039.207.039a.7.7 0 0 0 .211-.04l.282 2.079-.493.617-.441-.558q-.005.386-.027.796a.607.607 0 0 1-.606.567h-.035a.6.6 0 0 1-.281-.09v4.508a.637.637 0 0 0 1.273 0V17.82h.239v4.649a.637.637 0 0 0 1.273 0v-7.727c.18.367.36 1.067.36 2.317q.002.42-.032.937a.41.41 0 0 0 .39.434.1.1 0 0 0 .024.004.414.414 0 0 0 .41-.391q.031-.533.032-.984c0-1.168-.145-1.942-.356-2.477-.207-.531-.508-.832-.785-.969a.9.9 0 0 0-.418-.11q-.012-.004-.023-.003H26.03c.008.023.02.047.028.07.261.66.394 1.54.402 2.684m.243-2.332h.39l.102.387-.011.02a.44.44 0 0 1-.567 0l-.012-.02Zm0 0"/></g><path fill="#061c3d" d="M28.059 12.047q.002.235-.09.445-.087.21-.25.375-.165.165-.375.254-.211.087-.446.086a1.14 1.14 0 0 1-.816-.34 1.2 1.2 0 0 1-.254-.375 1.15 1.15 0 0 1-.086-.445 1.14 1.14 0 0 1 .34-.817 1.12 1.12 0 0 1 .816-.34q.235 0 .446.087a1.16 1.16 0 0 1 .625.628q.091.213.09.442m0 0"/><g clip-path="url(#e)"><path fill="#061c3d" d="M22.945 15.582v.023l.274-2.02a.7.7 0 0 0 .23.044h.004a.7.7 0 0 0 .23-.043l.313 2.312-.543.688-.512-.645q-.006.428-.03.883a.735.735 0 0 1-.731.688q-.022.001-.043-.004a.8.8 0 0 1-.235-.051v4.941a.71.71 0 0 0 1.418 0v-5.171h.266v5.171a.707.707 0 1 0 1.414 0v-8.597c.2.41.402 1.187.398 2.574 0 .316-.007.664-.03 1.047a.46.46 0 0 0 .429.484h.027a.456.456 0 0 0 .457-.433q.036-.593.035-1.098c0-1.297-.156-2.156-.394-2.75-.23-.594-.563-.93-.871-1.082a1.05 1.05 0 0 0-.465-.121h-2.097s0 .004.003.004c.305.773.453 1.804.453 3.156m.29-2.691h.433l.11.43-.016.023a.486.486 0 0 1-.621 0l-.016-.024Zm0 0"/></g><path fill="#061c3d" d="M24.742 10.805a1.272 1.272 0 0 1-.379.91 1.272 1.272 0 0 1-.91.379 1.28 1.28 0 0 1-.914-.38 1.2 1.2 0 0 1-.277-.417 1.25 1.25 0 0 1 0-.985q.094-.24.277-.421a1.3 1.3 0 0 1 .914-.375q.252-.002.492.097a1.288 1.288 0 0 1 .797 1.191m0 0"/><g clip-path="url(#f)"><path fill="#061c3d" d="M18.797 15.996a.793.793 0 0 1-.793.75h-.047a1 1 0 0 1-.164-.027v5.597c0 .438.355.79.793.79a.79.79 0 0 0 .793-.79v-5.785h.297v5.785a.79.79 0 0 0 1.582 0v-9.609c.222.453.449 1.324.445 2.875q0 .53-.035 1.168c-.016.285.2.527.48.543h.032c.27 0 .496-.211.511-.48q.041-.669.04-1.231c0-1.45-.18-2.41-.442-3.074s-.633-1.04-.977-1.207a1.2 1.2 0 0 0-.519-.137q-.016-.005-.031-.004h-2.387c.309.852.465 1.985.465 3.434 0 .437-.012.91-.043 1.402m.484-4.312h.489l.12.48-.019.031a.54.54 0 0 1-.691 0l-.02-.03Zm-.011.78a.72.72 0 0 0 .515 0l.348 2.583-.606.77-.609-.77Zm0 0"/></g><path fill="#061c3d" d="M20.969 9.355c0 .192-.04.375-.11.551q-.113.264-.312.469a1.5 1.5 0 0 1-.469.313q-.264.107-.55.109c-.192 0-.376-.04-.555-.11a1.45 1.45 0 0 1-.778-.78 1.4 1.4 0 0 1-.11-.552 1.45 1.45 0 0 1 .887-1.332q.27-.11.555-.109a1.45 1.45 0 0 1 1.332.89c.07.176.11.36.11.551m0 0"/><g clip-path="url(#g)"><path fill="#061c3d" d="M11.871 11.113c-.297.75-.496 1.84-.496 3.48 0 .427.012.887.043 1.391a.58.58 0 0 0 .578.543h.035a.58.58 0 0 0 .543-.613q-.04-.722-.039-1.32c-.004-1.754.254-2.742.504-3.254v10.87c0 .497.402.895.895.895a.895.895 0 0 0 .898-.894v-6.543h.336v6.543c0 .496.402.894.895.894a.895.895 0 0 0 .898-.894V11.34q.064.134.129.308c.203.567.375 1.497.375 2.946q-.001.598-.043 1.32a.584.584 0 0 0 .547.613h.035a.58.58 0 0 0 .578-.543c.027-.504.043-.964.043-1.39-.004-2.188-.355-3.399-.832-4.125a2 2 0 0 0-.773-.723 1.4 1.4 0 0 0-.586-.156h-2.868a1.4 1.4 0 0 0-.59.156c-.39.195-.808.617-1.105 1.367m2.852-.93h.55l.141.544-.023.035a.615.615 0 0 1-.786 0l-.02-.035Zm-.016.883a.8.8 0 0 0 .293.055q.147-.001.29-.055l.398 2.922-.688.871-.687-.87Zm0 0"/></g><g clip-path="url(#h)"><path fill="#061c3d" d="M16.629 7.547q.001.321-.125.625a1.6 1.6 0 0 1-.352.527q-.228.228-.527.356-.303.122-.625.12a1.6 1.6 0 0 1-.625-.12 1.67 1.67 0 0 1-.883-.883 1.623 1.623 0 0 1 .355-1.777q.23-.234.528-.356a1.623 1.623 0 0 1 2.129.883q.127.298.125.625m0 0"/></g></svg>