<svg xmlns="http://www.w3.org/2000/svg" width="40" height="40" version="1.0" viewBox="0 0 30 30"><defs><clipPath id="a"><path d="M10 23h10v3.129H10Zm0 0"/></clipPath><clipPath id="b"><path d="M18 2.902h11.516V13H18Zm0 0"/></clipPath><clipPath id="c"><path d="M.707 2.902H12V13H.707Zm0 0"/></clipPath></defs><path fill="#061c3d" d="M12.305 5.254h5.61v1.441h-5.61ZM24.918 18.371H5.301V11.61H3.859v10.27a1.44 1.44 0 0 0 1.442 1.441h19.617c.8 0 1.441-.644 1.441-1.441v-10.27h-1.441Zm-9.809 4.395c-.66 0-1.203-.536-1.203-1.203 0-.66.543-1.2 1.203-1.2s1.204.54 1.204 1.2c0 .667-.543 1.203-1.204 1.203m0 0"/><g clip-path="url(#a)"><path fill="#061c3d" d="m12.387 23.914-2.125 1.61v.753h9.695v-.754l-2.125-1.609Zm0 0"/></g><path fill="#061c3d" d="M12.746 14.898c-.34.176-.648.399-.941.653a4.42 4.42 0 0 1-1.16-2.727c-.551-.402-.653-.476-.59-.433q-.01.067-.008.148c0 2.785 2.277 5.055 5.062 5.055 2.79 0 5.063-2.27 5.063-5.055 0-.055 0-.11-.004-.156l-.59.441a4.43 4.43 0 0 1-1.156 2.723 5.5 5.5 0 0 0-.942-.656c.168-.618.27-1.32.293-2.067h.66a1 1 0 0 1-.472-.578h-.188a9 9 0 0 0-.293-2.07 4 4 0 0 0 .434-.266v-.719a4 4 0 0 1-.613.418c-.192-.511-.43-.96-.707-1.304.476.164.93.418 1.32.742v-.73a5.05 5.05 0 0 0-2.805-.848c-1.02 0-1.984.3-2.804.851v.727a4.3 4.3 0 0 1 1.328-.742c-.281.343-.52.793-.707 1.304a3.6 3.6 0 0 1-.621-.425v.722c.144.102.285.192.441.27a8.6 8.6 0 0 0-.293 2.07h-.195a1 1 0 0 1-.473.578h.668c.02.746.121 1.45.293 2.074m5.258 1.055c-.41.352-.887.625-1.41.809.277-.348.515-.793.707-1.305q.375.207.703.496m-2.602-7.851c.555.171 1.043.828 1.375 1.761a4.5 4.5 0 0 1-1.375.305Zm0 2.644a4.9 4.9 0 0 0 1.543-.332c.14.55.23 1.176.25 1.832h-1.793Zm0 2.078h1.793a8.5 8.5 0 0 1-.25 1.824 4.9 4.9 0 0 0-1.543-.328Zm0 2.074a4.4 4.4 0 0 1 1.375.301c-.328.938-.82 1.598-1.375 1.77Zm-.578 2.07c-.554-.171-1.047-.831-1.375-1.769a4.4 4.4 0 0 1 1.375-.3Zm0-8.866v2.066a4.5 4.5 0 0 1-1.375-.305c.328-.933.82-1.59 1.375-1.761m-1.547 2.316a5 5 0 0 0 1.547.328v1.5h-1.8c.027-.656.109-1.273.253-1.828m1.547 2.406v1.496a5 5 0 0 0-1.547.332 9 9 0 0 1-.254-1.828Zm-1.898 2.633c.187.52.426.957.699 1.305a4.6 4.6 0 0 1-1.41-.805c.223-.191.46-.355.71-.5M25.563 8.45h.843l.317-1.364h-1.16Zm0 0"/><g clip-path="url(#b)"><path fill="#061c3d" d="M28.578 2.875h-9.242a.83.83 0 0 0-.828.824v8.25c0 .32.347.516.62.356l2.216-1.29h7.234a.83.83 0 0 0 .828-.824V3.7a.83.83 0 0 0-.828-.824m-5.445 7.05a.625.625 0 0 1-.621-.62c0-.172.074-.328.187-.442h.875c.113.114.184.27.184.442 0 .34-.281.62-.625.62m2.664 0a.623.623 0 0 1-.437-1.062h.874c.114.114.188.27.188.442 0 .34-.281.62-.625.62m1.8-4.777-.827 3.555a.205.205 0 0 1-.2.16h-4.238a.2.2 0 0 1-.07-.011q-.016-.007-.032-.02c-.007-.004-.02-.008-.027-.016-.012-.007-.02-.02-.027-.027-.004-.008-.012-.012-.02-.023-.008-.012-.011-.028-.02-.043q0-.01-.007-.02l-.973-4.16a.205.205 0 0 0-.203-.16h-.437a.21.21 0 0 1-.207-.207c0-.117.093-.207.207-.207h.437c.293 0 .54.195.606.48l.105.446h5.734a.207.207 0 0 1 .2.254m0 0"/></g><path fill="#061c3d" d="M25.563 6.672h1.257l.317-1.363h-1.575ZM22.082 6.672h1.258V5.309h-1.574ZM23.754 5.309h1.394v1.363h-1.394ZM22.465 8.316l.031.133h.844V7.086h-1.16ZM23.754 7.086h1.394v1.363h-1.394Zm0 0"/><g clip-path="url(#c)"><path fill="#061c3d" d="M11.09 12.305a.411.411 0 0 0 .62-.356V3.7a.824.824 0 0 0-.823-.82H1.645a.82.82 0 0 0-.829.82v6.492c0 .454.368.825.829.825h7.234ZM1.5 9.285v-4.68c0-.52.422-.933.934-.933h7.656c.512 0 .933.414.933.933v4.68a.94.94 0 0 1-.933.938H2.434a.94.94 0 0 1-.934-.938m0 0"/></g><path fill="#061c3d" d="M10.43 4.605a.34.34 0 0 0-.34-.34H2.434a.337.337 0 0 0-.336.34v.34h8.332ZM2.098 5.54h8.332v.753H2.098ZM10.43 9.285V6.887H2.098v2.398c0 .188.152.34.336.34h7.656c.183 0 .34-.152.34-.34m-5.34-.8H3.707v-.512H5.09Zm1.863 0H5.57v-.512h1.383Zm1.867 0H7.434v-.512H8.82Zm0 0"/></svg>