<svg xmlns="http://www.w3.org/2000/svg" width="40" height="40" version="1.0" viewBox="0 0 30 30"><defs><clipPath id="a"><path d="M18 18h11.516v11.031H18Zm0 0"/></clipPath><clipPath id="b"><path d="M.484 10h29.032v19H.484Zm0 0"/></clipPath></defs><g clip-path="url(#a)"><path fill="#061c3d" d="M29.031 25.535q.204 0 .344-.14a.47.47 0 0 0 .14-.344v-1.754a.47.47 0 0 0-.14-.344.47.47 0 0 0-.344-.14h-.61a4.6 4.6 0 0 0-.273-.66l.434-.43a.48.48 0 0 0 .14-.344.46.46 0 0 0-.14-.34l-1.242-1.242a.47.47 0 0 0-.344-.145.47.47 0 0 0-.34.145l-.433.433a4 4 0 0 0-.66-.273v-.613a.48.48 0 0 0-.481-.485h-1.758a.46.46 0 0 0-.34.141.47.47 0 0 0-.144.344v.613c-.227.07-.445.164-.656.273l-.434-.433a.475.475 0 0 0-.684 0l-1.242 1.242a.46.46 0 0 0-.14.34q0 .198.14.344l.434.43q-.164.32-.274.66h-.613a.46.46 0 0 0-.34.14.47.47 0 0 0-.14.344v1.754q0 .204.14.344t.34.14h.613q.11.339.274.66l-.434.434a.46.46 0 0 0-.14.34q0 .198.14.343l1.242 1.239a.45.45 0 0 0 .34.144.46.46 0 0 0 .344-.144l.434-.43q.316.161.656.274v.609q0 .201.144.344.14.14.34.14h1.758a.46.46 0 0 0 .34-.14.47.47 0 0 0 .14-.344v-.61a5 5 0 0 0 .66-.273l.434.43a.45.45 0 0 0 .34.144.46.46 0 0 0 .344-.144l1.242-1.238a.48.48 0 0 0 .14-.344.46.46 0 0 0-.14-.34l-.434-.434q.164-.321.274-.66Zm-1.523-.312a4 4 0 0 1-.227.543.92.92 0 0 0 .157 1.086l.117.117-.559.558-.117-.117a.88.88 0 0 0-.516-.258.9.9 0 0 0-.566.102 3.5 3.5 0 0 1-.547.223.94.94 0 0 0-.469.332.9.9 0 0 0-.183.546v.168h-.79v-.168a.93.93 0 0 0-.656-.879 3.5 3.5 0 0 1-.543-.222.9.9 0 0 0-.566-.102.88.88 0 0 0-.516.258l-.12.117-.56-.558.122-.117a.9.9 0 0 0 .254-.52.9.9 0 0 0-.098-.566 3 3 0 0 1-.227-.543.9.9 0 0 0-.332-.47.9.9 0 0 0-.543-.183h-.168v-.793h.168q.301 0 .543-.183a.88.88 0 0 0 .332-.469q.087-.28.227-.543a.9.9 0 0 0 .098-.566.9.9 0 0 0-.254-.516l-.121-.121.558-.559.121.121q.218.212.516.254t.566-.101q.263-.135.543-.223a.9.9 0 0 0 .473-.332.9.9 0 0 0 .184-.543v-.168h.789v.168q0 .301.183.543.182.242.469.332.282.088.547.223a.9.9 0 0 0 .566.101.9.9 0 0 0 .516-.254l.117-.12.559.558-.117.121a.9.9 0 0 0-.258.516q-.04.297.101.566.134.262.227.543a.9.9 0 0 0 .328.469.9.9 0 0 0 .547.183h.168v.793h-.168a.9.9 0 0 0-.547.184.9.9 0 0 0-.328.469m0 0"/></g><path fill="#061c3d" d="M24.203 21.516a2.66 2.66 0 0 0-1.879.78 2.63 2.63 0 0 0-.777 1.88q0 .528.2 1.015.203.488.577.864a2.7 2.7 0 0 0 1.88.777 2.663 2.663 0 0 0 2.655-2.656 2.6 2.6 0 0 0-.203-1.02 2.7 2.7 0 0 0-.574-.86q-.376-.373-.863-.577a2.7 2.7 0 0 0-1.016-.203m0 4.347a1.7 1.7 0 0 1-.648-.129 1.67 1.67 0 0 1-.914-.914 1.67 1.67 0 0 1 .367-1.84q.235-.238.547-.367a1.67 1.67 0 0 1 1.293 0q.31.128.55.367a1.685 1.685 0 0 1-.55 2.754 1.7 1.7 0 0 1-.645.13m0 0"/><g clip-path="url(#b)"><path fill="#061c3d" d="m.914 15.95 2.035.445v8.746q0 .375.364.468l11.593 2.899q.117.031.235-.004v.004l3.867-.965-.238-.938-3.262.817V15.82l2.047 2.387a.47.47 0 0 0 .468.16l8.11-1.765v2.257h.969v-2.464l2.035-.446a.45.45 0 0 0 .36-.336.46.46 0 0 0-.122-.476l-2.898-2.899a.45.45 0 0 0-.254-.129v-.004l-7.727-1.449-.18.95 5.102.957-8.395 1.46-8.394-1.46 5.101-.958-.175-.949-7.73 1.45v.003a.47.47 0 0 0-.255.13L.672 15.136a.46.46 0 0 0-.121.476.45.45 0 0 0 .363.336m3 8.812v-8.16l8.11 1.765a.465.465 0 0 0 .469-.16l2.05-2.387v11.602ZM25.97 13.098l2.097 2.097-9.964 2.164-2.157-2.515Zm-21.89 0 10.026 1.746-2.16 2.515-9.96-2.164Zm0 0"/></g><path fill="#061c3d" d="M10.7 5.469c-.075.726.027 1.43.296 2.105q.406 1.02 1.227 1.735.386.334.386.843v.98a1.93 1.93 0 0 0 1.192 1.782c.238.102.484.149.742.149h.965q.381.002.738-.149c.238-.098.445-.234.625-.418q.276-.271.422-.625.145-.357.148-.738v-.98a1.02 1.02 0 0 1 .372-.833q.361-.315.652-.695a4.608 4.608 0 0 0 .797-1.719 4.6 4.6 0 0 0 .02-1.894 4.578 4.578 0 0 0-.762-1.738 4.6 4.6 0 0 0-.637-.708 4.2 4.2 0 0 0-1.563-.898 4.15 4.15 0 0 0-1.793-.168 4.3 4.3 0 0 0-1.418.43 4.42 4.42 0 0 0-2.03 2.105 4.4 4.4 0 0 0-.38 1.434m2.874 4.695h2.899v.484h-2.899Zm1.934 1.934h-.965a.9.9 0 0 1-.832-.485h2.629a.9.9 0 0 1-.832.485m-.871-9.641q.195-.019.39-.02a3.17 3.17 0 0 1 2.211.848q.283.253.5.559.219.304.371.648t.227.711q.07.37.07.746-.005.374-.086.742c-.058.243-.136.48-.242.707a3.7 3.7 0 0 1-.383.641q-.226.3-.511.547-.299.26-.473.613h-1.203v-.965a.45.45 0 0 0-.195-.386l-1.657-1.246a.19.19 0 0 1-.082-.16V6.02a.195.195 0 0 1 .13-.176.19.19 0 0 1 .214.031l.281.285q.17.16.38.242.216.087.444.086.229.001.446-.086c.14-.054.27-.136.379-.242l.285-.285a.19.19 0 0 1 .215-.031q.115.047.125.176v.421a.2.2 0 0 1-.078.16l-.696.52.582.774.692-.52q.463-.35.468-.934V6.02q0-.357-.199-.649c-.129-.2-.305-.34-.523-.43a1.173 1.173 0 0 0-1.27.25l-.285.286q-.14.14-.281 0l-.285-.286a1.15 1.15 0 0 0-.594-.316 1.14 1.14 0 0 0-.676.066c-.219.09-.39.23-.523.43q-.196.292-.196.649v.421q.002.585.465.934l1.469 1.098v.726h-1.207a2.1 2.1 0 0 0-.48-.62 3.5 3.5 0 0 1-.965-1.364 3.46 3.46 0 0 1-.23-1.652q.056-.586.3-1.114.245-.534.648-.957c.27-.281.582-.508.926-.687a3.5 3.5 0 0 1 1.102-.348M14.543-.46h.965V.987h-.965ZM19.855 5.336h1.45V6.3h-1.45ZM8.746 5.336h1.45V6.3h-1.45ZM10.242 1.719l.684-.684 1.023 1.024-.683.683ZM18.098 2.059l1.027-1.024.68.684-1.024 1.023Zm0 0"/></svg>