<svg xmlns="http://www.w3.org/2000/svg" width="40" height="40" version="1.0" viewBox="0 0 30 30"><defs><clipPath id="a"><path d="M.484 1.598h29.032v26.855H.484Zm0 0"/></clipPath></defs><g clip-path="url(#a)"><path fill="#fff" d="M26.887 1.617H3.113A2.63 2.63 0 0 0 .484 4.242v14.86c0 1.449 1.18 2.628 2.63 2.628h7.003v2.497h-2.82c-1.274 0-2.309.87-2.309 1.941v1.469c0 .258.207.468.469.468h19.086c.262 0 .469-.21.469-.468v-1.469c0-1.07-1.035-1.941-2.309-1.941h-2.82V21.73h7.004c1.449 0 2.629-1.18 2.629-2.628V4.242c0-1.449-1.18-2.625-2.63-2.625m-2.809 24.551v1H5.922v-1c0-.547.629-1.004 1.375-1.004h15.406c.746 0 1.375.457 1.375 1.004m-5.133-1.941h-7.89V21.73h7.89Zm9.633-5.125c0 .933-.758 1.691-1.691 1.691H3.113a1.69 1.69 0 0 1-1.691-1.691V4.242c0-.93.758-1.691 1.691-1.691h23.774c.933 0 1.691.761 1.691 1.691Zm-1.637-15.68H3.06a.77.77 0 0 0-.77.77v14.214c0 .258.211.469.469.469h24.484a.47.47 0 0 0 .469-.469V4.191a.77.77 0 0 0-.77-.77m-.168 14.516H3.227V4.358h23.546Zm-10.277-1.243a.46.46 0 0 0 .39-.234l.934-1.613h.567l.281.488-.93 1.613a.47.47 0 0 0 .379.703q.076.005.153.004c.933 0 1.761-.476 2.234-1.297.46-.797.45-1.804-.004-2.593l2.277-3.946c.914 0 1.79-.496 2.25-1.297.5-.859.47-1.875-.074-2.71a.47.47 0 0 0-.797.023l-.933 1.613h-.567l-.281-.492.93-1.613a.465.465 0 0 0-.38-.7 2.55 2.55 0 0 0-2.386 1.29c-.46.8-.45 1.804.004 2.597l-2.277 3.946c-.91 0-1.79.496-2.25 1.293a2.55 2.55 0 0 0 .074 2.71c.09.137.242.22.406.215m.332-2.457c.328-.57.988-.898 1.64-.812a.47.47 0 0 0 .466-.23L21.5 8.75a.47.47 0 0 0-.031-.52 1.67 1.67 0 0 1-.117-1.828c.156-.265.367-.476.62-.617l-.542.938a.46.46 0 0 0 0 .468l.55.961a.47.47 0 0 0 .407.235h1.11c.163 0 .32-.09.401-.235l.543-.941c.004.289-.07.578-.226.848a1.68 1.68 0 0 1-1.64.812.47.47 0 0 0-.466.23l-2.566 4.446a.47.47 0 0 0 .035.515c.399.528.445 1.262.113 1.829-.152.27-.367.48-.617.62l.543-.94a.48.48 0 0 0 0-.47l-.555-.956a.47.47 0 0 0-.406-.235h-1.105a.47.47 0 0 0-.406.235l-.543.94c-.004-.288.07-.577.226-.847m-6.742-.418c1.473 0 2.672-1.199 2.672-2.672 0-1.476-1.2-2.675-2.672-2.675a2.677 2.677 0 0 0-2.676 2.675c0 1.473 1.2 2.672 2.676 2.672m0-4.41a1.74 1.74 0 0 1 1.738 1.738c0 .957-.781 1.739-1.738 1.739a1.737 1.737 0 1 1 0-3.477m-5.168 2.676.605.23q.167.651.508 1.23l-.261.59a.47.47 0 0 0 .097.524l.707.703a.46.46 0 0 0 .52.098l.593-.262c.383.23.797.399 1.231.508l.23.605c.07.18.243.301.438.301h1a.465.465 0 0 0 .434-.3l.234-.602a4.7 4.7 0 0 0 1.23-.512l.59.262c.18.078.387.043.524-.098l.703-.703a.47.47 0 0 0 .097-.523l-.261-.59q.341-.58.508-1.23l.605-.235c.18-.066.3-.242.3-.434v-1a.47.47 0 0 0-.3-.437l-.605-.23a4.7 4.7 0 0 0-.508-1.231l.261-.594a.47.47 0 0 0-.097-.52l-.703-.706a.47.47 0 0 0-.524-.098l-.59.266a4.6 4.6 0 0 0-1.23-.512l-.234-.602a.46.46 0 0 0-.434-.3h-1a.465.465 0 0 0-.438.3l-.234.602a4.6 4.6 0 0 0-1.226.512l-.594-.266a.47.47 0 0 0-.52.098l-.707.707a.47.47 0 0 0-.097.52l.261.593a4.7 4.7 0 0 0-.508 1.23l-.605.23a.47.47 0 0 0-.297.438v1a.47.47 0 0 0 .297.438m.637-1.117.539-.207a.46.46 0 0 0 .289-.344 3.8 3.8 0 0 1 .57-1.371c.09-.133.102-.3.04-.45l-.235-.527.25-.25.527.235c.149.062.317.05.45-.04a3.7 3.7 0 0 1 1.367-.566.47.47 0 0 0 .347-.293l.207-.539h.356l.207.54a.47.47 0 0 0 .347.292q.74.143 1.368.567c.132.09.304.101.449.039l.527-.235.254.25-.234.528a.46.46 0 0 0 .039.449c.281.418.469.879.566 1.371a.46.46 0 0 0 .293.344l.535.207v.355l-.535.207a.47.47 0 0 0-.293.348q-.146.74-.566 1.367a.47.47 0 0 0-.04.453l.235.524-.254.254-.523-.235a.47.47 0 0 0-.453.04 3.7 3.7 0 0 1-1.368.566.47.47 0 0 0-.347.293l-.207.535h-.356L9.7 15.14a.47.47 0 0 0-.344-.293 3.7 3.7 0 0 1-1.37-.567.46.46 0 0 0-.45-.039l-.527.235-.25-.254.234-.524a.48.48 0 0 0-.039-.453 3.7 3.7 0 0 1-.57-1.367.48.48 0 0 0-.29-.348l-.538-.207Zm0 0"/></g></svg>