<svg xmlns="http://www.w3.org/2000/svg" width="40" height="40" version="1.0" viewBox="0 0 30 30"><defs><clipPath id="a"><path d="M.484 2.402h29.032V23H.484Zm0 0"/></clipPath><clipPath id="b"><path d="M10 24h10v2.352H10Zm0 0"/></clipPath></defs><g clip-path="url(#a)"><path fill="#061c3d" d="M29.523 20.57a2.12 2.12 0 0 1-2.12 2.121H2.608a2.12 2.12 0 0 1-2.12-2.12V4.526a2.12 2.12 0 0 1 2.12-2.12h24.793a2.12 2.12 0 0 1 2.121 2.12Zm0 0"/></g><path fill="#fff" d="M28.031 17.469c0 .902-.851 1.633-1.902 1.633H3.883c-1.051 0-1.903-.73-1.903-1.633V5.125c0-.902.852-1.633 1.903-1.633h22.246c1.05 0 1.902.73 1.902 1.633Zm0 0"/><g clip-path="url(#b)"><path fill="#061c3d" d="M19.828 25.926c0 .375-.394.683-.883.683h-7.879c-.488 0-.882-.304-.882-.683v-.914c0-.38.394-.684.882-.684h7.88c.488 0 .882.305.882.684Zm0 0"/></g><path fill="#061c3d" d="M12.871 20.207h4.27v4.715h-4.27Zm0 0"/><path fill="#fff" d="M27.402 20.887a1.113 1.113 0 1 1-2.225 0 1.113 1.113 0 0 1 2.225 0m0 0"/><path fill="none" stroke="#fff" stroke-linecap="round" stroke-linejoin="round" stroke-miterlimit="10" stroke-width=".66282944" d="M9.957 24.027h4.418"/><path fill="#061c3d" d="M22.61 14.371c0 .54-.438.973-.977.973H8.379a.974.974 0 0 1-.977-.973V5.836c0-.54.438-.973.977-.973h13.254c.539 0 .976.434.976.973Zm0 0"/><path fill="none" stroke="#fff" stroke-linecap="round" stroke-miterlimit="10" stroke-width=".33642236" d="M18.738 9.379v-.766a.48.48 0 0 0-.48-.476h-1.625M16.633 13.281h1.625a.48.48 0 0 0 .48-.476v-1M13.504 8.137h-1.75a.48.48 0 0 0-.48.476v.766M11.273 11.805v1a.48.48 0 0 0 .48.476h1.75"/><path fill="#fff" d="M22.113 6.902v-.726c0-.477-.406-.867-.91-.867H8.81c-.504 0-.91.39-.91.867v.726Zm0 0"/><path fill="#061c3d" d="M21.543 6.105q-.001.242-.172.415a.56.56 0 0 1-.41.171.57.57 0 0 1-.414-.171.57.57 0 0 1-.172-.415.56.56 0 0 1 .172-.41.57.57 0 0 1 .414-.172.56.56 0 0 1 .41.172.56.56 0 0 1 .172.41m0 0"/><path fill="none" stroke="#fff" stroke-linecap="round" stroke-miterlimit="10" stroke-width=".33642236" d="M12.695 9.379h4.742M12.695 10.492h4.742M12.695 11.601h4.742"/><path fill="#fff" d="m20.164 12.055.727-.578 1.066 1.347-.727.574Zm0 0"/><path fill="#fff" d="M21.316 10.957c.38.176.422.531.094.793l-1.101.871c-.329.258-.664.137-.75-.273l-.348-1.692c-.086-.41.156-.605.539-.426Zm0 0"/></svg>