<svg xmlns="http://www.w3.org/2000/svg" width="40" height="40" version="1.0" viewBox="0 0 30 30"><defs><clipPath id="a"><path d="M.484.691h29.032v28.305H.484Zm0 0"/></clipPath></defs><g clip-path="url(#a)"><path fill="#fff" fill-rule="evenodd" d="m1.313 12.27-.012.011a.468.468 0 0 1-.555-.754l1.098-.812a.472.472 0 0 1 .703.18l.613 1.3a.467.467 0 0 1-.226.621.465.465 0 0 1-.622-.222l-.078-.164c-.191.879-.289 1.793-.289 2.73 0 7.14 5.797 12.942 12.938 12.942 1.617 0 3.168-.301 4.594-.844a.473.473 0 0 1 .605.273.47.47 0 0 1-.273.602 13.8 13.8 0 0 1-4.926.902c-7.656 0-13.875-6.215-13.875-13.875 0-.988.105-1.957.305-2.89m16.019-9.813a12.968 12.968 0 0 0-5.887.23.467.467 0 1 1-.246-.902 13.993 13.993 0 0 1 6.383-.234l-.039-.055a.468.468 0 0 1 .754-.55l.805 1.109a.47.47 0 0 1-.18.7l-1.305.6a.467.467 0 1 1-.395-.848Zm11.313 14.48.039-.035a.473.473 0 0 1 .66.043.47.47 0 0 1-.047.66l-1.027.903a.47.47 0 0 1-.715-.117l-.72-1.246a.47.47 0 0 1 .173-.641.47.47 0 0 1 .64.172l.07.125q.101-.81.102-1.64c0-1.407-.226-2.766-.644-4.036a.469.469 0 0 1 .89-.293 13.9 13.9 0 0 1 .579 6.105M13.172 8.29a.26.26 0 0 1-.262-.262c0-.144.117-.265.262-.265h3.262c.144 0 .261.12.261.265a.26.26 0 0 1-.261.262Zm-5.723 9.344 1.785-1.031c.5-.29.996-.532 1.543-.352.762.246 2 .77 3.27 1.004.21.082.355.297.297.52-.063.222-.258.32-.52.296-.687-.144-1.328-.355-2.039-.543a.464.464 0 0 0-.574.328.47.47 0 0 0 .332.575c.734.195 1.398.414 2.113.558a.04.04 0 0 0 .02.004l.39.063v.004c.618.097 1.18.007 1.72-.305l3.152-1.84c1.187-.691 1.699-.414 1.687.09-.004.152-.05.308-.168.383L14.73 20.91a1.66 1.66 0 0 1-1.335.188l-4.153-1.114a.47.47 0 0 0-.355.047l-.059.035Zm2.48-2.324c-.195-.934-.054-1.97.532-3 .523-.914 1.32-1.942 2.398-3.125q.148.042.313.043h3.262c.109 0 .21-.016.312-.043 1.078 1.183 1.875 2.21 2.399 3.125.656 1.152.753 2.312.449 3.328a4 4 0 0 0-1.125.472l-3.157 1.836q-.029.019-.058.032a1.33 1.33 0 0 0-.324-1.223.48.48 0 0 0 .328-.45v-.136c.707-.152 1.36-.652 1.258-1.492v-.004c-.11-.875-.91-1.223-1.649-1.344a1.8 1.8 0 0 1-.488-.14c-.133-.063-.25-.16-.262-.336-.008-.23.153-.383.352-.461a1 1 0 0 1 .297-.063h.054c.282.008.57.145.7.457a.468.468 0 1 0 .863-.363 1.63 1.63 0 0 0-1.125-.969v-.148a.468.468 0 1 0-.938 0v.152c-.066.016-.133.04-.195.063-.566.222-.973.714-.941 1.378.043.86.808 1.235 1.53 1.356.18.027.372.07.54.144.164.075.309.184.332.387.023.192-.102.309-.25.38a1.3 1.3 0 0 1-.508.116h-.055c-.355-.008-.71-.164-.8-.527a.467.467 0 0 0-.907.226c.16.637.66 1.04 1.254 1.18v.145q-.001.03.004.058-.008-.004-.015-.008c-.02-.003-.04-.011-.063-.015-1.23-.223-2.441-.738-3.18-.98a2.2 2.2 0 0 0-1.136-.051m3.344-8.48-.726-.731a.75.75 0 0 1 0-1.063.755.755 0 0 1 .937-.098c.11.07.235.083.356.032a.38.38 0 0 0 .23-.274.75.75 0 0 1 .735-.593c.347 0 .656.25.73.593a.38.38 0 0 0 .23.274c.122.05.247.039.356-.032a.76.76 0 0 1 .938.098.75.75 0 0 1 0 1.063l-.727.73Zm-7.222 10.23 2.601 4.597a.466.466 0 0 1-.175.633l-.887.504a.47.47 0 0 1-.633-.176l-2.602-4.601a.466.466 0 0 1 .176-.633l.887-.5a.47.47 0 0 1 .633.176m-.606.636a.37.37 0 0 0-.312.418c.031.2.219.34.418.313a.37.37 0 0 0 .312-.418.37.37 0 0 0-.418-.313M24.723 2.496c.394.094.77.246 1.113.461l.723-.324.851.851-.32.727c.21.344.367.719.46 1.113l.74.281v1.207l-.74.282c-.093.394-.25.77-.46 1.113l.32.723-.851.851-.723-.32c-.344.21-.719.367-1.113.46l-.282.74h-1.207l-.28-.74a3.9 3.9 0 0 1-1.118-.46l-.723.32-.851-.851.324-.723a3.8 3.8 0 0 1-.465-1.113l-.734-.282V5.606l.734-.28c.098-.395.25-.77.465-1.114l-.324-.727.851-.851.723.324a3.8 3.8 0 0 1 1.113-.46l.285-.74h1.207Zm-.887 1.61a2.102 2.102 0 1 0 .001 4.204 2.102 2.102 0 0 0-.001-4.205M5.984 10.66c-2.449 0-4.453-2-4.453-4.453 0-2.45 2.004-4.45 4.453-4.45 2.454 0 4.454 2 4.454 4.45 0 2.453-2 4.453-4.454 4.453m-.468-7.05c-.086.023-.176.046-.258.081-.613.243-1.055.77-1.02 1.493.047.937.883 1.34 1.676 1.468.207.035.426.082.621.172.2.09.375.23.406.48.024.196-.066.329-.199.423-.199.136-.469.195-.71.199-.446.011-.907-.18-1.02-.633a.467.467 0 0 0-.567-.34.467.467 0 0 0-.343.567c.18.71.75 1.152 1.414 1.293v.214c0 .258.21.465.468.465a.467.467 0 0 0 .47-.465V8.82c.788-.152 1.526-.695 1.417-1.625-.117-.96-1-1.332-1.809-1.465a2 2 0 0 1-.562-.164c-.172-.082-.316-.207-.328-.43-.012-.284.183-.48.43-.574.433-.171 1.035-.062 1.261.473a.468.468 0 0 0 .864-.36 1.78 1.78 0 0 0-1.274-1.07v-.214a.47.47 0 0 0-.469-.47.47.47 0 0 0-.468.47Zm18.32 14.859a4.45 4.45 0 1 1 0 8.902 4.45 4.45 0 0 1-4.45-4.453 4.45 4.45 0 0 1 4.45-4.45m-2.176 7.289.274-.274a.47.47 0 0 0 0-.66.47.47 0 0 0-.664 0l-.27.274a.464.464 0 0 0 0 .66c.18.183.477.183.66 0m5.016-.66-.274-.274a.464.464 0 0 0-.66 0 .464.464 0 0 0 0 .66l.27.274a.47.47 0 0 0 .664 0 .47.47 0 0 0 0-.66m-6.383-1.711h.383a.468.468 0 1 0 0-.934h-.383a.467.467 0 1 0 0 .934m5.719-3.305-.27.273a.464.464 0 0 0 0 .66c.18.184.477.184.66 0l.274-.273a.47.47 0 0 0 0-.66.47.47 0 0 0-.664 0m-2.645-.707v.383c0 .258.211.469.469.469a.47.47 0 0 0 .469-.47v-.382a.47.47 0 0 0-.47-.469.47.47 0 0 0-.468.469m0 1.86v1.683c0 .168.09.324.235.406l1.125.649a.47.47 0 0 0 .64-.168.47.47 0 0 0-.172-.64l-.89-.517v-1.414a.467.467 0 0 0-.47-.464.467.467 0 0 0-.468.464m4.016 1.218h-.387a.463.463 0 0 0-.465.465c0 .262.207.469.465.469h.387a.468.468 0 1 0 0-.934M21 20.743l.27.273a.47.47 0 0 0 .664 0 .47.47 0 0 0 0-.66l-.274-.274a.464.464 0 0 0-.66 0 .464.464 0 0 0 0 .66m3.305 5.722v-.383a.47.47 0 0 0-.47-.469.47.47 0 0 0-.468.469v.383c0 .258.211.469.469.469a.47.47 0 0 0 .469-.47m0 0"/></g></svg>