<svg xmlns="http://www.w3.org/2000/svg" width="40" height="40" version="1.0" viewBox="0 0 30 30"><defs><clipPath id="a"><path d="M1 1.215h28V28H1Zm0 0"/></clipPath></defs><g clip-path="url(#a)"><path fill="#061c3d" d="M20.586 16.746c.004-.031.004-.058.004-.094v-.082l-.02-.023a2.841 2.841 0 0 1-.559-.863 3 3 0 0 1-.148-.442.9.9 0 0 1-.351-.312v-.004a1.5 1.5 0 0 1-.192-.422 2.3 2.3 0 0 1-.074-.473 1.9 1.9 0 0 1 .05-.539 1 1 0 0 1 .188-.387 4 4 0 0 1-.02-.21 5 5 0 0 1-.023-.485c0-.187.008-.39.036-.594a5 5 0 0 1 .113-.562 2.6 2.6 0 0 1 .262-.629 1.8 1.8 0 0 1 .406-.488c.172-.145.375-.25.582-.325a5.354 5.354 0 0 1 1.184-.238 5 5 0 0 1 .605-.023 3.9 3.9 0 0 1 1.266.215c.195.074.37.168.527.273.172.121.324.25.441.387.121.129.215.261.29.41.074.137.124.285.171.453a4.3 4.3 0 0 1 .16 1.074c.004.18-.004.344-.02.5-.003.078-.015.168-.026.262a.8.8 0 0 1 .113.238c.031.11.058.246.062.399a2.2 2.2 0 0 1-.152.863 2 2 0 0 1-.2.398.85.85 0 0 1-.28.27 2.4 2.4 0 0 1-.227.637 3.5 3.5 0 0 1-.559.773l.008.031c.27.004.375.207.488.418.008.028.024.051.028.059.008.008.054.031.101.055q.065.029.125.062.024.02.047.031l.016.012q.072.03.191.067l.063.015c.082.027.199.063.336.102l.441.129c.18.054.39.113.602.187.214.078.43.16.605.254.192.102.344.215.465.332.125.117.215.242.289.36.074.128.137.253.184.464.043.18.074.418.105.785.055.68.117 1.903.176 3.133q.005.026.004.051c0 .23-.188.414-.414.414-3.172 0-3.54 0-3.914.004l-3.375.004c.023.14.043.312.058.531.055.676.117 1.899.176 3.129q.005.026.004.05c0 .231-.188.415-.414.415H9.352a.415.415 0 0 1-.418-.414h.004v-.02c.058-1.238.12-2.48.175-3.16.02-.219.04-.394.063-.539H1.867a.41.41 0 0 1-.394-.434c.058-1.238.12-2.48.175-3.164a6 6 0 0 1 .11-.785 1.64 1.64 0 0 1 .469-.824c.125-.117.273-.23.464-.332.176-.094.391-.176.61-.254.21-.074.418-.133.597-.187l.442-.13c.125-.034.226-.066.34-.1.082-.024.148-.048.195-.063a1 1 0 0 0 .11-.055l.046-.027.032-.02a.4.4 0 0 0 .117-.082c.015-.016.027-.039.039-.059.113-.175.222-.359.437-.402.004-.031.004-.058.004-.094v-.082l-.02-.023c-.14-.149-.25-.3-.34-.445a2.928 2.928 0 0 1-.367-.86l-.046-.027a1 1 0 0 1-.305-.29 1.5 1.5 0 0 1-.191-.421 2.3 2.3 0 0 1-.075-.473v-.004a1.9 1.9 0 0 1 .051-.535c.04-.148.102-.281.188-.387q-.013-.105-.02-.21a5.25 5.25 0 0 1 .012-1.078 5 5 0 0 1 .113-.563 2.6 2.6 0 0 1 .262-.629 1.8 1.8 0 0 1 .406-.488c.172-.145.375-.25.582-.325a5.354 5.354 0 0 1 1.184-.238 5 5 0 0 1 .605-.023 3.9 3.9 0 0 1 1.266.215c.195.074.37.168.527.273.172.121.324.25.445.387.118.129.211.261.29.41.07.137.12.285.168.453.046.16.085.344.113.531a4.084 4.084 0 0 1 .027 1.043c-.004.078-.015.168-.027.262a.8.8 0 0 1 .113.238 1.892 1.892 0 0 1 .035.813 2.2 2.2 0 0 1-.125.445 2 2 0 0 1-.199.402.85.85 0 0 1-.281.27 2.4 2.4 0 0 1-.227.637 3.5 3.5 0 0 1-.558.773l.007.031c.27.004.375.207.489.418.008.028.023.051.027.059a1 1 0 0 0 .102.055q.066.029.125.062c.015.012.035.024.046.031l.016.016c.047.016.113.04.192.063l.062.015c.11.035.211.067.336.102l.441.129c.188.054.434.136.676.226.008-.101.02-.195.047-.285a1 1 0 0 1 .188-.387q-.013-.105-.02-.21a5 5 0 0 1-.023-.485q0-.283.035-.594.038-.288.113-.558l.004-.024c.062-.21.148-.418.258-.613a1.9 1.9 0 0 1 .406-.484c.172-.145.375-.247.582-.325a5.354 5.354 0 0 1 1.184-.238 5.2 5.2 0 0 1 1.277.035q.316.052.594.156c.195.075.37.172.527.274.172.117.324.25.441.387.122.129.215.265.293.41.07.136.122.285.168.457.047.16.086.344.114.527a4 4 0 0 1 .027 1.04c-.004.081-.016.171-.027.265a.8.8 0 0 1 .113.238c.031.11.059.246.062.402v.02c.254-.098.508-.184.68-.234l.442-.13c.125-.034.226-.066.34-.1.081-.024.148-.048.195-.063q.057-.025.11-.055l.046-.027.031-.02c.043-.023.09-.047.113-.074l.004-.012a.1.1 0 0 0 .028-.039l.011-.02c.114-.175.223-.355.438-.398M16.57 1.215a1.8 1.8 0 0 1-1.601.984 1.79 1.79 0 0 1-1.598-.984 5.8 5.8 0 0 0-1.328.55 1.81 1.81 0 0 1-.438 1.829 1.8 1.8 0 0 1-1.828.437c-.234.414-.418.86-.55 1.328.585.293.984.899.984 1.598 0 .703-.399 1.309-.984 1.602.132.468.316.914.55 1.328a1.79 1.79 0 0 1 1.828.437 1.81 1.81 0 0 1 .438 1.828q.62.352 1.328.551a1.792 1.792 0 0 1 3.2 0 6 6 0 0 0 1.327-.55 1.8 1.8 0 0 1 .438-1.829 1.79 1.79 0 0 1 1.824-.437c.238-.414.422-.86.55-1.328a1.79 1.79 0 0 1-.98-1.602c0-.7.399-1.305.98-1.598a5.7 5.7 0 0 0-.55-1.328 1.795 1.795 0 0 1-2.262-2.265 5.8 5.8 0 0 0-1.328-.551M14.97 4.18a2.78 2.78 0 0 1 2.781 2.777 2.78 2.78 0 1 1-2.781-2.777m6.308 11.906.004.004c.086.082.18.164.282.234q.187.137.386.215.194.073.39.09.23.018.434-.024a1.4 1.4 0 0 0 .672-.332l.043-.039q.148-.136.278-.3a2.3 2.3 0 0 0 .254-.387c.12-.227.156-.434.195-.64a.4.4 0 0 1 .32-.329q.03-.005.043-.027a1 1 0 0 0 .11-.223c.035-.09.062-.195.082-.293q.023-.136.015-.242-.002-.047-.004-.082l-.011.012a.52.52 0 0 1-.586.164c-.016-.004-.028-.012-.043-.016a.533.533 0 0 1-.309-.48v-.047l-.004-.074-.004-.036a.6.6 0 0 0-.066-.207q-.013-.023-.02-.023c-.062-.027-.254 0-.437.027-.07.008-.14.02-.215.028a2.6 2.6 0 0 1-.875-.043c-.246-.067-.402-.16-.606-.286l-.003-.003c-.075-.043-.157-.094-.223-.122a.2.2 0 0 0-.05-.015.2.2 0 0 0-.071.066.9.9 0 0 0-.14.27 3 3 0 0 0-.044.176q-.017.098-.027.203h.004l-.004.054-.008.032a.5.5 0 0 1-.11.254.56.56 0 0 1-.253.175c-.024.004-.043.012-.067.016a.54.54 0 0 1-.496-.184q-.005.023-.015.051a1 1 0 0 0-.028.285c.004.102.024.2.051.29a.7.7 0 0 0 .074.183c.028.039.098.066.164.09.141.047.239.168.266.304.04.165.074.332.148.508a2.2 2.2 0 0 0 .407.621q.045.054.097.102m-8.156 4.793c.004-.031.004-.059.004-.094v-.082l-.02-.023a3 3 0 0 1-.343-.446 3 3 0 0 1-.364-.859.9.9 0 0 1-.351-.312 1 1 0 0 1-.106-.196c-.109-.047-.238-.101-.367-.152-.25-.094-.511-.18-.699-.235-.234-.07-.344-.105-.437-.132-.149-.043-.274-.078-.348-.102l-.149-.043c-.16.2-.32.402-.488.59-.25.277-.512.535-.773.793a.4.4 0 0 1-.145.098c-.015.003-.027.011-.039.015l.285 1.051c.012.04.02.074.02.113l.117 1.973h.562c.06-.082.125-.164.211-.246a2.3 2.3 0 0 1 .465-.332c.176-.09.39-.176.61-.254.21-.07.418-.137.597-.188l.442-.128c.125-.036.226-.067.34-.098q.124-.041.195-.067c.039-.02.074-.035.11-.054.034-.024.058-.035.077-.047a.4.4 0 0 0 .118-.082 1 1 0 0 0 .039-.063c.109-.175.222-.355.437-.398m1.563 2.27.062.124.012.032c.09.18.16.355.047.62l-.02.04-.305 1.117-.113 1.887h1.184l-.106-1.887-.304-1.11-.043-.093c-.114-.266-.04-.434.047-.617l.078-.176q-.031-.052-.063-.106a3 3 0 0 0-.191-.246 3 3 0 0 0-.188.246q-.052.082-.097.168m-1.016 1.761.297-1.086a.4.4 0 0 1-.152-.09l-.004-.007c-.27-.258-.536-.52-.786-.797a12 12 0 0 1-.488-.598q-.069.023-.148.047c-.078.027-.2.062-.348.101-.098.028-.2.06-.441.13-.172.05-.375.113-.559.18a4 4 0 0 0-.496.202 1.2 1.2 0 0 0-.273.192.9.9 0 0 0-.153.195.3.3 0 0 0-.027.043l-.008.023a.5.5 0 0 0-.05.153c-.036.136-.063.34-.09.672-.051.636-.102 1.644-.157 2.699h3.75l.117-1.973a1 1 0 0 1 .016-.086m2.598.086.117 1.973h3.773a84 84 0 0 0-.16-2.7 5 5 0 0 0-.086-.671 1 1 0 0 0-.05-.153l-.008-.02c-.008-.015-.02-.03-.028-.046a1 1 0 0 0-.152-.195 1.2 1.2 0 0 0-.277-.192 4 4 0 0 0-.493-.203 10 10 0 0 0-.562-.18l-.438-.129a5 5 0 0 1-.347-.101c-.051-.016-.102-.027-.149-.047q-.226.299-.488.598c-.25.273-.508.53-.773.785a.4.4 0 0 1-.145.101q-.022.011-.04.016l.286 1.055q.019.051.02.11m-3.446-8.043.004.004q.016-.081.043-.156c.067-.203.164-.387.281-.531.141-.172.309-.293.493-.348a.9.9 0 0 1 .574.047 2 2 0 0 1 .355.187c.149.09.258.157.383.188q.11.029.25.039.147.007.328-.016c.055-.008.121-.015.188-.023.289-.043.582-.086.851.02a.88.88 0 0 1 .43.363c.05.085.094.18.121.273l.047-.012.004-.062q.019-.219.02-.414c-.005-.14-.02-.29-.04-.438a4 4 0 0 0-.09-.43 1.6 1.6 0 0 0-.109-.296 1.3 1.3 0 0 0-.164-.235 1.8 1.8 0 0 0-.297-.25 1.7 1.7 0 0 0-.355-.187 2.6 2.6 0 0 0-.438-.117 3 3 0 0 0-.55-.047 5 5 0 0 0-.512.015c-.168.02-.336.043-.508.078a3 3 0 0 0-.473.122 1.1 1.1 0 0 0-.336.175 1 1 0 0 0-.215.27 1.8 1.8 0 0 0-.175.43l-.008.015c-.043.149-.07.293-.09.438q-.028.253-.027.488c0 .145.004.277.015.41m7.426 5.637c.09.082.16.168.219.25H21l.117-1.977q.005-.042.016-.086l.297-1.086a.4.4 0 0 1-.153-.093l-.004-.004c-.27-.258-.535-.52-.785-.801a12 12 0 0 1-.488-.594q-.069.023-.148.047l-.348.102c-.098.03-.203.062-.442.132a10 10 0 0 0-.714.243c-.149.058-.29.117-.41.172q-.064.153-.141.261a.9.9 0 0 1-.266.258l-.011.004c-.043.2-.106.406-.23.645a3.5 3.5 0 0 1-.56.773l.008.031c.27.008.375.207.489.418.007.027.023.055.027.063l.101.05c.043.024.086.04.125.063l.047.035.016.008q.076.035.21.07l.044.016c.11.031.21.062.336.098l.441.128c.18.051.39.118.602.188.215.078.43.164.605.254.192.105.344.215.465.332m-4.254-2.195q.016-.011.031-.028a2.5 2.5 0 0 0 .532-.687c.12-.227.156-.43.195-.637v-.004a.41.41 0 0 1 .32-.328l.035-.012q-.002 0 .008-.015c.032-.043.067-.114.102-.2.004-.023.015-.047.023-.066q.042-.125.067-.25c.015-.086.02-.172.015-.242q-.002-.042-.004-.082l-.03.035a.525.525 0 0 1-.567.14c-.016-.003-.028-.011-.043-.015a.533.533 0 0 1-.309-.48v-.044l-.004-.078-.004-.035a.6.6 0 0 0-.066-.207c-.008-.012-.016-.023-.02-.023-.062-.028-.253 0-.437.027q-.104.017-.215.027a2.6 2.6 0 0 1-.875-.043c-.246-.066-.402-.16-.605-.285l-.024-.011a1.4 1.4 0 0 0-.203-.114l-.05-.015a.2.2 0 0 0-.071.066.9.9 0 0 0-.14.266q-.025.093-.044.175c-.011.07-.02.137-.027.211h.004l-.004.051-.008.031a.5.5 0 0 1-.11.254.52.52 0 0 1-.32.192.6.6 0 0 1-.238-.012.55.55 0 0 1-.258-.168c-.003.008-.007.027-.015.047a1 1 0 0 0-.028.285c.004.102.024.2.051.29q.035.12.074.183c.028.043.098.066.165.09.14.05.238.168.265.3.035.168.074.332.149.516a2.2 2.2 0 0 0 .406.617 2.5 2.5 0 0 0 .383.34q.188.137.386.215.193.073.391.09c.152.011.297 0 .434-.024a1.394 1.394 0 0 0 .672-.332Zm-8.773-1.38q.035.071.07.15c.09.183.168.358.05.624l-.019.043-.304 1.117-.114 1.887h1.184l-.106-1.887-.304-1.11-.043-.093c-.113-.266-.04-.433.047-.617v-.004c.027-.055.05-.113.078-.172-.02-.039-.043-.07-.063-.105a3 3 0 0 0-.191-.246 3 3 0 0 0-.188.246q-.051.08-.097.168m-1.016 1.762.297-1.086a.4.4 0 0 1-.148-.09l-.008-.007c-.27-.258-.535-.52-.785-.801a12 12 0 0 1-.489-.594l-.148.047c-.078.024-.2.063-.352.102-.093.03-.203.062-.437.132-.172.051-.375.11-.559.176a3.5 3.5 0 0 0-.496.203 1.2 1.2 0 0 0-.273.192.86.86 0 0 0-.239.414c-.035.137-.062.34-.09.672-.05.636-.101 1.644-.156 2.699h3.75l.117-1.973q.005-.042.016-.086m-.848-7.957.004.004q.016-.08.043-.156c.067-.203.164-.387.282-.531.14-.172.308-.293.492-.348a.9.9 0 0 1 .574.047c.137.05.25.121.352.184l.003.003c.149.09.258.157.383.188q.11.03.25.035c.098.004.207.004.328-.012l.188-.023c.289-.043.582-.086.851.02a.88.88 0 0 1 .43.363c.05.086.094.18.121.273l.047-.012.004-.062q.019-.219.02-.414c-.004-.14-.02-.29-.04-.438a3 3 0 0 0-.09-.43 1.6 1.6 0 0 0-.109-.296 1.3 1.3 0 0 0-.164-.235 1.695 1.695 0 0 0-.652-.437 2.3 2.3 0 0 0-.438-.117 3 3 0 0 0-.55-.047q-.259-.007-.512.016a8 8 0 0 0-.508.074c-.168.035-.328.07-.473.12a1.2 1.2 0 0 0-.336.18c-.082.07-.152.165-.214.266-.079.137-.137.29-.184.45a3.1 3.1 0 0 0-.117.925q0 .21.015.41m3.18 3.438.024-.024q.147-.136.277-.3a2.3 2.3 0 0 0 .254-.387c.12-.227.156-.434.195-.64a.4.4 0 0 1 .32-.329.07.07 0 0 0 .047-.027c.032-.047.07-.125.106-.223.035-.09.062-.195.082-.293q.023-.136.015-.242-.002-.047-.003-.082l-.012.012a.52.52 0 0 1-.586.164c-.016-.004-.027-.012-.043-.016a.533.533 0 0 1-.309-.48v-.047l-.004-.074-.003-.036a.6.6 0 0 0-.067-.207q-.012-.023-.02-.023c-.062-.027-.253 0-.437.027-.07.008-.14.02-.215.028a2.6 2.6 0 0 1-.875-.043c-.246-.067-.402-.16-.605-.286l-.004-.003c-.074-.043-.156-.094-.223-.122a.2.2 0 0 0-.05-.015.2.2 0 0 0-.07.066.9.9 0 0 0-.141.27q-.025.087-.043.176-.017.098-.028.203h.004l-.004.054-.008.032a.54.54 0 0 1-.105.254.6.6 0 0 1-.258.175c-.023.004-.043.012-.066.016a.54.54 0 0 1-.496-.184l-.016.051v.004a1 1 0 0 0-.027.281c.004.098.023.2.05.29a.7.7 0 0 0 .075.183.13.13 0 0 0 .043.039 1 1 0 0 0 .12.05c.141.048.239.165.266.302.035.168.075.335.149.511a2.2 2.2 0 0 0 .406.621c.11.121.238.239.383.34q.188.137.387.215.191.073.39.09.228.018.434-.024a1.4 1.4 0 0 0 .672-.332Zm13.613 2.758.063.125.012.03c.09.18.16.356.047.618l-.02.043-.305 1.117-.113 1.887h1.184l-.106-1.887-.305-1.11-.043-.093c-.113-.266-.039-.433.047-.617l.078-.176-.062-.105a3 3 0 0 0-.191-.246c-.07.082-.137.168-.188.246q-.051.08-.098.168m1.582 1.847.118 1.977 3.773-.004a84 84 0 0 0-.16-2.7 5 5 0 0 0-.086-.671.7.7 0 0 0-.086-.219 1 1 0 0 0-.152-.195 1.2 1.2 0 0 0-.278-.192 3.5 3.5 0 0 0-.492-.203 10 10 0 0 0-.562-.176c-.239-.074-.344-.105-.434-.132a5 5 0 0 1-.351-.102l-.149-.043c-.152.192-.312.395-.488.59-.25.277-.512.535-.778.793a.4.4 0 0 1-.14.098c-.016.003-.027.011-.043.015l.289 1.051c.012.04.02.074.02.113m-3.445-8.043.004.004c.012-.054.023-.105.043-.156.066-.203.164-.387.281-.535.14-.168.309-.29.492-.344a.9.9 0 0 1 .575.047c.136.05.25.121.351.184l.004.003c.149.09.258.157.383.188q.11.03.25.035c.098.004.207.004.328-.012l.188-.023c.289-.043.582-.086.851.02a.88.88 0 0 1 .43.363c.055.086.094.18.12.273l.048-.012.004-.062q.018-.219.02-.414c-.005-.14-.02-.29-.04-.438a3.4 3.4 0 0 0-.09-.43 1.6 1.6 0 0 0-.109-.296 1.3 1.3 0 0 0-.164-.235 1.695 1.695 0 0 0-.652-.437 2.3 2.3 0 0 0-.438-.117 3 3 0 0 0-.55-.047q-.26-.007-.512.016a8 8 0 0 0-.508.074c-.168.035-.328.07-.473.12a1.2 1.2 0 0 0-.336.18c-.082.07-.152.165-.215.266-.078.137-.136.29-.183.45a3.1 3.1 0 0 0-.117.925q-.002.21.015.41m.43 4.957c.125.157.254.317.387.465.105.113.214.23.335.352.032-.067.075-.133.118-.2q.066-.098.136-.19a2 2 0 0 1-.324-.15l-.066-.034a5 5 0 0 1-.399-.286l-.093-.074-.032.043-.023.027c-.012.016-.027.028-.04.047m2.465.426q.072.093.133.192.068.099.12.199.179-.182.333-.352c.125-.137.25-.289.367-.445-.028-.027-.051-.059-.078-.09l-.016-.027-.07.054a4 4 0 0 1-.403.286l-.03.015-.048.031a2 2 0 0 1-.308.137m-.422-.734c.043-.012.09-.028.133-.043a2.3 2.3 0 0 1-.618.027 2 2 0 0 1-.382-.062c.168.074.355.117.543.164q.152-.035.324-.086m-9.508 4.437a6.933 6.933 0 0 0 .723.816c.03-.062.074-.128.117-.195q.065-.098.137-.191c-.11-.043-.223-.086-.325-.148-.027-.012-.054-.032-.082-.047a4 4 0 0 1-.383-.274l-.093-.074-.031.043c-.02.023-.043.05-.063.07m2.465.43q.072.093.137.191.064.101.117.196c.117-.118.23-.23.332-.348.125-.137.246-.29.367-.445a1 1 0 0 1-.078-.09l-.016-.027-.07.054c-.121.094-.254.2-.402.285l-.032.02-.047.023a2 2 0 0 1-.308.14m-.422-.734q.066-.02.133-.043a2.29 2.29 0 0 1-1.004-.035q.11.046.223.081c.101.032.21.055.324.082q.152-.034.324-.085m-9.508-3.825c.125.157.254.317.387.465q.156.17.336.352.052-.1.117-.2.066-.098.137-.19a2 2 0 0 1-.324-.15l-.032-.015-.035-.02a5 5 0 0 1-.398-.285l-.094-.074-.031.04q-.03.041-.063.077m2.465.426q.072.093.137.192.064.099.117.199.177-.182.332-.352.193-.216.367-.445-.035-.039-.078-.09l-.016-.027-.07.054a4 4 0 0 1-.402.286l-.028.015a.2.2 0 0 1-.035.02l-.015.011a2 2 0 0 1-.309.137m-.422-.734q.067-.02.133-.043a2.3 2.3 0 0 1-.617.027 2 2 0 0 1-.383-.062c.168.074.355.117.543.164.105-.024.21-.051.324-.086m0 0"/></g></svg>