<svg xmlns="http://www.w3.org/2000/svg" width="40" height="40" version="1.0" viewBox="0 0 30 30"><defs><clipPath id="a"><path d="M.484.453h29.032v28.309H.484Zm0 0"/></clipPath></defs><g clip-path="url(#a)"><path fill="#fff" d="M9.965 15.2a6.19 6.19 0 0 0 6.164-6.723l1.629-1.672 3.512 3.492a.4.4 0 0 0 .293.121c.109 0 .214-.04.296-.121l1.293-1.3 3.102-3.118 1.3 1.293a.41.41 0 0 0 .454.09.41.41 0 0 0 .254-.383l-.012-4.48a.414.414 0 0 0-.414-.415l-4.477.012a.42.42 0 0 0-.386.258.42.42 0 0 0 .093.453L24.363 4 21.56 6.82l-3.516-3.496a.41.41 0 0 0-.293-.12h-.004a.4.4 0 0 0-.293.124l-2.289 2.336a6.19 6.19 0 0 0-5.2-2.836c-3.41 0-6.183 2.777-6.183 6.188a6.19 6.19 0 0 0 6.184 6.183m7.789-10.993 3.512 3.496a.414.414 0 0 0 .586 0l3.394-3.41a.415.415 0 0 0 0-.59l-.883-.879 3.059-.008.008 3.059-.883-.879a.42.42 0 0 0-.59.004l-4.395 4.414-3.515-3.496a.41.41 0 0 0-.293-.121h-.004a.4.4 0 0 0-.293.125L15.953 7.46a5.6 5.6 0 0 0-.371-1.035Zm-7.79-.547a5.367 5.367 0 0 1 5.321 4.73q.035.308.035.626a5.36 5.36 0 0 1-5.355 5.351 5.36 5.36 0 0 1-5.352-5.351A5.36 5.36 0 0 1 9.965 3.66m0 10.035a4.685 4.685 0 0 0 4.68-4.68 4.686 4.686 0 0 0-4.68-4.683 4.69 4.69 0 0 0-4.679 4.684 4.69 4.69 0 0 0 4.68 4.68m0-8.53a3.85 3.85 0 0 1 0 7.7 3.853 3.853 0 0 1-3.847-3.85 3.854 3.854 0 0 1 3.848-3.85m-.413 3.85-.024-2.812c0-.226.184-.418.414-.418h.004c.227 0 .414.184.414.414l.02 2.653.89.964a.42.42 0 0 1-.023.59.44.44 0 0 1-.281.11.42.42 0 0 1-.309-.137L9.66 9.297a.42.42 0 0 1-.11-.281M29.1 25.849h-2.277V11.242a.42.42 0 0 0-.418-.414h-3.738a.42.42 0 0 0-.418.414v14.606h-1.262V13.34a.42.42 0 0 0-.418-.418h-3.738a.42.42 0 0 0-.418.418v12.508h-1.262v-8.504a.415.415 0 0 0-.418-.414h-3.738a.415.415 0 0 0-.418.414v8.504H9.313v-4.223a.414.414 0 0 0-.415-.414H5.156a.417.417 0 0 0-.414.414v4.223H3.207V.878a.42.42 0 0 0-.414-.417H.898a.42.42 0 0 0-.414.418v27.277c0 .227.188.414.414.414h28.204a.417.417 0 0 0 .414-.414v-1.894a.417.417 0 0 0-.414-.414M23.083 11.66h2.91v14.188h-2.91Zm-5.836 2.094h2.91v12.094h-2.91Zm-5.836 4.008h2.91v8.086h-2.91Zm-5.836 4.281H8.48v3.805H5.574Zm23.11 5.695H1.316V1.293h1.059v24.969c0 .23.188.418.418.418h25.89Zm0 0"/></g></svg>