<svg xmlns="http://www.w3.org/2000/svg" width="40" height="40" version="1.0" viewBox="0 0 30 30"><defs><clipPath id="a"><path d="M13 4h15.46v6H13Zm0 0"/></clipPath><clipPath id="b"><path d="M2 22h14v5.844H2Zm0 0"/></clipPath><clipPath id="c"><path d="M1.61 6H16v19H1.61Zm0 0"/></clipPath></defs><path fill="#fff" d="M18.578 2.598c1.39-.75 3.05-.75 4.442 0v.945h2.613V3.41c0-.793-.64-1.437-1.438-1.437h-.68a5.47 5.47 0 0 0-5.437 0h-.68c-.793 0-1.437.644-1.437 1.437v.133h2.617ZM24.18 6.941h-.754l-.117.34c-.059.16-.04.34.066.48a.533.533 0 0 0 .938-.48Zm0 0"/><g clip-path="url(#a)"><path fill="#fff" d="M26.68 4.328H14.918a1.7 1.7 0 0 0-1.7 1.7v1.445a8.109 8.109 0 0 1 2.305 2.344h12.86v-3.79a1.71 1.71 0 0 0-1.703-1.699m-.524 2.613h-1.144l.027.075c.14.402.082.843-.164 1.195a1.3 1.3 0 0 1-1.07.555c-.426 0-.828-.211-1.07-.555a1.3 1.3 0 0 1-.165-1.195l.028-.075H15.44a.4.4 0 0 1-.394-.394c0-.211.18-.39.394-.39h10.715c.215 0 .39.179.39.39a.395.395 0 0 1-.39.394m0 0"/></g><path fill="#fff" d="m18.84 12.57.289-.25a.64.64 0 0 0 .23-.496v-1.219h-1.043v1.22c0 .19.082.37.23.495ZM22.758 12.57l.293-.25a.64.64 0 0 0 .23-.496v-1.219h-1.047v1.22c0 .19.086.37.23.495Zm0 0"/><path fill="#fff" d="M24.066 11.824c0 .418-.183.813-.503 1.09l-.547.473a.396.396 0 0 1-.512 0l-.55-.473c-.321-.27-.5-.668-.5-1.09v-1.219h-1.31v1.22c0 .417-.183.812-.5 1.09l-.55.472a.4.4 0 0 1-.254.093.4.4 0 0 1-.258-.093l-.55-.473a1.43 1.43 0 0 1-.5-1.09v-1.219H15.96a7.9 7.9 0 0 1 .812 3.512q0 .878-.183 1.715h9.7a1.7 1.7 0 0 0 1.694-1.7v-3.527h-3.918Zm0 0"/><g clip-path="url(#b)"><path fill="#fff" d="M13.387 22.8a10 10 0 0 0-1.852-.542l-.59 1.844a2.24 2.24 0 0 1-2.144 1.562 2.24 2.24 0 0 1-2.145-1.562l-.59-1.844c-.68.129-1.3.312-1.851.543-1.344.558-2.078 1.344-2.078 2.21 0 .868.734 1.653 2.078 2.212 1.234.511 2.86.797 4.586.797s3.355-.286 4.586-.797c1.336-.559 2.078-1.344 2.078-2.211s-.735-1.653-2.078-2.211m0 0"/></g><path fill="#fff" d="m10.5 12.074-2.18 2.18a.394.394 0 0 1-.554 0l-.664-.664a.76.76 0 0 0-.54-.227.769.769 0 0 0-.54 1.309l1.49 1.484a.74.74 0 0 0 .535.227c.2 0 .398-.086.539-.227l2.996-2.996a.753.753 0 0 0 0-1.074.76.76 0 0 0-1.082-.012m0 0"/><path fill="#fff" d="M8.8 9.02a5.1 5.1 0 0 0-5.097 5.097 5.1 5.1 0 0 0 5.098 5.098 5.1 5.1 0 0 0 5.097-5.098A5.1 5.1 0 0 0 8.801 9.02m3.337 4.69-2.996 3c-.293.294-.68.454-1.094.454-.41 0-.805-.16-1.09-.453l-1.484-1.484a1.549 1.549 0 0 1 1.09-2.645c.414 0 .804.16 1.093.453l.39.395 1.903-1.907a1.556 1.556 0 0 1 2.192 0c.293.293.457.68.457 1.094s-.168.801-.461 1.094m0 0"/><g clip-path="url(#c)"><path fill="#fff" d="M8.75 6.93c-3.937.027-7.14 3.25-7.137 7.195 0 1.563.496 3.04 1.426 4.29a7.24 7.24 0 0 0 3.414 2.5l.945 2.952a1.46 1.46 0 0 0 1.399 1.02c.637 0 1.203-.407 1.394-1.02l.946-2.953a7.23 7.23 0 0 0 3.418-2.5 7.12 7.12 0 0 0 1.422-4.297 7.13 7.13 0 0 0-2.122-5.101A7.1 7.1 0 0 0 8.75 6.93M8.8 20a5.89 5.89 0 0 1-5.878-5.883A5.885 5.885 0 0 1 8.8 8.238a5.886 5.886 0 0 1 5.883 5.88A5.89 5.89 0 0 1 8.8 20m0 0"/></g></svg>