<svg xmlns="http://www.w3.org/2000/svg" width="40" height="40" version="1.0" viewBox="0 0 30 30"><defs><clipPath id="a"><path d="M1.52 0H28.37v29H1.52Zm0 0"/></clipPath></defs><g clip-path="url(#a)"><path fill="#061c3d" fill-rule="evenodd" d="M14.336 2.465v1.379q.002.024-.02.043-.017.016-.046.015a11 11 0 0 0-1.778 0 .05.05 0 0 1-.047-.015.06.06 0 0 1-.02-.043v-1.38a.06.06 0 0 0-.062-.062h-1a.373.373 0 0 1-.37-.37V.386c0-.207.167-.375.37-.375h4.035c.204 0 .372.168.372.375V2.03a.373.373 0 0 1-.372.371h-1a.06.06 0 0 0-.062.063m9.797 20.328a3.5 3.5 0 0 1-.977.133h-1.218a.06.06 0 0 0-.06.058v.48a.588.588 0 0 1-1.175 0v-.48c0-.03-.027-.058-.062-.058h-1.22a3.5 3.5 0 0 1-.976-.133 3.5 3.5 0 0 1-.898-.406l-3.348-2.094a.06.06 0 0 0-.062 0 .06.06 0 0 0-.032.055v6.882c0 .098.04.184.106.25a.34.34 0 0 0 .25.106h13.656a.35.35 0 0 0 .254-.106.37.37 0 0 0 .106-.25v-6.882a.06.06 0 0 0-.032-.055.06.06 0 0 0-.062 0l-3.352 2.094q-.432.273-.898.406m-7.207-4.219.988-2.074a2 2 0 0 1 .727-.824 2 2 0 0 1 1.054-.301h3.192c.383 0 .742.11 1.05.3.31.196.563.477.727.825l.988 2.074a.06.06 0 0 0 .055.035h2.402c.203 0 .368.164.368.368v.062q-.001.035-.032.05l-4.03 2.52q-.3.186-.602.274a2.3 2.3 0 0 1-.657.086h-1.218c-.032 0-.06-.028-.06-.063v-.488a.588.588 0 1 0-1.176 0l.001.488a.06.06 0 0 1-.062.063h-1.22q-.348 0-.651-.086a2.3 2.3 0 0 1-.602-.274l-4.035-2.52a.06.06 0 0 1-.028-.05v-.062c0-.204.165-.368.368-.368h2.398c.024 0 .047-.011.055-.035m7.402-.05-.723-1.52a.84.84 0 0 0-.289-.336.8.8 0 0 0-.43-.117h-3.19a.8.8 0 0 0-.43.117.8.8 0 0 0-.29.336l-.722 1.52q-.016.028.004.058.014.026.05.027h5.965c.02 0 .04-.011.051-.027a.06.06 0 0 0 .004-.059m-13.61-9.122a.424.424 0 0 1 .231-.554.43.43 0 0 1 .559.23l2.265 5.45a.427.427 0 0 1-.425.59h-.004l-3.395-.071a.424.424 0 1 1 .02-.848l2.676.055c.023 0 .039-.012.05-.027q.019-.03.008-.059Zm8.532.024-1.176 1.176a.42.42 0 0 1-.601 0 .42.42 0 0 1 0-.602l1.129-1.129q.016-.017.015-.047a.06.06 0 0 0-.02-.043 7.84 7.84 0 0 0-4.726-1.957.06.06 0 0 0-.043.016q-.021.019-.02.043V8.48a.427.427 0 0 1-.855 0V6.883a.06.06 0 0 0-.015-.043.08.08 0 0 0-.047-.016 7.85 7.85 0 0 0-4.727 1.957.06.06 0 0 0-.02.043q-.002.03.02.047L9.29 10a.42.42 0 0 1 0 .602.42.42 0 0 1-.601 0l-1.13-1.13c-.011-.011-.027-.019-.042-.015q-.031.001-.043.02a7.85 7.85 0 0 0-1.961 4.722c0 .02.004.035.02.047q.015.019.042.02h1.598a.427.427 0 0 1 0 .851H5.574c-.02 0-.031.008-.047.02a.07.07 0 0 0-.015.047 7.86 7.86 0 0 0 1.96 4.726q.013.019.044.02a.06.06 0 0 0 .043-.02l1.128-1.129a.427.427 0 1 1 .602.605L6.637 22.04c-.024.023-.063.027-.086.004a10.02 10.02 0 0 1-3.203-7.352c0-5.539 4.492-10.035 10.035-10.035a10 10 0 0 1 7.347 3.207.057.057 0 0 1 0 .082ZM2.285 28.848 27.34 3.793a.42.42 0 0 0 0-.602.42.42 0 0 0-.602 0l-5.52 5.516-1.527 1.531-11.07 11.067-1.527 1.527-5.41 5.414a.42.42 0 0 0 0 .602.42.42 0 0 0 .601 0m0 0"/></g></svg>