<svg xmlns="http://www.w3.org/2000/svg" width="40" height="40" version="1.0" viewBox="0 0 30 30"><defs><clipPath id="a"><path d="M.484 4.426h29.032V24.75H.484Zm0 0"/></clipPath></defs><g clip-path="url(#a)"><path fill="#061c3d" d="m25.422 18.727-.313-2.743-.363.008-.367-.008-.293 2.743-.875-4.215c.336.172.77.34 1.258.402a.5.5 0 0 0-.18.383c0 .277.219.504.488.504.27 0 .489-.227.489-.504a.5.5 0 0 0-.164-.367c.48-.043.918-.246 1.277-.418Zm-9.453 2.742-.48-4.25-.567.015-.567-.015-.457 4.25-1.355-6.532c.52.27 1.195.528 1.95.626a.78.78 0 0 0-.278.593c0 .43.336.778.754.778a.77.77 0 0 0 .758-.778.78.78 0 0 0-.25-.57c.742-.066 1.421-.383 1.98-.649ZM5.832 18.727l-.312-2.743-.364.008-.367-.008-.293 2.743-.875-4.215c.336.172.77.34 1.254.402a.51.51 0 0 0-.176.383c0 .277.219.504.485.504a.494.494 0 0 0 .488-.504.5.5 0 0 0-.16-.367c.48-.043.918-.246 1.277-.418Zm22.652-3.391c-.468-.352-1.316-.816-1.93-1.14.926-.641 1.489-1.739 1.489-2.946 0-1.937-1.457-3.512-3.246-3.512-1.793 0-3.246 1.574-3.246 3.512 0 1.207.558 2.305 1.484 2.945-.613.325-1.457.79-1.93 1.14a2.7 2.7 0 0 0-.671.677c-.754-.512-1.872-1.125-2.704-1.563 1.434-1 2.301-2.699 2.301-4.57 0-3-2.258-5.441-5.031-5.441s-5.031 2.44-5.031 5.44c0 1.872.867 3.571 2.3 4.571-.832.438-1.949 1.051-2.703 1.563a2.7 2.7 0 0 0-.671-.676c-.473-.352-1.317-.816-1.93-1.14.926-.641 1.484-1.739 1.484-2.946 0-1.937-1.453-3.512-3.246-3.512-1.789 0-3.246 1.574-3.246 3.512 0 1.207.563 2.305 1.488 2.945-.613.325-1.457.79-1.93 1.14-.87.645-1.03 1.247-1.03 2.196v3.203H7.68v3.852h14.64v-3.852h7.196v-3.203c0-.949-.16-1.55-1.032-2.195"/></g></svg>