<svg xmlns="http://www.w3.org/2000/svg" width="40" height="40" version="1.0" viewBox="0 0 30 30"><defs><clipPath id="a"><path d="M4.465.371h21.047V28.68H4.465Zm0 0"/></clipPath></defs><g clip-path="url(#a)"><path fill="#fff" fill-rule="evenodd" d="M22.598 26.566a.43.43 0 0 1-.43.426h-6.496a.43.43 0 0 1-.43-.426.43.43 0 0 1 .43-.425h6.496c.238 0 .43.191.43.425m0-1.625a.43.43 0 0 1-.43.426h-6.496a.43.43 0 0 1-.43-.426.43.43 0 0 1 .43-.425h6.496c.238 0 .43.191.43.425m-5.332-2.722v-.723a1.653 1.653 0 0 1 3.309 0v.723a3.48 3.48 0 0 1-3.31 0m.89-3.996c0-.418.344-.762.766-.762.418 0 .762.344.762.762a.766.766 0 0 1-.762.765.767.767 0 0 1-.766-.765m-1.691-1.512a3.474 3.474 0 0 0-.05 4.852v-.067c0-.945.523-1.77 1.296-2.195-.918-1.043-.184-2.692 1.21-2.692 1.395 0 2.13 1.657 1.208 2.692a2.51 2.51 0 0 1 1.305 2.195v.067a3.473 3.473 0 0 0-4.969-4.852m5.8 5.195c1.407-1.699 1.29-4.218-.288-5.797a4.324 4.324 0 1 0-6.114 6.118 4.324 4.324 0 0 0 5.801.285l1.094 1.097a.427.427 0 1 0 .605-.601Zm2.403 5.309v-13.32c0-.301-.246-.547-.547-.547h-2.367a2.4 2.4 0 0 1-.559.804.44.44 0 0 1-.297.118h-3.957a.44.44 0 0 1-.296-.118 2.35 2.35 0 0 1-.555-.804h-2.371c-.301 0-.543.246-.543.547v13.32c0 .305.242.547.543.547H24.12c.3 0 .547-.242.547-.547m-19.363-1.88h7.015v-11.44c0-.774.633-1.403 1.399-1.403h2.21c.016-.457.184-.883.47-1.246a7.4 7.4 0 0 0-3.649-.965c-4.105 0-7.445 3.34-7.445 7.446ZM8.675 5.36a4.08 4.08 0 0 1 4.071-4.07 4.08 4.08 0 0 1 4.074 4.07 4.076 4.076 0 0 1-4.074 4.07 4.08 4.08 0 0 1-4.07-4.07m12.388 7.2c0 .367-.172.656-.344.855H17.12c-.922-1.066.125-2.445 1.8-2.445 1.18 0 2.142.715 2.142 1.59m3.058-.067h-2.207c-.043-1.316-1.367-2.379-2.992-2.379-.703 0-1.352.2-1.863.532a8.2 8.2 0 0 0-2.067-.903 4.93 4.93 0 0 0 2.68-4.383A4.93 4.93 0 0 0 12.746.438a4.92 4.92 0 0 0-2.246 9.3c-3.484.985-6.047 4.192-6.047 7.989v8.035c0 .238.192.43.426.43h7.441v1.023c0 .773.63 1.402 1.399 1.402H24.12a1.4 1.4 0 0 0 1.399-1.402v-13.32a1.4 1.4 0 0 0-1.399-1.403m0 0"/></g></svg>