<svg xmlns="http://www.w3.org/2000/svg" width="40" height="40" version="1.0" viewBox="0 0 30 30"><defs><clipPath id="a"><path d="M2.727 19h24.68v10.031H2.726Zm0 0"/></clipPath></defs><path fill="#061c3d" d="M11.465 14.691a.4.4 0 0 0 .414-.394v-2.914c0-.055.043-.098.098-.098.054 0 .097.043.097.098v7.219c0 .273.227.507.504.503a.49.49 0 0 0 .48-.492v-4.035a.14.14 0 0 1 .141-.14.14.14 0 0 1 .14.14v4.024c0 .273.227.507.505.503a.49.49 0 0 0 .48-.492v-7.242c0-.047.04-.086.086-.086.047 0 .086.04.086.086v2.914c0 .211.16.395.371.406a.4.4 0 0 0 .414-.394v-3.488a.786.786 0 0 0-.785-.79H11.88a.787.787 0 0 0-.79.79v3.476c0 .211.165.395.376.406M14.059 8.941a.86.86 0 0 1-.254.618.86.86 0 0 1-.617.254.84.84 0 0 1-.618-.254.84.84 0 0 1-.258-.618q0-.364.258-.617a.83.83 0 0 1 .617-.258q.36 0 .618.258a.84.84 0 0 1 .254.617M20.027 14.691a.4.4 0 0 0 .414-.394v-3.488a.787.787 0 0 0-.789-.79h-2.617a.786.786 0 0 0-.785.79v3.476c0 .211.164.395.375.406a.395.395 0 0 0 .41-.394v-2.914a.1.1 0 0 1 .102-.098c.054 0 .097.043.097.098v7.219c0 .273.227.507.5.503a.49.49 0 0 0 .485-.492v-4.035a.14.14 0 0 1 .14-.14.14.14 0 0 1 .141.14v4.024c0 .273.227.507.5.503a.49.49 0 0 0 .484-.492v-7.242c0-.047.04-.086.086-.086.047 0 .082.04.082.086v2.914c0 .211.164.395.375.406M18.96 8.324a.83.83 0 0 1 .259.617.84.84 0 0 1-.258.618.84.84 0 0 1-.617.254.86.86 0 0 1-.617-.254.86.86 0 0 1-.254-.618q.001-.364.254-.617a.84.84 0 0 1 .617-.258q.364 0 .617.258M21.406 10.809v3.476c0 .211.164.395.375.406a.4.4 0 0 0 .414-.394v-2.914c0-.055.043-.098.098-.098a.1.1 0 0 1 .102.098v7.219c0 .273.222.507.5.503a.494.494 0 0 0 .484-.492v-4.035a.14.14 0 0 1 .14-.14c.075 0 .141.062.141.14v4.024c0 .273.223.507.5.503a.49.49 0 0 0 .485-.492v-7.242c0-.047.035-.086.082-.086.046 0 .085.04.085.086v2.914c0 .211.165.395.375.406a.4.4 0 0 0 .415-.394v-3.488a.79.79 0 0 0-.79-.79h-2.617a.79.79 0 0 0-.789.79M24.121 8.324a.84.84 0 0 1 .254.617.86.86 0 0 1-.254.618.85.85 0 0 1-.617.254.85.85 0 0 1-.617-.254.84.84 0 0 1-.254-.618c0-.242.082-.445.254-.617a.83.83 0 0 1 .617-.254q.361-.002.617.254M12.383 7.188l1.023.3c.192.059.39-.05.446-.242a.354.354 0 0 0-.243-.445l-.765-.227v-.797l.765-.226a.35.35 0 0 0 .239-.23l.355-1.094a.35.35 0 0 0-.055-.329l-.488-.632.469-.645.75.266c.113.039.238.023.332-.047l.93-.676a.36.36 0 0 0 .148-.3l-.023-.798.757-.246.454.66a.36.36 0 0 0 .296.157h1.145c.117 0 .23-.059.297-.157l.453-.66.758.246-.024.797a.35.35 0 0 0 .149.301l.926.676c.097.07.222.086.332.047l.753-.266.47.645-.489.632a.35.35 0 0 0-.055.329l.352 1.093c.039.11.129.2.242.23l.766.227v.797l-.766.227a.354.354 0 0 0-.242.445.355.355 0 0 0 .445.242l1.024-.3a.36.36 0 0 0 .257-.344V5.508a.36.36 0 0 0-.257-.344l-.844-.246-.238-.73.539-.7a.36.36 0 0 0 .004-.43l-.786-1.078a.36.36 0 0 0-.41-.128l-.828.296-.621-.453.023-.879a.36.36 0 0 0-.246-.351l-1.27-.41a.36.36 0 0 0-.405.136l-.497.727h-.77l-.495-.727a.36.36 0 0 0-.406-.136l-1.27.41a.36.36 0 0 0-.25.351l.027.88-.62.452-.829-.296a.37.37 0 0 0-.414.128l-.781 1.079a.36.36 0 0 0 .004.43l.535.699-.234.73-.844.246a.36.36 0 0 0-.258.344v1.336c0 .16.105.297.258.343m0 0"/><path fill="#061c3d" d="M20.64 7.535a.36.36 0 0 0 .473-.191 3 3 0 0 0 .235-1.168 2.98 2.98 0 0 0-.88-2.125 3.01 3.01 0 0 0-3.292-.64c-.36.148-.68.366-.953.64a2.9 2.9 0 0 0-.645.957 2.99 2.99 0 0 0 .07 2.488.355.355 0 0 0 .48.164c.177-.086.25-.3.165-.48a2.285 2.285 0 0 1 .434-2.621 2.29 2.29 0 0 1 1.617-.668c.613 0 1.187.238 1.617.668.434.433.672 1.007.672 1.617 0 .308-.063.61-.18.89a.356.356 0 0 0 .188.47m0 0"/><g clip-path="url(#a)"><path fill="#061c3d" d="M26.703 20.246c-.543-.605-1.41-.664-2.02-.144l-3.57 2.89q.005-.053.004-.105c-.015-.864-.691-1.563-1.508-1.563h-3.964c-.23 0-.446-.133-.579-.355a.5.5 0 0 0-.109-.121c-1.687-1.215-3.809-1.45-5.676-.618l-.687.31H6.969v-.638a.41.41 0 0 0-.41-.41H3.14a.413.413 0 0 0-.414.41v7.614c0 .226.187.414.414.414h3.418c.226 0 .41-.188.41-.414v-.653h1.648l4.88 1.551c1.108.41 2.034.613 2.964.613.742 0 1.504-.101 2.328-.394.203-.074.398-.172.582-.285l.219-.141q.352-.223.676-.488l6.433-5.211a.3.3 0 0 0 .063-.063c.508-.633.48-1.601-.059-2.199M4.785 26.488a.41.41 0 0 1-.41-.41c0-.226.184-.414.41-.414.227 0 .414.188.414.414 0 .227-.187.41-.414.41m1.36-5.539v6.156h-.676c.332-.222.55-.601.55-1.027 0-.68-.554-1.234-1.234-1.234s-1.234.554-1.234 1.234c0 .426.219.805.55 1.027h-.55v-6.789h2.594Zm20 .953-6.438 5.25a4.3 4.3 0 0 1-1.617.825c-1.48.39-2.656.277-4.317-.34q-.005-.002-.02-.004l-4.948-1.574a.5.5 0 0 0-.125-.02H6.969v-4.68h1.71a.4.4 0 0 0 .169-.035l.77-.34c1.573-.703 3.359-.52 4.792.489.29.422.742.675 1.235.675h3.964c.371 0 .676.336.684.75a.83.83 0 0 1-.227.598.6.6 0 0 1-.25.156q-.175.031-.355.032h-4.41a.415.415 0 0 0-.418.402.413.413 0 0 0 .414.418h4.598c.12 0 .246-.016.363-.047a3.16 3.16 0 0 0 1.422-.66l3.777-3.059q.006-.001.012-.008a.605.605 0 0 1 .87.063.92.92 0 0 1 .056 1.11m0 0"/></g></svg>