<svg xmlns="http://www.w3.org/2000/svg" width="40" height="40" version="1.0" viewBox="0 0 30 30"><defs><clipPath id="a"><path d="M3.059.387H27V28.69H3.059Zm0 0"/></clipPath></defs><g clip-path="url(#a)"><path fill="#fff" d="M22.395 14.395a7.37 7.37 0 0 1-1.997 3.625 7.34 7.34 0 0 1-5.234 2.171c-1.976 0-3.84-.77-5.238-2.171a7.37 7.37 0 0 1-2.082-4.122l-.04.043a.32.32 0 0 1-.257.13.36.36 0 0 1-.211-.075.34.34 0 0 1-.05-.469l.55-.687c.004-.004.004-.008.008-.008l.011-.016.012-.011.012-.012q.005-.004.016-.008c.003-.004.003-.008.011-.012q.006 0 .012-.007.005-.004.016-.008c.003-.004.007-.004.011-.008q.011-.004.016-.008l.016-.004c.003-.004.011-.004.015-.008q.005-.002.016-.003.005-.002.015-.004l.016-.004c.004 0 .012 0 .016-.004h.066q.011-.001.027.004h.004c.008 0 .016.004.028.004q.002.005.004.004c.007 0 .011.003.02.003q.004.004.015.008h.004l.027.012a1 1 0 0 1 .059.04l.683.546a.336.336 0 0 1 .051.473.34.34 0 0 1-.469.05l-.074-.058a6.74 6.74 0 0 0 1.898 3.75 6.75 6.75 0 0 0 9.532 0 6.75 6.75 0 0 0 1.812-3.301.335.335 0 0 1 .653.145m-1.258-3.301a.33.33 0 0 0 .101.46l.742.473q.002-.001.004.004.011.001.016.008c.012.004.023.012.035.016l.016.004c.012.007.023.007.035.011.008 0 .012.004.02.004.015.004.035.004.05.004h.004q.024.001.043-.004h.004c.012 0 .023-.004.031-.004h.004l.035-.011q.004-.005.008-.004l.027-.012q.006-.004.012-.008.012-.005.024-.015s.004-.004.007-.004q.017-.012.028-.024l.004-.004.023-.023q.007-.006.008-.012l.02-.023q0-.005.003-.004l.473-.746a.333.333 0 0 0-.562-.356l-.032.047a7.34 7.34 0 0 0-1.922-3.324c-2.886-2.887-7.582-2.887-10.472 0a7.4 7.4 0 0 0-1.578 2.332.34.34 0 0 0 .18.441.336.336 0 0 0 .437-.18 6.7 6.7 0 0 1 1.433-2.12 6.75 6.75 0 0 1 9.532 0 6.67 6.67 0 0 1 1.742 3.02l-.078-.048a.327.327 0 0 0-.457.102m-1.684 3.777a.54.54 0 0 0 .004.5l.05.094a.81.81 0 0 1-.152.941l-.574.578a.81.81 0 0 1-.941.149l-.098-.047a.53.53 0 0 0-.5-.004 5 5 0 0 1-.59.242.54.54 0 0 0-.351.36l-.031.101a.815.815 0 0 1-.774.559h-.812a.81.81 0 0 1-.774-.559l-.031-.101a.54.54 0 0 0-.352-.36 4.4 4.4 0 0 1-.59-.242.54.54 0 0 0-.503.004l-.094.047a.81.81 0 0 1-.942-.149l-.578-.578a.81.81 0 0 1-.148-.941l.05-.094a.54.54 0 0 0 0-.5 5 5 0 0 1-.242-.59.54.54 0 0 0-.359-.355l-.101-.031a.81.81 0 0 1-.56-.77v-.816c0-.352.227-.664.56-.774l.101-.031a.54.54 0 0 0 .36-.352 5 5 0 0 1 .242-.59.53.53 0 0 0-.004-.5l-.047-.097a.81.81 0 0 1 .148-.942l.578-.574a.81.81 0 0 1 .942-.152l.094.05a.54.54 0 0 0 .504.005 5 5 0 0 1 .59-.247.53.53 0 0 0 .35-.355l.032-.102a.81.81 0 0 1 .774-.562h.812c.352 0 .664.226.774.562l.03.102a.53.53 0 0 0 .352.355q.304.106.59.247a.53.53 0 0 0 .5-.004l.098-.051a.815.815 0 0 1 .941.152l.574.574c.25.25.313.63.153.942l-.051.098a.54.54 0 0 0-.004.5c.094.19.18.386.246.59q.09.263.356.35l.101.032c.336.11.563.422.563.774v.816c0 .352-.227.66-.563.77l-.101.03a.53.53 0 0 0-.356.356c-.066.2-.152.399-.246.59m.395-1.578.101-.031c.063-.024.102-.075.102-.137v-.816a.14.14 0 0 0-.102-.137l-.101-.035a1.2 1.2 0 0 1-.782-.77 4 4 0 0 0-.21-.508 1.2 1.2 0 0 1 .007-1.101l.047-.094a.14.14 0 0 0-.023-.168l-.578-.578a.14.14 0 0 0-.168-.023l-.094.046c-.356.18-.746.184-1.102.008a4 4 0 0 0-.508-.21 1.2 1.2 0 0 1-.769-.782l-.035-.102a.14.14 0 0 0-.137-.101h-.812a.14.14 0 0 0-.137.101l-.035.102a1.2 1.2 0 0 1-.774.781 4 4 0 0 0-.508.211 1.2 1.2 0 0 1-1.097-.008l-.098-.046a.14.14 0 0 0-.168.023l-.574.578a.14.14 0 0 0-.027.168l.05.094c.18.355.18.746.004 1.101a5 5 0 0 0-.21.508 1.18 1.18 0 0 1-.782.77l-.101.035a.135.135 0 0 0-.098.137v.816c0 .063.035.113.098.137l.101.031c.379.121.656.398.781.773.059.172.133.344.211.508.176.356.176.746-.004 1.098l-.05.098a.14.14 0 0 0 .027.168l.574.574c.047.047.11.054.168.027l.098-.05q.271-.136.555-.137c.183 0 .367.043.542.132.165.078.336.153.508.211.375.125.653.403.774.782l.031.101a.14.14 0 0 0 .14.098h.813a.135.135 0 0 0 .137-.098l.035-.101c.121-.38.395-.657.77-.782.175-.058.343-.133.507-.21a1.2 1.2 0 0 1 1.102.003l.094.051c.058.027.12.02.168-.027l.578-.575a.14.14 0 0 0 .023-.167l-.047-.098a1.2 1.2 0 0 1-.008-1.098c.082-.164.153-.336.211-.508.13-.375.407-.652.782-.773m-1.453-.578a3.31 3.31 0 0 1-3.305 3.305 3.306 3.306 0 0 1-3.305-3.305c0-1.82 1.48-3.305 3.305-3.305a3.31 3.31 0 0 1 3.305 3.305m-.668 0a2.64 2.64 0 0 0-2.637-2.637 2.64 2.64 0 0 0-2.64 2.637 2.64 2.64 0 0 0 2.64 2.64 2.64 2.64 0 0 0 2.637-2.64m-2.637-1.031c.191 0 .348.156.348.347a.333.333 0 1 0 .667 0c0-.441-.285-.82-.683-.957v-.285a.335.335 0 0 0-.332-.336.34.34 0 0 0-.336.336v.285a1.017 1.017 0 0 0 .336 1.977.348.348 0 0 1 0 .695.35.35 0 0 1-.352-.348.332.332 0 1 0-.664 0c0 .446.285.82.68.961v.286c0 .183.152.332.336.332a.33.33 0 0 0 .332-.332v-.286c.398-.14.683-.515.683-.96 0-.56-.457-1.016-1.015-1.016a.353.353 0 0 1-.352-.352c0-.191.16-.347.352-.347m11.77 9.03a.33.33 0 0 1-.051.356l-2.223 2.563a.33.33 0 0 1-.504 0l-2.223-2.563a.33.33 0 0 1-.05-.355.33.33 0 0 1 .304-.195h.973v-4.094c0-.184.148-.336.332-.336h1.832c.184 0 .332.152.332.336v4.094h.977c.128 0 .246.074.3.195m-1.032.47h-.578a.335.335 0 0 1-.336-.332v-4.094h-1.16v4.094a.333.333 0 0 1-.336.332h-.574l1.492 1.722ZM26.891 3.71v.5a.62.62 0 0 1-.434.594l-.062.023a.19.19 0 0 0-.133.133 3 3 0 0 1-.157.375.2.2 0 0 0 0 .191l.032.059a.63.63 0 0 1-.117.726l-.352.356a.62.62 0 0 1-.727.113l-.058-.031a.2.2 0 0 0-.192 0c-.12.059-.25.113-.375.156a.2.2 0 0 0-.136.137l-.02.062a.62.62 0 0 1-.594.43h-.5a.62.62 0 0 1-.593-.43l-.024-.062a.19.19 0 0 0-.133-.137 3 3 0 0 1-.375-.156.2.2 0 0 0-.191 0l-.059.031a.62.62 0 0 1-.726-.113l-.356-.356a.62.62 0 0 1-.113-.726l.031-.059a.2.2 0 0 0 0-.191 3 3 0 0 1-.156-.375.19.19 0 0 0-.137-.133l-.062-.023a.62.62 0 0 1-.43-.594v-.5c0-.27.172-.512.43-.594l.062-.02a.2.2 0 0 0 .137-.132c.043-.13.098-.258.156-.38a.2.2 0 0 0 0-.19l-.03-.06a.62.62 0 0 1 .116-.726l.352-.351a.63.63 0 0 1 .726-.117l.059.03a.19.19 0 0 0 .191 0 3 3 0 0 1 .375-.155.19.19 0 0 0 .133-.133l.024-.063a.62.62 0 0 1 .593-.433h.5a.62.62 0 0 1 .594.433l.02.063q.033.099.136.133c.125.043.254.097.375.156a.19.19 0 0 0 .192 0l.058-.031a.63.63 0 0 1 .727.117l.352.351a.63.63 0 0 1 .117.727l-.032.059c-.03.066-.035.125 0 .19q.091.184.157.38.034.099.133.133l.062.02a.62.62 0 0 1 .434.593m-.668.031-.032-.012a.85.85 0 0 1-.562-.554 3 3 0 0 0-.121-.293.85.85 0 0 1 .004-.79l.015-.03-.312-.313-.031.016a.85.85 0 0 1-.79.004 3 3 0 0 0-.292-.122.85.85 0 0 1-.555-.562l-.012-.031h-.437l-.012.03a.86.86 0 0 1-.555.563q-.15.053-.297.122a.85.85 0 0 1-.789-.004l-.03-.016-.31.313.016.03a.87.87 0 0 1 .004.79c-.047.094-.09.195-.121.293a.87.87 0 0 1-.563.554l-.035.012v.438l.035.011c.27.09.47.286.563.555.031.102.074.2.121.297a.87.87 0 0 1-.004.789l-.016.031.31.309.03-.016a.87.87 0 0 1 .79-.004c.097.047.195.09.296.121.27.094.465.293.555.563l.012.035h.437l.012-.035a.87.87 0 0 1 .555-.563c.097-.03.199-.074.293-.12a.87.87 0 0 1 .789.003l.03.016.313-.309-.015-.031a.85.85 0 0 1-.004-.789q.07-.145.12-.297c.09-.27.29-.465.563-.555l.032-.011Zm-1.235.219c0 .922-.75 1.672-1.672 1.672s-1.671-.75-1.671-1.672.75-1.672 1.671-1.672c.922 0 1.672.75 1.672 1.672m-.668 0a1.004 1.004 0 1 0-2.007 0 1.004 1.004 0 0 0 2.007 0m-21.21.25v-.5c0-.27.171-.512.43-.594l.062-.02a.2.2 0 0 0 .136-.136c.043-.125.098-.254.157-.375a.2.2 0 0 0 0-.191l-.032-.06a.62.62 0 0 1 .117-.726l.352-.351a.63.63 0 0 1 .727-.117l.058.03a.19.19 0 0 0 .192 0q.18-.087.375-.155A.2.2 0 0 0 5.82.883L5.84.82a.62.62 0 0 1 .594-.433h.5a.62.62 0 0 1 .593.433l.02.063q.032.099.137.133c.125.043.253.097.375.156a.19.19 0 0 0 .191 0l.059-.031a.63.63 0 0 1 .726.117l.352.351a.63.63 0 0 1 .117.727l-.031.059a.2.2 0 0 0 0 .19c.058.122.113.25.156.38q.032.099.137.133l.058.02a.62.62 0 0 1 .434.593v.5a.62.62 0 0 1-.434.594l-.058.023a.19.19 0 0 0-.137.133 3 3 0 0 1-.156.375.2.2 0 0 0 0 .191l.03.059a.62.62 0 0 1-.116.726l-.352.356a.62.62 0 0 1-.726.113L8.25 6.75a.2.2 0 0 0-.191 0c-.121.059-.25.113-.375.156a.2.2 0 0 0-.137.137l-.02.062a.62.62 0 0 1-.593.43h-.5a.62.62 0 0 1-.594-.43l-.02-.062a.2.2 0 0 0-.136-.137 3 3 0 0 1-.375-.156.2.2 0 0 0-.192 0l-.058.031a.62.62 0 0 1-.727-.117l-.352-.351a.62.62 0 0 1-.117-.727l.032-.059a.2.2 0 0 0 0-.191 3 3 0 0 1-.157-.375.19.19 0 0 0-.136-.133l-.063-.023a.62.62 0 0 1-.43-.594m.663-.031.036.011c.27.09.468.286.562.555q.051.152.121.297a.87.87 0 0 1-.004.789l-.015.031.308.309.032-.016a.87.87 0 0 1 .789-.004c.097.047.195.09.296.121.27.094.465.293.555.563l.012.035h.437l.012-.035a.87.87 0 0 1 .555-.563c.097-.03.199-.074.293-.12a.87.87 0 0 1 .789.003l.035.016.309-.309-.016-.031a.85.85 0 0 1-.004-.789q.07-.145.121-.297c.09-.27.29-.465.563-.555l.03-.011v-.438l-.03-.012a.85.85 0 0 1-.563-.554 3 3 0 0 0-.121-.293.85.85 0 0 1 .004-.79l.016-.03-.31-.313-.034.016a.85.85 0 0 1-.79.004 3 3 0 0 0-.292-.122.85.85 0 0 1-.555-.562l-.012-.031h-.437l-.012.03a.86.86 0 0 1-.555.563q-.151.053-.296.122a.85.85 0 0 1-.79-.004l-.03-.016-.31.313.016.03a.87.87 0 0 1 .004.79 3 3 0 0 0-.12.293.87.87 0 0 1-.563.554l-.036.012Zm1.239-.22c0-.92.75-1.67 1.672-1.67s1.671.75 1.671 1.67c0 .923-.75 1.673-1.671 1.673-.922 0-1.672-.75-1.672-1.672m.668 0a1.004 1.004 0 1 0 2.007.002A1.004 1.004 0 0 0 5.68 3.96M8.19 20.716a.33.33 0 0 1-.05.355l-2.223 2.563a.34.34 0 0 1-.254.117.33.33 0 0 1-.25-.117L3.191 21.07a.34.34 0 0 1-.054-.355.33.33 0 0 1 .304-.195h.973v-4.094c0-.184.152-.336.336-.336h1.828c.184 0 .336.152.336.336v4.094h.973a.33.33 0 0 1 .304.195m-1.035.469h-.578a.33.33 0 0 1-.332-.332v-4.094H5.082v4.094a.33.33 0 0 1-.332.332h-.578l1.492 1.722Zm10.461 4.418a.34.34 0 0 1-.055.355L15.34 28.52a.33.33 0 0 1-.25.117.34.34 0 0 1-.254-.117l-2.223-2.563a.33.33 0 0 1-.05-.355.33.33 0 0 1 .304-.196h.973v-4.093c0-.184.148-.336.336-.336h1.828c.183 0 .332.152.332.335v4.094h.977c.128 0 .25.074.304.196m-1.035.472h-.578a.335.335 0 0 1-.332-.336v-4.093h-1.164v4.093a.335.335 0 0 1-.332.336h-.578l1.492 1.719Zm0 0"/></g></svg>