<svg xmlns="http://www.w3.org/2000/svg" width="40" height="40" version="1.0" viewBox="0 0 30 30"><defs><clipPath id="a"><path d="M.484 9H8v11H.484Zm0 0"/></clipPath><clipPath id="b"><path d="M2 3.395h7V10H2Zm0 0"/></clipPath><clipPath id="c"><path d="M21 19h8.516v6.895H21Zm0 0"/></clipPath><clipPath id="d"><path d="M22 22h2v3.895h-2Zm0 0"/></clipPath><clipPath id="e"><path d="M27 22h1v3.895h-1Zm0 0"/></clipPath><clipPath id="f"><path d="M12 19h9v6.895h-9Zm0 0"/></clipPath><clipPath id="g"><path d="M14 22h2v3.895h-2Zm0 0"/></clipPath><clipPath id="h"><path d="M18 22h2v3.895h-2Zm0 0"/></clipPath></defs><g clip-path="url(#a)"><path fill="#061c3d" d="M1.844 17.46v1.817c0 .246.207.453.453.453a.46.46 0 0 0 .457-.453v-1.816H5.27c0-.047.023-.066.023-.113l.18-.793H2.07a.683.683 0 0 1-.68-.68v-3.723c0-.816.66-1.496 1.477-1.496h4.106l.132-.566c.024-.137.094-.25.137-.34H2.867a2.387 2.387 0 0 0-2.383 2.402v3.743c0 .796.59 1.453 1.36 1.566m0 0"/></g><path fill="#061c3d" d="M2.754 12.926a.457.457 0 0 0-.457.453v1.453c0 .453.363.836.84.836h2.586l.183-.68.293-1.222-.363-.57a.463.463 0 0 0-.633-.133.46.46 0 0 0-.137.632l.68 1.067H3.207v-1.36a.46.46 0 0 0-.453-.476m0 0"/><g clip-path="url(#b)"><path fill="#061c3d" d="M5.7 3.398a2.94 2.94 0 0 0-2.946 2.95 2.94 2.94 0 0 0 2.945 2.949 2.944 2.944 0 0 0 2.95-2.95 2.944 2.944 0 0 0-2.95-2.949m0 0"/></g><path fill="#061c3d" d="M6.61 18.14h5.44a.46.46 0 0 0 .43-.292h-.066l-.68-.09c-.863-.137-1.476-.93-1.34-1.793l.208-1.43c.066-.406.27-.793.609-1.043.34-.25.75-.363 1.18-.297l.68.094c.183.024.343.09.5.156l.726-2.902a.47.47 0 0 0-.453-.566H8.422a.435.435 0 0 0-.43.34l-1.816 7.257a.46.46 0 0 0 .094.387c.066.113.203.18.34.18m0 0"/><path fill="#061c3d" d="M12.64 16.941c.34 0 .614-.25.66-.59l.204-1.43a.706.706 0 0 0-.566-.773l-.684-.09a.64.64 0 0 0-.496.137.74.74 0 0 0-.274.453l-.203 1.43a.696.696 0 0 0 .567.77l.68.093zm-.43-.953.138-.953.226.024-.136.949ZM27.93 16.328a2.49 2.49 0 0 0-2.496-2.496 2.49 2.49 0 0 0-2.497 2.496 2.487 2.487 0 0 0 2.497 2.492 2.487 2.487 0 0 0 2.496-2.492m0 0"/><g clip-path="url(#c)"><path fill="#061c3d" d="M26.977 19.277H23.89c-1.52 0-2.54 1.067-2.54 2.63v3.265a.453.453 0 0 0 .907 0v-3.266c0-.84.43-1.722 1.633-1.722h3.086c1.203 0 1.632.882 1.632 1.722v3.242c0 .25.203.457.453.457s.454-.207.454-.457v-3.242c0-1.562-1.02-2.629-2.54-2.629m0 0"/></g><g clip-path="url(#d)"><path fill="#061c3d" d="M23.848 25.172v-2.266a.456.456 0 0 0-.91 0v2.266a.456.456 0 0 0 .91 0m0 0"/></g><g clip-path="url(#e)"><path fill="#061c3d" d="M27.93 25.148v-2.242a.456.456 0 0 0-.91 0v2.242c0 .25.207.457.457.457a.46.46 0 0 0 .453-.457m0 0"/></g><path fill="#061c3d" d="M16.816 18.82a2.484 2.484 0 0 0 2.493-2.492 2.487 2.487 0 0 0-2.493-2.496 2.49 2.49 0 0 0-2.496 2.496 2.485 2.485 0 0 0 2.496 2.492m0 0"/><g clip-path="url(#f)"><path fill="#061c3d" d="M19.988 21.906v3.242c0 .25.207.457.457.457a.46.46 0 0 0 .453-.457v-3.242c0-1.562-1.023-2.629-2.543-2.629h-3.082c-1.52 0-2.543 1.067-2.543 2.63v3.265a.456.456 0 0 0 .91 0v-3.266c0-.84.43-1.722 1.633-1.722h3.082c1.204 0 1.633.882 1.633 1.722m0 0"/></g><g clip-path="url(#g)"><path fill="#061c3d" d="M15.227 25.172v-2.266a.453.453 0 0 0-.907 0v2.266a.453.453 0 0 0 .907 0m0 0"/></g><g clip-path="url(#h)"><path fill="#061c3d" d="M18.402 22.906v2.242c0 .25.203.457.453.457s.454-.207.454-.457v-2.242a.453.453 0 0 0-.907 0m0 0"/></g></svg>