<svg xmlns="http://www.w3.org/2000/svg" width="40" height="40" version="1.0" viewBox="0 0 30 30"><defs><clipPath id="a"><path d="M16 15h12.645v13.16H16Zm0 0"/></clipPath><clipPath id="b"><path d="M1.066.582h27.579V28.16H1.066Zm0 0"/></clipPath></defs><g clip-path="url(#a)"><path fill="#fff" d="M27.535 17.3h-1.394v-.929a.463.463 0 1 0-.926 0v.93H20.57v-.93a.466.466 0 0 0-.93 0v.93h-1.394c-.766 0-1.39.625-1.39 1.39v8.36c0 .765.624 1.394 1.39 1.394h9.29a1.4 1.4 0 0 0 1.394-1.394v-8.36c0-.765-.63-1.39-1.395-1.39M28 27.05c0 .259-.21.466-.465.466h-9.289a.466.466 0 0 1-.465-.465v-6.035H28Zm0 0"/></g><path fill="#fff" d="M4.316 13.582h2.32q.194.001.329.137.136.14.137.328v3.715a.464.464 0 0 1-.465.465h-2.32a.45.45 0 0 1-.329-.133.45.45 0 0 1-.136-.332v-3.715q-.002-.188.136-.328.135-.136.328-.137M8.496 10.797h2.32q.194.001.329.137.136.135.136.328v6.5a.464.464 0 0 1-.465.465h-2.32a.45.45 0 0 1-.328-.133.45.45 0 0 1-.137-.332v-6.5c0-.13.043-.239.137-.328q.136-.136.328-.137M12.676 12.191h2.32c.129 0 .238.043.328.137q.136.135.137.328v5.106a.464.464 0 0 1-.465.465h-2.32a.45.45 0 0 1-.328-.133.45.45 0 0 1-.137-.332v-5.106c0-.129.043-.238.137-.328q.135-.139.328-.137M4.316 6.617h5.57a.466.466 0 0 0 0-.93h-5.57a.466.466 0 0 0 0 .93M10.352 8.012a.463.463 0 0 0-.465-.465h-5.57a.466.466 0 0 0 0 .93h5.57c.258 0 .465-.211.465-.465M6.637 9.406h-2.32a.463.463 0 1 0 0 .926h2.32a.463.463 0 1 0 0-.926m0 0"/><g clip-path="url(#b)"><path fill="#fff" d="M23.82.582a5.12 5.12 0 0 0-4.547 2.785H3.387a2.32 2.32 0 0 0-2.32 2.32v16.72a2.324 2.324 0 0 0 2.32 2.323h8.07l-1.523 3.04a.48.48 0 0 0 .02.453c.081.132.23.218.394.218h5.27c.257 0 .464-.21.464-.464l-.16-3.715a.466.466 0 0 0-.465-.465H3.387a1.4 1.4 0 0 1-1.395-1.395v-1.394h13.469a.465.465 0 0 0 .465-.461.466.466 0 0 0-.465-.465H1.992V5.688c0-.766.63-1.391 1.395-1.391H18.91c-.125.445-.2.91-.2 1.39 0 2.82 2.29 5.11 5.11 5.11A5.1 5.1 0 0 0 28 8.613v7.45a.466.466 0 0 0 .93 0V5.687A5.11 5.11 0 0 0 23.82.582m1.778 6.293a.46.46 0 0 1-.641.129l-1.39-.93a.46.46 0 0 1-.212-.386v-2.32c0-.255.211-.466.465-.466s.465.211.465.465v2.07l1.184.79a.47.47 0 0 1 .129.648m0 0"/></g><path fill="#fff" d="M19.176 21.941h1.86c.124 0 .237.047.327.137s.137.203.137.328v1.86a.45.45 0 0 1-.137.328.46.46 0 0 1-.328.136h-1.86a.45.45 0 0 1-.327-.136.45.45 0 0 1-.137-.328v-1.86c0-.125.047-.238.137-.328q.135-.136.328-.137m0 0"/></svg>