<svg xmlns="http://www.w3.org/2000/svg" width="40" height="40" version="1.0" viewBox="0 0 30 30"><defs><clipPath id="a"><path d="M.484 5.7h29.032v23.222H.484Zm0 0"/></clipPath></defs><g clip-path="url(#a)"><path fill="#fff" d="M17.605 22.887v3.457h-5.21v-3.457Zm4.434 3.925H7.961c-.645 0-1.168.497-1.168 1.106s.523 1.102 1.168 1.102h14.078c.645 0 1.168-.493 1.168-1.102s-.523-1.105-1.168-1.105m6.3-21.117H1.66c-.644 0-1.164.524-1.164 1.168V21.25c0 .645.52 1.168 1.164 1.168H23.72l-1.012-1.012H1.738a.23.23 0 0 1-.234-.23V6.94c0-.128.105-.234.234-.234h26.524c.129 0 .234.106.234.234v14.235c0 .129-.105.23-.234.23h-1.887l1.012 1.012h.953c.644 0 1.164-.523 1.164-1.168V6.863c0-.644-.52-1.168-1.164-1.168M1.974 7.175h26.054V8.86H1.973Zm3.828.872c0 .129.105.234.234.234h.45a.235.235 0 0 0 .234-.234.235.235 0 0 0-.235-.235h-.449a.235.235 0 0 0-.234.235m-1.555 0c0 .129.106.234.234.234h.446a.235.235 0 0 0 .234-.234.235.235 0 0 0-.234-.235H4.48a.235.235 0 0 0-.234.235m-1.555 0c0 .129.106.234.235.234h.445a.235.235 0 0 0 .234-.234.235.235 0 0 0-.234-.235h-.445a.235.235 0 0 0-.235.235m19.946 10.281a5.5 5.5 0 0 1-1.172 1.172l.625.625 1.172-1.172Zm.957.957-1.172 1.172 3.914 3.918c.187.184.434.29.684.29a.78.78 0 0 0 .558-.224c.324-.32.293-.878-.07-1.238Zm-5.336.797a4.93 4.93 0 0 1-3.504-1.453 4.93 4.93 0 0 1-1.45-3.504c0-1.324.516-2.57 1.45-3.504a4.93 4.93 0 0 1 3.504-1.453c1.324 0 2.57.516 3.504 1.453a4.96 4.96 0 0 1 0 7.008 4.91 4.91 0 0 1-3.504 1.453m2.918-2.039a4.13 4.13 0 0 0 0-5.836A4.08 4.08 0 0 0 18.258 11a4.1 4.1 0 0 0-2.918 1.207 4.14 4.14 0 0 0 0 5.836 4.1 4.1 0 0 0 2.918 1.207c1.105 0 2.14-.43 2.918-1.207m-15.961-.285a.234.234 0 0 1-.235.234.2.2 0 0 1-.117-.035l-.34-.2-.34.2a.24.24 0 0 1-.234.004.23.23 0 0 1-.117-.203v-.809h-.836v3.055h3.055v-3.055h-.836Zm-.809-.473a.23.23 0 0 1 .235 0l.105.063v-.399h-.445v.399Zm5.293.473a.234.234 0 0 1-.234.234.2.2 0 0 1-.117-.035l-.34-.2-.34.2a.24.24 0 0 1-.234.004.23.23 0 0 1-.118-.203v-.809H7.48v3.055h3.055v-3.055H9.7Zm-.808-.473a.23.23 0 0 1 .234 0l.105.063v-.399h-.445v.399Zm-3.676-3.95a.23.23 0 0 1-.117.204.24.24 0 0 1-.235 0l-.34-.2-.34.2a.23.23 0 0 1-.234 0 .23.23 0 0 1-.117-.203v-.809h-.836v3.059h3.055v-3.059h-.836Zm-.809-.468a.23.23 0 0 1 .235 0l.105.063v-.403h-.445v.403Zm5.293.469a.23.23 0 0 1-.117.203.24.24 0 0 1-.234 0l-.34-.2-.34.2a.23.23 0 0 1-.234 0 .23.23 0 0 1-.118-.203v-.809H7.48v3.059h3.055v-3.059H9.7Zm-.808-.469a.23.23 0 0 1 .234 0l.105.063v-.403h-.445v.403Zm11.68 1.203-2.079 1.2v2.394l2.078-1.2Zm-3.637.793.156.094v-.363q.002-.004.004-.008v-.031q.005-.005.004-.016.005-.006.004-.012.004-.008.003-.015.004-.005.008-.016.004-.006.008-.012-.001-.004.004-.007s0-.004.004-.004q.001-.011.008-.016.004-.006.008-.012l.011-.011.008-.008.012-.012c.004-.004.012-.008.015-.012q.006-.001.012-.007.002.001.004-.004l2.195-1.266-.16-.09-2.308 1.332Zm1.09.407-.465-.27v.363c0 .082-.043.16-.118.2a.2.2 0 0 1-.117.03.2.2 0 0 1-.117-.03l-.625-.36a.24.24 0 0 1-.117-.203v-.633l-.516-.297v2.395l2.078 1.2V15.27Zm-1.84-1.606.515.297 2.074-1.195-.515-.301Zm2.074 1.2 2.078-1.2-.469-.27-2.074 1.2Zm0 0"/></g></svg>