<svg xmlns="http://www.w3.org/2000/svg" width="40" height="40" version="1.0" viewBox="0 0 30 30"><defs><clipPath id="a"><path d="M.484 1.543h29.032v26.129H.484Zm0 0"/></clipPath></defs><g clip-path="url(#a)"><path fill="#061c3d" fill-rule="evenodd" d="M8.848 21.023c.507 0 .925-.332 1.043-.824l.156-.668-2.172.082-.16 1.41Zm-5.957 0h1.097l-.023-1.261-2.18.086.047.28c.09.528.527.895 1.059.895m-1.45-3.21.2 1.18 2.304-.09-.023-1.262Zm3.38 1.917.027 1.293h2l.16-1.375Zm2.284-.949.157-1.375-2.48.172.027 1.293Zm3.497-1.605-2.47.172-.155 1.402 2.277-.086ZM8.48 24.25a.483.483 0 0 0-.48-.484.487.487 0 0 0-.484.484.483.483 0 0 0 .965 0m-5.265-.484a.48.48 0 0 0-.477.484.48.48 0 1 0 .961 0 .487.487 0 0 0-.484-.484m8.543-7.743-1.473 6.254a1.92 1.92 0 0 1-1.11 1.328c.485.868-.144 1.985-1.175 1.985a1.342 1.342 0 0 1-1.25-1.824H4.469c.332.855-.297 1.824-1.254 1.824a1.342 1.342 0 0 1-1.25-1.824h-.113a.43.43 0 0 1-.43-.43c0-.238.191-.43.43-.43h6.55c.512 0 .93-.332 1.043-.828l.078-.312c-.21.078-.441.117-.675.117H2.89a1.93 1.93 0 0 1-1.907-1.61l-.41-2.441a.75.75 0 0 1 .688-.871l9.547-.664.191-.8a.42.42 0 0 1 .414-.333h2.05c.24 0 .434.191.434.43 0 .238-.195.43-.433.43Zm12.082 9.454h-1.594a.43.43 0 0 0-.43.43c0 .234.196.429.43.429h1.594a.43.43 0 0 0 .43-.43.43.43 0 0 0-.43-.43m.598-4.82h-2.786v3.695h2.785Zm.855-.11v3.914c0 .414-.332.75-.746.75h-3.004a.754.754 0 0 1-.754-.75v-3.914c0-.414.34-.75.754-.75h3.004c.414 0 .746.336.746.75m3.355-1.574c0 .957-.78 1.734-1.734 1.734h-.367v-1.312a.967.967 0 0 0-.965-.965H20.5a.964.964 0 0 0-.96.965v1.312h-.372a1.735 1.735 0 0 1 0-3.469h.266a.43.43 0 0 0 .43-.367 3.22 3.22 0 0 1 3.179-2.75 3.236 3.236 0 0 1 3.184 2.75c.027.211.207.367.421.367h.266a1.74 1.74 0 0 1 1.734 1.735m-2.96.422v7.132a.104.104 0 0 1-.106.102H20.5a.103.103 0 0 1-.102-.102v-7.132c0-.06.047-.106.102-.106h5.082c.059 0 .105.047.105.106m3.82-.422a2.594 2.594 0 0 0-2.504-2.59 4.09 4.09 0 0 0-3.961-3.121 4.096 4.096 0 0 0-3.961 3.12 2.597 2.597 0 0 0-2.504 2.59c0 1.43 1.16 2.594 2.59 2.594h.371v2.372a9.15 9.15 0 0 1-8.227 1.55.434.434 0 0 0-.535.29c-.07.23.063.468.29.535 2.874.855 5.992.375 8.472-1.313v1.527c0 .532.43.961.961.961h5.082c.531 0 .965-.43.965-.96v-4.962h.367a2.597 2.597 0 0 0 2.594-2.593M10.02 4.8l1.293-.004c.152-.703.402-1.402.75-1.969a4.46 4.46 0 0 0-2.043 1.973m5.816-1.973c.36.586.59 1.223.75 1.95l1.285-.005a4.44 4.44 0 0 0-2.035-1.945m2.047 6.027-1.293.004c-.16.739-.39 1.38-.754 1.973a4.46 4.46 0 0 0 2.047-1.977m-5.848-3.203a9 9 0 0 0 .004 2.364l3.828-.012a9.4 9.4 0 0 0-.004-2.363Zm3.672 3.211-3.508.012c.364 1.465 1.082 2.379 1.754 2.379.668 0 1.39-.922 1.754-2.39m2.504-3.23-1.48.008c.093.8.097 1.554.003 2.359l1.485-.004c.215-.773.21-1.59-.008-2.363m-6.012-.84 3.504-.012c-.363-1.46-1.082-2.379-1.75-2.379-.672 0-1.394.922-1.754 2.391m-2.508 3.23 1.485-.003a9.8 9.8 0 0 1-.004-2.364L9.68 5.66a4.45 4.45 0 0 0 .011 2.363m2.371 2.809c-.343-.566-.593-1.258-.746-1.953l-1.285.004a4.5 4.5 0 0 0 2.031 1.949M8.665 6.828a5.29 5.29 0 0 1 5.29-5.285c3.46 0 5.976 3.285 5.112 6.617a10.04 10.04 0 0 1 3.5 3.555.432.432 0 0 1-.37.648.43.43 0 0 1-.372-.215 9.2 9.2 0 0 0-3.05-3.156 5.29 5.29 0 0 1-4.82 3.121 5.29 5.29 0 0 1-5.29-5.285M3.988 15.61a.43.43 0 0 0 .38.473c.237.027.448-.14.476-.379a9.08 9.08 0 0 1 3.265-6.02.43.43 0 0 0 .055-.605.43.43 0 0 0-.601-.058 9.94 9.94 0 0 0-3.575 6.59m0 0"/></g></svg>