<svg xmlns="http://www.w3.org/2000/svg" width="40" height="40" version="1.0" viewBox="0 0 30 30"><defs><clipPath id="a"><path d="M10 23h10v3.672H10Zm0 0"/></clipPath><clipPath id="b"><path d="M18 2.723h11.516V13H18Zm0 0"/></clipPath><clipPath id="c"><path d="M.484 2.723H12V13H.484Zm0 0"/></clipPath></defs><path fill="#061c3d" d="M12.172 5.09h5.656v1.453h-5.656ZM24.887 18.309H5.113v-6.813H3.66v10.348a1.45 1.45 0 0 0 1.453 1.453h19.774a1.45 1.45 0 0 0 1.453-1.453V11.496h-1.453ZM15 22.739a1.208 1.208 0 1 1 0-2.418 1.208 1.208 0 1 1 0 2.417m0 0"/><g clip-path="url(#a)"><path fill="#061c3d" d="m12.258 23.895-2.145 1.62v.762h9.774v-.761l-2.145-1.621Zm0 0"/></g><path fill="#061c3d" d="M12.617 14.809c-.344.18-.656.402-.949.66a4.47 4.47 0 0 1-1.168-2.75l-.598-.438q-.005.07-.004.153c0 2.808 2.293 5.093 5.102 5.093s5.102-2.285 5.102-5.093q.001-.084-.004-.157c-.063.043-.938.696-.598.442a4.46 4.46 0 0 1-1.164 2.746 5.4 5.4 0 0 0-.945-.664c.168-.621.27-1.332.293-2.082h.664a1 1 0 0 1-.473-.582h-.191a9.2 9.2 0 0 0-.293-2.086q.221-.118.437-.266V9.06c-.191.156-.402.3-.621.421-.191-.52-.43-.968-.71-1.316.48.168.933.422 1.331.75v-.738A5.1 5.1 0 0 0 15 7.324c-1.027 0-2 .301-2.828.86v.73a4.4 4.4 0 0 1 1.34-.75c-.282.348-.524.797-.715 1.316a3.6 3.6 0 0 1-.625-.43v.727c.144.106.289.196.445.274a8.4 8.4 0 0 0-.293 2.086h-.199a1 1 0 0 1-.473.582h.672c.016.75.117 1.46.293 2.09m5.301 1.062a4.5 4.5 0 0 1-1.422.816c.281-.347.52-.796.711-1.316.254.14.488.309.711.5m-2.625-7.91c.559.172 1.05.832 1.387 1.777a4.6 4.6 0 0 1-1.387.305Zm0 2.664a4.9 4.9 0 0 0 1.555-.336c.144.559.234 1.188.254 1.848h-1.809Zm0 2.094h1.809a8.4 8.4 0 0 1-.254 1.84 5 5 0 0 0-1.555-.332Zm0 2.09c.48.03.95.132 1.387.304-.328.946-.828 1.61-1.387 1.785Zm-.582 2.09c-.559-.176-1.055-.84-1.387-1.786a4.6 4.6 0 0 1 1.387-.304Zm0-8.938v2.082a4.6 4.6 0 0 1-1.387-.305c.332-.945.828-1.605 1.387-1.777m-1.559 2.336c.493.191 1.02.297 1.559.328v1.512h-1.813c.024-.66.11-1.285.254-1.84m1.559 2.422v1.508a5.2 5.2 0 0 0-1.559.335 8.7 8.7 0 0 1-.254-1.843Zm-1.914 2.652c.191.524.433.969.707 1.316-.52-.187-1-.46-1.422-.808.223-.195.465-.363.715-.508M25.535 8.309h.848l.32-1.371h-1.168Zm0 0"/><g clip-path="url(#b)"><path fill="#061c3d" d="M28.574 2.691h-9.316a.834.834 0 0 0-.832.836v8.309c0 .324.347.523.625.363l2.23-1.3h7.293a.835.835 0 0 0 .832-.833V3.527a.836.836 0 0 0-.832-.836m-5.488 7.106a.627.627 0 0 1-.625-.625c0-.172.07-.328.187-.445h.88a.63.63 0 0 1 .187.445.63.63 0 0 1-.63.625m2.684 0a.627.627 0 0 1-.442-1.07h.883a.63.63 0 0 1 .187.445.63.63 0 0 1-.628.625m1.816-4.813-.836 3.582a.206.206 0 0 1-.203.16h-4.27a.2.2 0 0 1-.07-.011q-.016-.007-.031-.02l-.028-.011a.1.1 0 0 1-.027-.032l-.02-.02q-.009-.022-.019-.046c0-.008-.008-.012-.008-.02l-.98-4.195a.21.21 0 0 0-.203-.16h-.442a.21.21 0 1 1 0-.418h.442c.293 0 .543.2.609.484l.105.453h5.778a.207.207 0 0 1 .203.254m0 0"/></g><path fill="#061c3d" d="M25.535 6.52h1.266l.32-1.372h-1.586ZM22.027 6.52h1.266V5.148h-1.586ZM23.71 5.148h1.407V6.52h-1.406ZM22.414 8.176l.027.133h.852V6.938h-1.168ZM23.71 6.938h1.407v1.37h-1.406Zm0 0"/><g clip-path="url(#c)"><path fill="#061c3d" d="M10.95 12.2c.273.16.624-.04.624-.364V3.523a.834.834 0 0 0-.828-.828H1.43a.835.835 0 0 0-.836.828v6.543c0 .457.375.829.836.829h7.293ZM1.284 9.155V4.437c0-.523.426-.94.942-.94H9.94c.516 0 .942.417.942.94v4.72a.947.947 0 0 1-.942.94H2.227a.947.947 0 0 1-.942-.94m0 0"/></g><path fill="#061c3d" d="M10.281 4.438a.343.343 0 0 0-.34-.344H2.227a.343.343 0 0 0-.34.343v.34h8.394ZM1.887 5.379h8.394v.758H1.887ZM10.281 9.156V6.734H1.887v2.422c0 .184.156.34.34.34H9.94c.184 0 .34-.156.34-.34m-5.379-.808H3.508v-.516h1.394Zm1.88 0H5.386v-.516H6.78Zm1.878 0H7.266v-.516H8.66Zm0 0"/></svg>