<svg xmlns="http://www.w3.org/2000/svg" width="40" height="40" version="1.0" viewBox="0 0 30 30"><defs><clipPath id="a"><path d="M16 14h13.516v7H16Zm0 0"/></clipPath><clipPath id="b"><path d="M4 .164h21V29H4Zm0 0"/></clipPath><clipPath id="c"><path d="M.484 6H15v7H.484Zm0 0"/></clipPath><clipPath id="d"><path d="M.484 22H15v7.031H.484Zm0 0"/></clipPath></defs><g clip-path="url(#a)"><path fill="#061c3d" fill-rule="evenodd" d="M20.41 19.934c-1.191 0-2.164-.934-2.164-2.082 0-1.149.973-2.086 2.164-2.086.469 0 .93.148 1.3.418.161.117.196.34.083.5-.117.16-.34.199-.504.082a1.52 1.52 0 0 0-.879-.282c-.797 0-1.445.614-1.445 1.368 0 .753.648 1.367 1.445 1.367.317 0 .63-.102.88-.282a.36.36 0 0 1 .503.079.365.365 0 0 1-.082.504 2.25 2.25 0 0 1-1.3.414m-3.543-5.098v6.031h13.524v-6.031Zm10.723 5.098c-.785 0-1.422-.528-1.422-1.176a.358.358 0 1 1 .715 0c0 .242.332.46.707.46s.703-.218.703-.46c0-.25-.32-.387-.844-.586-.57-.215-1.281-.485-1.281-1.227 0-.648.637-1.18 1.422-1.18.781 0 1.418.532 1.418 1.18a.358.358 0 1 1-.715 0c0-.246-.328-.46-.703-.46s-.707.214-.707.46c0 .23.328.371.82.555.582.219 1.305.492 1.305 1.258.004.648-.637 1.176-1.418 1.176m-3.578 0c-.782 0-1.418-.528-1.418-1.176a.358.358 0 1 1 .715 0c0 .242.332.46.703.46.375 0 .703-.218.703-.46 0-.25-.317-.387-.84-.586-.57-.215-1.281-.485-1.281-1.227 0-.648.636-1.18 1.418-1.18.785 0 1.422.532 1.422 1.18 0 .2-.16.36-.36.36a.36.36 0 0 1-.36-.36c0-.246-.327-.46-.702-.46-.371 0-.703.214-.703.46 0 .23.324.371.82.555.582.219 1.305.492 1.305 1.258 0 .648-.637 1.176-1.422 1.176m0 0"/></g><g clip-path="url(#b)"><path fill="#061c3d" fill-rule="evenodd" d="M14.363 13.59H4.262v8.676h10.187c.2 0 .36.16.36.359v.832h6.625c.199 0 .359.16.359.36s-.16.359-.36.359H14.81v3.832h7.652a1.897 1.897 0 0 0 1.898-1.895v-4.527h-7.851a.36.36 0 0 1-.36-.36v-4.828h-2.515a.36.36 0 0 1-.36-.359c0-.2.16-.36.36-.36h2.515v-1.202c0-.196.165-.36.36-.36h7.847V2.074A1.897 1.897 0 0 0 22.461.176H6.156a1.9 1.9 0 0 0-1.894 1.898v4.051h10.101c.2 0 .36.16.36.36v1.417h6.71a.358.358 0 1 1 0 .715h-6.71v3.172h6.71c.2 0 .36.16.36.36s-.16.359-.36.359h-6.71v.722c0 .2-.16.36-.36.36m7.07-8.86H7.184a.358.358 0 1 1 0-.719h14.25c.2 0 .36.16.36.36s-.16.36-.36.36M7.184 19.566h7.126c.199 0 .359.164.359.36 0 .199-.16.36-.36.36H7.185c-.2 0-.36-.161-.36-.36 0-.196.164-.36.36-.36m2.93-3.168h-2.93a.36.36 0 0 1-.359-.359c0-.2.16-.36.36-.36h2.93c.198 0 .359.16.359.36a.36.36 0 0 1-.36.36m0 0"/></g><g clip-path="url(#c)"><path fill="#061c3d" fill-rule="evenodd" d="M11.36 8.477v2.402h1.535a.358.358 0 1 1 0 .715H11c-.2 0-.36-.16-.36-.356V8.477c0-.196.16-.356.36-.356s.36.16.36.356m-1.02 0v2.761c0 .196-.16.356-.36.356s-.359-.16-.359-.356v-.98l-.469 1.117a.359.359 0 0 1-.66 0l-.472-1.117v.98a.358.358 0 0 1-.715 0V8.477a.356.356 0 0 1 .687-.137l.828 1.973.832-1.973a.356.356 0 0 1 .399-.215c.168.035.289.184.289.352m3.664-1.633H.484v6.027h13.52ZM5.84 11.238a.358.358 0 1 1-.715 0V8.836H4.32a.357.357 0 0 1 0-.715h2.32a.358.358 0 1 1 0 .715h-.8ZM3.66 8.477v2.761a.36.36 0 0 1-.719 0v-1.023h-.988v1.023a.36.36 0 0 1-.719 0V8.477a.36.36 0 0 1 .719 0v1.02h.988v-1.02a.36.36 0 0 1 .72 0m0 0"/></g><g clip-path="url(#d)"><path fill="#061c3d" fill-rule="evenodd" d="M14.09 22.984H.566v6.032H14.09ZM9.5 25.648c.625.239 1.398.532 1.398 1.34 0 .692-.68 1.254-1.515 1.254-.836 0-1.516-.562-1.516-1.254 0-.199.16-.36.36-.36s.359.161.359.36c0 .29.363.535.797.535.433 0 .8-.246.8-.535 0-.293-.355-.445-.937-.668-.617-.23-1.379-.515-1.379-1.304 0-.692.68-1.254 1.516-1.254s1.515.562 1.515 1.254a.358.358 0 1 1-.714 0c0-.29-.368-.536-.801-.536-.43 0-.797.247-.797.536 0 .27.344.422.914.632m-2.633 1.067c0 .84-.699 1.527-1.554 1.527-.86 0-1.555-.687-1.555-1.527 0-.2.16-.36.36-.36.198 0 .359.16.359.36 0 .445.375.808.835.808.461 0 .836-.363.836-.808V24.12c0-.2.16-.36.36-.36s.36.16.36.36Zm0 0"/></g></svg>