<svg xmlns="http://www.w3.org/2000/svg" width="40" height="40" version="1.0" viewBox="0 0 30 30"><defs><clipPath id="a"><path d="M9 25h12v4.031H9Zm0 0"/></clipPath><clipPath id="b"><path d="M1.371 7h27.582v18H1.371Zm0 0"/></clipPath><clipPath id="c"><path d="M1.371 21h27.582v2H1.371Zm0 0"/></clipPath></defs><g clip-path="url(#a)"><path fill="#fff" d="M20.441 29.043H9.555a.456.456 0 0 1-.422-.621l.91-2.27a.45.45 0 0 1 .418-.285h9.074c.184 0 .352.113.422.285l.906 2.27a.452.452 0 0 1-.422.621m-10.214-.906h9.546l-.546-1.364H10.77Zm0 0"/></g><path fill="#fff" d="M17.266 26.785H12.73c-.25 0-.457-.226-.457-.476v-2.27a.454.454 0 0 1 .91 0v1.84h3.633v-1.84a.453.453 0 0 1 .907 0v2.27c0 .25-.207.476-.457.476m0 0"/><g clip-path="url(#b)"><path fill="#fff" d="M28.152 24.516H1.844a.48.48 0 0 1-.465-.477V7.711c0-.25.215-.445.465-.445h5.898a.453.453 0 0 1 0 .906H2.29v15.433h25.422V8.172h-5.453a.453.453 0 0 1 0-.906h5.894c.25 0 .465.195.465.445v16.328a.48.48 0 0 1-.465.477m0 0"/></g><g clip-path="url(#c)"><path fill="#fff" d="M28.152 22.7H1.844a.453.453 0 0 1 0-.907h26.308a.453.453 0 0 1 0 .906m0 0"/></g><path fill="#fff" d="M19.309 20.879h-.907a.454.454 0 0 1-.457-.453c0-.25.203-.453.457-.453h.907c.25 0 .453-.207.453-.457a.453.453 0 0 0-.453-.453c-.75 0-1.364-.61-1.364-1.36s.614-1.363 1.364-1.363h.906a.454.454 0 0 1 0 .91h-.906a.453.453 0 0 0 0 .906 1.36 1.36 0 0 1 0 2.723M12.05 20.879h-.452c-1.25 0-2.27-1.02-2.27-2.27s1.02-2.27 2.27-2.27h.453a.454.454 0 0 1 0 .911h-.453a1.36 1.36 0 0 0 0 2.723h.453a.453.453 0 0 1 0 .906M16.586 20.867a.453.453 0 0 1-.453-.453V17.88l-.586.586a.455.455 0 0 1-.64 0l-.59-.586v2.535a.453.453 0 0 1-.907 0v-3.629a.455.455 0 0 1 .774-.324l1.043 1.043 1.039-1.043a.456.456 0 0 1 .777.324v3.63c0 .25-.207.452-.457.452M15.906 15.434H14.09a.464.464 0 0 1-.453-.465v-1.055a6.3 6.3 0 0 1-2.063-.855l-.746.746a.455.455 0 0 1-.64 0l-1.282-1.282a.453.453 0 0 1 0-.644l.742-.738a6.4 6.4 0 0 1-.855-2.063h-1.05c-.25 0-.462-.21-.462-.46V6.804c0-.25.211-.45.461-.45h1.051a6.5 6.5 0 0 1 .855-2.066l-.742-.746a.453.453 0 0 1 0-.645l1.281-1.28a.455.455 0 0 1 .641 0l.746.745a6.3 6.3 0 0 1 2.063-.855V.453c0-.25.203-.453.453-.453h1.816c.25 0 .453.203.453.453v1.055c.739.16 1.434.449 2.063.855l.746-.746a.455.455 0 0 1 .64 0l1.286 1.281a.46.46 0 0 1 0 .645l-.746.746c.402.633.695 1.328.855 2.066h1.055c.25 0 .457.2.457.45v1.812c0 .25-.207.461-.457.461h-1.055a6.3 6.3 0 0 1-.855 2.059l.746.746a.455.455 0 0 1 0 .64l-1.285 1.282a.45.45 0 0 1-.641 0l-.746-.746a6.2 6.2 0 0 1-2.063.855v1.055c0 .25-.203.465-.453.465m-1.363-.907h.91v-.988c0-.223.164-.414.383-.45a5.45 5.45 0 0 0 2.375-.984c.18-.128.43-.109.586.047l.691.692.645-.64-.695-.692a.46.46 0 0 1-.043-.59c.511-.7.851-1.516.984-2.367a.45.45 0 0 1 .445-.383h.985v-.906h-.985a.45.45 0 0 1-.445-.391 5.46 5.46 0 0 0-.984-2.371.456.456 0 0 1 .043-.59l.695-.691-.645-.645-.691.692a.45.45 0 0 1-.586.046 5.45 5.45 0 0 0-2.375-.984.454.454 0 0 1-.383-.45V.907h-.91v.977a.45.45 0 0 1-.383.449 5.46 5.46 0 0 0-2.37.984.45.45 0 0 1-.59-.046l-.692-.692-.64.64.69.692c.157.16.176.41.047.59a5.4 5.4 0 0 0-.984 2.375.46.46 0 0 1-.45.39h-.983v.907h.984c.223 0 .414.16.45.383a5.4 5.4 0 0 0 .983 2.37c.13.18.11.427-.046.587l-.692.691.64.64.692-.69a.46.46 0 0 1 .59-.048c.7.512 1.52.852 2.371.985a.45.45 0 0 1 .383.45Zm0 0"/><path fill="#fff" d="M15 11.793a4.085 4.085 0 0 1-4.082-4.082A4.085 4.085 0 0 1 15 3.629a4.09 4.09 0 0 1 4.082 4.082A4.09 4.09 0 0 1 15 11.793m0-7.258a3.18 3.18 0 0 0-3.176 3.176A3.18 3.18 0 0 0 15 10.887a3.18 3.18 0 0 0 3.176-3.176A3.18 3.18 0 0 0 15 4.535m0 0"/></svg>