<svg xmlns="http://www.w3.org/2000/svg" width="40" height="40" version="1.0" viewBox="0 0 30 30"><defs><clipPath id="a"><path d="M24 13h4.066v4H24Zm0 0"/></clipPath><clipPath id="b"><path d="M3.387.402H23v28.305H3.387Zm0 0"/></clipPath><clipPath id="c"><path d="M3.387 4H23v2H3.387Zm0 0"/></clipPath><clipPath id="d"><path d="M3.387 24H23v2H3.387Zm0 0"/></clipPath></defs><path fill="#fff" d="M13.18 17.348a2.634 2.634 0 1 1-.006-5.269 2.634 2.634 0 0 1 .006 5.269m0-4.309q-.333 0-.64.129a1.6 1.6 0 0 0-.544.36 1.7 1.7 0 0 0-.363.542 1.646 1.646 0 0 0 0 1.281q.124.307.36.544.239.234.542.363.309.127.64.125.336.004.641-.125.31-.129.543-.363.235-.234.364-.543a1.63 1.63 0 0 0 0-1.278 1.683 1.683 0 0 0-.902-.906 1.65 1.65 0 0 0-.641-.129m0 0"/><path fill="#fff" d="M14.086 20.938h-1.809a.46.46 0 0 1-.34-.141.46.46 0 0 1-.14-.34v-1.895l-.363-.148-1.332 1.34a.46.46 0 0 1-.34.14.46.46 0 0 1-.34-.14L8.14 18.477a.48.48 0 0 1-.141-.34q0-.198.14-.344l1.337-1.336-.149-.363h-1.89a.46.46 0 0 1-.34-.14.46.46 0 0 1-.141-.34v-1.802q0-.198.14-.34a.45.45 0 0 1 .34-.144h1.891l.149-.36-1.336-1.335a.46.46 0 0 1-.141-.34q0-.2.14-.34l1.278-1.281a.46.46 0 0 1 .34-.14q.2 0 .34.14l1.34 1.34.359-.149V8.97q0-.2.14-.34a.46.46 0 0 1 .34-.14h1.809q.2 0 .34.14t.14.34v1.89l.364.149 1.336-1.336a.46.46 0 0 1 .34-.14q.198 0 .34.14l1.277 1.277q.14.14.14.34a.46.46 0 0 1-.14.34l-1.34 1.34.148.36h1.895q.2-.002.34.144.14.14.14.34v1.8a.46.46 0 0 1-.14.34.46.46 0 0 1-.34.14H17.03l-.148.364 1.34 1.336q.14.14.14.34a.46.46 0 0 1-.14.34l-1.282 1.28a.46.46 0 0 1-.34.142.46.46 0 0 1-.34-.141l-1.335-1.34-.364.148v1.895a.45.45 0 0 1-.136.34.46.46 0 0 1-.34.14m-1.328-.961h.847v-1.735q0-.321.297-.441l.95-.399a.45.45 0 0 1 .527.106l1.223 1.226.601-.601-1.223-1.227a.44.44 0 0 1-.105-.523l.39-.95q.123-.3.45-.3h1.73v-.84h-1.73a.45.45 0 0 1-.445-.297l-.399-.957a.44.44 0 0 1 .106-.523l1.222-1.227-.597-.601-1.227 1.226a.444.444 0 0 1-.523.106l-.954-.395a.444.444 0 0 1-.296-.445V9.45h-.844v1.734c0 .21-.102.359-.297.441l-.953.395a.45.45 0 0 1-.524-.102l-1.226-1.227-.602.602 1.227 1.223a.45.45 0 0 1 .101.523l-.39.953a.45.45 0 0 1-.446.297h-1.73v.844h1.73q.323-.002.446.297l.394.953c.082.199.047.37-.105.523L9.16 18.133l.602.601 1.222-1.226a.444.444 0 0 1 .524-.106l.953.395q.298.123.297.445Zm0 0"/><path fill="#fff" d="M20.809 20.57a.4.4 0 0 1-.168-.03l-3.555-1.33a.46.46 0 0 1-.27-.25.45.45 0 0 1-.015-.366.47.47 0 0 1 .25-.27.47.47 0 0 1 .37-.012l3.407 1.27 3.149-.93a.46.46 0 0 1 .367.04c.117.062.195.16.23.285q.06.192-.039.367a.44.44 0 0 1-.285.23l-3.305.977a.6.6 0 0 1-.136.02M17.3 11.191a.47.47 0 0 1-.308-.113.47.47 0 0 1-.164-.289.481.481 0 0 1 .32-.535L20.75 9.05a.5.5 0 0 1 .305 0l3.422 1.144q.197.054.296.239a.47.47 0 0 1 .032.375.47.47 0 0 1-.254.285.46.46 0 0 1-.38.011l-3.269-1.09-3.449 1.153a.5.5 0 0 1-.152.023M25.07 15.195h-6.144a.47.47 0 0 1-.34-.144.46.46 0 0 1-.14-.34q0-.2.14-.34a.46.46 0 0 1 .34-.14h6.144a.47.47 0 0 1 .34.14q.14.14.14.34a.46.46 0 0 1-.14.34.47.47 0 0 1-.34.144m0 0"/><path fill="#fff" d="M25.488 12.96a1.75 1.75 0 0 1-1.25-.515 1.751 1.751 0 0 1-.516-1.25q0-.352.133-.675.137-.329.383-.575c.168-.168.36-.293.575-.383a1.74 1.74 0 0 1 1.352 0q.328.133.573.383.25.246.383.575a1.74 1.74 0 0 1 0 1.351q-.136.322-.383.574a1.7 1.7 0 0 1-.574.383q-.323.134-.676.133m0-2.57a.79.79 0 0 0-.57.235.78.78 0 0 0-.234.57c0 .223.078.41.234.57q.239.235.57.235a.78.78 0 0 0 .57-.234.79.79 0 0 0 .235-.57.78.78 0 0 0-.234-.571.78.78 0 0 0-.57-.234m0 0"/><g clip-path="url(#a)"><path fill="#fff" d="M26.348 16.645q-.353.001-.676-.133a1.762 1.762 0 0 1-.957-.957 1.74 1.74 0 0 1 0-1.352q.133-.328.383-.574.246-.25.574-.383a1.74 1.74 0 0 1 1.351 0 1.762 1.762 0 0 1 .57 2.879 1.72 1.72 0 0 1-1.245.52m0-2.57a.78.78 0 0 0-.57.234.78.78 0 0 0-.239.57c0 .223.082.41.238.57a.78.78 0 0 0 .57.235.77.77 0 0 0 .567-.235.77.77 0 0 0 .238-.57.77.77 0 0 0-.238-.57.77.77 0 0 0-.566-.235m0 0"/></g><path fill="#fff" d="M25.277 20.328a1.8 1.8 0 0 1-.68-.133 1.77 1.77 0 0 1-.952-.957 1.74 1.74 0 0 1 0-1.352c.09-.218.214-.41.382-.573a1.775 1.775 0 0 1 1.25-.52c.235 0 .457.047.676.137q.323.133.57.383.252.246.387.574.134.323.133.675-.001.35-.137.676-.133.324-.383.57a1.65 1.65 0 0 1-.57.383c-.219.09-.441.137-.676.137m0-2.574a.78.78 0 0 0-.57.238.78.78 0 0 0-.238.57c0 .223.082.41.238.567q.235.239.57.238.333.001.567-.238a.76.76 0 0 0 .238-.567.77.77 0 0 0-.238-.57.8.8 0 0 0-.567-.238m0 0"/><g clip-path="url(#b)"><path fill="#fff" d="M21.582 29.02H3.872a.46.46 0 0 1-.34-.141.46.46 0 0 1-.141-.34V.887q0-.2.14-.34a.46.46 0 0 1 .34-.14h17.711q.2 0 .34.14t.14.34v27.652a.46.46 0 0 1-.14.34.46.46 0 0 1-.34.14m-17.23-.961h16.75V1.367H4.352Zm0 0"/></g><g clip-path="url(#c)"><path fill="#fff" d="M21.582 5.14H3.872a.46.46 0 0 1-.34-.14.46.46 0 0 1-.141-.34q0-.2.14-.34a.46.46 0 0 1 .34-.14h17.711q.2 0 .34.14t.14.34a.46.46 0 0 1-.14.34.46.46 0 0 1-.34.14m0 0"/></g><g clip-path="url(#d)"><path fill="#fff" d="M3.871 25.246a.46.46 0 0 1-.34-.14.47.47 0 0 1-.144-.34.47.47 0 0 1 .14-.34.46.46 0 0 1 .34-.14c.043 0 4.434-.048 8.79-.071a668 668 0 0 1 6.081-.008c2.98.016 3 .04 3.18.215a.47.47 0 0 1 .145.344.46.46 0 0 1-.141.34.46.46 0 0 1-.34.14.4.4 0 0 1-.156-.027c-.93-.102-10.946-.04-17.551.027Zm17.23-.48"/></g><path fill="#fff" d="M13.45 3.242H9.378a.46.46 0 0 1-.34-.14.46.46 0 0 1-.14-.34q0-.2.14-.34a.46.46 0 0 1 .34-.14h4.066q.2 0 .34.14t.14.34a.46.46 0 0 1-.14.34.46.46 0 0 1-.34.14ZM16.07 3.242h-1.082a.46.46 0 0 1-.34-.14.46.46 0 0 1-.14-.34q0-.2.14-.34a.46.46 0 0 1 .34-.14h1.082q.2 0 .34.14t.14.34a.46.46 0 0 1-.14.34.46.46 0 0 1-.34.14M14.758 27.113H10.69a.46.46 0 0 1-.34-.14.46.46 0 0 1-.14-.34q0-.201.14-.344a.46.46 0 0 1 .34-.14h4.067q.2 0 .34.14.14.143.14.344a.46.46 0 0 1-.14.34.46.46 0 0 1-.34.14m0 0"/></svg>