<svg xmlns="http://www.w3.org/2000/svg" width="40" height="40" version="1.0" viewBox="0 0 30 30"><defs><clipPath id="a"><path d="M.629 1.922h28.305v25.406H.629Zm0 0"/></clipPath></defs><g clip-path="url(#a)"><path fill="#fff" fill-rule="evenodd" d="m15.008 2.05.722 1.9a.15.15 0 0 0 .133.097l2.032.098c.136.007.195.183.085.27l-1.585 1.273a.15.15 0 0 0-.051.156l.535 1.96c.035.133-.113.243-.227.165L14.95 6.855a.16.16 0 0 0-.164 0l-1.7 1.114c-.116.078-.26-.032-.226-.164l.532-1.961a.14.14 0 0 0-.051-.157l-1.582-1.273c-.11-.086-.051-.262.086-.27l2.031-.097a.15.15 0 0 0 .133-.098l.719-1.898c.05-.13.234-.13.28 0m9.422 15.634a4.82 4.82 0 1 1 0 9.64 4.82 4.82 0 0 1 0-9.64m-.633 5.246-1.078-1.078a.72.72 0 0 0-1.012 0 .72.72 0 0 0 0 1.011l1.586 1.586a.714.714 0 0 0 1.008 0c.957-.957 1.902-1.922 2.851-2.879a.716.716 0 0 0-.004-1.011.71.71 0 0 0-1.007.003Zm-8.93-13.227a3.58 3.58 0 0 1 3.582 3.582 3.58 3.58 0 0 1-3.582 3.578 3.58 3.58 0 0 1 0-7.16m-6.34 14.074h10.27c-.09-.41-.14-.836-.14-1.273 0-1.184.359-2.29.972-3.207a7.06 7.06 0 0 0-4.762-1.836 7.08 7.08 0 0 0-6.922 5.598.59.59 0 0 0 .582.718m20.489-13.476-1.282 1.574a.15.15 0 0 0-.02.164l.93 1.809a.15.15 0 0 1-.187.207l-1.895-.735a.14.14 0 0 0-.16.035l-1.433 1.442c-.098.098-.266.023-.258-.113l.113-2.032a.15.15 0 0 0-.082-.14l-1.812-.918a.148.148 0 0 1 .03-.278l1.966-.52a.15.15 0 0 0 .11-.124l.308-2.008c.023-.137.199-.172.277-.059l1.098 1.711c.035.051.09.075.152.067l2.004-.324c.137-.024.23.136.14.242m-5.899-6.004c.024-.133-.137-.227-.242-.137l-1.574 1.281a.15.15 0 0 1-.164.02l-1.809-.93a.15.15 0 0 0-.207.188l.734 1.894a.14.14 0 0 1-.035.16L18.38 8.207c-.098.098-.024.266.113.258l2.031-.117c.059 0 .114.03.141.086l.918 1.812a.148.148 0 0 0 .277-.031l.52-1.965a.15.15 0 0 1 .121-.11l2.012-.308a.153.153 0 0 0 .058-.277l-1.71-1.098a.16.16 0 0 1-.067-.152ZM.86 10.059l2.008.324a.15.15 0 0 0 .149-.067l1.101-1.71a.153.153 0 0 1 .278.058l.308 2.008c.008.062.05.11.11.125l1.964.52a.15.15 0 0 1 .032.277l-1.817.918a.15.15 0 0 0-.082.14l.113 2.032a.148.148 0 0 1-.253.113l-1.434-1.442a.14.14 0 0 0-.16-.035l-1.895.735a.15.15 0 0 1-.187-.207l.93-1.809a.15.15 0 0 0-.02-.164L.719 10.301c-.086-.106.008-.266.14-.242M6.863 4.16c-.105-.09-.265.004-.246.137l.328 2.008a.16.16 0 0 1-.066.152L5.168 7.555c-.117.074-.078.254.059.277l2.007.309c.063.011.11.05.125.109l.516 1.965c.04.137.219.152.281.031l.918-1.816a.16.16 0 0 1 .14-.082l2.028.117c.14.008.215-.16.117-.258L9.914 6.773a.14.14 0 0 1-.031-.16l.734-1.894c.051-.13-.086-.25-.21-.188l-1.805.93a.15.15 0 0 1-.165-.02Zm0 0"/></g></svg>