<svg xmlns="http://www.w3.org/2000/svg" width="40" height="40" version="1.0" viewBox="0 0 30 30"><defs><clipPath id="a"><path d="M.484 4H26v23.816H.484Zm0 0"/></clipPath><clipPath id="b"><path d="M19 .96h10.516V17H19Zm0 0"/></clipPath></defs><g clip-path="url(#a)"><path fill="#061c3d" d="M25.16 17.418a.487.487 0 0 0-.484.484v1.45H1.453V6.773c0-.535.434-.968.965-.968h15.969a.487.487 0 0 0 .484-.485.487.487 0 0 0-.484-.484H2.418A1.936 1.936 0 0 0 .484 6.773V21.29c0 1.066.868 1.934 1.934 1.934h8.039l-.645 1.937h-.136c-1.602 0-2.903 1.082-2.903 2.418 0 .266.22.485.485.485H18.87a.487.487 0 0 0 .484-.485c0-1.336-1.3-2.418-2.902-2.418h-.137l-.644-1.937h8.039a1.936 1.936 0 0 0 1.934-1.934v-3.387a.487.487 0 0 0-.485-.484m-6.883 9.676H7.852c.27-.559.984-.969 1.824-.969h6.777c.84 0 1.555.41 1.824.969m-2.98-1.934h-4.465l.645-1.937h3.175Zm9.379-3.87a.967.967 0 0 1-.965.964H2.418a.967.967 0 0 1-.965-.965v-.969h23.223Zm0 0"/></g><g clip-path="url(#b)"><path fill="#061c3d" d="M28.066.965H21.29c-.797 0-1.45.652-1.45 1.453v12.578c0 .8.653 1.453 1.45 1.453h6.777c.797 0 1.45-.652 1.45-1.453V2.418c0-.8-.653-1.453-1.45-1.453m.48 14.031c0 .27-.214.484-.48.484H21.29a.484.484 0 0 1-.484-.484V2.418c0-.266.218-.484.484-.484h6.777c.266 0 .48.218.48.484Zm0 0"/></g><path fill="#061c3d" d="M25.16 14.031h-.965a.482.482 0 1 0 0 .965h.965a.483.483 0 1 0 0-.965M7.742 12.578a5.33 5.33 0 0 0 5.324 5.324 5.327 5.327 0 0 0 5.32-5.324 5.327 5.327 0 0 0-5.32-5.324 5.33 5.33 0 0 0-5.324 5.324m6.766-.484H11.62c.098-2.38.887-3.871 1.445-3.871.555 0 1.344 1.492 1.442 3.87m-1.442 4.84c-.558 0-1.347-1.493-1.445-3.872h2.887c-.098 2.38-.887 3.872-1.442 3.872m-1.609-8.399c-.473.922-.75 2.238-.8 3.559H8.737a4.36 4.36 0 0 1 2.719-3.559m-2.719 4.528h1.918c.051 1.32.328 2.632.801 3.562a4.37 4.37 0 0 1-2.719-3.562m5.934 3.562c.473-.926.75-2.242.8-3.562h1.919a4.37 4.37 0 0 1-2.72 3.562m2.719-4.531h-1.918c-.051-1.32-.328-2.633-.801-3.559a4.36 4.36 0 0 1 2.719 3.559m0 0"/></svg>