<svg xmlns="http://www.w3.org/2000/svg" width="40" height="40" version="1.0" viewBox="0 0 30 30"><defs><clipPath id="a"><path d="M.484 3H9v13H.484Zm0 0"/></clipPath><clipPath id="b"><path d="M21 3h8.516v13H21Zm0 0"/></clipPath><clipPath id="c"><path d="M8 1.215h14V17H8Zm0 0"/></clipPath></defs><path fill="#fff" d="M20.121 27.016v-.125c0-.723-.14-1.422-.418-2.082a5.35 5.35 0 0 0-2.851-2.848 4 4 0 0 0-.372-.145 3.3 3.3 0 0 0 1.594-2.828c0-.445-.086-.879-.258-1.289a3.4 3.4 0 0 0-.707-1.05c-.304-.301-.66-.54-1.054-.708a3.29 3.29 0 0 0-2.575 0 3.4 3.4 0 0 0-1.05.707 3.32 3.32 0 0 0-.969 2.34 3.32 3.32 0 0 0 1.598 2.828q-.187.063-.375.145a5.35 5.35 0 0 0-3.27 4.93v.125c0 .437.36.793.793.793h9.125c.434 0 .79-.356.79-.793m-7.156-6.223a2.55 2.55 0 0 1-.746-1.805c0-.683.265-1.324.746-1.804a2.54 2.54 0 0 1 1.805-.747 2.55 2.55 0 0 1 2.55 2.551 2.55 2.55 0 0 1-2.55 2.551 2.54 2.54 0 0 1-1.805-.746m-2.793 6.223v-.125c0-.618.121-1.223.36-1.79a4.6 4.6 0 0 1 .988-1.46 4.6 4.6 0 0 1 1.46-.985 4.5 4.5 0 0 1 1.79-.363c.62 0 1.222.121 1.789.363a4.644 4.644 0 0 1 2.45 2.445c.237.567.358 1.172.358 1.79v.125c0 .023-.015.039-.039.039h-9.121c-.02 0-.035-.016-.035-.04m0 0"/><path fill="#fff" d="M9.234 27.434a.376.376 0 0 0-.375-.38H3.57c-.02 0-.035-.015-.035-.038v-.07c0-.555.106-1.09.32-1.594a4.11 4.11 0 0 1 3.778-2.508 4.05 4.05 0 0 1 2.293.703c.176.117.41.07.527-.102a.385.385 0 0 0-.101-.527 4.8 4.8 0 0 0-1.09-.547 3 3 0 0 0 .504-.41 2.98 2.98 0 0 0 .882-2.129c0-.805-.312-1.562-.882-2.133a3 3 0 0 0-2.133-.883c-.805 0-1.559.313-2.13.883a3 3 0 0 0-.882 2.133c0 .805.313 1.563.883 2.129.152.156.324.293.504.41a4.799 4.799 0 0 0-1.809 1.14 4.86 4.86 0 0 0-1.422 3.434v.07c0 .438.356.794.793.794h5.29a.375.375 0 0 0 .374-.375m-3.859-7.602c0-.605.234-1.172.664-1.598a2.246 2.246 0 0 1 3.191 0c.43.426.665.993.665 1.598 0 .602-.235 1.168-.665 1.598-.425.425-.992.66-1.597.66a2.24 2.24 0 0 1-1.594-.66 2.24 2.24 0 0 1-.664-1.598M25.3 23.512a4.86 4.86 0 0 0-1.808-1.14 3 3 0 0 0 .504-.411 2.98 2.98 0 0 0 .883-2.129c0-.805-.313-1.562-.883-2.133a3 3 0 0 0-2.133-.883c-.804 0-1.558.313-2.129.883a3 3 0 0 0-.882 2.133c0 .805.312 1.563.882 2.129q.235.234.504.41a4.8 4.8 0 0 0-1.058.527.375.375 0 0 0-.106.524.373.373 0 0 0 .524.105 4.095 4.095 0 0 1 5.168.52c.375.375.672.816.879 1.305.214.503.32 1.039.32 1.593v.07c0 .024-.016.04-.035.04h-5.22a.377.377 0 1 0 0 .754h5.22a.794.794 0 0 0 .793-.793v-.07a4.862 4.862 0 0 0-1.422-3.434m-3.437-1.422a2.24 2.24 0 0 1-1.593-.66 2.24 2.24 0 0 1-.665-1.598c0-.605.235-1.172.665-1.598a2.246 2.246 0 0 1 3.191 0c.43.426.664.993.664 1.598 0 .602-.234 1.168-.664 1.598-.426.425-.992.66-1.598.66M5.094 6.566l-.082.079-.078-.079a1.685 1.685 0 0 0-2.38 0 1.683 1.683 0 0 0 0 2.38l2.192 2.19c.07.071.164.11.266.11.101 0 .195-.039.265-.11l2.192-2.19a1.673 1.673 0 0 0 0-2.38 1.68 1.68 0 0 0-2.375 0M6.937 8.41l-1.925 1.926L3.086 8.41a.934.934 0 0 1 0-1.312.94.94 0 0 1 .656-.27c.246 0 .48.098.656.27l.348.347a.373.373 0 0 0 .531 0l.348-.347a.94.94 0 0 1 .656-.27.922.922 0 0 1 .926.926c0 .25-.094.48-.27.656m0 0"/><g clip-path="url(#a)"><path fill="#fff" d="M5.012 12.73q.435 0 .86-.082l1.702 2.965c.07.121.196.192.328.192q.061 0 .121-.024a.37.37 0 0 0 .254-.406l-.488-3.594c.313-.246.594-.527.832-.844a.38.38 0 0 0-.074-.53.375.375 0 0 0-.527.073c-.239.317-.528.59-.852.82a.37.37 0 0 0-.156.36l.258 1.906-.883-1.535a.376.376 0 0 0-.422-.176 4 4 0 0 1-.953.122 3.74 3.74 0 0 1-2.664-1.106 3.73 3.73 0 0 1-1.106-2.664c0-1.008.39-1.957 1.106-2.668a3.74 3.74 0 0 1 2.664-1.105 3.74 3.74 0 0 1 2.8 1.25c.141.152.38.168.536.027a.38.38 0 0 0 .027-.535 4.5 4.5 0 0 0-1.492-1.09 4.535 4.535 0 0 0-3.633-.05c-.54.23-1.023.554-1.437.968a4.6 4.6 0 0 0-.97 1.441 4.45 4.45 0 0 0-.355 1.762 4.53 4.53 0 0 0 4.523 4.523m0 0"/></g><path fill="#fff" d="M22.617 7.176h.172a.377.377 0 1 0 0-.754h-.172a.377.377 0 1 0 0 .754m0 0"/><g clip-path="url(#b)"><path fill="#fff" d="M29.156 6.445a4.6 4.6 0 0 0-.968-1.441 4.6 4.6 0 0 0-1.438-.969 4.535 4.535 0 0 0-5.203 1.23.374.374 0 0 0 .043.532.377.377 0 0 0 .531-.04 3.77 3.77 0 0 1 2.867-1.323c1.008 0 1.953.394 2.664 1.105a3.74 3.74 0 0 1 1.106 2.668c0 1.004-.39 1.953-1.106 2.664a3.74 3.74 0 0 1-3.18 1.07.37.37 0 0 0-.374.188l-.828 1.437.214-1.609a.37.37 0 0 0-.203-.387 3.9 3.9 0 0 1-1.289-1.074.378.378 0 0 0-.602.457c.36.465.81.863 1.313 1.16l-.441 3.262a.375.375 0 0 0 .25.406.4.4 0 0 0 .12.024c.134 0 .263-.07.329-.192l1.668-2.898q.176.017.36.015c.609 0 1.202-.12 1.761-.355a4.53 4.53 0 0 0 2.406-2.406 4.5 4.5 0 0 0 .356-1.762c0-.613-.117-1.207-.356-1.762m0 0"/></g><path fill="#fff" d="M27.395 7.176a.38.38 0 0 0 .378-.38.38.38 0 0 0-.378-.374H23.98a.375.375 0 0 0-.375.375c0 .21.168.379.375.379ZM22.617 8.582h4.778a.38.38 0 0 0 .378-.375.38.38 0 0 0-.378-.379h-4.778a.377.377 0 1 0 0 .754M27.395 9.234h-.125a.38.38 0 0 0-.38.38c0 .206.172.374.38.374h.125a.38.38 0 0 0 .378-.375.38.38 0 0 0-.378-.379M22.617 9.988h3.43a.377.377 0 1 0 0-.754h-3.43a.377.377 0 1 0 0 .754M13.738 11.004h4.633a.905.905 0 0 0 .8-1.32.9.9 0 0 0 .134-1.09.91.91 0 0 0 .133-.98.9.9 0 0 0-.613-1.562l-2.087-.001a8 8 0 0 0-.011-1.371 1.19 1.19 0 0 0-1.188-1.172.837.837 0 0 0-.836.836v.277c0 .363-.047.727-.133 1.078a.85.85 0 0 1-.832.649.376.376 0 0 0-.375.379v3.898c0 .21.168.379.375.379m.38-3.945A1.6 1.6 0 0 0 15.3 5.883a5 5 0 0 0 .156-1.262v-.277c0-.043.035-.082.082-.082.238 0 .434.195.434.437q-.001.013.004.031a8 8 0 0 1-.016 1.56l-.012.097a.378.378 0 0 0 .375.418h2.5c.082 0 .149.066.149.148a.15.15 0 0 1-.149.145h-.203a.378.378 0 0 0 0 .757c.082 0 .149.067.149.145a.15.15 0 0 1-.149.148h-.094a.38.38 0 0 0-.379.38c0 .206.172.374.38.374a.148.148 0 1 1 0 .297h-.157a.38.38 0 0 0-.379.38c0 .206.172.374.38.374a.148.148 0 1 1 0 .297h-4.255ZM11.09 11.004h1.46c.212 0 .38-.168.38-.379V6.797a.377.377 0 0 0-.38-.379h-1.46a.376.376 0 0 0-.375.379v3.828c0 .21.168.379.375.379m.379-3.832h.707v3.078h-.707Zm0 0"/><g clip-path="url(#c)"><path fill="#fff" d="M8.848 10.598a6.7 6.7 0 0 0 1.386 2.035l-.359 3.347a.38.38 0 0 0 .375.418.36.36 0 0 0 .223-.074l2.695-1.965c.59.164 1.2.25 1.816.25.907 0 1.782-.175 2.61-.527a6.7 6.7 0 0 0 2.125-1.434 6.7 6.7 0 0 0 1.437-2.128 6.7 6.7 0 0 0 .524-2.606c0-.906-.176-1.781-.524-2.61a6.7 6.7 0 0 0-1.437-2.128 6.7 6.7 0 0 0-2.125-1.434 6.7 6.7 0 0 0-5.215 0 6.708 6.708 0 0 0-3.562 3.562 6.6 6.6 0 0 0-.528 2.61c0 .93.188 1.836.559 2.684m.664-4.996a5.959 5.959 0 0 1 3.16-3.164 5.9 5.9 0 0 1 2.312-.465 5.9 5.9 0 0 1 4.204 1.738 5.907 5.907 0 0 1 1.738 4.203c0 .8-.156 1.578-.465 2.313a5.955 5.955 0 0 1-5.477 3.629 6 6 0 0 1-1.773-.27.37.37 0 0 0-.336.055l-2.156 1.574.285-2.684a.38.38 0 0 0-.113-.316 5.91 5.91 0 0 1-1.848-4.3c0-.806.156-1.583.469-2.313m0 0"/></g></svg>