<svg xmlns="http://www.w3.org/2000/svg" width="40" height="40" version="1.0" viewBox="0 0 30 30"><defs><clipPath id="a"><path d="M.484 0h29.032v29.031H.484Zm0 0"/></clipPath></defs><path fill="#061c3d" d="M19.348 16.18c-.328 0-.641.097-.907.28a1.592 1.592 0 0 0-2.094.156.356.356 0 0 0 0 .513c.141.14.372.14.512 0a.91.91 0 0 1 1.258 0 .884.884 0 0 1 0 1.258.363.363 0 0 0 .258.617c.09 0 .184-.035.254-.106.308-.304.476-.71.476-1.14 0-.262-.07-.508-.187-.735.34-.18.785-.132 1.059.145a.37.37 0 0 0 .515 0 .37.37 0 0 0 0-.516 1.6 1.6 0 0 0-1.144-.472m0 0"/><path fill="#061c3d" d="M22.25 15.133c-.09-.09-.187-.18-.29-.258.45-.32.743-.848.743-1.426a1.77 1.77 0 0 0-1.254-1.687 2.75 2.75 0 0 0-.09-1.774 2.57 2.57 0 0 0-1.527-1.48 2.76 2.76 0 0 0-1.68-.067 1.85 1.85 0 0 0-.136-.859 1.67 1.67 0 0 0-.985-.937 1.79 1.79 0 0 0-1.648.21c-.149.106-.274.23-.383.375a1.7 1.7 0 0 0-.383-.375 1.79 1.79 0 0 0-1.648-.21c-.446.156-.805.5-.985.937a1.85 1.85 0 0 0-.136.86 2.76 2.76 0 0 0-1.68.066 2.57 2.57 0 0 0-1.527 1.48 2.75 2.75 0 0 0-.09 1.774 1.77 1.77 0 0 0-1.254 1.687c0 .578.293 1.106.742 1.426-.101.078-.2.168-.289.258a2.67 2.67 0 0 0-.738 1.847c0 1.157.738 2.165 1.804 2.528-.101.441-.05.902.145 1.351.207.47.601.852 1.078 1.047.566.235 1.156.23 1.684-.004.406.391.93.598 1.48.598.277 0 .563-.055.844-.164a2 2 0 0 0 .953-.781c.23.351.559.629.953.78.281.11.567.165.844.165.55 0 1.074-.207 1.48-.598a2.1 2.1 0 0 0 1.684.004 2.03 2.03 0 0 0 1.078-1.047c.195-.449.246-.91.145-1.351a2.67 2.67 0 0 0 1.804-2.528c0-.69-.261-1.347-.738-1.847m-8.469 6.527a1.436 1.436 0 0 1-1.695-.433.357.357 0 0 0-.473-.082c-.277.171-.73.324-1.297.09a1.3 1.3 0 0 1-.691-.669 1.41 1.41 0 0 1-.012-1.168.365.365 0 0 0-.27-.504 1.944 1.944 0 0 1-1.609-1.914c0-.503.196-.98.543-1.343.196-.207.442-.371.707-.473a.36.36 0 0 0 .23-.379.37.37 0 0 0-.308-.32 1.02 1.02 0 0 1-.883-1.016c0-.57.461-1.035 1.032-1.039a.363.363 0 0 0 .324-.523c-.18-.356-.336-.93-.063-1.637a1.85 1.85 0 0 1 1.094-1.059c.676-.238 1.375-.129 1.91.297.149.117.36.102.489-.031a.36.36 0 0 0 .011-.488 1.04 1.04 0 0 1-.164-1.11.95.95 0 0 1 .559-.53c.344-.126.703-.079.984.116.274.196.438.512.438.848v9.797a1.85 1.85 0 0 0-1.157-.41 1.883 1.883 0 0 0-1.878 1.883.363.363 0 1 0 .726 0c0-.637.516-1.157 1.152-1.157.637 0 1.157.52 1.157 1.157v.777c0 .59-.344 1.12-.856 1.32m6.875-2.765a.365.365 0 0 0-.27.503c.114.258.208.672-.011 1.168a1.32 1.32 0 0 1-.691.672c-.567.23-1.02.078-1.297-.093a.36.36 0 0 0-.473.082c-.324.402-.934.73-1.695.433-.512-.2-.856-.73-.856-1.32v-7.254c.32.254.719.41 1.157.41a1.883 1.883 0 0 0 1.878-1.883.363.363 0 1 0-.726 0c0 .637-.516 1.157-1.152 1.157-.637 0-1.157-.52-1.157-1.157v-3.32c0-.336.164-.652.438-.848a1.05 1.05 0 0 1 .984-.117c.25.086.457.285.559.531.164.395.101.797-.164 1.11a.36.36 0 0 0 .011.488c.13.133.34.148.489.031.535-.425 1.234-.535 1.91-.297.496.176.902.57 1.094 1.059.273.707.117 1.281-.063 1.637a.363.363 0 0 0 .324.523 1.04 1.04 0 0 1 1.032 1.04c0 .51-.372.94-.883 1.015a.37.37 0 0 0-.309.32c-.02.164.074.32.23.38.266.1.512.265.708.472.347.363.543.84.543 1.343 0 .946-.68 1.75-1.61 1.915m0 0"/><path fill="#061c3d" d="M12.297 14.535a.363.363 0 1 0 .727 0c0-.57-.297-1.066-.743-1.355q.004-.005.008-.004a1.62 1.62 0 0 0 0-2.285.363.363 0 1 0-.516.512.889.889 0 1 1-1.257 1.257.363.363 0 1 0-.512.516c.316.312.73.472 1.14.472.063 0 .126-.011.188-.02.027.005.05.017.078.017a.89.89 0 0 1 .887.89m0 0"/><g clip-path="url(#a)"><path fill="#061c3d" d="M29.152 14.879a.363.363 0 1 0 0-.727h-3.265V9.074h1.89a.908.908 0 1 0 .832-1.273.91.91 0 0 0-.832.547h-1.89V5.445a1.815 1.815 0 0 0-1.813-1.816h-2.902V.363c0-.199-.164-.363-.363-.363-.2 0-.364.164-.364.363V3.63h-5.082V.363a.362.362 0 1 0-.723 0V3.63H9.56v-1.89A.908.908 0 0 0 9.195 0a.907.907 0 0 0-.363 1.738v1.89H5.926c-1 0-1.813.813-1.813 1.817v2.903H.848a.36.36 0 0 0-.364.363c0 .2.16.363.364.363h3.265v5.078H.848a.363.363 0 1 0 0 .727h3.265v5.082h-1.89a.91.91 0 0 0-.832-.547.908.908 0 1 0 .832 1.27h1.89v2.906c0 1 .813 1.812 1.813 1.812h2.906v1.895a.908.908 0 0 0 .363 1.738.907.907 0 0 0 .36-1.738v-1.895h5.082v3.266a.363.363 0 1 0 .726 0v-3.266h5.082v3.266c0 .203.16.363.36.363a.36.36 0 0 0 .363-.363v-3.266h2.906c1 0 1.813-.812 1.813-1.812v-2.906h3.265a.36.36 0 0 0 .364-.36.36.36 0 0 0-.364-.363h-3.265v-5.082Zm-3.992 8.71c0 .599-.488 1.087-1.086 1.087H5.926A1.09 1.09 0 0 1 4.84 23.59V5.445c0-.601.488-1.09 1.086-1.09h18.148a1.09 1.09 0 0 1 1.086 1.09Zm0 0"/></g></svg>