<svg xmlns="http://www.w3.org/2000/svg" width="40" height="40" version="1.0" viewBox="0 0 30 30"><defs><clipPath id="a"><path d="M.484 0h29.032v29H.484Zm0 0"/></clipPath></defs><g clip-path="url(#a)"><path fill="#fff" d="M28.02 13.3c-.696 0-1.286.481-1.446 1.13h-4.472v-3.032h5.68c.198 0 .359-.164.359-.363v-3.5a1.495 1.495 0 0 0 1.132-1.445 1.492 1.492 0 1 0-1.855 1.445v3.14h-5.316v-.613a2.07 2.07 0 0 0-1.82-2.05V5.273h1.726a1.492 1.492 0 1 0 1.445-1.851c-.7 0-1.285.48-1.445 1.129h-2.086c-.2 0-.363.164-.363.363v3.082H15.89V2.938a1.495 1.495 0 0 0-.363-2.941c-.821 0-1.493.671-1.493 1.491a1.5 1.5 0 0 0 1.133 1.45v5.058h-2.996V1.625c0-.2-.16-.363-.36-.363H8.142a1.492 1.492 0 0 0-2.937.363 1.491 1.491 0 0 0 2.937.36h3.308v6.011H10.41c-.828 0-1.547.492-1.875 1.203H5.598V7.387a1.491 1.491 0 1 0-.723 0v2.172c0 .199.16.363.36.363h3.117q-.007.07-.008.14v3.649H3.426a1.495 1.495 0 0 0-1.446-1.133 1.492 1.492 0 1 0 1.445 1.855h4.919v2.946h-6.32c-.2 0-.36.164-.36.363v3.5a1.5 1.5 0 0 0-1.133 1.45 1.491 1.491 0 1 0 1.855-1.45v-3.14h5.958v1.585c0 .973.68 1.793 1.594 2.008v1.938H8.21a1.492 1.492 0 1 0-1.445 1.855c.699 0 1.285-.484 1.445-1.133h2.086c.2 0 .363-.16.363-.359v-2.242h3.758v4.11a1.491 1.491 0 1 0 .723 0v-4.11h2.914v5.601c0 .2.164.364.363.364h3.672a1.491 1.491 0 1 0 0-.723h-3.313v-5.242h1.258a2.07 2.07 0 0 0 2.067-2.067v-.117h2.132v1.813a1.491 1.491 0 1 0 .723 0v-2.176c0-.2-.164-.36-.363-.36h-2.492v-3.695h4.472a1.494 1.494 0 0 0 2.941-.36c0-.823-.671-1.491-1.495-1.491m-1.008-7.21a.769.769 0 1 1 1.537-.002.769.769 0 0 1-1.537.002m-3.559-1.945a.769.769 0 1 1 .002 1.537.769.769 0 0 1-.002-1.537m-8.691-2.657c0-.422.343-.77.77-.77a.77.77 0 0 1 0 1.54.77.77 0 0 1-.77-.77m-8.067.903A.769.769 0 1 1 6.693.854a.769.769 0 0 1 .002 1.537m-2.23 3.547a.77.77 0 0 1 1.539 0 .769.769 0 1 1-1.54 0M1.98 14.84a.769.769 0 1 1-.002-1.537.769.769 0 0 1 .002 1.537m.813 7.851a.77.77 0 0 1-1.54 0 .769.769 0 1 1 1.54 0m3.973 2.075a.769.769 0 1 1-.002-1.541.769.769 0 0 1 .002 1.54m8.78 2.543a.768.768 0 1 1-1.535.003.768.768 0 0 1 1.536-.003m7.99-.723a.769.769 0 1 1 .002 1.541.769.769 0 0 1-.003-1.541m-2.157-6.898c0 .738-.602 1.343-1.344 1.343H10.41a1.35 1.35 0 0 1-1.344-1.343v-9.625c0-.743.606-1.344 1.344-1.344h9.625c.742 0 1.344.601 1.344 1.344Zm3.984 3.14a.769.769 0 1 1-1.537.002.769.769 0 0 1 1.537-.002m2.657-7.27a.767.767 0 1 1 .002-1.533.767.767 0 0 1-.002 1.534M11.059 12.2v5.352a.362.362 0 0 1-.723 0v-5.352c0-.199.164-.363.363-.363.2 0 .36.164.36.363m3.296 1.754a1.98 1.98 0 1 0 1.977 1.98 1.98 1.98 0 0 0-1.977-1.98m0 3.235a1.256 1.256 0 1 1-.003-2.513 1.256 1.256 0 0 1 .003 2.512m5.754-4.989c0 .2-.164.36-.363.36h-1.375v4.992a.362.362 0 0 1-.723 0v-4.992h-1.375c-.199 0-.363-.16-.363-.36s.164-.363.363-.363h3.477c.2 0 .36.164.36.363m0 0"/></g></svg>