<svg xmlns="http://www.w3.org/2000/svg" width="40" height="40" version="1.0" viewBox="0 0 30 30"><defs><clipPath id="a"><path d="M.484 0H26v29.031H.484Zm0 0"/></clipPath><clipPath id="b"><path d="M24 26h4v3.031h-4Zm0 0"/></clipPath><clipPath id="c"><path d="M22 22h7.516v3H22Zm0 0"/></clipPath><clipPath id="d"><path d="M22 1h7.516v4H22Zm0 0"/></clipPath><clipPath id="e"><path d="M22 5h7.516v4H22Zm0 0"/></clipPath><clipPath id="f"><path d="M22 9h7.516v4H22Zm0 0"/></clipPath><clipPath id="g"><path d="M.484 2H8v9H.484Zm0 0"/></clipPath></defs><path fill="#061c3d" d="M15.469 2.34a.46.46 0 0 1-.137.332.45.45 0 0 1-.332.137.45.45 0 0 1-.332-.137.46.46 0 0 1-.137-.332q.001-.194.137-.328A.45.45 0 0 1 15 1.875c.129 0 .238.043.332.137q.136.135.137.328M12.191 12.176h5.618V10.3h2.066L15 5.426 10.125 10.3h2.066ZM15 6.75l2.617 2.617h-.742v1.871h-3.75v-1.87h-.742Zm0 0"/><g clip-path="url(#a)"><path fill="#061c3d" d="M22.492 21.54c.774 0 1.406-.63 1.406-1.403 0-.364-.14-.688-.367-.938.227-.25.367-.574.367-.937 0-.36-.14-.688-.367-.938.227-.246.367-.574.367-.933 0-.168-.035-.325-.085-.47h.554a1.404 1.404 0 0 0 0-2.809l-2.344.001V2.34c0-1.29-1.05-2.34-2.34-2.34h-9.367c-1.289 0-2.34 1.05-2.34 2.34v10.34c-.18.035-.355.101-.515.199l-.715.45a6.32 6.32 0 0 0-2.984 5.382c0 .684.11 1.36.324 2.008l1.023 3.07-4.195 5.242h12.14L13.563 26l3.016-2.586h3.106a2.35 2.35 0 0 0 2.293-1.875Zm0-.935h-2.808a.47.47 0 0 1-.47-.468.47.47 0 0 1 .47-.469h2.808a.47.47 0 0 1 .469.469.47.47 0 0 1-.469.468M7.81 17.312l.89-.714a3.05 3.05 0 0 0 1.149-2.395c0-.637-.387-1.187-.934-1.43v-8.09h12.172v10.301h-1.402c-.164 0-.32.036-.47.086v-1.023H15.47v3.746h2.894c-.05.148-.086.305-.086.469s.035.32.086.468H8.746a3.3 3.3 0 0 0-.937-1.418M13.594 2.34V.938h2.812V2.34c0 .777-.633 1.406-1.406 1.406a1.41 1.41 0 0 1-1.406-1.406m9.367 15.922a.47.47 0 0 1-.469.468h-2.808a.47.47 0 0 1-.47-.468.47.47 0 0 1 .47-.469h2.808a.47.47 0 0 1 .469.469m-4.684-1.403h-1.87v-1.875h1.87Zm4.684-.468a.47.47 0 0 1-.469.468h-2.808a.47.47 0 0 1-.47-.468.47.47 0 0 1 .47-.47h2.808a.47.47 0 0 1 .469.47m1.406-2.344c.258 0 .465.21.465.469a.467.467 0 0 1-.465.468h-2.344v-.937ZM21.086 2.34v1.406h-4.227c.301-.39.48-.875.48-1.406V.938h2.345c.773 0 1.402.628 1.402 1.402M10.316.938h2.344V2.34c0 .531.18 1.015.48 1.406H8.915V2.34c0-.774.629-1.402 1.402-1.402m1.946 27.16H2.863l2.95-3.688 6.78 1.695Zm.742-2.856-7.008-1.754-1.02-3.062A5.4 5.4 0 0 1 4.7 18.71c0-1.879.95-3.594 2.543-4.59l.715-.445a.63.63 0 0 1 .332-.098c.344 0 .625.281.625.625a2.12 2.12 0 0 1-.8 1.664L6.245 17.36l.688.457a2.34 2.34 0 0 1 1.043 1.95v1.304a2.345 2.345 0 0 0 2.34 2.344h4.824Zm6.68-2.765h-9.368a1.405 1.405 0 0 1-1.402-1.407v-1.304a1 1 0 0 0-.008-.098h9.457c-.05.145-.086.3-.086.469 0 .773.63 1.402 1.407 1.402H21a1.4 1.4 0 0 1-1.316.938m0 0"/></g><path fill="#061c3d" d="M13.125 20.605h3.75v.934h-3.75ZM10.785 17.793h3.746v-3.746h-3.746Zm.938-2.809h1.87v1.875h-1.87Zm0 0"/><g clip-path="url(#b)"><path fill="#061c3d" d="M25.77 26.223a1.405 1.405 0 1 0 .004 2.809 1.405 1.405 0 0 0-.004-2.81m0 1.875a.47.47 0 0 1-.47-.47.47.47 0 0 1 .47-.468.47.47 0 0 1 .468.469.47.47 0 0 1-.468.469m0 0"/></g><path fill="#061c3d" d="m23.453 25.309.66.664a2.343 2.343 0 0 1 3.313 0l.66-.664a3.28 3.28 0 0 0-4.633 0m0 0"/><g clip-path="url(#c)"><path fill="#061c3d" d="m22.129 23.984.66.664a4.22 4.22 0 0 1 5.961 0l.664-.664a5.16 5.16 0 0 0-7.285 0m0 0"/></g><g clip-path="url(#d)"><path fill="#061c3d" d="M22.96 1.875v2.809h6.556V1.875Zm5.618 1.871h-4.68V2.81h4.68Zm0 0"/></g><g clip-path="url(#e)"><path fill="#061c3d" d="M22.96 8.43h6.556V5.62H22.96Zm.938-1.875h4.68v.937h-4.68Zm0 0"/></g><g clip-path="url(#f)"><path fill="#061c3d" d="M22.96 12.176h6.556V9.367H22.96Zm.938-1.875h4.68v.937h-4.68Zm0 0"/></g><g clip-path="url(#g)"><path fill="#061c3d" d="M3.762 10.3c1.031 0 1.87-.84 1.87-1.87H7.04v-.938a.94.94 0 0 1-.937-.937V5.152a2.345 2.345 0 0 0-2.34-2.343c-1.29 0-2.34 1.05-2.34 2.343v1.403a.94.94 0 0 1-.938.937v.938h1.403c0 1.03.843 1.87 1.875 1.87m0-.933a.94.94 0 0 1-.938-.937H4.7a.94.94 0 0 1-.937.937M2.355 6.555V5.152a1.408 1.408 0 0 1 2.813 0v1.403c0 .343.09.66.25.937H2.105c.16-.277.25-.594.25-.937m0 0"/></g></svg>