<svg xmlns="http://www.w3.org/2000/svg" width="40" height="40" version="1.0" viewBox="0 0 30 30"><defs><clipPath id="a"><path d="M1.102 6h28.304v23.031H1.102Zm0 0"/></clipPath></defs><g clip-path="url(#a)"><path fill="#061c3d" d="M28.035 6.57h-3.242c.152.63.246 1.278.27 1.946h2.226a.27.27 0 0 1 .273.27v14.112a.27.27 0 0 1-.273.27H3.316a.273.273 0 0 1-.273-.27V8.785c0-.148.125-.27.273-.27h2.227c.023-.66.113-1.312.266-1.945H2.57c-.808 0-1.472.625-1.472 1.39v15.763c0 .77.664 1.39 1.472 1.39h10.852l-.871 3.004H10.59a.453.453 0 0 0 0 .906h9.43a.45.45 0 0 0 .449-.453.45.45 0 0 0-.45-.453h-1.96l-.875-3.004h10.851c.813 0 1.473-.62 1.473-1.39V7.96c0-.766-.66-1.39-1.473-1.39m0 0"/></g><path fill="#061c3d" d="M6.871 5.473a.6.6 0 0 0 .254-.063l.027-.015a8.8 8.8 0 0 0-.71 3.484c0 4.887 3.976 8.863 8.863 8.863 1.86 0 3.64-.57 5.148-1.652a.552.552 0 1 0-.644-.899 7.7 7.7 0 0 1-4.504 1.442c-4.278 0-7.754-3.477-7.754-7.754a7.7 7.7 0 0 1 .57-2.926v.04a.56.56 0 0 0 .594.515.555.555 0 0 0 .512-.594l-.13-1.906a.557.557 0 0 0-.808-.453l-1.676.87a.554.554 0 0 0-.234.747c.098.191.289.3.492.3M10.797 2.566a7.7 7.7 0 0 1 4.508-1.445c4.273 0 7.75 3.48 7.75 7.758a7.7 7.7 0 0 1-.567 2.922l-.004-.035a.55.55 0 0 0-.59-.516.55.55 0 0 0-.515.59l.133 1.906a.554.554 0 0 0 .808.453l1.672-.867a.556.556 0 0 0 .238-.75.56.56 0 0 0-.75-.234l-.027.011a8.8 8.8 0 0 0 .711-3.48c0-4.89-3.977-8.867-8.86-8.867-1.863 0-3.644.57-5.152 1.652a.556.556 0 0 0-.129.774c.18.25.528.304.774.128m0 0"/><path fill="#061c3d" d="M10.156 9.96a.35.35 0 0 0-.23.161.34.34 0 0 0-.04.281c.118.426.29.836.505 1.22a.37.37 0 0 0 .226.171c.098.023.2.004.281-.05a1.106 1.106 0 0 1 1.535 1.531.35.35 0 0 0-.05.277c.02.097.082.18.168.226q.58.328 1.226.508a.4.4 0 0 0 .094.012c.066 0 .129-.02.188-.05a.37.37 0 0 0 .16-.235 1.104 1.104 0 0 1 2.168 0 .36.36 0 0 0 .164.234c.082.05.183.066.281.04q.64-.182 1.223-.509a.35.35 0 0 0 .12-.504 1.1 1.1 0 0 1 .137-1.394c.372-.371.961-.43 1.395-.137a.36.36 0 0 0 .281.051.35.35 0 0 0 .227-.172c.215-.383.387-.793.508-1.219a.37.37 0 0 0-.04-.28.36.36 0 0 0-.234-.161 1.11 1.11 0 0 1-.89-1.082c0-.527.375-.98.89-1.082a.36.36 0 0 0 .235-.164.37.37 0 0 0 .039-.281 5.6 5.6 0 0 0-.508-1.22.37.37 0 0 0-.227-.171.36.36 0 0 0-.281.05 1.1 1.1 0 0 1-1.395-.136 1.096 1.096 0 0 1-.136-1.39.37.37 0 0 0 .05-.282.37.37 0 0 0-.171-.226 5.6 5.6 0 0 0-1.223-.504.35.35 0 0 0-.281.039.35.35 0 0 0-.164.23 1.104 1.104 0 0 1-2.168 0 .36.36 0 0 0-.16-.23.36.36 0 0 0-.282-.04c-.425.118-.84.29-1.226.505a.357.357 0 0 0-.117.508 1.1 1.1 0 0 1-.137 1.39c-.375.375-.961.43-1.399.137a.36.36 0 0 0-.28-.051.37.37 0 0 0-.227.172 5.5 5.5 0 0 0-.504 1.222.35.35 0 0 0 .039.278c.05.086.136.144.23.164.52.101.895.555.895 1.082 0 .523-.375.98-.895 1.082m5.149-3.331a2.254 2.254 0 0 1 2.254 2.25 2.256 2.256 0 0 1-4.512 0 2.255 2.255 0 0 1 2.258-2.25m0 0"/><path fill="#061c3d" d="M16.656 8.879a1.35 1.35 0 0 1-1.351 1.344 1.35 1.35 0 0 1-1.352-1.344 1.351 1.351 0 0 1 2.703 0m0 0"/></svg>