<svg xmlns="http://www.w3.org/2000/svg" width="40" height="40" version="1.0" viewBox="0 0 30 30"><defs><clipPath id="a"><path d="M.484 3.047h29.032V26H.484Zm0 0"/></clipPath></defs><g clip-path="url(#a)"><path fill="#061c3d" d="M13.29 3.227c-3.013 0-5.454 2.007-5.454 4.484 0 .894.328 1.766.934 2.504a.86.86 0 0 1 .19.543c0 .094-.019.191-.05.281a6.5 6.5 0 0 1-.832 1.473.368.368 0 0 0 .371.582 7.9 7.9 0 0 0 2.258-.84 1.67 1.67 0 0 1 1.223-.2c.445.094.902.141 1.36.141 3.01 0 5.448-2.008 5.448-4.484s-2.441-4.484-5.449-4.484m-.153 1.242h.152q.046.002.098.004.004-.001.008.004c.14 0 .265.085.32.21q.004.006.008.012v.004c.078.172.125.367.168.582.015.086.078.16.164.195l.027.012c.086.04.184.028.258-.023.183-.121.351-.227.527-.29q.007-.003.02-.007a.37.37 0 0 1 .375.074c0 .004.004.004.008.008l.074.07h.004l.047.047.05.055h.004c.024.023.04.047.067.074 0 .004.004.008.004.008a.36.36 0 0 1 .078.375c-.004.004-.004.012-.008.015v.004a3 3 0 0 1-.29.528.27.27 0 0 0-.023.254.266.266 0 0 0 .207.191c.215.043.407.09.579.168h.003q.007.005.008.004l.004.004h.004c.125.058.207.18.211.32q-.001.001.004.008.002.052.004.105v.141q-.002.053-.004.105-.002.001-.004.008a.36.36 0 0 1-.211.32h-.004l-.004.005q-.004 0-.008.003h-.003a2.7 2.7 0 0 1-.579.168.27.27 0 0 0-.199.164q-.004.014-.008.028a.27.27 0 0 0 .024.254 3 3 0 0 1 .289.527v.004c.004.004.004.012.008.016a.36.36 0 0 1-.078.375s-.004.003-.004.007c-.028.028-.047.051-.07.075l-.102.101-.074.074q-.004-.001-.008.004a.37.37 0 0 1-.375.075q-.013-.004-.02-.008a2.5 2.5 0 0 1-.527-.29.29.29 0 0 0-.258-.027l-.027.016a.27.27 0 0 0-.164.2c-.043.214-.09.41-.168.577v.004q-.004.006-.008.012a.36.36 0 0 1-.32.215h-.008q-.052.005-.098.004h-.152q-.051.001-.102-.004h-.008a.37.37 0 0 1-.32-.215v-.004h-.004c0-.004 0-.004-.004-.012v-.004a2.6 2.6 0 0 1-.168-.574.27.27 0 0 0-.164-.2q-.005 0-.027-.01a.28.28 0 0 0-.258.023c-.18.12-.352.226-.527.293l-.016.004a.36.36 0 0 1-.375-.075c-.004 0-.004-.004-.008-.004-.027-.027-.05-.046-.074-.07h-.004v-.004q-.023-.02-.047-.043v-.004h-.004s0-.004-.004-.004a.2.2 0 0 0-.043-.043v-.004h-.003c-.024-.027-.047-.05-.07-.078l-.005-.004a.35.35 0 0 1-.074-.375q.004-.01.008-.023c.062-.172.168-.34.289-.523a.28.28 0 0 0 .023-.258l-.011-.028a.27.27 0 0 0-.2-.164 2.6 2.6 0 0 1-.574-.168h-.004l-.007-.004-.012-.003a.36.36 0 0 1-.211-.32V7.73q-.005-.05-.004-.101V7.48q-.001-.047.004-.101V7.37a.36.36 0 0 1 .21-.32l.013-.004.007-.004h.004c.168-.078.36-.125.575-.168a.27.27 0 0 0 .199-.164l.011-.027a.27.27 0 0 0-.023-.258 2.6 2.6 0 0 1-.29-.524q-.003-.01-.007-.023a.36.36 0 0 1 .074-.375l.004-.004c.024-.027.047-.05.07-.078h.004v-.004c.016-.016.032-.027.047-.043v-.004h.004v-.004q.024-.02.047-.043V5.32h.004c.023-.023.047-.043.074-.07q.004-.002.008-.004a.36.36 0 0 1 .375-.074l.016.004c.175.066.347.172.527.293.078.05.172.058.258.023.015-.004.023-.012.027-.012a.27.27 0 0 0 .164-.199c.043-.21.09-.406.168-.574v-.004q.005-.007.004-.008l.004-.004v-.003a.37.37 0 0 1 .32-.215h.008q.051-.002.102-.004m.066 1.972a1.114 1.114 0 1 0 .008 0zm-10.457.707a1.03 1.03 0 0 0-.672.313c-.008.008-.011.012-.02.016q-.175.075-.316.203a1.43 1.43 0 0 0-.39.683 2.6 2.6 0 0 0-.063.793c.02.367.09.727.2 1.078v.004a802.151 802.151 0 0 0 .04.148h.002a2.21 2.21 0 0 0 1.797 1.524q.246.035.492.012h.004q.16-.007.325.004c.043.008.101.008.144.011a.67.67 0 0 0 .742-.496c.016-.062.035-.12.055-.183q.058-.18.105-.367c.008-.047.02-.09.028-.137.004-.031.027-.05.054-.05l.086-.013a.4.4 0 0 0 .118-.027.3.3 0 0 0 .093-.062.16.16 0 0 0 .043-.086c.004-.032-.004-.059-.011-.09a1.7 1.7 0 0 0-.153-.332 2 2 0 0 0-.105-.176.34.34 0 0 1-.04-.215v-.015q.065-.308.051-.626a2.6 2.6 0 0 0-.105-.605.4.4 0 0 1-.004-.152.5.5 0 0 1 .04-.13c.015-.019.023-.042.034-.062q.013-.015.02-.031a.2.2 0 0 0 .039-.094.22.22 0 0 0-.18-.242c-.02 0-.039-.004-.054 0h-.028c-.312-.016-.613-.105-.906-.215-.293-.113-.578-.25-.883-.328a2 2 0 0 0-.23-.047 1.5 1.5 0 0 0-.352-.008m24.442 0a1.5 1.5 0 0 0-.352.008 2 2 0 0 0-.23.047c-.305.078-.59.215-.883.328-.29.114-.594.2-.907.215h-.027a.1.1 0 0 0-.05.004.206.206 0 0 0-.18.238.2.2 0 0 0 .035.094c.008.012.011.02.02.031q.017.03.034.067.029.06.04.125a.4.4 0 0 1-.004.152 2.5 2.5 0 0 0-.055 1.234v.012a.34.34 0 0 1-.04.215q-.057.088-.105.176a1.7 1.7 0 0 0-.148.332.2.2 0 0 0-.016.09.15.15 0 0 0 .043.086q.042.042.094.062c.035.016.078.024.117.031q.04.004.086.008c.027 0 .05.024.055.05q.017.073.027.138.047.186.106.367l.058.183a.667.667 0 0 0 .739.496c.043 0 .101-.003.144-.007.11-.012.219-.008.324-.004h.004a2.216 2.216 0 0 0 2.293-1.54v.005c.008-.02.008-.036.016-.051a1 1 0 0 1 .027-.102v-.004c.106-.351.18-.71.2-1.078a2.6 2.6 0 0 0-.067-.793 1.4 1.4 0 0 0-.39-.683c-.09-.086-.2-.153-.313-.203q-.013-.006-.02-.012a1 1 0 0 0-.34-.235 1 1 0 0 0-.335-.082M2.448 12.242a1.3 1.3 0 0 0-1.37 1.23l-.263 4.743a1.3 1.3 0 0 0 1.23 1.37l1.99.11q.04-.002.073-.004v.012c1 .008 2 .05 3 .117.012.106.032.215.043.32.164 1.544.258 3.09.29 4.641-.005.043 0 .09 0 .133.038.61.566 1.07 1.175 1.031a1.1 1.1 0 0 0 1.028-1.172v-.035a56 56 0 0 0-.297-4.836 51 51 0 0 0-.16-1.324h-.012c-.09-.5-.516-.887-1.047-.906q-.016-.002-.031-.004c-.88-.07-1.758-.11-2.637-.14l.121-2.227c.43.254.867.5 1.316.722.047.028.094.047.145.07q.006.002.012.009c.043.011.082.023.125.03q.029.014.062.02.542.118 1.094.207c.781.118 1.57.18 2.36.2a.999.999 0 0 0 .223-1.984 1 1 0 0 0-.142-.012 17 17 0 0 1-2.144-.176c-.293-.043-.582-.106-.875-.164a17 17 0 0 1-1.817-1.04c-.261-.171-.515-.359-.77-.55q-.027-.023-.062-.047c-.023-.016-.046-.035-.07-.047-.016-.012-.031-.016-.05-.023a.8.8 0 0 0-.165-.075 1.3 1.3 0 0 0-.386-.09Zm25.035 0-1.988.11a1.4 1.4 0 0 0-.387.085q-.03.011-.066.028c-.035.012-.066.031-.098.047-.02.011-.035.015-.05.027-.028.012-.047.031-.07.047-.02.016-.044.027-.063.047-.254.187-.508.375-.77.55-.582.387-1.195.727-1.82 1.036q-.433.095-.871.168c-.707.105-1.43.16-2.145.175a1 1 0 0 0-.14.012.997.997 0 0 0 .222 1.985 19 19 0 0 0 2.36-.204c.367-.054.734-.125 1.093-.203.024-.004.043-.015.063-.02a.7.7 0 0 0 .125-.034q.006-.001.012-.008.074-.028.144-.067c.45-.222.887-.468 1.317-.722l.12 2.226a54 54 0 0 0-2.636.141q-.016.002-.031.004c-.532.02-.957.406-1.047.906h-.012q-.088.663-.16 1.324a56 56 0 0 0-.297 4.836v.035a1.104 1.104 0 0 0 2.203.141c0-.043.004-.09 0-.133q.044-2.325.29-4.64c.011-.106.03-.215.042-.325 1-.062 2-.105 3-.113v-.012q.035.002.074.004l1.989-.11a1.3 1.3 0 0 0 1.23-1.37l-.258-4.742a1.306 1.306 0 0 0-1.375-1.23m-16.996 4.766a.565.565 0 0 0-.52.37l-.226.645a.57.57 0 0 0 .067.504.56.56 0 0 0 .453.235h2.3v6.004c0 .316.25.57.567.57h3.66c.316 0 .57-.254.57-.57v-6.004h2.313a.57.57 0 0 0 .453-.235.56.56 0 0 0 .066-.504l-.226-.644a.565.565 0 0 0-.52-.371Zm-9.453 3.336a.57.57 0 0 0-.453.234.56.56 0 0 0-.066.504l.226.645a.565.565 0 0 0 .52.37h5.457a44 44 0 0 0-.145-1.753Zm22.324 0a52 52 0 0 0-.144 1.754h5.457a.565.565 0 0 0 .52-.371l.226-.645a.56.56 0 0 0-.066-.504.56.56 0 0 0-.454-.234Zm0 0"/></g></svg>