<svg xmlns="http://www.w3.org/2000/svg" width="40" height="40" version="1.0" viewBox="0 0 30 30"><defs><clipPath id="a"><path d="M.484 0h29.032v29.031H.484Zm0 0"/></clipPath></defs><g clip-path="url(#a)"><path fill="#061c3d" d="M7.004-.012A6.54 6.54 0 0 0 .473 6.52c0 1.648.617 3.222 1.734 4.433.43.465.727.965.906 1.516a.865.865 0 0 0-.57.812v.918c0 .356.215.66.523.793q-.004.042-.003.082v.918c0 .477.386.863.863.863h.336c.097.61.398 1.168.867 1.59.516.461 1.18.715 1.875.715 1.387 0 2.535-.98 2.742-2.305h.336a.864.864 0 0 0 .863-.863v-.918q.001-.04-.004-.082a.87.87 0 0 0 .528-.793v-.918a.865.865 0 0 0-.57-.812c.175-.551.476-1.051.906-1.516a6.52 6.52 0 0 0 1.73-4.433A6.54 6.54 0 0 0 7.004-.012m3.598 13.282c.003 0 .011.007.011.011v.918c0 .004-.008.012-.011.012H3.406c-.004 0-.008-.008-.008-.012v-.918c0-.004.004-.011.008-.011Zm-3.598 5.035c-.899 0-1.676-.621-1.871-1.45h3.746c-.195.84-.961 1.45-1.875 1.45m3.09-2.313c0 .004-.008.012-.012.012H3.926c-.004 0-.008-.008-.008-.012v-.918c0-.004.004-.011.008-.011h6.156c.004 0 .012.007.012.011Zm1.082-5.617a4.9 4.9 0 0 0-1.153 2.043H3.988a4.9 4.9 0 0 0-1.156-2.043A5.683 5.683 0 0 1 7.004.844a5.684 5.684 0 0 1 5.68 5.676c0 1.433-.536 2.8-1.508 3.855m-1-3.871a.43.43 0 0 1-.367.644.43.43 0 0 1-.371-.21 2.83 2.83 0 0 0-2.434-1.391c-.996 0-1.926.531-2.434 1.39a.424.424 0 0 1-.586.153.425.425 0 0 1-.148-.586A3.69 3.69 0 0 1 7.004 4.69a3.7 3.7 0 0 1 3.172 1.813M8.539 7.75a.426.426 0 0 1-.101.594.43.43 0 0 1-.598-.102 1.02 1.02 0 0 0-.836-.433c-.36 0-.7.191-.883.503a.423.423 0 0 1-.582.152.43.43 0 0 1-.152-.585c.336-.57.957-.926 1.617-.926.61 0 1.184.297 1.535.797m3.188-2.617a.42.42 0 0 1-.153.582.4.4 0 0 1-.215.062.43.43 0 0 1-.367-.21 4.64 4.64 0 0 0-3.988-2.282A4.64 4.64 0 0 0 3.02 5.566a.427.427 0 0 1-.586.149.426.426 0 0 1-.153-.582A5.5 5.5 0 0 1 7.004 2.43a5.5 5.5 0 0 1 4.723 2.703M7.004 9.102a1.094 1.094 0 0 0 0 2.187c.601 0 1.094-.492 1.094-1.094 0-.601-.493-1.093-1.094-1.093m0 1.332a.24.24 0 0 1-.238-.239.24.24 0 0 1 .238-.238c.133 0 .238.105.238.238a.237.237 0 0 1-.238.239m21.137-4.32H16.203c-.75 0-1.363.613-1.363 1.363v20.18c0 .753.613 1.363 1.363 1.363h11.938c.754 0 1.363-.61 1.363-1.364V7.476c0-.75-.61-1.363-1.363-1.363m-2.813.85-.105.263a.19.19 0 0 1-.184.12h-5.734a.19.19 0 0 1-.184-.12l-.105-.262Zm-9.125 0h1.89l.239.583c.16.398.543.656.973.656h5.734c.438 0 .813-.25.977-.656l.234-.582h1.89c.282 0 .512.23.512.512v17.57h-12.96V7.477c0-.282.23-.512.511-.512m11.938 21.204H16.203a.513.513 0 0 1-.512-.512v-1.758h12.961v1.758c0 .282-.23.512-.511.512m-5.23-2.105h-1.477a.975.975 0 0 0-.973.972c0 .535.437.969.973.969h1.476a.97.97 0 0 0 .973-.969.975.975 0 0 0-.973-.973m0 1.085h-1.477a.114.114 0 0 1-.118-.113c0-.066.051-.117.118-.117h1.476c.067 0 .117.05.117.117 0 .063-.05.113-.117.113m2.948-10.937a.423.423 0 0 1-.152.582.4.4 0 0 1-.215.062.43.43 0 0 1-.367-.21 3.44 3.44 0 0 0-2.953-1.692 3.43 3.43 0 0 0-2.95 1.692.427.427 0 0 1-.585.148.423.423 0 0 1-.153-.582 4.3 4.3 0 0 1 3.688-2.11c1.508 0 2.922.81 3.687 2.11m-9.214-1.629a6.44 6.44 0 0 1 5.527-3.16 6.44 6.44 0 0 1 5.527 3.16.43.43 0 0 1-.152.586.427.427 0 0 1-.586-.152 5.57 5.57 0 0 0-4.79-2.743 5.58 5.58 0 0 0-4.788 2.743.428.428 0 1 1-.738-.434m7.28 3.105a.427.427 0 0 1-.698.493 1.29 1.29 0 0 0-2.168.09.423.423 0 0 1-.582.152.425.425 0 0 1-.153-.586 2.15 2.15 0 0 1 1.848-1.059c.695 0 1.351.34 1.754.91m-1.753 1.637c-.668 0-1.215.547-1.215 1.215a1.216 1.216 0 0 0 2.43 0c0-.668-.547-1.215-1.215-1.215m0 1.578a.362.362 0 0 1 0-.722.362.362 0 0 1 0 .723m-10.914 2.453a1.24 1.24 0 0 0-1.75.032c-.23.238-.352.55-.344.883q-.001.098.016.19h-.153a.79.79 0 0 1-.78-.78v-2.645a1.24 1.24 0 0 0-2.481 0v2.645a3.27 3.27 0 0 0 3.261 3.261h.223c-.094.41.023.856.348 1.164.23.223.535.348.855.348h.027c.329-.008.637-.144.868-.383l1.457-1.511a1.24 1.24 0 0 0-.035-1.75Zm.93 2.614L10.73 27.48a.36.36 0 0 1-.265.118.36.36 0 0 1-.274-.11.375.375 0 0 1-.011-.539l.133-.14a.427.427 0 0 0-.31-.723h-.976a2.407 2.407 0 0 1-2.406-2.406v-2.645a.384.384 0 0 1 .77 0v2.645c0 .902.734 1.636 1.636 1.636h.871a.43.43 0 0 0 .399-.265.44.44 0 0 0-.102-.469l-.062-.059a.38.38 0 0 1-.008-.543.38.38 0 0 1 .54-.011l1.515 1.457c.148.148.156.39.008.543m0 0"/></g></svg>