<svg xmlns="http://www.w3.org/2000/svg" width="40" height="40" version="1.0" viewBox="0 0 30 30"><defs><clipPath id="a"><path d="M16 15h13.516v14.031H16Zm0 0"/></clipPath><clipPath id="b"><path d="M.484 0h29.032v29.031H.484Zm0 0"/></clipPath></defs><g clip-path="url(#a)"><path fill="#fff" d="M28.066 17.418h-1.453v-.965a.484.484 0 1 0-.968 0v.965h-4.84v-.965a.482.482 0 1 0-.965 0v.965h-1.453a1.46 1.46 0 0 0-1.453 1.453v8.711c0 .797.656 1.45 1.453 1.45h9.68c.796 0 1.449-.653 1.449-1.45v-8.71c0-.798-.653-1.454-1.45-1.454m.48 10.164a.483.483 0 0 1-.48.484h-9.68a.487.487 0 0 1-.484-.484v-6.293h10.645Zm0 0"/></g><path fill="#fff" d="M3.871 13.547H6.29q.204 0 .344.144.14.14.14.34v3.871q0 .201-.14.344a.47.47 0 0 1-.344.14H3.871a.48.48 0 0 1-.484-.484v-3.87q0-.2.14-.34a.47.47 0 0 1 .344-.145M8.227 10.645h2.418a.478.478 0 0 1 .484.484v6.773q0 .201-.14.344a.47.47 0 0 1-.344.14H8.227a.47.47 0 0 1-.344-.14.47.47 0 0 1-.14-.344V11.13a.48.48 0 0 1 .484-.484M12.582 12.098H15a.48.48 0 0 1 .484.484v5.32q0 .201-.14.344a.48.48 0 0 1-.344.14h-2.418a.47.47 0 0 1-.344-.14.47.47 0 0 1-.14-.344v-5.32q0-.204.14-.344a.47.47 0 0 1 .344-.14M3.871 6.29h5.805a.482.482 0 1 0 0-.966H3.87a.483.483 0 1 0 0 .965M10.16 7.742a.484.484 0 0 0-.484-.484H3.87a.487.487 0 0 0-.484.484c0 .266.218.485.484.485h5.805c.27 0 .484-.22.484-.485M6.29 9.195H3.87a.483.483 0 1 0 0 .965H6.29a.483.483 0 1 0 0-.965m0 0"/><g clip-path="url(#b)"><path fill="#fff" d="M24.195 0a5.33 5.33 0 0 0-4.738 2.902H2.902A2.42 2.42 0 0 0 .484 5.324v17.418a2.417 2.417 0 0 0 2.418 2.418h8.41l-1.585 3.172a.478.478 0 0 0 .43.695h5.491a.487.487 0 0 0 .485-.484l-.168-3.871a.487.487 0 0 0-.485-.485H2.902c-.797 0-1.449-.652-1.449-1.449v-1.453h14.031a.487.487 0 0 0 .485-.484.487.487 0 0 0-.485-.485H1.454V5.324c0-.8.651-1.453 1.448-1.453h16.176c-.129.465-.207.95-.207 1.453a5.327 5.327 0 0 0 5.324 5.32c1.797 0 3.39-.898 4.352-2.273v7.762c0 .265.219.484.484.484a.487.487 0 0 0 .485-.484V5.324A5.327 5.327 0 0 0 24.196 0m1.852 6.555a.48.48 0 0 1-.402.218.45.45 0 0 1-.266-.082l-1.453-.968a.49.49 0 0 1-.215-.399V2.902c0-.265.215-.484.484-.484.266 0 .48.219.48.484v2.16l1.235.82a.49.49 0 0 1 .137.673m0 0"/></g><path fill="#fff" d="M19.355 22.258h1.934q.204 0 .344.14.14.146.14.344v1.934q0 .204-.14.344a.47.47 0 0 1-.344.14h-1.934a.47.47 0 0 1-.343-.14.47.47 0 0 1-.14-.344v-1.934a.48.48 0 0 1 .483-.484m0 0"/></svg>