<svg xmlns="http://www.w3.org/2000/svg" width="40" height="40" version="1.0" viewBox="0 0 30 30"><defs><clipPath id="a"><path d="M.973 0H29.28v29.031H.973Zm0 0"/></clipPath></defs><path fill="#061c3d" d="M5.809 2.426q0 .204-.141.344a.47.47 0 0 1-.344.14.46.46 0 0 1-.34-.14.47.47 0 0 1-.14-.344q0-.2.14-.34a.46.46 0 0 1 .34-.14q.204 0 .344.14t.14.34M7.742 2.426q0 .204-.14.344a.46.46 0 0 1-.34.14.47.47 0 0 1-.344-.14.47.47 0 0 1-.14-.344q0-.2.14-.34a.47.47 0 0 1 .344-.14q.2 0 .34.14t.14.34M9.676 2.426q0 .204-.14.344a.46.46 0 0 1-.34.14.47.47 0 0 1-.344-.14.47.47 0 0 1-.141-.344q0-.2.14-.34a.47.47 0 0 1 .344-.14q.2 0 .34.14t.14.34M8.71 13.55a3.874 3.874 0 0 0 3.868-3.87 3.87 3.87 0 0 0-3.867-3.867A3.87 3.87 0 0 0 4.844 9.68a3.874 3.874 0 0 0 3.867 3.87m0-.968c-.44 0-.858-.098-1.233-.277a1.47 1.47 0 0 1 1.234-.692c.508 0 .973.274 1.234.692-.375.18-.793.277-1.234.277M7.743 9.68a.967.967 0 1 1 .969.969.974.974 0 0 1-.969-.97m.969-2.899a2.9 2.9 0 0 1 2.031 4.973 2.5 2.5 0 0 0-.68-.688c.364-.351.59-.84.59-1.386a1.94 1.94 0 0 0-1.937-1.934A1.94 1.94 0 0 0 6.78 9.68c0 .547.227 1.035.586 1.386-.265.18-.5.414-.676.688a2.9 2.9 0 0 1-.87-2.074A2.883 2.883 0 0 1 8.71 6.78M14.031 9.68h2.899a.484.484 0 0 0 .484-.485V6.297a.487.487 0 0 0-.484-.484H14.03a.484.484 0 0 0-.484.484v2.898c0 .27.215.485.484.485m.48-2.899h1.934v1.934h-1.933Zm0 0"/><g clip-path="url(#a)"><path fill="#061c3d" d="M3.39 23.219h7.122l-.727 2.902H8.227a2.417 2.417 0 0 0-2.418 2.418c0 .266.218.484.484.484h14.508c.265 0 .48-.218.48-.484a2.417 2.417 0 0 0-2.418-2.418h-1.558l-.723-2.902h1.11l.828.828a.486.486 0 0 0 .683 0l.828-.828c.09.043.188.086.285.12v1.333c0 .265.215.48.485.48h2.898a.483.483 0 0 0 .485-.48V23.34c.097-.035.187-.078.285-.121l.828.828a.486.486 0 0 0 .683 0l1.934-1.934c.09-.09.137-.21.137-.343a.48.48 0 0 0-.137-.344l-.828-.824c.043-.09.082-.188.121-.282h1.328a.487.487 0 0 0 .485-.484v-2.902a.487.487 0 0 0-.485-.485h-1.328a9 9 0 0 0-.121-.281l.828-.828a.5.5 0 0 0 .137-.348.48.48 0 0 0-.137-.344l-1.797-1.78V6.296a2.42 2.42 0 0 0-1.933-2.371V1.46c0-.797-.653-1.45-1.45-1.45H4.36c-.796 0-1.453.653-1.453 1.45v2.465a2.426 2.426 0 0 0-1.933 2.37v14.505a2.417 2.417 0 0 0 2.418 2.418m15.473 3.87c.63 0 1.168.403 1.367.966H6.86c.199-.563.738-.965 1.367-.965Zm-8.086-.968.727-2.902h4.078l.727 2.902Zm13.407-14.023V4.93c.562.199.968.738.968 1.367v6.57l-.683.684a3 3 0 0 0-.285-.121Zm-.63 2.132c.266.086.528.196.774.329a.49.49 0 0 0 .574-.086l.73-.73 1.255 1.25-.73.734a.49.49 0 0 0-.087.574c.133.246.246.508.325.773.062.2.25.336.46.336h1.196v1.934h-1.188a.48.48 0 0 0-.46.34 4.6 4.6 0 0 1-.329.773.49.49 0 0 0 .086.574l.73.73-1.257 1.259-.73-.73a.49.49 0 0 0-.575-.087 4 4 0 0 1-.773.328.48.48 0 0 0-.336.461v1.195H21.28v-1.19a.48.48 0 0 0-.336-.462 4.3 4.3 0 0 1-.773-.324.49.49 0 0 0-.574.086l-.735.723-1.25-1.25.73-.73a.49.49 0 0 0 .087-.575 4.5 4.5 0 0 1-.328-.774.48.48 0 0 0-.457-.34h-1.2v-1.933h1.192c.21 0 .398-.14.46-.34.087-.265.192-.531.325-.773a.49.49 0 0 0-.082-.575l-.727-.73 1.25-1.25.735.73a.49.49 0 0 0 .574.086c.246-.136.508-.25.773-.328a.48.48 0 0 0 .336-.46v-1.196h1.938v1.191c0 .211.136.399.336.457M3.876 1.46c0-.265.219-.483.484-.483h18.375c.266 0 .485.218.485.484v2.418H3.875Zm0 3.384h19.344v6.77H20.8a.484.484 0 0 0-.485.484v1.332c-.097.035-.187.078-.285.12l-.828-.827a.486.486 0 0 0-.683 0l-1.106 1.109v-2.7a.487.487 0 0 0-.484-.484H14.03a.484.484 0 0 0-.484.485v2.898c0 .266.215.485.484.485h2.7l-.137.14a.47.47 0 0 0-.14.344c0 .133.046.254.14.344l.828.828c-.043.09-.086.187-.121.285H4.359a.487.487 0 0 1-.484-.484Zm12.57 6.77v1.937h-1.933v-1.938ZM1.941 6.296c0-.629.407-1.168.965-1.367v11.035c0 .8.656 1.453 1.453 1.453H15.48v.965H1.941Zm0 13.055h13.54v.484c0 .266.218.484.484.484h1.328q.055.141.121.282l-.828.828a.5.5 0 0 0-.14.343c0 .137.05.254.14.348l.14.137H3.392c-.797 0-1.45-.653-1.45-1.45Zm0 0"/></g><path fill="#061c3d" d="M18.383 18.383a3.87 3.87 0 0 0 3.867 3.87 3.87 3.87 0 0 0 3.867-3.87 3.87 3.87 0 0 0-3.867-3.867 3.87 3.87 0 0 0-3.867 3.867m6.77 0c0 1.601-1.301 2.902-2.903 2.902a2.9 2.9 0 1 1 0-5.8 2.9 2.9 0 0 1 2.902 2.898m0 0"/><path fill="#061c3d" d="M20.316 18.383c0 1.066.872 1.937 1.934 1.937a1.94 1.94 0 0 0 1.934-1.937 1.94 1.94 0 0 0-1.934-1.934 1.94 1.94 0 0 0-1.934 1.934m2.903 0a.97.97 0 0 1-.969.969.97.97 0 0 1-.969-.97.97.97 0 0 1 .969-.964.97.97 0 0 1 .969.965M18.863 6.781h2.903a.487.487 0 0 0 .484-.484.487.487 0 0 0-.484-.484h-2.903a.483.483 0 0 0 0 .968M18.863 8.715h2.903a.487.487 0 0 0 .484-.485.487.487 0 0 0-.484-.484h-2.903a.483.483 0 0 0 0 .969M18.863 10.648h2.903a.487.487 0 0 0 .484-.484.487.487 0 0 0-.484-.484h-2.903a.483.483 0 0 0 0 .968M10.16 14.516H7.262a.484.484 0 1 0 0 .968h2.898a.487.487 0 0 0 .485-.484.487.487 0 0 0-.485-.484m0 0"/></svg>