<svg xmlns="http://www.w3.org/2000/svg" width="40" height="40" version="1.0" viewBox="0 0 30 30"><defs><clipPath id="a"><path d="M.484 0h29.032v29H.484Zm0 0"/></clipPath></defs><g clip-path="url(#a)"><path fill="#061c3d" d="M18.781 25.406a11.61 11.61 0 0 1-10.957-1.898q.119-.265.121-.57A1.378 1.378 0 0 0 6 21.684a11.58 11.58 0 0 1-2.375-9.063l.617.856a.411.411 0 1 0 .668-.48l-1.168-1.618a.409.409 0 0 0-.574-.09l-1.617 1.168a.407.407 0 0 0-.09.57.41.41 0 0 0 .57.094l.774-.559a12.4 12.4 0 0 0 2.582 9.668c-.121.207-.196.45-.196.707a1.378 1.378 0 0 0 2.082 1.18 12.43 12.43 0 0 0 11.774 2.067.41.41 0 0 0 .254-.52.41.41 0 0 0-.52-.258m-12.77-2.468a.558.558 0 1 1 .559.555.56.56 0 0 1-.558-.556m5.266-19.391a11.6 11.6 0 0 1 10.957 1.898 1.4 1.4 0 0 0-.12.57 1.378 1.378 0 0 0 1.945 1.255 11.49 11.49 0 0 1 2.375 9.062l-.618-.855a.412.412 0 0 0-.668.48l1.168 1.617c.067.086.16.145.27.164q.032.005.062.004a.4.4 0 0 0 .243-.078l1.617-1.168a.407.407 0 0 0 .09-.57.41.41 0 0 0-.57-.094l-.774.559a12.5 12.5 0 0 0-.25-5.036 12.4 12.4 0 0 0-2.332-4.632 1.378 1.378 0 0 0-1.887-1.887A12.42 12.42 0 0 0 11.012 2.77a.407.407 0 0 0-.254.52.41.41 0 0 0 .52.257m12.77 2.469a.558.558 0 1 1-.559-.555c.309 0 .559.25.559.555M4.742 1.145V.41a.41.41 0 1 1 .82 0v.735a.41.41 0 1 1-.82 0m-2.363.117a.41.41 0 0 1 .148-.559.413.413 0 0 1 .563.149l.367.636a.413.413 0 0 1-.355.617.41.41 0 0 1-.356-.207ZM1.395 3.55l-.637-.367a.41.41 0 0 1-.149-.563.41.41 0 0 1 .559-.148l.637.367a.413.413 0 0 1 .152.562.42.42 0 0 1-.562.149m5.449-2.063L7.21.852a.413.413 0 0 1 .562-.149.41.41 0 0 1 .149.559l-.367.636a.404.404 0 0 1-.559.153.413.413 0 0 1-.152-.563m1.504 1.914a.41.41 0 0 1 .148-.562l.637-.367a.41.41 0 0 1 .558.148c.114.2.047.45-.148.563l-.637.367a.408.408 0 0 1-.559-.148m-.5 1.375c0-1.488-1.211-2.699-2.696-2.699-1.488 0-2.699 1.211-2.699 2.7 0 .753.246 1.132.485 1.5.21.327.43.667.53 1.406a.79.79 0 0 0-.37.664v.816c0 .43.343.777.77.79.015.41.35.733.765.733h1.035c.414 0 .75-.324.766-.734a.79.79 0 0 0 .77-.789v-.816a.79.79 0 0 0-.372-.664c.102-.739.32-1.079.531-1.407.239-.367.485-.746.485-1.5M6.383 9.133h-.356a.413.413 0 0 0-.414.41v.324h-.926v-.324a.41.41 0 0 0-.41-.41h-.359v-.75h2.465Zm.293-3.301c-.239.367-.528.816-.653 1.73h-.46V5.438l.773-.445a.413.413 0 0 0 .152-.562.414.414 0 0 0-.562-.149l-.774.45-.777-.45a.41.41 0 0 0-.559.149c-.113.199-.046.449.149.562l.777.446v2.125h-.465c-.125-.915-.414-1.364-.652-1.731-.21-.328-.352-.543-.352-1.055 0-1.035.844-1.879 1.88-1.879 1.03 0 1.874.844 1.874 1.88 0 .511-.14.726-.351 1.054M28.78 22.578a.63.63 0 0 1-.593-.398.63.63 0 0 1 .14-.703.726.726 0 0 0 0-1.024l-.676-.672a.726.726 0 0 0-1.023 0 .62.62 0 0 1-.7.137.62.62 0 0 1-.398-.594.724.724 0 0 0-.722-.722h-.954a.724.724 0 0 0-.726.722c0 .27-.149.492-.395.594a.62.62 0 0 1-.703-.137.726.726 0 0 0-1.023 0l-.676.672a.72.72 0 0 0-.21.512.73.73 0 0 0 .21.512.63.63 0 0 1 .14.703.62.62 0 0 1-.593.398.724.724 0 0 0-.723.723v.953c0 .398.324.723.723.723.27 0 .492.148.594.398a.63.63 0 0 1-.141.703.71.71 0 0 0-.21.512c0 .191.077.375.21.512l.676.671c.137.137.316.211.512.211a.72.72 0 0 0 .511-.21.63.63 0 0 1 .703-.141.63.63 0 0 1 .395.597c0 .399.328.723.726.723h.954a.724.724 0 0 0 .722-.723c0-.27.149-.492.399-.593a.62.62 0 0 1 .699.136.726.726 0 0 0 1.023 0l.676-.671a.726.726 0 0 0 0-1.024.63.63 0 0 1-.14-.703.63.63 0 0 1 .593-.398.727.727 0 0 0 .727-.723V23.3a.73.73 0 0 0-.727-.723m-.097 1.582a1.44 1.44 0 0 0-1.254.902 1.44 1.44 0 0 0 .25 1.524l-.54.543c-.421-.375-1-.469-1.527-.25a1.43 1.43 0 0 0-.902 1.254h-.762a1.44 1.44 0 0 0-.902-1.258 1.44 1.44 0 0 0-1.527.254l-.54-.543c.372-.422.47-.996.25-1.523a1.44 1.44 0 0 0-1.253-.903v-.765a1.44 1.44 0 0 0 1.253-.903 1.44 1.44 0 0 0-.25-1.523l.54-.543c.421.375 1 .472 1.527.254.527-.22.867-.696.902-1.258h.762c.035.562.375 1.039.902 1.258a1.45 1.45 0 0 0 1.528-.254l.539.543a1.44 1.44 0 0 0-.25 1.523c.218.528.695.867 1.254.903Zm-4.352-3.082a2.703 2.703 0 0 0-2.703 2.7c0 1.488 1.21 2.699 2.703 2.699 1.488 0 2.7-1.211 2.7-2.7 0-1.488-1.212-2.699-2.7-2.699m0 4.578a1.883 1.883 0 0 1-1.883-1.879 1.882 1.882 0 0 1 3.762 0 1.88 1.88 0 0 1-1.879 1.88M15.234 6.938a.4.4 0 0 0-.41 0l-6.222 3.59a.41.41 0 0 0-.207.355v7.187c0 .145.078.282.207.356l6.222 3.59c.063.039.133.054.207.054.07 0 .14-.015.203-.054l6.223-3.59a.41.41 0 0 0 .207-.356v-7.187a.41.41 0 0 0-.207-.356Zm-.203.828 5.399 3.117-1.422.824-5.403-3.121Zm0 6.238L9.63 10.883l1.422-.82 5.402 3.117Zm2.242-1.297-5.402-3.121.914-.524 5.403 3.118Zm.41.711.915-.527v2.047l-.914.527ZM9.22 11.594l5.398 3.12v6.24L9.22 17.831Zm6.222 9.36v-6.24l1.422-.823v2.28c0 .15.078.286.207.356.063.04.133.055.203.055a.4.4 0 0 0 .207-.055l1.73-.996a.41.41 0 0 0 .208-.355v-2.758l1.426-.824v6.238Zm0 0"/></g></svg>