<svg xmlns="http://www.w3.org/2000/svg" width="40" height="40" version="1.0" viewBox="0 0 30 30"><defs><clipPath id="a"><path d="M.484 1h29.032v20H.484Zm0 0"/></clipPath></defs><path fill="#061c3d" d="m16.133 26.402-.906.907V15.332c0-.273-.18-.453-.454-.453-.273 0-.453.18-.453.453v12.023l-.906-.91a.443.443 0 0 0-.637 0 .443.443 0 0 0 0 .637l1.68 1.68c.18.18.453.18.633 0l1.68-1.68a.443.443 0 0 0 0-.637c-.184-.226-.454-.226-.637-.043m0 0"/><g clip-path="url(#a)"><path fill="#061c3d" d="M25.75 10.84c.91-2.356-.137-4.535-1.676-5.715-1.543-1.223-3.949-1.676-6.035-.18C16.227 1.496 11.645.09 8.016 2.175 5.383 3.72 4.023 6.622 4.43 9.528A5.386 5.386 0 0 0 .484 14.7a5.36 5.36 0 0 0 5.352 5.352h4.402a.43.43 0 0 0 .453-.453c0-.274-.183-.453-.453-.453H5.836a4.453 4.453 0 0 1-4.445-4.446 4.424 4.424 0 0 1 3.222-4.265c.18.636.407 1.18.723 1.722.137.227.41.274.637.184.226-.137.273-.41.18-.637-1.766-3.086-.68-6.984 2.359-8.71 3.222-1.86 7.394-.497 8.847 2.632-.906.953-1.453 2.223-1.453 3.54 0 .269.184.452.453.452.274 0 .457-.183.457-.453 0-3.312 3.856-5.488 6.711-3.266 1.364 1.043 2.27 3.082 1.18 5.172-.137.27.047.633.363.68a3.7 3.7 0 0 1 3.54 3.719 3.735 3.735 0 0 1-3.72 3.719h-5.128a.43.43 0 0 0-.453.453c0 .273.183.457.453.457h5.129a4.62 4.62 0 0 0 4.625-4.63c0-2.312-1.633-4.171-3.766-4.628m0 0"/></g><path fill="#061c3d" d="M12.957 23.18v-5.852c0-.273-.18-.453-.453-.453h-2.402c-.274 0-.454.18-.454.453 0 .274.18.453.454.453h1.949v4.946H6.02l.906-.907a.443.443 0 0 0 0-.636.443.443 0 0 0-.637 0l-1.676 1.68a.43.43 0 0 0 0 .632l1.676 1.68a.437.437 0 0 0 .637 0 .44.44 0 0 0 0-.633l-.906-.91h6.44c.27 0 .497-.227.497-.453M24.934 22.863l-1.676-1.68a.443.443 0 0 0-.637 0 .443.443 0 0 0 0 .637l.906.907h-6.03V17.78h1.948c.274 0 .453-.18.453-.453s-.18-.453-.453-.453h-2.402c-.273 0-.457.18-.457.453v5.852c0 .273.184.453.457.453h6.441l-.91.91a.44.44 0 0 0 0 .633.437.437 0 0 0 .637 0l1.68-1.68c.18-.18.18-.453.043-.633M7.559 16.875c-.27 0-.454.18-.454.453 0 .274.184.453.454.453h1.09c.273 0 .453-.18.453-.453s-.18-.453-.454-.453ZM21.941 17.781c.27 0 .454-.18.454-.453s-.184-.453-.454-.453h-1.09c-.273 0-.453.18-.453.453 0 .274.18.453.454.453Zm0 0"/></svg>