<svg xmlns="http://www.w3.org/2000/svg" width="40" height="40" version="1.0" viewBox="0 0 30 30"><defs><clipPath id="a"><path d="M.484 0h29.032v29.031H.484Zm0 0"/></clipPath></defs><g clip-path="url(#a)"><path fill="#061c3d" d="M1.031 23.547h10.977v3.488H6.52v1.996h16.96v-1.996h-5.488v-3.488H28.97q.205 0 .351-.149a.48.48 0 0 0 .145-.351V4.09a.48.48 0 0 0-.145-.352.48.48 0 0 0-.351-.148H17.992V2.094h4.582q.117.338.375.582a1.5 1.5 0 0 0 1.926.125c.188-.14.336-.32.445-.531a1.49 1.49 0 0 0-.445-1.875 1.5 1.5 0 0 0-.64-.274q-.348-.057-.688.043a1.5 1.5 0 0 0-.973.934h-5.078a.48.48 0 0 0-.355.144.48.48 0 0 0-.145.356V3.59h-3.992V1.598a.48.48 0 0 0-.145-.356.48.48 0 0 0-.355-.144H7.426A1.497 1.497 0 0 0 5.766.12q-.354.061-.641.274-.281.21-.445.527a1.5 1.5 0 0 0 0 1.348c.11.21.258.39.445.53q.288.211.64.27.348.064.688-.043a1.5 1.5 0 0 0 .973-.933h4.582V3.59H1.03a.48.48 0 0 0-.351.148.48.48 0 0 0-.145.352v18.957q-.001.206.145.351a.48.48 0 0 0 .351.149M13.004 4.59h3.992v5.57l-.336.336a3 3 0 0 0-.664-.273V9.078h-1.992v1.145a3 3 0 0 0-.664.273l-.336-.336ZM15 11.574q.399 0 .762.153a1.97 1.97 0 0 1 1.082 1.078 1.98 1.98 0 0 1 0 1.527 1.97 1.97 0 0 1-1.082 1.078 2 2 0 0 1-.762.152q-.399 0-.762-.152a1.97 1.97 0 0 1-1.082-1.078 1.98 1.98 0 0 1 0-1.527 1.97 1.97 0 0 1 1.082-1.078 2 2 0 0 1 .762-.153M1.531 4.59h10.477v5.62l-.89.888.808.808q-.172.318-.274.664h-1.14v.5H5.434a1.497 1.497 0 1 0 0 .996h5.078v.5h1.14c.067.23.16.454.274.664l-.809.832 1.414 1.41.809-.804q.314.169.664.273v1.118h1.992v-1.145q.35-.098.664-.273l.836.808 1.387-1.387-.809-.808q.175-.33.274-.688h1.14v-.5h5.078q.123.335.375.582a1.5 1.5 0 0 0 1.29.395c.234-.04.449-.129.636-.273a1.5 1.5 0 0 0 .45-.528 1.496 1.496 0 0 0-2.376-1.754q-.252.247-.375.582h-5.078v-.5h-1.14a3.4 3.4 0 0 0-.274-.664l.809-.808-.89-.887V4.59h10.476v15.96H1.53Zm0 0"/></g><path fill="#061c3d" d="M3.027 7.082h2.496v3.992q-.001.205.145.352a.48.48 0 0 0 .352.148h2.996q.205 0 .351-.148a.48.48 0 0 0 .145-.352.48.48 0 0 0-.145-.351.48.48 0 0 0-.351-.149H6.52V6.586a.48.48 0 0 0-.145-.356.48.48 0 0 0-.355-.144H3.027a.48.48 0 0 0-.351.144.48.48 0 0 0-.149.356q.001.205.149.351a.48.48 0 0 0 .351.145M26.473 6.086H23.48a.48.48 0 0 0-.351.144.48.48 0 0 0-.149.356v3.988h-2.492q-.21.001-.355.149a.48.48 0 0 0-.145.351q-.001.205.145.352a.48.48 0 0 0 .355.148h2.992q.205 0 .352-.148a.48.48 0 0 0 .148-.352V7.082h2.493a.47.47 0 0 0 .351-.144.48.48 0 0 0 .149-.352q-.001-.21-.149-.356a.47.47 0 0 0-.351-.144m0 0"/></svg>