<svg xmlns="http://www.w3.org/2000/svg" width="40" height="40" version="1.0" viewBox="0 0 30 30"><defs><clipPath id="a"><path d="M10 24h10v2.855H10Zm0 0"/></clipPath><clipPath id="b"><path d="M18 2.902h11.516V13H18Zm0 0"/></clipPath><clipPath id="c"><path d="M.484 2.902H12V13H.484Zm0 0"/></clipPath></defs><path fill="#061c3d" d="M12.172 5.273h5.656v1.454h-5.656ZM24.887 18.488H5.113v-6.812H3.66v10.347a1.45 1.45 0 0 0 1.453 1.454h19.774a1.45 1.45 0 0 0 1.453-1.454V11.676h-1.453ZM15 22.918a1.21 1.21 0 1 1 0-2.418 1.209 1.209 0 1 1 0 2.418m0 0"/><g clip-path="url(#a)"><path fill="#061c3d" d="M12.258 24.078 10.113 25.7v.762h9.774v-.762l-2.145-1.62Zm0 0"/></g><path fill="#061c3d" d="M12.617 14.988a5 5 0 0 0-.949.66 4.46 4.46 0 0 1-1.168-2.746c-.555-.406-.656-.484-.598-.437q-.005.069-.004.148A5.11 5.11 0 0 0 15 17.711a5.11 5.11 0 0 0 5.102-5.098c0-.054 0-.11-.004-.156-.063.047-.938.7-.598.445a4.45 4.45 0 0 1-1.164 2.743 5.2 5.2 0 0 0-.945-.66c.168-.626.27-1.333.293-2.083h.664a1.01 1.01 0 0 1-.473-.582h-.191a9.2 9.2 0 0 0-.293-2.09q.221-.118.437-.265v-.727c-.191.157-.402.301-.621.422-.191-.515-.43-.965-.71-1.316.48.172.933.422 1.331.754v-.739A5.07 5.07 0 0 0 15 7.504c-1.027 0-2 .3-2.828.86v.734a4.4 4.4 0 0 1 1.34-.754c-.282.351-.524.8-.715 1.316a4 4 0 0 1-.625-.426v.727c.144.101.289.191.445.27a8.4 8.4 0 0 0-.293 2.09h-.199c-.078.25-.246.452-.473.581h.672c.016.75.117 1.457.293 2.086m5.301 1.063a4.4 4.4 0 0 1-1.422.816c.281-.347.52-.797.711-1.312.254.136.488.304.711.496m-2.625-7.91c.559.175 1.05.836 1.387 1.777a4.4 4.4 0 0 1-1.387.305Zm0 2.668a4.9 4.9 0 0 0 1.555-.34c.144.558.234 1.191.254 1.851h-1.809Zm0 2.093h1.809a8.3 8.3 0 0 1-.254 1.836 5 5 0 0 0-1.555-.332Zm0 2.086a4.5 4.5 0 0 1 1.387.309c-.328.941-.828 1.61-1.387 1.781Zm-.582 2.09c-.559-.172-1.055-.84-1.387-1.781a4.5 4.5 0 0 1 1.387-.309Zm0-8.937v2.082a4.4 4.4 0 0 1-1.387-.305c.332-.941.828-1.602 1.387-1.777m-1.559 2.336c.493.191 1.02.3 1.559.332v1.511h-1.813c.024-.66.11-1.285.254-1.843m1.559 2.425v1.504a5.2 5.2 0 0 0-1.559.336 8.6 8.6 0 0 1-.254-1.84Zm-1.914 2.653c.191.523.433.965.707 1.312-.52-.183-1-.46-1.422-.808.223-.192.465-.36.715-.504M25.535 8.492h.848l.32-1.375h-1.168Zm0 0"/><g clip-path="url(#b)"><path fill="#061c3d" d="M28.574 2.875h-9.316a.83.83 0 0 0-.832.832v8.313c0 .32.347.52.625.359l2.23-1.3h7.293a.833.833 0 0 0 .832-.833V3.707a.833.833 0 0 0-.832-.832m-5.488 7.102a.626.626 0 0 1-.625-.622c0-.175.07-.332.187-.445h.88c.117.113.187.27.187.445 0 .34-.281.622-.63.622m2.684 0a.626.626 0 0 1-.442-1.067h.883c.117.113.187.27.187.445 0 .34-.28.622-.628.622m1.816-4.809-.836 3.578a.205.205 0 0 1-.203.164h-4.27a.2.2 0 0 1-.07-.012q-.016-.005-.031-.02c-.008-.003-.02-.007-.028-.015-.011-.008-.02-.02-.027-.027q-.01-.012-.02-.024c-.007-.011-.011-.03-.019-.046 0-.004-.008-.012-.008-.02l-.98-4.191a.21.21 0 0 0-.203-.16h-.442a.21.21 0 1 1 0-.418h.442c.293 0 .543.199.609.484l.105.45h5.778a.22.22 0 0 1 .164.077c.039.051.055.117.039.18m0 0"/></g><path fill="#061c3d" d="M25.535 6.703h1.266l.32-1.375h-1.586ZM22.027 6.703h1.266V5.328h-1.586ZM23.71 5.328h1.407v1.375h-1.406ZM22.414 8.36l.027.132h.852V7.117h-1.168ZM23.71 7.117h1.407v1.375h-1.406Zm0 0"/><g clip-path="url(#c)"><path fill="#061c3d" d="M10.95 12.379a.415.415 0 0 0 .624-.36V3.708a.83.83 0 0 0-.828-.828H1.43a.833.833 0 0 0-.836.828v6.543c0 .453.375.828.836.828h7.293ZM1.284 9.336V4.617c0-.52.426-.941.942-.941H9.94c.516 0 .942.422.942.941v4.719a.947.947 0 0 1-.942.941H2.227a.947.947 0 0 1-.942-.941m0 0"/></g><path fill="#061c3d" d="M10.281 4.617a.34.34 0 0 0-.34-.34H2.227a.34.34 0 0 0-.34.34v.344h8.394ZM1.887 5.563h8.394v.753H1.887ZM10.281 9.336V6.918H1.887v2.418c0 .187.156.344.34.344H9.94c.184 0 .34-.157.34-.344m-5.379-.809H3.508v-.515h1.394Zm1.88 0H5.386v-.515H6.78Zm1.878 0H7.266v-.515H8.66Zm0 0"/></svg>