<svg xmlns="http://www.w3.org/2000/svg" width="40" height="40" version="1.0" viewBox="0 0 30 30"><defs><clipPath id="a"><path d="M9 14h10v6.902H9Zm0 0"/></clipPath><clipPath id="b"><path d="M3 15h8v5.902H3Zm0 0"/></clipPath><clipPath id="c"><path d="M18 15h8v5.902h-8Zm0 0"/></clipPath><clipPath id="d"><path d="M11 7.84h7V14h-7Zm0 0"/></clipPath><clipPath id="e"><path d="M.484 14H6v6H.484Zm0 0"/></clipPath><clipPath id="f"><path d="M24 14h5v6.902h-5Zm0 0"/></clipPath></defs><g clip-path="url(#a)"><path fill="#061c3d" d="M12.793 14.79c-.672.296-1.309.983-1.828 1.933-.649 1.18-1.07 2.715-1.14 4.18h8.698c-.082-1.434-.5-2.93-1.132-4.083-.485-.886-1.075-1.543-1.7-1.867h-.007a3.2 3.2 0 0 1-1.254.262c-.59 0-1.145-.16-1.637-.426m0 0"/></g><g clip-path="url(#b)"><path fill="#061c3d" d="M5.906 15.02c-1.25 1.218-2.191 3.582-2.375 5.882h5.547c.067-1.609.52-3.261 1.238-4.574.032-.058.07-.11.102-.164a6 6 0 0 0-.672-.914c-.512.34-1.105.566-1.75.566-.793 0-1.516-.308-2.09-.796m0 0"/></g><g clip-path="url(#c)"><path fill="#061c3d" d="M20.422 15.52c-.656.64-1.219 1.632-1.613 2.757.261.84.425 1.739.468 2.625h6.61c-.16-1.984-.91-4.007-1.942-5.168-.472.313-1.011.528-1.605.528-.727 0-1.39-.293-1.918-.742m0 0"/></g><g clip-path="url(#d)"><path fill="#061c3d" d="M14.434 7.832c-1.543 0-2.79 1.313-2.79 2.938 0 1.628 1.247 2.945 2.79 2.945 1.539 0 2.78-1.317 2.78-2.945 0-1.625-1.241-2.938-2.78-2.938m0 0"/></g><g clip-path="url(#e)"><path fill="#061c3d" d="m1.234 19.82-.093-.062a.72.72 0 0 1-.309-.469.7.7 0 0 1 .11-.55l2.87-4.38a.7.7 0 0 1 .458-.312q.294-.058.543.113l.093.063a.72.72 0 0 1 .309.468q.06.301-.11.555l-2.87 4.379a.68.68 0 0 1-.458.309.7.7 0 0 1-.543-.114m0 0"/></g><path fill="#061c3d" d="M22.344 10.004c-1.285 0-2.328 1.094-2.328 2.453 0 1.355 1.043 2.457 2.328 2.457s2.32-1.101 2.32-2.457c0-1.36-1.035-2.453-2.32-2.453M8 9.055c-1.402 0-2.535 1.191-2.535 2.668 0 1.48 1.133 2.68 2.535 2.68 1.398 0 2.527-1.2 2.527-2.68 0-1.477-1.129-2.668-2.527-2.668m0 0"/><g clip-path="url(#f)"><path fill="#061c3d" d="M28.262 19.922a.7.7 0 0 0 .3-.465.73.73 0 0 0-.109-.547l-2.414-3.683a.7.7 0 0 0-.457-.313.68.68 0 0 0-.535.106.7.7 0 0 0-.3.464q-.054.3.108.551l2.415 3.684c.113.168.261.27.457.312q.287.06.535-.11m0 0"/></g><path fill="#061c3d" d="M17.922 14.168a.7.7 0 0 0-.399.121l-.117.082a.74.74 0 0 0-.187 1.012l1.289 1.969c.094-.215.199-.418.308-.618a8 8 0 0 1 .579-.898l-.88-1.34a.72.72 0 0 0-.593-.328m0 0"/></svg>