<svg xmlns="http://www.w3.org/2000/svg" width="40" height="40" version="1.0" viewBox="0 0 30 30"><defs><clipPath id="a"><path d="M.484 5.445H25V23.59H.484Zm0 0"/></clipPath><clipPath id="b"><path d="M20 9h9.516v11H20Zm0 0"/></clipPath></defs><path fill="#061c3d" d="M10.918 19.05a.456.456 0 0 0 0 .91h3.629a.456.456 0 0 0 0-.91ZM4.59 19.371q-.002.157-.113.274a.37.37 0 0 1-.274.109.38.38 0 0 1-.387-.383q.002-.164.114-.273a.384.384 0 0 1 .547 0 .37.37 0 0 1 .113.273M3.07 19.371q-.001.157-.113.274a.37.37 0 0 1-.273.109.38.38 0 0 1-.387-.383q.001-.164.113-.273a.384.384 0 0 1 .547 0 .37.37 0 0 1 .113.273M10.621 9.05a.47.47 0 0 0-.633-.136l-4.082 2.723a.44.44 0 0 0-.207.383c0 .16.07.296.207.386l4.082 2.723c.203.137.5.09.633-.137a.45.45 0 0 0-.133-.637L6.973 12.02l3.515-2.336a.467.467 0 0 0 .133-.633M14.84 14.992c.137.203.433.274.637.137l4.082-2.723a.44.44 0 0 0 .203-.386.44.44 0 0 0-.203-.383l-4.082-2.723a.45.45 0 0 0-.637.137c-.133.203-.09.5.137.633l3.515 2.336-3.515 2.335a.477.477 0 0 0-.137.637M13.207 8.504l-1.812 6.805c-.07.25.09.5.316.546.047 0 .066.024.113.024a.435.435 0 0 0 .43-.344L14.07 8.73a.44.44 0 0 0-.316-.543.447.447 0 0 0-.547.317m0 0"/><g clip-path="url(#a)"><path fill="#061c3d" d="M10.918 22.68H9.555a.46.46 0 0 0-.453.457c0 .246.207.453.453.453h6.351a.456.456 0 0 0 0-.91h-1.36v-1.36h9.071c.59 0 1.09-.386 1.274-.906h-.477c-.207 0-.387-.023-.566-.09a.5.5 0 0 1-.25.09H1.844a.453.453 0 0 1-.453-.453v-1.363h19.187l-.066-.067a2 2 0 0 1-.5-.84H1.39V6.805c0-.25.203-.453.453-.453h21.773c.25 0 .457.203.457.453v2.312a1.7 1.7 0 0 1 .36-.043h.546v-2.27c0-.75-.613-1.359-1.363-1.359H1.844c-.746 0-1.36.61-1.36 1.36V19.96c0 .746.614 1.36 1.36 1.36h9.074Zm.906-1.36h1.817v1.36h-1.817Zm0 0"/></g><g clip-path="url(#b)"><path fill="#061c3d" d="M28.633 13.313c-.047-.114-.094-.204-.137-.317.293-.43.25-1.02-.137-1.406l-.453-.453a1.14 1.14 0 0 0-.793-.317 1.14 1.14 0 0 0-.613.18c-.09-.043-.203-.09-.316-.137a1.12 1.12 0 0 0-1.09-.883h-.637c-.543 0-.996.387-1.086.883-.113.047-.207.094-.32.137a1.146 1.146 0 0 0-1.406.137l-.454.453c-.386.387-.43.976-.136 1.406-.043.09-.09.203-.137.316-.52.114-.883.57-.883 1.09v.637c0 .543.387.996.883 1.086.047.113.094.207.137.32a1.146 1.146 0 0 0 .137 1.406l.453.454a1.146 1.146 0 0 0 1.406.136c.094.043.207.09.32.133.113.524.567.887 1.086.887h.637c.543 0 .996-.387 1.09-.887.113-.043.203-.09.316-.133.18.114.387.18.613.18.293 0 .59-.113.793-.316l.453-.453a1.146 1.146 0 0 0 .137-1.407c.043-.093.09-.207.137-.32.52-.113.883-.566.883-1.086v-.637c0-.52-.387-.976-.883-1.09m-.024 1.746c0 .117-.09.207-.203.207h-.476c-.094.496-.274.93-.547 1.316l.34.34c.093.09.093.226 0 .293l-.453.453a.2.2 0 0 1-.157.07.2.2 0 0 1-.16-.07l-.34-.34c-.386.274-.84.477-1.316.543v.477c0 .113-.09.207-.203.207h-.637a.205.205 0 0 1-.203-.207v-.43c-.5-.09-.93-.273-1.317-.543l-.382.316a.2.2 0 0 1-.16.067c-.07 0-.09-.02-.137-.067l-.453-.453c-.09-.09-.09-.226 0-.297l.34-.34a3 3 0 0 1-.543-1.312h-.477a.21.21 0 0 1-.207-.207v-.633c0-.113.094-.207.207-.207h.453c.09-.496.274-.93.543-1.312l-.316-.387c-.09-.09-.09-.227 0-.297l.453-.453a.22.22 0 0 1 .16-.066c.066 0 .113.023.156.066l.34.34c.387-.27.84-.473 1.316-.543v-.477c0-.113.09-.203.204-.203h.636c.114 0 .203.09.203.203v.453c.5.094.93.274 1.317.547l.34-.34a.2.2 0 0 1 .16-.07c.066 0 .113.024.156.07l.457.454c.09.09.09.226 0 .293l-.34.34c.27.386.473.84.543 1.316h.477c.113 0 .203.09.203.203v.68Zm0 0"/></g><path fill="#061c3d" d="M24.754 12.93c-1 0-1.817.816-1.817 1.812 0 1 .817 1.817 1.817 1.817a1.82 1.82 0 0 0 1.812-1.817c0-.996-.816-1.812-1.812-1.812m0 2.718a.907.907 0 1 1 .001-1.813.907.907 0 0 1-.001 1.813m0 0"/></svg>