<svg xmlns="http://www.w3.org/2000/svg" width="40" height="40" version="1.0" viewBox="0 0 30 30"><defs><clipPath id="a"><path d="M.484 2h29.032v26.305H.484Zm0 0"/></clipPath></defs><path fill="#061c3d" d="M14.586 13.86h3.14a.19.19 0 0 0 .192-.188V12.18a.19.19 0 0 0-.191-.192h-3.141a.19.19 0 0 0-.191.192v1.492c0 .105.085.187.19.187M14.895 14.582a.19.19 0 0 0-.192.191v5.575c0 .105.086.191.192.191a.19.19 0 0 0 .187-.191v-5.575a.19.19 0 0 0-.187-.191M16.156 14.582a.19.19 0 0 0-.191.191v5.575a.192.192 0 0 0 .383 0v-5.575a.19.19 0 0 0-.192-.191M17.418 14.582a.19.19 0 0 0-.191.191v5.575a.192.192 0 0 0 .382 0v-5.575a.19.19 0 0 0-.191-.191m0 0"/><g clip-path="url(#a)"><path fill="#061c3d" d="M29.094 22.027h-.836V6.145a.46.46 0 0 0-.461-.461h-.621v-.625a.73.73 0 0 0-.727-.73h-1.59v-.895a.46.46 0 0 0-.457-.461h-.882a.46.46 0 0 0-.461.46v.895h-1.59a.73.73 0 0 0-.73.73v.626h-.618a.46.46 0 0 0-.46.46v3.727h-6.93a.46.46 0 0 0-.461.457v2.7H8.566a3.3 3.3 0 0 0-2.546-1.204 3.316 3.316 0 0 0-3.31 3.313 3.315 3.315 0 0 0 3.31 3.308c.066 0 .125 0 .19-.011v3.023a1.91 1.91 0 0 0-1.6-.871 1.926 1.926 0 0 0-1.926 1.922c0 .66.336 1.238.843 1.582A3.575 3.575 0 0 0 .492 27.62v.227a.4.4 0 0 0 .399.398h7.43q.115 0 .202-.058c.055.039.13.058.204.058h7.433q.11 0 .203-.058.088.058.2.058h7.433c.219 0 .395-.18.395-.398v-.227a3.57 3.57 0 0 0-3.032-3.531q.166-.11.309-.262h7.426a.19.19 0 0 0 .191-.187v-1.426a.186.186 0 0 0-.191-.188M21.12 5.06a.35.35 0 0 1 .348-.352h4.98c.196 0 .348.156.348.352v.625H21.12Zm2.645 7.398v1.574h-2.008v-1.574Zm-2.008-.379v-1.66h2.008v1.66Zm.62 4.64h3.165v5.31h-3.164Zm1.77-2.687v-1.574h2.012v1.574Zm0-1.953v-1.66h2.012v1.66Zm-2.39-3.555V7.508h4.402v1.015Zm-9.11 1.805c0-.039.04-.074.082-.074h6.93V20.69a1.91 1.91 0 0 0-1.234 1.336h-4.13a1.92 1.92 0 0 0-1.648-1.433Zm1.711 12.078h4.004q-.005.051-.004.102c0 .34.086.66.25.937h-4.496a1.83 1.83 0 0 0 .25-.937q.001-.051-.004-.102m-1.914-1.441a1.54 1.54 0 0 1 1.535 1.543 1.539 1.539 0 1 1-3.078 0c0-.852.692-1.543 1.543-1.543m-1.562-3.617v3.422a.19.19 0 0 1-.188.19.19.19 0 0 1-.191-.19v-3.422c0-.106.086-.192.191-.192a.19.19 0 0 1 .188.192M6.52 22.406h4.007q-.005.051-.004.102c0 .34.09.66.247.937H6.277a1.9 1.9 0 0 0 .25-.937q.002-.051-.007-.102m1.46-1.636v-2.973q.2-.146.375-.32v3.293a.186.186 0 0 1-.187.19.19.19 0 0 1-.188-.19m1.258 0v-3.422c0-.106.086-.192.196-.192.105 0 .187.086.187.192v3.422a.19.19 0 0 1-.187.19.193.193 0 0 1-.196-.19m.082-5.825h1.492v1.11H9.2a3.2 3.2 0 0 0 .133-.918c0-.067 0-.125-.012-.192m-3.3 3.117a2.93 2.93 0 0 1-2.93-2.925 2.933 2.933 0 0 1 2.93-2.93 2.93 2.93 0 0 1 2.93 2.93 2.93 2.93 0 0 1-2.93 2.925m-2.954 4.446a1.54 1.54 0 1 1 3.078 0 1.539 1.539 0 1 1-3.078 0m5.27 5.34a.02.02 0 0 1-.016.015L.88 27.848v-.227a3.196 3.196 0 0 1 3.191-3.195h1.07a3.2 3.2 0 0 1 3.196 3.195ZM5.684 24.09q.171-.11.308-.262h5.063c.093.102.199.188.308.262a3.56 3.56 0 0 0-2.836 2.387 3.57 3.57 0 0 0-2.843-2.387m10.488 3.758c0 .007-.008.015-.012.015l-7.441-.015v-.227a3.195 3.195 0 0 1 3.187-3.195h1.07a3.2 3.2 0 0 1 3.196 3.195ZM13.52 24.09a1.7 1.7 0 0 0 .312-.262h5.063q.137.152.308.262a3.56 3.56 0 0 0-2.84 2.39 3.57 3.57 0 0 0-2.843-2.39m10.492 3.531v.227c0 .007-.012.015-.016.015l-7.441-.015v-.227a3.197 3.197 0 0 1 3.195-3.195h1.066a3.2 3.2 0 0 1 3.196 3.195m-3.73-3.574a1.54 1.54 0 0 1 0-3.082 1.542 1.542 0 0 1 0 3.082m8.62-.602h-6.949c.156-.277.246-.597.246-.937q.001-.051-.004-.102h6.707Zm0 0"/></g><path fill="#061c3d" d="M22.79 1.633a.19.19 0 0 0 .19-.192V.496a.434.434 0 0 0-.43-.433h-.98a.192.192 0 0 0 0 .382h.79l-1.981 1.946c-.2-.145-.438-.23-.695-.23a1.164 1.164 0 0 0-.922 1.87v.004l-1.88 1.848q-.004-.002-.003-.004a1.172 1.172 0 0 0-1.695.285l-2.368-1.387q.024-.118.024-.242a1.164 1.164 0 1 0-2.09.707h.004L7.723 8.184a1.17 1.17 0 0 0-.618-.18c-.64 0-1.164.52-1.164 1.164 0 .637.524 1.16 1.164 1.16.641 0 1.165-.523 1.165-1.16a1.14 1.14 0 0 0-.258-.73l3.02-2.934a1.177 1.177 0 0 0 1.64-.363l2.36 1.379q-.036.135-.036.277c0 .644.524 1.168 1.168 1.168a1.164 1.164 0 0 0 .973-1.8l1.906-1.868a1.164 1.164 0 0 0 1.602-1.637L22.598.738v.703c0 .106.086.192.191.192M5.95 14.207h.695a.19.19 0 0 0 .187-.191.19.19 0 0 0-.187-.188H6.21v-.418a.192.192 0 0 0-.383 0v.43a.75.75 0 0 0-.621.75c0 .414.332.746.742.746h.14a.363.363 0 1 1 0 .727h-.694a.19.19 0 0 0-.188.19.19.19 0 0 0 .188.192h.433v.414a.192.192 0 0 0 .383 0v-.425a.744.744 0 0 0-.121-1.477h-.14c-.2 0-.364-.164-.364-.387 0-.199.164-.363.363-.363m0 0"/></svg>