<svg xmlns="http://www.w3.org/2000/svg" width="40" height="40" version="1.0" viewBox="0 0 30 30"><defs><clipPath id="a"><path d="M.484 2.633h29.032V22H.484Zm0 0"/></clipPath><clipPath id="b"><path d="M11 18h8v8.582h-8Zm0 0"/></clipPath><clipPath id="c"><path d="M7 23h16v3.582H7Zm0 0"/></clipPath></defs><g clip-path="url(#a)"><path fill="#061c3d" fill-rule="evenodd" d="M.484 3.957c0-.727.59-1.316 1.32-1.316h26.391c.73 0 1.32.59 1.32 1.316v15.836c0 .73-.59 1.32-1.32 1.32H1.805c-.73 0-1.32-.59-1.32-1.32Zm2.641 1.32v13.2h23.75v-13.2Zm0 0"/></g><g clip-path="url(#b)"><path fill="#061c3d" fill-rule="evenodd" d="M11.043 19.793c0-.727.59-1.316 1.316-1.316h5.282c.726 0 1.316.59 1.316 1.316v5.281c0 .727-.59 1.32-1.316 1.32h-5.282a1.32 1.32 0 0 1-1.316-1.32Zm2.637 1.32v2.64h2.64v-2.64Zm0 0"/></g><g clip-path="url(#c)"><path fill="#061c3d" fill-rule="evenodd" d="M7.082 23.754h15.836v2.64H7.082Zm0 0"/></g><path fill="#061c3d" fill-rule="evenodd" d="m4.828 10.945 3.961-3.96 1.867 1.867-3.027 3.027 3.027 3.023L8.79 16.77l-3.96-3.961a1.316 1.316 0 0 1 0-1.864M25.172 10.945l-3.961-3.96-1.867 1.867 3.027 3.027-3.027 3.023 1.867 1.868 3.96-3.961a1.316 1.316 0 0 0 0-1.864M11.809 15.977l3.957-9.239 2.425 1.04-3.957 9.238Zm0 0"/></svg>