<svg xmlns="http://www.w3.org/2000/svg" width="40" height="40" version="1.0" viewBox="0 0 30 30"><defs><clipPath id="a"><path d="M.484 1.215h29.032V28H.484Zm0 0"/></clipPath></defs><path fill="#061c3d" d="M17.719 17.836h-3.02c-.5 0-.5-1.813 0-1.813h3.02a.907.907 0 0 1 0 1.813m0 0"/><path fill="#061c3d" d="M17.719 20.559h-1.813a2.116 2.116 0 0 1-2.113-2.118v-3.023c0-1.164.945-2.113 2.113-2.113h1.813a.907.907 0 0 1 0 1.812h-1.813a.3.3 0 0 0-.3.301v3.023c0 .168.132.301.3.301h1.813a.908.908 0 0 1 0 1.816M11.676 20.559a.91.91 0 0 1-.793-.47l-1.324-2.378v1.937a.908.908 0 1 1-1.812 0v-5.437c0-.414.28-.774.679-.879a.9.9 0 0 1 1.02.438l1.324 2.382v-1.941a.907.907 0 0 1 1.812 0v5.437a.9.9 0 0 1-.68.88 1 1 0 0 1-.226.03M22.855 20.559a.91.91 0 0 1-.906-.91V14.21c0-.5 1.817-.5 1.817 0v5.437c0 .504-.407.91-.91.91m0 0"/><path fill="#061c3d" d="M24.973 15.117h-4.23a.907.907 0 0 1 0-1.812h4.23a.907.907 0 0 1 0 1.812M5.934 19.648c0 .254-.09.465-.266.645a.88.88 0 0 1-.64.266.88.88 0 0 1-.641-.266.89.89 0 0 1-.266-.645c0-.25.09-.46.266-.64a.88.88 0 0 1 .64-.266q.376.001.641.266c.176.18.266.39.266.64m0 0"/><g clip-path="url(#a)"><path fill="#061c3d" d="M25.879 1.215H4.12A3.63 3.63 0 0 0 .496 4.844v19.34c0 2 1.625 3.625 3.625 3.625H25.88c2 0 3.625-1.625 3.625-3.625V4.844c0-2-1.625-3.63-3.625-3.63m0 24.176H4.12c-.668 0-1.21-.54-1.21-1.207V7.262H27.09v16.922c0 .668-.543 1.207-1.211 1.207m0 0"/></g></svg>