<svg xmlns="http://www.w3.org/2000/svg" width="40" height="40" version="1.0" viewBox="0 0 30 30"><defs><clipPath id="a"><path d="M.484.055h29.032V29H.484Zm0 0"/></clipPath></defs><g clip-path="url(#a)"><path fill="#061c3d" d="M21.836 14.352a.47.47 0 0 1-.469.468H16.86a.467.467 0 0 1 0-.933h4.508c.258 0 .469.207.469.465m-.469 2.636H16.86a.467.467 0 0 0 0 .934h4.508a.467.467 0 1 0 0-.934m0 1.551H16.86a.467.467 0 0 0 0 .934h4.508a.467.467 0 1 0 0-.934m0-3.102H16.86a.467.467 0 0 0 0 .934h4.508a.467.467 0 1 0 0-.934m-4.972-2.636c0 .258.207.469.464.469h4.508a.467.467 0 1 0 0-.934H16.86a.463.463 0 0 0-.464.465M28.71 6.105a4.6 4.6 0 0 1-.316.77l.218.492a.47.47 0 0 1-.097.52l-.41.406a14.3 14.3 0 0 1 1.406 6.227c0 3.863-1.504 7.496-4.235 10.226a14.37 14.37 0 0 1-10.23 4.238c-1.715 0-3.395-.297-4.988-.882H10a.47.47 0 0 1-.395-.23l-.843-1.466h-.477l-.238.414.844 1.461a.465.465 0 0 1-.38.7q-.062.004-.132.003a2.4 2.4 0 0 1-2.086-1.207 2.4 2.4 0 0 1-.219-1.914 14.36 14.36 0 0 1-4.808-6.937 2.42 2.42 0 0 1-.555-2.461 15 15 0 0 1-.129-1.945c0-3.864 1.504-7.497 4.238-10.227A14.36 14.36 0 0 1 15.047.055c2.183 0 4.277.472 6.226 1.406l.407-.41a.47.47 0 0 1 .52-.094l.491.219q.37-.198.77-.32l.191-.504a.47.47 0 0 1 .438-.297h1.18c.195 0 .367.117.437.297l.191.503q.4.123.77.32l.492-.218a.47.47 0 0 1 .52.094l.836.836a.47.47 0 0 1 .097.52l-.218.491q.192.37.316.77l.504.191c.18.07.297.243.297.438v1.18a.47.47 0 0 1-.297.437ZM5.62 24.23l-2.64-4.574q-.24.001-.477-.05A13.4 13.4 0 0 0 5.62 24.23m4.234 2.204a1.479 1.479 0 0 0-1.66-1.332.47.47 0 0 1-.465-.23l-3.59-6.216a.47.47 0 0 1 .036-.515 1.48 1.48 0 0 0-.324-2.106l.418.727a.45.45 0 0 1 0 .465l-.504.878a.47.47 0 0 1-.407.235H2.344a.47.47 0 0 1-.403-.235l-.421-.722c.02.207.085.41.195.601.297.516.875.801 1.469.727q.03-.002.058-.004c.164 0 .32.09.403.234l3.59 6.22a.47.47 0 0 1-.032.515 1.48 1.48 0 0 0 .32 2.105l-.418-.726a.48.48 0 0 1 0-.47l.508-.878a.47.47 0 0 1 .403-.234H9.03c.168 0 .32.09.406.234ZM9.332 8.355v.223h4.73v-.223a2.36 2.36 0 0 0-1.113-2.007l-.113.882a.47.47 0 0 1-.465.407H11.02a.46.46 0 0 1-.461-.407l-.118-.882a2.37 2.37 0 0 0-1.109 2.007m2.098-1.652h.53l.142-1.062a1.1 1.1 0 0 0-.407-.098c-.23.02-.355.07-.402.098ZM9.727 9.512c.183.918.996 1.61 1.968 1.61.973 0 1.785-.692 1.973-1.61Zm4.765 3.539a4.4 4.4 0 0 0-1.77-.875l.614 1.937a.46.46 0 0 1-.094.45l-.824.93h2.074Zm-3.469 1.094.672.757.672-.757-.664-2.09h-.016Zm-.968-.032.617-1.937a4.45 4.45 0 0 0-2.711 1.926l.348.37a.46.46 0 0 1 .12.278l.071.742h2.473l-.825-.93a.47.47 0 0 1-.093-.449m-3.551-.21-.5.288.434 1.426.757.531q.081.06.133.149l2.942 5.094.335-.192-2.94-5.094a.5.5 0 0 1-.063-.19l-.086-.923Zm3.68 8.617 2.453 4.246 1.437-.828-2.453-4.25Zm18.394-8a13.35 13.35 0 0 0-1.238-5.665.5.5 0 0 1-.18-.035l-.492-.218a4.6 4.6 0 0 1-.77.316l-.191.504a.47.47 0 0 1-.437.297h-1.18a.47.47 0 0 1-.438-.297l-.191-.504a4.6 4.6 0 0 1-.77-.316l-.492.218a.47.47 0 0 1-.52-.097l-.835-.836a.47.47 0 0 1-.094-.52l.219-.492a4.3 4.3 0 0 1-.32-.77l-.5-.19a.465.465 0 0 1-.301-.438v-1.18c0-.195.117-.367.3-.438l.5-.191q.122-.4.32-.77l-.218-.492a.4.4 0 0 1-.04-.18A13.4 13.4 0 0 0 15.048.989C7.586.988 1.516 7.058 1.516 14.52q.002.621.054 1.242c.082.039.153.101.2.183l.843 1.461h.477l.238-.41-.844-1.465a.467.467 0 0 1 .38-.699 2.41 2.41 0 0 1 2.222 1.207c.434.75.43 1.66.008 2.398l3.3 5.72a2.42 2.42 0 0 1 2.079 1.206c.347.61.414 1.32.199 1.965q.726.246 1.469.41a.5.5 0 0 1-.079-.101L9.345 22.93a.88.88 0 0 1-.086-.66.9.9 0 0 1 .219-.383L6.57 16.852l-.8-.567a.47.47 0 0 1-.176-.246l-.59-1.93a.46.46 0 0 1 .21-.539l1.145-.66a.464.464 0 0 1 .575.086l.375.406a5.4 5.4 0 0 1 2.582-1.968 2.93 2.93 0 0 1-1.11-1.922h-.39a.467.467 0 0 1 0-.934h.007v-.223c0-1.335.793-2.523 2.008-3.035a.8.8 0 0 1 .145-.258c.215-.265.59-.417 1.113-.453h.063c.523.036.898.188 1.117.454a1 1 0 0 1 .144.257 3.29 3.29 0 0 1 2.008 3.035v.223H15a.467.467 0 1 1 0 .934h-.387c-.11.777-.52 1.46-1.113 1.925q.523.185.992.473v-.71c0-.52.426-.942.945-.942h1.372v-.156c0-.258.21-.465.468-.465h.739a1.27 1.27 0 0 1 1.097-.621c.461 0 .871.242 1.098.62h.742c.258 0 .465.208.465.466v.156h1.371c.523 0 .945.422.945.941v8.785a.944.944 0 0 1-.945.946h-7.352a.946.946 0 0 1-.945-.946v-3.558H8.926l2.504 4.336c.14-.04.293-.04.441 0a.85.85 0 0 1 .527.406l2.72 4.707a.462.462 0 0 1-.172.637l-2.247 1.297-.058.03q1.185.212 2.406.212c7.46 0 13.531-6.07 13.531-13.531m-8.094-3.95h-.582a.47.47 0 0 1-.453-.36.347.347 0 0 0-.672 0 .47.47 0 0 1-.453.36h-.582v.309h2.742Zm-3.675.774v-.153h-1.372c-.003 0-.011.004-.011.008v8.785c0 .008.008.012.011.012h7.352q.012 0 .012-.012V11.2q0-.007-.012-.008h-1.371v.153a.467.467 0 0 1-.465.469h-3.676a.47.47 0 0 1-.468-.47m11.77-6.727-.423-.164a.48.48 0 0 1-.289-.328 3.2 3.2 0 0 0-.394-.953.46.46 0 0 1-.028-.434l.184-.418-.383-.382-.418.187c-.14.063-.3.05-.433-.031a3.1 3.1 0 0 0-.954-.395.47.47 0 0 1-.328-.289L24.95.988h-.539l-.164.422a.46.46 0 0 1-.328.29q-.506.117-.953.394a.46.46 0 0 1-.434.031l-.418-.187-.383.382.188.418c.062.14.05.301-.031.434a3.2 3.2 0 0 0-.395.953.47.47 0 0 1-.285.328l-.426.164v.54l.426.163c.14.055.25.18.285.328.078.336.211.66.395.954a.46.46 0 0 1 .031.433l-.188.418.383.383.418-.184c.14-.062.301-.054.434.028q.447.276.953.394a.46.46 0 0 1 .328.29l.164.421h.54l.163-.422a.47.47 0 0 1 .328-.289c.336-.078.66-.21.954-.394a.47.47 0 0 1 .437-.028l.414.184.383-.383-.184-.418a.46.46 0 0 1 .028-.433c.183-.297.316-.618.394-.954a.47.47 0 0 1 .29-.328l.421-.164Zm-1.372.27a2.53 2.53 0 0 1-2.527 2.527 2.53 2.53 0 0 1-2.528-2.527 2.53 2.53 0 0 1 2.528-2.528 2.53 2.53 0 0 1 2.527 2.528m-.934 0c0-.88-.714-1.594-1.593-1.594-.88 0-1.594.715-1.594 1.594S23.8 6.48 24.68 6.48s1.593-.714 1.593-1.593m0 0"/></g></svg>