<svg xmlns="http://www.w3.org/2000/svg" width="40" height="40" version="1.0" viewBox="0 0 30 30"><defs><clipPath id="a"><path d="M.484 1.797h29.032v25.402H.484Zm0 0"/></clipPath></defs><path fill="#061c3d" d="M17.363 23.945c0-.761-.62-1.383-1.383-1.383-.757 0-1.378.622-1.378 1.383 0 .758.62 1.38 1.378 1.38.762 0 1.383-.622 1.383-1.38m-2.32 0c0-.52.422-.941.937-.941.52 0 .942.422.942.941a.94.94 0 0 1-1.879 0M8.422 7.074a2.265 2.265 0 1 0 1.59 4.241 2.265 2.265 0 0 0-1.59-4.24m2.504 1.48a1.83 1.83 0 0 1-1.067 2.352 1.83 1.83 0 0 1-2.351-1.07c-.453-1.203.445-2.465 1.707-2.465.738 0 1.437.45 1.71 1.184M20.195 7.852a.22.22 0 0 0-.218-.22h-4.168a.22.22 0 0 0-.22.22.22.22 0 0 0 .22.222h4.168a.22.22 0 0 0 .218-.222M15.98 9.332a.22.22 0 0 0-.218.219c0 .12.097.222.218.222h2.645a.22.22 0 0 0 .219-.222.22.22 0 0 0-.219-.219ZM10.785 22.902v-3.777a.218.218 0 1 0-.437 0v3.777a.218.218 0 1 0 .437 0M25.04 9.969a.22.22 0 0 0-.286.125l-.434 1.11a.22.22 0 0 0 .207.296.22.22 0 0 0 .203-.137l.434-1.11a.22.22 0 0 0-.125-.284M25.195 11.934c.11 0 .125-.051.844-.461a.22.22 0 0 0 .074-.301.22.22 0 0 0-.3-.078l-.731.43c-.191.113-.11.41.113.41M15.621 16.629a.7.7 0 0 1-.34.086c-.219 0-.386-.082-.476-.274a.9.9 0 0 1 0-.644c.144-.313.57-.328.816-.18.172.09.3-.082.234-.23-.062-.149-.41-.219-.59-.219-.406 0-.745.184-.886.559-.094.253-.094.628.05.898a.8.8 0 0 0 .329.332c.312.172.781.145 1.027-.023a.183.183 0 0 0 .047-.282c-.047-.05-.121-.07-.21-.023M17.773 15.203c-.085.059-.128.2-.644 1.129-.488-.879-.555-1.066-.645-1.129-.062-.039-.195-.047-.265.02-.09.086-.035.093-.051 1.656 0 .117.062.187.184.187.12 0 .183-.07.183-.187v-.95l.43.762c.047.079.098.098.16.098.063 0 .11-.02.16-.098l.43-.77v.958c0 .125.07.187.183.187.122 0 .184-.07.184-.187-.016-1.492.04-1.563-.047-1.656-.066-.067-.2-.059-.262-.02M18.82 15.738c0-.281.477-.277.73-.144.227.11.329-.184.157-.285-.441-.282-1.285-.145-1.285.449 0 .613.773.48.992.648.078.063.086.192-.023.27-.11.078-.485.097-.762-.059-.211-.105-.336.203-.137.313.168.097.43.144.625.144.781 0 .895-.64.63-.898-.18-.172-.927-.153-.927-.438m0 0"/><g clip-path="url(#a)"><path fill="#061c3d" d="M28.844 24.465a.345.345 0 0 0-.438-.215l-.25.086c-.093-.281-.21-.617-.293-.832-.011-.04-.008-.078.008-.098 1.59-1.515.246-3.96-.3-5.484-.262-.738-1.153-.844-1.61-.242-.352-.64-1.176-.61-1.547-.07-.379-.438-1.043-.383-1.398.035-.121-.329-.207-.594-.352-.961V13.32h.02c.277 0 .5-.222.5-.5V9.922a.494.494 0 0 0-.5-.492h-.02V7.969h.211a.5.5 0 0 0 .504-.492V5.738c0-.281-.223-.5-.504-.5h-.21V3.086c0-.688-.556-1.25-1.24-1.25H10.263c-.696 0-1.258.562-1.258 1.25v1.926l-.027-.07a.34.34 0 0 0-.184-.196.36.36 0 0 0-.41-.101l-.438.164a3.4 3.4 0 0 0-.386-.438l.21-.469a.375.375 0 0 0-.187-.5l-1.293-.59c-.18-.078-.39-.003-.5.192l-.184.422a3.4 3.4 0 0 0-.761-.043l-.172-.457a.363.363 0 0 0-.488-.23l-1.332.491a.384.384 0 0 0-.223.485l.16.418q-.347.245-.625.555l-.426-.196a.38.38 0 0 0-.5.188L.648 5.93a.376.376 0 0 0 .192.5l.394.175c-.043.274-.05.563-.03.86l-.442.164c-.192.086-.282.305-.203.48l.496 1.313c.058.2.27.305.488.238l.434-.168c.175.23.378.438.597.617l-.195.414a.387.387 0 0 0 .191.504c1.34.602 1.305.618 1.438.618a.38.38 0 0 0 .344-.22l.214-.468c.16.02.301.016.442.012l.195.515c.059.184.27.301.488.23l.446-.167q.258.341.61.625l-.204.426a.405.405 0 0 0 .191.511l1.32.586a.38.38 0 0 0 .5-.187l.216-.469c.078.008.156 0 .234.004v2.906a.218.218 0 1 0 .437 0v-2.898c.012 0 .028.004.04 0l.164.457c.066.14.207.23.363.23.144 0 .144-.039 1.457-.523.219-.067.32-.309.238-.488l-.168-.454a4 4 0 0 0 .617-.582l.47.215a.39.39 0 0 0 .5-.199l.597-1.312a.38.38 0 0 0-.188-.5l-.492-.223c.027-.235.035-.48.02-.727.09-.035.562-.207.472-.175.192-.075.285-.278.219-.493l-.504-1.328c-.059-.199-.27-.312-.488-.238l-.465.176a3.2 3.2 0 0 0-.492-.547l.215-.477a.38.38 0 0 0-.188-.5l-1.312-.59a.384.384 0 0 0-.5.188l-.192.426c-.133-.02-.254-.016-.383-.024V3.086c0-.445.368-.809.82-.809h2.571l.309.93c.07.238.316.43.554.43h4.227c.226 0 .465-.176.555-.43l.308-.93h2.64c.442 0 .802.364.802.809v13.098a.9.9 0 0 0-.547-.079v-1.757a.636.636 0 0 0-.63-.641l-4.148-.02-.547-.582a.5.5 0 0 0-.351-.152c-.567-.015-2.875-.066-2.758-.062a.62.62 0 0 0-.64.62v4.606c0 .352.273.625.624.625h7.829c.132 0 .25-.05.351-.12l.235.651c-.18-.058-.368-.09-.536-.054-.382.082-.785.453-.648 1.258.473 1.328 1.023 2.71 1.766 3.632v1.028c0 .441-.36.8-.801.8H10.262a.8.8 0 0 1-.82-.8v-7.274c0-.12-.098-.203-.22-.203-.12 0-.218.117-.218.238v8.11c0 .683.559 1.238 1.246 1.238h11.168c.687 0 1.246-.555 1.246-1.238v-1.434c.39.348.828.57 1.332.606.027.004.121.015.152.097l.141.391-.277.098a.343.343 0 0 0-.211.437l.219.637c.058.176.25.273.437.21l4.39-1.515a.34.34 0 0 0 .215-.437ZM4.789 7.934a.384.384 0 0 0 .195.5l.407.183a3.3 3.3 0 0 0-.032.676 2.15 2.15 0 0 1-2.37-1.355 2.18 2.18 0 0 1 1.257-2.786 2.17 2.17 0 0 1 2.637.98 3.8 3.8 0 0 0-.559.497l-.437-.203a.38.38 0 0 0-.5.187ZM9.91 5.848c.102.02.2-.032.242-.125l.239-.524 1.199.54-.258.57a.22.22 0 0 0 .063.257c.261.22.468.45.628.704.059.09.168.125.266.09l.555-.231.476 1.25-.57.21a.224.224 0 0 0-.145.227q.054.495-.023.954a.225.225 0 0 0 .125.238l.586.262-.55 1.207-.563-.254a.22.22 0 0 0-.266.062q-.335.43-.77.73a.215.215 0 0 0-.078.258l.204.547-1.235.47-.203-.548a.215.215 0 0 0-.203-.14c-.09 0-.418.054-.965-.016-.098-.02-.187.039-.23.125l-.254.562-1.211-.543.246-.527a.21.21 0 0 0-.067-.27 3.3 3.3 0 0 1-.75-.773.21.21 0 0 0-.257-.082l-.547.203c-.032-.09-.5-1.328-.465-1.238l.543-.195a.226.226 0 0 0 .14-.243c-.007-.039-.007-.085-.007-.125 0-.085-.059-.457.047-.945a.216.216 0 0 0-.122-.246l-.515-.234.547-1.203.531.246c.09.043.2.015.262-.063.386-.476.742-.648.828-.738a.21.21 0 0 0 .05-.23l-.199-.528 1.254-.465c.028.031.051.055.098.07l.184.504c.035.09.117.149.226.141.293-.023.594-.004.914.059m7.063-2.895h-2.278a.22.22 0 0 1-.218-.219c0-.113.097-.218.218-.218h2.278c.12 0 .218.105.218.218a.22.22 0 0 1-.218.22m4.086 15.348H13.23a.176.176 0 0 1-.183-.184v-4.605c0-.106.086-.192.187-.184l2.805.082.54.57c.089.11.218.165.366.165h4.106c.101 0 .191.093.191.203v1.933c-.285.219-.453.594-.293 1.047l.29.805a.174.174 0 0 1-.18.168m3.503 6.828a.61.61 0 0 0-.535-.387c-1.488-.105-2.41-2.336-3.144-4.379-.168-1.015.894-.851 1.074-.215l.629 1.758c.043.11.164.172.281.133a.22.22 0 0 0 .133-.281l-1.637-4.578c-.117-.32.063-.547.29-.63.206-.073.492-.038.613.305.03.09 1.25 3.5 1.172 3.286a.22.22 0 0 0 .28.129.21.21 0 0 0 .134-.278c-.153-.43-.606-1.699-.567-1.597-.11-.317.067-.54.293-.622.203-.074.488-.039.613.305l.13.36c.03.093.495 1.39.464 1.3.016.051.055.086.102.114.011.007.027.007.043.011.02.008.039.02.062.02a.216.216 0 0 0 .203-.293l-.46-1.297c-.114-.32.062-.543.288-.625.204-.074.489-.04.614.305l.203.57.308.86a.22.22 0 0 0 .282.132.22.22 0 0 0 .133-.281l-.313-.863c-.121-.344.078-.551.285-.625.227-.082.508-.02.621.304.574 1.602 1.762 3.735.414 5.02a.52.52 0 0 0-.117.57c.082.211.195.543.285.82l-3.035 1.047Zm0 0"/></g></svg>