<svg xmlns="http://www.w3.org/2000/svg" xmlns:xlink="http://www.w3.org/1999/xlink" width="40" zoomAndPan="magnify" viewBox="0 0 30 30.000001" height="40" preserveAspectRatio="xMidYMid meet" version="1.0"><defs><clipPath id="add4cbdbc7"><path d="M 0.484375 0 L 29.515625 0 L 29.515625 29.03125 L 0.484375 29.03125 Z M 0.484375 0 " clip-rule="nonzero"/></clipPath></defs><g clip-path="url(#add4cbdbc7)"><path fill="#ffffff" d="M 19.839844 9.664062 C 17.171875 6.996094 12.828125 6.996094 10.160156 9.664062 C 7.496094 12.332031 7.496094 16.671875 10.160156 19.339844 C 11.496094 20.671875 13.246094 21.339844 15 21.339844 C 16.753906 21.339844 18.503906 20.671875 19.839844 19.339844 C 22.503906 16.671875 22.503906 12.332031 19.839844 9.664062 Z M 10.671875 10.175781 C 13.058594 7.789062 16.941406 7.789062 19.328125 10.175781 C 21.699219 12.542969 21.710938 16.390625 19.371094 18.78125 C 18.953125 17.402344 17.8125 16.355469 16.414062 16.042969 C 17.179688 15.570312 17.695312 14.71875 17.695312 13.75 C 17.695312 12.265625 16.484375 11.058594 15 11.058594 C 13.515625 11.058594 12.304688 12.265625 12.304688 13.75 C 12.304688 14.71875 12.820312 15.570312 13.585938 16.042969 C 12.191406 16.355469 11.046875 17.402344 10.628906 18.78125 C 8.289062 16.390625 8.300781 12.542969 10.671875 10.175781 Z M 15 15.722656 C 13.914062 15.722656 13.027344 14.839844 13.027344 13.75 C 13.027344 12.664062 13.914062 11.78125 15 11.78125 C 16.085938 11.78125 16.972656 12.664062 16.972656 13.75 C 16.972656 14.839844 16.085938 15.722656 15 15.722656 Z M 11.234375 19.324219 C 11.53125 17.800781 12.875 16.671875 14.449219 16.671875 L 15.550781 16.671875 C 17.125 16.671875 18.46875 17.800781 18.765625 19.324219 C 17.664062 20.1875 16.332031 20.617188 15 20.617188 C 13.667969 20.617188 12.335938 20.1875 11.234375 19.324219 Z M 24.347656 7.035156 C 25.375 7.035156 26.210938 6.199219 26.210938 5.171875 C 26.210938 4.140625 25.375 3.304688 24.347656 3.304688 C 23.316406 3.304688 22.480469 4.140625 22.480469 5.171875 C 22.480469 6.199219 23.316406 7.035156 24.347656 7.035156 Z M 24.347656 4.027344 C 24.976562 4.027344 25.488281 4.539062 25.488281 5.167969 C 25.488281 5.800781 24.976562 6.3125 24.347656 6.3125 C 23.714844 6.3125 23.203125 5.800781 23.203125 5.167969 C 23.203125 4.539062 23.714844 4.027344 24.347656 4.027344 Z M 20.652344 5.75 C 20.652344 5.925781 20.777344 6.078125 20.953125 6.109375 L 21.339844 6.175781 C 21.386719 6.316406 21.441406 6.453125 21.507812 6.585938 L 21.28125 6.90625 C 21.183594 7.050781 21.199219 7.246094 21.324219 7.371094 L 22.144531 8.191406 C 22.269531 8.316406 22.464844 8.332031 22.609375 8.234375 L 22.929688 8.007812 C 23.0625 8.074219 23.199219 8.128906 23.339844 8.175781 L 23.40625 8.5625 C 23.4375 8.738281 23.589844 8.863281 23.765625 8.863281 L 24.925781 8.863281 C 25.101562 8.863281 25.253906 8.738281 25.285156 8.5625 L 25.351562 8.175781 C 25.492188 8.128906 25.628906 8.074219 25.761719 8.007812 L 26.082031 8.234375 C 26.226562 8.332031 26.421875 8.316406 26.546875 8.191406 L 27.367188 7.371094 C 27.492188 7.246094 27.507812 7.050781 27.410156 6.90625 L 27.183594 6.585938 C 27.25 6.453125 27.304688 6.316406 27.351562 6.175781 L 27.738281 6.109375 C 27.914062 6.078125 28.039062 5.925781 28.039062 5.75 L 28.039062 4.589844 C 28.039062 4.410156 27.914062 4.261719 27.738281 4.230469 L 27.351562 4.164062 C 27.304688 4.023438 27.25 3.886719 27.183594 3.753906 L 27.410156 3.433594 C 27.511719 3.289062 27.492188 3.09375 27.367188 2.96875 L 26.546875 2.148438 C 26.421875 2.023438 26.226562 2.007812 26.082031 2.105469 L 25.761719 2.332031 C 25.628906 2.265625 25.492188 2.210938 25.351562 2.164062 L 25.285156 1.777344 C 25.253906 1.601562 25.105469 1.476562 24.929688 1.476562 L 23.765625 1.476562 C 23.589844 1.476562 23.4375 1.601562 23.410156 1.777344 L 23.339844 2.164062 C 23.203125 2.210938 23.066406 2.265625 22.933594 2.332031 L 22.609375 2.105469 C 22.464844 2.003906 22.269531 2.023438 22.148438 2.148438 L 21.324219 2.96875 C 21.199219 3.09375 21.183594 3.289062 21.28125 3.433594 L 21.507812 3.753906 C 21.441406 3.886719 21.386719 4.023438 21.339844 4.164062 L 20.953125 4.230469 C 20.777344 4.261719 20.652344 4.410156 20.652344 4.585938 Z M 21.375 4.890625 L 21.683594 4.839844 C 21.824219 4.8125 21.9375 4.707031 21.972656 4.570312 C 22.03125 4.339844 22.121094 4.121094 22.246094 3.917969 C 22.316406 3.792969 22.3125 3.640625 22.230469 3.523438 L 22.050781 3.265625 L 22.441406 2.871094 L 22.699219 3.054688 C 22.816406 3.136719 22.972656 3.140625 23.09375 3.066406 C 23.296875 2.945312 23.515625 2.855469 23.746094 2.796875 C 23.886719 2.761719 23.992188 2.648438 24.015625 2.507812 L 24.070312 2.199219 L 24.625 2.199219 L 24.679688 2.507812 C 24.703125 2.648438 24.808594 2.761719 24.949219 2.796875 C 25.175781 2.855469 25.398438 2.945312 25.601562 3.066406 C 25.722656 3.140625 25.878906 3.136719 25.996094 3.054688 L 26.253906 2.871094 L 26.644531 3.265625 L 26.464844 3.523438 C 26.382812 3.640625 26.375 3.792969 26.449219 3.917969 C 26.570312 4.121094 26.664062 4.339844 26.722656 4.570312 C 26.753906 4.710938 26.867188 4.8125 27.007812 4.839844 L 27.320312 4.890625 L 27.320312 5.449219 L 27.007812 5.503906 C 26.867188 5.527344 26.753906 5.632812 26.722656 5.769531 C 26.664062 6 26.570312 6.21875 26.449219 6.421875 C 26.375 6.546875 26.382812 6.699219 26.464844 6.816406 L 26.644531 7.074219 L 26.253906 7.46875 L 25.996094 7.285156 C 25.878906 7.203125 25.722656 7.199219 25.601562 7.273438 C 25.398438 7.394531 25.175781 7.484375 24.949219 7.542969 C 24.808594 7.578125 24.703125 7.691406 24.679688 7.832031 L 24.625 8.140625 L 24.070312 8.140625 L 24.015625 7.832031 C 23.992188 7.691406 23.886719 7.578125 23.75 7.542969 C 23.519531 7.484375 23.300781 7.394531 23.09375 7.273438 C 22.972656 7.199219 22.816406 7.203125 22.703125 7.285156 L 22.445312 7.46875 L 22.050781 7.074219 L 22.230469 6.816406 C 22.3125 6.699219 22.320312 6.546875 22.246094 6.421875 C 22.125 6.21875 22.03125 6 21.976562 5.769531 C 21.941406 5.632812 21.828125 5.527344 21.6875 5.503906 L 21.375 5.449219 Z M 29.441406 14.5 C 29.441406 12.449219 29.023438 10.472656 28.195312 8.617188 C 29.015625 7.703125 29.515625 6.496094 29.515625 5.171875 C 29.515625 2.320312 27.195312 0 24.347656 0 C 23.027344 0 21.820312 0.5 20.902344 1.316406 C 19.042969 0.480469 17.058594 0.0585938 15 0.0585938 C 12.941406 0.0585938 10.957031 0.480469 9.097656 1.316406 C 8.179688 0.5 6.972656 0 5.652344 0 C 2.804688 0 0.484375 2.320312 0.484375 5.167969 C 0.484375 6.492188 0.984375 7.703125 1.804688 8.617188 C 0.976562 10.472656 0.554688 12.449219 0.554688 14.5 C 0.554688 16.558594 0.980469 18.542969 1.816406 20.402344 C 0.988281 21.320312 0.484375 22.53125 0.484375 23.863281 C 0.484375 26.714844 2.804688 29.03125 5.652344 29.03125 C 6.984375 29.03125 8.203125 28.527344 9.117188 27.695312 C 10.972656 28.523438 12.949219 28.945312 15 28.945312 C 17.050781 28.945312 19.027344 28.523438 20.878906 27.695312 C 21.796875 28.527344 23.011719 29.03125 24.34375 29.03125 C 27.195312 29.03125 29.515625 26.714844 29.515625 23.863281 C 29.515625 22.535156 29.011719 21.320312 28.183594 20.402344 C 29.019531 18.542969 29.441406 16.558594 29.441406 14.5 Z M 24.347656 0.722656 C 26.796875 0.722656 28.792969 2.71875 28.792969 5.167969 C 28.792969 7.621094 26.796875 9.617188 24.347656 9.617188 C 21.894531 9.617188 19.898438 7.621094 19.898438 5.167969 C 19.898438 2.71875 21.894531 0.722656 24.347656 0.722656 Z M 5.292969 0.738281 L 5.292969 1.269531 C 5.292969 1.46875 5.453125 1.632812 5.652344 1.632812 C 5.851562 1.632812 6.015625 1.46875 6.015625 1.269531 L 6.015625 0.738281 C 8.179688 0.914062 9.910156 2.644531 10.085938 4.808594 L 9.554688 4.808594 C 9.355469 4.808594 9.191406 4.972656 9.191406 5.171875 C 9.191406 5.371094 9.355469 5.53125 9.554688 5.53125 L 10.085938 5.53125 C 9.910156 7.695312 8.179688 9.425781 6.015625 9.601562 L 6.015625 9.070312 C 6.015625 8.871094 5.851562 8.710938 5.652344 8.710938 C 5.453125 8.710938 5.292969 8.871094 5.292969 9.070312 L 5.292969 9.601562 C 3.128906 9.425781 1.398438 7.695312 1.222656 5.53125 L 1.753906 5.53125 C 1.953125 5.53125 2.113281 5.371094 2.113281 5.171875 C 2.113281 4.972656 1.953125 4.808594 1.753906 4.808594 L 1.222656 4.808594 C 1.398438 2.644531 3.128906 0.914062 5.292969 0.738281 Z M 5.652344 28.308594 C 3.203125 28.308594 1.207031 26.316406 1.207031 23.863281 C 1.207031 21.410156 3.203125 19.414062 5.652344 19.414062 C 8.105469 19.414062 10.101562 21.410156 10.101562 23.863281 C 10.101562 26.316406 8.105469 28.308594 5.652344 28.308594 Z M 9.648438 27.136719 C 10.382812 26.246094 10.824219 25.105469 10.824219 23.863281 C 10.824219 21.011719 8.503906 18.691406 5.652344 18.691406 C 4.410156 18.691406 3.265625 19.136719 2.371094 19.871094 C 1.648438 18.175781 1.28125 16.371094 1.28125 14.5 C 1.28125 12.640625 1.644531 10.84375 2.363281 9.152344 C 3.257812 9.894531 4.40625 10.339844 5.65625 10.339844 C 8.503906 10.339844 10.824219 8.019531 10.824219 5.171875 C 10.824219 3.917969 10.375 2.765625 9.632812 1.871094 C 11.328125 1.148438 13.132812 0.78125 15 0.78125 C 16.867188 0.78125 18.671875 1.148438 20.371094 1.871094 C 19.625 2.765625 19.175781 3.917969 19.175781 5.171875 C 19.175781 8.019531 21.496094 10.339844 24.347656 10.339844 C 25.597656 10.339844 26.742188 9.894531 27.636719 9.152344 C 28.355469 10.84375 28.722656 12.640625 28.722656 14.5 C 28.722656 16.371094 28.355469 18.171875 27.628906 19.871094 C 26.738281 19.136719 25.59375 18.691406 24.347656 18.691406 C 21.496094 18.691406 19.175781 21.011719 19.175781 23.863281 C 19.175781 25.105469 19.617188 26.246094 20.351562 27.136719 C 18.660156 27.855469 16.863281 28.222656 15 28.222656 C 13.140625 28.222656 11.34375 27.855469 9.648438 27.136719 Z M 24.347656 28.308594 C 21.894531 28.308594 19.898438 26.316406 19.898438 23.863281 C 19.898438 21.410156 21.894531 19.414062 24.347656 19.414062 C 26.796875 19.414062 28.792969 21.410156 28.792969 23.863281 C 28.792969 26.316406 26.796875 28.308594 24.347656 28.308594 Z M 26.117188 25.140625 C 26.117188 25.914062 25.511719 26.5625 24.707031 26.726562 L 24.707031 27.183594 C 24.707031 27.382812 24.546875 27.542969 24.347656 27.542969 C 24.148438 27.542969 23.984375 27.382812 23.984375 27.183594 L 23.984375 26.738281 C 23.347656 26.632812 22.8125 26.226562 22.597656 25.664062 C 22.527344 25.476562 22.621094 25.269531 22.808594 25.195312 C 22.996094 25.125 23.203125 25.222656 23.277344 25.40625 C 23.417969 25.78125 23.84375 26.042969 24.3125 26.042969 C 24.910156 26.042969 25.394531 25.640625 25.394531 25.140625 C 25.394531 25.03125 25.375 24.660156 25.117188 24.558594 L 24.222656 24.203125 L 23.492188 23.953125 C 22.933594 23.761719 22.574219 23.222656 22.574219 22.582031 C 22.574219 21.8125 23.179688 21.164062 23.984375 21 L 23.984375 20.542969 C 23.984375 20.34375 24.148438 20.179688 24.347656 20.179688 C 24.546875 20.179688 24.707031 20.34375 24.707031 20.542969 L 24.707031 20.988281 C 25.34375 21.089844 25.878906 21.496094 26.09375 22.0625 C 26.164062 22.25 26.070312 22.457031 25.882812 22.527344 C 25.695312 22.597656 25.488281 22.503906 25.417969 22.316406 C 25.277344 21.945312 24.851562 21.683594 24.382812 21.683594 C 23.785156 21.683594 23.296875 22.085938 23.296875 22.582031 C 23.296875 22.84375 23.410156 23.160156 23.726562 23.265625 L 24.464844 23.519531 C 24.46875 23.523438 24.472656 23.523438 24.480469 23.527344 L 25.382812 23.886719 C 25.84375 24.070312 26.117188 24.539062 26.117188 25.140625 Z M 8.179688 20.964844 L 6.496094 20.964844 C 6.296875 20.964844 6.132812 21.125 6.132812 21.324219 L 6.132812 22.378906 L 4.8125 22.378906 C 4.613281 22.378906 4.449219 22.539062 4.449219 22.738281 L 4.449219 23.902344 L 3.128906 23.902344 C 2.929688 23.902344 2.765625 24.066406 2.765625 24.265625 L 2.765625 26.398438 C 2.765625 26.597656 2.929688 26.761719 3.128906 26.761719 L 8.179688 26.761719 C 8.378906 26.761719 8.539062 26.597656 8.539062 26.398438 L 8.539062 21.328125 C 8.539062 21.125 8.378906 20.964844 8.179688 20.964844 Z M 3.488281 24.625 L 4.449219 24.625 L 4.449219 26.039062 L 3.488281 26.039062 Z M 5.171875 23.101562 L 6.132812 23.101562 L 6.132812 26.039062 L 5.171875 26.039062 Z M 7.816406 26.035156 L 6.855469 26.035156 L 6.855469 21.6875 L 7.816406 21.6875 Z M 5.652344 6.398438 C 6.207031 6.398438 6.671875 6.03125 6.828125 5.53125 L 7.703125 5.53125 C 7.902344 5.53125 8.066406 5.371094 8.066406 5.171875 C 8.066406 4.972656 7.902344 4.808594 7.703125 4.808594 L 6.828125 4.808594 C 6.707031 4.421875 6.402344 4.117188 6.015625 3.996094 L 6.015625 2.625 C 6.015625 2.421875 5.851562 2.261719 5.652344 2.261719 C 5.453125 2.261719 5.292969 2.421875 5.292969 2.625 L 5.292969 3.996094 C 4.789062 4.152344 4.425781 4.617188 4.425781 5.167969 C 4.425781 5.847656 4.976562 6.398438 5.652344 6.398438 Z M 5.652344 4.664062 C 5.933594 4.664062 6.160156 4.890625 6.160156 5.167969 C 6.160156 5.449219 5.933594 5.675781 5.652344 5.675781 C 5.375 5.675781 5.148438 5.449219 5.148438 5.167969 C 5.148438 4.890625 5.375 4.664062 5.652344 4.664062 Z M 5.652344 4.664062 " fill-opacity="1" fill-rule="nonzero"/></g></svg>