<svg xmlns="http://www.w3.org/2000/svg" xmlns:xlink="http://www.w3.org/1999/xlink" width="40" zoomAndPan="magnify" viewBox="0 0 30 30.000001" height="40" preserveAspectRatio="xMidYMid meet" version="1.0"><defs><clipPath id="7598cd83c0"><path d="M 22 8 L 29.28125 8 L 29.28125 12 L 22 12 Z M 22 8 " clip-rule="nonzero"/></clipPath><clipPath id="839a894f0a"><path d="M 0.972656 2 L 8 2 L 8 6 L 0.972656 6 Z M 0.972656 2 " clip-rule="nonzero"/></clipPath><clipPath id="ec0e7e192a"><path d="M 22 19 L 29.28125 19 L 29.28125 24 L 22 24 Z M 22 19 " clip-rule="nonzero"/></clipPath><clipPath id="0fbe99cff2"><path d="M 0.972656 8 L 8 8 L 8 12 L 0.972656 12 Z M 0.972656 8 " clip-rule="nonzero"/></clipPath><clipPath id="765b5ea2ad"><path d="M 0.972656 0 L 8 0 L 8 3 L 0.972656 3 Z M 0.972656 0 " clip-rule="nonzero"/></clipPath><clipPath id="499b78770b"><path d="M 22 5 L 29.28125 5 L 29.28125 9 L 22 9 Z M 22 5 " clip-rule="nonzero"/></clipPath><clipPath id="66c0bf0751"><path d="M 22 24 L 29.28125 24 L 29.28125 26 L 22 26 Z M 22 24 " clip-rule="nonzero"/></clipPath><clipPath id="23e3413884"><path d="M 0.972656 5 L 8 5 L 8 9 L 0.972656 9 Z M 0.972656 5 " clip-rule="nonzero"/></clipPath><clipPath id="ce4a6f2be3"><path d="M 0.972656 24 L 8 24 L 8 26 L 0.972656 26 Z M 0.972656 24 " clip-rule="nonzero"/></clipPath><clipPath id="0c6b71b88b"><path d="M 0.972656 19 L 8 19 L 8 24 L 0.972656 24 Z M 0.972656 19 " clip-rule="nonzero"/></clipPath><clipPath id="620a90650f"><path d="M 22 2 L 29.28125 2 L 29.28125 6 L 22 6 Z M 22 2 " clip-rule="nonzero"/></clipPath><clipPath id="5d318f7633"><path d="M 22 0 L 29.28125 0 L 29.28125 3 L 22 3 Z M 22 0 " clip-rule="nonzero"/></clipPath><clipPath id="45194682e9"><path d="M 0.972656 26 L 8 26 L 8 29.03125 L 0.972656 29.03125 Z M 0.972656 26 " clip-rule="nonzero"/></clipPath><clipPath id="3c988bce4b"><path d="M 22 26 L 29.28125 26 L 29.28125 29.03125 L 22 29.03125 Z M 22 26 " clip-rule="nonzero"/></clipPath><clipPath id="c64443bcd2"><path d="M 11 26 L 19 26 L 19 29.03125 L 11 29.03125 Z M 11 26 " clip-rule="nonzero"/></clipPath></defs><g clip-path="url(#7598cd83c0)"><path fill="#061c3d" d="M 29.011719 10.011719 L 29.011719 8.308594 C 28.144531 8.769531 26.820312 9.011719 25.507812 9.011719 C 24.195312 9.011719 22.871094 8.769531 22.003906 8.308594 L 22.003906 10.011719 C 22.003906 10.300781 23.230469 11.011719 25.507812 11.011719 C 27.785156 11.011719 29.011719 10.300781 29.011719 10.011719 " fill-opacity="1" fill-rule="nonzero"/></g><g clip-path="url(#839a894f0a)"><path fill="#061c3d" d="M 4.484375 5.003906 C 6.761719 5.003906 7.988281 4.296875 7.988281 4.003906 L 7.988281 2.300781 C 7.121094 2.765625 5.800781 3.003906 4.484375 3.003906 C 3.171875 3.003906 1.851562 2.765625 0.980469 2.300781 L 0.980469 4.003906 C 0.980469 4.296875 2.207031 5.003906 4.484375 5.003906 " fill-opacity="1" fill-rule="nonzero"/></g><g clip-path="url(#ec0e7e192a)"><path fill="#061c3d" d="M 27.863281 20.875 L 26.863281 21.878906 C 26.765625 21.976562 26.636719 22.023438 26.507812 22.023438 C 26.378906 22.023438 26.253906 21.976562 26.15625 21.878906 C 25.960938 21.683594 25.960938 21.367188 26.15625 21.171875 L 27.15625 20.167969 C 27.351562 19.972656 27.667969 19.972656 27.863281 20.167969 C 28.058594 20.363281 28.058594 20.679688 27.863281 20.875 Z M 24.859375 20.875 L 23.859375 21.878906 C 23.761719 21.976562 23.636719 22.023438 23.507812 22.023438 C 23.378906 22.023438 23.25 21.976562 23.152344 21.878906 C 22.957031 21.683594 22.957031 21.367188 23.152344 21.171875 L 24.152344 20.167969 C 24.347656 19.972656 24.664062 19.972656 24.859375 20.167969 C 25.054688 20.363281 25.054688 20.679688 24.859375 20.875 Z M 28.511719 19.019531 L 22.503906 19.019531 C 22.230469 19.019531 22.003906 19.246094 22.003906 19.523438 L 22.003906 23.027344 L 29.011719 23.027344 L 29.011719 19.523438 C 29.011719 19.246094 28.789062 19.019531 28.511719 19.019531 " fill-opacity="1" fill-rule="nonzero"/></g><g clip-path="url(#0fbe99cff2)"><path fill="#061c3d" d="M 4.484375 11.011719 C 6.761719 11.011719 7.988281 10.300781 7.988281 10.011719 L 7.988281 8.308594 C 7.121094 8.769531 5.800781 9.011719 4.484375 9.011719 C 3.171875 9.011719 1.851562 8.769531 0.980469 8.308594 L 0.980469 10.011719 C 0.980469 10.300781 2.207031 11.011719 4.484375 11.011719 " fill-opacity="1" fill-rule="nonzero"/></g><g clip-path="url(#765b5ea2ad)"><path fill="#061c3d" d="M 4.484375 2.003906 C 6.761719 2.003906 7.988281 1.292969 7.988281 1 C 7.988281 0.710938 6.761719 0 4.484375 0 C 2.207031 0 0.980469 0.710938 0.980469 1 C 0.980469 1.292969 2.207031 2.003906 4.484375 2.003906 " fill-opacity="1" fill-rule="nonzero"/></g><g clip-path="url(#499b78770b)"><path fill="#061c3d" d="M 29.011719 5.304688 C 28.144531 5.769531 26.820312 6.007812 25.507812 6.007812 C 24.195312 6.007812 22.871094 5.769531 22.003906 5.304688 L 22.003906 7.007812 C 22.003906 7.300781 23.230469 8.007812 25.507812 8.007812 C 27.785156 8.007812 29.011719 7.300781 29.011719 7.007812 L 29.011719 5.304688 " fill-opacity="1" fill-rule="nonzero"/></g><g clip-path="url(#66c0bf0751)"><path fill="#061c3d" d="M 22.003906 25.027344 C 22.003906 25.304688 22.230469 25.527344 22.503906 25.527344 L 28.511719 25.527344 C 28.789062 25.527344 29.015625 25.304688 29.015625 25.027344 L 29.015625 24.027344 L 22.003906 24.027344 L 22.003906 25.027344 " fill-opacity="1" fill-rule="nonzero"/></g><g clip-path="url(#23e3413884)"><path fill="#061c3d" d="M 4.484375 8.007812 C 6.761719 8.007812 7.988281 7.300781 7.988281 7.007812 L 7.988281 5.304688 C 7.121094 5.769531 5.800781 6.007812 4.484375 6.007812 C 3.171875 6.007812 1.851562 5.769531 0.980469 5.304688 L 0.980469 7.007812 C 0.980469 7.300781 2.207031 8.007812 4.484375 8.007812 " fill-opacity="1" fill-rule="nonzero"/></g><g clip-path="url(#ce4a6f2be3)"><path fill="#061c3d" d="M 1.480469 25.527344 L 7.488281 25.527344 C 7.765625 25.527344 7.992188 25.304688 7.992188 25.027344 L 7.992188 24.027344 L 0.980469 24.027344 L 0.980469 25.027344 C 0.980469 25.304688 1.207031 25.527344 1.480469 25.527344 " fill-opacity="1" fill-rule="nonzero"/></g><g clip-path="url(#0c6b71b88b)"><path fill="#061c3d" d="M 6.839844 20.875 L 5.839844 21.878906 C 5.742188 21.976562 5.613281 22.023438 5.484375 22.023438 C 5.355469 22.023438 5.230469 21.976562 5.132812 21.878906 C 4.9375 21.683594 4.9375 21.367188 5.132812 21.171875 L 6.132812 20.167969 C 6.328125 19.972656 6.644531 19.972656 6.839844 20.167969 C 7.035156 20.363281 7.035156 20.679688 6.839844 20.875 Z M 3.835938 20.875 L 2.835938 21.878906 C 2.738281 21.976562 2.613281 22.023438 2.484375 22.023438 C 2.355469 22.023438 2.226562 21.976562 2.128906 21.878906 C 1.933594 21.683594 1.933594 21.367188 2.128906 21.171875 L 3.128906 20.167969 C 3.324219 19.972656 3.640625 19.972656 3.835938 20.167969 C 4.035156 20.363281 4.035156 20.679688 3.835938 20.875 Z M 7.988281 19.523438 C 7.988281 19.246094 7.765625 19.019531 7.488281 19.019531 L 1.480469 19.019531 C 1.207031 19.019531 0.980469 19.246094 0.980469 19.523438 L 0.980469 23.027344 L 7.988281 23.027344 L 7.988281 19.523438 " fill-opacity="1" fill-rule="nonzero"/></g><g clip-path="url(#620a90650f)"><path fill="#061c3d" d="M 29.011719 2.300781 C 28.144531 2.765625 26.820312 3.003906 25.507812 3.003906 C 24.195312 3.003906 22.871094 2.765625 22.003906 2.300781 L 22.003906 4.003906 C 22.003906 4.296875 23.230469 5.003906 25.507812 5.003906 C 27.785156 5.003906 29.011719 4.296875 29.011719 4.003906 L 29.011719 2.300781 " fill-opacity="1" fill-rule="nonzero"/></g><g clip-path="url(#5d318f7633)"><path fill="#061c3d" d="M 25.507812 0 C 23.230469 0 22.003906 0.710938 22.003906 1 C 22.003906 1.292969 23.230469 2.003906 25.507812 2.003906 C 27.785156 2.003906 29.011719 1.292969 29.011719 1 C 29.011719 0.710938 27.785156 0 25.507812 0 " fill-opacity="1" fill-rule="nonzero"/></g><path fill="#061c3d" d="M 11.492188 4.003906 C 11.492188 4.296875 12.71875 5.003906 14.996094 5.003906 C 17.273438 5.003906 18.5 4.296875 18.5 4.003906 L 18.5 2.300781 C 17.632812 2.765625 16.3125 3.003906 14.996094 3.003906 C 13.683594 3.003906 12.359375 2.765625 11.492188 2.300781 L 11.492188 4.003906 " fill-opacity="1" fill-rule="nonzero"/><path fill="#061c3d" d="M 11.492188 25.027344 C 11.492188 25.304688 11.71875 25.527344 11.992188 25.527344 L 18 25.527344 C 18.277344 25.527344 18.503906 25.304688 18.503906 25.027344 L 18.503906 24.027344 L 11.492188 24.027344 L 11.492188 25.027344 " fill-opacity="1" fill-rule="nonzero"/><path fill="#061c3d" d="M 12.640625 21.171875 L 13.640625 20.167969 C 13.835938 19.972656 14.152344 19.972656 14.347656 20.167969 C 14.546875 20.363281 14.546875 20.679688 14.347656 20.875 L 13.347656 21.878906 C 13.25 21.976562 13.125 22.023438 12.996094 22.023438 C 12.867188 22.023438 12.738281 21.976562 12.640625 21.878906 C 12.445312 21.683594 12.445312 21.367188 12.640625 21.171875 Z M 15.644531 21.171875 L 16.644531 20.167969 C 16.839844 19.972656 17.15625 19.972656 17.351562 20.167969 C 17.546875 20.363281 17.546875 20.679688 17.351562 20.875 L 16.351562 21.878906 C 16.253906 21.976562 16.125 22.023438 15.996094 22.023438 C 15.867188 22.023438 15.742188 21.976562 15.644531 21.878906 C 15.449219 21.683594 15.449219 21.367188 15.644531 21.171875 Z M 11.492188 23.027344 L 18.5 23.027344 L 18.5 19.523438 C 18.5 19.246094 18.277344 19.019531 18 19.019531 L 11.992188 19.019531 C 11.71875 19.019531 11.492188 19.246094 11.492188 19.523438 L 11.492188 23.027344 " fill-opacity="1" fill-rule="nonzero"/><path fill="#061c3d" d="M 11.492188 7.007812 C 11.492188 7.300781 12.71875 8.007812 14.996094 8.007812 C 17.273438 8.007812 18.5 7.300781 18.5 7.007812 L 18.5 5.304688 C 17.632812 5.769531 16.3125 6.007812 14.996094 6.007812 C 13.683594 6.007812 12.359375 5.769531 11.492188 5.304688 L 11.492188 7.007812 " fill-opacity="1" fill-rule="nonzero"/><path fill="#061c3d" d="M 11.492188 10.011719 C 11.492188 10.300781 12.71875 11.011719 14.996094 11.011719 C 17.273438 11.011719 18.5 10.300781 18.5 10.011719 L 18.5 8.308594 C 17.632812 8.769531 16.3125 9.011719 14.996094 9.011719 C 13.683594 9.011719 12.359375 8.769531 11.492188 8.308594 L 11.492188 10.011719 " fill-opacity="1" fill-rule="nonzero"/><path fill="#061c3d" d="M 11.492188 1 C 11.492188 1.292969 12.71875 2.003906 14.996094 2.003906 C 17.273438 2.003906 18.5 1.292969 18.5 1 C 18.5 0.710938 17.273438 0 14.996094 0 C 12.71875 0 11.492188 0.710938 11.492188 1 " fill-opacity="1" fill-rule="nonzero"/><g clip-path="url(#45194682e9)"><path fill="#061c3d" d="M 1.480469 29.03125 L 7.488281 29.03125 C 7.765625 29.03125 7.988281 28.808594 7.988281 28.53125 C 7.988281 28.257812 7.765625 28.03125 7.488281 28.03125 L 5.742188 28.03125 C 5.433594 27.636719 5.144531 27.128906 5.035156 26.53125 L 3.933594 26.53125 C 3.824219 27.128906 3.535156 27.636719 3.226562 28.03125 L 1.480469 28.03125 C 1.207031 28.03125 0.980469 28.257812 0.980469 28.53125 C 0.980469 28.808594 1.207031 29.03125 1.480469 29.03125 " fill-opacity="1" fill-rule="nonzero"/></g><g clip-path="url(#3c988bce4b)"><path fill="#061c3d" d="M 29.011719 28.53125 C 29.011719 28.257812 28.789062 28.03125 28.511719 28.03125 L 26.765625 28.03125 C 26.457031 27.636719 26.167969 27.128906 26.058594 26.53125 L 24.957031 26.53125 C 24.847656 27.128906 24.558594 27.636719 24.25 28.03125 L 22.503906 28.03125 C 22.230469 28.03125 22.003906 28.257812 22.003906 28.53125 C 22.003906 28.808594 22.230469 29.03125 22.503906 29.03125 L 28.511719 29.03125 C 28.789062 29.03125 29.011719 28.808594 29.011719 28.53125 " fill-opacity="1" fill-rule="nonzero"/></g><g clip-path="url(#c64443bcd2)"><path fill="#061c3d" d="M 11.992188 29.03125 L 18 29.03125 C 18.277344 29.03125 18.5 28.808594 18.5 28.53125 C 18.5 28.257812 18.277344 28.03125 18 28.03125 L 16.253906 28.03125 C 15.945312 27.636719 15.65625 27.128906 15.546875 26.53125 L 14.445312 26.53125 C 14.335938 27.128906 14.046875 27.636719 13.738281 28.03125 L 11.992188 28.03125 C 11.71875 28.03125 11.492188 28.257812 11.492188 28.53125 C 11.492188 28.808594 11.71875 29.03125 11.992188 29.03125 " fill-opacity="1" fill-rule="nonzero"/></g><path fill="#061c3d" d="M 3.984375 18.019531 L 4.984375 18.019531 L 4.984375 12.011719 L 3.984375 12.011719 L 3.984375 18.019531 " fill-opacity="1" fill-rule="nonzero"/><path fill="#061c3d" d="M 14.496094 18.019531 L 15.496094 18.019531 L 15.496094 12.011719 L 14.496094 12.011719 L 14.496094 18.019531 " fill-opacity="1" fill-rule="nonzero"/><path fill="#061c3d" d="M 25.007812 18.019531 L 26.007812 18.019531 L 26.007812 12.011719 L 25.007812 12.011719 L 25.007812 18.019531 " fill-opacity="1" fill-rule="nonzero"/></svg>