<svg xmlns="http://www.w3.org/2000/svg" width="40" height="40" version="1.0" viewBox="0 0 30 30"><defs><clipPath id="a"><path d="M.484 0h29.032v29H.484Zm0 0"/></clipPath></defs><g clip-path="url(#a)"><path fill="#061c3d" fill-rule="evenodd" d="M17.848 23.578c.23-.047.449-.105.668-.18 1.656-.55 4.312-2.062 6.543-3.32a1.08 1.08 0 0 1 1.378.258l.051.062c.367.442.325 1.09-.09 1.485-1.73 1.64-4.132 3.683-6.101 4.96-1.348.876-3.074 1.915-4.707 2.048-1.297.105-2.574-.368-3.871-.555-1.742-.25-3.582-.25-5.39-.23a.06.06 0 0 1-.044-.016.06.06 0 0 1-.02-.043v-5.422c0-.031.02-.055.048-.062a40 40 0 0 0 1.562-.387c1.555-.422 2.633-1.664 4.355-1.149l3.91 1.18c.618.188.977.84.805 1.461-.125.422-.558.582-.965.496-.945-.2-2.18-.55-3.07-.527a4 4 0 0 0-.504.043.451.451 0 1 0 .129.895c.27-.04.52-.052.79-.024.663.062 1.714.336 2.472.496.848.18 1.715-.223 2.004-1.078a.48.48 0 0 0 .004-.313q-.01-.023.004-.047a.06.06 0 0 1 .039-.03M25.69 7.363a.45.45 0 0 1 .551.32.447.447 0 0 1-.316.551l-.149.04a.06.06 0 0 0-.043.058c0 .023.016.047.04.059 1.757.613 3.593 1.601 3.593 3.07 0 1.992-3.375 3.101-5.355 3.59a.45.45 0 0 1-.215-.875c1.515-.371 2.742-.836 3.57-1.36 1.461-.918 1.461-1.793 0-2.71-.441-.278-.996-.54-1.648-.782-.028-.008-.055 0-.07.024a.06.06 0 0 0 0 .07.45.45 0 0 1-.668.605L23.585 8.63a.45.45 0 0 1 .203-.754Zm-21.488 6.14a.45.45 0 0 1 .031-.6.45.45 0 0 1 .641 0l1.39 1.39a.453.453 0 0 1-.128.73q-.004-.001-.008.004l-1.969.532a.45.45 0 0 1-.55-.32.45.45 0 0 1 .32-.552l.144-.039c.024-.007.043-.027.043-.054a.06.06 0 0 0-.039-.059C2.32 13.918.484 12.93.484 11.461c0-1.992 3.38-3.102 5.356-3.59a.455.455 0 0 1 .547.332.45.45 0 0 1-.332.543c-1.516.375-2.742.836-3.57 1.36-1.458.917-1.458 1.792 0 2.71.44.282 1 .543 1.652.782.023.011.05 0 .066-.02a.06.06 0 0 0 0-.074M14.898.048 7.387 3.992c-.02.008-.032.028-.032.051v7.309c0 2.351 1.051 4.378 2.977 5.73l4.559 3.203c.023.016.05.016.07 0l4.559-3.203c1.925-1.352 2.98-3.379 2.98-5.73V4.043c0-.023-.012-.043-.035-.05L14.953.046a.07.07 0 0 0-.055 0m-2.41 10.39a.45.45 0 0 1 0-.636.455.455 0 0 1 .64 0l1.661 1.66c.012.016.027.02.047.02a.05.05 0 0 0 .043-.024l4.766-5.828a.444.444 0 0 1 .632-.063.45.45 0 0 1 .067.633l-5.114 6.258a.454.454 0 0 1-.68.043Zm-2.199 2.114a.451.451 0 1 1 .816-.387c.5 1.059 1.235 1.793 2.368 2.191 2.46.864 5.214-.628 5.78-3.257a.06.06 0 0 0-.023-.059c-.585-.46-.41-1.414.332-1.613a.917.917 0 0 1 1.125.652.92.92 0 0 1-.5 1.07.06.06 0 0 0-.035.043 5.34 5.34 0 0 1-6.132 4.235c-1.399-.242-2.618-1.02-3.375-2.223a6 6 0 0 1-.356-.652m-.621-3.36a.06.06 0 0 0 .031-.043 5.3 5.3 0 0 1 1.055-2.285A5.32 5.32 0 0 1 18 5.824a.45.45 0 0 1 .11.63.454.454 0 0 1-.63.109 4.4 4.4 0 0 0-1.777-.747 4.43 4.43 0 0 0-5.105 3.426.07.07 0 0 0 .023.063c.586.457.41 1.414-.328 1.613a.922.922 0 0 1-.625-1.727m-5.887 12.79h.914c.364 0 .664.3.664.667v5.63a.67.67 0 0 1-.664.667h-.914a.67.67 0 0 1-.668-.668v-5.629c0-.367.301-.668.668-.668m0 0"/></g></svg>