<svg xmlns="http://www.w3.org/2000/svg" xmlns:xlink="http://www.w3.org/1999/xlink" width="40" zoomAndPan="magnify" viewBox="0 0 30 30.000001" height="40" preserveAspectRatio="xMidYMid meet" version="1.0"><defs><clipPath id="fa62dcc243"><path d="M 0.484375 0.363281 L 29.515625 0.363281 L 29.515625 29.03125 L 0.484375 29.03125 Z M 0.484375 0.363281 " clip-rule="nonzero"/></clipPath></defs><g clip-path="url(#fa62dcc243)"><path fill="#061c3d" d="M 0.824219 13.488281 L 6.144531 13.488281 L 4.753906 11.914062 C 4.484375 11.609375 4.394531 11.191406 4.519531 10.804688 L 5.472656 7.800781 C 2.921875 8.414062 0.949219 10.515625 0.523438 13.136719 C 0.496094 13.320312 0.636719 13.488281 0.824219 13.488281 Z M 25.242188 19.132812 C 25.675781 19.242188 26.09375 19.414062 26.476562 19.644531 C 26.511719 19.664062 26.550781 19.667969 26.589844 19.652344 L 27.332031 19.320312 C 27.378906 19.300781 27.433594 19.308594 27.46875 19.34375 L 28.386719 20.261719 C 28.421875 20.296875 28.429688 20.351562 28.410156 20.398438 L 28.078125 21.140625 C 28.0625 21.175781 28.066406 21.21875 28.085938 21.25 C 28.316406 21.636719 28.488281 22.054688 28.597656 22.488281 C 28.609375 22.527344 28.636719 22.558594 28.671875 22.574219 L 29.433594 22.863281 C 29.480469 22.882812 29.507812 22.925781 29.507812 22.976562 L 29.507812 24.273438 C 29.507812 24.324219 29.480469 24.367188 29.433594 24.386719 L 28.671875 24.679688 C 28.636719 24.695312 28.609375 24.722656 28.597656 24.761719 C 28.488281 25.199219 28.316406 25.613281 28.085938 26 C 28.066406 26.035156 28.0625 26.074219 28.078125 26.109375 L 28.410156 26.855469 C 28.429688 26.902344 28.421875 26.953125 28.386719 26.988281 L 27.46875 27.90625 C 27.429688 27.941406 27.378906 27.953125 27.332031 27.933594 L 26.589844 27.601562 C 26.550781 27.585938 26.511719 27.585938 26.476562 27.609375 C 26.09375 27.839844 25.675781 28.011719 25.242188 28.121094 C 25.203125 28.132812 25.171875 28.15625 25.15625 28.195312 L 24.867188 28.953125 C 24.847656 29 24.804688 29.03125 24.753906 29.03125 L 23.457031 29.03125 C 23.40625 29.03125 23.359375 29 23.34375 28.953125 L 23.050781 28.195312 C 23.035156 28.15625 23.007812 28.128906 22.96875 28.121094 C 22.53125 28.011719 22.117188 27.839844 21.730469 27.609375 C 21.695312 27.585938 21.65625 27.585938 21.617188 27.601562 L 20.875 27.933594 C 20.828125 27.953125 20.777344 27.941406 20.738281 27.90625 L 19.824219 26.988281 C 19.785156 26.953125 19.777344 26.902344 19.796875 26.855469 L 20.128906 26.109375 C 20.144531 26.074219 20.140625 26.035156 20.121094 26 C 19.890625 25.613281 19.71875 25.199219 19.609375 24.761719 C 19.597656 24.722656 19.574219 24.695312 19.535156 24.679688 L 18.777344 24.386719 C 18.726562 24.367188 18.699219 24.324219 18.699219 24.273438 L 18.699219 22.976562 C 18.699219 22.925781 18.726562 22.882812 18.777344 22.863281 L 19.535156 22.570312 C 19.574219 22.558594 19.597656 22.527344 19.609375 22.488281 C 19.71875 22.054688 19.890625 21.636719 20.121094 21.25 C 20.140625 21.21875 20.144531 21.179688 20.128906 21.140625 L 19.796875 20.398438 C 19.777344 20.351562 19.785156 20.296875 19.824219 20.261719 L 20.738281 19.34375 C 20.777344 19.308594 20.828125 19.300781 20.875 19.320312 L 21.617188 19.648438 C 21.65625 19.667969 21.695312 19.664062 21.730469 19.644531 C 22.117188 19.414062 22.53125 19.242188 22.96875 19.128906 C 23.007812 19.121094 23.035156 19.09375 23.050781 19.058594 L 23.34375 18.296875 C 23.359375 18.25 23.40625 18.21875 23.457031 18.21875 L 24.753906 18.21875 C 24.804688 18.21875 24.847656 18.25 24.867188 18.296875 L 25.15625 19.058594 C 25.171875 19.09375 25.203125 19.121094 25.242188 19.132812 Z M 24.105469 21.074219 C 22.695312 21.074219 21.550781 22.214844 21.550781 23.625 C 21.550781 25.035156 22.695312 26.175781 24.105469 26.175781 C 25.511719 26.175781 26.65625 25.035156 26.65625 23.625 C 26.65625 22.214844 25.511719 21.074219 24.105469 21.074219 Z M 13.066406 6.90625 C 11.84375 7.296875 11.085938 7.765625 11.085938 8.226562 C 11.085938 8.691406 11.84375 9.160156 13.066406 9.550781 C 16.074219 10.507812 20.964844 10.507812 23.972656 9.550781 C 25.195312 9.160156 25.953125 8.691406 25.953125 8.226562 C 25.953125 7.765625 25.195312 7.296875 23.972656 6.90625 C 20.964844 5.949219 16.074219 5.949219 13.066406 6.90625 Z M 12.777344 20.710938 C 12.097656 20.496094 11.523438 20.234375 11.085938 19.933594 L 11.085938 23.59375 C 11.085938 24.054688 11.84375 24.523438 13.066406 24.914062 C 14.453125 25.355469 16.378906 25.628906 18.519531 25.628906 C 18.636719 25.628906 18.753906 25.628906 18.867188 25.625 C 18.84375 25.5625 18.820312 25.496094 18.796875 25.433594 L 18.429688 25.289062 C 18.007812 25.128906 17.730469 24.726562 17.730469 24.273438 L 17.730469 22.976562 C 17.730469 22.527344 18.007812 22.125 18.429688 21.960938 L 18.800781 21.820312 C 18.839844 21.703125 18.882812 21.585938 18.929688 21.472656 C 16.9375 21.503906 14.679688 21.316406 12.777344 20.710938 Z M 14.4375 22.949219 C 14.4375 23.488281 14 23.925781 13.460938 23.925781 C 12.925781 23.925781 12.488281 23.488281 12.488281 22.949219 C 12.488281 22.410156 12.925781 21.972656 13.460938 21.972656 C 14 21.972656 14.4375 22.410156 14.4375 22.949219 Z M 12.777344 15.589844 C 12.097656 15.375 11.523438 15.113281 11.085938 14.8125 L 11.085938 18.46875 C 11.085938 18.933594 11.84375 19.402344 13.066406 19.792969 C 14.84375 20.359375 16.972656 20.527344 18.832031 20.503906 C 18.785156 20.171875 18.890625 19.824219 19.140625 19.578125 L 20.054688 18.660156 C 20.375 18.34375 20.855469 18.253906 21.269531 18.433594 L 21.632812 18.597656 C 21.847656 18.492188 22.070312 18.398438 22.296875 18.320312 L 22.441406 17.949219 C 22.601562 17.527344 23.003906 17.253906 23.457031 17.253906 L 24.753906 17.253906 C 25.203125 17.253906 25.605469 17.527344 25.769531 17.949219 L 25.910156 18.320312 C 25.925781 18.324219 25.941406 18.332031 25.953125 18.335938 L 25.953125 14.8125 C 25.515625 15.113281 24.945312 15.375 24.265625 15.589844 C 21.054688 16.613281 15.988281 16.613281 12.777344 15.589844 Z M 14.4375 17.769531 C 14.4375 18.308594 14 18.746094 13.460938 18.746094 C 12.925781 18.746094 12.488281 18.308594 12.488281 17.769531 C 12.488281 17.234375 12.925781 16.796875 13.460938 16.796875 C 14 16.796875 14.4375 17.234375 14.4375 17.769531 Z M 12.777344 10.46875 C 15.988281 11.492188 21.054688 11.492188 24.265625 10.46875 C 24.945312 10.253906 25.515625 9.992188 25.953125 9.691406 L 25.953125 13.347656 C 25.953125 13.8125 25.195312 14.28125 23.972656 14.671875 C 20.964844 15.628906 16.074219 15.628906 13.066406 14.671875 C 12.585938 14.519531 11.089844 14.007812 11.085938 13.347656 L 11.085938 9.691406 C 11.601562 10.042969 12.1875 10.28125 12.777344 10.46875 Z M 13.460938 11.761719 C 12.941406 11.761719 12.519531 12.171875 12.488281 12.675781 C 12.457031 13.238281 12.898438 13.710938 13.460938 13.710938 C 14 13.710938 14.4375 13.273438 14.4375 12.738281 C 14.4375 12.199219 14 11.761719 13.460938 11.761719 Z M 6.546875 7.617188 L 7.484375 7.617188 L 8.589844 11.097656 C 8.609375 11.160156 8.597656 11.222656 8.554688 11.273438 L 7.152344 12.855469 C 7.078125 12.9375 6.953125 12.9375 6.878906 12.855469 L 5.476562 11.273438 C 5.433594 11.222656 5.421875 11.160156 5.441406 11.097656 Z M 7.015625 0.363281 C 8.851562 0.363281 10.339844 1.851562 10.339844 3.6875 C 10.339844 5.523438 8.851562 7.011719 7.015625 7.011719 C 5.179688 7.011719 3.691406 5.523438 3.691406 3.6875 C 3.691406 1.851562 5.179688 0.363281 7.015625 0.363281 Z M 7.886719 13.488281 L 10.117188 13.488281 L 10.117188 8.394531 C 9.632812 8.132812 9.109375 7.933594 8.558594 7.800781 L 9.511719 10.804688 C 9.636719 11.191406 9.546875 11.609375 9.277344 11.914062 Z M 7.886719 13.488281 " fill-opacity="1" fill-rule="evenodd"/></g></svg>