<svg xmlns="http://www.w3.org/2000/svg" width="40" height="40" version="1.0" viewBox="0 0 30 30"><defs><clipPath id="a"><path d="M.957 0h28.305v29.031H.957Zm0 0"/></clipPath></defs><g clip-path="url(#a)"><path fill="#061c3d" fill-rule="evenodd" d="M14.309 28.023c0 .23.117.352.347.352h11.985c.324 0 .664-.277.738-.594l1.36-5.672c.058-.246-.063-.441-.337-.441H16.418c-.324 0-.664.277-.738.594l-1.36 5.672zm12.875-7.011H16.418c-.621 0-1.23.488-1.375 1.097l-.734 3.063v-7.485a.52.52 0 0 1 .515-.515h2.364a.5.5 0 0 1 .261.066.55.55 0 0 1 .188.192l.586 1.015c.105.184.254.332.425.43v.004q.266.152.59.152h7.43c.285 0 .516.235.516.52ZM14.07 1.699C11.195.672 6.492.672 3.613 1.7c-2.652.95-2.652 2.25 0 3.2 2.88 1.027 7.582 1.027 10.457 0 2.657-.95 2.657-2.25 0-3.2M3.828 7.234a.33.33 0 1 1-.207.625l-.531-.195a.328.328 0 1 1 .246-.61Zm0 4.532a.336.336 0 0 1 .211.418.33.33 0 0 1-.418.207l-.531-.192a.334.334 0 0 1-.184-.43.326.326 0 0 1 .43-.18Zm0 4.535a.33.33 0 0 1 .211.414.334.334 0 0 1-.418.21l-.531-.195a.328.328 0 1 1 .246-.609Zm12.238-8.473c0 .59-.761 1.16-1.996 1.598-1.332.476-3.18.773-5.226.773-3.989 0-7.223-1.062-7.223-2.37V4.55c.422.37 1.027.699 1.774.965 3.02 1.082 7.878 1.082 10.898 0 .75-.266 1.355-.594 1.773-.965Zm0 4.531V9.08c-.418.374-1.023.702-1.773.968-1.398.5-3.328.808-5.45.808-3.23 0-6.003-.746-7.222-1.812v3.316c0 1.313 3.234 2.371 7.223 2.371 2.047 0 3.894-.293 5.226-.77 1.235-.44 1.996-1.007 1.996-1.6m-2.414 6.957c-3.074.883-7.472.793-10.257-.203-1.317-.468-2.192-1.129-2.387-1.886a.34.34 0 0 1-.043-.165V3.297c0-.899.93-1.68 2.43-2.219C6.415 0 11.273 0 14.293 1.078c1.504.54 2.43 1.32 2.43 2.219v13.219h.465c.425 0 .804.214 1.015.586l.586 1.015a.55.55 0 0 0 .188.192.5.5 0 0 0 .261.066h7.43c.648 0 1.176.527 1.176 1.176v1.46c.23 0 .613-.019.82.032.555.133.844.66.711 1.219l-1.36 5.672c-.144.609-.753 1.097-1.374 1.097H14.656c-.562 0-1.008-.41-1.008-.98Zm-12.03-2.421c0 .59.76 1.156 1.991 1.597 2.696.965 7.09 1.043 10.04.14v-.945h-.005c0-.644.528-1.171 1.176-1.171h1.242v-2.903c-.418.371-1.023.7-1.773.965-1.398.504-3.328.813-5.45.813-3.23 0-6.003-.746-7.222-1.817Zm21.98-1.485-.301.75a8.62 8.62 0 0 0-5.371-5.062.33.33 0 0 0-.414.214.326.326 0 0 0 .21.41 7.98 7.98 0 0 1 5.024 4.833l-.941-.38a.33.33 0 0 0-.426.184c-.07.168.012.36.183.43l1.57.625a.327.327 0 0 0 .45-.191l.625-1.57a.323.323 0 0 0-.18-.426.33.33 0 0 0-.43.183M6.89 22.82l.28-.695a8.62 8.62 0 0 0 5.11 5.219.329.329 0 1 0 .227-.617 7.96 7.96 0 0 1-4.801-5.067l.977.39a.326.326 0 0 0 .43-.179.33.33 0 0 0-.184-.43l-1.586-.632a.32.32 0 0 0-.426.183l-.637 1.586a.328.328 0 0 0 .61.242m0 0"/></g></svg>