<svg xmlns="http://www.w3.org/2000/svg" width="40" height="40" version="1.0" viewBox="0 0 30 30"><defs><clipPath id="a"><path d="M.484.473h29.032v28.304H.484Zm0 0"/></clipPath></defs><g clip-path="url(#a)"><path fill="#fff" fill-rule="evenodd" d="m6.422 4.348.656 1.734a.14.14 0 0 0 .121.09l1.852.09c.129.004.18.164.082.242L7.688 7.668a.124.124 0 0 0-.047.14l.484 1.79c.035.12-.102.222-.207.152l-1.55-1.016a.135.135 0 0 0-.153 0L4.665 9.75c-.106.07-.24-.031-.208-.152l.488-1.79a.14.14 0 0 0-.047-.14L3.453 6.504c-.098-.078-.047-.238.078-.242l1.852-.09a.14.14 0 0 0 .12-.09l.661-1.734c.043-.118.211-.118.258 0M23.238.586l.66 1.734c.02.051.063.086.122.086l1.851.094c.125.004.176.164.078.242l-1.445 1.16a.14.14 0 0 0-.047.145l.488 1.789a.138.138 0 0 1-.207.152l-1.554-1.015a.13.13 0 0 0-.149 0l-1.55 1.015c-.106.067-.243-.031-.208-.152l.485-1.79a.14.14 0 0 0-.047-.144l-1.445-1.16a.136.136 0 0 1 .082-.242l1.851-.09a.14.14 0 0 0 .121-.09L22.98.586c.047-.117.215-.117.258 0M26.7 9.652l.656 1.735c.024.05.067.086.125.09l1.852.09c.125.003.176.163.078.242l-1.445 1.164a.13.13 0 0 0-.047.14l.488 1.79c.032.124-.101.222-.207.152l-1.554-1.016a.13.13 0 0 0-.149 0l-1.55 1.016a.137.137 0 0 1-.208-.153l.485-1.789a.13.13 0 0 0-.047-.14l-1.446-1.164a.136.136 0 0 1 .082-.243l1.852-.09a.14.14 0 0 0 .121-.09l.656-1.734c.047-.117.215-.117.258 0M3.56 13.246l.656 1.734a.13.13 0 0 0 .12.086l1.856.094c.125.004.176.164.079.242l-1.446 1.16a.14.14 0 0 0-.047.145l.485 1.79c.035.12-.102.218-.207.151l-1.551-1.015a.13.13 0 0 0-.149 0l-1.554 1.015a.138.138 0 0 1-.207-.152l.488-1.789a.14.14 0 0 0-.047-.145L.59 15.403c-.098-.078-.047-.238.078-.242l1.852-.094a.13.13 0 0 0 .125-.086l.656-1.734c.043-.117.21-.117.258 0m8.824 6.242a.795.795 0 0 1 1.12 0l.802.801 2.164-2.168a.795.795 0 0 1 1.12 0c0 .074.536.582 0 1.117l-2.71 2.711c-.395.395-.918.235-1.266-.113l-1.23-1.23a.797.797 0 0 1 0-1.118m10.976-.547-1.261-.488c-.04-.012-.063-.043-.075-.082a7.3 7.3 0 0 0-.824-1.996.11.11 0 0 1-.008-.11l.547-1.238a.11.11 0 0 0-.023-.132l-1.496-1.497a.12.12 0 0 0-.137-.027l-1.234.55a.13.13 0 0 1-.114-.007 7.2 7.2 0 0 0-1.992-.828.12.12 0 0 1-.086-.07l-.484-1.262a.12.12 0 0 0-.113-.078H13.94a.12.12 0 0 0-.113.078l-.484 1.262a.12.12 0 0 1-.086.07 7.2 7.2 0 0 0-1.992.828.13.13 0 0 1-.114.008l-1.234-.55a.12.12 0 0 0-.137.026l-1.496 1.497a.11.11 0 0 0-.023.132l.547 1.239q.024.06-.008.113a7.2 7.2 0 0 0-.824 1.992c-.012.04-.036.07-.075.082l-1.261.488a.12.12 0 0 0-.079.114v2.117c0 .05.032.094.079.113l1.261.485a.12.12 0 0 1 .075.082c.171.703.453 1.375.824 1.996a.11.11 0 0 1 .008.109l-.547 1.238a.11.11 0 0 0 .023.133l1.496 1.5c.04.035.09.043.137.024l1.234-.551a.13.13 0 0 1 .114.008c.617.375 1.289.652 1.992.828q.06.014.086.074l.484 1.262c.02.047.063.078.113.078h2.118c.05 0 .093-.031.113-.078l.484-1.262a.12.12 0 0 1 .086-.074 7.2 7.2 0 0 0 1.992-.828.13.13 0 0 1 .114-.008l1.234.55c.047.02.098.012.137-.023l1.496-1.5a.11.11 0 0 0 .023-.133l-.547-1.238a.11.11 0 0 1 .008-.11 7.3 7.3 0 0 0 .824-1.995.12.12 0 0 1 .075-.082l1.261-.485a.12.12 0 0 0 .078-.113v-2.117a.12.12 0 0 0-.078-.114m-8.37 5.575a4.481 4.481 0 1 1 0-8.961 4.48 4.48 0 1 1 0 8.96m-.02-22.047a3.087 3.087 0 0 0 0 6.176 6.11 6.11 0 0 0-5.711 3.94c.305-.206.703-.25 1.05-.093l.848.375q.693-.364 1.438-.594l.336-.867c.16-.418.562-.695 1.011-.695h2.118c.449 0 .851.277 1.011.695l.336.867q.745.23 1.438.594l.847-.375c.317-.14.68-.12.973.047a6.11 6.11 0 0 0-5.691-3.894 3.088 3.088 0 0 0-.004-6.176m0 0"/></g></svg>