<svg xmlns="http://www.w3.org/2000/svg" width="40" height="40" version="1.0" viewBox="0 0 30 30"><defs><clipPath id="a"><path d="M2.098 17H28v12.031H2.098Zm0 0"/></clipPath></defs><g clip-path="url(#a)"><path fill="#061c3d" d="m27.598 26.934-1.371-7.102-.024-.137a1.14 1.14 0 0 0-.621-.82c-.184-.09-.402-.2-.656-.316-.238-.114-.504-.235-.785-.368q-.01-.004-.02-.003a58 58 0 0 0-2.598-1.149q-.136.168-.277.336a64 64 0 0 1-1.973 2.3c-.351.395-.71.782-1.07 1.15a27 27 0 0 1-1.55 1.472l-.848-3.336.226-.969H13.97l.226.969-.847 3.336a26 26 0 0 1-1.555-1.473 44 44 0 0 1-1.07-1.148 64 64 0 0 1-1.97-2.301c-.097-.113-.187-.223-.28-.336-.86.352-1.797.773-2.598 1.148q-.011-.001-.016.004-.429.198-.789.368c-.25.117-.468.226-.652.316-.328.164-.55.457-.621.82l-.027.137-1.368 7.102-.226 1.175s.078.47.285.641q.312.277.754.277H26.78c.293 0 .547-.093.754-.277.211-.172.29-.64.29-.64z"/></g><path fill="#061c3d" d="M7.16 10.695c.07.23.313.36.543.293 0 0 1.645-.422 1.777-.472l-.57-2.47a6.172 6.172 0 1 1 12.191 0l-.378 1.63c-.086.379-.133.773-.317 1.117-.75 1.441-2.8 1.664-4.316 1.727a.89.89 0 0 0-.817-.536h-.832a.892.892 0 1 0 0 1.785h.832a.895.895 0 0 0 .836-.582c1.93-.082 4.344-.43 5.063-2.484l1.121.336a.44.44 0 0 0 .547-.293l.555-1.851a1.405 1.405 0 0 0-.942-1.75l-.383-.118A7.07 7.07 0 0 0 15.004.004C11.137.004 8 3.114 7.945 6.973l-.402.117a1.41 1.41 0 0 0-.941 1.75z"/><path fill="#061c3d" d="M18.71 10.078a15 15 0 0 1-.226 1.3c.555-.19 1.004-.483 1.243-.94.09-.168.132-.391.187-.649v-.008c.137-1.16.188-2.324.188-3.496 0-.281-.032-.562-.086-.836a3.87 3.87 0 0 0-1.493-2.344c-1.382-1.007-2.777-1.109-3.257-1.109-.118 0-.176.008-.176.008s-.035 0-.09-.004q-.09.005-.09.004s-.058-.008-.176-.008c-.48 0-1.875.102-3.257 1.11-.344.253-.641.562-.88.91-.452.656-.699 1.449-.699 2.27 0 1.12.043 2.245.168 3.355.012.117.028.238.043.351q.013.124.032.242c.039.27.078.54.125.801.218 1.27.586 2.461 1.492 3.453a4.05 4.05 0 0 0 3.152 1.5c.027 0 .059-.004.09-.004.027 0 .059.004.09.004a4.05 4.05 0 0 0 3.152-1.5c.27-.293.488-.605.668-.93a8.5 8.5 0 0 1-1.676.325 2.88 2.88 0 0 1-2.117.949c-.031 0-.062-.004-.097-.004h-.043q-.047-.001-.098.004a2.9 2.9 0 0 1-2.227-1.07l-.039-.051c-.812-.89-1.113-2.05-1.328-3.633a22 22 0 0 1-.18-1.922c.395-.465.868-.86 1.403-1.156a5.06 5.06 0 0 0 3.074 1.027c.906 0 1.754-.234 2.488-.648a5 5 0 0 0 .871-.613c-.003.48-.023.945-.046 1.39-.036.68-.098 1.313-.184 1.922"/></svg>