<svg xmlns="http://www.w3.org/2000/svg" width="40" height="40" version="1.0" viewBox="0 0 30 30"><defs><clipPath id="a"><path d="M2.543 3.938h2.906V9H2.543Zm0 0"/></clipPath><clipPath id="b"><path d="M3 6h2.45v2H3Zm0 0"/></clipPath><clipPath id="c"><path d="M24.559 3.938h4.355V9H24.56Zm0 0"/></clipPath><clipPath id="d"><path d="M.484 0h29.032v29.031H.484Zm0 0"/></clipPath></defs><g clip-path="url(#a)"><path fill="#fff" d="M5.52 8.016H2.7V4.902h2.82Zm-1.22.488h-.382q-.072-.002-.074-.074c0-.047.027-.078.074-.078h.383c.043 0 .074.03.074.078 0 .039-.031.074-.074.074m-.702-4.149h1.03c.044 0 .075.032.075.075 0 .047-.031.078-.074.078H3.598c-.047 0-.075-.031-.075-.078 0-.04.028-.075.075-.075m1.351 0h.153c.046 0 .074.032.074.075 0 .047-.028.078-.074.078h-.153c-.047 0-.078-.031-.078-.078 0-.04.031-.075.078-.075m.344-.398H2.926a.383.383 0 0 0-.383.383v4.12c0 .212.168.38.383.38h2.367c.21 0 .379-.168.379-.38V4.34a.383.383 0 0 0-.379-.383"/></g><path fill="#fff" d="M3.828 5.621h.152v.152h-.152Zm.41 0h.153v.152h-.153Zm-.816.434h1.375c.039 0 .074-.028.074-.075a.76.76 0 0 0-.21-.527l.112-.168c.024-.039.016-.082-.023-.105-.04-.024-.082-.016-.105.023l-.11.152a.76.76 0 0 0-.433-.14.76.76 0 0 0-.434.14l-.11-.152c-.023-.039-.066-.047-.105-.023-.039.023-.047.066-.023.105l.113.168a.76.76 0 0 0-.211.527c.016.047.05.075.09.075"/><g clip-path="url(#b)"><path fill="#fff" d="M3.223 7.184a.2.2 0 0 0 .125-.043v.175c0 .082.066.153.152.153h.09v.203c0 .047.039.078.078.078.043 0 .074-.031.074-.078v-.203h.727v.203c0 .047.035.078.074.078.047 0 .078-.031.078-.078v-.203h.098c.086 0 .152-.07.152-.153v-.175a.22.22 0 0 0 .125.043c.106 0 .195-.09.195-.196v-.472a.2.2 0 0 0-.195-.2.2.2 0 0 0-.125.043v-.164c-.023.004-.05.012-.074.012H3.422c-.031 0-.055-.008-.074-.012v.164a.25.25 0 0 0-.125-.043.2.2 0 0 0-.196.2v.472c0 .106.09.196.196.196"/></g><g clip-path="url(#c)"><path fill="#fff" d="M27.738 5.785c.282 0 .512-.23.512-.515a.1.1 0 0 0-.102-.102.513.513 0 0 0-.511.512c0 .058.047.105.101.105m-.23 2.223a.9.9 0 0 1-.246.031c-.262 0-.461-.23-.555-.367q-.004.001-.008-.004a.1.1 0 0 0-.023-.02q-.006-.006-.012-.007a.1.1 0 0 0-.043-.012h-1.855V4.965h2.664v.18c0 .058.047.101.105.101a.1.1 0 0 0 .102-.101v-.696a.513.513 0 0 0-.512-.511h-2.05a.514.514 0 0 0-.516.511v3.899c0 .28.23.511.515.511h2.051c.281 0 .512-.23.512-.511v-.243a.11.11 0 0 0-.04-.082.1.1 0 0 0-.09-.015m-.586-3.66a.1.1 0 0 1 .101.101.1.1 0 0 1-.101.106.104.104 0 0 1-.102-.106.1.1 0 0 1 .102-.101m-1.027 0h.41a.103.103 0 0 1 0 .207h-.41a.105.105 0 0 1-.106-.106c0-.054.047-.101.106-.101m.203 4.101a.2.2 0 0 1-.203-.203c0-.113.09-.207.203-.207s.207.094.207.207a.205.205 0 0 1-.207.203m2.547-1.406a.1.1 0 0 0-.07-.043.29.29 0 0 1-.259-.281c0-.121.082-.23.207-.27a.1.1 0 0 0 .067-.062.12.12 0 0 0-.012-.09c-.121-.18-.312-.309-.465-.309a.9.9 0 0 0-.277.059c-.063.02-.125.039-.172.039-.05 0-.11-.02-.172-.04a.9.9 0 0 0-.277-.058c-.242 0-.606.313-.606.778 0 .441.34 1.07.653 1.07a.7.7 0 0 0 .312-.07c.086-.036.094-.036.18 0 .066.03.16.07.308.07.239 0 .489-.36.594-.707a.11.11 0 0 0-.011-.086m0 0"/></g><g clip-path="url(#d)"><path fill="#061c3d" fill-rule="evenodd" d="M17.89 2.41c1.282.305 2.505.809 3.63 1.5l2.355-1.047 2.777 2.778-1.043 2.355a12.3 12.3 0 0 1 1.5 3.633l2.407.926v3.925l-2.407.926a12.4 12.4 0 0 1-1.5 3.63l1.043 2.355-2.777 2.777-2.355-1.043a12.4 12.4 0 0 1-3.63 1.504l-.925 2.402h-3.926l-.926-2.402a12.5 12.5 0 0 1-3.633-1.504l-2.355 1.043-2.777-2.777 1.047-2.356a12.4 12.4 0 0 1-1.504-3.629L.484 16.48v-3.925l2.407-.926a12.4 12.4 0 0 1 1.504-3.633L3.348 5.641l2.777-2.778L8.48 3.91a12.4 12.4 0 0 1 3.63-1.5L13.04 0h3.925ZM15 4.012A10.5 10.5 0 0 0 4.496 14.516c0 5.8 4.7 10.507 10.504 10.507 5.8 0 10.508-4.707 10.508-10.507C25.508 8.71 20.8 4.012 15 4.012m3.89 4.562h.977c.348 0 .633.285.633.633V20.84a.633.633 0 0 1-.633.633h-9.734a.633.633 0 0 1-.633-.633V9.207c0-.348.285-.633.633-.633h.976a1.27 1.27 0 0 0 1.266 1.164h5.25c.664 0 1.21-.511 1.266-1.164M15 11.867h3.418c.266 0 .48-.219.48-.484a.48.48 0 0 0-.48-.485H15a.484.484 0 1 0 0 .97m0 7.082h3.418c.266 0 .48-.219.48-.484a.48.48 0 0 0-.48-.485H15a.484.484 0 1 0 0 .97m-4.332-2.914.621.617c.18.184.473.192.664.016l1.504-1.363a.483.483 0 1 0-.648-.715l-1.164 1.055-.293-.293a.48.48 0 0 0-.684 0 .486.486 0 0 0 0 .683M15 13.277h3.418a.48.48 0 0 0 .48-.48.48.48 0 0 0-.48-.485H15a.483.483 0 1 0 0 .965m-4.332 6.297.621.621a.48.48 0 0 0 .664.016l1.504-1.363a.483.483 0 1 0-.648-.715l-1.164 1.05-.293-.292a.486.486 0 0 0-.684 0 .486.486 0 0 0 0 .683m0-7.082.621.621c.18.18.473.188.664.016l1.504-1.363c.2-.18.215-.485.035-.684a.483.483 0 0 0-.683-.035l-1.164 1.055-.293-.293a.486.486 0 0 0-.684 0 .486.486 0 0 0 0 .683M15 16.82h3.418a.483.483 0 0 0 0-.968H15a.487.487 0 0 0-.484.484c0 .266.218.484.484.484m0-1.414h3.418c.266 0 .48-.215.48-.484a.483.483 0 0 0-.48-.485H15a.484.484 0 1 0 0 .969m0 4.957h3.418c.266 0 .48-.218.48-.484a.48.48 0 0 0-.48-.484H15a.484.484 0 1 0 0 .968m-2.93-13.27c0-.077.032-.155.09-.214a.3.3 0 0 1 .215-.086h1.367a1.295 1.295 0 0 1 2.516 0h1.367q.125.002.215.086c.058.059.09.137.09.215v1.375c0 .164-.137.3-.305.3h-5.25a.304.304 0 0 1-.305-.3Zm0 0"/></g></svg>