<svg xmlns="http://www.w3.org/2000/svg" width="40" height="40" version="1.0" viewBox="0 0 30 30"><defs><clipPath id="a"><path d="M12 25h11v3.852H12Zm0 0"/></clipPath><clipPath id="b"><path d="M14 14h15.516v11H14Zm0 0"/></clipPath><clipPath id="c"><path d="M22 22h2v6.852h-2Zm0 0"/></clipPath><clipPath id="d"><path d="M5 22h7v6.852H5Zm0 0"/></clipPath><clipPath id="e"><path d="M5 .543h19V12H5Zm0 0"/></clipPath></defs><path fill="#fff" d="m2.117 13.402-.015.024a.4.4 0 0 0-.07.133c-.016.046-1.489 4.984 3.663 8.312a.452.452 0 0 0 .469 0c5.152-3.328 3.68-8.266 3.664-8.312a.5.5 0 0 0-.066-.133l-.02-.024a.5.5 0 0 0-.117-.109c-.574-.36-1.816-.961-3.695-.961-1.875 0-3.121.602-3.696.961a.6.6 0 0 0-.117.11m.703.555c.543-.309 1.578-.75 3.11-.75 1.53 0 2.566.441 3.11.75.183.762.804 4.344-3.11 7.023-3.914-2.683-3.293-6.265-3.11-7.023m0 0"/><path fill="#fff" d="M5.414 18.445c.11 0 .215-.039.3-.12l1.817-1.747a.44.44 0 0 0 .012-.617.433.433 0 0 0-.613-.016l-1.516 1.461-.484-.468a.433.433 0 0 0-.614.015.44.44 0 0 0 .016.617l.785.754a.42.42 0 0 0 .297.121m0 0"/><g clip-path="url(#a)"><path fill="#fff" d="M13.082 28.488h8.668c.238 0 .43-.195.43-.437v-1.309c0-.722-.582-1.312-1.297-1.312h-6.934c-.719 0-1.3.59-1.3 1.312v1.309c0 .242.19.437.433.437m.434-1.746c0-.242.191-.437.433-.437h6.934c.238 0 .433.195.433.437v.871h-7.8Zm0 0"/></g><g clip-path="url(#b)"><path fill="#fff" d="M28.04 23.031c.23 0 .46-.062.663-.187.297-.18.508-.465.59-.805a1.31 1.31 0 0 0-.945-1.586l-6.508-1.64.156-.641.063.015q.162.041.32.04c.59 0 1.129-.403 1.281-1a1.321 1.321 0 0 0-.965-1.605l-5.16-1.286a1.322 1.322 0 0 0-.637 2.566l.04.012-.153.625-.578-.144a1.27 1.27 0 0 0-.98.148 1.312 1.312 0 0 0 .352 2.39l.593.149-.203.844-.168-.04a1.32 1.32 0 0 0-1.45 1.962c.18.304.47.52.813.605l5.164 1.285q.159.041.317.04a1.324 1.324 0 0 0 1.132-2 1.33 1.33 0 0 0-.754-.587l.204-.836 6.496 1.637q.157.041.316.04m-12.25-3.945a.435.435 0 0 1-.313-.527.43.43 0 0 1 .418-.332q.054-.002.101.015l.586.145-.207.847Zm5.245 4.14a.46.46 0 0 1 .05.337.457.457 0 0 1-.55.328l-5.16-1.286a.46.46 0 0 1-.281-.207.46.46 0 0 1-.051-.335.454.454 0 0 1 .55-.329l5.16 1.286a.44.44 0 0 1 .282.207m-.851-1.25-3.375-.84.968-4.015 3.375.84Zm-3.079-5.921a.44.44 0 0 1-.277-.207.44.44 0 0 1-.05-.336.453.453 0 0 1 .55-.328l5.16 1.285a.44.44 0 0 1 .328.543.45.45 0 0 1-.546.328Zm4.532 3.605 6.504 1.64c.23.055.37.294.312.528a.42.42 0 0 1-.2.266.4.4 0 0 1-.32.05l-6.503-1.636Zm0 0"/></g><path fill="#fff" d="M13.73 8.84a.436.436 0 0 0-.433.437c0 .243.195.438.433.438h4.645a1.8 1.8 0 0 1-.059-.438c0-.152.024-.297.059-.437Zm0 0"/><path fill="#fff" d="M8.531 11.46h10.625a5 5 0 0 0-.11-.331c-.062-.152-.155-.313-.253-.484q-.019-.03-.031-.06H12.43V7.97h6.332a.3.3 0 0 1 .031-.063c.098-.168.191-.328.254-.48q.057-.155.11-.332H8.53a.436.436 0 0 0-.433.437v3.492c0 .243.195.438.433.438m.434-3.491h2.598v2.617H8.965ZM25 12.973c.129-.055.273-.094.43-.137.355-.102.761-.211 1.066-.52.309-.308.418-.718.52-1.078.043-.156.082-.304.132-.43.051-.12.125-.245.2-.382.187-.324.398-.696.398-1.149s-.21-.824-.398-1.148c-.075-.137-.149-.266-.2-.383-.05-.129-.09-.273-.132-.43-.102-.359-.211-.77-.52-1.078-.305-.308-.71-.422-1.066-.52a4 4 0 0 1-.43-.136c-.117-.05-.242-.125-.379-.203-.324-.188-.687-.399-1.14-.399-.45 0-.817.211-1.141.399a4 4 0 0 1-.38.203c-.124.05-.273.094-.425.137-.36.097-.762.21-1.07.52-.305.308-.418.718-.516 1.077-.043.157-.082.301-.137.43-.046.117-.12.246-.199.383-.183.324-.394.695-.394 1.148s.21.825.394 1.149c.078.136.153.261.2.383.054.125.093.273.136.43.098.359.211.765.516 1.077.308.309.71.418 1.07.52.152.043.3.082.426.137.117.05.246.12.379.199.324.187.691.402 1.14.402.454 0 .817-.215 1.141-.402.137-.078.262-.149.379-.2m-1.52-.274c-.218 0-.457-.136-.707-.285-.152-.086-.308-.176-.48-.25a5 5 0 0 0-.527-.168c-.278-.078-.543-.152-.688-.3-.144-.145-.219-.41-.293-.692-.05-.172-.098-.356-.172-.531a5 5 0 0 0-.246-.48c-.144-.255-.281-.497-.281-.716 0-.222.137-.46.281-.714.086-.153.176-.313.246-.481.075-.18.121-.36.172-.535.074-.281.149-.543.293-.692.145-.144.41-.218.688-.296a4 4 0 0 0 .527-.172c.172-.07.328-.16.48-.25.25-.145.489-.282.707-.282.22 0 .457.137.711.282.153.09.309.18.477.25.176.074.355.125.531.172.278.078.54.152.684.296.144.149.219.41.297.692.047.176.097.355.168.535.07.168.164.328.25.48.144.254.28.493.28.715 0 .22-.136.461-.28.715-.086.153-.18.313-.25.48-.07.176-.121.36-.168.532-.078.281-.153.547-.297.691-.145.149-.406.223-.684.301a5 5 0 0 0-.531.168c-.168.074-.324.164-.477.25-.253.149-.492.285-.71.285m0 0"/><path fill="#fff" d="M25.434 9.277a1.96 1.96 0 0 0-1.954-1.964 1.96 1.96 0 0 0-1.949 1.964 1.96 1.96 0 0 0 1.95 1.965 1.96 1.96 0 0 0 1.953-1.965m-1.954 1.09a1.086 1.086 0 0 1-1.082-1.09 1.09 1.09 0 0 1 1.082-1.093 1.093 1.093 0 0 1 0 2.183M20.664 14.078h-.55l.933.235a.44.44 0 0 0-.383-.235M23.047 14.422v.394c.332.11.625.29.867.532v-.926a1.7 1.7 0 0 1-.434.058 1.8 1.8 0 0 1-.433-.058m0 0"/><g clip-path="url(#c)"><path fill="#fff" d="M23.047 27.18v.87q-.001.202-.055.38c.535-.16.922-.66.922-1.25v-4.246l-.867-.22Zm0 0"/></g><g clip-path="url(#d)"><path fill="#fff" d="M8.656 28.36a.43.43 0 0 0 .309.128h2.89a1.4 1.4 0 0 1-.074-.437v-.438H9.398v-1.965c0-.722-.585-1.308-1.3-1.308h-1.95v-1.547a1.257 1.257 0 0 1-.867-.16v2.144c0 .114.043.227.125.309Zm-.558-3.145c.238 0 .433.195.433.433v1.348l-1.773-1.781Zm0 0"/></g><g clip-path="url(#e)"><path fill="#fff" d="M16.766.543H12.43c-.715 0-1.301.59-1.301 1.312v.434H6.582c-.719 0-1.3.59-1.3 1.313v7.882a9 9 0 0 1 .866-.02V3.603c0-.243.192-.438.434-.438h3.25v.875c0 .719.582 1.309 1.297 1.309h6.937c.715 0 1.297-.59 1.297-1.309v-.875h3.25c.242 0 .434.195.434.438v.527a1.8 1.8 0 0 1 .433-.059c.153 0 .297.024.434.059v-.527c0-.723-.582-1.313-1.3-1.313h-4.548v-.434a1.31 1.31 0 0 0-1.3-1.312m-4.77 1.312c0-.242.195-.437.434-.437h4.336c.238 0 .433.195.433.437v.434h-5.203Zm6.5 1.31v.874a.43.43 0 0 1-.43.434H11.13a.435.435 0 0 1-.434-.434v-.875Zm0 0"/></g><path fill="#fff" d="M13.797 18.137q.073-.304.226-.563H10.57a8 8 0 0 1-.304.871h3.476a2 2 0 0 1 .055-.308M10.875 15.824c-.02.278-.05.57-.105.875h4.183c.098-.047.195-.09.297-.12a2.2 2.2 0 0 1-.21-.755ZM10.813 14.078c.035.246.066.54.078.875h4.246c.105-.336.289-.633.523-.875ZM19.832 12.957a1.9 1.9 0 0 1-.402-.625H9.7q.223.118.382.219.205.13.352.324l.02.023c.07.094.12.2.163.309h9.535a1.8 1.8 0 0 1-.32-.25m0 0"/></svg>