<svg xmlns="http://www.w3.org/2000/svg" xmlns:xlink="http://www.w3.org/1999/xlink" width="40" zoomAndPan="magnify" viewBox="0 0 30 30.000001" height="40" preserveAspectRatio="xMidYMid meet" version="1.0"><defs><clipPath id="13ec688aa9"><path d="M 0.484375 0 L 29.515625 0 L 29.515625 29 L 0.484375 29 Z M 0.484375 0 " clip-rule="nonzero"/></clipPath></defs><path fill="#ffffff" d="M 21.09375 8.976562 L 8.808594 8.976562 C 8.667969 8.976562 8.550781 9.027344 8.457031 9.121094 C 8.359375 9.21875 8.308594 9.335938 8.308594 9.472656 L 8.308594 15.339844 C 8.308594 21.578125 14.824219 22.457031 14.886719 22.464844 C 14.929688 22.46875 14.972656 22.46875 15.011719 22.464844 C 15.078125 22.457031 21.589844 21.578125 21.589844 15.339844 L 21.589844 9.472656 C 21.589844 9.335938 21.542969 9.21875 21.445312 9.121094 C 21.347656 9.027344 21.230469 8.976562 21.09375 8.976562 Z M 20.597656 15.339844 C 20.597656 20.457031 15.597656 21.375 14.949219 21.476562 C 14.300781 21.375 9.304688 20.472656 9.304688 15.347656 L 9.304688 9.976562 L 20.597656 9.976562 Z M 20.597656 15.339844 " fill-opacity="1" fill-rule="nonzero"/><path fill="#ffffff" d="M 12.675781 18.992188 L 17.222656 18.992188 C 17.421875 18.992188 17.609375 18.953125 17.792969 18.875 C 17.976562 18.800781 18.136719 18.691406 18.277344 18.554688 C 18.417969 18.414062 18.523438 18.253906 18.601562 18.070312 C 18.675781 17.886719 18.714844 17.695312 18.714844 17.5 L 18.714844 14.515625 C 18.714844 14.378906 18.664062 14.261719 18.570312 14.164062 C 18.472656 14.066406 18.355469 14.019531 18.21875 14.019531 L 17.195312 14.019531 L 17.195312 11.417969 C 17.195312 11.28125 17.148438 11.164062 17.050781 11.066406 C 16.953125 10.96875 16.835938 10.921875 16.699219 10.921875 L 13.203125 10.921875 C 13.0625 10.921875 12.945312 10.96875 12.851562 11.066406 C 12.753906 11.164062 12.703125 11.28125 12.703125 11.417969 L 12.703125 14.019531 L 11.683594 14.019531 C 11.546875 14.019531 11.429688 14.066406 11.332031 14.164062 C 11.234375 14.261719 11.1875 14.378906 11.1875 14.515625 L 11.1875 17.5 C 11.1875 17.695312 11.222656 17.886719 11.300781 18.070312 C 11.375 18.253906 11.484375 18.414062 11.621094 18.554688 C 11.761719 18.691406 11.925781 18.800781 12.105469 18.875 C 12.289062 18.953125 12.480469 18.992188 12.675781 18.992188 Z M 13.699219 11.921875 L 16.203125 11.921875 L 16.203125 14.019531 L 13.699219 14.019531 Z M 12.179688 15.011719 L 17.71875 15.011719 L 17.71875 17.5 C 17.71875 17.636719 17.671875 17.753906 17.574219 17.851562 C 17.476562 17.949219 17.359375 17.996094 17.222656 17.996094 L 12.675781 17.996094 C 12.539062 17.996094 12.421875 17.949219 12.324219 17.851562 C 12.230469 17.753906 12.179688 17.636719 12.179688 17.5 Z M 12.179688 15.011719 " fill-opacity="1" fill-rule="nonzero"/><path fill="#ffffff" d="M 14.453125 16.8125 L 14.453125 17.25 C 14.453125 17.386719 14.5 17.503906 14.597656 17.601562 C 14.695312 17.699219 14.8125 17.746094 14.949219 17.746094 C 15.085938 17.746094 15.203125 17.699219 15.300781 17.601562 C 15.398438 17.503906 15.449219 17.386719 15.449219 17.25 L 15.449219 16.8125 C 15.65625 16.65625 15.761719 16.445312 15.765625 16.183594 C 15.765625 15.960938 15.6875 15.765625 15.527344 15.609375 C 15.367188 15.449219 15.175781 15.371094 14.949219 15.371094 C 14.726562 15.371094 14.53125 15.449219 14.375 15.609375 C 14.214844 15.765625 14.136719 15.960938 14.136719 16.183594 C 14.136719 16.445312 14.246094 16.65625 14.453125 16.8125 Z M 14.453125 16.8125 " fill-opacity="1" fill-rule="nonzero"/><g clip-path="url(#13ec688aa9)"><path fill="#ffffff" d="M 28.140625 20.660156 L 28.140625 15.867188 C 28.140625 15.726562 28.09375 15.609375 27.996094 15.515625 C 27.898438 15.417969 27.78125 15.367188 27.644531 15.367188 L 26.09375 15.367188 C 26.113281 15.085938 26.136719 14.804688 26.136719 14.515625 C 26.132812 12.765625 25.738281 11.109375 24.953125 9.542969 L 27.910156 9.542969 C 28.046875 9.542969 28.164062 9.496094 28.261719 9.398438 C 28.359375 9.300781 28.410156 9.183594 28.410156 9.046875 L 28.410156 6.164062 C 28.617188 6.085938 28.796875 5.964844 28.945312 5.800781 C 29.097656 5.640625 29.203125 5.453125 29.265625 5.238281 C 29.328125 5.023438 29.339844 4.808594 29.300781 4.589844 C 29.261719 4.371094 29.175781 4.171875 29.039062 3.996094 C 28.90625 3.816406 28.742188 3.679688 28.542969 3.582031 C 28.34375 3.480469 28.132812 3.429688 27.910156 3.429688 C 27.6875 3.429688 27.480469 3.480469 27.28125 3.582031 C 27.082031 3.679688 26.914062 3.816406 26.78125 3.996094 C 26.648438 4.171875 26.5625 4.371094 26.523438 4.589844 C 26.484375 4.808594 26.492188 5.023438 26.554688 5.238281 C 26.617188 5.453125 26.726562 5.640625 26.875 5.800781 C 27.027344 5.964844 27.207031 6.085938 27.414062 6.164062 L 27.414062 8.550781 L 24.394531 8.550781 C 23.914062 7.789062 23.347656 7.097656 22.699219 6.472656 C 22.050781 5.847656 21.339844 5.308594 20.558594 4.855469 C 19.78125 4.402344 18.957031 4.050781 18.09375 3.796875 C 17.230469 3.542969 16.347656 3.398438 15.449219 3.355469 L 15.449219 1.511719 C 15.449219 1.375 15.398438 1.257812 15.300781 1.160156 C 15.203125 1.0625 15.085938 1.015625 14.949219 1.015625 L 10.238281 1.015625 C 10.160156 0.804688 10.039062 0.628906 9.875 0.476562 C 9.714844 0.324219 9.527344 0.21875 9.3125 0.15625 C 9.101562 0.09375 8.882812 0.0820312 8.664062 0.125 C 8.445312 0.164062 8.25 0.25 8.070312 0.382812 C 7.894531 0.515625 7.753906 0.683594 7.65625 0.878906 C 7.558594 1.078125 7.507812 1.289062 7.507812 1.511719 C 7.507812 1.734375 7.558594 1.945312 7.65625 2.140625 C 7.753906 2.339844 7.894531 2.507812 8.070312 2.640625 C 8.25 2.773438 8.445312 2.859375 8.664062 2.898438 C 8.882812 2.9375 9.101562 2.929688 9.3125 2.867188 C 9.527344 2.804688 9.714844 2.695312 9.875 2.546875 C 10.039062 2.394531 10.160156 2.214844 10.238281 2.007812 L 14.453125 2.007812 L 14.453125 3.355469 C 13.773438 3.386719 13.101562 3.480469 12.4375 3.632812 C 11.773438 3.785156 11.128906 4 10.503906 4.269531 C 9.878906 4.542969 9.285156 4.867188 8.71875 5.246094 C 8.15625 5.628906 7.628906 6.054688 7.140625 6.53125 C 6.65625 7.007812 6.214844 7.523438 5.824219 8.082031 C 5.429688 8.636719 5.089844 9.226562 4.804688 9.84375 C 4.519531 10.460938 4.292969 11.101562 4.125 11.761719 C 3.957031 12.421875 3.847656 13.089844 3.800781 13.769531 L 2.523438 13.769531 L 2.523438 9.679688 C 2.730469 9.601562 2.910156 9.480469 3.058594 9.320312 C 3.210938 9.15625 3.316406 8.96875 3.378906 8.753906 C 3.441406 8.542969 3.453125 8.324219 3.414062 8.105469 C 3.375 7.886719 3.285156 7.691406 3.152344 7.511719 C 3.019531 7.335938 2.855469 7.195312 2.65625 7.097656 C 2.457031 7 2.246094 6.949219 2.023438 6.949219 C 1.804688 6.949219 1.59375 7 1.394531 7.097656 C 1.195312 7.195312 1.03125 7.335938 0.894531 7.511719 C 0.761719 7.691406 0.675781 7.886719 0.636719 8.105469 C 0.597656 8.324219 0.609375 8.542969 0.671875 8.753906 C 0.734375 8.96875 0.839844 9.15625 0.988281 9.320312 C 1.140625 9.480469 1.320312 9.601562 1.527344 9.679688 L 1.527344 14.265625 C 1.527344 14.40625 1.578125 14.523438 1.671875 14.617188 C 1.769531 14.714844 1.886719 14.765625 2.023438 14.765625 L 3.777344 14.765625 C 3.796875 15.617188 3.914062 16.457031 4.125 17.28125 C 4.335938 18.109375 4.636719 18.898438 5.03125 19.65625 C 5.421875 20.414062 5.894531 21.117188 6.449219 21.765625 C 7.003906 22.414062 7.625 22.988281 8.308594 23.496094 L 8.308594 25.484375 L 4.664062 25.484375 C 4.585938 25.277344 4.464844 25.097656 4.304688 24.945312 C 4.140625 24.796875 3.953125 24.6875 3.738281 24.625 C 3.523438 24.5625 3.308594 24.554688 3.089844 24.59375 C 2.871094 24.632812 2.675781 24.71875 2.496094 24.851562 C 2.320312 24.984375 2.179688 25.152344 2.082031 25.351562 C 1.980469 25.550781 1.929688 25.757812 1.929688 25.980469 C 1.929688 26.203125 1.980469 26.414062 2.082031 26.613281 C 2.179688 26.8125 2.320312 26.976562 2.496094 27.109375 C 2.675781 27.246094 2.871094 27.332031 3.089844 27.371094 C 3.308594 27.410156 3.523438 27.398438 3.738281 27.335938 C 3.953125 27.273438 4.140625 27.167969 4.304688 27.015625 C 4.464844 26.867188 4.585938 26.6875 4.664062 26.480469 L 8.808594 26.480469 C 8.945312 26.480469 9.0625 26.429688 9.160156 26.332031 C 9.253906 26.238281 9.304688 26.121094 9.304688 25.980469 L 9.304688 24.160156 C 10.039062 24.59375 10.8125 24.941406 11.625 25.195312 C 12.4375 25.453125 13.269531 25.613281 14.121094 25.675781 C 14.972656 25.738281 15.820312 25.707031 16.664062 25.574219 C 17.503906 25.441406 18.320312 25.214844 19.113281 24.894531 L 19.113281 27.519531 C 19.113281 27.660156 19.160156 27.777344 19.257812 27.871094 C 19.355469 27.96875 19.472656 28.019531 19.609375 28.019531 L 23.578125 28.019531 C 23.65625 28.226562 23.773438 28.40625 23.9375 28.554688 C 24.101562 28.707031 24.289062 28.8125 24.503906 28.875 C 24.714844 28.9375 24.929688 28.949219 25.148438 28.910156 C 25.367188 28.871094 25.566406 28.78125 25.742188 28.648438 C 25.921875 28.515625 26.058594 28.351562 26.160156 28.152344 C 26.257812 27.953125 26.308594 27.742188 26.308594 27.519531 C 26.308594 27.300781 26.257812 27.089844 26.160156 26.890625 C 26.058594 26.691406 25.921875 26.527344 25.742188 26.390625 C 25.566406 26.257812 25.367188 26.171875 25.148438 26.132812 C 24.929688 26.09375 24.714844 26.105469 24.503906 26.167969 C 24.289062 26.230469 24.101562 26.335938 23.9375 26.484375 C 23.773438 26.636719 23.65625 26.816406 23.578125 27.023438 L 20.105469 27.023438 L 20.105469 24.433594 C 20.875 24.03125 21.585938 23.550781 22.242188 22.984375 C 22.894531 22.417969 23.476562 21.785156 23.988281 21.085938 C 24.496094 20.386719 24.917969 19.636719 25.253906 18.839844 C 25.589844 18.042969 25.828125 17.214844 25.972656 16.363281 L 27.152344 16.363281 L 27.152344 20.660156 C 26.941406 20.738281 26.761719 20.859375 26.613281 21.019531 C 26.460938 21.183594 26.355469 21.371094 26.292969 21.585938 C 26.230469 21.796875 26.21875 22.015625 26.257812 22.234375 C 26.296875 22.453125 26.386719 22.648438 26.519531 22.828125 C 26.652344 23.003906 26.816406 23.144531 27.015625 23.242188 C 27.214844 23.34375 27.425781 23.390625 27.648438 23.390625 C 27.871094 23.390625 28.082031 23.34375 28.277344 23.242188 C 28.476562 23.144531 28.644531 23.003906 28.777344 22.828125 C 28.910156 22.648438 28.996094 22.453125 29.035156 22.234375 C 29.078125 22.015625 29.066406 21.796875 29.003906 21.585938 C 28.941406 21.371094 28.835938 21.183594 28.683594 21.019531 C 28.53125 20.859375 28.351562 20.738281 28.144531 20.660156 Z M 27.910156 4.425781 C 28.027344 4.425781 28.125 4.464844 28.207031 4.546875 C 28.285156 4.628906 28.328125 4.726562 28.328125 4.84375 C 28.328125 4.957031 28.285156 5.054688 28.203125 5.136719 C 28.125 5.21875 28.027344 5.257812 27.910156 5.257812 C 27.796875 5.257812 27.699219 5.21875 27.617188 5.136719 C 27.535156 5.054688 27.492188 4.957031 27.492188 4.84375 C 27.492188 4.726562 27.535156 4.628906 27.617188 4.546875 C 27.699219 4.464844 27.796875 4.425781 27.910156 4.425781 Z M 8.921875 1.929688 C 8.808594 1.929688 8.710938 1.886719 8.628906 1.804688 C 8.546875 1.722656 8.503906 1.625 8.503906 1.511719 C 8.503906 1.394531 8.546875 1.296875 8.625 1.214844 C 8.707031 1.132812 8.808594 1.09375 8.921875 1.09375 C 9.039062 1.09375 9.136719 1.132812 9.21875 1.214844 C 9.300781 1.296875 9.339844 1.394531 9.339844 1.511719 C 9.339844 1.625 9.296875 1.722656 9.21875 1.804688 C 9.136719 1.886719 9.039062 1.925781 8.921875 1.929688 Z M 2.023438 7.945312 C 2.140625 7.945312 2.238281 7.988281 2.320312 8.070312 C 2.402344 8.152344 2.441406 8.25 2.441406 8.363281 C 2.441406 8.480469 2.402344 8.578125 2.320312 8.660156 C 2.238281 8.738281 2.140625 8.78125 2.023438 8.78125 C 1.910156 8.78125 1.8125 8.738281 1.730469 8.660156 C 1.648438 8.578125 1.609375 8.480469 1.609375 8.363281 C 1.609375 8.25 1.648438 8.152344 1.730469 8.070312 C 1.8125 7.988281 1.910156 7.945312 2.023438 7.945312 Z M 3.347656 26.402344 C 3.234375 26.402344 3.132812 26.363281 3.050781 26.28125 C 2.972656 26.199219 2.929688 26.101562 2.929688 25.984375 C 2.929688 25.871094 2.96875 25.769531 3.050781 25.691406 C 3.132812 25.609375 3.230469 25.566406 3.347656 25.566406 C 3.464844 25.566406 3.5625 25.609375 3.644531 25.691406 C 3.722656 25.773438 3.765625 25.871094 3.765625 25.984375 C 3.765625 26.101562 3.722656 26.199219 3.644531 26.28125 C 3.5625 26.363281 3.464844 26.402344 3.347656 26.402344 Z M 24.894531 27.105469 C 25.007812 27.105469 25.105469 27.144531 25.1875 27.226562 C 25.269531 27.308594 25.3125 27.40625 25.3125 27.523438 C 25.3125 27.636719 25.269531 27.734375 25.1875 27.816406 C 25.109375 27.898438 25.007812 27.941406 24.894531 27.941406 C 24.777344 27.941406 24.679688 27.898438 24.597656 27.816406 C 24.515625 27.734375 24.476562 27.636719 24.476562 27.519531 C 24.476562 27.40625 24.515625 27.308594 24.597656 27.226562 C 24.679688 27.144531 24.777344 27.105469 24.894531 27.105469 Z M 14.949219 24.707031 C 14.28125 24.707031 13.617188 24.640625 12.960938 24.511719 C 12.304688 24.382812 11.667969 24.1875 11.050781 23.929688 C 10.433594 23.675781 9.84375 23.363281 9.289062 22.988281 C 8.730469 22.617188 8.21875 22.195312 7.742188 21.722656 C 7.269531 21.25 6.847656 20.734375 6.476562 20.179688 C 6.105469 19.621094 5.789062 19.035156 5.535156 18.417969 C 5.277344 17.796875 5.085938 17.160156 4.953125 16.503906 C 4.824219 15.847656 4.757812 15.183594 4.757812 14.515625 C 4.757812 13.847656 4.824219 13.183594 4.953125 12.527344 C 5.085938 11.871094 5.277344 11.234375 5.535156 10.617188 C 5.789062 9.996094 6.105469 9.410156 6.476562 8.855469 C 6.847656 8.296875 7.269531 7.78125 7.742188 7.308594 C 8.21875 6.835938 8.730469 6.414062 9.289062 6.042969 C 9.84375 5.671875 10.433594 5.355469 11.050781 5.101562 C 11.667969 4.84375 12.304688 4.652344 12.960938 4.519531 C 13.617188 4.390625 14.28125 4.324219 14.949219 4.324219 C 15.621094 4.324219 16.28125 4.390625 16.9375 4.519531 C 17.59375 4.652344 18.230469 4.84375 18.851562 5.101562 C 19.46875 5.355469 20.054688 5.671875 20.613281 6.042969 C 21.167969 6.414062 21.683594 6.835938 22.15625 7.308594 C 22.628906 7.78125 23.050781 8.296875 23.425781 8.855469 C 23.796875 9.410156 24.109375 9.996094 24.367188 10.617188 C 24.621094 11.234375 24.816406 11.871094 24.945312 12.527344 C 25.074219 13.183594 25.140625 13.847656 25.140625 14.515625 C 25.140625 15.183594 25.074219 15.847656 24.945312 16.503906 C 24.8125 17.160156 24.617188 17.796875 24.363281 18.414062 C 24.105469 19.03125 23.792969 19.621094 23.421875 20.175781 C 23.046875 20.730469 22.625 21.246094 22.152344 21.71875 C 21.679688 22.191406 21.164062 22.613281 20.609375 22.988281 C 20.054688 23.359375 19.464844 23.671875 18.847656 23.929688 C 18.230469 24.183594 17.59375 24.378906 16.9375 24.507812 C 16.28125 24.640625 15.621094 24.707031 14.949219 24.707031 Z M 27.644531 22.394531 C 27.53125 22.390625 27.429688 22.351562 27.351562 22.269531 C 27.269531 22.1875 27.226562 22.089844 27.226562 21.976562 C 27.226562 21.871094 27.261719 21.785156 27.328125 21.707031 C 27.398438 21.628906 27.480469 21.585938 27.582031 21.570312 C 27.625 21.585938 27.664062 21.585938 27.707031 21.570312 C 27.808594 21.585938 27.894531 21.628906 27.960938 21.707031 C 28.027344 21.785156 28.0625 21.871094 28.0625 21.976562 C 28.0625 22.089844 28.019531 22.1875 27.941406 22.269531 C 27.859375 22.351562 27.761719 22.390625 27.644531 22.394531 Z M 27.644531 22.394531 " fill-opacity="1" fill-rule="nonzero"/></g></svg>