<svg xmlns="http://www.w3.org/2000/svg" xmlns:xlink="http://www.w3.org/1999/xlink" width="40" zoomAndPan="magnify" viewBox="0 0 30 30.000001" height="40" preserveAspectRatio="xMidYMid meet" version="1.0"><defs><clipPath id="61ec64e989"><path d="M 0.484375 0 L 6 0 L 6 5 L 0.484375 5 Z M 0.484375 0 " clip-rule="nonzero"/></clipPath><clipPath id="762a69a643"><path d="M 24 0 L 29.515625 0 L 29.515625 5 L 24 5 Z M 24 0 " clip-rule="nonzero"/></clipPath><clipPath id="3a9de4a9a1"><path d="M 0.484375 6 L 9 6 L 9 14 L 0.484375 14 Z M 0.484375 6 " clip-rule="nonzero"/></clipPath></defs><path fill="#061c3d" d="M 16.542969 6.601562 C 17.222656 6.601562 17.902344 6.328125 18.355469 5.875 C 18.355469 5.421875 18.582031 5.011719 19.039062 4.832031 C 19.128906 4.558594 19.171875 4.285156 19.171875 4.015625 C 18.855469 3.742188 18.675781 3.242188 18.855469 2.746094 C 18.402344 1.882812 17.539062 1.292969 16.496094 1.292969 C 15.046875 1.292969 13.867188 2.472656 13.867188 3.925781 C 13.910156 5.421875 15.089844 6.601562 16.542969 6.601562 Z M 16.542969 6.601562 " fill-opacity="1" fill-rule="nonzero"/><path fill="#061c3d" d="M 24.480469 12.179688 C 24.433594 12.179688 24.117188 12.179688 24.164062 12.179688 L 24.617188 13.675781 L 27.15625 13.675781 L 27.609375 12.089844 C 27.566406 12.089844 27.566406 12.089844 27.519531 12.042969 C 26.929688 12.40625 25.34375 12.632812 24.480469 12.179688 Z M 24.480469 12.179688 " fill-opacity="1" fill-rule="nonzero"/><path fill="#061c3d" d="M 28.472656 9.957031 C 28.425781 9.957031 28.382812 9.910156 28.382812 9.910156 C 28.246094 9.820312 28.382812 9.59375 28.292969 9.503906 C 28.292969 9.503906 28.292969 9.550781 28.246094 9.550781 C 28.199219 9.550781 28.199219 9.414062 28.109375 9.09375 L 28.109375 8.503906 L 27.113281 8.503906 C 27.019531 8.414062 27.019531 8.277344 26.976562 7.824219 C 26.976562 7.871094 26.886719 7.914062 26.792969 7.734375 C 26.75 7.554688 26.660156 7.644531 26.566406 7.6875 C 26.476562 7.734375 26.339844 7.644531 26.339844 7.507812 C 25.976562 7.6875 25.976562 7.460938 25.933594 7.460938 C 25.839844 7.417969 25.796875 7.554688 25.707031 7.554688 C 25.613281 7.554688 25.523438 7.371094 25.386719 7.417969 C 25.296875 7.460938 25.296875 7.644531 25.160156 7.597656 C 25.117188 7.597656 25.070312 7.460938 24.980469 7.597656 C 24.84375 7.734375 24.617188 7.734375 24.480469 7.644531 C 24.433594 8.050781 24.207031 8.007812 24.164062 7.914062 C 23.9375 7.960938 24.34375 8.414062 23.574219 8.1875 C 23.574219 8.277344 23.574219 8.324219 23.574219 8.414062 L 23.484375 8.414062 L 23.484375 8.503906 C 23.4375 8.503906 23.4375 8.503906 23.390625 8.503906 C 23.347656 8.6875 23.4375 8.777344 23.484375 8.867188 C 23.527344 9.003906 23.4375 9.140625 23.074219 9.140625 C 23.074219 9.140625 23.300781 9.367188 23.300781 9.367188 C 23.300781 9.414062 23.164062 9.503906 23.164062 9.59375 C 23.164062 9.683594 23.210938 9.777344 23.300781 9.730469 C 23.257812 10.003906 23.390625 9.910156 23.4375 10.09375 C 23.4375 10.230469 23.4375 10.367188 23.347656 10.457031 C 23.164062 10.726562 23.210938 10.636719 23.300781 10.863281 C 23.300781 10.957031 23.300781 11.046875 23.347656 11.136719 C 23.390625 11.273438 23.574219 11.363281 23.527344 11.5 C 23.664062 11.410156 23.800781 11.542969 23.980469 11.636719 C 24.300781 11.773438 24.390625 11.542969 24.707031 11.726562 C 25.386719 12.089844 26.703125 11.90625 27.292969 11.589844 C 27.429688 11.542969 27.566406 11.5 27.703125 11.5 C 27.65625 11.542969 27.703125 11.636719 27.746094 11.636719 C 27.792969 11.636719 27.792969 11.5 27.835938 11.410156 L 27.835938 11.316406 C 28.019531 11.363281 28.5625 11.136719 28.425781 10.910156 C 28.699219 10.726562 28.652344 10.546875 28.5625 10.5 C 28.519531 10.273438 28.652344 10.046875 28.472656 9.957031 Z M 28.472656 9.957031 " fill-opacity="1" fill-rule="nonzero"/><path fill="#061c3d" d="M 3.613281 16.941406 L 26.523438 16.941406 L 26.523438 28.964844 L 23.527344 28.964844 L 23.527344 26.742188 L 6.609375 26.742188 L 6.609375 28.964844 L 3.613281 28.964844 Z M 3.613281 16.941406 " fill-opacity="1" fill-rule="nonzero"/><path fill="#061c3d" d="M 2.617188 14.175781 L 27.566406 14.175781 L 27.566406 16.488281 L 2.617188 16.488281 Z M 2.617188 14.175781 " fill-opacity="1" fill-rule="nonzero"/><g clip-path="url(#61ec64e989)"><path fill="#061c3d" d="M 3.160156 4.785156 C 4.476562 4.785156 5.519531 3.742188 5.519531 2.425781 C 5.519531 1.15625 4.476562 0.0664062 3.160156 0.0664062 C 1.84375 0.0664062 0.800781 1.15625 0.800781 2.472656 C 0.800781 3.742188 1.84375 4.785156 3.160156 4.785156 Z M 3.160156 0.476562 C 4.25 0.476562 5.15625 1.382812 5.15625 2.472656 C 5.15625 3.5625 4.25 4.46875 3.160156 4.46875 C 2.070312 4.46875 1.164062 3.5625 1.164062 2.472656 C 1.164062 1.382812 2.027344 0.476562 3.160156 0.476562 Z M 3.160156 0.476562 " fill-opacity="1" fill-rule="nonzero"/></g><path fill="#061c3d" d="M 4.203125 2.289062 L 3.339844 2.289062 L 3.339844 1.339844 L 2.980469 1.339844 L 2.980469 2.652344 L 4.203125 2.652344 Z M 4.203125 2.289062 " fill-opacity="1" fill-rule="nonzero"/><path fill="#061c3d" d="M 9.648438 4.785156 C 10.960938 4.785156 12.007812 3.742188 12.007812 2.425781 C 12.007812 1.15625 10.960938 0.0664062 9.648438 0.0664062 C 8.332031 0.0664062 7.289062 1.15625 7.289062 2.472656 C 7.289062 3.742188 8.332031 4.785156 9.648438 4.785156 Z M 9.648438 0.476562 C 10.734375 0.476562 11.644531 1.382812 11.644531 2.472656 C 11.644531 3.5625 10.734375 4.46875 9.648438 4.46875 C 8.558594 4.46875 7.652344 3.5625 7.652344 2.472656 C 7.652344 1.382812 8.558594 0.476562 9.648438 0.476562 Z M 9.648438 0.476562 " fill-opacity="1" fill-rule="nonzero"/><path fill="#061c3d" d="M 11.007812 2.199219 L 10.871094 1.882812 L 9.738281 2.246094 L 9.195312 1.519531 L 8.921875 1.699219 L 9.554688 2.652344 Z M 11.007812 2.199219 " fill-opacity="1" fill-rule="nonzero"/><g clip-path="url(#762a69a643)"><path fill="#061c3d" d="M 27.15625 0.113281 C 25.839844 0.113281 24.796875 1.15625 24.796875 2.472656 C 24.796875 3.789062 25.839844 4.832031 27.15625 4.832031 C 28.472656 4.832031 29.515625 3.742188 29.515625 2.472656 C 29.515625 1.15625 28.472656 0.113281 27.15625 0.113281 Z M 27.15625 4.46875 C 26.070312 4.46875 25.160156 3.5625 25.160156 2.472656 C 25.160156 1.382812 26.070312 0.476562 27.15625 0.476562 C 28.246094 0.476562 29.152344 1.382812 29.152344 2.472656 C 29.152344 3.5625 28.292969 4.46875 27.15625 4.46875 Z M 27.15625 4.46875 " fill-opacity="1" fill-rule="nonzero"/></g><path fill="#061c3d" d="M 27.65625 1.382812 L 27.339844 1.292969 L 26.976562 2.519531 L 27.882812 3.46875 L 28.109375 3.242188 L 27.382812 2.425781 Z M 27.65625 1.382812 " fill-opacity="1" fill-rule="nonzero"/><g clip-path="url(#3a9de4a9a1)"><path fill="#061c3d" d="M 3.929688 13.132812 L 3.070312 13.132812 L 3.070312 13.675781 L 5.519531 13.675781 L 5.519531 13.132812 L 4.65625 13.132812 L 4.65625 12.042969 L 7.878906 12.042969 C 8.015625 12.042969 8.105469 11.953125 8.105469 11.816406 L 8.105469 7.097656 C 8.105469 6.964844 8.015625 6.871094 7.878906 6.871094 L 0.710938 6.871094 C 0.574219 6.871094 0.484375 6.964844 0.484375 7.097656 L 0.484375 11.816406 C 0.484375 11.953125 0.574219 12.042969 0.710938 12.042969 L 3.929688 12.042969 Z M 3.703125 9.457031 C 3.703125 9.140625 3.976562 8.867188 4.292969 8.867188 C 4.613281 8.867188 4.882812 9.140625 4.882812 9.457031 C 4.882812 9.777344 4.613281 10.046875 4.292969 10.046875 C 3.976562 10.09375 3.703125 9.820312 3.703125 9.457031 Z M 3.703125 9.457031 " fill-opacity="1" fill-rule="nonzero"/></g><path fill="#061c3d" d="M 9.738281 8.597656 C 9.328125 8.277344 8.785156 8.371094 8.46875 8.777344 C 8.148438 9.1875 8.242188 9.730469 8.648438 10.046875 C 9.964844 11 11.460938 11.046875 12.957031 10.457031 L 13.230469 13.722656 L 19.808594 13.722656 L 20.082031 10.136719 C 20.308594 10.183594 20.535156 10.183594 20.761719 10.183594 C 21.261719 10.183594 21.757812 10.046875 22.167969 9.683594 C 23.4375 8.550781 22.667969 6.148438 21.941406 4.421875 C 21.851562 4.195312 21.667969 4.015625 21.441406 3.925781 C 21.53125 4.785156 21.304688 5.648438 20.714844 6.328125 C 21.214844 7.960938 20.941406 8.371094 20.941406 8.371094 C 20.804688 8.460938 20.171875 8.371094 19.671875 8.097656 C 17.585938 6.644531 15.316406 6.828125 13.050781 8.371094 C 13.003906 8.414062 12.957031 8.460938 12.914062 8.503906 C 12.367188 8.824219 10.917969 9.503906 9.738281 8.597656 Z M 16.542969 7.960938 C 16.769531 7.960938 16.996094 8.007812 17.222656 8.097656 L 16.949219 9.050781 L 16.089844 9.050781 L 15.816406 8.097656 C 16.042969 8.007812 16.316406 7.960938 16.542969 7.960938 Z M 16.042969 9.414062 L 16.996094 9.414062 L 17.269531 12.722656 L 16.542969 13.585938 L 15.816406 12.722656 Z M 16.042969 9.414062 " fill-opacity="1" fill-rule="nonzero"/><path fill="#061c3d" d="M 20.171875 3.832031 C 20.308594 4.332031 20.214844 4.875 19.945312 5.332031 C 19.308594 4.832031 18.492188 5.691406 18.945312 6.28125 C 19.21875 6.691406 19.808594 6.601562 19.988281 6.417969 C 20.214844 6.238281 20.398438 6.054688 20.578125 5.828125 C 20.988281 5.285156 21.125 4.558594 21.035156 3.878906 C 20.671875 1.519531 18.765625 2.609375 19.445312 3.5625 C 19.582031 3.832031 19.898438 3.925781 20.171875 3.832031 Z M 20.171875 3.832031 " fill-opacity="1" fill-rule="nonzero"/></svg>