<svg xmlns="http://www.w3.org/2000/svg" width="40" height="40" version="1.0" viewBox="0 0 30 30"><defs><clipPath id="a"><path d="M.484 1.324h29.032v26.13H.484Zm0 0"/></clipPath></defs><g clip-path="url(#a)"><path fill="#fff" d="M12.809 1.387c-1.192 0-2.364.547-3.16 1.433a.08.08 0 0 1-.094.02c-.367-.14-.75-.23-1.14-.23a3.14 3.14 0 0 0-2.099.816c-.523.472-.847 1.14-.957 1.84a.09.09 0 0 1-.066.07l-.059.012q-.066.018-.136.03-.123.035-.246.075-.069.023-.137.05-.125.05-.25.11c-.031.02-.067.035-.098.055A2.976 2.976 0 0 0 2.88 7.652h-1.52a.876.876 0 0 0-.875.875V21.04c0 .48.391.871.875.871H8.82c-.03.262-.066.527-.093.79-.047.405-.098.777-.223 1.062a.8.8 0 0 1-.215.289q-.02.01-.039.02H6.773a.27.27 0 0 0-.207.105.28.28 0 0 0-.035.234l.149.418c.02.047.05.094.093.125a.3.3 0 0 0 .149.043h8.676c.05 0 .101-.016.144-.043a.27.27 0 0 0 .094-.125l.148-.418a.26.26 0 0 0-.035-.234.26.26 0 0 0-.207-.106h-1.476c-.012-.008-.028-.011-.04-.02a.74.74 0 0 1-.21-.288c-.13-.285-.176-.657-.223-1.063q-.048-.395-.098-.789h3.621v-.926H1.41v-1.16H17.47v1.653c0 .511.418.921.93.921h10.19c.513 0 .927-.41.927-.921v-2.704a.925.925 0 0 0-.926-.925H18.398a.93.93 0 0 0-.93.925v.125H1.41V8.582h1.426a3.017 3.017 0 0 0 3 2.734h1.25a5 5 0 0 0-.223.817l-.605-.156c-.125-.036-.301.039-.367.148a.37.37 0 0 0 .039.395l1.144 1.261a.36.36 0 0 0 .23.11c-.011-.004.016 0 .02 0h.004a.37.37 0 0 0 .238-.11l1.149-1.261c.086-.094.101-.282.035-.395a.37.37 0 0 0-.367-.148l-.598.156a3.72 3.72 0 0 1 3.63-2.922 3.72 3.72 0 0 1 3.538 2.578v-.008a.453.453 0 0 0 .89-.11c0-.042 0-.093-.019-.151v-.004c-.02-.07-.054-.133-.082-.2h.863a3.574 3.574 0 0 0 3.477-2.738h1.023v4.094h-2.707a.925.925 0 0 0-.925.926v2.699c0 .512.414.926.925.926H28.59a.925.925 0 0 0 .926-.926v-2.7a.925.925 0 0 0-.926-.925H22.03V8.523c0-.48-.39-.87-.875-.87h-.972a3.57 3.57 0 0 0-3.344-3.481.075.075 0 0 1-.07-.05q.001.005-.004-.009V4.11c-.016-.039-.028-.078-.043-.109.007.012.007.016 0-.004q-.02-.033-.043-.086a6 6 0 0 0-.18-.367q-.026-.034-.05-.082a4.2 4.2 0 0 0-1.153-1.281 4.32 4.32 0 0 0-2.485-.797h-.003Zm0 .926h.007c1.012 0 1.989.515 2.618 1.3.171.223.316.465.425.727q.007.005.008.015a3.3 3.3 0 0 1 .172 1.899v.004a.468.468 0 0 0 .457.578c.234 0 .43-.168.469-.399.074-.398.094-.808.058-1.214a.08.08 0 0 1 .075-.09 2.622 2.622 0 0 1 2.16 2.602 2.633 2.633 0 0 1-2.653 2.652H15.27a4.62 4.62 0 0 0-7.719 0H5.836a2.083 2.083 0 0 1-2.102-2.102c0-.418.121-.805.325-1.129a.1.1 0 0 1 .03-.027 2.09 2.09 0 0 1 1.575-.91 2.12 2.12 0 0 1 1.277.308.44.44 0 0 0 .274.086c.25 0 .453-.203.453-.453a.45.45 0 0 0-.238-.394q.001-.005-.004-.004a3 3 0 0 0-1.078-.426.085.085 0 0 1-.067-.098s.004 0 .004-.004C6.52 4.29 7.43 3.535 8.418 3.535c.316 0 .629.07.918.203.148.07.32.09.484.051a.76.76 0 0 0 .41-.254 3.38 3.38 0 0 1 2.579-1.223m2.742 10.16a.33.33 0 0 0-.239.109l-1.148 1.258a.37.37 0 0 0-.039.394.37.37 0 0 0 .367.153l.598-.157a3.71 3.71 0 0 1-3.625 2.918 3.72 3.72 0 0 1-3.54-2.574v.008a.452.452 0 0 0-.89.11c0 .038 0 .093.02.148v.008a4.625 4.625 0 0 0 8.96-.617l.606.156c.125.031.3-.04.367-.149a.37.37 0 0 0-.039-.394l-1.148-1.262a.34.34 0 0 0-.23-.11h-.02m2.87 1.125h10.145q.024.002.024.027v2.648c0 .016-.008.028-.024.028H18.422a.027.027 0 0 1-.027-.028v-2.648c0-.016.003-.02.003-.023.004 0 .004-.004.024-.004m1.079.886c-.254 0-.46.211-.46.465s.206.461.46.461h2.559a.462.462 0 0 0 0-.926Zm5.344 0a.47.47 0 0 0-.465.465c0 .254.21.461.465.461h.636a.465.465 0 0 0 .465-.46.47.47 0 0 0-.465-.466Zm2.004 0a.47.47 0 0 0-.465.465c0 .254.21.461.465.461h.636a.465.465 0 0 0 .465-.46.47.47 0 0 0-.465-.466Zm-8.426 4.29h10.144q.024.002.024.027v2.648c0 .016-.008.028-.024.028H18.422a.027.027 0 0 1-.027-.028v-2.648c0-.016.011-.028.027-.028m1.078.886c-.254 0-.46.211-.46.465s.206.46.46.46h2.559a.462.462 0 0 0 0-.925Zm5.344 0a.47.47 0 0 0-.465.465c0 .254.21.46.465.46h.636a.465.465 0 0 0 .465-.46.47.47 0 0 0-.465-.465Zm2.004 0a.47.47 0 0 0-.465.465c0 .254.21.46.465.46h.636a.465.465 0 0 0 .465-.46.47.47 0 0 0-.465-.465ZM9.75 21.91h3.016l.105.895c.043.386.094.828.277 1.265h-3.78c.183-.437.234-.879.277-1.265zm8.648 1.113a.93.93 0 0 0-.93.926v2.7c0 .511.419.925.93.925H28.59a.925.925 0 0 0 .926-.926V23.95a.925.925 0 0 0-.926-.926Zm.024.926h10.144c.016 0 .024.012.024.028v2.648q0 .026-.024.027H18.422a.027.027 0 0 1-.027-.027v-2.648c0-.016.011-.028.027-.028m1.078.887a.463.463 0 0 0 0 .926h2.559a.462.462 0 0 0 0-.926Zm5.344 0a.466.466 0 0 0-.465.465c0 .254.21.46.465.46h.636a.465.465 0 0 0 .465-.46.466.466 0 0 0-.465-.465Zm2.004 0a.466.466 0 0 0-.465.465c0 .254.21.46.465.46h.636a.465.465 0 0 0 .465-.46.466.466 0 0 0-.465-.465Zm0 0"/></g></svg>