<svg xmlns="http://www.w3.org/2000/svg" xmlns:xlink="http://www.w3.org/1999/xlink" width="40" zoomAndPan="magnify" viewBox="0 0 30 30.000001" height="40" preserveAspectRatio="xMidYMid meet" version="1.0"><defs><clipPath id="ea90435d94"><path d="M 21 7 L 29.515625 7 L 29.515625 15 L 21 15 Z M 21 7 " clip-rule="nonzero"/></clipPath><clipPath id="748a38d5f0"><path d="M 0.484375 2.902344 L 24 2.902344 L 24 23 L 0.484375 23 Z M 0.484375 2.902344 " clip-rule="nonzero"/></clipPath><clipPath id="5524f76af2"><path d="M 21 25 L 23 25 L 23 26.128906 L 21 26.128906 Z M 21 25 " clip-rule="nonzero"/></clipPath><clipPath id="ce19a89938"><path d="M 28 15 L 29.515625 15 L 29.515625 17 L 28 17 Z M 28 15 " clip-rule="nonzero"/></clipPath><clipPath id="ea393bb2e5"><path d="M 28 17 L 29.515625 17 L 29.515625 18 L 28 18 Z M 28 17 " clip-rule="nonzero"/></clipPath><clipPath id="e195f08d2d"><path d="M 28 18 L 29.515625 18 L 29.515625 20 L 28 20 Z M 28 18 " clip-rule="nonzero"/></clipPath></defs><path fill="#061c3d" d="M 7.527344 20.882812 L 10.851562 20.882812 C 11.015625 20.882812 11.152344 20.746094 11.152344 20.578125 C 11.152344 20.410156 11.015625 20.273438 10.851562 20.273438 L 7.527344 20.273438 C 7.359375 20.273438 7.222656 20.410156 7.222656 20.578125 C 7.222656 20.746094 7.359375 20.882812 7.527344 20.882812 Z M 7.527344 20.882812 " fill-opacity="1" fill-rule="nonzero"/><path fill="#061c3d" d="M 7.527344 19.210938 L 10.851562 19.210938 C 11.015625 19.210938 11.152344 19.074219 11.152344 18.90625 C 11.152344 18.738281 11.015625 18.605469 10.851562 18.605469 L 7.527344 18.605469 C 7.359375 18.605469 7.222656 18.742188 7.222656 18.90625 C 7.222656 19.074219 7.359375 19.210938 7.527344 19.210938 Z M 7.527344 19.210938 " fill-opacity="1" fill-rule="nonzero"/><path fill="#061c3d" d="M 7.527344 17.539062 L 10.851562 17.539062 C 11.015625 17.539062 11.152344 17.402344 11.152344 17.238281 C 11.152344 17.070312 11.015625 16.933594 10.851562 16.933594 L 7.527344 16.933594 C 7.359375 16.933594 7.222656 17.070312 7.222656 17.238281 C 7.222656 17.402344 7.359375 17.539062 7.527344 17.539062 Z M 7.527344 17.539062 " fill-opacity="1" fill-rule="nonzero"/><path fill="#061c3d" d="M 7.527344 15.867188 L 10.851562 15.867188 C 11.015625 15.867188 11.152344 15.730469 11.152344 15.566406 C 11.152344 15.398438 11.015625 15.261719 10.851562 15.261719 L 7.527344 15.261719 C 7.359375 15.261719 7.222656 15.398438 7.222656 15.566406 C 7.222656 15.734375 7.359375 15.867188 7.527344 15.867188 Z M 7.527344 15.867188 " fill-opacity="1" fill-rule="nonzero"/><path fill="#061c3d" d="M 15.390625 4.542969 L 13.230469 4.542969 C 13.0625 4.542969 12.929688 4.679688 12.929688 4.847656 C 12.929688 5.011719 13.0625 5.148438 13.230469 5.148438 L 15.390625 5.148438 C 15.558594 5.148438 15.695312 5.011719 15.695312 4.847656 C 15.695312 4.679688 15.558594 4.542969 15.390625 4.542969 Z M 15.390625 4.542969 " fill-opacity="1" fill-rule="nonzero"/><path fill="#061c3d" d="M 15.390625 6.515625 L 13.230469 6.515625 C 13.0625 6.515625 12.929688 6.652344 12.929688 6.820312 C 12.929688 6.988281 13.0625 7.125 13.230469 7.125 L 15.390625 7.125 C 15.558594 7.125 15.695312 6.988281 15.695312 6.820312 C 15.695312 6.652344 15.558594 6.515625 15.390625 6.515625 Z M 15.390625 6.515625 " fill-opacity="1" fill-rule="nonzero"/><path fill="#061c3d" d="M 15.390625 8.492188 L 13.230469 8.492188 C 13.0625 8.492188 12.929688 8.628906 12.929688 8.792969 C 12.929688 8.960938 13.0625 9.097656 13.230469 9.097656 L 15.390625 9.097656 C 15.558594 9.097656 15.695312 8.960938 15.695312 8.792969 C 15.695312 8.628906 15.558594 8.492188 15.390625 8.492188 Z M 15.390625 8.492188 " fill-opacity="1" fill-rule="nonzero"/><path fill="#061c3d" d="M 15.390625 10.464844 L 13.230469 10.464844 C 13.0625 10.464844 12.929688 10.601562 12.929688 10.769531 C 12.929688 10.933594 13.0625 11.070312 13.230469 11.070312 L 15.390625 11.070312 C 15.558594 11.070312 15.695312 10.933594 15.695312 10.769531 C 15.695312 10.601562 15.558594 10.464844 15.390625 10.464844 Z M 15.390625 10.464844 " fill-opacity="1" fill-rule="nonzero"/><path fill="#061c3d" d="M 15.390625 14.414062 L 13.230469 14.414062 C 13.0625 14.414062 12.929688 14.550781 12.929688 14.714844 C 12.929688 14.882812 13.0625 15.019531 13.230469 15.019531 L 15.390625 15.019531 C 15.558594 15.019531 15.695312 14.882812 15.695312 14.714844 C 15.695312 14.550781 15.558594 14.414062 15.390625 14.414062 Z M 15.390625 14.414062 " fill-opacity="1" fill-rule="nonzero"/><path fill="#061c3d" d="M 15.390625 16.386719 L 13.230469 16.386719 C 13.0625 16.386719 12.929688 16.523438 12.929688 16.691406 C 12.929688 16.859375 13.0625 16.992188 13.230469 16.992188 L 15.390625 16.992188 C 15.558594 16.992188 15.695312 16.859375 15.695312 16.691406 C 15.695312 16.523438 15.558594 16.386719 15.390625 16.386719 Z M 15.390625 16.386719 " fill-opacity="1" fill-rule="nonzero"/><path fill="#061c3d" d="M 15.390625 18.359375 L 13.230469 18.359375 C 13.0625 18.359375 12.929688 18.496094 12.929688 18.664062 C 12.929688 18.832031 13.0625 18.96875 13.230469 18.96875 L 15.390625 18.96875 C 15.558594 18.96875 15.695312 18.832031 15.695312 18.664062 C 15.695312 18.496094 15.558594 18.359375 15.390625 18.359375 Z M 15.390625 18.359375 " fill-opacity="1" fill-rule="nonzero"/><path fill="#061c3d" d="M 15.390625 20.335938 L 13.230469 20.335938 C 13.0625 20.335938 12.929688 20.472656 12.929688 20.636719 C 12.929688 20.804688 13.0625 20.941406 13.230469 20.941406 L 15.390625 20.941406 C 15.558594 20.941406 15.695312 20.804688 15.695312 20.636719 C 15.695312 20.472656 15.558594 20.335938 15.390625 20.335938 Z M 15.390625 20.335938 " fill-opacity="1" fill-rule="nonzero"/><path fill="#061c3d" d="M 7.527344 14.195312 L 10.851562 14.195312 C 11.015625 14.195312 11.152344 14.0625 11.152344 13.894531 C 11.152344 13.726562 11.015625 13.589844 10.851562 13.589844 L 7.527344 13.589844 C 7.359375 13.589844 7.222656 13.726562 7.222656 13.894531 C 7.222656 14.0625 7.359375 14.195312 7.527344 14.195312 Z M 7.527344 14.195312 " fill-opacity="1" fill-rule="nonzero"/><path fill="#061c3d" d="M 15.390625 12.4375 L 13.230469 12.4375 C 13.0625 12.4375 12.929688 12.574219 12.929688 12.742188 C 12.929688 12.910156 13.0625 13.046875 13.230469 13.046875 L 15.390625 13.046875 C 15.558594 13.046875 15.695312 12.910156 15.695312 12.742188 C 15.695312 12.574219 15.558594 12.4375 15.390625 12.4375 Z M 15.390625 12.4375 " fill-opacity="1" fill-rule="nonzero"/><path fill="#061c3d" d="M 6.722656 23.894531 L 6.679688 23.894531 C 6.644531 23.894531 6.609375 23.867188 6.601562 23.832031 C 6.464844 23.300781 5.984375 22.925781 5.433594 22.925781 C 4.875 22.925781 4.378906 23.320312 4.253906 23.863281 C 4.246094 23.894531 4.222656 23.917969 4.191406 23.925781 C 3.648438 24.050781 3.253906 24.542969 3.253906 25.101562 L 3.253906 25.425781 C 3.253906 25.558594 3.363281 25.667969 3.5 25.667969 L 3.820312 25.667969 C 3.863281 25.667969 3.898438 25.703125 3.898438 25.746094 L 3.898438 25.988281 L 4.386719 25.988281 L 4.386719 25.746094 C 4.386719 25.703125 4.421875 25.667969 4.464844 25.667969 L 6.722656 25.667969 C 6.765625 25.667969 6.800781 25.703125 6.800781 25.746094 L 6.800781 25.988281 L 7.285156 25.988281 L 7.285156 25.746094 C 7.285156 25.703125 7.324219 25.667969 7.367188 25.667969 L 7.6875 25.667969 C 7.824219 25.667969 7.933594 25.558594 7.933594 25.425781 L 7.933594 25.101562 C 7.933594 24.433594 7.390625 23.894531 6.722656 23.894531 Z M 7.367188 25.183594 L 3.820312 25.183594 C 3.773438 25.183594 3.738281 25.144531 3.738281 25.101562 C 3.738281 24.703125 4.066406 24.378906 4.464844 24.378906 C 4.597656 24.378906 4.707031 24.269531 4.707031 24.132812 C 4.707031 23.734375 5.03125 23.410156 5.433594 23.410156 C 5.832031 23.410156 6.15625 23.734375 6.15625 24.132812 C 6.15625 24.269531 6.265625 24.378906 6.398438 24.378906 L 6.722656 24.378906 C 7.121094 24.378906 7.449219 24.703125 7.449219 25.101562 C 7.449219 25.144531 7.410156 25.183594 7.367188 25.183594 Z M 7.367188 25.183594 " fill-opacity="1" fill-rule="nonzero"/><path fill="#061c3d" d="M 14.136719 23.894531 L 14.097656 23.894531 C 14.058594 23.894531 14.027344 23.867188 14.019531 23.832031 C 13.878906 23.300781 13.398438 22.925781 12.847656 22.925781 C 12.289062 22.925781 11.792969 23.320312 11.667969 23.863281 C 11.660156 23.894531 11.636719 23.917969 11.609375 23.925781 C 11.066406 24.050781 10.671875 24.542969 10.671875 25.101562 L 10.671875 25.425781 C 10.671875 25.558594 10.78125 25.667969 10.914062 25.667969 L 11.234375 25.667969 C 11.28125 25.667969 11.316406 25.703125 11.316406 25.746094 L 11.316406 25.988281 L 11.800781 25.988281 L 11.800781 25.746094 C 11.800781 25.703125 11.835938 25.667969 11.882812 25.667969 L 14.136719 25.667969 C 14.183594 25.667969 14.21875 25.703125 14.21875 25.746094 L 14.21875 25.988281 L 14.703125 25.988281 L 14.703125 25.746094 C 14.703125 25.703125 14.738281 25.667969 14.785156 25.667969 L 15.105469 25.667969 C 15.238281 25.667969 15.347656 25.558594 15.347656 25.425781 L 15.347656 25.101562 C 15.347656 24.433594 14.804688 23.894531 14.136719 23.894531 Z M 14.785156 25.183594 L 11.234375 25.183594 C 11.191406 25.183594 11.15625 25.144531 11.15625 25.101562 C 11.15625 24.703125 11.480469 24.378906 11.882812 24.378906 C 12.015625 24.378906 12.121094 24.269531 12.121094 24.132812 C 12.121094 23.734375 12.449219 23.410156 12.847656 23.410156 C 13.246094 23.410156 13.570312 23.734375 13.570312 24.132812 C 13.570312 24.269531 13.679688 24.378906 13.816406 24.378906 L 14.136719 24.378906 C 14.539062 24.378906 14.863281 24.703125 14.863281 25.101562 C 14.863281 25.144531 14.828125 25.183594 14.785156 25.183594 Z M 14.785156 25.183594 " fill-opacity="1" fill-rule="nonzero"/><path fill="#061c3d" d="M 15.875 22.863281 L 15.636719 22.863281 C 15.46875 22.863281 15.335938 23 15.335938 23.167969 C 15.335938 23.335938 15.46875 23.472656 15.636719 23.472656 L 15.875 23.472656 C 16.042969 23.472656 16.179688 23.335938 16.179688 23.167969 C 16.179688 23 16.042969 22.863281 15.875 22.863281 Z M 15.875 22.863281 " fill-opacity="1" fill-rule="nonzero"/><path fill="#061c3d" d="M 2.972656 22.863281 L 2.734375 22.863281 C 2.566406 22.863281 2.429688 23 2.429688 23.167969 C 2.429688 23.335938 2.566406 23.472656 2.734375 23.472656 L 2.972656 23.472656 C 3.136719 23.472656 3.273438 23.335938 3.273438 23.167969 C 3.273438 23 3.136719 22.863281 2.972656 22.863281 Z M 2.972656 22.863281 " fill-opacity="1" fill-rule="nonzero"/><path fill="#061c3d" d="M 10.382812 22.863281 L 8.222656 22.863281 C 8.054688 22.863281 7.917969 23 7.917969 23.167969 C 7.917969 23.335938 8.054688 23.472656 8.222656 23.472656 L 10.382812 23.472656 C 10.550781 23.472656 10.683594 23.335938 10.683594 23.167969 C 10.683594 23 10.546875 22.863281 10.382812 22.863281 Z M 10.382812 22.863281 " fill-opacity="1" fill-rule="nonzero"/><path fill="#061c3d" d="M 20.695312 16.84375 C 20.441406 16.71875 20.171875 16.652344 19.894531 16.652344 C 19.578125 16.652344 19.28125 16.730469 19.015625 16.882812 C 18.761719 17.027344 18.546875 17.230469 18.394531 17.46875 C 18.203125 17.757812 18.105469 18.09375 18.105469 18.441406 C 18.105469 18.785156 18.203125 19.121094 18.394531 19.414062 C 18.550781 19.65625 18.765625 19.859375 19.015625 20 C 19.203125 20.105469 19.402344 20.175781 19.617188 20.207031 C 19.707031 20.222656 19.800781 20.230469 19.894531 20.230469 C 20.09375 20.230469 20.289062 20.195312 20.480469 20.128906 C 20.984375 19.953125 21.390625 19.550781 21.570312 19.050781 C 21.640625 18.863281 21.671875 18.675781 21.675781 18.488281 L 21.675781 18.453125 L 21.679688 18.441406 C 21.679688 18.066406 21.566406 17.710938 21.351562 17.410156 C 21.179688 17.167969 20.953125 16.972656 20.695312 16.84375 Z M 21.179688 18.496094 C 21.171875 18.742188 21.09375 18.976562 20.957031 19.175781 C 20.714844 19.523438 20.316406 19.734375 19.894531 19.734375 C 19.472656 19.734375 19.078125 19.527344 18.835938 19.1875 C 18.679688 18.96875 18.597656 18.710938 18.597656 18.441406 C 18.597656 18.171875 18.679688 17.914062 18.835938 17.699219 C 19.035156 17.417969 19.328125 17.230469 19.664062 17.167969 L 19.671875 17.167969 C 19.738281 17.152344 19.8125 17.148438 19.894531 17.148438 C 20.015625 17.148438 20.136719 17.164062 20.242188 17.195312 C 20.796875 17.351562 21.183594 17.863281 21.183594 18.441406 C 21.183594 18.464844 21.183594 18.488281 21.179688 18.496094 Z M 21.179688 18.496094 " fill-opacity="1" fill-rule="nonzero"/><path fill="#061c3d" d="M 27.457031 10.742188 C 27.457031 9.753906 26.65625 8.953125 25.667969 8.953125 C 24.683594 8.953125 23.878906 9.753906 23.878906 10.742188 C 23.878906 11.726562 24.683594 12.527344 25.667969 12.527344 C 26.65625 12.527344 27.457031 11.726562 27.457031 10.742188 Z M 24.375 10.742188 C 24.375 10.027344 24.957031 9.445312 25.667969 9.445312 C 26.378906 9.445312 26.960938 10.027344 26.960938 10.742188 C 26.960938 11.453125 26.378906 12.03125 25.667969 12.03125 C 24.957031 12.03125 24.375 11.453125 24.375 10.742188 Z M 24.375 10.742188 " fill-opacity="1" fill-rule="nonzero"/><g clip-path="url(#ea90435d94)"><path fill="#061c3d" d="M 24.507812 13.445312 C 24.523438 13.449219 24.539062 13.457031 24.5625 13.464844 L 24.648438 13.5 L 24.648438 14.203125 C 24.648438 14.339844 24.761719 14.453125 24.898438 14.453125 L 26.4375 14.453125 C 26.574219 14.453125 26.683594 14.339844 26.683594 14.203125 L 26.683594 13.59375 L 26.710938 13.492188 L 26.824219 13.445312 L 26.910156 13.417969 L 27.402344 13.910156 C 27.445312 13.957031 27.507812 13.984375 27.574219 13.984375 C 27.640625 13.984375 27.703125 13.957031 27.75 13.910156 L 28.839844 12.820312 C 28.886719 12.773438 28.910156 12.710938 28.910156 12.648438 C 28.910156 12.578125 28.886719 12.515625 28.839844 12.46875 L 28.40625 12.039062 L 28.339844 11.941406 L 28.394531 11.851562 L 28.425781 11.757812 L 29.132812 11.757812 C 29.269531 11.757812 29.378906 11.644531 29.378906 11.507812 L 29.378906 9.96875 C 29.378906 9.832031 29.269531 9.71875 29.132812 9.71875 L 28.425781 9.71875 L 28.394531 9.625 C 28.390625 9.617188 28.386719 9.609375 28.382812 9.597656 L 28.335938 9.507812 L 28.839844 9.003906 C 28.886719 8.960938 28.910156 8.902344 28.910156 8.832031 C 28.910156 8.765625 28.886719 8.703125 28.839844 8.65625 L 27.753906 7.570312 C 27.703125 7.519531 27.640625 7.496094 27.574219 7.496094 C 27.507812 7.496094 27.449219 7.519531 27.402344 7.566406 L 26.96875 8 L 26.90625 8.058594 L 26.824219 8.03125 C 26.804688 8.023438 26.78125 8.015625 26.761719 8.003906 L 26.683594 7.96875 L 26.683594 7.273438 C 26.683594 7.136719 26.574219 7.023438 26.4375 7.023438 L 24.898438 7.023438 C 24.761719 7.023438 24.648438 7.136719 24.648438 7.273438 L 24.648438 7.960938 L 24.582031 8 C 24.558594 8.015625 24.53125 8.023438 24.507812 8.03125 L 24.429688 8.058594 L 23.9375 7.566406 C 23.894531 7.523438 23.832031 7.5 23.761719 7.5 C 23.695312 7.5 23.628906 7.527344 23.585938 7.566406 L 22.496094 8.660156 C 22.453125 8.703125 22.425781 8.765625 22.425781 8.832031 C 22.425781 8.902344 22.453125 8.960938 22.5 9.007812 L 22.929688 9.441406 L 22.984375 9.546875 L 22.941406 9.636719 L 22.90625 9.722656 L 22.203125 9.722656 C 22.066406 9.722656 21.953125 9.832031 21.953125 9.96875 L 21.953125 11.511719 C 21.953125 11.546875 21.960938 11.578125 21.976562 11.609375 C 22.015625 11.699219 22.101562 11.757812 22.203125 11.757812 L 22.8125 11.757812 L 22.917969 11.777344 L 22.949219 11.871094 L 23.007812 11.964844 L 22.5 12.46875 C 22.453125 12.515625 22.425781 12.582031 22.425781 12.648438 C 22.425781 12.710938 22.453125 12.773438 22.5 12.820312 L 23.585938 13.910156 C 23.632812 13.957031 23.695312 13.984375 23.761719 13.984375 C 23.828125 13.984375 23.890625 13.957031 23.9375 13.910156 L 24.429688 13.421875 Z M 24.210938 12.9375 L 23.761719 13.386719 L 23.023438 12.644531 L 23.472656 12.195312 C 23.550781 12.117188 23.566406 12 23.515625 11.902344 C 23.433594 11.746094 23.367188 11.589844 23.320312 11.4375 C 23.292969 11.332031 23.195312 11.261719 23.085938 11.261719 L 22.453125 11.261719 L 22.453125 10.214844 L 23.085938 10.214844 C 23.199219 10.214844 23.292969 10.144531 23.320312 10.039062 C 23.367188 9.882812 23.429688 9.734375 23.515625 9.574219 C 23.566406 9.476562 23.550781 9.359375 23.472656 9.28125 L 23.023438 8.832031 L 23.761719 8.09375 L 24.210938 8.542969 C 24.257812 8.589844 24.320312 8.613281 24.386719 8.613281 C 24.429688 8.613281 24.46875 8.605469 24.503906 8.585938 C 24.644531 8.507812 24.800781 8.445312 24.96875 8.394531 C 25.074219 8.359375 25.144531 8.265625 25.144531 8.15625 L 25.144531 7.519531 L 26.191406 7.519531 L 26.191406 8.15625 C 26.191406 8.265625 26.261719 8.363281 26.367188 8.394531 C 26.535156 8.445312 26.691406 8.507812 26.832031 8.585938 C 26.867188 8.605469 26.910156 8.617188 26.953125 8.617188 C 27.019531 8.617188 27.078125 8.589844 27.125 8.542969 L 27.574219 8.09375 L 28.3125 8.832031 L 27.863281 9.28125 C 27.785156 9.359375 27.769531 9.476562 27.824219 9.578125 C 27.898438 9.722656 27.964844 9.875 28.015625 10.042969 C 28.042969 10.144531 28.140625 10.214844 28.25 10.214844 L 28.886719 10.214844 L 28.886719 11.261719 L 28.25 11.261719 C 28.140625 11.261719 28.042969 11.332031 28.011719 11.4375 C 27.964844 11.601562 27.898438 11.757812 27.820312 11.90625 C 27.769531 12 27.785156 12.121094 27.863281 12.195312 L 28.3125 12.644531 L 27.574219 13.386719 L 27.125 12.9375 C 27.078125 12.890625 27.015625 12.863281 26.949219 12.863281 C 26.910156 12.863281 26.871094 12.875 26.832031 12.894531 C 26.6875 12.96875 26.53125 13.035156 26.367188 13.082031 C 26.261719 13.113281 26.191406 13.210938 26.191406 13.320312 L 26.191406 13.957031 L 25.144531 13.957031 L 25.144531 13.320312 C 25.144531 13.210938 25.074219 13.113281 24.96875 13.082031 C 24.800781 13.03125 24.644531 12.96875 24.503906 12.890625 C 24.46875 12.871094 24.429688 12.863281 24.386719 12.863281 C 24.320312 12.863281 24.257812 12.886719 24.210938 12.9375 Z M 24.210938 12.9375 " fill-opacity="1" fill-rule="nonzero"/></g><g clip-path="url(#748a38d5f0)"><path fill="#061c3d" d="M 21.796875 21.683594 C 21.863281 21.683594 21.925781 21.660156 21.972656 21.613281 L 23.0625 20.519531 C 23.109375 20.472656 23.136719 20.414062 23.136719 20.347656 C 23.136719 20.28125 23.109375 20.21875 23.0625 20.171875 L 22.632812 19.738281 L 22.5625 19.644531 L 22.617188 19.550781 L 22.648438 19.457031 L 23.359375 19.457031 C 23.496094 19.457031 23.605469 19.347656 23.605469 19.210938 L 23.605469 17.667969 C 23.605469 17.535156 23.496094 17.421875 23.359375 17.421875 L 22.648438 17.421875 L 22.617188 17.328125 C 22.613281 17.316406 22.609375 17.308594 22.605469 17.300781 L 22.5625 17.210938 L 23.066406 16.707031 C 23.109375 16.664062 23.136719 16.601562 23.136719 16.535156 C 23.136719 16.46875 23.109375 16.40625 23.0625 16.359375 L 21.976562 15.269531 C 21.925781 15.222656 21.863281 15.195312 21.800781 15.195312 C 21.734375 15.195312 21.671875 15.222656 21.625 15.269531 L 21.195312 15.699219 L 21.128906 15.757812 L 21.046875 15.730469 C 21.027344 15.726562 21.007812 15.71875 20.984375 15.707031 L 20.910156 15.667969 L 20.910156 14.972656 C 20.910156 14.839844 20.796875 14.726562 20.664062 14.726562 L 19.125 14.726562 C 18.984375 14.726562 18.875 14.839844 18.875 14.972656 L 18.875 15.660156 L 18.808594 15.703125 C 18.78125 15.71875 18.757812 15.726562 18.734375 15.734375 L 18.652344 15.761719 L 18.160156 15.269531 C 18.117188 15.226562 18.054688 15.203125 17.988281 15.203125 C 17.917969 15.203125 17.855469 15.226562 17.8125 15.269531 L 16.804688 16.277344 L 16.804688 3.269531 C 16.804688 3.101562 16.667969 2.964844 16.503906 2.964844 L 12.125 2.964844 C 11.957031 2.964844 11.820312 3.101562 11.820312 3.269531 L 11.820312 12.074219 L 10.539062 12.074219 L 10.539062 10.710938 C 10.539062 10.300781 10.207031 9.96875 9.792969 9.96875 L 8.582031 9.96875 C 8.171875 9.96875 7.835938 10.300781 7.835938 10.710938 L 7.835938 12.074219 L 6.25 12.074219 C 6.082031 12.074219 5.949219 12.210938 5.949219 12.378906 L 5.949219 15 C 5.949219 15.167969 6.082031 15.304688 6.25 15.304688 C 6.417969 15.304688 6.554688 15.164062 6.554688 15 L 6.554688 12.683594 L 11.820312 12.683594 L 11.820312 21.648438 L 4.867188 21.648438 L 4.867188 19.304688 C 5.453125 19.128906 5.859375 18.449219 5.859375 17.640625 C 5.859375 16.867188 5.417969 15.054688 4.5625 15.054688 C 3.660156 15.054688 3.261719 16.925781 3.261719 17.640625 C 3.261719 18.453125 3.671875 19.128906 4.257812 19.308594 L 4.257812 21.648438 L 2.898438 21.648438 L 2.898438 8.664062 C 2.898438 8.585938 2.960938 8.523438 3.039062 8.523438 L 5.808594 8.523438 C 5.886719 8.523438 5.949219 8.585938 5.949219 8.664062 L 5.949219 10.476562 C 5.949219 10.644531 6.085938 10.785156 6.25 10.785156 C 6.417969 10.785156 6.554688 10.644531 6.554688 10.476562 L 6.554688 8.664062 C 6.554688 8.253906 6.222656 7.917969 5.808594 7.917969 L 3.039062 7.917969 C 2.628906 7.917969 2.292969 8.253906 2.292969 8.664062 L 2.292969 21.679688 L 0.785156 21.679688 C 0.617188 21.679688 0.484375 21.8125 0.484375 21.980469 C 0.484375 22.148438 0.617188 22.285156 0.785156 22.285156 L 18.0625 22.285156 C 18.238281 22.285156 18.378906 22.144531 18.378906 21.964844 C 18.378906 21.804688 18.253906 21.675781 18.097656 21.65625 C 18.121094 21.644531 18.140625 21.632812 18.160156 21.613281 L 18.652344 21.121094 L 18.730469 21.148438 C 18.746094 21.152344 18.761719 21.15625 18.785156 21.167969 L 18.875 21.203125 L 18.875 21.90625 C 18.875 22.042969 18.984375 22.152344 19.125 22.152344 L 20.664062 22.152344 C 20.796875 22.152344 20.910156 22.042969 20.910156 21.90625 L 20.910156 21.296875 L 20.933594 21.195312 L 21.046875 21.148438 L 21.132812 21.121094 L 21.625 21.613281 C 21.671875 21.660156 21.734375 21.683594 21.796875 21.683594 Z M 9.929688 12.074219 L 8.441406 12.074219 L 8.441406 10.710938 C 8.441406 10.636719 8.503906 10.570312 8.582031 10.570312 L 9.792969 10.570312 C 9.871094 10.570312 9.929688 10.636719 9.929688 10.710938 Z M 4.566406 18.746094 L 4.554688 18.746094 C 4.183594 18.742188 3.867188 18.238281 3.867188 17.640625 C 3.867188 16.742188 4.363281 15.664062 4.558594 15.664062 C 4.753906 15.664062 5.25 16.742188 5.25 17.640625 C 5.25 18.230469 4.9375 18.742188 4.582031 18.75 Z M 17.152344 17.140625 L 17.210938 17.25 L 17.164062 17.335938 L 17.132812 17.421875 L 16.804688 17.421875 L 16.804688 16.792969 Z M 16.804688 19.457031 L 17.039062 19.457031 L 17.144531 19.480469 L 17.175781 19.570312 L 17.230469 19.664062 L 16.804688 20.089844 Z M 12.425781 21.648438 L 12.425781 3.570312 L 16.199219 3.570312 L 16.195312 21.648438 Z M 16.804688 21.648438 L 16.804688 20.605469 L 17.8125 21.613281 C 17.828125 21.628906 17.847656 21.636719 17.863281 21.648438 Z M 21.175781 20.566406 C 21.132812 20.566406 21.09375 20.574219 21.058594 20.597656 C 20.914062 20.671875 20.757812 20.738281 20.59375 20.785156 C 20.488281 20.816406 20.414062 20.914062 20.414062 21.023438 L 20.414062 21.660156 L 19.371094 21.660156 L 19.371094 21.023438 C 19.371094 20.914062 19.296875 20.816406 19.195312 20.785156 C 19.023438 20.734375 18.867188 20.671875 18.730469 20.59375 C 18.691406 20.574219 18.652344 20.5625 18.613281 20.5625 C 18.542969 20.5625 18.484375 20.589844 18.433594 20.636719 L 17.984375 21.085938 L 17.25 20.347656 L 17.699219 19.894531 C 17.773438 19.820312 17.792969 19.699219 17.738281 19.601562 C 17.65625 19.449219 17.59375 19.292969 17.546875 19.140625 C 17.515625 19.035156 17.421875 18.964844 17.308594 18.964844 L 16.804688 18.964844 L 16.804688 17.917969 L 17.308594 17.917969 C 17.421875 17.917969 17.515625 17.847656 17.546875 17.742188 C 17.59375 17.585938 17.65625 17.433594 17.738281 17.277344 C 17.792969 17.179688 17.773438 17.0625 17.695312 16.984375 L 17.25 16.535156 L 17.988281 15.796875 L 18.433594 16.242188 C 18.480469 16.289062 18.546875 16.316406 18.613281 16.316406 C 18.652344 16.316406 18.695312 16.304688 18.726562 16.289062 C 18.867188 16.210938 19.027344 16.144531 19.195312 16.09375 C 19.300781 16.0625 19.371094 15.96875 19.371094 15.859375 L 19.371094 15.222656 L 20.414062 15.222656 L 20.414062 15.859375 C 20.414062 15.96875 20.488281 16.0625 20.59375 16.09375 C 20.761719 16.144531 20.917969 16.210938 21.058594 16.289062 C 21.09375 16.308594 21.132812 16.316406 21.175781 16.316406 C 21.242188 16.316406 21.304688 16.292969 21.351562 16.246094 L 21.800781 15.796875 L 22.539062 16.535156 L 22.089844 16.984375 C 22.011719 17.0625 21.992188 17.179688 22.046875 17.277344 C 22.125 17.425781 22.1875 17.574219 22.238281 17.742188 C 22.269531 17.84375 22.367188 17.917969 22.476562 17.917969 L 23.109375 17.917969 L 23.109375 18.964844 L 22.476562 18.964844 C 22.363281 18.964844 22.269531 19.035156 22.238281 19.140625 C 22.1875 19.304688 22.125 19.460938 22.046875 19.605469 C 21.992188 19.703125 22.011719 19.820312 22.089844 19.898438 L 22.539062 20.34375 L 21.800781 21.085938 L 21.351562 20.636719 C 21.304688 20.59375 21.242188 20.566406 21.175781 20.566406 Z M 21.175781 20.566406 " fill-opacity="1" fill-rule="nonzero"/></g><path fill="#061c3d" d="M 22.734375 25.011719 L 22.957031 25.75 C 23.203125 25.675781 23.445312 25.589844 23.683594 25.496094 L 23.398438 24.78125 C 23.183594 24.867188 22.957031 24.945312 22.734375 25.011719 Z M 22.734375 25.011719 " fill-opacity="1" fill-rule="nonzero"/><g clip-path="url(#5524f76af2)"><path fill="#061c3d" d="M 21.355469 25.304688 L 21.453125 26.070312 C 21.707031 26.035156 21.960938 25.992188 22.210938 25.941406 L 22.050781 25.1875 C 21.820312 25.234375 21.589844 25.277344 21.355469 25.304688 Z M 21.355469 25.304688 " fill-opacity="1" fill-rule="nonzero"/></g><path fill="#061c3d" d="M 27.925781 20.546875 L 28.621094 20.882812 C 28.730469 20.652344 28.832031 20.414062 28.921875 20.171875 L 28.203125 19.902344 C 28.121094 20.121094 28.027344 20.339844 27.925781 20.546875 Z M 27.925781 20.546875 " fill-opacity="1" fill-rule="nonzero"/><g clip-path="url(#ce19a89938)"><path fill="#061c3d" d="M 28.738281 16.445312 L 29.507812 16.402344 C 29.492188 16.148438 29.46875 15.890625 29.433594 15.636719 L 28.671875 15.742188 C 28.703125 15.972656 28.726562 16.210938 28.738281 16.445312 Z M 28.738281 16.445312 " fill-opacity="1" fill-rule="nonzero"/></g><g clip-path="url(#ea393bb2e5)"><path fill="#061c3d" d="M 28.746094 17.148438 C 28.738281 17.382812 28.722656 17.621094 28.695312 17.851562 L 29.460938 17.9375 C 29.492188 17.683594 29.507812 17.425781 29.515625 17.171875 Z M 28.746094 17.148438 " fill-opacity="1" fill-rule="nonzero"/></g><path fill="#061c3d" d="M 24.039062 24.492188 L 24.386719 25.183594 C 24.613281 25.070312 24.839844 24.945312 25.058594 24.8125 L 24.660156 24.152344 C 24.457031 24.273438 24.25 24.390625 24.039062 24.492188 Z M 24.039062 24.492188 " fill-opacity="1" fill-rule="nonzero"/><path fill="#061c3d" d="M 25.246094 23.765625 L 25.699219 24.386719 C 25.902344 24.238281 26.105469 24.078125 26.300781 23.910156 L 25.796875 23.328125 C 25.621094 23.480469 25.433594 23.625 25.246094 23.765625 Z M 25.246094 23.765625 " fill-opacity="1" fill-rule="nonzero"/><path fill="#061c3d" d="M 27.214844 21.765625 L 27.84375 22.207031 C 27.992188 22 28.128906 21.78125 28.261719 21.558594 L 27.59375 21.171875 C 27.476562 21.375 27.347656 21.574219 27.214844 21.765625 Z M 27.214844 21.765625 " fill-opacity="1" fill-rule="nonzero"/><g clip-path="url(#e195f08d2d)"><path fill="#061c3d" d="M 28.425781 19.234375 L 29.164062 19.445312 C 29.234375 19.199219 29.292969 18.949219 29.34375 18.699219 L 28.589844 18.546875 C 28.542969 18.777344 28.488281 19.007812 28.425781 19.234375 Z M 28.425781 19.234375 " fill-opacity="1" fill-rule="nonzero"/></g><path fill="#061c3d" d="M 26.3125 22.847656 L 26.863281 23.386719 C 27.042969 23.203125 27.214844 23.011719 27.378906 22.816406 L 26.785156 22.324219 C 26.636719 22.503906 26.476562 22.679688 26.3125 22.847656 Z M 26.3125 22.847656 " fill-opacity="1" fill-rule="nonzero"/><path fill="#061c3d" d="M 18.273438 9.917969 L 17.535156 9.703125 C 17.464844 9.949219 17.402344 10.199219 17.355469 10.453125 L 18.109375 10.601562 C 18.15625 10.371094 18.210938 10.140625 18.273438 9.917969 Z M 18.273438 9.917969 " fill-opacity="1" fill-rule="nonzero"/><path fill="#061c3d" d="M 20.386719 6.300781 L 19.835938 5.761719 C 19.65625 5.945312 19.484375 6.136719 19.320312 6.332031 L 19.914062 6.824219 C 20.0625 6.644531 20.222656 6.46875 20.386719 6.300781 Z M 20.386719 6.300781 " fill-opacity="1" fill-rule="nonzero"/><path fill="#061c3d" d="M 18.003906 11.296875 L 17.238281 11.210938 C 17.210938 11.464844 17.191406 11.722656 17.183594 11.976562 L 17.953125 12 C 17.960938 11.765625 17.976562 11.527344 18.003906 11.296875 Z M 18.003906 11.296875 " fill-opacity="1" fill-rule="nonzero"/><path fill="#061c3d" d="M 19.105469 7.976562 C 19.222656 7.773438 19.351562 7.574219 19.484375 7.382812 L 18.855469 6.941406 C 18.707031 7.148438 18.566406 7.367188 18.4375 7.589844 Z M 19.105469 7.976562 " fill-opacity="1" fill-rule="nonzero"/><path fill="#061c3d" d="M 18.773438 8.601562 L 18.078125 8.265625 C 17.96875 8.496094 17.867188 8.734375 17.777344 8.976562 L 18.496094 9.246094 C 18.582031 9.027344 18.671875 8.808594 18.773438 8.601562 Z M 18.773438 8.601562 " fill-opacity="1" fill-rule="nonzero"/><path fill="#061c3d" d="M 25.339844 3.84375 L 25.242188 3.078125 C 24.992188 3.113281 24.738281 3.15625 24.488281 3.207031 L 24.648438 3.960938 C 24.875 3.914062 25.109375 3.875 25.339844 3.84375 Z M 25.339844 3.84375 " fill-opacity="1" fill-rule="nonzero"/><path fill="#061c3d" d="M 22.65625 4.65625 L 22.316406 3.964844 C 22.085938 4.078125 21.859375 4.203125 21.640625 4.335938 L 22.039062 4.996094 C 22.242188 4.875 22.449219 4.757812 22.65625 4.65625 Z M 22.65625 4.65625 " fill-opacity="1" fill-rule="nonzero"/><path fill="#061c3d" d="M 23.964844 4.136719 L 23.742188 3.398438 C 23.496094 3.472656 23.253906 3.558594 23.015625 3.652344 L 23.300781 4.367188 C 23.515625 4.28125 23.742188 4.207031 23.964844 4.136719 Z M 23.964844 4.136719 " fill-opacity="1" fill-rule="nonzero"/><path fill="#061c3d" d="M 17.191406 12.746094 C 17.207031 13 17.230469 13.257812 17.265625 13.511719 L 18.027344 13.40625 C 17.996094 13.175781 17.972656 12.941406 17.960938 12.707031 Z M 17.191406 12.746094 " fill-opacity="1" fill-rule="nonzero"/><path fill="#061c3d" d="M 21.453125 5.386719 L 21 4.761719 C 20.792969 4.910156 20.59375 5.070312 20.398438 5.238281 L 20.902344 5.820312 C 21.078125 5.671875 21.265625 5.523438 21.453125 5.386719 Z M 21.453125 5.386719 " fill-opacity="1" fill-rule="nonzero"/></svg>