<svg xmlns="http://www.w3.org/2000/svg" width="40" height="40" version="1.0" viewBox="0 0 30 30"><defs><clipPath id="a"><path d="M.484.398h29.032v28.309H.484Zm0 0"/></clipPath></defs><g clip-path="url(#a)"><path fill="#fff" d="m28.41 9.3-2.562-1.863V3.27h.23a.84.84 0 0 0 .613-.254.83.83 0 0 0 .254-.614V1.266a.84.84 0 0 0-.254-.614.84.84 0 0 0-.613-.254h-3.746a.85.85 0 0 0-.613.254.84.84 0 0 0-.254.614v1.136q.001.363.254.614a.85.85 0 0 0 .613.254h.23v1.785L18.7 2.246a2.15 2.15 0 0 0-1.312-.433q-.727 0-1.313.433c-2.25 1.633-4.5 3.27-6.75 4.902L6.367 9.301a2.16 2.16 0 0 0-.804 1.09q-.229.674-.024 1.355c.137.457.395.828.77 1.121.37.29.796.445 1.27.465v.023q-.398.03-.79.102a.37.37 0 0 0-.309.277c-.257.899-.566 1.426-.921 1.567-.204.086-.45.039-.75-.133l-.696-.402a.36.36 0 0 0-.43.023 7.5 7.5 0 0 0-1.605 1.578.36.36 0 0 0-.031.426l.39.703a.92.92 0 0 1 .028.848.91.91 0 0 1-.633.566l-.86.23a.38.38 0 0 0-.284.305 7.6 7.6 0 0 0-.09 2.47q.03.255.28.331l.75.215c.278.078.528.332.665.668.14.348.137.719-.012.973l-.43.742a.36.36 0 0 0 .016.422q.68.996 1.637 1.734c.137.11.281.117.434.035l.683-.383c.258-.14.652-.129 1.027.032.383.16.668.441.747.73l.21.79a.365.365 0 0 0 .317.288 7.5 7.5 0 0 0 2.351.02.36.36 0 0 0 .32-.282l.227-.785c.082-.285.375-.562.762-.718.379-.153.77-.157 1.027-.008l.68.394a.36.36 0 0 0 .43-.027 7.6 7.6 0 0 0 1.488-1.461.365.365 0 0 0 .035-.43l-.383-.687a.8.8 0 0 1-.093-.36c.34.145.714.168 1.164.168q.156-.002.32-.003h.023v.937q0 .286.106.555.113.263.312.468.205.206.47.317.267.11.554.11a1.43 1.43 0 0 0 1.336-.895q.105-.27.105-.555v-.941a.8.8 0 0 0 .543-.27.8.8 0 0 0 .219-.562v-.457a.7.7 0 0 0-.016-.157.8.8 0 0 0 .414-.597h7.485q.164-.002.281-.114a.4.4 0 0 0 .113-.28v-8.54a2.2 2.2 0 0 0 1.274-.465q.562-.438.765-1.12a2.17 2.17 0 0 0-.023-1.356 2.17 2.17 0 0 0-.8-1.09m-6.156-6.898V1.266q0-.078.078-.079h3.746c.055 0 .078.024.078.079v1.136c0 .055-.023.082-.078.078h-3.746c-.05 0-.078-.023-.078-.078m1.098.868h1.707v3.597l-1.707-1.242ZM12.453 26.297 12 26.035c-.465-.27-1.105-.281-1.715-.039-.613.25-1.07.711-1.223 1.23l-.152.54a7 7 0 0 1-1.61-.016l-.144-.54c-.14-.526-.59-.991-1.203-1.253-.601-.258-1.242-.254-1.71.008l-.458.254a7 7 0 0 1-1.125-1.2l.305-.523c.27-.469.289-1.09.058-1.66-.226-.563-.668-.988-1.18-1.133l-.491-.14a6.9 6.9 0 0 1 .066-1.723l.621-.168q.826-.228 1.148-1.02.347-.785-.062-1.535l-.262-.476c.32-.395.684-.75 1.082-1.063l.473.274c.516.296.996.359 1.437.18.711-.29 1.086-1.137 1.31-1.84q.403-.06.808-.07h.004q.456-.013.914.034l.132.5c.141.512.555.961 1.114 1.2.566.238 1.187.226 1.656-.032l.535-.297a7 7 0 0 1 1.176 1.149l-.262.453c-.133.238-.199.492-.207.762-.18.234-.336.48-.469.746h-.496v-.219q0-.165-.117-.277a.37.37 0 0 0-.277-.118h-.649a4 4 0 0 0-1.32-.863 4.14 4.14 0 0 0-2.344-.226q-.392.076-.761.23a4 4 0 0 0-1.32.867c-.04.035-.071.07-.106.106q-.005.004-.004.008c-.36.375-.633.804-.828 1.289q-.288.72-.293 1.5-.007.78.273 1.503a4.1 4.1 0 0 0 .844 1.34l.059.063q1.189 1.219 2.894 1.23h.04c1.116.004 2.077-.39 2.874-1.175l.004-.008h.637q.165 0 .277-.117a.38.38 0 0 0 .117-.278v-.215h.754q.1.148.211.29c-.113.48-.066.953.137 1.324l.25.453q-.435.526-.969.953m-6.836-3.2a3.339 3.339 0 0 1-.574-3.285q.205-.552.586-1h5.652v4.286Zm4.117.79a3.3 3.3 0 0 1-1.578.394 3.3 3.3 0 0 1-1.574-.394ZM6.61 18.023a3.3 3.3 0 0 1 1.551-.378q.82 0 1.547.378Zm10.762 7.223a.63.63 0 0 1-.195.465.62.62 0 0 1-.461.191.62.62 0 0 1-.461-.191.63.63 0 0 1-.192-.465v-.933h1.31Zm1.168-3.11q0 .048-.047.048h-1.937a.38.38 0 0 0-.278.113.38.38 0 0 0-.117.281q0 .16.117.277a.38.38 0 0 0 .278.114h1.527q.046.006.05.05v.458q-.004.046-.05.046h-2.844c-.781.012-1.136.016-1.457-.293-.02-.023-.035-.043-.058-.058a2.8 2.8 0 0 1-.336-.488.37.37 0 0 0-.34-.196h-.977v-3.066h.739a.36.36 0 0 0 .351-.219c.192-.394.348-.668.504-.855a.5.5 0 0 0 .098-.106c.328-.324.703-.32 1.476-.308h.035v.226h-.66a.37.37 0 0 0-.277.113.38.38 0 0 0-.117.278q0 .164.117.281a.38.38 0 0 0 .277.113h3.469q.046 0 .05.047v.461q-.004.047-.05.047h-1.527q-.165 0-.278.117a.37.37 0 0 0-.117.278q0 .162.117.277a.37.37 0 0 0 .278.117h1.937q.047 0 .047.047v.457q0 .046-.047.05h-1.937a.37.37 0 0 0-.278.114.38.38 0 0 0-.117.277q0 .164.117.282a.38.38 0 0 0 .278.113h1.937q.047 0 .047.047Zm-2.164-7.14h.68a1.025 1.025 0 0 0 1.023-1.023v-1.125a1.89 1.89 0 0 1 .492 1.609 1.8 1.8 0 0 1-.12.418 1.8 1.8 0 0 1-.509.7 2 2 0 0 1-.359.241.37.37 0 0 0-.21.348v1.996h-1.31v-1.996a.37.37 0 0 0-.214-.348 1.87 1.87 0 0 1-.989-1.359q-.034-.217-.023-.434a2 2 0 0 1 .254-.828q.113-.188.262-.347v1.125a1.025 1.025 0 0 0 1.023 1.023m2.93 6.48a1 1 0 0 0-.102-.242.83.83 0 0 0 .125-.441v-.457a.78.78 0 0 0-.426-.727.7.7 0 0 0 .016-.156v-.46a.82.82 0 0 0-.219-.563.8.8 0 0 0-.543-.27v-1.77q.614-.392.942-1.042t.28-1.375a2.6 2.6 0 0 0-.456-1.328 2.64 2.64 0 0 0-1.07-.915.4.4 0 0 0-.38.024.36.36 0 0 0-.132.144.36.36 0 0 0-.05.188v1.887q-.001.234-.235.234h-.68q-.234-.006-.234-.234v-1.887a.4.4 0 0 0-.184-.332.414.414 0 0 0-.379-.023 2.66 2.66 0 0 0-1.07.914 2.6 2.6 0 0 0-.457 1.328q-.047.725.281 1.375.327.649.941 1.043v.754h-.023c-.453-.004-.824 0-1.145.062l.211-.363a.37.37 0 0 0-.023-.434 7.6 7.6 0 0 0-1.707-1.668.365.365 0 0 0-.418-.027l-.754.418c-.258.144-.629.14-.969-.004-.336-.14-.586-.395-.66-.676l-.2-.754a.37.37 0 0 0-.327-.289 8 8 0 0 0-.89-.074v-.11q.333-.105.62-.316l.278-.203q4.06-2.947 8.12-5.898l8.4 6.101q.285.21.624.317v8.25Zm8.96-9.523q-.169.235-.413.383a1.44 1.44 0 0 1-1.094.172 1.4 1.4 0 0 1-.512-.235l-8.629-6.27a.365.365 0 0 0-.46 0c-2.786 2.024-5.567 4.048-8.352 6.067l-.278.203a1.5 1.5 0 0 1-.511.235 1.5 1.5 0 0 1-.563.02 1.46 1.46 0 0 1-.937-.579 1.4 1.4 0 0 1-.235-.511 1.35 1.35 0 0 1-.023-.56 1.43 1.43 0 0 1 .57-.94L9.79 7.784c2.25-1.633 4.5-3.27 6.75-4.902q.377-.282.848-.281.47 0 .847.28l4.485 3.255c.008.008.015.011.023.02l2.461 1.784q.017.016.04.032l2.702 1.965a1.43 1.43 0 0 1 .578.94c.028.192.024.38-.023.563q-.064.283-.234.512m0 0"/></g></svg>