<svg xmlns="http://www.w3.org/2000/svg" width="40" height="40" version="1.0" viewBox="0 0 30 30"><defs><clipPath id="a"><path d="M1 3h28v23.89H1Zm0 0"/></clipPath></defs><g clip-path="url(#a)"><path fill="#fff" d="M4.875 9.242c-3.234 4.395-3.234 10.528 0 14.918a.523.523 0 0 1-.422.836c-.16 0-.32-.07-.422-.21-3.508-4.763-3.508-11.407 0-16.161a.53.53 0 0 1 .735-.113c.23.172.28.5.109.73m2.68-2.68c4.222-3.109 10.054-3.23 14.402-.359l.313-.098c.347-.113.71-.105 1.039.004a.52.52 0 0 0-.207-.386c-4.762-3.508-11.407-3.508-16.164 0a.53.53 0 0 0-.114.734c.172.227.5.277.73.106M22.715 16.7c0 4.246-3.45 7.7-7.7 7.7-4.242 0-7.699-3.454-7.699-7.7 0-4.242 3.454-7.695 7.7-7.695s7.699 3.457 7.699 7.695m-10.887 1.64-.562-1.378c.363-.258.601-.68.601-1.156v-.04c0-.785-.637-1.421-1.422-1.421h-.937a.523.523 0 0 0-.524.523v3.668a.523.523 0 0 0 1.047 0v-1.308h.207l.617 1.507a.524.524 0 0 0 .688.286.516.516 0 0 0 .285-.68m1.879-3.472a.526.526 0 0 0-1.05 0v3.672a.526.526 0 0 0 1.05 0Zm1.832.688c0-.094.074-.164.164-.164h.461c.09 0 .164.07.164.164a.523.523 0 0 0 1.047 0c0-.668-.543-1.211-1.21-1.211h-.462c-.668 0-1.21.543-1.21 1.21 0 .454.214.883.577 1.153l1.098.824c.098.074.16.192.16.317 0 .09-.074.164-.164.164h-.46a.165.165 0 0 1-.165-.164.523.523 0 0 0-1.047 0c0 .668.543 1.21 1.211 1.21h.461c.668 0 1.211-.542 1.211-1.21 0-.453-.215-.887-.578-1.153l-1.098-.828a.38.38 0 0 1-.16-.312m4.563-.996-.891 1.218v-.91a.523.523 0 0 0-1.047 0v3.668a.523.523 0 0 0 1.047 0v-.976l.082-.11.777 1.348a.526.526 0 0 0 .91-.524l-1.007-1.753.98-1.344a.53.53 0 0 0-.117-.735.53.53 0 0 0-.734.118m5.902-5.938a.53.53 0 0 0-.734-.113.53.53 0 0 0-.114.734c3.239 4.395 3.239 10.528 0 14.918a.528.528 0 0 0 .422.836c.16 0 .324-.07.426-.21 3.508-4.763 3.508-11.407 0-16.165m-15.559 6.77h-.41v.785h.41a.374.374 0 0 0 .375-.371v-.04a.38.38 0 0 0-.375-.374m13.004-4.043a9.94 9.94 0 0 1 1.54 5.988c-.31 4.984-4.462 9.09-9.45 9.34a10.03 10.03 0 0 1-7.582-2.906 10.04 10.04 0 0 1-2.918-7.575c.246-5.007 4.36-9.164 9.363-9.465a9.845 9.845 0 0 1 4.754.879 2.18 2.18 0 0 0 1.555.094l1.883-.598a.64.64 0 0 1 .613.122.63.63 0 0 1 .223.59l-.293 2.066a2.13 2.13 0 0 0 .312 1.465m-2.437-1.524a.524.524 0 0 0 .738-.035l1.09-1.191a.525.525 0 1 0-.774-.707l-1.09 1.191a.52.52 0 0 0 .036.742m2.754 6.875c0-4.82-3.926-8.742-8.75-8.742-4.825 0-8.746 3.922-8.746 8.742 0 4.824 3.921 8.746 8.746 8.746 4.824.004 8.75-3.922 8.75-8.746m0 0"/></g></svg>