<svg xmlns="http://www.w3.org/2000/svg" width="40" height="40" version="1.0" viewBox="0 0 30 30"><defs><clipPath id="a"><path d="M.484 0H8v7H.484Zm0 0"/></clipPath><clipPath id="b"><path d="M.484 22H8v7.031H.484Zm0 0"/></clipPath><clipPath id="c"><path d="M22 0h7.516v7H22Zm0 0"/></clipPath><clipPath id="d"><path d="M22 22h7.516v7.031H22Zm0 0"/></clipPath></defs><path fill="#fff" d="M15.703 24.594h-1.41a1.385 1.385 0 0 1-1.383-1.383v-1.563a7.5 7.5 0 0 1-1.426-.59l-1.105 1.106c-.54.54-1.418.54-1.957 0l-.996-1a1.38 1.38 0 0 1 0-1.957l1.105-1.105a7.6 7.6 0 0 1-.594-1.422H6.376a1.386 1.386 0 0 1-1.383-1.387v-1.41c0-.762.621-1.383 1.383-1.383h1.563c.148-.492.343-.969.593-1.422l-1.11-1.105a1.386 1.386 0 0 1 0-1.957l1-1c.54-.54 1.419-.54 1.958 0l1.105 1.105a7.5 7.5 0 0 1 1.422-.59V5.97c0-.762.621-1.383 1.387-1.383h1.41c.762 0 1.383.621 1.383 1.383V7.53q.745.22 1.426.59l1.105-1.105c.54-.54 1.418-.54 1.957 0l.996.996c.54.543.54 1.418 0 1.957l-1.105 1.11c.246.448.445.929.59 1.421h1.562c.766 0 1.383.621 1.383 1.383v1.41c0 .766-.617 1.387-1.383 1.387h-1.562a7.3 7.3 0 0 1-.59 1.422l1.105 1.105c.54.543.54 1.418 0 1.957l-.996 1c-.539.54-1.418.54-1.957 0l-1.105-1.105a7.5 7.5 0 0 1-1.426.59v1.562c0 .762-.621 1.383-1.383 1.383m-4.281-4.387a.34.34 0 0 1 .191.055c.551.328 1.145.574 1.766.73a.38.38 0 0 1 .285.367v1.852c0 .348.281.629.629.629h1.41a.63.63 0 0 0 .625-.63v-1.85a.38.38 0 0 1 .285-.368 6.6 6.6 0 0 0 1.766-.73.37.37 0 0 1 .46.058l1.313 1.309c.243.246.641.246.887 0l.996-.996a.63.63 0 0 0 0-.887l-1.312-1.308a.384.384 0 0 1-.055-.465c.328-.551.574-1.145.73-1.762a.38.38 0 0 1 .368-.29h1.851a.63.63 0 0 0 .63-.624v-1.41a.625.625 0 0 0-.63-.625h-1.851a.384.384 0 0 1-.368-.29 6.6 6.6 0 0 0-.73-1.761.38.38 0 0 1 .059-.465l1.308-1.309a.625.625 0 0 0 0-.886l-.996-.996a.625.625 0 0 0-.887 0l-1.308 1.308a.38.38 0 0 1-.465.059 6.5 6.5 0 0 0-1.762-.735.38.38 0 0 1-.289-.367V5.97a.627.627 0 0 0-.625-.625h-1.41a.627.627 0 0 0-.625.625V7.82a.376.376 0 0 1-.29.367 6.5 6.5 0 0 0-1.76.735.39.39 0 0 1-.466-.059L9.844 7.555a.625.625 0 0 0-.887 0l-.996.996a.63.63 0 0 0 0 .887l1.309 1.308a.374.374 0 0 1 .058.461 6.6 6.6 0 0 0-.73 1.766.38.38 0 0 1-.368.285H6.38a.63.63 0 0 0-.629.629v1.41c0 .344.281.625.629.625H8.23a.38.38 0 0 1 .368.285c.156.621.402 1.215.73 1.766.09.148.067.34-.058.46l-1.31 1.313a.62.62 0 0 0 0 .883l.997 1c.246.242.64.242.887 0l1.308-1.313a.4.4 0 0 1 .27-.109m0 0"/><path fill="#fff" d="M14.996 19.402a4.816 4.816 0 0 1-4.808-4.812 4.816 4.816 0 0 1 4.808-4.813 4.817 4.817 0 0 1 4.813 4.813 4.817 4.817 0 0 1-4.813 4.812m0-8.867a4.06 4.06 0 0 0-4.055 4.055 4.06 4.06 0 0 0 4.055 4.055 4.06 4.06 0 0 0 4.055-4.055 4.06 4.06 0 0 0-4.055-4.055m0 0"/><g clip-path="url(#a)"><path fill="#fff" d="M5.656 6.945c-.101 0-.199-.039-.27-.11l-3.16-3.163-.488.488a.378.378 0 0 1-.64-.215L.613.441A.39.39 0 0 1 .72.121a.39.39 0 0 1 .32-.105L4.54.5a.378.378 0 0 1 .219.64l-.488.489 3.16 3.164a.377.377 0 0 1 0 .535L5.922 6.836a.38.38 0 0 1-.266.11m-3.43-4.187a.38.38 0 0 1 .266.113l3.164 3.16.973-.972-3.164-3.16a.39.39 0 0 1 0-.54l.219-.214L1.43.835l.312 2.25.215-.214a.38.38 0 0 1 .27-.113m0 0"/></g><g clip-path="url(#b)"><path fill="#fff" d="M.879 29.168a.38.38 0 0 1-.375-.43l.484-3.5a.38.38 0 0 1 .645-.219l.484.489 3.164-3.164a.384.384 0 0 1 .535 0l1.508 1.511c.07.07.114.168.114.266a.4.4 0 0 1-.114.27l-3.16 3.16.484.488c.102.102.137.25.094.387a.38.38 0 0 1-.308.254l-3.5.484q-.028.005-.055.004m.754-3.074-.309 2.254 2.25-.313-.215-.215a.377.377 0 0 1 0-.535l3.164-3.164-.976-.973-3.16 3.16a.37.37 0 0 1-.27.114.37.37 0 0 1-.265-.113Zm0 0"/></g><g clip-path="url(#c)"><path fill="#fff" d="M24.34 6.945a.4.4 0 0 1-.27-.11l-1.508-1.51a.377.377 0 0 1 0-.536l3.165-3.16-.489-.488a.378.378 0 0 1 .215-.64l3.504-.485a.377.377 0 0 1 .426.425l-.485 3.5a.382.382 0 0 1-.645.219l-.483-.488-3.165 3.164a.38.38 0 0 1-.265.11m-.973-1.886.973.972 3.16-3.16a.38.38 0 0 1 .54 0l.214.215.308-2.25-2.25.309.215.214a.38.38 0 0 1 0 .54Zm0 0"/></g><g clip-path="url(#d)"><path fill="#fff" d="M29.113 29.168c-.015 0-.035 0-.05-.004l-3.5-.484a.38.38 0 0 1-.31-.254.37.37 0 0 1 .095-.387l.484-.488-3.16-3.16a.37.37 0 0 1-.113-.27c0-.098.039-.195.113-.266l1.508-1.507a.377.377 0 0 1 .535 0l3.16 3.16.488-.485a.38.38 0 0 1 .387-.093.38.38 0 0 1 .258.308l.48 3.5a.38.38 0 0 1-.105.32.38.38 0 0 1-.27.11m-2.695-1.133 2.254.313-.313-2.254-.214.215a.377.377 0 0 1-.536 0l-3.164-3.16-.972.972 3.164 3.164a.38.38 0 0 1 0 .535Zm0 0"/></g></svg>