<svg xmlns="http://www.w3.org/2000/svg" width="40" height="40" version="1.0" viewBox="0 0 30 30"><defs><clipPath id="a"><path d="M.484 1.414H8V3H.484Zm0 0"/></clipPath><clipPath id="b"><path d="M22 1.414h7.516V3H22Zm0 0"/></clipPath><clipPath id="c"><path d="M22 10h7.516v2H22Zm0 0"/></clipPath><clipPath id="d"><path d="M.484 10H8v2H.484Zm0 0"/></clipPath><clipPath id="e"><path d="M8 21h14v6.543H8Zm0 0"/></clipPath><clipPath id="f"><path d="M.484 3H8v7H.484Zm0 0"/></clipPath><clipPath id="g"><path d="M22 3h7.516v7H22Zm0 0"/></clipPath><clipPath id="h"><path d="M1 14h28v13.543H1Zm0 0"/></clipPath><clipPath id="i"><path d="M2.543 3.938h2.906V9H2.543Zm0 0"/></clipPath><clipPath id="j"><path d="M3 6h2.45v2H3Zm0 0"/></clipPath><clipPath id="k"><path d="M24.559 3.938h4.355V9H24.56Zm0 0"/></clipPath></defs><path fill="#061c3d" fill-rule="evenodd" d="M14.406 14.086V9.273q.283.059.582.051h.02q.3.007.582-.05v4.812h-.614Zm7.422-6.957h-4.11a2.7 2.7 0 0 0 0-1.184h4.11Zm-9.555 0H8.168v-1.18h4.105a2.7 2.7 0 0 0-.062.59q.002.304.062.59m0 0"/><g clip-path="url(#a)"><path fill="#061c3d" fill-rule="evenodd" d="M6.875 1.418h-5.79a.6.6 0 0 0-.597.598v.664h6.985v-.664a.6.6 0 0 0-.598-.598m0 0"/></g><g clip-path="url(#b)"><path fill="#061c3d" fill-rule="evenodd" d="M23.121 1.418a.6.6 0 0 0-.601.598v.664h6.988v-.664a.6.6 0 0 0-.602-.598Zm0 0"/></g><g clip-path="url(#c)"><path fill="#061c3d" fill-rule="evenodd" d="M22.52 10.398v.665c0 .328.27.597.601.597h5.785c.332 0 .602-.27.602-.598v-.664Zm0 0"/></g><g clip-path="url(#d)"><path fill="#061c3d" fill-rule="evenodd" d="M7.473 10.398H.488v.665a.6.6 0 0 0 .598.597h5.789a.6.6 0 0 0 .598-.598Zm0 0"/></g><g clip-path="url(#e)"><path fill="#061c3d" fill-rule="evenodd" d="M14.996 21.86a6.11 6.11 0 0 0-6.09 5.757H21.09a6.11 6.11 0 0 0-6.094-5.758m0 0"/></g><path fill="#061c3d" fill-rule="evenodd" d="M14.996 4.445a2.096 2.096 0 0 0-2.094 2.094 2.1 2.1 0 0 0 2.07 2.094h.051a2.094 2.094 0 0 0-.027-4.187m0 0"/><g clip-path="url(#f)"><path fill="#061c3d" fill-rule="evenodd" d="M.488 3.367v6.344h6.985V3.367Zm0 0"/></g><g clip-path="url(#g)"><path fill="#061c3d" fill-rule="evenodd" d="M22.52 3.367h6.988v6.344H22.52Zm0 0"/></g><g clip-path="url(#h)"><path fill="#061c3d" fill-rule="evenodd" d="m12.82 14.777-.351 3.157a.34.34 0 0 1-.246.293 10 10 0 0 0-2.145.89.34.34 0 0 1-.383-.031l-2.48-1.984-3.078 3.078 1.984 2.48c.09.11.102.258.031.383a10 10 0 0 0-.89 2.145.34.34 0 0 1-.293.246l-3.157.351v1.832h6.403a6.797 6.797 0 0 1 6.781-6.445 6.797 6.797 0 0 1 6.781 6.445h6.399v-1.832l-3.156-.351a.35.35 0 0 1-.293-.247 10 10 0 0 0-.891-2.144.34.34 0 0 1 .035-.383l1.984-2.48-3.078-3.078-2.48 1.984a.34.34 0 0 1-.383.031 10.2 10.2 0 0 0-2.144-.89.34.34 0 0 1-.25-.293l-.348-3.157h-2.199Zm0 0"/></g><g clip-path="url(#i)"><path fill="#fff" d="M5.52 8.016H2.7V4.902h2.82Zm-1.22.488h-.382q-.072-.002-.074-.074c0-.047.027-.078.074-.078h.383c.043 0 .074.03.074.078 0 .039-.031.074-.074.074m-.702-4.149h1.03c.044 0 .075.032.075.075 0 .047-.031.078-.074.078H3.598c-.047 0-.075-.031-.075-.078 0-.04.028-.075.075-.075m1.351 0h.153c.046 0 .074.032.074.075 0 .047-.028.078-.074.078h-.153c-.047 0-.078-.031-.078-.078 0-.04.031-.075.078-.075m.344-.398H2.926a.383.383 0 0 0-.383.383v4.12c0 .212.168.38.383.38h2.367c.21 0 .379-.168.379-.38V4.34a.383.383 0 0 0-.379-.383"/></g><path fill="#fff" d="M3.828 5.621h.152v.152h-.152Zm.41 0h.153v.152h-.153Zm-.816.434h1.375c.039 0 .074-.028.074-.075a.76.76 0 0 0-.21-.527l.112-.168c.024-.039.016-.082-.023-.105-.04-.024-.082-.016-.105.023l-.11.152a.76.76 0 0 0-.433-.14.76.76 0 0 0-.434.14l-.11-.152c-.023-.039-.066-.047-.105-.023-.039.023-.047.066-.023.105l.113.168a.76.76 0 0 0-.211.527c.016.047.05.075.09.075"/><g clip-path="url(#j)"><path fill="#fff" d="M3.223 7.184a.2.2 0 0 0 .125-.043v.175c0 .082.066.153.152.153h.09v.203c0 .047.039.078.078.078.043 0 .074-.031.074-.078v-.203h.727v.203c0 .047.035.078.074.078.047 0 .078-.031.078-.078v-.203h.098c.086 0 .152-.07.152-.153v-.175a.22.22 0 0 0 .125.043c.106 0 .195-.09.195-.196v-.472a.2.2 0 0 0-.195-.2.2.2 0 0 0-.125.043v-.164c-.023.004-.05.012-.074.012H3.422c-.031 0-.055-.008-.074-.012v.164a.25.25 0 0 0-.125-.043.2.2 0 0 0-.196.2v.472c0 .106.09.196.196.196"/></g><g clip-path="url(#k)"><path fill="#fff" d="M27.738 5.785c.282 0 .512-.23.512-.515a.1.1 0 0 0-.102-.102.513.513 0 0 0-.511.512c0 .058.047.105.101.105m-.23 2.223a.9.9 0 0 1-.246.031c-.262 0-.461-.23-.555-.367q-.004.001-.008-.004a.1.1 0 0 0-.023-.02q-.006-.006-.012-.007a.1.1 0 0 0-.043-.012h-1.855V4.965h2.664v.18c0 .058.047.101.105.101a.1.1 0 0 0 .102-.101v-.696a.513.513 0 0 0-.512-.511h-2.05a.514.514 0 0 0-.516.511v3.899c0 .28.23.511.515.511h2.051c.281 0 .512-.23.512-.511v-.243a.11.11 0 0 0-.04-.082.1.1 0 0 0-.09-.015m-.586-3.66a.1.1 0 0 1 .101.101.1.1 0 0 1-.101.106.104.104 0 0 1-.102-.106.1.1 0 0 1 .102-.101m-1.027 0h.41a.103.103 0 0 1 0 .207h-.41a.105.105 0 0 1-.106-.106c0-.054.047-.101.106-.101m.203 4.101a.2.2 0 0 1-.203-.203c0-.113.09-.207.203-.207s.207.094.207.207a.205.205 0 0 1-.207.203m2.547-1.406a.1.1 0 0 0-.07-.043.29.29 0 0 1-.259-.281c0-.121.082-.23.207-.27a.1.1 0 0 0 .067-.062.12.12 0 0 0-.012-.09c-.121-.18-.312-.309-.465-.309a.9.9 0 0 0-.277.059c-.063.02-.125.039-.172.039-.05 0-.11-.02-.172-.04a.9.9 0 0 0-.277-.058c-.242 0-.606.313-.606.778 0 .441.34 1.07.653 1.07a.7.7 0 0 0 .312-.07c.086-.036.094-.036.18 0 .066.03.16.07.308.07.239 0 .489-.36.594-.707a.11.11 0 0 0-.011-.086m0 0"/></g></svg>