<svg xmlns="http://www.w3.org/2000/svg" width="40" height="40" version="1.0" viewBox="0 0 30 30"><defs><clipPath id="a"><path d="M.813 3h28.304v25.156H.813Zm0 0"/></clipPath><clipPath id="b"><path d="M6 .574h17V11H6Zm0 0"/></clipPath></defs><path fill="#061c3d" d="M14.7 14.223h3.09a.185.185 0 0 0 .19-.184V12.57a.19.19 0 0 0-.19-.191H14.7a.19.19 0 0 0-.192.191v1.47c0 .105.086.183.191.183M15 14.938a.19.19 0 0 0-.187.187v5.492c0 .102.085.184.187.184a.184.184 0 0 0 .188-.184v-5.492a.185.185 0 0 0-.188-.187M16.246 14.938a.185.185 0 0 0-.187.187v5.492c0 .102.082.184.187.184a.187.187 0 0 0 .188-.184v-5.492a.19.19 0 0 0-.188-.187M17.488 14.938a.185.185 0 0 0-.187.187v5.492c0 .102.082.184.187.184a.187.187 0 0 0 .188-.184v-5.492a.19.19 0 0 0-.188-.187m0 0"/><g clip-path="url(#a)"><path fill="#061c3d" d="M28.984 22.266h-.824V6.625a.453.453 0 0 0-.453-.453h-.61v-.617a.72.72 0 0 0-.714-.72h-1.567v-.878a.453.453 0 0 0-.453-.453h-.867a.453.453 0 0 0-.453.453v.879h-1.566a.72.72 0 0 0-.72.719v.617h-.609a.453.453 0 0 0-.453.453v3.672h-6.824c-.25 0-.457.2-.457.45v2.66H8.77a3.23 3.23 0 0 0-2.508-1.188 3.27 3.27 0 0 0-3.258 3.265 3.263 3.263 0 0 0 3.258 3.254c.066 0 .125 0 .187-.008v2.977a1.88 1.88 0 0 0-1.578-.86c-1.043 0-1.89.848-1.89 1.895 0 .649.328 1.219.828 1.559A3.52 3.52 0 0 0 .82 27.777V28c0 .215.176.39.39.39h7.317c.078 0 .141-.019.203-.054a.37.37 0 0 0 .2.055h7.316c.078 0 .14-.02.2-.055a.4.4 0 0 0 .202.055h7.317c.215 0 .39-.176.39-.391v-.223c0-1.765-1.3-3.222-2.988-3.476.11-.074.215-.16.305-.262h7.312a.19.19 0 0 0 .192-.184v-1.402a.19.19 0 0 0-.192-.187M21.133 5.555c0-.188.156-.344.344-.344h4.906a.34.34 0 0 1 .34.344v.617h-5.59Zm2.61 7.289v1.55h-1.981v-1.55Zm-1.981-.375v-1.633h1.98v1.633Zm.61 4.574h3.116v5.223h-3.117Zm1.745-2.648v-1.551h1.98v1.55Zm0-1.926v-1.633h1.98v1.633Zm-2.355-3.5v-1h4.336v1Zm-8.973 1.777c0-.039.043-.074.082-.074h6.824v10.281a1.89 1.89 0 0 0-1.215 1.313h-4.066a1.885 1.885 0 0 0-1.625-1.407Zm1.684 11.895h3.949c-.008.035-.008.066-.008.101 0 .332.086.649.246.922h-4.426c.16-.273.246-.59.246-.922 0-.035 0-.066-.007-.101m-1.883-1.418a1.516 1.516 0 0 1 0 3.031c-.84 0-1.52-.68-1.52-1.512 0-.84.68-1.52 1.52-1.52m-1.54-3.563v3.367a.19.19 0 0 1-.183.192.19.19 0 0 1-.191-.192V17.66c0-.105.086-.187.191-.187.102 0 .184.082.184.187m-4.292 4.98h3.945c-.004.036-.004.067-.004.102 0 .332.09.649.242.922H6.516c.156-.273.246-.59.246-.922 0-.035 0-.066-.004-.101m1.437-1.613v-2.925q.196-.147.367-.317v3.242a.185.185 0 0 1-.183.192.185.185 0 0 1-.184-.192m1.239 0V17.66c0-.105.086-.187.191-.187.102 0 .184.082.184.187v3.367a.19.19 0 0 1-.184.192.19.19 0 0 1-.191-.192m.078-5.734h1.468v1.094H9.395a3.3 3.3 0 0 0 .128-.903c0-.066 0-.125-.011-.191m-3.25 3.07a2.885 2.885 0 0 1 0-5.77 2.89 2.89 0 0 1 2.886 2.891 2.886 2.886 0 0 1-2.886 2.88m-2.907 4.38c0-.84.68-1.52 1.516-1.52s1.516.68 1.516 1.52a1.516 1.516 0 0 1-3.032 0M8.543 28a.02.02 0 0 1-.016.016L1.2 28v-.223a3.15 3.15 0 0 1 3.145-3.148h1.054a3.153 3.153 0 0 1 3.145 3.148ZM5.93 24.3q.169-.11.308-.26h4.985c.09.1.195.187.304.26a3.5 3.5 0 0 0-2.793 2.348 3.52 3.52 0 0 0-2.804-2.347M16.262 28a.02.02 0 0 1-.016.016L8.918 28v-.223a3.15 3.15 0 0 1 3.145-3.148h1.05a3.154 3.154 0 0 1 3.149 3.148Zm-2.614-3.7c.11-.073.215-.16.305-.26h4.988a1.5 1.5 0 0 0 .305.26 3.5 3.5 0 0 0-2.8 2.352 3.5 3.5 0 0 0-2.798-2.351m10.332 3.477V28c0 .008-.011.016-.015.016L16.637 28v-.223a3.15 3.15 0 0 1 3.148-3.148h1.047a3.154 3.154 0 0 1 3.148 3.148m-3.671-3.523c-.84 0-1.52-.68-1.52-1.512a1.519 1.519 0 1 1 3.035 0c0 .832-.68 1.512-1.515 1.512m8.488-.59h-6.844c.152-.273.242-.59.242-.922 0-.035 0-.066-.004-.101h6.606Zm0 0"/></g><g clip-path="url(#b)"><path fill="#061c3d" d="M22.777 2.184a.19.19 0 0 0 .188-.188v-.933a.427.427 0 0 0-.426-.426h-.96a.19.19 0 0 0-.188.187c0 .106.082.188.187.188h.777L20.402 2.93a1.17 1.17 0 0 0-.683-.227 1.15 1.15 0 0 0-.907 1.848l-1.855 1.816a1.14 1.14 0 0 0-.703-.242c-.406 0-.762.21-.965.52L12.957 5.28a1.15 1.15 0 0 0-1.125-1.383c-.629 0-1.145.516-1.145 1.145 0 .266.09.504.235.691v.004l-2.98 2.899v-.004a1.144 1.144 0 1 0-.61 2.113A1.15 1.15 0 0 0 8.48 9.602c0-.27-.097-.524-.257-.72l2.972-2.886c.188.121.403.191.637.191.414 0 .777-.222.984-.55l2.32 1.36q-.034.133-.034.273c0 .636.515 1.148 1.152 1.148.629 0 1.14-.512 1.14-1.148 0-.23-.066-.446-.183-.625l1.875-1.84q.005-.001.004.004a1.147 1.147 0 0 0 1.574-1.613L22.59 1.3v.695a.19.19 0 0 0 .187.188m0 0"/></g><path fill="#061c3d" d="M6.195 14.566h.68a.188.188 0 0 0 0-.375h-.426v-.41a.19.19 0 0 0-.187-.187.19.19 0 0 0-.188.187v.422a.74.74 0 0 0-.613.742c0 .403.328.735.734.735h.137a.357.357 0 0 1 0 .715h-.684a.19.19 0 0 0-.187.187c0 .105.086.188.187.188h.426v.41a.19.19 0 0 0 .188.187.19.19 0 0 0 .187-.187v-.422a.732.732 0 0 0-.117-1.453h-.137c-.199 0-.36-.16-.36-.38 0-.198.161-.359.36-.359m0 0"/></svg>