<svg xmlns="http://www.w3.org/2000/svg" width="40" height="40" version="1.0" viewBox="0 0 30 30"><defs><clipPath id="a"><path d="M1 1.664h28v25.402H1Zm0 0"/></clipPath></defs><g clip-path="url(#a)"><path fill="#061c3d" d="M20.805 1.715a4.4 4.4 0 0 0-1.47.226c-.991.325-2.034.95-3.105 1.82-.418.34-.84.731-1.265 1.145a19 19 0 0 0-1.238-1.117c-1.067-.867-2.106-1.496-3.098-1.816-.992-.325-1.98-.332-2.79.136-.812.465-1.296 1.325-1.515 2.344-.215 1.024-.195 2.234.024 3.598.078.469.187.965.308 1.469-.46.14-.91.289-1.328.453-1.258.492-2.3 1.078-3.058 1.78-.758.7-1.25 1.548-1.25 2.481 0 .934.492 1.782 1.25 2.48.757.7 1.8 1.29 3.058 1.782.445.176.93.332 1.426.48a19 19 0 0 0-.422 1.938c-.219 1.36-.242 2.574-.023 3.598.218 1.02.703 1.883 1.515 2.355.817.469 1.809.457 2.801.137.996-.324 2.035-.95 3.105-1.82.415-.336.836-.723 1.254-1.133.422.414.844.8 1.262 1.14 1.07.868 2.11 1.497 3.102 1.817s1.976.332 2.789-.137c.808-.469 1.293-1.328 1.511-2.348.22-1.02.192-2.234-.023-3.593a20 20 0 0 0-.426-1.942 19 19 0 0 0 1.473-.492c1.258-.492 2.3-1.082 3.058-1.781.758-.7 1.247-1.547 1.247-2.48 0-.934-.489-1.782-1.247-2.481-.757-.703-1.8-1.29-3.058-1.781a19 19 0 0 0-1.352-.457c.125-.508.235-1.008.313-1.48.219-1.364.242-2.579.023-3.602-.218-1.02-.707-1.883-1.52-2.356a2.8 2.8 0 0 0-1.331-.363m-.059 1.234c.3.008.55.078.77.207.433.25.754.735.925 1.54.172.8.164 1.886-.035 3.14-.07.434-.172.887-.285 1.355a29 29 0 0 0-4.055-.652 29 29 0 0 0-2.234-2.742c.402-.39.797-.754 1.184-1.07.988-.805 1.922-1.352 2.703-1.602.39-.129.73-.184 1.027-.176M9.22 2.953c.3-.008.64.047 1.031.176.785.25 1.723.797 2.71 1.601.38.31.767.665 1.157 1.047-.762.82-1.515 1.75-2.25 2.77-1.445.133-2.8.355-4.039.656a18 18 0 0 1-.281-1.348c-.2-1.257-.207-2.343-.035-3.148s.496-1.293.933-1.547c.22-.125.477-.2.774-.207m5.765 3.719c.496.535.993 1.125 1.48 1.762q-.72-.036-1.464-.036c-.508 0-1.004.016-1.496.036q.737-.955 1.48-1.762M15 9.629q1.236 0 2.414.09c.54.773 1.066 1.594 1.566 2.465.442.761.84 1.527 1.204 2.277q-.552 1.15-1.22 2.312-.593 1.018-1.222 1.954a33 33 0 0 1-5.55-.008 33.802 33.802 0 0 1-2.418-4.227c.37-.765.773-1.543 1.222-2.32a34 34 0 0 1 1.563-2.45Q13.744 9.63 15 9.63m3.98.242c1 .125 1.938.297 2.813.508a27 27 0 0 1-.965 2.656 42 42 0 0 0-.793-1.46A40 40 0 0 0 18.98 9.87m-8.023.008c-.355.543-.7 1.094-1.035 1.672-.285.496-.55.988-.805 1.48a28 28 0 0 1-.96-2.644 27 27 0 0 1 2.8-.508m12.04.82c.429.13.847.266 1.23.414 1.16.453 2.078.992 2.671 1.54.594.55.852 1.074.852 1.581 0 .508-.258 1.032-.852 1.582-.593.547-1.511 1.086-2.671 1.54a19 19 0 0 1-1.375.456 31 31 0 0 0-1.313-3.32 29 29 0 0 0 1.457-3.793m-16.017.008a30 30 0 0 0 1.438 3.75 30 30 0 0 0-1.316 3.344c-.47-.14-.918-.285-1.329-.446-1.16-.453-2.078-.992-2.671-1.539-.598-.55-.856-1.074-.856-1.582 0-.507.258-1.03.856-1.582.593-.547 1.511-1.086 2.671-1.539.375-.144.786-.277 1.207-.406m8.02.738a3.047 3.047 0 0 0-3.04 3.035A3.047 3.047 0 0 0 15 17.52a3.047 3.047 0 0 0 3.035-3.04A3.046 3.046 0 0 0 15 11.445m0 1.215c1.012 0 1.82.809 1.82 1.82A1.813 1.813 0 0 1 15 16.305a1.814 1.814 0 0 1-1.824-1.825c0-1.011.808-1.82 1.824-1.82m5.844 3.258c.316.754.593 1.492.828 2.203-.73.168-1.508.313-2.328.426q.353-.568.695-1.152c.285-.497.55-.989.805-1.477m-11.711 0c.254.492.52.988.808 1.484.223.391.454.77.684 1.141a27 27 0 0 1-2.32-.426q.35-1.067.828-2.199m-1.176 3.379a29 29 0 0 0 3.555.59 30 30 0 0 0 2.605 3.273c-.394.387-.789.75-1.172 1.059-.988.804-1.922 1.351-2.703 1.605-.781.25-1.363.219-1.797-.031s-.754-.738-.925-1.543c-.168-.8-.165-1.883.039-3.14.09-.57.226-1.18.398-1.813m14.066.004c.172.637.309 1.25.399 1.824.203 1.258.207 2.34.039 3.145-.172.804-.496 1.296-.934 1.55-.437.25-1.023.285-1.808.032-.782-.254-1.719-.801-2.707-1.606a17 17 0 0 1-1.18-1.066c.89-.961 1.777-2.063 2.625-3.293q1.907-.197 3.566-.586m-8.925.71c.62.032 1.254.055 1.902.055.625 0 1.238-.02 1.84-.05a28 28 0 0 1-1.871 2.27 27 27 0 0 1-1.871-2.274m0 0"/></g></svg>