<svg xmlns="http://www.w3.org/2000/svg" width="40" height="40" version="1.0" viewBox="0 0 30 30"><defs><clipPath id="a"><path d="M16 15h13.191v13.707H16Zm0 0"/></clipPath><clipPath id="b"><path d="M.883.398H29.19v28.309H.883Zm0 0"/></clipPath></defs><g clip-path="url(#a)"><path fill="#fff" d="M27.7 17.336h-1.41v-.941a.47.47 0 0 0-.941 0l-.001.94H20.64v-.94a.47.47 0 0 0-.942 0v.94h-1.41c-.777 0-1.41.634-1.41 1.411v8.469c0 .777.633 1.41 1.41 1.41h9.41c.778 0 1.41-.633 1.41-1.41v-8.469c0-.777-.632-1.41-1.41-1.41m.468 9.879a.47.47 0 0 1-.469.469h-9.41a.47.47 0 0 1-.469-.47v-6.116h10.348Zm0 0"/></g><path fill="#fff" d="M4.176 13.57h2.351a.44.44 0 0 1 .332.14c.094.09.141.204.141.333v3.762a.44.44 0 0 1-.14.332.44.44 0 0 1-.333.14H4.176a.45.45 0 0 1-.332-.14.44.44 0 0 1-.137-.332v-3.762q-.002-.195.137-.332a.45.45 0 0 1 .332-.14M8.41 10.75h2.352q.195.001.332.137.14.139.14.332v6.586a.44.44 0 0 1-.14.332.45.45 0 0 1-.332.14H8.41a.45.45 0 0 1-.332-.14.44.44 0 0 1-.137-.332v-6.586q-.002-.194.137-.332a.46.46 0 0 1 .332-.137M12.645 12.16h2.351q.195.001.332.137c.094.094.14.203.14.336v5.172a.44.44 0 0 1-.14.332.45.45 0 0 1-.332.14h-2.351a.45.45 0 0 1-.332-.14.44.44 0 0 1-.137-.332v-5.172a.45.45 0 0 1 .136-.336.46.46 0 0 1 .333-.137M4.176 6.516H9.82a.472.472 0 1 0 0-.942H4.176a.47.47 0 0 0 0 .942M10.293 7.926a.47.47 0 0 0-.473-.469H4.176a.47.47 0 0 0 0 .941H9.82a.474.474 0 0 0 .473-.472M6.527 9.336H4.176a.47.47 0 0 0 0 .941h2.351a.471.471 0 1 0 0-.941m0 0"/><g clip-path="url(#b)"><path fill="#fff" d="M23.934.398a5.18 5.18 0 0 0-4.606 2.825H3.234A2.354 2.354 0 0 0 .883 5.574v16.938a2.354 2.354 0 0 0 2.351 2.351h8.176l-1.543 3.082a.49.49 0 0 0 .02.457.48.48 0 0 0 .402.22h5.34a.47.47 0 0 0 .469-.47l-.164-3.765a.47.47 0 0 0-.473-.469H3.234c-.773 0-1.41-.637-1.41-1.414v-1.41H15.47a.47.47 0 0 0 0-.942H1.824V5.574c0-.777.637-1.41 1.41-1.41h15.727c-.125.45-.2.922-.2 1.41a5.176 5.176 0 0 0 5.173 5.176c1.75 0 3.3-.875 4.234-2.21v7.546a.47.47 0 0 0 .941 0V5.574A5.18 5.18 0 0 0 23.934.398m1.804 6.375a.47.47 0 0 1-.652.133l-1.41-.941a.47.47 0 0 1-.211-.39V3.222c0-.258.21-.473.469-.473.261 0 .472.215.472.473V5.32l1.2.801a.476.476 0 0 1 .132.652m0 0"/></g><path fill="#fff" d="M19.23 22.04h1.883q.194 0 .332.14.136.134.137.332v1.879a.466.466 0 0 1-.469.472H19.23a.46.46 0 0 1-.332-.136.45.45 0 0 1-.136-.336v-1.88q-.002-.197.136-.331a.45.45 0 0 1 .332-.14m0 0"/></svg>