<svg xmlns="http://www.w3.org/2000/svg" width="40" height="40" version="1.0" viewBox="0 0 30 30"><defs><clipPath id="a"><path d="M9 15h11v12.047H9Zm0 0"/></clipPath><clipPath id="b"><path d="M3 16h8v11.047H3Zm0 0"/></clipPath><clipPath id="c"><path d="M18 16h9v11.047h-9Zm0 0"/></clipPath><clipPath id="d"><path d="M.95 4H9v12H.95Zm0 0"/></clipPath><clipPath id="e"><path d="M21 4h8.258v12H21Zm0 0"/></clipPath><clipPath id="f"><path d="M8 1.645h14V17H8Zm0 0"/></clipPath></defs><g clip-path="url(#a)"><path fill="#fff" d="M19.953 26.617v-.12c0-.7-.137-1.38-.406-2.017a5.174 5.174 0 0 0-3.117-2.895 3.22 3.22 0 0 0 1.293-1.495 3.22 3.22 0 0 0 0-2.488 3.2 3.2 0 0 0-.688-1.02 3.2 3.2 0 0 0-1.015-.684 3.17 3.17 0 0 0-2.493 0c-.382.16-.722.391-1.015.684a3.1 3.1 0 0 0-.688 1.02c-.168.394-.25.812-.25 1.246 0 .43.082.847.25 1.242.16.383.39.726.688 1.02q.276.276.605.476-.181.06-.36.137a5.17 5.17 0 0 0-3.163 4.773v.121c0 .422.344.766.765.766h8.829a.767.767 0 0 0 .765-.766m-6.926-6.023a2.45 2.45 0 0 1-.722-1.746c0-.66.254-1.282.722-1.75a2.46 2.46 0 0 1 1.746-.723 2.471 2.471 0 0 1 2.469 2.473 2.469 2.469 0 0 1-4.215 1.746m-2.703 6.023v-.12a4.43 4.43 0 0 1 1.301-3.15 4.6 4.6 0 0 1 1.414-.952 4.5 4.5 0 0 1 1.734-.348 4.43 4.43 0 0 1 3.145 1.3 4.431 4.431 0 0 1 1.305 3.148v.122c0 .02-.016.035-.035.035h-8.829a.035.035 0 0 1-.035-.035m0 0"/></g><g clip-path="url(#b)"><path fill="#fff" d="M9.418 27.02a.367.367 0 0 0-.367-.368H3.934a.035.035 0 0 1-.036-.035v-.07c0-.535.106-1.055.313-1.543.2-.473.484-.899.851-1.262a3.95 3.95 0 0 1 2.805-1.164c.797 0 1.563.235 2.219.68a.365.365 0 1 0 .41-.605 4.7 4.7 0 0 0-1.055-.536q.265-.166.489-.39c.55-.551.855-1.286.855-2.063 0-.781-.305-1.512-.855-2.066a2.9 2.9 0 0 0-2.063-.852c-.777 0-1.512.3-2.062.852a2.9 2.9 0 0 0-.856 2.066 2.9 2.9 0 0 0 1.344 2.453 5 5 0 0 0-.254.102 4.7 4.7 0 0 0-1.496 1.008c-.43.43-.77.933-1.004 1.492a4.65 4.65 0 0 0-.371 1.828v.07c0 .422.344.766.766.766H9.05a.366.366 0 0 0 .367-.363m-3.734-7.356c0-.586.226-1.137.636-1.547.414-.414.965-.64 1.547-.64.586 0 1.133.226 1.547.64.414.41.64.961.64 1.547a2.16 2.16 0 0 1-.64 1.543c-.414.414-.96.64-1.547.64a2.17 2.17 0 0 1-1.547-.64c-.41-.41-.636-.96-.636-1.543m0 0"/></g><g clip-path="url(#c)"><path fill="#fff" d="M24.965 23.227a4.7 4.7 0 0 0-1.496-1.008 5 5 0 0 0-.254-.102 2.9 2.9 0 0 0 1.344-2.453 2.91 2.91 0 0 0-2.918-2.918c-.782 0-1.512.3-2.063.852a2.9 2.9 0 0 0-.855 2.066 2.9 2.9 0 0 0 1.343 2.453q-.54.194-1.027.516a.37.37 0 0 0-.102.508.37.37 0 0 0 .508.101 3.94 3.94 0 0 1 2.196-.664 3.954 3.954 0 0 1 2.805 1.164c.366.363.652.79.85 1.262.208.488.313 1.008.313 1.543v.07c0 .02-.015.035-.035.035h-5.05a.366.366 0 1 0 0 .73h5.05a.767.767 0 0 0 .766-.765v-.07a4.65 4.65 0 0 0-.371-1.828 4.7 4.7 0 0 0-1.004-1.492m-3.324-1.38a2.17 2.17 0 0 1-1.547-.64 2.16 2.16 0 0 1-.64-1.543c0-.586.226-1.137.64-1.547.414-.414.96-.64 1.547-.64.582 0 1.132.226 1.547.64.41.41.64.961.64 1.547 0 .582-.23 1.133-.64 1.543-.415.414-.965.64-1.547.64m0 0"/></g><path fill="#fff" d="m5.406 6.824-.074.078-.078-.078a1.62 1.62 0 0 0-1.152-.476 1.62 1.62 0 0 0-1.153.476 1.63 1.63 0 0 0 0 2.301l2.121 2.121c.07.07.164.11.262.11.094 0 .188-.04.258-.11l2.12-2.121a1.627 1.627 0 0 0 0-2.3 1.636 1.636 0 0 0-2.304 0M7.191 8.61l-1.859 1.864-1.863-1.864a.896.896 0 1 1 1.265-1.27l.336.337a.365.365 0 0 0 .52 0l.336-.336a.893.893 0 0 1 1.265 0 .89.89 0 0 1 0 1.27m0 0"/><g clip-path="url(#d)"><path fill="#fff" d="M5.332 12.79c.277 0 .555-.024.828-.08l1.649 2.872a.374.374 0 0 0 .437.164.37.37 0 0 0 .242-.394l-.472-3.48a4.6 4.6 0 0 0 .808-.817.366.366 0 0 0-.582-.441 3.9 3.9 0 0 1-.824.792.37.37 0 0 0-.156.348l.254 1.848-.856-1.489a.37.37 0 0 0-.41-.172 3.6 3.6 0 0 1-.918.118 3.63 3.63 0 0 1-2.582-1.067A3.64 3.64 0 0 1 1.68 8.41c0-.973.383-1.89 1.07-2.578a3.62 3.62 0 0 1 2.582-1.07c.523 0 1.031.11 1.508.324.457.21.863.508 1.203.883a.36.36 0 0 0 .516.027.37.37 0 0 0 .027-.516 4.366 4.366 0 0 0-3.254-1.45c-.594.001-1.168.118-1.707.345a4.396 4.396 0 0 0-2.332 2.332 4.398 4.398 0 0 0 0 3.41 4.42 4.42 0 0 0 2.332 2.328c.54.23 1.113.344 1.707.344m0 0"/></g><path fill="#fff" d="M22.367 7.414h.168a.366.366 0 1 0 0-.73h-.168a.366.366 0 1 0 0 .73m0 0"/><g clip-path="url(#e)"><path fill="#fff" d="M28.7 6.707a4.4 4.4 0 0 0-2.333-2.332 4.4 4.4 0 0 0-1.703-.344 4.38 4.38 0 0 0-3.332 1.535.37.37 0 0 0 .04.516.365.365 0 0 0 .515-.043 3.65 3.65 0 0 1 2.777-1.277c.973 0 1.89.379 2.578 1.07a3.61 3.61 0 0 1 1.07 2.578c0 .977-.378 1.89-1.07 2.582a3.63 3.63 0 0 1-2.578 1.067q-.253-.001-.5-.032a.36.36 0 0 0-.363.18l-.805 1.395.211-1.559a.36.36 0 0 0-.195-.375 3.7 3.7 0 0 1-1.25-1.043.366.366 0 0 0-.512-.066.36.36 0 0 0-.066.511 4.4 4.4 0 0 0 1.265 1.121l-.426 3.16a.367.367 0 0 0 .364.415c.125 0 .25-.07.316-.184l1.61-2.805q.175.012.351.012c.59 0 1.164-.113 1.703-.344a4.423 4.423 0 0 0 2.332-2.328 4.4 4.4 0 0 0 0-3.41m0 0"/></g><path fill="#fff" d="M26.992 7.414a.365.365 0 0 0 0-.73h-3.305a.366.366 0 0 0 0 .73ZM22.367 8.777h4.625a.366.366 0 0 0 0-.73h-4.625a.366.366 0 1 0 0 .73M26.992 9.406h-.12a.366.366 0 1 0 0 .73h.12a.365.365 0 0 0 0-.73M22.367 10.137h3.32a.366.366 0 1 0 0-.73h-3.32a.366.366 0 1 0 0 .73M13.777 11.121h4.48c.481 0 .876-.394.876-.875a.85.85 0 0 0-.102-.406.86.86 0 0 0 .25-.61.85.85 0 0 0-.12-.445.87.87 0 0 0 .128-.945.873.873 0 0 0-.59-1.516h-2.02A8.3 8.3 0 0 0 16.669 5a1.15 1.15 0 0 0-1.152-1.137.81.81 0 0 0-.809.813v.265c0 .352-.043.704-.129 1.043a.82.82 0 0 1-.8.63.367.367 0 0 0-.368.366v3.774c0 .203.164.367.367.367m.364-3.82a1.55 1.55 0 0 0 1.148-1.14c.098-.4.149-.81.149-1.22v-.265c0-.043.035-.082.078-.082.234 0 .422.191.422.422q0 .017.003.035c.043.5.04 1.008-.015 1.508l-.012.09a.364.364 0 0 0 .363.406H18.7c.078 0 .14.066.14.144a.14.14 0 0 1-.14.14H18.5a.366.366 0 0 0 0 .731c.078 0 .145.067.145.145s-.067.14-.145.14h-.09a.366.366 0 1 0 0 .73c.078 0 .14.067.14.145a.14.14 0 0 1-.14.141h-.152a.363.363 0 0 0-.363.367c0 .203.16.364.363.364.078 0 .144.066.144.144s-.066.14-.144.14H14.14ZM11.21 11.121h1.419c.2 0 .363-.164.363-.367V7.047a.363.363 0 0 0-.363-.363H11.21c-.2 0-.363.16-.363.363v3.707c0 .203.164.367.363.367m.368-3.707h.684v2.973h-.684Zm0 0"/><g clip-path="url(#f)"><path fill="#fff" d="M9.043 10.727a6.5 6.5 0 0 0 1.34 1.968l-.344 3.242a.37.37 0 0 0 .18.356.37.37 0 0 0 .398-.023l2.61-1.903c.566.16 1.156.242 1.753.242.875 0 1.727-.171 2.524-.511a6.4 6.4 0 0 0 2.058-1.387 6.5 6.5 0 0 0 1.391-2.059c.336-.8.508-1.648.508-2.523a6.5 6.5 0 0 0-.508-2.524 6.4 6.4 0 0 0-1.39-2.058 6.4 6.4 0 0 0-2.06-1.39 6.5 6.5 0 0 0-2.523-.509 6.45 6.45 0 0 0-4.582 1.899 6.4 6.4 0 0 0-1.386 2.058A6.4 6.4 0 0 0 8.5 8.13c0 .902.184 1.777.543 2.598m.64-4.836c.29-.684.704-1.301 1.235-1.828a5.8 5.8 0 0 1 1.824-1.235 5.8 5.8 0 0 1 2.238-.45c.778 0 1.532.153 2.239.45.687.293 1.3.707 1.828 1.235A5.75 5.75 0 0 1 20.28 5.89a5.783 5.783 0 0 1 0 4.477 5.8 5.8 0 0 1-1.234 1.827 5.7 5.7 0 0 1-1.828 1.23 5.758 5.758 0 0 1-3.953.191.36.36 0 0 0-.325.056l-2.09 1.523.278-2.597a.37.37 0 0 0-.11-.305 5.7 5.7 0 0 1-1.308-1.86 5.76 5.76 0 0 1-.027-4.542m0 0"/></g></svg>