<svg xmlns="http://www.w3.org/2000/svg" xmlns:xlink="http://www.w3.org/1999/xlink" width="40" zoomAndPan="magnify" viewBox="0 0 30 30.000001" height="40" preserveAspectRatio="xMidYMid meet" version="1.0"><defs><clipPath id="2509c7c38b"><path d="M 2.191406 6 L 27.59375 6 L 27.59375 29.03125 L 2.191406 29.03125 Z M 2.191406 6 " clip-rule="nonzero"/></clipPath></defs><g clip-path="url(#2509c7c38b)"><path fill="#061c3d" d="M 26.101562 6.632812 L 19.449219 6.632812 L 19.449219 7.40625 L 26.101562 7.40625 C 26.613281 7.40625 27.03125 7.824219 27.03125 8.335938 L 27.03125 21.429688 L 2.96875 21.429688 L 2.96875 8.335938 C 2.96875 7.824219 3.382812 7.40625 3.894531 7.40625 L 7.074219 7.40625 L 7.074219 6.632812 L 3.894531 6.632812 C 2.957031 6.632812 2.195312 7.398438 2.195312 8.335938 L 2.195312 23.714844 C 2.195312 24.652344 2.957031 25.414062 3.894531 25.414062 L 12.453125 25.414062 L 11.488281 28.257812 L 9.46875 28.257812 C 9.257812 28.257812 9.082031 28.433594 9.082031 28.644531 C 9.082031 28.859375 9.257812 29.03125 9.46875 29.03125 L 20.527344 29.03125 C 20.742188 29.03125 20.914062 28.859375 20.914062 28.644531 C 20.914062 28.433594 20.742188 28.257812 20.527344 28.257812 L 18.511719 28.257812 L 17.542969 25.414062 L 26.101562 25.414062 C 27.039062 25.414062 27.804688 24.652344 27.804688 23.714844 L 27.804688 8.335938 C 27.804688 7.398438 27.039062 6.632812 26.101562 6.632812 Z M 17.695312 28.257812 L 12.304688 28.257812 L 13.269531 25.414062 L 16.726562 25.414062 Z M 27.03125 23.714844 C 27.03125 24.226562 26.613281 24.640625 26.101562 24.640625 L 3.894531 24.640625 C 3.382812 24.640625 2.96875 24.226562 2.96875 23.714844 L 2.96875 22.203125 L 27.03125 22.203125 Z M 27.03125 23.714844 " fill-opacity="1" fill-rule="nonzero"/></g><path fill="#061c3d" d="M 12.527344 11.773438 L 5.636719 11.773438 C 5.421875 11.773438 5.25 11.949219 5.25 12.160156 L 5.25 19.054688 C 5.25 19.265625 5.421875 19.441406 5.636719 19.441406 L 12.527344 19.441406 C 12.742188 19.441406 12.914062 19.265625 12.914062 19.054688 L 12.914062 12.160156 C 12.914062 11.949219 12.742188 11.773438 12.527344 11.773438 Z M 8.386719 12.546875 L 9.777344 12.546875 L 9.777344 13.9375 L 8.386719 13.9375 Z M 12.140625 18.667969 L 6.023438 18.667969 L 6.023438 12.546875 L 7.613281 12.546875 L 7.613281 14.324219 C 7.613281 14.539062 7.785156 14.710938 8 14.710938 L 10.164062 14.710938 C 10.378906 14.710938 10.550781 14.539062 10.550781 14.324219 L 10.550781 12.546875 L 12.140625 12.546875 Z M 12.140625 18.667969 " fill-opacity="1" fill-rule="nonzero"/><path fill="#061c3d" d="M 18.007812 9.398438 C 18.007812 9.1875 17.835938 9.011719 17.621094 9.011719 L 15.582031 9.011719 C 15.367188 9.011719 15.195312 9.1875 15.195312 9.398438 L 15.195312 11.4375 C 15.195312 11.652344 15.367188 11.824219 15.582031 11.824219 L 17.621094 11.824219 C 17.835938 11.824219 18.007812 11.652344 18.007812 11.4375 Z M 17.234375 11.050781 L 15.96875 11.050781 L 15.96875 9.785156 L 17.234375 9.785156 Z M 17.234375 11.050781 " fill-opacity="1" fill-rule="nonzero"/><path fill="#061c3d" d="M 18.945312 9.175781 L 24.855469 9.175781 L 24.855469 9.949219 L 18.945312 9.949219 Z M 18.945312 9.175781 " fill-opacity="1" fill-rule="nonzero"/><path fill="#061c3d" d="M 18.945312 10.695312 L 22.941406 10.695312 L 22.941406 11.46875 L 18.945312 11.46875 Z M 18.945312 10.695312 " fill-opacity="1" fill-rule="nonzero"/><path fill="#061c3d" d="M 18.007812 13.617188 C 18.007812 13.40625 17.835938 13.230469 17.621094 13.230469 L 15.582031 13.230469 C 15.367188 13.230469 15.195312 13.40625 15.195312 13.617188 L 15.195312 15.65625 C 15.195312 15.871094 15.367188 16.042969 15.582031 16.042969 L 17.621094 16.042969 C 17.835938 16.042969 18.007812 15.871094 18.007812 15.65625 Z M 17.234375 15.269531 L 15.96875 15.269531 L 15.96875 14.003906 L 17.234375 14.003906 Z M 17.234375 15.269531 " fill-opacity="1" fill-rule="nonzero"/><path fill="#061c3d" d="M 18.945312 13.394531 L 24.855469 13.394531 L 24.855469 14.167969 L 18.945312 14.167969 Z M 18.945312 13.394531 " fill-opacity="1" fill-rule="nonzero"/><path fill="#061c3d" d="M 18.945312 14.914062 L 22.941406 14.914062 L 22.941406 15.6875 L 18.945312 15.6875 Z M 18.945312 14.914062 " fill-opacity="1" fill-rule="nonzero"/><path fill="#061c3d" d="M 17.621094 17.449219 L 15.582031 17.449219 C 15.367188 17.449219 15.195312 17.625 15.195312 17.835938 L 15.195312 19.875 C 15.195312 20.089844 15.367188 20.261719 15.582031 20.261719 L 17.621094 20.261719 C 17.835938 20.261719 18.007812 20.089844 18.007812 19.875 L 18.007812 17.835938 C 18.007812 17.625 17.835938 17.449219 17.621094 17.449219 Z M 17.234375 19.488281 L 15.96875 19.488281 L 15.96875 18.222656 L 17.234375 18.222656 Z M 17.234375 19.488281 " fill-opacity="1" fill-rule="nonzero"/><path fill="#061c3d" d="M 18.945312 17.613281 L 24.855469 17.613281 L 24.855469 18.386719 L 18.945312 18.386719 Z M 18.945312 17.613281 " fill-opacity="1" fill-rule="nonzero"/><path fill="#061c3d" d="M 18.945312 19.132812 L 22.941406 19.132812 L 22.941406 19.90625 L 18.945312 19.90625 Z M 18.945312 19.132812 " fill-opacity="1" fill-rule="nonzero"/><path fill="#061c3d" d="M 7.734375 8.273438 C 7.777344 8.402344 7.898438 8.492188 8.039062 8.496094 L 8.503906 8.511719 L 8.660156 8.691406 L 8.601562 9.15625 C 8.582031 9.292969 8.652344 9.425781 8.773438 9.488281 L 9.375 9.792969 C 9.496094 9.855469 9.648438 9.835938 9.746094 9.742188 L 10.085938 9.417969 L 10.324219 9.4375 L 10.609375 9.808594 C 10.671875 9.890625 10.769531 9.933594 10.867188 9.933594 C 10.902344 9.933594 10.9375 9.929688 10.96875 9.917969 L 11.609375 9.710938 C 11.742188 9.667969 11.832031 9.546875 11.835938 9.410156 L 11.847656 8.945312 L 12.03125 8.789062 L 12.492188 8.847656 C 12.628906 8.867188 12.765625 8.796875 12.828125 8.671875 L 13.132812 8.074219 C 13.195312 7.949219 13.171875 7.800781 13.078125 7.699219 L 12.757812 7.363281 L 12.777344 7.121094 L 13.144531 6.835938 C 13.257812 6.753906 13.300781 6.609375 13.257812 6.476562 L 13.050781 5.835938 C 13.007812 5.707031 12.886719 5.617188 12.75 5.613281 L 12.28125 5.601562 L 12.125 5.417969 L 12.1875 4.953125 C 12.203125 4.816406 12.132812 4.683594 12.011719 4.621094 L 11.410156 4.316406 C 11.289062 4.253906 11.140625 4.273438 11.039062 4.371094 L 10.699219 4.691406 L 10.460938 4.671875 L 10.175781 4.300781 C 10.089844 4.191406 9.949219 4.148438 9.816406 4.191406 L 9.175781 4.398438 C 9.042969 4.441406 8.953125 4.5625 8.949219 4.699219 L 8.9375 5.164062 L 8.753906 5.320312 L 8.292969 5.261719 C 8.15625 5.242188 8.023438 5.3125 7.960938 5.4375 L 7.652344 6.035156 C 7.589844 6.160156 7.613281 6.308594 7.707031 6.410156 L 8.027344 6.746094 L 8.007812 6.988281 L 7.640625 7.273438 C 7.53125 7.355469 7.484375 7.5 7.527344 7.632812 Z M 8.523438 7.417969 C 8.597656 7.359375 8.640625 7.273438 8.648438 7.183594 L 8.691406 6.65625 C 8.699219 6.5625 8.664062 6.472656 8.601562 6.40625 L 8.339844 6.128906 L 8.4375 5.9375 L 8.816406 5.988281 C 8.90625 6 9 5.972656 9.070312 5.914062 L 9.472656 5.566406 C 9.542969 5.507812 9.582031 5.421875 9.585938 5.328125 L 9.597656 4.949219 L 9.796875 4.882812 L 10.03125 5.183594 C 10.085938 5.257812 10.171875 5.304688 10.265625 5.3125 L 10.792969 5.351562 C 10.886719 5.359375 10.976562 5.328125 11.042969 5.265625 L 11.320312 5 L 11.507812 5.097656 L 11.460938 5.476562 C 11.449219 5.566406 11.476562 5.660156 11.535156 5.730469 L 11.878906 6.132812 C 11.941406 6.203125 12.027344 6.246094 12.117188 6.25 L 12.5 6.257812 L 12.566406 6.460938 L 12.261719 6.691406 C 12.191406 6.75 12.144531 6.835938 12.136719 6.925781 L 12.09375 7.453125 C 12.089844 7.546875 12.121094 7.636719 12.183594 7.703125 L 12.445312 7.980469 L 12.351562 8.171875 L 11.972656 8.121094 C 11.878906 8.109375 11.789062 8.136719 11.71875 8.195312 L 11.3125 8.542969 C 11.242188 8.601562 11.203125 8.6875 11.199219 8.78125 L 11.1875 9.160156 L 10.988281 9.226562 L 10.753906 8.925781 C 10.699219 8.851562 10.613281 8.804688 10.523438 8.800781 L 9.992188 8.757812 C 9.984375 8.757812 9.976562 8.757812 9.96875 8.757812 C 9.882812 8.757812 9.804688 8.789062 9.742188 8.84375 L 9.464844 9.109375 L 9.277344 9.011719 L 9.324219 8.632812 C 9.339844 8.542969 9.3125 8.449219 9.25 8.378906 L 8.90625 7.976562 C 8.847656 7.90625 8.757812 7.863281 8.667969 7.863281 L 8.285156 7.851562 L 8.21875 7.648438 Z M 8.523438 7.417969 " fill-opacity="1" fill-rule="nonzero"/><path fill="#061c3d" d="M 10.394531 8.328125 C 11.09375 8.328125 11.664062 7.753906 11.664062 7.054688 C 11.664062 6.355469 11.09375 5.785156 10.394531 5.785156 C 9.691406 5.785156 9.121094 6.355469 9.121094 7.054688 C 9.121094 7.753906 9.691406 8.328125 10.394531 8.328125 Z M 10.394531 6.4375 C 10.734375 6.4375 11.011719 6.714844 11.011719 7.054688 C 11.011719 7.394531 10.734375 7.671875 10.394531 7.671875 C 10.050781 7.671875 9.773438 7.394531 9.773438 7.054688 C 9.773438 6.714844 10.050781 6.4375 10.394531 6.4375 Z M 10.394531 6.4375 " fill-opacity="1" fill-rule="nonzero"/><path fill="#061c3d" d="M 12.359375 5.132812 C 12.390625 5.269531 12.503906 5.371094 12.644531 5.390625 L 13.316406 5.46875 L 13.558594 5.808594 L 13.414062 6.46875 C 13.382812 6.605469 13.441406 6.746094 13.5625 6.824219 L 14.328125 7.304688 C 14.449219 7.378906 14.601562 7.371094 14.710938 7.28125 L 15.242188 6.863281 L 15.65625 6.929688 L 16.019531 7.503906 C 16.082031 7.597656 16.1875 7.65625 16.300781 7.65625 C 16.324219 7.65625 16.347656 7.652344 16.375 7.648438 L 17.257812 7.441406 C 17.394531 7.410156 17.496094 7.296875 17.511719 7.160156 L 17.589844 6.484375 L 17.933594 6.242188 L 18.59375 6.386719 C 18.730469 6.417969 18.871094 6.359375 18.945312 6.242188 L 19.425781 5.472656 C 19.5 5.351562 19.492188 5.199219 19.40625 5.089844 L 18.984375 4.558594 L 19.054688 4.144531 L 19.625 3.78125 C 19.742188 3.707031 19.800781 3.5625 19.769531 3.425781 L 19.566406 2.542969 C 19.535156 2.40625 19.421875 2.304688 19.28125 2.289062 L 18.609375 2.210938 L 18.367188 1.871094 L 18.511719 1.207031 C 18.542969 1.070312 18.484375 0.929688 18.363281 0.855469 L 17.597656 0.375 C 17.476562 0.300781 17.324219 0.308594 17.214844 0.394531 L 16.683594 0.816406 L 16.269531 0.746094 L 15.90625 0.175781 C 15.828125 0.0585938 15.6875 0 15.550781 0.03125 L 14.667969 0.234375 C 14.53125 0.265625 14.429688 0.378906 14.414062 0.519531 L 14.335938 1.191406 L 13.992188 1.4375 L 13.332031 1.289062 C 13.195312 1.257812 13.054688 1.320312 12.980469 1.4375 L 12.5 2.207031 C 12.425781 2.324219 12.433594 2.476562 12.519531 2.585938 L 12.941406 3.117188 L 12.871094 3.53125 L 12.300781 3.898438 C 12.183594 3.972656 12.125 4.113281 12.15625 4.25 Z M 13.351562 4.011719 C 13.429688 3.960938 13.484375 3.878906 13.5 3.789062 L 13.617188 3.082031 C 13.632812 2.992188 13.609375 2.894531 13.550781 2.824219 L 13.183594 2.359375 L 13.417969 1.988281 L 13.992188 2.113281 C 14.085938 2.136719 14.179688 2.117188 14.257812 2.0625 L 14.839844 1.648438 C 14.914062 1.59375 14.964844 1.507812 14.976562 1.414062 L 15.042969 0.828125 L 15.472656 0.730469 L 15.789062 1.226562 C 15.839844 1.304688 15.921875 1.359375 16.015625 1.375 L 16.71875 1.496094 C 16.8125 1.511719 16.90625 1.484375 16.980469 1.425781 L 17.441406 1.0625 L 17.816406 1.292969 L 17.6875 1.871094 C 17.667969 1.960938 17.6875 2.058594 17.742188 2.132812 L 18.15625 2.714844 C 18.210938 2.792969 18.292969 2.84375 18.386719 2.851562 L 18.972656 2.921875 L 19.070312 3.347656 L 18.574219 3.667969 C 18.496094 3.714844 18.441406 3.796875 18.425781 3.890625 L 18.308594 4.59375 C 18.292969 4.6875 18.316406 4.78125 18.375 4.855469 L 18.742188 5.320312 L 18.507812 5.691406 L 17.933594 5.5625 C 17.839844 5.542969 17.746094 5.5625 17.667969 5.617188 L 17.085938 6.03125 C 17.007812 6.085938 16.960938 6.171875 16.949219 6.261719 L 16.882812 6.851562 L 16.453125 6.949219 L 16.136719 6.449219 C 16.085938 6.371094 16.003906 6.316406 15.910156 6.300781 L 15.207031 6.183594 C 15.1875 6.179688 15.171875 6.179688 15.152344 6.179688 C 15.078125 6.179688 15.003906 6.203125 14.945312 6.25 L 14.484375 6.617188 L 14.109375 6.382812 L 14.238281 5.808594 C 14.257812 5.714844 14.238281 5.621094 14.183594 5.542969 L 13.769531 4.960938 C 13.714844 4.886719 13.632812 4.835938 13.539062 4.824219 L 12.953125 4.757812 L 12.851562 4.328125 Z M 13.351562 4.011719 " fill-opacity="1" fill-rule="nonzero"/><path fill="#061c3d" d="M 15.667969 5.597656 C 15.765625 5.613281 15.867188 5.621094 15.964844 5.621094 C 16.816406 5.621094 17.574219 5.003906 17.722656 4.132812 C 17.882812 3.164062 17.226562 2.242188 16.257812 2.082031 C 15.289062 1.917969 14.367188 2.574219 14.203125 3.542969 C 14.125 4.011719 14.234375 4.484375 14.511719 4.875 C 14.785156 5.261719 15.199219 5.519531 15.667969 5.597656 Z M 14.859375 3.652344 C 14.949219 3.105469 15.425781 2.71875 15.960938 2.71875 C 16.023438 2.71875 16.085938 2.722656 16.148438 2.734375 C 16.757812 2.835938 17.171875 3.414062 17.066406 4.023438 C 16.964844 4.632812 16.386719 5.046875 15.777344 4.945312 C 15.480469 4.894531 15.222656 4.734375 15.050781 4.488281 C 14.875 4.246094 14.808594 3.949219 14.859375 3.652344 Z M 14.859375 3.652344 " fill-opacity="1" fill-rule="nonzero"/></svg>