<svg xmlns="http://www.w3.org/2000/svg" width="40" height="40" version="1.0" viewBox="0 0 30 30"><defs><clipPath id="a"><path d="M2 18h9v11.031H2Zm0 0"/></clipPath></defs><path fill="#061c3d" fill-rule="evenodd" d="M22.352 11.438h-8.579A3.84 3.84 0 0 1 9.93 7.605a3.84 3.84 0 0 1 3.843-3.828c.137 0 .274 0 .41.02A3.83 3.83 0 0 1 18.013 0c2.11 0 3.812 1.719 3.828 3.813.172-.036.34-.036.512-.036a3.834 3.834 0 0 1 3.828 3.828 3.835 3.835 0 0 1-3.828 3.832m-8.579-6.981a3.16 3.16 0 0 0-3.164 3.148 3.155 3.155 0 0 0 3.164 3.149h8.579A3.15 3.15 0 0 0 25.5 7.605a3.154 3.154 0 0 0-3.148-3.148 2.7 2.7 0 0 0-.782.106c-.12.015-.238 0-.324-.086a.33.33 0 0 1-.101-.309c.015-.082.015-.203.015-.34A3.154 3.154 0 0 0 18.012.68a3.154 3.154 0 0 0-3.149 3.148v.324a.33.33 0 0 1-.101.305.33.33 0 0 1-.29.086 3.7 3.7 0 0 0-.699-.086m0 0"/><path fill="#061c3d" fill-rule="evenodd" d="M18.777 10.16h-1.43a.34.34 0 0 1-.34-.34v-.765c-.1-.051-.222-.102-.304-.172l-.664.375c-.086.05-.172.066-.258.035a.35.35 0 0 1-.219-.156l-.699-1.242a.35.35 0 0 1-.015-.27c.015-.086.086-.152.152-.207l.648-.356v-.374L15 6.313a.357.357 0 0 1-.137-.477l.7-1.223c.05-.07.117-.136.203-.156a.4.4 0 0 1 .273.035l.645.375c.101-.066.222-.137.324-.187v-.73a.34.34 0 0 1 .34-.34h1.43a.34.34 0 0 1 .34.34v.745c.1.051.206.121.308.188l.629-.375a.3.3 0 0 1 .273-.031.3.3 0 0 1 .203.152l.715 1.226c.05.082.05.168.035.27a.38.38 0 0 1-.156.207l-.664.371c.02.07.02.137.02.188 0 .07 0 .12-.02.187l.648.375c.086.035.137.121.172.203a.36.36 0 0 1-.035.258l-.715 1.242a.3.3 0 0 1-.203.153.3.3 0 0 1-.273-.036l-.63-.375c-.1.07-.206.122-.308.172v.766a.337.337 0 0 1-.34.324m-1.09-.68h.75v-.648c0-.137.086-.254.223-.305.203-.086.39-.187.527-.308a.37.37 0 0 1 .391-.035l.543.324.375-.645-.562-.308a.335.335 0 0 1-.153-.39c.02-.067.02-.169.02-.29 0-.102 0-.187-.02-.254-.05-.156.02-.309.153-.394l.562-.32-.375-.63-.527.32a.36.36 0 0 1-.39-.03 2 2 0 0 0-.544-.325.33.33 0 0 1-.223-.308v-.645h-.75v.629a.33.33 0 0 1-.218.324c-.172.067-.36.168-.528.305a.34.34 0 0 1-.394.035l-.559-.324-.36.629.563.324a.35.35 0 0 1 .153.39c-.016.07-.016.157-.016.258 0 .118 0 .22.016.29.05.152-.016.304-.153.39l-.562.305.36.648.558-.324a.34.34 0 0 1 .375.035c.152.117.34.219.547.305.136.05.218.172.218.308Zm0 0"/><path fill="#061c3d" fill-rule="evenodd" d="M18.063 8.34a1.44 1.44 0 0 1-1.461-1.465c0-.8.66-1.465 1.46-1.465.801 0 1.465.664 1.465 1.465 0 .8-.664 1.465-1.465 1.465m0-2.246a.79.79 0 0 0-.782.781c0 .441.34.781.782.781.425 0 .785-.34.785-.781a.79.79 0 0 0-.785-.781M13.86 16.387a.34.34 0 0 1-.34-.34v-2.008c0-.101.035-.187.101-.238l1.805-1.805v-.902c0-.184.152-.34.34-.34.187 0 .34.156.34.34v1.039c0 .101-.036.187-.102.238l-1.805 1.805v1.87a.34.34 0 0 1-.34.34M18.082 15.195a.343.343 0 0 1-.344-.34v-3.761c0-.184.157-.34.344-.34.184 0 .34.156.34.34v3.761c0 .188-.156.34-.34.34M22.266 16.387a.34.34 0 0 1-.34-.34v-1.871L20.12 12.37c-.066-.05-.101-.152-.101-.238v-1.04c0-.183.152-.34.34-.34.187 0 .34.157.34.34v.903l1.804 1.805a.38.38 0 0 1 .101.238v2.008a.34.34 0 0 1-.34.34m0 0"/><path fill="#061c3d" fill-rule="evenodd" d="M18.082 16.883a1.184 1.184 0 1 1 0-2.367 1.18 1.18 0 0 1 1.172 1.191c0 .648-.527 1.176-1.172 1.176m0-1.688a.5.5 0 0 0-.512.512c0 .273.22.492.512.492.27 0 .492-.219.492-.492a.51.51 0 0 0-.492-.512M22.266 18.074a1.176 1.176 0 0 1-1.172-1.176 1.18 1.18 0 0 1 1.172-1.191 1.18 1.18 0 0 1 1.175 1.191c0 .649-.527 1.176-1.175 1.176m0-1.687a.5.5 0 0 0-.493.511.493.493 0 0 0 .988 0 .52.52 0 0 0-.495-.511M13.86 18.074a1.18 1.18 0 0 1-1.192-1.176c0-.648.547-1.191 1.191-1.191a1.18 1.18 0 0 1 1.176 1.191c0 .649-.527 1.176-1.176 1.176m0-1.687a.524.524 0 0 0-.512.511c0 .254.238.493.511.493a.49.49 0 0 0 .493-.493.507.507 0 0 0-.493-.511M25.941 14.242h-3.777a.34.34 0 0 1 0-.68h3.777a.34.34 0 0 1 0 .68m0 0"/><path fill="#061c3d" fill-rule="evenodd" d="M26.777 15.094a1.19 1.19 0 0 1-1.175-1.192c0-.644.527-1.172 1.175-1.172.645 0 1.172.528 1.172 1.172 0 .649-.527 1.192-1.172 1.192m0-1.684a.496.496 0 0 0-.496.492.51.51 0 0 0 .496.512c.254 0 .493-.238.493-.512a.495.495 0 0 0-.493-.492M13.86 14.379h-3.778a.34.34 0 0 1 0-.68h3.777a.34.34 0 0 1 0 .68m0 0"/><path fill="#061c3d" fill-rule="evenodd" d="M9.246 15.215a1.176 1.176 0 0 1-1.172-1.176c0-.644.528-1.172 1.172-1.172.649 0 1.176.528 1.176 1.172 0 .649-.527 1.176-1.176 1.176m0-1.668a.493.493 0 0 0 0 .984.493.493 0 0 0 .496-.492.493.493 0 0 0-.496-.492M9.008 25.563a.42.42 0 0 1-.254-.122.346.346 0 0 1 .02-.476c.05-.05 1.343-1.192 3.945-.63 3.148.696 6.636 0 9.582-1.94 1.039-.68 2.094-1.461 2.945-2.094l.168-.133c.203-.156.238-.547.086-.82-.223-.356-.629-.254-.918-.118l-6.195 2.977h-.016a.2.2 0 0 1-.105.035c-.254.035-4.032.563-5.496-.46-.153-.118-.204-.321-.082-.477a.326.326 0 0 1 .472-.082c1.024.695 3.813.507 4.938.355.203-.168.406-.406.406-.644 0-.258-.254-.461-.39-.563-.696-.496-1.462-.441-2.282-.41-.39.02-.797.035-1.187 0-.274-.016-1.075-.168-2.727-1.156-1.172-.7-3.113-.782-4.098.203l-1.449 1.449a.354.354 0 0 1-.492 0c-.121-.121-.121-.344 0-.477l1.445-1.449c1.278-1.258 3.559-1.14 4.953-.304 1.618.953 2.297 1.054 2.418 1.054.356.035.73.016 1.106 0 .902-.05 1.82-.086 2.703.528.426.289.664.68.683 1.09v.167l5.106-2.449c.883-.426 1.512-.101 1.785.36.34.578.238 1.359-.254 1.734l-.172.137c-.851.629-1.906 1.43-2.976 2.125C19.578 25 15.902 25.73 12.582 25c-2.227-.496-3.281.426-3.336.477a.4.4 0 0 1-.238.085m0 0"/><g clip-path="url(#a)"><path fill="#061c3d" fill-rule="evenodd" d="M7.46 29.031c-.526 0-1.038-.254-1.308-.73l-3.847-6.688a1.46 1.46 0 0 1-.153-1.125c.102-.39.356-.73.696-.918l1.175-.68c.34-.206.75-.257 1.141-.152.39.102.715.356.918.696L9.91 26.12c.207.324.258.734.156 1.125-.105.39-.343.715-.699.918l-1.176.68a1.4 1.4 0 0 1-.73.187m-2.706-9.664a.8.8 0 0 0-.39.102l-1.173.68a.82.82 0 0 0-.375.511.66.66 0 0 0 .082.594l3.848 6.687c.223.375.73.528 1.106.309l1.175-.68a.9.9 0 0 0 .391-.511.8.8 0 0 0-.086-.598l-3.844-6.688a.92.92 0 0 0-.511-.39c-.067-.016-.137-.016-.223-.016m0 0"/></g></svg>