<svg xmlns="http://www.w3.org/2000/svg" xmlns:xlink="http://www.w3.org/1999/xlink" width="40" zoomAndPan="magnify" viewBox="0 0 30 30.000001" height="40" preserveAspectRatio="xMidYMid meet" version="1.0"><defs><clipPath id="6104960c3a"><path d="M 1.574219 0 L 28.425781 0 L 28.425781 29 L 1.574219 29 Z M 1.574219 0 " clip-rule="nonzero"/></clipPath></defs><g clip-path="url(#6104960c3a)"><path fill="#061c3d" d="M 5.191406 19.554688 C 4.964844 19.171875 4.464844 19.027344 4.082031 19.257812 L 2.089844 20.472656 C 1.710938 20.707031 1.570312 21.195312 1.792969 21.582031 L 5.777344 28.484375 C 6 28.871094 6.503906 29.015625 6.886719 28.78125 L 8.878906 27.566406 C 9.257812 27.332031 9.398438 26.84375 9.175781 26.457031 Z M 4.558594 22.449219 C 4.359375 22.5625 4.105469 22.492188 3.988281 22.292969 L 3.519531 21.476562 C 3.402344 21.277344 3.472656 21.019531 3.671875 20.90625 C 3.871094 20.792969 4.128906 20.859375 4.242188 21.058594 L 4.714844 21.878906 C 4.828125 22.078125 4.757812 22.332031 4.558594 22.449219 Z M 27.367188 21.085938 L 18.4375 26.242188 C 17.945312 26.527344 17.367188 26.605469 16.820312 26.457031 L 10.695312 24.816406 C 10.226562 24.714844 9.992188 24.6875 9.578125 24.925781 L 9.339844 25.0625 L 6.480469 20.109375 L 10.378906 17.859375 C 10.773438 17.628906 11.332031 17.574219 11.769531 17.71875 L 17.339844 19.214844 C 18.109375 19.421875 18.570312 20.21875 18.367188 20.992188 C 18.160156 21.761719 17.378906 22.191406 16.613281 21.988281 L 12.699219 20.953125 C 12.476562 20.894531 12.25 21.027344 12.191406 21.25 C 12.132812 21.472656 12.265625 21.703125 12.488281 21.761719 L 16.632812 22.859375 L 16.710938 22.878906 C 17.140625 22.992188 17.550781 22.9375 17.933594 22.714844 L 20.0625 21.488281 L 25.710938 18.222656 C 26.5 17.769531 27.515625 18.042969 27.96875 18.832031 C 28.425781 19.617188 28.152344 20.632812 27.367188 21.085938 Z M 16.613281 21.988281 L 16.8125 22.039062 Z M 8.792969 13.347656 L 12.519531 13.347656 C 12.664062 13.644531 12.832031 13.921875 13.015625 14.1875 L 8.964844 14.1875 L 8.761719 14.386719 C 8.597656 14.167969 8.398438 13.96875 8.171875 13.796875 L 8.492188 13.472656 C 8.566406 13.398438 8.675781 13.347656 8.792969 13.347656 Z M 11.75 9.234375 C 11.753906 9.511719 11.765625 9.789062 11.78125 10.070312 L 7.039062 10.070312 C 7.082031 9.792969 7.082031 9.507812 7.039062 9.234375 Z M 8.761719 4.914062 L 8.964844 5.117188 L 11.769531 5.117188 C 11.765625 5.398438 11.761719 5.675781 11.753906 5.957031 L 8.792969 5.957031 C 8.675781 5.957031 8.566406 5.910156 8.492188 5.832031 L 8.167969 5.507812 C 8.390625 5.34375 8.589844 5.144531 8.761719 4.914062 Z M 15.554688 11.8125 C 15.859375 12.472656 16.527344 13.046875 17.09375 13.492188 C 18.136719 14.3125 19.238281 15.003906 20.382812 15.683594 C 21.605469 14.957031 23.59375 13.714844 24.566406 12.703125 C 25.246094 11.996094 25.433594 11.410156 25.542969 10.402344 C 25.601562 9.863281 25.609375 9.3125 25.621094 8.851562 C 25.648438 6.976562 25.582031 5.105469 25.554688 3.230469 C 24.136719 2.839844 21.960938 2.695312 20.382812 2.695312 C 18.804688 2.695312 16.628906 2.839844 15.210938 3.230469 C 15.179688 5.105469 15.117188 6.976562 15.144531 8.851562 C 15.15625 9.71875 15.183594 11.003906 15.554688 11.8125 Z M 16.796875 7.222656 C 16.796875 6.601562 17.300781 6.097656 17.921875 6.097656 L 18.253906 6.097656 L 18.253906 5.613281 C 18.253906 4.445312 19.210938 3.488281 20.382812 3.488281 C 21.550781 3.488281 22.507812 4.445312 22.507812 5.613281 L 22.507812 6.097656 L 22.84375 6.097656 C 23.460938 6.097656 23.964844 6.601562 23.964844 7.222656 L 23.964844 11.460938 C 23.964844 12.078125 23.460938 12.585938 22.84375 12.585938 L 17.921875 12.585938 C 17.300781 12.585938 16.796875 12.078125 16.796875 11.460938 Z M 21.671875 6.097656 L 19.09375 6.097656 L 19.09375 5.613281 C 19.09375 5.261719 19.238281 4.9375 19.472656 4.703125 C 20.292969 3.886719 21.671875 4.484375 21.671875 5.613281 Z M 13.226562 12.878906 C 13.722656 13.960938 14.585938 14.785156 15.507812 15.507812 C 17.046875 16.71875 18.699219 17.675781 20.382812 18.65625 C 22.0625 17.675781 23.714844 16.71875 25.257812 15.507812 C 26.175781 14.785156 27.042969 13.960938 27.539062 12.878906 C 28.09375 11.671875 28.164062 10.203125 28.183594 8.886719 C 28.214844 6.683594 28.125 4.476562 28.105469 2.269531 L 28.097656 1.402344 C 27.054688 0.984375 26.273438 0.710938 25.140625 0.511719 C 22.308594 0.015625 18.453125 0.015625 15.625 0.511719 C 14.492188 0.710938 13.707031 0.984375 12.667969 1.402344 L 12.660156 2.269531 C 12.640625 4.476562 12.546875 6.683594 12.582031 8.886719 C 12.601562 10.203125 12.667969 11.671875 13.226562 12.878906 Z M 14.378906 2.910156 C 14.378906 2.730469 14.496094 2.566406 14.675781 2.511719 C 16.332031 2.007812 18.605469 1.855469 20.382812 1.855469 C 21.996094 1.855469 24.042969 2 25.480469 2.347656 C 25.6875 2.398438 25.882812 2.453125 26.078125 2.507812 C 26.25 2.554688 26.382812 2.714844 26.382812 2.90625 C 26.410156 4.890625 26.484375 6.867188 26.457031 8.859375 C 26.4375 9.882812 26.40625 11.207031 25.96875 12.15625 C 25.597656 12.96875 24.867188 13.621094 24.191406 14.152344 C 22.996094 15.085938 21.882812 15.757812 20.601562 16.527344 C 20.472656 16.605469 20.304688 16.613281 20.167969 16.53125 C 18.8125 15.726562 16.683594 14.414062 15.597656 13.285156 C 14.78125 12.4375 14.519531 11.679688 14.390625 10.492188 C 14.328125 9.929688 14.316406 9.351562 14.308594 8.859375 C 14.277344 6.847656 14.359375 4.898438 14.378906 2.910156 Z M 2.394531 8.625 C 2.964844 7.640625 4.21875 7.300781 5.203125 7.871094 C 6.1875 8.4375 6.523438 9.695312 5.957031 10.679688 C 5.386719 11.664062 4.128906 12 3.148438 11.433594 C 2.164062 10.863281 1.828125 9.605469 2.394531 8.625 Z M 4.660156 2.15625 C 5.226562 1.175781 6.484375 0.835938 7.46875 1.40625 C 8.453125 1.972656 8.789062 3.230469 8.222656 4.214844 C 7.652344 5.199219 6.394531 5.535156 5.414062 4.964844 C 4.429688 4.398438 4.089844 3.140625 4.660156 2.15625 Z M 8.222656 17.144531 C 7.652344 18.132812 6.394531 18.46875 5.414062 17.898438 C 4.429688 17.328125 4.089844 16.074219 4.660156 15.089844 C 5.230469 14.105469 6.484375 13.769531 7.46875 14.335938 C 8.453125 14.90625 8.789062 16.160156 8.222656 17.144531 Z M 17.921875 11.746094 L 22.84375 11.746094 C 22.996094 11.746094 23.125 11.617188 23.125 11.460938 L 23.125 7.222656 C 23.125 7.066406 22.996094 6.9375 22.84375 6.9375 L 17.921875 6.9375 C 17.765625 6.9375 17.636719 7.066406 17.636719 7.222656 L 17.636719 11.460938 C 17.636719 11.617188 17.765625 11.746094 17.921875 11.746094 Z M 20.003906 8.109375 L 20.761719 8.109375 C 20.992188 8.109375 21.179688 8.296875 21.179688 8.527344 C 21.179688 8.746094 21.015625 8.925781 20.800781 8.945312 L 20.800781 10.152344 C 20.800781 10.386719 20.613281 10.574219 20.382812 10.574219 C 20.148438 10.574219 19.964844 10.386719 19.964844 10.152344 L 19.964844 8.945312 C 19.75 8.925781 19.582031 8.746094 19.582031 8.527344 C 19.582031 8.296875 19.773438 8.109375 20.003906 8.109375 Z M 20.003906 8.109375 " fill-opacity="1" fill-rule="evenodd"/></g></svg>