<svg xmlns="http://www.w3.org/2000/svg" xmlns:xlink="http://www.w3.org/1999/xlink" width="40" zoomAndPan="magnify" viewBox="0 0 30 30.000001" height="40" preserveAspectRatio="xMidYMid meet" version="1.0"><defs><clipPath id="a3bc360543"><path d="M 0.828125 0 L 29.136719 0 L 29.136719 29 L 0.828125 29 Z M 0.828125 0 " clip-rule="nonzero"/></clipPath></defs><g clip-path="url(#a3bc360543)"><path fill="#ffffff" d="M 9.578125 5.472656 C 11.648438 2.121094 14.238281 1.246094 17.59375 1.246094 L 17.851562 0.28125 C 17.910156 0.0664062 18.195312 0 18.335938 0.183594 L 20.371094 2.851562 C 20.480469 2.996094 20.421875 3.203125 20.257812 3.273438 L 17.164062 4.570312 C 16.945312 4.660156 16.734375 4.460938 16.789062 4.242188 L 17.003906 3.441406 C 15.296875 3.15625 12.503906 3.464844 9.578125 5.472656 Z M 7.6875 15.804688 L 9.570312 15.804688 C 9.667969 15.804688 9.742188 15.878906 9.742188 15.976562 L 9.742188 19.300781 C 9.742188 19.394531 9.667969 19.472656 9.570312 19.472656 L 7.6875 19.472656 C 7.59375 19.472656 7.515625 19.394531 7.515625 19.300781 L 7.515625 15.976562 C 7.515625 15.878906 7.59375 15.804688 7.6875 15.804688 Z M 8.089844 13.035156 C 12.84375 13 15.460938 10.695312 17.058594 8.664062 L 17.765625 8.96875 C 17.925781 9.035156 18.101562 8.894531 18.054688 8.71875 L 17.410156 6.21875 C 17.375 6.082031 17.222656 6.015625 17.101562 6.085938 L 14.84375 7.339844 C 14.683594 7.425781 14.703125 7.652344 14.863281 7.71875 L 15.449219 7.972656 C 14.804688 9.140625 13.007812 11.285156 8.089844 13.035156 Z M 21.597656 10.863281 L 21.597656 19.300781 C 21.597656 19.394531 21.523438 19.472656 21.425781 19.472656 L 19.542969 19.472656 C 19.449219 19.472656 19.371094 19.394531 19.371094 19.300781 L 19.371094 10.863281 L 18.738281 10.863281 C 18.523438 10.863281 18.40625 10.621094 18.535156 10.453125 L 20.085938 8.480469 C 20.289062 8.21875 20.679688 8.21875 20.882812 8.480469 L 22.433594 10.453125 C 22.5625 10.621094 22.445312 10.863281 22.234375 10.863281 Z M 15.589844 12.511719 C 16.21875 12.511719 16.847656 12.511719 17.476562 12.511719 C 17.570312 12.511719 17.648438 12.589844 17.648438 12.683594 C 17.648438 14.890625 17.648438 17.09375 17.648438 19.300781 C 17.648438 19.394531 17.570312 19.472656 17.476562 19.472656 C 16.847656 19.472656 16.21875 19.472656 15.589844 19.472656 C 15.496094 19.472656 15.417969 19.394531 15.417969 19.300781 C 15.417969 17.09375 15.417969 14.890625 15.417969 12.683594 C 15.417969 12.589844 15.496094 12.511719 15.589844 12.511719 Z M 11.640625 14.15625 C 12.269531 14.15625 12.894531 14.15625 13.523438 14.15625 C 13.617188 14.15625 13.695312 14.234375 13.695312 14.328125 C 13.695312 15.988281 13.695312 17.644531 13.695312 19.300781 C 13.695312 19.398438 13.617188 19.472656 13.523438 19.472656 C 12.894531 19.472656 12.265625 19.472656 11.640625 19.472656 C 11.542969 19.472656 11.46875 19.398438 11.46875 19.300781 C 11.46875 17.644531 11.46875 15.988281 11.46875 14.328125 C 11.46875 14.234375 11.542969 14.15625 11.640625 14.15625 Z M 4.457031 14.691406 C 2.589844 11.222656 3.125 8.539062 4.804688 5.636719 L 4.097656 4.929688 C 3.941406 4.773438 4.027344 4.492188 4.257812 4.460938 L 7.585938 4.035156 C 7.765625 4.011719 7.917969 4.164062 7.894531 4.34375 L 7.464844 7.671875 C 7.4375 7.902344 7.15625 7.988281 7 7.832031 L 6.414062 7.246094 C 5.3125 8.582031 4.183594 11.152344 4.457031 14.691406 Z M 9.882812 23.734375 C 6.679688 22.203125 5.015625 19.9375 4.410156 18.320312 L 5.210938 18.105469 C 5.425781 18.046875 5.492188 17.761719 5.304688 17.621094 L 2.636719 15.585938 C 2.496094 15.476562 2.289062 15.53125 2.21875 15.699219 L 0.921875 18.792969 C 0.832031 19.011719 1.03125 19.222656 1.25 19.164062 L 2.210938 18.90625 C 3.890625 21.8125 5.945312 23.617188 9.882812 23.734375 Z M 20.425781 23.558594 C 18.355469 26.910156 15.765625 27.789062 12.410156 27.789062 L 12.152344 28.75 C 12.09375 28.96875 11.808594 29.035156 11.667969 28.847656 L 9.632812 26.179688 C 9.523438 26.035156 9.582031 25.828125 9.746094 25.757812 L 12.839844 24.464844 C 13.058594 24.375 13.269531 24.574219 13.214844 24.789062 L 13 25.589844 C 14.707031 25.875 17.5 25.566406 20.425781 23.558594 Z M 25.546875 14.339844 C 25.820312 17.878906 24.691406 20.453125 23.59375 21.789062 L 23.003906 21.203125 C 22.847656 21.042969 22.566406 21.128906 22.539062 21.363281 L 22.109375 24.6875 C 22.089844 24.867188 22.238281 25.019531 22.417969 24.996094 L 25.746094 24.570312 C 25.980469 24.539062 26.066406 24.261719 25.90625 24.101562 L 25.199219 23.398438 C 26.875 20.492188 27.414062 17.808594 25.546875 14.339844 Z M 20.121094 5.296875 C 23.324219 6.828125 24.984375 9.09375 25.59375 10.714844 L 24.792969 10.929688 C 24.578125 10.984375 24.511719 11.269531 24.699219 11.414062 L 27.363281 13.445312 C 27.507812 13.554688 27.714844 13.5 27.785156 13.332031 L 29.082031 10.238281 C 29.171875 10.023438 28.972656 9.808594 28.753906 9.867188 L 27.792969 10.125 C 26.113281 7.21875 24.058594 5.414062 20.121094 5.296875 Z M 20.121094 5.296875 " fill-opacity="1" fill-rule="evenodd"/></g></svg>