<svg xmlns="http://www.w3.org/2000/svg" xmlns:xlink="http://www.w3.org/1999/xlink" width="40" zoomAndPan="magnify" viewBox="0 0 30 30.000001" height="40" preserveAspectRatio="xMidYMid meet" version="1.0"><defs><clipPath id="031bb9ef01"><path d="M 1.011719 0 L 29 0 L 29 29.03125 L 1.011719 29.03125 Z M 1.011719 0 " clip-rule="nonzero"/></clipPath></defs><g clip-path="url(#031bb9ef01)"><path fill="#ffffff" d="M 20.597656 7.652344 C 20.589844 7.660156 20.578125 7.667969 20.566406 7.675781 M 2.644531 21.09375 C 2.460938 21.09375 2.3125 20.945312 2.3125 20.761719 C 2.3125 20.582031 2.460938 20.433594 2.644531 20.433594 L 7.566406 20.433594 C 7.75 20.433594 7.898438 20.582031 7.898438 20.761719 C 7.898438 20.945312 7.75 21.09375 7.566406 21.09375 Z M 2.644531 24.5625 C 2.460938 24.5625 2.3125 24.414062 2.3125 24.230469 C 2.3125 24.050781 2.460938 23.902344 2.644531 23.902344 L 7.566406 23.902344 C 7.75 23.902344 7.898438 24.050781 7.898438 24.230469 C 7.898438 24.414062 7.75 24.5625 7.566406 24.5625 Z M 27.355469 27.398438 C 27.539062 27.398438 27.6875 27.546875 27.6875 27.726562 C 27.6875 27.910156 27.539062 28.058594 27.355469 28.058594 L 22.433594 28.058594 C 22.25 28.058594 22.101562 27.910156 22.101562 27.726562 C 22.101562 27.546875 22.25 27.398438 22.433594 27.398438 Z M 27.355469 23.902344 C 27.539062 23.902344 27.6875 24.050781 27.6875 24.230469 C 27.6875 24.414062 27.539062 24.5625 27.355469 24.5625 L 22.433594 24.5625 C 22.25 24.5625 22.101562 24.414062 22.101562 24.230469 C 22.101562 24.050781 22.25 23.902344 22.433594 23.902344 Z M 27.355469 20.433594 C 27.539062 20.433594 27.6875 20.582031 27.6875 20.761719 C 27.6875 20.945312 27.539062 21.09375 27.355469 21.09375 L 22.433594 21.09375 C 22.25 21.09375 22.101562 20.945312 22.101562 20.761719 C 22.101562 20.582031 22.25 20.433594 22.433594 20.433594 Z M 2.644531 28.058594 C 2.460938 28.058594 2.3125 27.910156 2.3125 27.726562 C 2.3125 27.546875 2.460938 27.398438 2.644531 27.398438 L 7.566406 27.398438 C 7.75 27.398438 7.898438 27.546875 7.898438 27.726562 C 7.898438 27.910156 7.75 28.058594 7.566406 28.058594 Z M 14.328125 18.546875 L 12.699219 16.449219 L 3.074219 16.449219 L 1.449219 18.546875 Z M 9.398438 15.789062 L 12.859375 15.789062 C 12.957031 15.789062 13.054688 15.832031 13.121094 15.917969 L 15 18.335938 L 16.878906 15.917969 C 16.945312 15.832031 17.042969 15.789062 17.140625 15.789062 L 20.597656 15.789062 L 20.597656 14.078125 C 18.792969 14.796875 16.894531 15.15625 15 15.15625 C 13.101562 15.15625 11.203125 14.796875 9.398438 14.078125 Z M 15.328125 19.203125 L 15.328125 21.667969 C 15.328125 21.773438 15.371094 21.863281 15.4375 21.929688 C 15.507812 22 15.597656 22.042969 15.699219 22.042969 L 28.523438 22.042969 C 28.625 22.042969 28.71875 22 28.785156 21.929688 C 28.851562 21.863281 28.894531 21.773438 28.894531 21.667969 L 28.894531 19.203125 Z M 14.296875 22.699219 L 1.476562 22.699219 C 1.375 22.699219 1.28125 22.742188 1.214844 22.808594 C 1.148438 22.878906 1.105469 22.96875 1.105469 23.070312 L 1.105469 25.164062 C 1.105469 25.269531 1.148438 25.359375 1.214844 25.425781 C 1.28125 25.496094 1.375 25.539062 1.476562 25.539062 L 14.296875 25.539062 C 14.402344 25.539062 14.492188 25.496094 14.5625 25.425781 C 14.628906 25.359375 14.671875 25.269531 14.671875 25.164062 L 14.671875 23.070312 C 14.671875 22.96875 14.628906 22.878906 14.5625 22.808594 C 14.492188 22.742188 14.402344 22.699219 14.296875 22.699219 Z M 14.671875 19.203125 L 1.105469 19.203125 L 1.105469 21.667969 C 1.105469 21.773438 1.148438 21.863281 1.214844 21.929688 C 1.28125 22 1.375 22.042969 1.476562 22.042969 L 14.296875 22.042969 C 14.402344 22.042969 14.492188 22 14.558594 21.929688 C 14.628906 21.863281 14.667969 21.773438 14.671875 21.671875 Z M 15.328125 23.070312 L 15.328125 25.164062 C 15.328125 25.269531 15.371094 25.359375 15.4375 25.425781 C 15.507812 25.496094 15.597656 25.539062 15.699219 25.539062 L 28.523438 25.539062 C 28.621094 25.539062 28.714844 25.496094 28.785156 25.425781 C 28.851562 25.359375 28.890625 25.269531 28.890625 25.164062 L 28.890625 23.070312 C 28.890625 22.96875 28.851562 22.878906 28.785156 22.808594 C 28.714844 22.742188 28.621094 22.699219 28.523438 22.699219 L 15.699219 22.699219 C 15.597656 22.699219 15.507812 22.742188 15.4375 22.808594 C 15.371094 22.878906 15.328125 22.96875 15.328125 23.070312 Z M 14.296875 26.195312 L 1.476562 26.195312 C 1.375 26.195312 1.28125 26.238281 1.214844 26.304688 C 1.148438 26.371094 1.105469 26.464844 1.105469 26.566406 L 1.105469 28.660156 C 1.105469 28.761719 1.148438 28.855469 1.214844 28.921875 C 1.28125 28.988281 1.375 29.03125 1.476562 29.03125 L 14.296875 29.03125 C 14.402344 29.03125 14.492188 28.988281 14.5625 28.921875 C 14.628906 28.855469 14.671875 28.761719 14.671875 28.660156 L 14.671875 26.566406 C 14.671875 26.464844 14.628906 26.371094 14.5625 26.304688 C 14.492188 26.238281 14.402344 26.195312 14.296875 26.195312 Z M 28.550781 18.546875 L 26.921875 16.449219 L 17.300781 16.449219 L 15.671875 18.546875 Z M 28.523438 26.195312 L 15.699219 26.195312 C 15.597656 26.195312 15.507812 26.238281 15.4375 26.304688 C 15.371094 26.371094 15.328125 26.464844 15.328125 26.566406 L 15.328125 28.660156 C 15.328125 28.761719 15.371094 28.855469 15.4375 28.921875 C 15.507812 28.988281 15.597656 29.03125 15.699219 29.03125 L 28.523438 29.03125 C 28.621094 29.03125 28.714844 28.988281 28.785156 28.921875 C 28.851562 28.855469 28.890625 28.761719 28.890625 28.660156 L 28.890625 26.566406 C 28.890625 26.464844 28.851562 26.371094 28.785156 26.304688 C 28.714844 26.238281 28.625 26.195312 28.523438 26.195312 Z M 15 4.082031 C 16.667969 4.082031 18.179688 4.328125 19.285156 4.726562 C 20.410156 5.128906 21.132812 5.710938 21.226562 6.390625 C 21.246094 6.433594 21.257812 6.484375 21.257812 6.535156 L 21.257812 12.402344 L 24.457031 12.402344 C 25.714844 12.402344 26.851562 11.949219 27.671875 11.21875 C 28.484375 10.5 28.984375 9.503906 28.984375 8.40625 C 28.984375 7.375 28.539062 6.429688 27.808594 5.722656 C 27.0625 5 26.023438 4.519531 24.855469 4.429688 C 24.710938 4.421875 24.582031 4.320312 24.550781 4.167969 C 24.347656 3.246094 23.785156 2.433594 22.992188 1.855469 C 22.210938 1.285156 21.203125 0.9375 20.105469 0.9375 C 19.621094 0.9375 19.15625 1.003906 18.722656 1.128906 C 18.269531 1.253906 17.851562 1.441406 17.472656 1.679688 C 17.359375 1.753906 17.203125 1.75 17.089844 1.65625 C 16.453125 1.132812 15.707031 0.710938 14.882812 0.425781 C 14.09375 0.148438 13.226562 -0.00390625 12.320312 -0.00390625 C 10.804688 -0.00390625 9.402344 0.421875 8.257812 1.144531 C 8.25 1.152344 8.242188 1.15625 8.238281 1.160156 C 7.0625 1.90625 6.164062 2.960938 5.6875 4.1875 C 5.644531 4.316406 5.527344 4.410156 5.386719 4.414062 C 4.164062 4.453125 3.0625 4.917969 2.273438 5.644531 C 1.492188 6.363281 1.015625 7.335938 1.015625 8.40625 C 1.015625 9.503906 1.515625 10.496094 2.324219 11.21875 C 3.144531 11.949219 4.285156 12.402344 5.542969 12.402344 L 8.738281 12.402344 L 8.738281 6.53125 C 8.738281 6.480469 8.753906 6.429688 8.773438 6.386719 C 8.863281 5.710938 9.589844 5.128906 10.710938 4.722656 C 11.816406 4.328125 13.332031 4.082031 15 4.082031 Z M 20.597656 7.652344 C 20.589844 7.660156 20.578125 7.667969 20.566406 7.675781 L 20.550781 7.6875 C 20.542969 7.695312 20.53125 7.703125 20.523438 7.710938 L 20.519531 7.710938 C 20.511719 7.71875 20.5 7.726562 20.488281 7.734375 L 20.484375 7.738281 C 20.464844 7.753906 20.441406 7.769531 20.421875 7.785156 L 20.417969 7.785156 L 20.386719 7.808594 L 20.367188 7.820312 L 20.335938 7.839844 L 20.328125 7.847656 L 20.300781 7.863281 L 20.285156 7.871094 L 20.257812 7.886719 L 20.257812 7.890625 L 20.199219 7.925781 L 20.175781 7.9375 L 20.15625 7.953125 L 20.132812 7.964844 L 20.109375 7.980469 L 20.089844 7.988281 L 20.0625 8.003906 L 20.046875 8.007812 L 20.015625 8.027344 L 20.003906 8.035156 L 19.96875 8.050781 L 19.953125 8.058594 L 19.917969 8.078125 L 19.90625 8.082031 C 19.894531 8.085938 19.882812 8.09375 19.867188 8.101562 L 19.859375 8.105469 L 19.824219 8.121094 L 19.808594 8.128906 L 19.773438 8.144531 L 19.761719 8.148438 C 19.746094 8.15625 19.734375 8.164062 19.71875 8.171875 L 19.707031 8.175781 C 19.695312 8.179688 19.679688 8.1875 19.667969 8.191406 L 19.660156 8.195312 C 19.644531 8.203125 19.632812 8.207031 19.617188 8.210938 L 19.609375 8.21875 C 19.59375 8.222656 19.574219 8.230469 19.5625 8.238281 L 19.558594 8.238281 C 19.539062 8.242188 19.523438 8.25 19.507812 8.257812 C 19.488281 8.265625 19.472656 8.273438 19.453125 8.28125 L 19.449219 8.28125 C 19.433594 8.285156 19.417969 8.292969 19.402344 8.296875 L 19.394531 8.300781 C 19.378906 8.308594 19.359375 8.316406 19.34375 8.320312 L 19.339844 8.324219 C 19.320312 8.328125 19.304688 8.335938 19.285156 8.339844 C 18.179688 8.738281 16.664062 8.984375 15 8.984375 C 13.332031 8.984375 11.816406 8.738281 10.710938 8.339844 C 10.695312 8.335938 10.675781 8.328125 10.65625 8.324219 L 10.652344 8.320312 C 10.636719 8.316406 10.621094 8.308594 10.601562 8.300781 L 10.597656 8.296875 C 10.578125 8.292969 10.5625 8.289062 10.546875 8.28125 L 10.542969 8.28125 C 10.527344 8.273438 10.507812 8.265625 10.492188 8.257812 C 10.472656 8.25 10.457031 8.246094 10.441406 8.238281 L 10.4375 8.238281 L 10.433594 8.234375 C 10.417969 8.230469 10.402344 8.222656 10.390625 8.21875 L 10.378906 8.210938 C 10.363281 8.207031 10.351562 8.199219 10.335938 8.195312 L 10.328125 8.191406 C 10.3125 8.1875 10.300781 8.179688 10.289062 8.171875 L 10.277344 8.167969 C 10.261719 8.164062 10.25 8.15625 10.238281 8.152344 L 10.222656 8.144531 L 10.1875 8.128906 L 10.171875 8.121094 L 10.136719 8.105469 L 10.125 8.101562 L 10.089844 8.082031 L 10.074219 8.074219 L 10.046875 8.058594 L 10.023438 8.046875 L 9.996094 8.035156 L 9.949219 8.011719 L 9.933594 8 L 9.90625 7.988281 L 9.886719 7.976562 L 9.863281 7.964844 L 9.839844 7.949219 L 9.820312 7.9375 L 9.796875 7.921875 L 9.792969 7.921875 L 9.777344 7.910156 L 9.757812 7.898438 L 9.738281 7.890625 L 9.738281 7.886719 L 9.710938 7.871094 L 9.699219 7.863281 C 9.671875 7.847656 9.652344 7.835938 9.628906 7.820312 L 9.613281 7.808594 L 9.59375 7.796875 L 9.578125 7.785156 C 9.566406 7.777344 9.554688 7.765625 9.542969 7.757812 C 9.492188 7.722656 9.445312 7.6875 9.398438 7.648438 L 9.398438 10.101562 C 11.195312 10.855469 13.09375 11.234375 14.996094 11.234375 C 16.898438 11.234375 18.800781 10.855469 20.597656 10.101562 Z M 19.0625 5.34375 C 18.03125 4.972656 16.59375 4.742188 15 4.742188 C 13.402344 4.742188 11.96875 4.972656 10.933594 5.34375 C 10 5.679688 9.421875 6.101562 9.421875 6.535156 C 9.421875 6.542969 9.421875 6.550781 9.421875 6.554688 C 9.421875 6.5625 9.421875 6.566406 9.425781 6.574219 C 9.425781 6.582031 9.425781 6.589844 9.425781 6.59375 C 9.425781 6.601562 9.429688 6.609375 9.429688 6.617188 C 9.429688 6.621094 9.433594 6.628906 9.433594 6.632812 C 9.433594 6.640625 9.4375 6.648438 9.4375 6.65625 C 9.441406 6.664062 9.441406 6.667969 9.445312 6.675781 C 9.445312 6.679688 9.449219 6.6875 9.449219 6.695312 C 9.453125 6.703125 9.453125 6.710938 9.457031 6.714844 C 9.457031 6.722656 9.460938 6.726562 9.464844 6.734375 C 9.464844 6.742188 9.46875 6.746094 9.472656 6.753906 C 9.476562 6.761719 9.480469 6.769531 9.484375 6.773438 C 9.484375 6.78125 9.488281 6.789062 9.492188 6.792969 C 9.496094 6.800781 9.5 6.808594 9.503906 6.816406 C 9.507812 6.820312 9.511719 6.828125 9.515625 6.832031 C 9.519531 6.839844 9.523438 6.847656 9.527344 6.855469 C 9.53125 6.859375 9.535156 6.867188 9.539062 6.875 C 9.542969 6.878906 9.550781 6.886719 9.554688 6.890625 C 9.558594 6.898438 9.566406 6.90625 9.570312 6.914062 C 9.574219 6.917969 9.582031 6.925781 9.585938 6.929688 C 9.589844 6.9375 9.59375 6.945312 9.601562 6.953125 C 9.605469 6.957031 9.613281 6.964844 9.617188 6.96875 C 9.625 6.976562 9.632812 6.984375 9.636719 6.988281 C 9.640625 6.996094 9.648438 7.003906 9.65625 7.007812 C 9.660156 7.015625 9.667969 7.023438 9.675781 7.027344 C 9.679688 7.035156 9.6875 7.039062 9.695312 7.046875 C 9.699219 7.054688 9.707031 7.058594 9.714844 7.066406 C 9.71875 7.070312 9.726562 7.078125 9.734375 7.085938 C 9.742188 7.09375 9.75 7.097656 9.757812 7.105469 C 9.765625 7.109375 9.773438 7.117188 9.78125 7.125 C 9.789062 7.128906 9.796875 7.136719 9.804688 7.144531 C 9.8125 7.148438 9.820312 7.152344 9.828125 7.160156 C 9.835938 7.167969 9.84375 7.175781 9.855469 7.179688 C 9.859375 7.183594 9.871094 7.191406 9.878906 7.199219 C 9.886719 7.203125 9.894531 7.210938 9.90625 7.214844 C 9.914062 7.222656 9.921875 7.230469 9.933594 7.234375 C 9.941406 7.242188 9.949219 7.25 9.960938 7.253906 C 9.96875 7.257812 9.976562 7.265625 9.988281 7.273438 C 10 7.277344 10.007812 7.28125 10.015625 7.289062 C 10.027344 7.296875 10.035156 7.300781 10.046875 7.308594 C 10.054688 7.316406 10.066406 7.320312 10.078125 7.324219 C 10.085938 7.332031 10.097656 7.339844 10.105469 7.34375 C 10.117188 7.351562 10.125 7.355469 10.136719 7.363281 C 10.148438 7.367188 10.160156 7.375 10.167969 7.378906 C 10.179688 7.386719 10.191406 7.394531 10.203125 7.398438 C 10.210938 7.402344 10.222656 7.410156 10.234375 7.414062 C 10.246094 7.421875 10.257812 7.429688 10.269531 7.433594 C 10.28125 7.441406 10.292969 7.445312 10.304688 7.453125 C 10.316406 7.457031 10.328125 7.460938 10.335938 7.46875 L 10.339844 7.46875 C 10.351562 7.476562 10.363281 7.480469 10.375 7.488281 C 10.386719 7.492188 10.398438 7.5 10.410156 7.503906 L 10.449219 7.519531 C 10.460938 7.527344 10.472656 7.53125 10.484375 7.539062 C 10.496094 7.542969 10.511719 7.550781 10.523438 7.554688 C 10.539062 7.5625 10.550781 7.566406 10.5625 7.574219 C 10.574219 7.578125 10.589844 7.585938 10.601562 7.589844 L 10.640625 7.605469 C 10.65625 7.613281 10.667969 7.617188 10.679688 7.625 L 10.722656 7.640625 L 10.761719 7.65625 L 10.804688 7.671875 C 10.820312 7.679688 10.835938 7.683594 10.847656 7.691406 L 10.933594 7.722656 C 11.96875 8.09375 13.402344 8.324219 15 8.324219 C 16.59375 8.324219 18.03125 8.09375 19.0625 7.722656 C 19.996094 7.386719 20.574219 6.960938 20.574219 6.53125 C 20.574219 6.101562 19.996094 5.679688 19.0625 5.34375 Z M 20.597656 10.816406 C 18.792969 11.535156 16.894531 11.894531 15 11.894531 C 13.101562 11.894531 11.203125 11.535156 9.398438 10.816406 L 9.398438 13.367188 C 11.195312 14.121094 13.097656 14.496094 15 14.496094 C 16.902344 14.496094 18.800781 14.121094 20.597656 13.367188 Z M 20.597656 10.816406 " fill-opacity="1" fill-rule="nonzero"/></g></svg>