<svg xmlns="http://www.w3.org/2000/svg" xmlns:xlink="http://www.w3.org/1999/xlink" width="40" zoomAndPan="magnify" viewBox="0 0 30 30.000001" height="40" preserveAspectRatio="xMidYMid meet" version="1.0"><defs><clipPath id="41032c1c1b"><path d="M 0.484375 1.324219 L 29.515625 1.324219 L 29.515625 27.453125 L 0.484375 27.453125 Z M 0.484375 1.324219 " clip-rule="nonzero"/></clipPath></defs><g clip-path="url(#41032c1c1b)"><path fill="#061c3d" d="M 5.910156 1.324219 C 5.371094 1.328125 4.9375 1.761719 4.9375 2.296875 C 4.9375 2.824219 5.351562 3.25 5.878906 3.269531 C 5.886719 3.269531 5.898438 3.269531 5.90625 3.269531 C 5.910156 3.269531 5.910156 3.269531 5.910156 3.269531 C 5.964844 3.269531 6.015625 3.265625 6.066406 3.257812 C 6.128906 3.246094 6.191406 3.273438 6.226562 3.324219 L 7.285156 4.824219 C 7.292969 4.828125 7.300781 4.835938 7.304688 4.839844 C 7.34375 4.878906 7.390625 4.902344 7.445312 4.902344 L 9.15625 4.902344 C 9.246094 4.902344 9.316406 4.976562 9.316406 5.0625 L 9.316406 6.773438 C 8.914062 6.878906 8.53125 7.070312 8.222656 7.351562 C 7.800781 7.734375 7.527344 8.285156 7.4375 8.867188 C 7.421875 8.976562 7.335938 9.066406 7.222656 9.085938 C 7.246094 9.082031 7.238281 9.085938 7.199219 9.09375 C 6.929688 9.144531 6.679688 9.238281 6.453125 9.367188 L 6.453125 9.371094 C 6.425781 9.382812 6.398438 9.40625 6.355469 9.429688 C 6.316406 9.453125 6.292969 9.46875 6.265625 9.484375 C 6.253906 9.496094 6.238281 9.511719 6.222656 9.523438 C 5.597656 9.96875 5.191406 10.675781 5.191406 11.5 C 5.191406 12.875 6.296875 13.980469 7.671875 13.980469 L 12.445312 13.980469 L 12.445312 16.316406 L 3.394531 16.316406 C 2.625 16.316406 2 16.933594 2 17.703125 L 2 19.378906 L 1.277344 19.378906 C 0.84375 19.375 0.492188 19.726562 0.492188 20.160156 L 0.492188 26.621094 C 0.492188 27.054688 0.84375 27.40625 1.277344 27.40625 L 4.589844 27.40625 C 5.023438 27.40625 5.375 27.054688 5.375 26.621094 L 5.375 20.160156 C 5.375 19.726562 5.023438 19.375 4.589844 19.375 L 2.425781 19.375 L 2.425781 17.703125 C 2.425781 17.164062 2.855469 16.738281 3.394531 16.738281 L 12.445312 16.738281 L 12.445312 19.6875 C 12.445312 19.714844 12.449219 19.742188 12.460938 19.765625 L 8.125 19.765625 C 7.90625 19.765625 7.726562 19.945312 7.726562 20.164062 L 7.726562 25.890625 C 7.726562 26.109375 7.90625 26.289062 8.125 26.289062 L 11.539062 26.289062 C 11.527344 26.410156 11.511719 26.53125 11.5 26.652344 C 11.476562 26.839844 11.457031 27.003906 11.398438 27.136719 C 11.367188 27.199219 11.332031 27.246094 11.300781 27.269531 C 11.292969 27.273438 11.289062 27.273438 11.28125 27.277344 L 10.605469 27.277344 C 10.566406 27.277344 10.53125 27.296875 10.507812 27.328125 C 10.488281 27.359375 10.480469 27.398438 10.496094 27.433594 L 10.5625 27.625 C 10.570312 27.648438 10.585938 27.667969 10.605469 27.679688 C 10.625 27.695312 10.648438 27.703125 10.671875 27.703125 L 14.640625 27.703125 C 14.667969 27.703125 14.691406 27.695312 14.710938 27.679688 C 14.730469 27.667969 14.742188 27.648438 14.75 27.625 L 14.820312 27.433594 C 14.832031 27.398438 14.828125 27.359375 14.804688 27.328125 C 14.785156 27.296875 14.75 27.277344 14.710938 27.277344 L 14.035156 27.277344 C 14.027344 27.273438 14.019531 27.273438 14.015625 27.269531 C 13.984375 27.246094 13.945312 27.199219 13.917969 27.136719 C 13.859375 27.003906 13.839844 26.835938 13.816406 26.648438 C 13.804688 26.527344 13.789062 26.410156 13.773438 26.289062 L 17.191406 26.289062 C 17.410156 26.289062 17.589844 26.109375 17.589844 25.890625 L 17.589844 20.164062 C 17.589844 19.941406 17.410156 19.765625 17.191406 19.765625 L 12.855469 19.765625 C 12.867188 19.742188 12.871094 19.714844 12.871094 19.6875 L 12.871094 16.738281 L 21.917969 16.738281 C 22.453125 16.738281 22.886719 17.164062 22.886719 17.703125 L 22.886719 19.644531 C 22.886719 19.679688 22.898438 19.714844 22.914062 19.742188 L 20.316406 19.742188 C 20.027344 19.742188 19.792969 19.976562 19.792969 20.265625 L 19.792969 24.96875 C 19.792969 24.976562 19.796875 24.980469 19.796875 24.988281 C 19.773438 25.019531 19.753906 25.046875 19.742188 25.082031 L 18.863281 27.085938 C 18.769531 27.300781 18.867188 27.550781 19.082031 27.644531 C 19.136719 27.667969 19.195312 27.679688 19.253906 27.679688 L 29.082031 27.679688 C 29.316406 27.679688 29.507812 27.492188 29.507812 27.257812 C 29.507812 27.199219 29.496094 27.140625 29.472656 27.085938 L 28.59375 25.082031 C 28.582031 25.050781 28.5625 25.019531 28.539062 24.992188 C 28.542969 24.984375 28.542969 24.976562 28.542969 24.96875 L 28.542969 20.265625 C 28.542969 19.976562 28.308594 19.742188 28.019531 19.742188 L 23.285156 19.742188 C 23.300781 19.714844 23.3125 19.679688 23.3125 19.644531 L 23.3125 17.703125 C 23.3125 16.929688 22.6875 16.3125 21.917969 16.3125 L 12.867188 16.3125 L 12.867188 13.976562 L 17.171875 13.976562 C 18.816406 13.976562 20.136719 12.65625 20.136719 11.011719 C 20.136719 9.4375 18.917969 8.167969 17.371094 8.066406 C 17.265625 8.058594 17.175781 7.992188 17.136719 7.894531 C 17.140625 7.910156 17.132812 7.894531 17.121094 7.855469 C 17.121094 7.855469 17.121094 7.851562 17.121094 7.851562 C 17.101562 7.800781 17.09375 7.78125 17.097656 7.789062 C 17.097656 7.785156 17.097656 7.785156 17.097656 7.785156 C 17.058594 7.695312 17.007812 7.601562 16.949219 7.496094 L 16.949219 7.492188 C 16.929688 7.453125 16.914062 7.425781 16.910156 7.410156 L 16.90625 7.410156 C 16.875 7.351562 16.828125 7.285156 16.777344 7.214844 C 16.777344 7.210938 16.777344 7.210938 16.777344 7.210938 C 16.542969 6.84375 16.25 6.515625 15.90625 6.269531 C 15.304688 5.839844 14.566406 5.601562 13.828125 5.601562 C 13.828125 5.601562 13.824219 5.601562 13.824219 5.601562 C 13.488281 5.601562 13.15625 5.65625 12.832031 5.753906 L 12.832031 5.0625 C 12.832031 4.976562 12.90625 4.902344 12.996094 4.902344 L 14.707031 4.902344 C 14.761719 4.902344 14.804688 4.878906 14.84375 4.839844 C 14.851562 4.832031 14.863281 4.824219 14.871094 4.816406 L 15.925781 3.324219 C 15.960938 3.273438 16.023438 3.25 16.082031 3.257812 C 16.125 3.265625 16.164062 3.269531 16.203125 3.269531 C 16.214844 3.269531 16.226562 3.269531 16.238281 3.269531 C 16.238281 3.269531 16.238281 3.269531 16.242188 3.269531 C 16.777344 3.269531 17.214844 2.835938 17.214844 2.296875 C 17.214844 1.757812 16.78125 1.324219 16.242188 1.324219 C 15.703125 1.324219 15.269531 1.757812 15.269531 2.296875 C 15.269531 2.546875 15.367188 2.785156 15.535156 2.964844 C 15.589844 3.023438 15.59375 3.109375 15.550781 3.171875 L 14.652344 4.4375 C 14.625 4.480469 14.574219 4.507812 14.523438 4.507812 L 12.636719 4.507812 C 12.582031 4.507812 12.535156 4.53125 12.496094 4.566406 C 12.496094 4.566406 12.492188 4.574219 12.472656 4.605469 C 12.445312 4.644531 12.453125 4.636719 12.457031 4.628906 C 12.445312 4.652344 12.4375 4.679688 12.4375 4.707031 L 12.4375 5.902344 C 12 6.09375 11.597656 6.371094 11.265625 6.71875 L 11.265625 3.628906 C 11.265625 3.558594 11.308594 3.496094 11.375 3.476562 C 11.777344 3.347656 12.050781 2.972656 12.050781 2.550781 C 12.050781 2.011719 11.617188 1.578125 11.078125 1.578125 C 10.539062 1.578125 10.105469 2.011719 10.105469 2.550781 C 10.105469 2.964844 10.367188 3.332031 10.757812 3.46875 C 10.824219 3.492188 10.867188 3.554688 10.867188 3.621094 L 10.867188 6.867188 C 10.566406 6.753906 10.257812 6.683594 9.949219 6.683594 C 9.871094 6.683594 9.792969 6.699219 9.714844 6.707031 L 9.714844 4.707031 C 9.714844 4.679688 9.710938 4.65625 9.699219 4.628906 C 9.703125 4.636719 9.707031 4.644531 9.679688 4.605469 C 9.664062 4.574219 9.65625 4.566406 9.65625 4.566406 C 9.621094 4.527344 9.574219 4.507812 9.519531 4.507812 L 7.632812 4.507812 C 7.578125 4.507812 7.53125 4.480469 7.5 4.4375 L 6.605469 3.167969 C 6.558594 3.105469 6.566406 3.023438 6.617188 2.964844 C 6.789062 2.785156 6.882812 2.546875 6.882812 2.296875 C 6.882812 1.757812 6.472656 1.324219 5.910156 1.324219 Z M 5.910156 1.71875 C 6.230469 1.71875 6.492188 1.980469 6.492188 2.296875 C 6.492188 2.617188 6.230469 2.878906 5.910156 2.878906 C 5.589844 2.878906 5.328125 2.617188 5.328125 2.296875 C 5.328125 1.980469 5.589844 1.71875 5.910156 1.71875 Z M 16.238281 1.71875 C 16.558594 1.71875 16.820312 1.980469 16.820312 2.296875 C 16.820312 2.617188 16.558594 2.878906 16.238281 2.878906 C 15.917969 2.878906 15.65625 2.617188 15.65625 2.296875 C 15.65625 1.980469 15.921875 1.71875 16.238281 1.71875 Z M 11.074219 1.96875 C 11.394531 1.96875 11.65625 2.230469 11.65625 2.550781 C 11.65625 2.871094 11.394531 3.132812 11.074219 3.132812 C 10.757812 3.132812 10.496094 2.871094 10.496094 2.550781 C 10.496094 2.230469 10.757812 1.96875 11.074219 1.96875 Z M 13.824219 6.03125 L 13.914062 6.050781 C 14.675781 6.074219 15.40625 6.386719 15.957031 6.894531 C 15.957031 6.894531 15.960938 6.898438 15.960938 6.898438 C 15.964844 6.902344 15.992188 6.921875 16.039062 6.96875 C 16.101562 7.03125 16.144531 7.085938 16.179688 7.125 C 16.179688 7.125 16.183594 7.125 16.183594 7.128906 C 16.265625 7.226562 16.359375 7.332031 16.441406 7.457031 C 16.542969 7.613281 16.628906 7.777344 16.699219 7.949219 C 16.699219 7.949219 16.699219 7.953125 16.703125 7.953125 C 16.710938 7.976562 16.714844 8.003906 16.71875 8.03125 C 16.925781 8.578125 16.976562 9.171875 16.863281 9.738281 C 16.863281 9.742188 16.859375 9.746094 16.859375 9.75 C 16.855469 9.757812 16.855469 9.777344 16.855469 9.800781 C 16.855469 9.925781 16.953125 10.023438 17.078125 10.023438 C 17.1875 10.023438 17.277344 9.945312 17.296875 9.835938 C 17.296875 9.832031 17.300781 9.828125 17.300781 9.828125 C 17.363281 9.492188 17.378906 9.152344 17.347656 8.816406 C 17.332031 8.636719 17.488281 8.496094 17.664062 8.527344 C 18.835938 8.753906 19.710938 9.769531 19.710938 11.011719 C 19.710938 12.421875 18.585938 13.546875 17.171875 13.546875 L 7.671875 13.546875 C 6.53125 13.546875 5.621094 12.636719 5.621094 11.496094 C 5.621094 11.089844 5.738281 10.714844 5.941406 10.398438 C 5.964844 10.355469 6 10.324219 6.042969 10.304688 C 6.382812 9.851562 6.890625 9.527344 7.503906 9.480469 C 7.957031 9.445312 8.386719 9.558594 8.738281 9.777344 C 8.746094 9.78125 8.753906 9.785156 8.757812 9.789062 C 8.789062 9.8125 8.835938 9.828125 8.886719 9.828125 C 9.003906 9.828125 9.089844 9.738281 9.089844 9.621094 C 9.089844 9.546875 9.050781 9.480469 8.984375 9.441406 C 8.976562 9.4375 8.972656 9.4375 8.96875 9.433594 C 8.707031 9.265625 8.410156 9.144531 8.09375 9.085938 C 7.941406 9.058594 7.84375 8.910156 7.882812 8.761719 C 8.113281 7.835938 8.976562 7.113281 9.945312 7.113281 C 10.253906 7.113281 10.5625 7.179688 10.839844 7.308594 C 11.027344 7.394531 11.269531 7.339844 11.398438 7.179688 C 11.980469 6.472656 12.867188 6.050781 13.78125 6.039062 C 13.796875 6.035156 13.808594 6.03125 13.824219 6.03125 Z M 13.164062 7.445312 L 13.164062 7.449219 L 13.160156 7.449219 C 13.15625 7.449219 13.15625 7.449219 13.152344 7.453125 L 13.15625 7.449219 C 13.125 7.449219 13.097656 7.449219 13.070312 7.453125 C 12.898438 7.457031 12.746094 7.558594 12.675781 7.710938 C 12.675781 7.714844 12.675781 7.714844 12.675781 7.714844 C 12.675781 7.714844 12.675781 7.71875 12.671875 7.71875 C 12.671875 7.722656 12.671875 7.722656 12.671875 7.722656 C 12.671875 7.722656 12.671875 7.722656 12.671875 7.726562 C 12.671875 7.726562 12.671875 7.726562 12.667969 7.730469 C 12.597656 7.886719 12.554688 8.0625 12.519531 8.246094 C 12.511719 8.273438 12.492188 8.300781 12.464844 8.3125 C 12.453125 8.316406 12.449219 8.320312 12.4375 8.324219 C 12.410156 8.335938 12.375 8.332031 12.351562 8.316406 C 12.195312 8.210938 12.042969 8.113281 11.875 8.054688 C 11.875 8.054688 11.871094 8.050781 11.871094 8.050781 C 11.871094 8.050781 11.867188 8.050781 11.867188 8.050781 C 11.867188 8.050781 11.863281 8.050781 11.859375 8.050781 L 11.859375 8.046875 L 11.855469 8.046875 C 11.699219 7.992188 11.527344 8.027344 11.40625 8.140625 C 11.40625 8.140625 11.402344 8.140625 11.402344 8.140625 C 11.402344 8.140625 11.402344 8.144531 11.402344 8.144531 C 11.378906 8.164062 11.355469 8.183594 11.332031 8.207031 C 11.332031 8.207031 11.328125 8.207031 11.328125 8.210938 C 11.328125 8.210938 11.328125 8.210938 11.324219 8.210938 C 11.3125 8.226562 11.300781 8.238281 11.289062 8.25 C 11.289062 8.25 11.289062 8.25 11.285156 8.253906 C 11.269531 8.269531 11.257812 8.277344 11.246094 8.292969 C 11.246094 8.292969 11.246094 8.292969 11.242188 8.292969 C 11.242188 8.296875 11.242188 8.296875 11.242188 8.296875 C 11.242188 8.296875 11.242188 8.300781 11.238281 8.300781 C 11.21875 8.324219 11.199219 8.34375 11.179688 8.367188 L 11.175781 8.367188 C 11.058594 8.492188 11.023438 8.671875 11.085938 8.828125 C 11.085938 8.832031 11.085938 8.835938 11.085938 8.835938 C 11.085938 8.839844 11.089844 8.839844 11.089844 8.839844 C 11.089844 8.839844 11.089844 8.839844 11.089844 8.84375 C 11.089844 8.84375 11.089844 8.847656 11.089844 8.847656 C 11.152344 9.011719 11.25 9.160156 11.351562 9.316406 C 11.367188 9.34375 11.371094 9.375 11.359375 9.402344 C 11.351562 9.414062 11.351562 9.421875 11.347656 9.429688 C 11.335938 9.457031 11.308594 9.476562 11.28125 9.484375 C 11.097656 9.523438 10.921875 9.5625 10.761719 9.636719 C 10.761719 9.636719 10.761719 9.636719 10.757812 9.636719 C 10.757812 9.636719 10.757812 9.640625 10.757812 9.640625 L 10.753906 9.640625 C 10.753906 9.640625 10.75 9.640625 10.75 9.640625 L 10.746094 9.644531 C 10.59375 9.710938 10.492188 9.863281 10.488281 10.035156 C 10.488281 10.035156 10.488281 10.039062 10.488281 10.039062 C 10.484375 10.066406 10.480469 10.097656 10.480469 10.128906 C 10.480469 10.128906 10.480469 10.128906 10.480469 10.132812 C 10.480469 10.132812 10.480469 10.132812 10.480469 10.136719 C 10.480469 10.152344 10.480469 10.171875 10.480469 10.191406 C 10.480469 10.191406 10.480469 10.191406 10.484375 10.191406 C 10.484375 10.191406 10.480469 10.191406 10.480469 10.195312 C 10.480469 10.214844 10.480469 10.234375 10.480469 10.25 C 10.480469 10.253906 10.480469 10.253906 10.480469 10.253906 C 10.480469 10.289062 10.484375 10.316406 10.488281 10.347656 C 10.488281 10.347656 10.488281 10.347656 10.488281 10.351562 C 10.492188 10.519531 10.59375 10.671875 10.746094 10.742188 L 10.75 10.746094 C 10.753906 10.746094 10.753906 10.746094 10.753906 10.746094 C 10.757812 10.746094 10.757812 10.746094 10.757812 10.75 C 10.761719 10.75 10.761719 10.75 10.761719 10.75 C 10.921875 10.820312 11.097656 10.863281 11.28125 10.902344 C 11.308594 10.90625 11.335938 10.925781 11.347656 10.957031 C 11.351562 10.964844 11.351562 10.972656 11.359375 10.980469 C 11.371094 11.011719 11.367188 11.042969 11.351562 11.070312 C 11.25 11.226562 11.152344 11.375 11.089844 11.539062 L 11.089844 11.542969 C 11.089844 11.546875 11.089844 11.546875 11.089844 11.546875 C 11.085938 11.550781 11.085938 11.554688 11.085938 11.558594 C 11.027344 11.714844 11.058594 11.894531 11.175781 12.019531 L 11.179688 12.019531 C 11.199219 12.042969 11.21875 12.066406 11.242188 12.089844 L 11.246094 12.089844 L 11.246094 12.09375 C 11.257812 12.105469 11.269531 12.117188 11.285156 12.132812 C 11.285156 12.136719 11.289062 12.136719 11.289062 12.136719 C 11.304688 12.148438 11.3125 12.164062 11.328125 12.175781 L 11.332031 12.175781 L 11.332031 12.179688 C 11.359375 12.203125 11.378906 12.222656 11.402344 12.242188 C 11.402344 12.242188 11.40625 12.242188 11.40625 12.246094 C 11.40625 12.246094 11.40625 12.246094 11.410156 12.246094 C 11.527344 12.359375 11.703125 12.390625 11.855469 12.335938 C 11.855469 12.335938 11.859375 12.335938 11.859375 12.335938 C 11.863281 12.335938 11.867188 12.335938 11.871094 12.332031 C 11.875 12.332031 11.875 12.332031 11.878906 12.332031 C 12.042969 12.269531 12.195312 12.175781 12.351562 12.070312 C 12.378906 12.054688 12.410156 12.050781 12.441406 12.0625 C 12.449219 12.066406 12.453125 12.070312 12.464844 12.074219 C 12.492188 12.085938 12.511719 12.109375 12.519531 12.140625 C 12.558594 12.320312 12.597656 12.496094 12.671875 12.65625 C 12.671875 12.65625 12.671875 12.65625 12.671875 12.660156 C 12.671875 12.660156 12.671875 12.660156 12.671875 12.664062 L 12.675781 12.664062 C 12.675781 12.667969 12.675781 12.667969 12.675781 12.667969 C 12.675781 12.671875 12.675781 12.671875 12.675781 12.671875 C 12.679688 12.671875 12.679688 12.675781 12.679688 12.675781 C 12.75 12.828125 12.902344 12.929688 13.070312 12.933594 C 13.070312 12.933594 13.070312 12.933594 13.074219 12.933594 C 13.101562 12.933594 13.132812 12.9375 13.164062 12.9375 L 13.167969 12.9375 C 13.167969 12.9375 13.167969 12.9375 13.171875 12.9375 C 13.191406 12.9375 13.210938 12.9375 13.230469 12.9375 C 13.25 12.9375 13.269531 12.9375 13.289062 12.9375 L 13.292969 12.9375 C 13.328125 12.9375 13.355469 12.9375 13.382812 12.933594 C 13.382812 12.933594 13.382812 12.933594 13.386719 12.933594 C 13.554688 12.929688 13.703125 12.828125 13.773438 12.679688 C 13.773438 12.675781 13.777344 12.675781 13.777344 12.671875 L 13.78125 12.671875 C 13.78125 12.671875 13.78125 12.667969 13.78125 12.667969 C 13.78125 12.667969 13.78125 12.664062 13.78125 12.660156 C 13.785156 12.660156 13.785156 12.660156 13.785156 12.660156 C 13.785156 12.65625 13.785156 12.65625 13.785156 12.65625 C 13.859375 12.496094 13.898438 12.324219 13.9375 12.140625 C 13.941406 12.109375 13.964844 12.085938 13.992188 12.074219 C 14 12.070312 14.011719 12.066406 14.019531 12.0625 C 14.046875 12.046875 14.078125 12.050781 14.105469 12.070312 C 14.261719 12.171875 14.410156 12.269531 14.574219 12.328125 C 14.578125 12.328125 14.578125 12.328125 14.578125 12.332031 C 14.578125 12.332031 14.582031 12.332031 14.582031 12.332031 C 14.585938 12.332031 14.589844 12.332031 14.59375 12.335938 C 14.75 12.394531 14.929688 12.359375 15.054688 12.242188 L 15.054688 12.238281 C 15.078125 12.21875 15.101562 12.199219 15.125 12.179688 L 15.125 12.175781 L 15.128906 12.175781 C 15.140625 12.164062 15.152344 12.148438 15.167969 12.132812 L 15.207031 12.097656 C 15.210938 12.089844 15.214844 12.089844 15.210938 12.089844 C 15.210938 12.089844 15.210938 12.089844 15.214844 12.089844 L 15.214844 12.085938 C 15.238281 12.0625 15.257812 12.039062 15.277344 12.019531 C 15.277344 12.015625 15.277344 12.015625 15.28125 12.015625 C 15.394531 11.890625 15.429688 11.710938 15.371094 11.554688 C 15.371094 11.550781 15.371094 11.546875 15.367188 11.546875 C 15.367188 11.542969 15.367188 11.542969 15.367188 11.542969 C 15.304688 11.375 15.207031 11.222656 15.105469 11.066406 C 15.089844 11.042969 15.085938 11.007812 15.097656 10.980469 C 15.101562 10.972656 15.105469 10.964844 15.109375 10.957031 C 15.121094 10.925781 15.144531 10.90625 15.175781 10.902344 C 15.359375 10.863281 15.53125 10.824219 15.691406 10.75 L 15.695312 10.75 L 15.695312 10.746094 C 15.699219 10.746094 15.699219 10.746094 15.699219 10.746094 C 15.703125 10.746094 15.699219 10.746094 15.703125 10.746094 C 15.703125 10.746094 15.707031 10.742188 15.707031 10.742188 C 15.863281 10.675781 15.964844 10.519531 15.96875 10.351562 L 15.96875 10.347656 C 15.972656 10.316406 15.972656 10.285156 15.972656 10.253906 L 15.972656 10.25 C 15.972656 10.230469 15.972656 10.210938 15.972656 10.191406 C 15.972656 10.171875 15.972656 10.152344 15.972656 10.128906 C 15.972656 10.09375 15.972656 10.066406 15.96875 10.035156 C 15.96875 10.035156 15.96875 10.035156 15.96875 10.03125 C 15.964844 9.863281 15.863281 9.710938 15.707031 9.640625 C 15.707031 9.640625 15.699219 9.65625 15.695312 9.660156 L 15.703125 9.640625 L 15.707031 9.640625 L 15.707031 9.636719 C 15.703125 9.636719 15.703125 9.636719 15.699219 9.636719 C 15.699219 9.636719 15.699219 9.636719 15.695312 9.632812 L 15.691406 9.632812 C 15.53125 9.5625 15.359375 9.519531 15.175781 9.480469 C 15.144531 9.476562 15.121094 9.457031 15.109375 9.425781 C 15.105469 9.417969 15.101562 9.410156 15.097656 9.402344 C 15.085938 9.375 15.089844 9.339844 15.105469 9.316406 C 15.210938 9.160156 15.308594 9.007812 15.367188 8.839844 C 15.367188 8.839844 15.367188 8.839844 15.367188 8.835938 C 15.371094 8.835938 15.371094 8.832031 15.371094 8.828125 C 15.429688 8.671875 15.394531 8.492188 15.28125 8.371094 L 15.28125 8.367188 C 15.277344 8.367188 15.277344 8.367188 15.277344 8.363281 C 15.257812 8.34375 15.238281 8.320312 15.214844 8.296875 L 15.210938 8.296875 C 15.210938 8.296875 15.210938 8.292969 15.210938 8.292969 C 15.210938 8.292969 15.207031 8.289062 15.203125 8.285156 L 15.164062 8.25 C 15.148438 8.234375 15.140625 8.226562 15.128906 8.214844 L 15.128906 8.210938 C 15.128906 8.210938 15.128906 8.210938 15.125 8.210938 C 15.125 8.210938 15.125 8.210938 15.125 8.207031 C 15.125 8.207031 15.121094 8.207031 15.121094 8.207031 C 15.097656 8.1875 15.078125 8.164062 15.054688 8.144531 C 15.054688 8.144531 15.054688 8.144531 15.054688 8.140625 C 14.929688 8.023438 14.75 7.992188 14.589844 8.050781 C 14.585938 8.050781 14.582031 8.054688 14.578125 8.054688 C 14.578125 8.054688 14.574219 8.054688 14.574219 8.054688 C 14.410156 8.117188 14.257812 8.214844 14.105469 8.316406 C 14.078125 8.332031 14.046875 8.335938 14.015625 8.324219 C 14.007812 8.320312 14 8.316406 13.992188 8.3125 C 13.960938 8.300781 13.941406 8.273438 13.933594 8.242188 C 13.898438 8.0625 13.859375 7.890625 13.785156 7.730469 C 13.785156 7.726562 13.785156 7.726562 13.785156 7.726562 C 13.785156 7.726562 13.785156 7.726562 13.78125 7.722656 C 13.78125 7.71875 13.78125 7.71875 13.78125 7.714844 C 13.777344 7.710938 13.777344 7.710938 13.777344 7.710938 C 13.777344 7.707031 13.773438 7.707031 13.773438 7.703125 C 13.699219 7.554688 13.550781 7.453125 13.386719 7.449219 C 13.386719 7.449219 13.386719 7.449219 13.382812 7.449219 C 13.355469 7.449219 13.324219 7.445312 13.292969 7.445312 C 13.273438 7.445312 13.25 7.445312 13.230469 7.445312 L 13.226562 7.445312 C 13.207031 7.445312 13.1875 7.445312 13.167969 7.445312 C 13.167969 7.445312 13.164062 7.445312 13.164062 7.445312 Z M 13.171875 7.449219 L 13.179688 7.449219 L 13.183594 7.453125 C 13.179688 7.449219 13.175781 7.449219 13.171875 7.449219 Z M 13.167969 7.898438 L 13.171875 7.898438 C 13.191406 7.898438 13.207031 7.898438 13.222656 7.898438 C 13.226562 7.898438 13.230469 7.898438 13.234375 7.898438 C 13.25 7.898438 13.265625 7.898438 13.28125 7.898438 C 13.285156 7.898438 13.285156 7.898438 13.289062 7.898438 C 13.308594 7.898438 13.328125 7.902344 13.355469 7.902344 C 13.359375 7.902344 13.363281 7.902344 13.367188 7.902344 C 13.371094 7.90625 13.371094 7.914062 13.375 7.917969 C 13.421875 8.019531 13.457031 8.15625 13.492188 8.335938 C 13.527344 8.511719 13.652344 8.660156 13.820312 8.730469 C 13.820312 8.730469 13.832031 8.734375 13.839844 8.738281 C 14.007812 8.808594 14.203125 8.792969 14.355469 8.691406 C 14.503906 8.59375 14.628906 8.515625 14.730469 8.480469 C 14.730469 8.480469 14.734375 8.476562 14.734375 8.476562 C 14.738281 8.476562 14.742188 8.476562 14.746094 8.472656 C 14.75 8.476562 14.75 8.476562 14.753906 8.480469 C 14.773438 8.496094 14.789062 8.511719 14.804688 8.523438 C 14.804688 8.527344 14.804688 8.527344 14.808594 8.527344 L 14.808594 8.53125 L 14.8125 8.53125 C 14.820312 8.539062 14.832031 8.554688 14.84375 8.566406 C 14.847656 8.570312 14.851562 8.574219 14.855469 8.578125 C 14.859375 8.582031 14.859375 8.582031 14.863281 8.585938 C 14.863281 8.585938 14.863281 8.585938 14.867188 8.589844 C 14.875 8.597656 14.882812 8.605469 14.890625 8.609375 C 14.890625 8.613281 14.890625 8.613281 14.894531 8.613281 C 14.898438 8.617188 14.902344 8.617188 14.90625 8.617188 L 14.898438 8.617188 C 14.90625 8.628906 14.917969 8.644531 14.941406 8.667969 C 14.941406 8.671875 14.945312 8.671875 14.949219 8.675781 C 14.945312 8.675781 14.945312 8.679688 14.945312 8.683594 C 14.945312 8.683594 14.941406 8.6875 14.941406 8.6875 C 14.902344 8.792969 14.828125 8.917969 14.730469 9.070312 C 14.628906 9.222656 14.613281 9.414062 14.683594 9.578125 C 14.683594 9.585938 14.6875 9.589844 14.6875 9.597656 C 14.757812 9.765625 14.90625 9.890625 15.085938 9.925781 C 15.261719 9.960938 15.402344 9.996094 15.503906 10.042969 L 15.503906 10.046875 L 15.507812 10.046875 C 15.507812 10.046875 15.511719 10.046875 15.511719 10.046875 C 15.511719 10.046875 15.511719 10.046875 15.515625 10.046875 C 15.515625 10.050781 15.515625 10.050781 15.519531 10.050781 C 15.519531 10.054688 15.519531 10.058594 15.519531 10.0625 C 15.519531 10.089844 15.523438 10.113281 15.523438 10.132812 C 15.523438 10.132812 15.523438 10.132812 15.523438 10.136719 C 15.523438 10.15625 15.523438 10.171875 15.523438 10.191406 C 15.523438 10.191406 15.523438 10.191406 15.523438 10.195312 C 15.523438 10.214844 15.523438 10.230469 15.523438 10.246094 C 15.523438 10.25 15.523438 10.25 15.523438 10.25 C 15.523438 10.25 15.523438 10.253906 15.523438 10.253906 C 15.523438 10.273438 15.519531 10.296875 15.519531 10.324219 C 15.519531 10.328125 15.519531 10.332031 15.519531 10.335938 C 15.515625 10.335938 15.515625 10.335938 15.515625 10.335938 C 15.511719 10.335938 15.511719 10.335938 15.511719 10.335938 C 15.511719 10.335938 15.507812 10.339844 15.507812 10.339844 L 15.503906 10.339844 C 15.398438 10.386719 15.261719 10.421875 15.085938 10.460938 C 14.90625 10.496094 14.757812 10.621094 14.6875 10.789062 C 14.6875 10.792969 14.683594 10.800781 14.683594 10.804688 C 14.613281 10.972656 14.628906 11.164062 14.730469 11.316406 C 14.828125 11.46875 14.902344 11.59375 14.941406 11.699219 C 14.941406 11.699219 14.941406 11.699219 14.945312 11.699219 C 14.945312 11.703125 14.945312 11.703125 14.945312 11.703125 L 14.945312 11.707031 C 14.945312 11.707031 14.945312 11.707031 14.949219 11.710938 C 14.945312 11.710938 14.941406 11.714844 14.941406 11.71875 C 14.917969 11.746094 14.910156 11.757812 14.898438 11.765625 L 14.90625 11.765625 C 14.902344 11.765625 14.898438 11.765625 14.894531 11.769531 C 14.890625 11.773438 14.890625 11.773438 14.890625 11.773438 C 14.882812 11.78125 14.875 11.789062 14.863281 11.800781 C 14.867188 11.796875 14.867188 11.796875 14.863281 11.800781 C 14.859375 11.804688 14.859375 11.804688 14.855469 11.808594 C 14.851562 11.8125 14.851562 11.8125 14.847656 11.816406 C 14.832031 11.832031 14.820312 11.84375 14.8125 11.851562 L 14.808594 11.855469 C 14.808594 11.855469 14.808594 11.855469 14.808594 11.859375 C 14.808594 11.859375 14.804688 11.859375 14.804688 11.859375 C 14.789062 11.875 14.773438 11.890625 14.753906 11.90625 C 14.753906 11.910156 14.75 11.910156 14.746094 11.910156 C 14.742188 11.910156 14.738281 11.910156 14.734375 11.90625 C 14.734375 11.90625 14.730469 11.90625 14.730469 11.90625 C 14.628906 11.867188 14.503906 11.792969 14.355469 11.695312 C 14.203125 11.59375 14.007812 11.574219 13.839844 11.648438 C 13.828125 11.652344 13.820312 11.65625 13.820312 11.65625 C 13.652344 11.722656 13.527344 11.875 13.492188 12.050781 C 13.457031 12.226562 13.421875 12.367188 13.375 12.46875 C 13.375 12.472656 13.371094 12.476562 13.367188 12.484375 C 13.363281 12.484375 13.359375 12.484375 13.355469 12.484375 C 13.328125 12.484375 13.308594 12.484375 13.289062 12.488281 C 13.289062 12.488281 13.285156 12.488281 13.28125 12.488281 C 13.265625 12.488281 13.25 12.488281 13.234375 12.488281 C 13.230469 12.488281 13.226562 12.488281 13.222656 12.488281 C 13.207031 12.488281 13.191406 12.488281 13.171875 12.488281 L 13.167969 12.488281 C 13.148438 12.484375 13.125 12.484375 13.097656 12.484375 C 13.09375 12.484375 13.089844 12.484375 13.085938 12.484375 C 13.085938 12.480469 13.082031 12.480469 13.082031 12.480469 C 13.082031 12.476562 13.082031 12.476562 13.082031 12.476562 C 13.082031 12.472656 13.082031 12.472656 13.082031 12.472656 C 13.082031 12.46875 13.078125 12.46875 13.078125 12.46875 C 13.03125 12.367188 12.996094 12.226562 12.960938 12.050781 C 12.925781 11.875 12.804688 11.730469 12.640625 11.660156 C 12.640625 11.660156 12.640625 11.660156 12.636719 11.65625 C 12.636719 11.65625 12.636719 11.65625 12.632812 11.65625 C 12.628906 11.652344 12.625 11.648438 12.617188 11.644531 C 12.445312 11.574219 12.253906 11.59375 12.101562 11.695312 C 11.953125 11.792969 11.824219 11.867188 11.71875 11.90625 C 11.71875 11.910156 11.714844 11.910156 11.710938 11.914062 C 11.707031 11.910156 11.703125 11.90625 11.699219 11.90625 L 11.699219 11.902344 C 11.675781 11.878906 11.660156 11.871094 11.652344 11.859375 C 11.652344 11.859375 11.648438 11.859375 11.648438 11.859375 C 11.648438 11.859375 11.648438 11.855469 11.644531 11.855469 C 11.632812 11.839844 11.621094 11.832031 11.609375 11.820312 L 11.605469 11.816406 C 11.601562 11.8125 11.601562 11.8125 11.601562 11.8125 C 11.589844 11.800781 11.578125 11.789062 11.566406 11.777344 C 11.566406 11.777344 11.566406 11.773438 11.5625 11.773438 C 11.5625 11.773438 11.558594 11.769531 11.558594 11.769531 C 11.546875 11.757812 11.53125 11.738281 11.515625 11.71875 C 11.515625 11.71875 11.515625 11.71875 11.511719 11.71875 C 11.511719 11.71875 11.511719 11.714844 11.507812 11.710938 C 11.511719 11.707031 11.511719 11.703125 11.511719 11.695312 C 11.550781 11.59375 11.625 11.46875 11.726562 11.320312 C 11.824219 11.167969 11.84375 10.976562 11.773438 10.808594 C 11.769531 10.796875 11.765625 10.789062 11.765625 10.789062 L 11.761719 10.785156 C 11.695312 10.617188 11.546875 10.496094 11.371094 10.460938 C 11.195312 10.425781 11.054688 10.386719 10.953125 10.339844 L 10.949219 10.339844 C 10.945312 10.339844 10.945312 10.339844 10.945312 10.335938 C 10.941406 10.335938 10.941406 10.335938 10.941406 10.335938 L 10.9375 10.335938 C 10.9375 10.332031 10.9375 10.328125 10.9375 10.324219 C 10.933594 10.292969 10.933594 10.273438 10.933594 10.253906 C 10.933594 10.253906 10.933594 10.25 10.933594 10.25 C 10.933594 10.234375 10.933594 10.214844 10.933594 10.199219 C 10.933594 10.199219 10.933594 10.199219 10.933594 10.195312 L 10.933594 10.191406 C 10.933594 10.191406 10.933594 10.1875 10.933594 10.1875 C 10.933594 10.171875 10.933594 10.15625 10.933594 10.140625 C 10.933594 10.136719 10.933594 10.136719 10.933594 10.136719 L 10.933594 10.132812 C 10.933594 10.113281 10.933594 10.09375 10.9375 10.066406 C 10.9375 10.058594 10.9375 10.054688 10.9375 10.050781 L 10.941406 10.050781 C 10.941406 10.050781 10.941406 10.050781 10.945312 10.050781 C 10.945312 10.050781 10.949219 10.046875 10.949219 10.046875 C 10.949219 10.046875 10.953125 10.046875 10.953125 10.046875 C 11.054688 10 11.195312 9.964844 11.371094 9.925781 C 11.546875 9.890625 11.691406 9.769531 11.761719 9.605469 C 11.761719 9.605469 11.765625 9.601562 11.765625 9.601562 C 11.765625 9.597656 11.769531 9.589844 11.773438 9.582031 C 11.847656 9.414062 11.828125 9.222656 11.726562 9.070312 C 11.628906 8.917969 11.554688 8.792969 11.515625 8.691406 C 11.511719 8.683594 11.511719 8.679688 11.507812 8.675781 C 11.511719 8.671875 11.511719 8.671875 11.515625 8.667969 C 11.535156 8.648438 11.546875 8.632812 11.5625 8.617188 C 11.5625 8.617188 11.566406 8.613281 11.566406 8.609375 C 11.578125 8.597656 11.589844 8.589844 11.601562 8.578125 L 11.605469 8.574219 C 11.605469 8.574219 11.605469 8.570312 11.605469 8.570312 L 11.609375 8.570312 C 11.609375 8.570312 11.609375 8.566406 11.609375 8.566406 L 11.609375 8.570312 C 11.621094 8.558594 11.632812 8.546875 11.644531 8.535156 L 11.648438 8.53125 C 11.648438 8.53125 11.648438 8.53125 11.652344 8.527344 C 11.664062 8.515625 11.675781 8.507812 11.699219 8.484375 L 11.703125 8.484375 C 11.703125 8.480469 11.707031 8.476562 11.710938 8.476562 C 11.714844 8.476562 11.71875 8.480469 11.722656 8.480469 C 11.828125 8.519531 11.953125 8.59375 12.105469 8.695312 C 12.257812 8.796875 12.449219 8.8125 12.617188 8.742188 C 12.625 8.738281 12.628906 8.734375 12.632812 8.730469 C 12.636719 8.730469 12.636719 8.730469 12.640625 8.730469 C 12.640625 8.730469 12.640625 8.726562 12.640625 8.726562 C 12.804688 8.65625 12.925781 8.511719 12.960938 8.339844 C 12.996094 8.160156 13.03125 8.023438 13.078125 7.921875 L 13.082031 7.917969 C 13.082031 7.914062 13.082031 7.914062 13.085938 7.910156 C 13.085938 7.90625 13.085938 7.90625 13.085938 7.90625 C 13.089844 7.90625 13.09375 7.90625 13.097656 7.90625 C 13.125 7.902344 13.148438 7.898438 13.167969 7.898438 Z M 13.226562 9.074219 C 12.613281 9.074219 12.113281 9.578125 12.113281 10.191406 C 12.113281 10.804688 12.613281 11.304688 13.226562 11.304688 C 13.839844 11.304688 14.339844 10.804688 14.339844 10.191406 C 14.339844 9.578125 13.84375 9.074219 13.226562 9.074219 Z M 13.214844 9.527344 C 13.214844 9.527344 13.21875 9.527344 13.21875 9.527344 C 13.222656 9.527344 13.222656 9.527344 13.226562 9.527344 C 13.59375 9.527344 13.890625 9.824219 13.890625 10.191406 C 13.890625 10.558594 13.59375 10.855469 13.226562 10.855469 C 12.859375 10.855469 12.5625 10.558594 12.5625 10.191406 C 12.5625 9.828125 12.851562 9.535156 13.214844 9.527344 Z M 10.492188 10.113281 C 10.488281 10.117188 10.484375 10.121094 10.484375 10.125 L 10.484375 10.121094 Z M 10.492188 10.234375 C 10.488281 10.238281 10.484375 10.242188 10.484375 10.246094 L 10.484375 10.242188 Z M 17.640625 11.945312 C 17.644531 11.945312 17.644531 11.945312 17.644531 11.945312 C 17.644531 11.945312 17.644531 11.945312 17.640625 11.945312 Z M 13.179688 12.929688 L 13.175781 12.933594 L 13.167969 12.933594 C 13.171875 12.933594 13.175781 12.933594 13.179688 12.929688 Z M 1.277344 19.796875 L 1.816406 19.796875 C 1.886719 19.796875 1.960938 19.835938 2.003906 19.894531 C 2.113281 20.054688 2.292969 20.164062 2.507812 20.164062 L 3.359375 20.164062 C 3.570312 20.164062 3.753906 20.054688 3.863281 19.894531 C 3.902344 19.835938 3.976562 19.796875 4.050781 19.796875 L 4.585938 19.796875 C 4.796875 19.796875 4.949219 19.957031 4.949219 20.167969 L 4.949219 26.621094 C 4.949219 26.832031 4.796875 26.984375 4.585938 26.984375 L 1.277344 26.984375 C 1.066406 26.984375 0.910156 26.832031 0.910156 26.621094 L 0.910156 20.164062 C 0.910156 19.957031 1.066406 19.796875 1.277344 19.796875 Z M 20.316406 20.148438 L 28.023438 20.148438 C 28.09375 20.148438 28.136719 20.191406 28.136719 20.265625 L 28.136719 24.828125 L 20.199219 24.828125 L 20.199219 20.265625 C 20.199219 20.195312 20.246094 20.148438 20.316406 20.148438 Z M 8.148438 20.1875 L 17.164062 20.1875 L 17.164062 24.757812 L 8.148438 24.757812 Z M 8.148438 25.183594 L 17.164062 25.183594 L 17.164062 25.863281 L 8.148438 25.863281 Z M 20.132812 25.234375 L 28.203125 25.234375 C 28.210938 25.234375 28.21875 25.238281 28.222656 25.246094 L 29.097656 27.25 C 29.105469 27.261719 29.09375 27.277344 29.082031 27.277344 L 19.253906 27.277344 C 19.242188 27.277344 19.230469 27.261719 19.238281 27.25 L 20.113281 25.246094 C 20.117188 25.238281 20.125 25.234375 20.132812 25.234375 Z M 23.261719 25.789062 C 23.109375 25.789062 22.960938 25.894531 22.910156 26.039062 L 22.75 26.492188 C 22.710938 26.605469 22.730469 26.734375 22.796875 26.832031 C 22.867188 26.929688 22.984375 26.992188 23.105469 26.992188 L 25.230469 26.992188 C 25.351562 26.992188 25.46875 26.929688 25.539062 26.832031 C 25.605469 26.734375 25.625 26.605469 25.585938 26.492188 L 25.425781 26.039062 C 25.375 25.894531 25.226562 25.789062 25.074219 25.789062 Z M 23.285156 26.195312 L 25.050781 26.195312 L 25.1875 26.585938 L 23.148438 26.585938 Z M 11.964844 26.289062 L 13.347656 26.289062 C 13.363281 26.425781 13.378906 26.5625 13.394531 26.699219 C 13.414062 26.875 13.441406 27.078125 13.523438 27.277344 L 11.789062 27.277344 C 11.871094 27.078125 11.898438 26.875 11.917969 26.699219 C 11.933594 26.5625 11.949219 26.425781 11.964844 26.289062 Z M 11.964844 26.289062 " fill-opacity="1" fill-rule="nonzero"/></g></svg>