<svg xmlns="http://www.w3.org/2000/svg" width="40" height="40" version="1.0" viewBox="0 0 30 30"><defs><clipPath id="a"><path d="M.484 0h29.032v29.031H.484Zm0 0"/></clipPath></defs><g clip-path="url(#a)"><path fill="#061c3d" d="M28.164 8.39a4.97 4.97 0 0 0 1.352-3.406A4.987 4.987 0 0 0 24.536 0c-1.321 0-2.52.516-3.411 1.352A14.4 14.4 0 0 0 15 0c-1.145 0-2.285.133-3.39.398A1.26 1.26 0 0 0 10.683 0H1.762A1.28 1.28 0 0 0 .484 1.277v5.578a1.28 1.28 0 0 0 1.278 1.278h.199a14.5 14.5 0 0 0-1.477 6.383c0 1.953.38 3.84 1.13 5.62L.77 20.5a.46.46 0 0 0-.286.43v3.18c0 1.167.418 2.308 1.18 3.21a5 5 0 0 0 2.957 1.703q.036.01.078.008.042.002.082-.008a5 5 0 0 0 3.086-1.863A14.5 14.5 0 0 0 15 29.031c2.148 0 4.215-.457 6.14-1.36l.34.337a.47.47 0 0 0 .52.097l.512-.226c.254.137.523.246.797.332l.203.52c.07.183.242.3.437.3h1.215a.465.465 0 0 0 .438-.3l.199-.52c.277-.086.547-.195.8-.332l.512.226c.176.079.383.04.52-.097l.86-.86a.47.47 0 0 0 .097-.52l-.227-.51q.204-.384.332-.802l.52-.199c.183-.07.3-.242.3-.437v-1.215a.465.465 0 0 0-.3-.438l-.52-.199a4.5 4.5 0 0 0-.332-.8l.227-.512a.47.47 0 0 0-.098-.52l-.336-.34a14.35 14.35 0 0 0 1.36-6.14 14.6 14.6 0 0 0-1.352-6.125m-6.781-5.94q.241.126.512.23a5.7 5.7 0 0 0-.457 1.836h-.922c.09-.778.398-1.489.867-2.067m7.168 3a4 4 0 0 1-.867 2.066 5 5 0 0 0-.512-.23 6 6 0 0 0 .457-1.837Zm-2.285 1.558a7.7 7.7 0 0 0-1.262-.172V5.449h1.683a4.8 4.8 0 0 1-.421 1.559m-2.2-4.82a7 7 0 0 1-.757-.086q.328-.44.757-.797Zm0 .94v1.388H22.38c.05-.547.195-1.075.422-1.559.398.09.824.148 1.265.172m0 2.321v1.387a7.7 7.7 0 0 0-1.265.172 4.9 4.9 0 0 1-.422-1.559Zm0 2.328v.883a4.7 4.7 0 0 1-.753-.797 7 7 0 0 1 .753-.086m.938.883v-.883q.383.023.754.086a5 5 0 0 1-.754.797m0-4.144V3.129a8 8 0 0 0 1.266-.172c.222.484.367 1.012.418 1.559Zm0-2.328v-.883c.281.238.535.504.754.797q-.371.063-.754.086m1.39-.797q.3.158.57.359a4 4 0 0 1-.241.098 6 6 0 0 0-.328-.457m-4.05.457q-.124-.047-.242-.098.269-.2.574-.36-.18.224-.332.458m-.903 3.601c.051.645.207 1.262.457 1.836q-.27.104-.515.23a4 4 0 0 1-.867-2.066Zm.903 2.668q.157.234.332.457a4.6 4.6 0 0 1-.574-.36q.118-.05.242-.097m4.379 0q.124.046.242.098-.27.2-.574.36.177-.225.332-.458m1.828-3.601h-.922a5.7 5.7 0 0 0-.457-1.836q.27-.104.512-.23c.468.577.777 1.288.867 2.066M1.42 6.856V1.276a.34.34 0 0 1 .34-.34h8.923a.34.34 0 0 1 .343.34v5.578a.344.344 0 0 1-.343.344H1.762a.343.343 0 0 1-.34-.344m7.692 2.566c.13 0 .211.062.223.09v.078H3.109v-.078c.016-.028.094-.09.223-.09Zm-4.078-.938v-.351h2.38v.351Zm-.937-.351v.351h-.766a1.3 1.3 0 0 0-.566.133q.117-.245.246-.484Zm.601 19.953c-1.875-.367-3.277-2.063-3.277-3.977v-2.87l3.277-1.407 3.281 1.406v2.871c0 1.914-1.406 3.61-3.28 3.977m3.668-1.719c.36-.695.547-1.469.547-2.258v-3.18c0-.187-.11-.359-.281-.429l-3.75-1.61a.46.46 0 0 0-.367 0l-2.043.876c-.7-1.66-1.051-3.426-1.051-5.25 0-1.524.254-3.036.754-4.465v.008c0 .257.207.468.465.468h7.164c.261 0 .468-.21.468-.468v-.555c0-.563-.52-1.02-1.16-1.02h-.765v-.351h2.336c.707 0 1.28-.574 1.28-1.278V1.277A13.6 13.6 0 0 1 15 .937c1.914 0 3.754.387 5.48 1.153a4.97 4.97 0 0 0-.93 2.894 4.987 4.987 0 0 0 4.985 4.98 4.94 4.94 0 0 0 2.89-.929 13.6 13.6 0 0 1 1.153 5.48c0 1.922-.39 3.766-1.16 5.5a.46.46 0 0 0-.305.024l-.511.227a4.6 4.6 0 0 0-.801-.332l-.2-.52a.465.465 0 0 0-.437-.3H23.95a.465.465 0 0 0-.437.3l-.203.52a4.6 4.6 0 0 0-.797.332L22 20.039a.47.47 0 0 0-.52.098l-.863.86a.47.47 0 0 0-.094.519l.227.511c-.137.254-.25.524-.332.801l-.523.2a.47.47 0 0 0-.297.437v1.215c0 .195.117.367.297.437l.523.2q.125.417.332.8l-.227.512a.47.47 0 0 0-.027.308A13.5 13.5 0 0 1 15 28.098a13.55 13.55 0 0 1-6.633-1.73m20.211-2.582v.574l-.441.172a.46.46 0 0 0-.29.328c-.081.348-.218.68-.41.985a.47.47 0 0 0-.027.433l.195.438-.406.406-.437-.195a.46.46 0 0 0-.434.031 3.3 3.3 0 0 1-.984.406.48.48 0 0 0-.332.29l-.168.44h-.574l-.172-.44a.46.46 0 0 0-.328-.29 3.3 3.3 0 0 1-.985-.406.47.47 0 0 0-.437-.031l-.434.195-.406-.406.195-.434a.47.47 0 0 0-.031-.437 3.3 3.3 0 0 1-.406-.985.47.47 0 0 0-.29-.328l-.445-.172v-.574l.446-.172a.47.47 0 0 0 .289-.328 3.3 3.3 0 0 1 .406-.984.46.46 0 0 0 .031-.434l-.195-.437.406-.407.434.196a.47.47 0 0 0 .437-.032 3.3 3.3 0 0 1 .985-.406.46.46 0 0 0 .328-.289l.172-.441h.574l.168.441c.058.145.18.254.332.29.347.081.68.218.984.406a.46.46 0 0 0 .434.03l.437-.195.406.407-.195.433a.47.47 0 0 0 .031.438c.188.304.325.637.407.984a.46.46 0 0 0 .289.328Zm-4.023-2.625a2.913 2.913 0 0 0 0 5.824 2.913 2.913 0 1 0 0-5.824m0 4.887a1.98 1.98 0 0 1-1.977-1.973c0-1.09.887-1.976 1.977-1.976s1.976.886 1.976 1.976a1.98 1.98 0 0 1-1.976 1.973M9.746 1.497H2.703a.56.56 0 0 0-.558.558v4.047c0 .261.21.468.468.468h7.219a.465.465 0 0 0 .469-.468V2.055a.56.56 0 0 0-.555-.559m-.379 4.14H3.082V2.434h6.285ZM6.984 22.55a.465.465 0 0 1-.03.66l-2.27 2.059a.47.47 0 0 1-.645-.016l-.934-.934a.47.47 0 0 1 0-.664c.184-.18.48-.18.66 0l.622.621 1.937-1.757a.465.465 0 0 1 .66.03m11.387-9.703h-.148v-1.102A3.226 3.226 0 0 0 15 8.523a3.226 3.226 0 0 0-3.223 3.223v1.102h-.148a.97.97 0 0 0-.973.972v5.36c0 .535.434.972.973.972h6.742c.54 0 .973-.437.973-.972v-5.36a.97.97 0 0 0-.973-.972m-5.656-1.102a2.286 2.286 0 0 1 4.57 0v1.102h-.324v-1.102a1.962 1.962 0 0 0-3.922 0v1.102h-.324Zm1.262 1.102v-1.102c0-.566.457-1.023 1.023-1.023s1.023.457 1.023 1.023v1.102Zm4.43 6.332c0 .02-.016.035-.036.035H11.63a.035.035 0 0 1-.035-.035v-5.36c0-.02.015-.035.035-.035h6.742c.02 0 .035.016.035.035ZM15 14.195c-.871 0-1.582.707-1.582 1.582 0 .461.191.887.527 1.184v.789a1.055 1.055 0 0 0 2.11 0v-.79c.336-.296.527-.722.527-1.183 0-.875-.71-1.582-1.582-1.582m.34 2.133a.46.46 0 0 0-.223.399v1.023a.12.12 0 0 1-.117.117.12.12 0 0 1-.117-.117v-1.023a.46.46 0 0 0-.223-.399.65.65 0 0 1-.308-.55c0-.356.293-.65.648-.65s.648.294.648.65c0 .226-.117.429-.308.55m0 0"/></g></svg>