<svg xmlns="http://www.w3.org/2000/svg" xmlns:xlink="http://www.w3.org/1999/xlink" width="40" zoomAndPan="magnify" viewBox="0 0 30 30.000001" height="40" preserveAspectRatio="xMidYMid meet" version="1.0"><defs><clipPath id="2d31ee330b"><path d="M 0.484375 3 L 29.515625 3 L 29.515625 24 L 0.484375 24 Z M 0.484375 3 " clip-rule="nonzero"/></clipPath></defs><g clip-path="url(#2d31ee330b)"><path fill="#061c3d" d="M 28.761719 3.46875 L 24.558594 3.46875 C 24.984375 3.925781 25.015625 4.65625 24.621094 5.144531 L 24.589844 5.207031 L 27.726562 5.207031 L 27.726562 19.878906 L 2.273438 19.878906 L 2.273438 5.207031 L 7.90625 5.207031 L 7.695312 4.628906 C 7.570312 4.230469 7.632812 3.804688 7.875 3.46875 L 1.238281 3.46875 C 0.84375 3.46875 0.539062 3.773438 0.539062 4.171875 L 0.539062 22.832031 C 0.539062 23.226562 0.84375 23.53125 1.238281 23.53125 L 28.761719 23.53125 C 29.15625 23.53125 29.460938 23.226562 29.460938 22.832031 L 29.460938 4.171875 C 29.460938 3.773438 29.15625 3.46875 28.761719 3.46875 Z M 15 22.589844 C 14.511719 22.589844 14.117188 22.191406 14.117188 21.707031 C 14.117188 21.21875 14.511719 20.824219 15 20.824219 C 15.488281 20.824219 15.882812 21.21875 15.882812 21.707031 C 15.882812 22.160156 15.488281 22.589844 15 22.589844 Z M 15 22.589844 " fill-opacity="1" fill-rule="nonzero"/></g><path fill="#061c3d" d="M 20.996094 27.792969 L 20.996094 28.464844 C 20.996094 28.617188 20.875 28.738281 20.722656 28.738281 L 9.277344 28.738281 C 9.125 28.738281 9.003906 28.617188 9.003906 28.464844 L 9.003906 27.792969 C 9.003906 27.640625 9.125 27.519531 9.277344 27.519531 L 11.316406 27.519531 L 11.863281 24.445312 L 18.164062 24.445312 L 18.714844 27.519531 L 20.753906 27.519531 C 20.875 27.519531 20.996094 27.640625 20.996094 27.792969 Z M 20.996094 27.792969 " fill-opacity="1" fill-rule="nonzero"/><path fill="#061c3d" d="M 24.589844 6.421875 L 23.859375 6.332031 C 23.585938 6.300781 23.339844 6.117188 23.21875 5.84375 C 23.128906 5.570312 23.160156 5.296875 23.3125 5.054688 L 23.765625 4.476562 C 23.828125 4.382812 23.828125 4.261719 23.738281 4.171875 L 22.976562 3.410156 C 22.882812 3.316406 22.761719 3.316406 22.671875 3.378906 L 22.09375 3.835938 C 21.878906 4.019531 21.574219 4.046875 21.300781 3.925781 C 21.027344 3.835938 20.84375 3.59375 20.816406 3.316406 L 20.785156 2.617188 C 20.785156 2.496094 20.664062 2.40625 20.570312 2.40625 L 19.476562 2.40625 C 19.351562 2.40625 19.261719 2.496094 19.261719 2.617188 L 19.171875 3.347656 C 19.140625 3.621094 18.957031 3.867188 18.683594 3.957031 C 18.410156 4.078125 18.136719 4.046875 17.890625 3.867188 L 17.3125 3.410156 C 17.222656 3.347656 17.101562 3.347656 17.007812 3.441406 L 16.25 4.199219 C 16.15625 4.292969 16.15625 4.414062 16.21875 4.503906 L 16.675781 5.082031 C 16.855469 5.296875 16.886719 5.601562 16.765625 5.875 C 16.644531 6.148438 16.429688 6.332031 16.125 6.363281 L 15.394531 6.453125 C 15.273438 6.453125 15.183594 6.574219 15.183594 6.667969 L 15.183594 7.761719 C 15.183594 7.882812 15.273438 7.976562 15.394531 7.976562 L 16.125 8.066406 C 16.398438 8.097656 16.644531 8.28125 16.765625 8.554688 C 16.886719 8.828125 16.828125 9.101562 16.675781 9.347656 L 16.21875 9.894531 C 16.15625 9.984375 16.15625 10.105469 16.25 10.199219 L 17.007812 10.960938 C 17.101562 11.050781 17.222656 11.050781 17.3125 10.988281 L 17.890625 10.53125 C 18.105469 10.351562 18.410156 10.320312 18.683594 10.441406 C 18.957031 10.53125 19.140625 10.777344 19.171875 11.082031 L 19.261719 11.8125 C 19.261719 11.933594 19.382812 12.023438 19.476562 12.023438 L 20.570312 12.023438 C 20.691406 12.023438 20.785156 11.933594 20.785156 11.8125 L 20.875 11.082031 C 20.90625 10.808594 21.089844 10.5625 21.363281 10.441406 C 21.636719 10.320312 21.910156 10.351562 22.152344 10.53125 L 22.730469 10.988281 C 22.824219 11.050781 22.945312 11.050781 23.035156 10.960938 L 23.796875 10.199219 C 23.890625 10.105469 23.890625 9.984375 23.828125 9.894531 L 23.371094 9.316406 C 23.1875 9.101562 23.160156 8.796875 23.28125 8.523438 C 23.402344 8.25 23.613281 8.066406 23.917969 8.035156 L 24.648438 7.945312 C 24.773438 7.914062 24.863281 7.824219 24.863281 7.730469 L 24.863281 6.636719 C 24.800781 6.515625 24.710938 6.421875 24.589844 6.421875 Z M 19.992188 9.285156 C 18.835938 9.285156 17.890625 8.339844 17.890625 7.183594 C 17.890625 6.027344 18.835938 5.082031 19.992188 5.082031 C 21.148438 5.082031 22.09375 6.027344 22.09375 7.183594 C 22.09375 8.339844 21.148438 9.285156 19.992188 9.285156 Z M 19.992188 9.285156 " fill-opacity="1" fill-rule="nonzero"/><path fill="#061c3d" d="M 19.992188 5.9375 C 19.292969 5.9375 18.746094 6.484375 18.746094 7.183594 C 18.746094 7.882812 19.292969 8.433594 19.992188 8.433594 C 20.691406 8.433594 21.242188 7.882812 21.242188 7.183594 C 21.242188 6.484375 20.691406 5.9375 19.992188 5.9375 Z M 19.992188 5.9375 " fill-opacity="1" fill-rule="nonzero"/><path fill="#061c3d" d="M 16.339844 11.539062 L 15.609375 11.445312 C 15.335938 11.414062 15.089844 11.234375 14.96875 10.960938 C 14.878906 10.683594 14.910156 10.410156 15.0625 10.167969 L 15.515625 9.589844 C 15.578125 9.496094 15.578125 9.375 15.488281 9.285156 L 14.726562 8.523438 C 14.632812 8.433594 14.511719 8.433594 14.421875 8.492188 L 13.84375 8.949219 C 13.628906 9.132812 13.324219 9.164062 13.050781 9.042969 C 12.777344 8.949219 12.59375 8.707031 12.566406 8.433594 L 12.472656 7.703125 C 12.472656 7.582031 12.351562 7.488281 12.261719 7.488281 L 11.164062 7.488281 C 11.042969 7.488281 10.953125 7.582031 10.953125 7.703125 L 10.859375 8.433594 C 10.828125 8.707031 10.648438 8.949219 10.371094 9.042969 C 10.097656 9.164062 9.824219 9.132812 9.582031 8.949219 L 9.003906 8.492188 C 8.910156 8.433594 8.789062 8.433594 8.699219 8.523438 L 8 9.316406 C 7.90625 9.40625 7.90625 9.527344 7.96875 9.621094 L 8.425781 10.199219 C 8.605469 10.410156 8.636719 10.714844 8.515625 10.988281 C 8.394531 11.261719 8.179688 11.445312 7.875 11.476562 L 7.144531 11.566406 C 7.023438 11.566406 6.933594 11.691406 6.933594 11.78125 L 6.933594 12.878906 C 6.933594 13 7.023438 13.089844 7.144531 13.089844 L 7.875 13.179688 C 8.152344 13.210938 8.394531 13.394531 8.515625 13.667969 C 8.636719 13.941406 8.578125 14.214844 8.425781 14.460938 L 8 15.007812 C 7.9375 15.097656 7.9375 15.222656 8.027344 15.3125 L 8.789062 16.074219 C 8.882812 16.164062 9.003906 16.164062 9.09375 16.105469 L 9.671875 15.648438 C 9.886719 15.464844 10.191406 15.433594 10.464844 15.554688 C 10.738281 15.648438 10.921875 15.890625 10.953125 16.195312 L 11.042969 16.925781 C 11.042969 17.046875 11.164062 17.140625 11.253906 17.140625 L 12.351562 17.140625 C 12.472656 17.140625 12.566406 17.046875 12.566406 16.925781 L 12.65625 16.195312 C 12.6875 15.921875 12.867188 15.675781 13.144531 15.554688 C 13.417969 15.433594 13.691406 15.464844 13.933594 15.648438 L 14.511719 16.105469 C 14.605469 16.164062 14.726562 16.164062 14.816406 16.074219 L 15.578125 15.3125 C 15.667969 15.222656 15.667969 15.097656 15.609375 15.007812 L 15.152344 14.429688 C 14.96875 14.214844 14.9375 13.910156 15.0625 13.636719 C 15.183594 13.363281 15.394531 13.179688 15.699219 13.152344 L 16.429688 13.058594 C 16.550781 13.027344 16.644531 12.9375 16.644531 12.847656 L 16.644531 11.75 C 16.550781 11.628906 16.460938 11.539062 16.339844 11.539062 Z M 11.773438 14.398438 C 10.617188 14.398438 9.671875 13.457031 9.671875 12.296875 C 9.671875 11.140625 10.617188 10.199219 11.773438 10.199219 C 12.929688 10.199219 13.875 11.140625 13.875 12.296875 C 13.84375 13.457031 12.929688 14.398438 11.773438 14.398438 Z M 11.773438 14.398438 " fill-opacity="1" fill-rule="nonzero"/><path fill="#061c3d" d="M 11.773438 11.050781 C 11.074219 11.050781 10.523438 11.597656 10.523438 12.296875 C 10.523438 13 11.074219 13.546875 11.773438 13.546875 C 12.472656 13.546875 13.019531 13 13.019531 12.296875 C 13.019531 11.597656 12.472656 11.050781 11.773438 11.050781 Z M 11.773438 11.050781 " fill-opacity="1" fill-rule="nonzero"/><path fill="#061c3d" d="M 15.425781 4.476562 L 14.96875 4.171875 C 14.785156 4.046875 14.695312 3.867188 14.726562 3.652344 C 14.726562 3.441406 14.847656 3.257812 15.0625 3.164062 L 15.546875 2.921875 C 15.609375 2.890625 15.667969 2.800781 15.640625 2.710938 L 15.367188 1.949219 C 15.304688 1.917969 15.214844 1.855469 15.152344 1.886719 L 14.632812 2.007812 C 14.421875 2.070312 14.238281 1.980469 14.085938 1.828125 C 13.933594 1.675781 13.902344 1.460938 13.964844 1.25 L 14.148438 0.730469 C 14.179688 0.640625 14.148438 0.546875 14.054688 0.515625 L 13.324219 0.152344 C 13.265625 0.121094 13.171875 0.152344 13.113281 0.214844 L 12.808594 0.667969 C 12.6875 0.851562 12.503906 0.945312 12.289062 0.914062 C 12.078125 0.914062 11.894531 0.792969 11.804688 0.609375 L 11.558594 0.121094 C 11.53125 0.03125 11.4375 0 11.347656 0.03125 L 10.585938 0.304688 C 10.496094 0.335938 10.464844 0.425781 10.464844 0.488281 L 10.585938 1.003906 C 10.617188 1.21875 10.554688 1.398438 10.402344 1.550781 C 10.25 1.703125 10.039062 1.734375 9.824219 1.675781 L 9.308594 1.492188 C 9.214844 1.460938 9.15625 1.492188 9.09375 1.582031 L 8.757812 2.28125 C 8.730469 2.375 8.757812 2.433594 8.820312 2.496094 L 9.277344 2.800781 C 9.460938 2.921875 9.550781 3.105469 9.519531 3.316406 C 9.519531 3.53125 9.398438 3.714844 9.214844 3.804688 L 8.730469 4.046875 C 8.636719 4.078125 8.605469 4.171875 8.636719 4.261719 L 8.882812 5.023438 C 8.910156 5.113281 9.003906 5.144531 9.0625 5.144531 L 9.613281 5.023438 C 9.824219 4.960938 10.007812 5.054688 10.160156 5.207031 C 10.3125 5.359375 10.34375 5.570312 10.28125 5.785156 L 10.097656 6.300781 C 10.070312 6.394531 10.097656 6.484375 10.191406 6.515625 L 10.921875 6.878906 C 10.980469 6.910156 11.101562 6.878906 11.132812 6.820312 L 11.4375 6.363281 C 11.558594 6.179688 11.742188 6.089844 11.957031 6.117188 C 12.167969 6.117188 12.351562 6.242188 12.441406 6.421875 L 12.6875 6.910156 C 12.71875 7 12.808594 7.03125 12.898438 7 L 13.660156 6.726562 C 13.75 6.699219 13.78125 6.605469 13.78125 6.546875 L 13.660156 6.027344 C 13.601562 5.816406 13.691406 5.632812 13.84375 5.480469 C 13.996094 5.328125 14.207031 5.296875 14.421875 5.359375 L 14.9375 5.539062 C 15.03125 5.570312 15.089844 5.539062 15.152344 5.449219 L 15.488281 4.75 C 15.515625 4.628906 15.488281 4.535156 15.425781 4.476562 Z M 11.46875 4.902344 C 10.707031 4.535156 10.402344 3.621094 10.769531 2.863281 C 11.132812 2.101562 12.046875 1.796875 12.808594 2.160156 C 13.570312 2.527344 13.875 3.441406 13.507812 4.199219 C 13.144531 4.929688 12.230469 5.265625 11.46875 4.902344 Z M 11.46875 4.902344 " fill-opacity="1" fill-rule="nonzero"/><path fill="#061c3d" d="M 12.566406 2.679688 C 12.109375 2.464844 11.558594 2.648438 11.347656 3.105469 C 11.132812 3.5625 11.316406 4.109375 11.773438 4.324219 C 12.230469 4.535156 12.777344 4.351562 12.992188 3.898438 C 13.203125 3.46875 13.019531 2.921875 12.566406 2.679688 Z M 12.566406 2.679688 " fill-opacity="1" fill-rule="nonzero"/></svg>