<svg xmlns="http://www.w3.org/2000/svg" width="40" height="40" version="1.0" viewBox="0 0 30 30"><defs><clipPath id="a"><path d="M1.863 0h26.13v29.031H1.862Zm0 0"/></clipPath></defs><path fill="#061c3d" d="M18.098 18.5a1.047 1.047 0 1 0 2.094 0 1.047 1.047 0 0 0-2.094 0m1.625 0a.577.577 0 1 1-1.156 0 .577.577 0 1 1 1.156 0M13.125 12.328q.228.029.469.05c.008 0 .015.005.023.005a.24.24 0 0 0 .235-.215.236.236 0 0 0-.215-.254 14 14 0 0 1-.45-.05.24.24 0 0 0-.265.198.24.24 0 0 0 .203.266M16.379 12.383q.012-.002.023-.004.24-.023.47-.05a.24.24 0 0 0 .202-.267.237.237 0 0 0-.265-.199q-.219.029-.45.051a.233.233 0 0 0-.21.254.236.236 0 0 0 .23.215M14.531 12.438c.153.003.313.007.469.007q.236-.001.465-.008a.235.235 0 0 0 .226-.242.23.23 0 0 0-.238-.226c-.3.008-.61.008-.91 0a.234.234 0 0 0-.012.469M13.637 15.137a8 8 0 0 1-.45-.051.24.24 0 0 0-.265.203.234.234 0 0 0 .203.262c.152.02.313.039.469.054h.023c.117 0 .223-.09.235-.21a.24.24 0 0 0-.215-.258M16.813 15.086q-.224.032-.454.05a.236.236 0 0 0-.21.259c.011.12.113.21.23.21h.023q.24-.024.47-.054a.234.234 0 0 0 .202-.262.24.24 0 0 0-.262-.203M15.453 15.195c-.3.008-.61.008-.91 0a.23.23 0 0 0-.238.227.23.23 0 0 0 .226.238c.153.008.313.008.469.008q.236.002.465-.008a.23.23 0 0 0 .226-.238.227.227 0 0 0-.238-.227M13.637 18.477a8 8 0 0 1-.45-.051.24.24 0 0 0-.265.203.234.234 0 0 0 .203.262q.228.03.469.054h.023c.117 0 .223-.09.235-.21a.24.24 0 0 0-.215-.258M15.465 19a.23.23 0 0 0 .226-.238.233.233 0 0 0-.238-.23c-.3.011-.61.011-.91 0a.235.235 0 0 0-.238.23.23.23 0 0 0 .226.238c.153.008.313.008.469.008.152 0 .313 0 .465-.008M5.77 12.957a.24.24 0 0 0-.168.086l-.735.922-.738-.977a.23.23 0 0 0-.184-.09.23.23 0 0 0-.187.086l-.918 1.149a.23.23 0 0 0 .035.328.23.23 0 0 0 .328-.035l.735-.914.738.976c.047.055.113.09.183.09h.004c.07 0 .14-.031.184-.086l.762-.957.738.688c.094.09.242.086.332-.012a.234.234 0 0 0-.012-.328l-.922-.863a.23.23 0 0 0-.175-.063M3.02 14.738a.235.235 0 0 0-.235.235v.46c0 .13.106.235.235.235a.233.233 0 0 0 .234-.234v-.461a.233.233 0 0 0-.234-.235m0 0"/><path fill="#061c3d" d="M3.941 14.277a.235.235 0 0 0-.234.235v.922c0 .129.106.234.234.234a.235.235 0 0 0 .235-.234v-.922a.235.235 0 0 0-.235-.235M4.863 14.738a.235.235 0 0 0-.234.235v.46c0 .13.105.235.234.235a.235.235 0 0 0 .235-.234v-.461a.235.235 0 0 0-.235-.235M5.785 14.277a.235.235 0 0 0-.234.235v.922c0 .129.105.234.234.234a.235.235 0 0 0 .235-.234v-.922a.235.235 0 0 0-.235-.235M6.707 14.738a.235.235 0 0 0-.234.235v.46c0 .13.105.235.234.235a.235.235 0 0 0 .234-.234v-.461a.235.235 0 0 0-.234-.235M7.46 22.18a.24.24 0 0 0 0 .332l.063.058h-.355a.23.23 0 0 0-.227.176v-.402a.235.235 0 0 0-.234-.235h-.402a.23.23 0 0 0 .175-.226v-.356l.06.063c.093.09.241.09.331 0a.23.23 0 0 0 0-.332l-.46-.461a.24.24 0 0 0-.333 0l-.457.46a.23.23 0 0 0 0 .333.237.237 0 0 0 .328 0l.063-.063v.356c0 .11.074.203.176.226h-.403a.235.235 0 0 0-.234.235v.402a.234.234 0 0 0-.227-.176H4.97l.062-.058a.24.24 0 0 0 0-.332.23.23 0 0 0-.332 0l-.46.46a.23.23 0 0 0 0 .333l.46.457c.043.047.106.07.164.07a.233.233 0 0 0 .168-.398l-.062-.063h.355c.11 0 .2-.074.227-.176v.403c0 .129.105.234.234.234h.402a.234.234 0 0 0-.175.227v.355l-.063-.062a.233.233 0 0 0-.328.332l.457.46c.047.047.106.07.168.07a.22.22 0 0 0 .164-.07l.461-.46a.23.23 0 0 0 0-.332.24.24 0 0 0-.332 0l-.059.062v-.355c0-.11-.074-.2-.175-.227h.402a.235.235 0 0 0 .234-.234v-.403a.23.23 0 0 0 .227.176h.355l-.062.063a.233.233 0 0 0 .332.328l.46-.457a.23.23 0 0 0 0-.332l-.46-.461a.23.23 0 0 0-.332 0m-.987.851H6.02v-.453h.453ZM14.766 24.188v.355l-.063-.063a.24.24 0 0 0-.332 0 .24.24 0 0 0 0 .332l.461.461q.048.046.11.063h-.403a.235.235 0 0 0-.234.234v.403a.26.26 0 0 0-.063-.11l-.46-.46a.24.24 0 0 0-.333 0 .24.24 0 0 0 0 .331l.063.063h-.356a.233.233 0 0 0-.234.234c0 .13.105.235.234.235h.356l-.063.058a.24.24 0 0 0 0 .332c.047.047.106.07.168.07a.23.23 0 0 0 .164-.07l.461-.46a.26.26 0 0 0 .063-.11v.406c0 .13.105.235.234.235h.402a.2.2 0 0 0-.109.058l-.46.461a.24.24 0 0 0 0 .332c.093.09.241.09.331 0l.063-.062v.355c0 .129.101.234.234.234a.235.235 0 0 0 .234-.234v-.355l.059.062a.23.23 0 0 0 .168.067c.059 0 .117-.02.164-.067a.24.24 0 0 0 0-.332l-.46-.46a.2.2 0 0 0-.11-.06h.406a.235.235 0 0 0 .234-.234v-.406q.012.06.059.11l.46.46a.23.23 0 0 0 .333 0 .24.24 0 0 0 0-.332l-.063-.058h.356a.235.235 0 0 0 .234-.235.233.233 0 0 0-.234-.234h-.356l.063-.063a.24.24 0 0 0 0-.332.24.24 0 0 0-.332 0l-.461.461a.2.2 0 0 0-.059.11v-.403a.235.235 0 0 0-.234-.234h-.406a.26.26 0 0 0 .11-.063l.46-.46a.24.24 0 0 0 0-.333.24.24 0 0 0-.332 0l-.059.063v-.355a.235.235 0 0 0-.234-.235.233.233 0 0 0-.234.235m.46 2.07h-.453v-.453h.454ZM22.367 23.96h2.766a.235.235 0 0 0 .234-.233v-1.844a.235.235 0 0 0-.234-.235h-.922a.235.235 0 0 0-.234.235v.226h-.688a.235.235 0 0 0-.234.235v.226h-.688a.235.235 0 0 0-.234.235v.922c0 .128.105.234.234.234m2.078-1.843h.453v1.375h-.453Zm-.922.461h.454v.914h-.454Zm-.921.461h.453v.453h-.453ZM24.559 15.324c.054 0 .113-.004.168-.008v.176c0 .371.437.637 1.039.637.605 0 1.043-.266 1.043-.637V13.88c0-.367-.438-.637-1.043-.637q-.107 0-.207.012a.5.5 0 0 0 .039-.18c0-.37-.438-.636-1.04-.636-.605 0-1.042.265-1.042.636v1.614c0 .367.437.636 1.043.636m0-.469c-.352 0-.547-.12-.575-.175v-.258a1.7 1.7 0 0 0 .575.094c.054 0 .113 0 .168-.008v.336a1 1 0 0 1-.168.011m1.78-.175c-.026.054-.226.175-.573.175-.348 0-.547-.12-.57-.175v-.258c.16.058.355.094.57.094a1.7 1.7 0 0 0 .574-.094Zm-1.612-.801v.16a2 2 0 0 1-.168.008c-.352 0-.547-.121-.575-.172v-.262q.246.096.575.098.106 0 .207-.012a.4.4 0 0 0-.04.18m1.039 1.781c-.348 0-.547-.12-.57-.172v-.261c.16.062.355.097.57.097.218 0 .41-.035.574-.097v.261c-.027.051-.227.172-.574.172m.57-1.781c-.035.055-.23.168-.57.168-.336 0-.536-.113-.567-.168.031-.055.23-.168.567-.168.34 0 .535.113.57.168m-1.777-.973c.336 0 .53.114.566.168-.035.055-.23.168-.566.168-.34 0-.536-.113-.57-.168.034-.054.23-.168.57-.168m0 0"/><g clip-path="url(#a)"><path fill="#061c3d" d="M22.145 14.746a3 3 0 0 0 2.988 2.766c1.652 0 3-1.344 3-3a3 3 0 0 0-3-2.996 3 3 0 0 0-2.988 2.761H19.84V9.445c0-.488-.524-.902-1.516-1.199a8 8 0 0 0-.789-.191V6.457h2.305a3 3 0 0 0 5.988-.234 3 3 0 0 0-3-3 3 3 0 0 0-2.988 2.765H17.3a.235.235 0 0 0-.234.235v1.75a14 14 0 0 0-1.832-.141V5.984a3 3 0 0 0 2.762-2.988 3 3 0 0 0-5.996 0 3 3 0 0 0 2.766 2.988v1.848c-.645.008-1.27.059-1.836.14v-1.75a.235.235 0 0 0-.235-.234h-2.539a3 3 0 0 0-2.988-2.765c-1.652 0-3 1.343-3 3a3 3 0 0 0 3 2.996 3 3 0 0 0 2.988-2.762h2.305v1.598a8 8 0 0 0-.79.191c-.987.297-1.515.711-1.515 1.2v4.831H7.852a3 3 0 0 0-2.989-2.761 3 3 0 0 0 0 5.996 3 3 0 0 0 2.989-2.766h2.304v4.375c0 .488.528.902 1.516 1.2.242.074.508.136.789.19v2.06H9.234a3 3 0 0 0-2.988-2.762c-1.652 0-3 1.343-3 2.996 0 1.652 1.348 3 3 3a3.005 3.005 0 0 0 2.988-2.766h3.461a.235.235 0 0 0 .235-.234v-2.211c.566.082 1.191.133 1.836.14v2.309A3 3 0 0 0 12 26.031a3 3 0 0 0 5.996 0 3 3 0 0 0-2.762-2.988v-2.309a14 14 0 0 0 1.832-.144v2.215c0 .129.106.234.235.234h3.46a3.005 3.005 0 0 0 2.989 2.766c1.652 0 3-1.348 3-3a3 3 0 0 0-3-2.996 3 3 0 0 0-2.988 2.761h-3.227v-1.886l.52-.301v.68c0 .128.105.234.234.234h1.707a.233.233 0 0 0 .234-.235v-.68l.586.34a.23.23 0 0 0 .32-.085l.856-1.477a.24.24 0 0 0 .024-.18.23.23 0 0 0-.11-.14l-.586-.34.586-.34a.23.23 0 0 0 .086-.32l-.855-1.477a.23.23 0 0 0-.32-.086l-.587.34v-.68a.233.233 0 0 0-.234-.234h-.156v-.957Zm2.988-2.762a2.53 2.53 0 0 1 2.531 2.528 2.536 2.536 0 0 1-2.531 2.531 2.536 2.536 0 0 1-2.531-2.531 2.53 2.53 0 0 1 2.53-2.528m-2.305-8.293a2.536 2.536 0 0 1 2.531 2.532 2.529 2.529 0 1 1-2.531-2.531M7.168 8.75a2.53 2.53 0 0 1-2.531-2.527A2.536 2.536 0 0 1 7.168 3.69a2.529 2.529 0 0 1 0 5.059m-2.305 8.293a2.529 2.529 0 1 1 .003-5.06 2.529 2.529 0 0 1-.003 5.06m1.383 8.293a2.536 2.536 0 0 1-2.531-2.531 2.532 2.532 0 0 1 5.062 0 2.536 2.536 0 0 1-2.53 2.53m17.504-5.059a2.53 2.53 0 0 1 2.531 2.528 2.536 2.536 0 0 1-2.531 2.53 2.529 2.529 0 0 1 0-5.059M10.625 10.18c.254.175.602.336 1.047.468.894.266 2.074.415 3.328.415 1.25 0 2.434-.149 3.324-.415.446-.132.793-.293 1.047-.468v2.492c0 .183-.308.488-1.183.75-.848.258-1.981.394-3.188.394-2.672 0-4.375-.68-4.375-1.144Zm1.844-7.184a2.529 2.529 0 1 1 5.06.003 2.529 2.529 0 0 1-5.06-.003m-.66 5.695c.847-.254 1.98-.394 3.191-.394 2.668 0 4.371.68 4.371 1.148 0 .184-.308.492-1.183.754-.848.254-1.981.395-3.188.395-2.672 0-4.375-.68-4.375-1.149 0-.183.313-.492 1.184-.754m-1.184 10.43V16.63c.254.176.602.336 1.047.469.894.265 2.074.414 3.328.414.527 0 1.043-.028 1.531-.078l-.234.406a.23.23 0 0 0 .086.32l.457.266h-.031q-.219.032-.45.05a.236.236 0 0 0-.066.454.242.242 0 0 0 .004.23l.57.985c-.582.082-1.222.12-1.867.12-1.21 0-2.344-.136-3.191-.394-.871-.262-1.184-.566-1.184-.75m6.902 6.91a2.529 2.529 0 1 1-5.058-.003 2.529 2.529 0 0 1 5.058.003m2.586-8.808.735-.422.62 1.07-.734.426a.234.234 0 0 0 0 .406l.735.422-.621 1.074-.735-.422a.23.23 0 0 0-.234 0 .23.23 0 0 0-.117.2v.851h-1.239v-.851a.22.22 0 0 0-.117-.2.23.23 0 0 0-.234 0l-.735.422-.617-1.074.735-.422a.24.24 0 0 0 .117-.203.24.24 0 0 0-.117-.203l-.735-.426.617-1.07.735.422a.23.23 0 0 0 .234 0 .23.23 0 0 0 .117-.203v-.848h1.239v.848c0 .085.047.164.117.203a.23.23 0 0 0 .234 0m-1.824-1.52a.235.235 0 0 0-.234.235v.68l-.586-.34a.23.23 0 0 0-.317.085l-.328.563c-.574.078-1.187.117-1.824.117-1.21 0-2.344-.14-3.191-.395-.871-.261-1.184-.57-1.184-.753v-2.493q.38.27 1.047.47c.894.269 2.074.413 3.328.413 1.25 0 2.434-.144 3.324-.414q.668-.2 1.047-.469v2.301Zm0 0"/></g><path fill="#061c3d" d="M22.027 6.797c0-.254-.14-.48-.343-.598v-.203h.91v.149a.695.695 0 1 0 .468 0v-.149h.915V6.2a.69.69 0 0 0-.344.598c0 .383.312.695.695.695a.693.693 0 0 0 .117-1.379v-.351a.235.235 0 0 0-.234-.235h-1.148V5.32a.694.694 0 0 0-.235-1.347.697.697 0 0 0-.695.695c0 .3.195.555.46.652v.207H21.45a.233.233 0 0 0-.234.235v.351a.693.693 0 0 0 .117 1.38.697.697 0 0 0 .695-.696m2.528 0a.227.227 0 1 1-.454 0 .227.227 0 0 1 .454 0m-1.727.226a.227.227 0 1 1 0-.453.227.227 0 0 1 0 .453m0-2.582a.227.227 0 1 1 0 .454.227.227 0 0 1 0-.454m-1.723 2.356a.227.227 0 1 1 .454 0 .227.227 0 0 1-.454 0M16.844 4.54v-.724a.235.235 0 0 0-.235-.234h-.101v-.676a.235.235 0 0 0-.235-.234h-.968a.233.233 0 0 0-.235.234v.676h-.074a.235.235 0 0 0-.234.234v.723c0 .129.105.234.234.234h1.613a.235.235 0 0 0 .235-.234m-1.305-1.4h.5v.442h-.5Zm.836 1.165H15.23V4.05h1.145ZM14.242 1.61h-1.086a.235.235 0 0 0-.234.234v1.844c0 .128.105.234.234.234h1.086a.235.235 0 0 0 .235-.235V1.845a.235.235 0 0 0-.235-.235m-.851 1.066h.617v.105h-.617Zm.617-.598v.129h-.617v-.129Zm-.617 1.375V3.25h.617v.203ZM15.121 1.922a.236.236 0 0 0 .234-.258c.125.106.23.234.313.375h-.008a.234.234 0 0 0-.265.2.24.24 0 0 0 .203.265l.418.055h.03c.095 0 .18-.055.216-.145l.164-.394a.234.234 0 0 0-.125-.31.24.24 0 0 0-.254.052 2 2 0 0 0-.45-.504.235.235 0 0 0 .15-.274.234.234 0 0 0-.286-.171l-.535.132a.24.24 0 0 0-.149.11.24.24 0 0 0-.023.18l.14.515a.24.24 0 0 0 .227.172M8.352 6.16v-.152c0-.57-.407-1.043-.942-1.153v-.222a.235.235 0 0 0-.234-.235.235.235 0 0 0-.235.235v.222l-.043.012c-.011.004-.02.004-.03.008-.497.137-.864.59-.864 1.133v.152h-.516a.235.235 0 0 0-.234.235v.914c0 .128.105.234.234.234h3.39a.235.235 0 0 0 .235-.234v-.914a.235.235 0 0 0-.234-.235ZM7.14 5.305q.016-.005.027-.004l.133.562h-.254Zm.64.558-.074-.32c.078.09.137.2.16.32Zm-1.16-.289-.05.29h-.087a.7.7 0 0 1 .137-.29M5.723 6.63h.28v.445h-.28Zm2.16.445H7.41v-.37a.235.235 0 0 0-.234-.235.235.235 0 0 0-.235.234v.371h-.468v-.742h1.41Zm.762 0h-.278V6.63h.278Zm0 0"/></svg>