<svg xmlns="http://www.w3.org/2000/svg" width="40" height="40" version="1.0" viewBox="0 0 30 30"><defs><clipPath id="a"><path d="M.484 2.902h29.032V26.13H.484Zm0 0"/></clipPath></defs><path fill="#061c3d" d="M3.23 17.219c-.617 0-1.12.504-1.12 1.12a1.12 1.12 0 0 0 2.238 0c0-.616-.5-1.12-1.118-1.12m0 1.593a.475.475 0 1 1-.002-.95.475.475 0 0 1 .002.95m0 0"/><g clip-path="url(#a)"><path fill="#061c3d" d="M27.766 13.887V4.063c0-.63-.512-1.141-1.141-1.141h-25c-.629 0-1.14.512-1.14 1.14v15.204c0 .632.511 1.144 1.14 1.144h9.262v2.758h-.145a1.487 1.487 0 0 0 0 2.973h6.766a1.487 1.487 0 0 0 0-2.973h-.145V20.41h1.91a5.44 5.44 0 0 0 4.805 2.899c3 0 5.438-2.438 5.438-5.438a5.41 5.41 0 0 0-1.75-3.984M1.129 4.063c0-.274.223-.497.496-.497h25c.273 0 .496.223.496.497v9.304a5 5 0 0 0-.445-.27V5.087c0-.59-.48-1.074-1.07-1.074H2.647A1.08 1.08 0 0 0 1.57 5.086V16.27H1.13Zm16.379 19.75c.465 0 .844.378.844.843a.845.845 0 0 1-.844.844h-6.766a.845.845 0 0 1-.844-.844c0-.465.38-.843.844-.843Zm-5.977-.645V20.41h5.188v2.758Zm5.516-3.402H1.625a.5.5 0 0 1-.496-.5v-2.352H18.73c-.054.313-.09.629-.09.957 0 .668.13 1.305.348 1.895Zm1.836-3.496H2.215V5.086c0-.238.195-.43.433-.43h22.957a.43.43 0 0 1 .43.43v7.719a5.4 5.4 0 0 0-1.957-.371 5.44 5.44 0 0 0-5.195 3.836m5.195-3.192a4.796 4.796 0 0 1 3.973 7.477 3.35 3.35 0 0 0-3.156-2.2h-1.633a3.35 3.35 0 0 0-3.153 2.2 4.76 4.76 0 0 1-.824-2.684 4.8 4.8 0 0 1 4.793-4.793m0 9.586a4.79 4.79 0 0 1-3.473-1.496A2.704 2.704 0 0 1 23.262 19h1.633c1.3 0 2.398.902 2.66 2.164a4.78 4.78 0 0 1-3.477 1.5m0 0"/></g><path fill="#061c3d" d="M24.078 17.996a2.24 2.24 0 0 1-2.238-2.238 2.24 2.24 0 0 1 2.238-2.238 2.24 2.24 0 0 1 2.238 2.238 2.24 2.24 0 0 1-2.238 2.238m0-3.832c-.879 0-1.594.715-1.594 1.594s.715 1.594 1.594 1.594 1.594-.715 1.594-1.594-.715-1.594-1.594-1.594M6.328 6.805a3.067 3.067 0 0 0-3.062 3.062 3.067 3.067 0 0 0 3.062 3.063 3.065 3.065 0 0 0 3.063-3.063 3.065 3.065 0 0 0-3.063-3.062m0 .644A2.423 2.423 0 0 1 8.75 9.867c0 .406-.102.785-.277 1.121a1.95 1.95 0 0 0-1.707-1.011H5.89a1.95 1.95 0 0 0-1.7 1.015 2.4 2.4 0 0 1-.28-1.125A2.42 2.42 0 0 1 6.327 7.45m-1.691 4.14a1.31 1.31 0 0 1 1.254-.968h.875c.597 0 1.105.402 1.257.969a2.41 2.41 0 0 1-3.386 0m0 0"/><path fill="#061c3d" d="M6.328 9.805c.59 0 1.07-.48 1.07-1.07s-.48-1.07-1.07-1.07-1.07.48-1.07 1.07.48 1.07 1.07 1.07m0-1.496c.238 0 .43.191.43.425a.428.428 0 0 1-.856 0c0-.234.192-.425.426-.425M13.883 7.45h-3.746a.32.32 0 0 1-.32-.321c0-.18.14-.324.32-.324h3.746a.323.323 0 0 1 0 .644M16.492 8.563h-6.355a.32.32 0 0 1-.32-.325c0-.175.14-.32.32-.32h6.355a.322.322 0 0 1 0 .644M13.883 9.672h-3.746c-.18 0-.32-.14-.32-.32s.14-.32.32-.32h3.746c.176 0 .32.14.32.32a.32.32 0 0 1-.32.32M15 10.785h-4.863a.32.32 0 0 1-.32-.32c0-.18.14-.324.32-.324H15a.323.323 0 0 1 0 .644M13.883 11.898h-3.746a.32.32 0 0 1-.32-.324c0-.176.14-.32.32-.32h3.746a.322.322 0 0 1 0 .644M16.7 13.012h-6.563a.32.32 0 0 1-.32-.325c0-.175.14-.32.32-.32h6.562a.322.322 0 0 1 0 .645M15.93 14.121h-1.18a.32.32 0 0 1-.32-.32c0-.18.144-.32.32-.32h1.18a.32.32 0 1 1 0 .64M13.883 14.121h-3.746c-.18 0-.32-.14-.32-.32s.14-.32.32-.32h3.746c.176 0 .32.14.32.32a.32.32 0 0 1-.32.32m0 0"/></svg>