<svg xmlns="http://www.w3.org/2000/svg" width="40" height="40" version="1.0" viewBox="0 0 30 30"><defs><clipPath id="a"><path d="M.484 0h29.032v29.031H.484Zm0 0"/></clipPath></defs><g clip-path="url(#a)"><path fill="#fff" fill-rule="evenodd" d="M7.617 18.426c.535.05 1.063.144 1.574.304 1.348.422 2.825 1.426 2.829 3.13.003.144.074 3.878-.004 4.68-.075.776-.348 1.206-.461 1.355-.125.171-.5.562-.82.742-.34.195-.766.386-1.204.386H3.13c-.473 0-.824-.14-1.14-.375-.41-.3-.61-.492-.864-.87-.219-.329-.363-.622-.5-1.317-.145-.75-.02-4.285-.008-4.594-.082-1.8 1.61-2.789 2.89-3.14a9.7 9.7 0 0 1 1.579-.29c-.883-.566-1.512-1.75-1.512-3.37 0-1.2.364-1.887.875-2.29.508-.398 1.192-.527 1.942-.527.754 0 1.418.133 1.902.535.48.402.816 1.086.816 2.281 0 1.61-.62 2.786-1.492 3.36m2.297 9.578c.129-.05.25-.117.36-.18.206-.117.445-.375.527-.484.074-.098.234-.383.285-.89.074-.798-.004-4.575-.004-4.575v-.008c0-1.265-1.172-1.933-2.172-2.242-.8-.25-1.656-.316-2.496-.316-.863 0-1.797.082-2.656.32-.496.137-1.086.383-1.543.773-.402.348-.695.817-.664 1.438a.2.2 0 0 1 .004.043s-.153 3.652-.012 4.398c.102.512.195.735.36.977.187.277.34.414.636.637.074.05.148.093.23.128v-5.59a.47.47 0 0 1 .47-.468.47.47 0 0 1 .468.469v5.652h5.27v-5.652a.47.47 0 0 1 .468-.47.47.47 0 0 1 .47.47Zm-3.57-10.125c1.062 0 1.828-1.137 1.828-2.813 0-.804-.156-1.293-.48-1.562-.329-.274-.79-.316-1.301-.316-.52 0-1.008.046-1.36.324-.343.27-.52.754-.52 1.554 0 1.676.766 2.813 1.833 2.813m14.004-6.098c-.106-1.777-.618-2.445-1.004-3.133-.309-.546-.555-1.105-.555-2.074a4.341 4.341 0 1 1 8.684 0c0 .969-.246 1.528-.555 2.074-.39.688-.902 1.36-1.008 3.149v.601a1.1 1.1 0 0 1-.629.993v.265c0 .446-.265.828-.644 1v.262c0 .602-.496 1.098-1.098 1.098h-.816a1.1 1.1 0 0 1-1.098-1.098v-.262a1.1 1.1 0 0 1-.648-1v-.265a1.1 1.1 0 0 1-.63-.993Zm4.629.457h-3.692v.16c0 .09.07.16.16.16h3.367c.09 0 .165-.07.165-.16Zm-.63 1.258h-2.433v.16c0 .09.074.164.16.164h2.11c.09 0 .164-.074.164-.164Zm-.648 1.262h-1.14v.16c0 .09.074.16.164.16h.816c.09 0 .16-.07.16-.16Zm.567-3.457h.746c.14-1.403.52-2.13.879-2.746.328-.567.644-1.016.644-1.98a3.407 3.407 0 0 0-6.812 0c0 .964.32 1.413.648 1.98.356.617.738 1.343.879 2.746h.742V7.973h-.433c-.75 0-1.368-.618-1.368-1.371 0-.754.618-1.368 1.368-1.368.753 0 1.37.618 1.37 1.368v.433h.403v-.433c0-.75.613-1.368 1.367-1.368a1.369 1.369 0 0 1 0 2.739h-.433Zm-1.336 0h.402V7.973h-.402Zm-.938-4.266v-.433a.432.432 0 1 0-.433.433Zm2.274 0h.433a.432.432 0 1 0 0-.863.43.43 0 0 0-.433.43Zm-5.653 2.836v7.707c0 .879-.715 1.59-1.59 1.59h-4.867c-.879 0-1.59-.711-1.59-1.59V9.871c0-.879.711-1.59 1.59-1.59h4.867c.875 0 1.59.711 1.59 1.59m-.937 0a.654.654 0 0 0-.653-.652h-4.867a.654.654 0 0 0-.656.652v7.707c0 .363.293.656.656.656h4.867c.36 0 .653-.293.653-.656Zm-5.262 1.332a.47.47 0 0 1-.004-.66.47.47 0 0 1 .664 0l.34.336.68-.84a.463.463 0 0 1 .656-.07.463.463 0 0 1 .07.656l-1.008 1.246a.463.463 0 0 1-.69.04Zm-.05 2.77a.464.464 0 0 1 0-.66.464.464 0 0 1 .66 0l.34.335.679-.84a.467.467 0 1 1 .73.587l-1.007 1.246a.465.465 0 0 1-.695.04Zm-.052 2.77a.464.464 0 0 1 0-.661.464.464 0 0 1 .66 0l.34.336.68-.84a.467.467 0 1 1 .73.586l-1.007 1.25a.48.48 0 0 1-.34.172.47.47 0 0 1-.355-.137ZM23.599 1.39a.47.47 0 0 1-.47.468.47.47 0 0 1-.468-.468V.477a.47.47 0 0 1 .469-.47.47.47 0 0 1 .469.47Zm-2.985.547a.47.47 0 0 1-.172.64.47.47 0 0 1-.64-.172l-.453-.789a.466.466 0 0 1 .168-.64.47.47 0 0 1 .64.171Zm-2.312 1.968a.468.468 0 0 1-.465.813l-.793-.457a.47.47 0 0 1-.172-.64.47.47 0 0 1 .64-.173Zm8.156-1.5a.47.47 0 0 1-.64.172.47.47 0 0 1-.172-.64l.46-.79a.467.467 0 1 1 .81.47Zm1.969 2.313a.47.47 0 0 1-.64-.172.47.47 0 0 1 .171-.64l.79-.458a.47.47 0 0 1 .64.172.47.47 0 0 1-.172.64Zm-6.301 12.238a.466.466 0 0 1 .625-.215c.234.11.328.39.215.625a9.63 9.63 0 0 1-9.832 5.352.47.47 0 0 1-.41-.524.47.47 0 0 1 .523-.406q.521.064 1.059.063a8.7 8.7 0 0 0 7.82-4.895M5.816 11.293a.47.47 0 0 1-.558.355.47.47 0 0 1-.356-.558c.95-4.317 4.801-7.555 9.403-7.555q.72 0 1.41.102a.467.467 0 1 1-.137.926 9 9 0 0 0-1.273-.09 8.696 8.696 0 0 0-8.489 6.82m0 0"/></g></svg>