<svg xmlns="http://www.w3.org/2000/svg" width="40" height="40" version="1.0" viewBox="0 0 30 30"><defs><clipPath id="a"><path d="M1.102 16H25v11H1.102Zm0 0"/></clipPath><clipPath id="b"><path d="M20 18h8.68v11.031H20Zm0 0"/></clipPath><clipPath id="c"><path d="M1.102 10H5v8H1.102Zm0 0"/></clipPath></defs><g clip-path="url(#a)"><path fill="#fff" fill-rule="evenodd" d="M11.652 26.82c-2.097 0-3.91-.453-5.328-1.36-1.87-1.19-3.062-1.929-3.742-2.323-1.078-.57-1.363-1.477-1.25-2.102.172-.566.684-.906 1.305-.906.285 0 .625.058.965.226l4.761 1.872c.059 0 1.024.34 2.27.34 1.133 0 2.097-.282 2.949-.794.852-.507 1.305-1.418 1.191-1.585h-.171c-.114 0-.34 0-.68.113-1.192.394-2.211.566-2.95.566-1.472 0-1.644-.625-1.699-.906-.058-.566.508-1.137 1.415-1.305.343-.058 2.382-.851 3.687-1.363 0-.055 1.246-.621 3.176-.621 1.87 0 3.629.566 5.328 1.7l1.531.905-3.91 6.805a6.7 6.7 0 0 0-2.21-.395 3.8 3.8 0 0 0-1.192.168c-1.192.454-3.29.965-5.446.965m0 0"/></g><g clip-path="url(#b)"><path fill="#fff" fill-rule="evenodd" d="M23.957 29.031c-.055 0-.113 0-.168-.054l-2.836-1.645c-.172-.059-.226-.285-.172-.453l4.594-7.942c.059-.054.113-.113.227-.167.058 0 .171 0 .226.054l2.836 1.645c.172.113.227.285.172.453l-4.594 7.941c-.058.055-.113.114-.226.168zm0 0"/></g><path fill="#fff" fill-rule="evenodd" d="M8.309 15.594a.32.32 0 0 1-.286-.172L6.438 12.93a.35.35 0 0 1 0-.34.31.31 0 0 1 .28-.172h.34v-.512a9 9 0 0 0 1.25.114c.395 0 .794-.055 1.192-.114v.512h.34c.113 0 .226.059.281.172a.35.35 0 0 1 0 .34L8.59 15.422a.31.31 0 0 1-.281.172M8.309 7.824a1.26 1.26 0 0 1-1.25-1.246c0-.172.113-.34.343-.34.168 0 .34.168.34.34 0 .34.227.567.567.567a.57.57 0 0 0 .566-.567c0-.398-.172-.453-.68-.566-.453-.114-1.136-.285-1.136-1.25 0-.735.57-1.305 1.25-1.305s1.246.57 1.246 1.305c0 .172-.168.34-.34.34-.168 0-.34-.168-.34-.34 0-.34-.285-.621-.566-.621-.34 0-.567.28-.567.62 0 .4.168.454.621.571.512.113 1.192.281 1.192 1.246 0 .68-.567 1.246-1.246 1.246m0 0"/><path fill="#fff" fill-rule="evenodd" d="M8.309 4.14c-.172 0-.34-.113-.34-.34v-.456c0-.227.168-.34.34-.34.168 0 .34.113.34.34V3.8c0 .226-.172.34-.34.34M8.309 8.336c-.172 0-.34-.172-.34-.34v-.512c0-.168.168-.34.34-.34.168 0 .34.172.34.34v.512c0 .168-.172.34-.34.34m0 0"/><path fill="#fff" fill-rule="evenodd" d="M8.309 11.34c-3.121 0-5.672-2.55-5.672-5.668C2.637 2.55 5.187 0 8.309 0c3.117 0 5.668 2.55 5.668 5.672 0 3.117-2.551 5.668-5.668 5.668m0-1.985A3.68 3.68 0 0 1 4.62 5.672 3.68 3.68 0 0 1 8.31 1.984a3.68 3.68 0 0 1 3.683 3.688A3.68 3.68 0 0 1 8.31 9.355m0 0"/><g clip-path="url(#c)"><path fill="#fff" fill-rule="evenodd" d="M3.035 17.125a.45.45 0 0 1-.285-.113L1.164 14.46c-.059-.059-.059-.227 0-.34q.082-.174.34-.172h.34v-3.574c0-.168.113-.34.34-.34h1.703c.168 0 .34.172.34.34v3.574h.34c.113 0 .226.055.28.172.06.113.06.281 0 .34l-1.53 2.55a.43.43 0 0 1-.282.114m0 0"/></g><path fill="#fff" fill-rule="evenodd" d="M13.582 17.125a.45.45 0 0 1-.285-.113L11.71 14.46c-.059-.059-.059-.227 0-.34a.3.3 0 0 1 .281-.172h.34v-3.574c0-.168.172-.34.344-.34h1.758c.168 0 .34.172.34.34v3.574h.34c.113 0 .226.055.28.172.06.113.06.281 0 .34l-1.53 2.55a.43.43 0 0 1-.282.114m0 0"/></svg>