<svg xmlns="http://www.w3.org/2000/svg" width="40" height="40" version="1.0" viewBox="0 0 30 30"><defs><clipPath id="a"><path d="M4 21h24.59v8H4Zm0 0"/></clipPath><clipPath id="b"><path d="M1.734 20H5v8H1.734Zm0 0"/></clipPath></defs><path fill="#fff" d="M5.71 22.754c.49 0 .903-.317 1.056-.75h1.246a.3.3 0 0 0 .136-.035c.84-.41 1.72-.711 2.614-.887 1.011-.203 1.672-.312 2.488-.078a3.69 3.69 0 0 1 2.375 2.094c.05.117.168.183.293.187h3.277c.567 0 .934.309.98.8 0 .54-.44.981-.98.981h-3.484a1.115 1.115 0 0 0-1.07-.812c-.621 0-1.125.504-1.125 1.125 0 .617.504 1.121 1.125 1.121.507 0 .937-.344 1.07-.812h3.484a1.61 1.61 0 0 0 1.602-1.63c-.078-.835-.719-1.398-1.602-1.398H16.11a4.3 4.3 0 0 0-2.687-2.254c-1.004-.289-1.828-.125-2.781.063-.926.183-1.832.488-2.703.91H6.805a1.126 1.126 0 0 0-1.094-.871 1.124 1.124 0 0 0 0 2.246m8.93 3.121a.498.498 0 1 1-.004-.995.498.498 0 0 1 .005.995m-8.93-4.742a.498.498 0 1 1 .006.995.498.498 0 0 1-.005-.995m0 0"/><g clip-path="url(#a)"><path fill="#fff" d="M5.71 27.152c.517 0 .946-.351 1.08-.824h2.05l7.937 2.492c.653.207 1.36.117 1.938-.234l9.3-5.668a.314.314 0 0 0 .106-.426c-.012-.02-1.21-2.012-3.547-.726-.988.547-1.074.597-1.582.859-.699-.723-1.926-.23-1.926.777 0 .621.504 1.125 1.125 1.125.707 0 1.243-.652 1.098-1.355.457-.235.496-.258 1.59-.86 1.355-.75 2.176-.14 2.52.25l-9.008 5.489c-.43.262-.95.324-1.426.176L8.98 25.719a.3.3 0 0 0-.093-.016H6.78a1.118 1.118 0 0 0-2.191.324c0 .621.504 1.125 1.12 1.125m16.481-3.25a.498.498 0 1 1-.003-.997.498.498 0 0 1 .003.997m-16.48 1.63a.498.498 0 1 1 .005.995.498.498 0 0 1-.005-.996m0 0"/></g><g clip-path="url(#b)"><path fill="#fff" d="M3.293 27.21H2.102a.31.31 0 1 0 0 .622h1.222c.426 0 .735-.5.735-1.195v-5.098c0-.691-.309-1.195-.735-1.195H2.102a.313.313 0 0 0-.313.312c0 .172.14.313.313.313h1.191c.047.05.14.246.14.57v5.098c0 .328-.093.52-.14.574m0 0"/></g><path fill="#fff" d="M14.375 5.645a.31.31 0 0 0-.129-.422.31.31 0 0 0-.422.129c-1.511 2.855-.87 6.699 2.114 8.82.699.496 1.101 1.242 1.101 2.047v1.906c0 .172.137.309.309.309h5.144a.31.31 0 0 0 .313-.309v-1.902c0-.805.402-1.555 1.101-2.055a6.88 6.88 0 0 0 2.89-5.602c0-5.425-5.917-8.578-10.382-5.93a.31.31 0 0 0-.105.426c.086.149.277.2.425.11 4.082-2.422 9.442.488 9.442 5.394a6.27 6.27 0 0 1-2.633 5.094c-1.457 1.04-1.352 2.524-1.363 2.567h-2.317a.31.31 0 1 0 0 .621h2.317v.965h-4.52v-.965h1.098a.31.31 0 1 0 0-.621H17.66v-.008c0-.992-.508-1.95-1.363-2.555-2.684-1.91-3.309-5.398-1.922-8.02M20.297 19.234a.31.31 0 0 0-.313-.312H17.16a.31.31 0 0 0-.312.312v.23c0 1.227 1.132 2.227 2.527 2.227h1.152c1.391 0 2.524-1 2.524-2.226v-.23a.31.31 0 0 0-.313-.313h-1.633a.31.31 0 1 0 0 .621h1.32c-.05.848-.882 1.523-1.898 1.523h-1.152c-1.02 0-1.852-.675-1.898-1.523h2.507a.31.31 0 0 0 .313-.309M11.984 4.602l-1.64-1.942a.315.315 0 0 0-.442-.039.31.31 0 0 0-.035.442l1.64 1.94a.3.3 0 0 0 .24.114c.26 0 .41-.312.237-.515M7.074 6.719a.31.31 0 0 0 .207.39c2.57.797 2.43.77 2.52.77a.313.313 0 0 0 .094-.61l-2.43-.757a.314.314 0 0 0-.39.207M9.945 10.863a.31.31 0 0 0-.383-.218l-2.453.664a.312.312 0 1 0 .16.602l2.458-.665a.317.317 0 0 0 .218-.383M9.844 15.965l1.71-1.88a.31.31 0 0 0-.019-.44.317.317 0 0 0-.441.02l-1.711 1.878a.31.31 0 0 0 .02.441.31.31 0 0 0 .44-.02M14.012 15.39l-.438 2.508a.31.31 0 1 0 .613.105l.438-2.503a.311.311 0 1 0-.613-.11m0 0"/><path fill="#fff" d="M20.352 3.938h-.075c-.941 0-1.707.765-1.707 1.707v.234h-1.508a.31.31 0 0 0-.308.312v1.075h-.27c-.945 0-1.71.77-1.71 1.71v.067c0 .945.765 1.71 1.71 1.71h.27v1.075c0 .176.137.313.308.313h1.293v.3a1.745 1.745 0 1 0 3.488 0v-.3h2.153a.31.31 0 0 0 .313-.313v-1.387a.313.313 0 0 0-.313-.312h-.535a1.12 1.12 0 0 1-1.121-1.117c0-.617.504-1.121 1.12-1.121h.536c.172 0 .313-.141.313-.313V6.191a.313.313 0 0 0-.313-.312H22.06v-.234c0-.942-.766-1.707-1.707-1.707m3.332 2.566v.762h-.223a1.745 1.745 0 0 0 0 3.488h.223v.766H21.53a.307.307 0 0 0-.308.308v.613a1.121 1.121 0 0 1-2.243 0v-.613a.31.31 0 0 0-.312-.308h-1.293V10.44a.31.31 0 0 0-.312-.312h-.579a1.086 1.086 0 0 1-1.086-1.086v-.066c0-.598.489-1.086 1.086-1.086h.578a.31.31 0 0 0 .313-.313V6.504h1.504a.31.31 0 0 0 .312-.313v-.546c0-.598.489-1.082 1.086-1.082h.075c.597 0 1.082.484 1.082 1.082v.546c0 .172.14.313.312.313Zm0 0"/></svg>