<svg xmlns="http://www.w3.org/2000/svg" width="40" height="40" version="1.0" viewBox="0 0 30 30"><defs><clipPath id="a"><path d="M1 .309h28v28.308H1Zm0 0"/></clipPath></defs><g clip-path="url(#a)"><path fill="#fff" d="m3.102 11.563.351-.876a.42.42 0 0 1 .395-.265v-.004h1.554c.192 0 .356.129.41.3l.336.845h.985l-.688-1.708h-3.64l-.688 1.707Zm2.125 0-.114-.286h-.976l-.114.286Zm-2.27-3.579h3.336V6.22H2.957Zm3.336.856H2.957v.156h3.336Zm.86.484 1 2.477a.43.43 0 0 1-.383.62H1.48a.432.432 0 0 1-.394-.589l1.012-2.508V5.79c0-.238.191-.43.43-.43h4.195a.43.43 0 0 1 .43.43Zm19.898-2.89-.168.75a.425.425 0 0 1-.418.336v.003h-1.477a.43.43 0 0 1-.418-.328l-.254-.761c-.074 0-.148-.012-.148.02v4.077h2.996V6.453q.001-.006-.004-.012Zm-1.832 0 .074.23h.832l.05-.23Zm1.945 4.953h-2.996l.008.406h-.004l2.973.004.02-.016Zm-2.977-5.809h2.958a.883.883 0 0 1 .879.879v5.324a.88.88 0 0 1-.88.875h-2.956a.86.86 0 0 1-.618-.258l-.004.004a.9.9 0 0 1-.257-.62V6.456a.885.885 0 0 1 .878-.879m-6.902-3.937-.875.746.875.953Zm-1.527 1.3-.13.11a.42.42 0 0 1-.554-.004l-.125-.106-.965 1.047h2.739Zm-1.461-.554-.875-.746V3.34Zm-.117-1.219 1.172 1 1.175-1Zm-1.188-.86h4.723c.238 0 .43.192.43.43v3.68c0 .238-.192.43-.43.43h-4.723a.43.43 0 0 1-.43-.43V.738c0-.238.192-.43.43-.43M5.891 18.286a.428.428 0 1 1-.856 0v-.437h-.82v.437a.428.428 0 1 1-.856 0v-.437h-.148L2.5 21.664h4.25l-.71-3.816h-.15Zm-.856-1.293v-.648c0-.422-.82-.422-.82 0v.648Zm-1.676 0v-.648c0-1.559 2.532-1.559 2.532 0v.648h.504c.222 0 .402.168.425.383l.867 4.64a.432.432 0 0 1-.421.505v.003H1.984a.43.43 0 0 1-.414-.543l.867-4.636a.424.424 0 0 1 .422-.352Zm22.809 1.36c1.469.445 1.66 2.449.312 3.171a1.727 1.727 0 0 1-2.335-.71 1.72 1.72 0 0 1 .71-2.333c.387-.207.864-.27 1.313-.128m.27 1.238a.874.874 0 0 0-1.61.176c-.137.425.137.937.567 1.062a.872.872 0 0 0 1.043-1.238m-.008-2.844.414.125a.66.66 0 0 1 .43.84l.328.27a.654.654 0 0 1 .906.261l.203.38a.65.65 0 0 1-.285.894l.039.425a.657.657 0 0 1 .457.825l-.125.414a.655.655 0 0 1-.836.43l-.273.328a.657.657 0 0 1-.258.906l-.383.203a.65.65 0 0 1-.895-.29l-.425.044a.657.657 0 0 1-.825.453l-.472-.145c-.332-.152-.48-.507-.371-.816l-.329-.27a.66.66 0 0 1-.906-.257l-.203-.383c-.172-.324-.05-.715.29-.899l-.044-.422c-.37-.113-.562-.472-.453-.824l.125-.414a.654.654 0 0 1 .836-.43l.27-.328a.664.664 0 0 1 .222-.886l.418-.223a.66.66 0 0 1 .899.285l.421-.039a.657.657 0 0 1 .825-.457m-.024.887-.035-.012a.65.65 0 0 1-.64.434c-.446-.012-.618.152-.922.011a.66.66 0 0 1-.293-.261l-.036.015a.655.655 0 0 1-.14.762c-.332.309-.336.54-.649.656a.65.65 0 0 1-.394.024l-.012.035c.274.094.45.351.438.637-.016.449.148.62.007.925a.6.6 0 0 1-.261.293l.015.032a.65.65 0 0 1 .762.144c.309.328.543.332.66.649a.63.63 0 0 1 .02.39l.035.012a.65.65 0 0 1 .64-.434c.446.016.618-.148.926-.011a.63.63 0 0 1 .29.265l.035-.015a.66.66 0 0 1 .144-.766c.328-.305.332-.54.645-.656a.68.68 0 0 1 .394-.024l.012-.031a.66.66 0 0 1-.438-.64c.016-.45-.148-.622-.007-.926a.6.6 0 0 1 .261-.293l-.015-.032a.65.65 0 0 1-.762-.144c-.309-.328-.543-.332-.66-.645a.65.65 0 0 1-.02-.394M14.2 26.164a.424.424 0 0 1 .406-.465c-.246-.137-.414-.37-.414-.82 0-.453.317-.813.73-.957v-.043c0-.238.188-.43.438-.43v.004c.25 0 .43.192.426.469.805.285.965 1.265.387 1.375.203.144.344.371.344.781 0 .453-.32.813-.739.957 0 .649-.855.586-.855.043v-.047c-.387-.133-.688-.453-.723-.867m.723-.344c.176.176.062.258.191.356.207.156.547.031.547-.098 0-.105-.195-.14-.387-.18-.117-.023-.238-.046-.351-.078m.512-.761q.153.029.3.062c-.129-.183-.02-.242-.132-.336-.204-.164-.555-.043-.555.094 0 .105.195.14.387.18m-.079-2.82c1.79 0 3.239 1.448 3.239 3.238a3.238 3.238 0 1 1-6.477 0 3.233 3.233 0 0 1 3.238-3.239m1.684 1.554a2.386 2.386 0 0 0-3.371 0c-.93.93-.93 2.441 0 3.371.934.93 2.441.93 3.371 0s.93-2.441 0-3.371m4.582-7.055c.016-.425.582-.57.797-.199l.625 1.082a.43.43 0 0 1-.371.645h-1.25c-.43 0-.59-.563-.23-.793l-1.22-.703a.425.425 0 1 1 .423-.739Zm-5.84 3.504c.375-.199.781.219.57.59l-.628 1.082a.424.424 0 0 1-.739-.004l-.625-1.078c-.214-.371.192-.789.567-.59v-1.055a.428.428 0 0 1 .855 0Zm-6.265-2.77c.359.231.199.794-.23.794h-1.25a.426.426 0 0 1-.348-.676l.601-1.05c.215-.372.781-.227.797.194l1.226-.703a.423.423 0 0 1 .583.153.43.43 0 0 1-.157.586Zm-.43-6.988c-.016.426-.582.567-.797.196l-.625-1.082a.43.43 0 0 1 .371-.641h1.25c.43 0 .594.559.23.79l1.223.706a.426.426 0 0 1-.425.738Zm5.84-3.636c-.38.199-.781-.223-.57-.59l.628-1.086a.427.427 0 0 1 .743.004l.625 1.078c.21.371-.192.793-.57.594v1.187a.427.427 0 0 1-.856 0Zm6.265 2.898c-.359-.226-.199-.789.23-.789h1.25c.321 0 .556.348.356.668l-.609 1.059c-.215.367-.781.226-.797-.2l-1.223.707a.43.43 0 0 1-.585-.156.424.424 0 0 1 .16-.582Zm-1.668 4.293h-1.468a8.8 8.8 0 0 1-.317 2.008c.235.129.461.27.672.433a4.16 4.16 0 0 0 1.113-2.44m-2.328 0h-1.414v1.426q.606.053 1.164.242a7.8 7.8 0 0 0 .25-1.668m-2.27 0h-1.413c.027.602.117 1.164.25 1.668a5 5 0 0 1 1.164-.242Zm-2.273 0h-1.468c.097.941.504 1.79 1.117 2.441q.315-.246.668-.433a8.8 8.8 0 0 1-.317-2.008m-1.468-.855h1.468a8.8 8.8 0 0 1 .317-2.012 5 5 0 0 1-.668-.43 4.2 4.2 0 0 0-1.117 2.442m2.328 0h1.414v-1.43a5 5 0 0 1-1.164-.238 7.7 7.7 0 0 0-.25 1.668m2.27 0h1.413a7.7 7.7 0 0 0-.25-1.668 5 5 0 0 1-1.164.238Zm2.273 0h1.468a4.16 4.16 0 0 0-1.113-2.442c-.21.16-.437.305-.672.43.172.605.285 1.285.317 2.012M15.78 9.547v1.348c.305-.032.602-.094.883-.188-.223-.504-.527-.95-.883-1.16m0 6.781v1.348c.356-.211.66-.656.883-1.16a4 4 0 0 0-.883-.188m-.855 1.348v-1.348a4.4 4.4 0 0 0-.883.184c.223.508.527.953.883 1.164m0-6.781V9.547c-.356.207-.66.656-.883 1.16q.424.14.883.188m2.25-1.06.27.524c.105-.058.202-.12.3-.191a4 4 0 0 0-.57-.332m.27 7.028-.27.524c.199-.098.39-.207.57-.336a5 5 0 0 0-.3-.188m-3.915.524-.27-.524a5 5 0 0 0-.3.188c.18.129.371.238.57.336m-.27-7.028.27-.523a4 4 0 0 0-.57.332q.149.104.3.191m2.094-1.796a5.05 5.05 0 0 1 0 10.097 5.05 5.05 0 0 1-5.05-5.05 5.05 5.05 0 0 1 5.05-5.047m0 0"/></g></svg>