<svg xmlns="http://www.w3.org/2000/svg" width="40" height="40" version="1.0" viewBox="0 0 30 30"><defs><clipPath id="a"><path d="M1.277.441h27.578v28.305H1.277Zm0 0"/></clipPath></defs><g clip-path="url(#a)"><path fill="#fff" d="M23.02 23.813c.18.394.093.87-.215 1.18a1.056 1.056 0 0 1-1.485 0l-4.48-4.481a.45.45 0 0 0-.64 0 .45.45 0 0 0 0 .64l4.48 4.48a1.064 1.064 0 0 1 0 1.485c-.41.41-1.078.41-1.489 0l-4.73-4.734a.46.46 0 0 0-.645 0 .46.46 0 0 0 0 .644l3.575 3.575a1.056 1.056 0 0 1 0 1.484 1.056 1.056 0 0 1-1.485 0l-3.828-3.828a.46.46 0 0 0-.644 0 .46.46 0 0 0 0 .644l1.78 1.778c.407.41.407 1.078 0 1.484-.41.41-1.077.41-1.487 0L5.793 22.23l1.855-9.304h3.942l-1.375 1.148a2 2 0 0 0-.61.828 1.68 1.68 0 0 0-.078.993l1.07 4.91a.453.453 0 0 0 .583.336c2.836-.711 3-2.598 3.183-4.649 0-.023.024-.39.04-.418l.058-.004q.193-.014.516.114c.437.171.984.53 1.597 1.086Zm-2.457-10.114c-1.192-.133-2.481-.648-3.88-1.8a2 2 0 0 0-1.218-.481 1.67 1.67 0 0 0-1.137.402l-3.531 2.95c-.16.132-.281.289-.348.457a.85.85 0 0 0-.035.476l.969 4.43c1.8-.645 1.933-2.121 2.074-3.719.023-.277.023-.562.172-.809.16-.265.426-.414.77-.44.257-.02.566.038.914.175.53.215 1.18.629 1.874 1.262 2.051 1.867 4.227 4.289 6.208 6.3l.777-.78-1.695-8.513a6.1 6.1 0 0 1-1.915.09m8.101 8.031-1.957-9.824a.5.5 0 0 0-.59-.394l-2.52.5a.51.51 0 0 0-.394.59l1.957 9.824c.055.273.32.449.59.394l2.52-.5c.27-.054.449-.32.394-.59M6.391 12.012l-2.516-.5a.5.5 0 0 0-.59.394L1.328 21.73a.5.5 0 0 0 .39.59l2.52.5a.5.5 0 0 0 .59-.394l1.957-9.824a.5.5 0 0 0-.394-.59M4.758 9.543h4.797a5.6 5.6 0 0 1 1.77-3.004 4.08 4.08 0 0 0-2.77-1.086 4.104 4.104 0 0 0-4.082 3.785.28.28 0 0 0 .285.305m3.797-4.66a2.211 2.211 0 0 0 0-4.422A2.21 2.21 0 0 0 6.34 2.67c0 1.224.992 2.212 2.215 2.212m2.12 5.836h8.641c.188 0 .336-.16.325-.352a4.673 4.673 0 0 0-4.645-4.305 4.67 4.67 0 0 0-4.644 4.305.323.323 0 0 0 .324.352m9.763-1.176h4.796a.28.28 0 0 0 .286-.305 4.107 4.107 0 0 0-4.082-3.785 4.1 4.1 0 0 0-2.774 1.086 5.6 5.6 0 0 1 1.773 3.004m1-4.66c1.222 0 2.21-.988 2.21-2.211S22.66.46 21.438.46c-1.223 0-2.211.988-2.211 2.21 0 1.224.988 2.212 2.21 2.212m-6.442.61a2.514 2.514 0 0 0 2.516-2.516 2.517 2.517 0 0 0-5.035 0 2.517 2.517 0 0 0 2.52 2.515m0 0"/></g></svg>