<svg xmlns="http://www.w3.org/2000/svg" width="40" height="40" version="1.0" viewBox="0 0 30 30"><defs><clipPath id="a"><path d="M.484 11H3v11H.484Zm0 0"/></clipPath><clipPath id="b"><path d="M8 9h21.516v17.945H8Zm0 0"/></clipPath><clipPath id="c"><path d="M.484 2.27H11V5H.484Zm0 0"/></clipPath></defs><g clip-path="url(#a)"><path fill="#061c3d" d="M1.3 19.438V13.27c0-.727.59-1.317 1.317-1.317h.043v-.726H.937a.456.456 0 0 0-.453.453v9.48c0 .227.18.457.454.457H2.66v-.773h-.043c-.726-.09-1.316-.68-1.316-1.407m0 0"/></g><g clip-path="url(#b)"><path fill="#061c3d" d="M29.516 18.031c0-.68-.317-1.27-.817-1.633.5-.363.817-.996.817-1.68 0-.905-.59-1.722-1.407-1.995.274-.36.453-.817.453-1.313 0-1.18-.953-2.09-2.085-2.09H22.53c-2.676-.226-6.261.59-8.484 1.59-.68.317-1.09.317-1.18.317H8.695v.726h.043c.727 0 1.317.59 1.317 1.317v1.18h.09c.726 0 1.316.59 1.316 1.312v1.136c0 .727-.59 1.317-1.316 1.317h-.09v1.18c0 .722-.59 1.312-1.317 1.312h-.043v.773h.996c2.27-.273 3.45.59 4.082 1.407.774.996 1.543 1.722 2.36 2.265 1.996 1.274 3.586 1.543 4.629 1.543.726 0 1.18-.136 1.222-.136 3.086-.86 3.766-2.313 3.856-3.082h1.5c1.18 0 2.086-.954 2.086-2.09 0-.68-.317-1.27-.817-1.633.59-.453.907-1.043.907-1.723m0 0"/></g><path fill="#061c3d" d="m5.883 15.945-.184-.316-.18.316a.34.34 0 0 1-.316.227l-.363.047.27.27c.093.093.136.226.136.41l-.09.363.317-.184c.047-.043.136-.043.226-.043.094 0 .137 0 .184.043l.316.184-.047-.364q.001-.204.137-.41l.274-.27-.364-.046a.34.34 0 0 1-.316-.227m0 0"/><path fill="#061c3d" d="M9.238 19.438v-2.63h.547v.133c0 .227.18.457.453.457a.456.456 0 0 0 .453-.457V15.81a.453.453 0 1 0-.906 0v.09h-.547v-2.63a.453.453 0 0 0-.453-.453h-.953v-2.043a.453.453 0 0 0-.453-.453H3.977a.453.453 0 0 0-.454.453v2.043h-.906a.453.453 0 0 0-.453.454v6.168c0 .226.18.453.453.453h.953v2.043c0 .226.18.453.453.453h3.403c.226 0 .453-.18.453-.453V19.89h.953c.18 0 .406-.227.406-.453m-1.406-3.176-.727.726.184 1c.043.18-.047.317-.184.407-.132.09-.316.136-.453.046l-.906-.5-.906.5c-.137.043-.32.09-.453-.046-.184-.09-.274-.227-.227-.407l.18-1-.727-.726c-.136-.137-.18-.317-.09-.453.09-.137.18-.274.364-.317l.996-.137.453-.906c.137-.32.637-.32.773 0l.454.906 1.042.137c.184.043.317.137.364.317a.9.9 0 0 1-.137.453M4.52 8.777c0 .637.546 1.18 1.18 1.18a1.2 1.2 0 0 0 1.179-1.18c0-.632-.543-1.18-1.18-1.18-.633 0-1.18.548-1.18 1.18m0 0"/><g clip-path="url(#c)"><path fill="#061c3d" d="M1.707 4.832c1.09-1.043 2.496-1.633 3.992-1.633 1.5 0 2.906.59 3.992 1.633.184.18.41.18.59 0 .184-.184.184-.41 0-.59A6.37 6.37 0 0 0 5.7 2.336c-1.77 0-3.355.68-4.582 1.906-.18.18-.18.406 0 .59.184.18.457.18.59 0m0 0"/></g><path fill="#061c3d" d="M9.195 6.281c.18-.18.18-.406 0-.59-1.906-1.902-5.035-1.902-6.941 0-.184.184-.184.41 0 .59.18.184.406.184.59 0a4.083 4.083 0 0 1 5.761 0c.133.137.407.137.59 0m0 0"/><path fill="#061c3d" d="M8.105 7.688c.18-.18.18-.407 0-.59a3.4 3.4 0 0 0-4.809 0c-.183.183-.183.41 0 .59a.42.42 0 0 0 .59 0c.5-.497 1.134-.723 1.813-.723.684 0 1.317.27 1.817.723.136.183.406.183.59 0m0 0"/></svg>