<svg xmlns="http://www.w3.org/2000/svg" width="40" height="40" version="1.0" viewBox="0 0 30 30"><defs><clipPath id="a"><path d="M.484 0h29.032v29.031H.484Zm0 0"/></clipPath></defs><g clip-path="url(#a)"><path fill="#061c3d" d="M19.422 20.867h-8.848l-1.156 4.04-.012.042h.602v4.078h9.98V24.95h.602l-.012-.043Zm-.34 4.715v2.54h-1.36v-1.817h-.906v1.816h-5.898V24.95h8.168v.633Zm-.91-3.809h.566l.649 2.266h-1.215Zm-.906 2.266h-.907v-2.266h.907Zm-1.813-2.266v2.266h-.91v-2.266Zm-1.812 0v2.266h-.907v-2.266Zm-1.813 0v2.266h-1.215l.649-2.266Zm0 4.082H15v.903h-3.172Zm-.586-8.8.098.136c.027.036.055.067.078.102q.082.105.168.203c.043.047.086.102.133.149q.064.069.133.132c.05.055.109.102.164.149.07.062.136.117.21.172.036.027.07.05.11.078.105.078.207.148.316.215.024.015.055.03.082.05q.1.059.211.11c.02.015.043.023.063.035q.18.089.367.16l.133.047c.09.035.172.059.262.086q.115.029.23.062c.047.012.102.024.148.032q.171.032.348.05c.031.004.059.004.094.008q.2.019.406.02.207-.001.406-.02.048-.004.094-.008.176-.018.348-.05.075-.013.152-.032l.227-.058c.086-.024.18-.051.265-.086l.13-.047c.128-.047.253-.105.378-.164a.2.2 0 0 0 .055-.031 3 3 0 0 0 .285-.16q.168-.101.324-.22c.04-.023.07-.05.102-.073q.115-.087.218-.184c.051-.043.106-.09.157-.14.043-.044.09-.087.133-.137q.069-.073.132-.145.087-.098.172-.203c.028-.035.055-.066.078-.102l.098-.136a4.5 4.5 0 0 0 .777-2.535c0-2.5-2.035-4.536-4.535-4.536a4.531 4.531 0 0 0-3.75 7.07M15 10.887c2 0 3.629 1.629 3.629 3.629 0 .484-.098.941-.266 1.363-.398-.504-1.039-.774-1.593-1.008l-.141-.062c.094-.235.148-.5.148-.774 0-1.066-.793-1.937-1.773-1.937s-1.774.87-1.774 1.937c0 .281.055.547.153.79l-.11.042c-.593.242-1.234.508-1.628 1.004a3.5 3.5 0 0 1-.274-1.355c0-2 1.629-3.63 3.629-3.63m2.602 6.148-.012.012q-.135.136-.281.254a1 1 0 0 1-.07.062 4 4 0 0 1-.325.23c-.004 0-.004.005-.008.005a5 5 0 0 1-.332.183q-.012.007-.023.008a3 3 0 0 1-.336.14c-.012.005-.02.012-.035.016-.11.04-.223.067-.336.094l-.051.012q-.164.041-.332.058a2.732 2.732 0 0 1-.46.035 3 3 0 0 1-.462-.03c-.11-.016-.219-.032-.328-.06l-.055-.011a4 4 0 0 1-.37-.11 2.5 2.5 0 0 1-.333-.136l-.031-.012a3 3 0 0 1-.34-.187 4 4 0 0 1-.324-.23c-.024-.02-.047-.036-.074-.06a3 3 0 0 1-.282-.257l-.007-.008c-.075-.078-.145-.164-.215-.25.097-.457.484-.688 1.433-1.078l.309-.13c.3.25.672.4 1.078.4.41 0 .785-.153 1.09-.41l.328.136c.914.383 1.3.629 1.402 1.078-.074.086-.144.172-.218.246m-3.47-3c0-.566.391-1.031.868-1.031s.867.465.867 1.031c0 .149-.027.293-.078.422a1 1 0 0 1-.254.383.78.78 0 0 1-.535.23.77.77 0 0 1-.523-.215 1 1 0 0 1-.262-.382 1.2 1.2 0 0 1-.082-.438M12.618 7.66l-.012.055h4.79l-.012-.055-.328-1.308h2.48V.004h-9.07v6.348h2.48Zm-1.246-4.367V.906h7.258v4.54h-1.797l-.113-.454h-3.43l-.113.453H11.37Zm2.508 3.059.113-.454h2.012l.113.454.113.449h-2.468Zm1.574-2.72h-.91v-.905h.91Zm12.7 5.895h-3.63c-.75 0-1.359.61-1.359 1.36v7.082c0 .847.691 1.535 1.54 1.535h3.273c.851 0 1.539-.695 1.539-1.54v-7.077a1.366 1.366 0 0 0-1.364-1.36m.452 8.438a.636.636 0 0 1-.632.637h-3.274a.63.63 0 0 1-.629-.63v-7.085c0-.25.2-.453.45-.453h1.359v.453h.906v-.453h1.36c.25 0 .453.203.453.453v7.078Zm-21.77.633a1.816 1.816 0 0 0 1.813-1.817V12.25c0-.3-.074-.59-.207-.844a1.82 1.82 0 0 0-1.605-.972h-4.54c-1 0-1.812.816-1.812 1.816v4.535c0 1 .813 1.817 1.813 1.817h4.539Zm-4.534-.907a.91.91 0 0 1-.906-.91V12.25c0-.5.406-.906.906-.906H6.84c.5 0 .906.406.906.906v4.531c0 .5-.406.91-.906.91Zm1.047-4.972-.59-.297v4.191l.59-.293 3.597-1.804Zm.312 1.172 1.254.625-1.254.625Zm6.063-9.418-.391.226a11.34 11.34 0 0 0-4.387 4.582l-.21.403-.4-.204-.41-.214.212-.403A12.3 12.3 0 0 1 8.875 3.91l.39-.226.231.402Zm10.945.226-.39-.226.222-.387.23-.402.391.226c1.68.973 3.129 2.36 4.188 4.008l.246.383-.387.246-.379.242-.246-.383A11.4 11.4 0 0 0 20.668 4.7m4.504 15.781.387.25-.243.383a12.3 12.3 0 0 1-3.25 3.403l-.37.261-.27-.375-.258-.363.371-.262a11.3 11.3 0 0 0 3.012-3.152l.246-.383ZM8.46 23.773l.371.262-.258.363-.27.375-.37-.261a12.36 12.36 0 0 1-3.797-4.348l-.211-.402.41-.215.394-.203.211.402a11.4 11.4 0 0 0 3.52 4.027m0 0"/></g></svg>