<svg xmlns="http://www.w3.org/2000/svg" width="40" height="40" version="1.0" viewBox="0 0 30 30"><defs><clipPath id="a"><path d="M5 1.453h20v26.129H5Zm0 0"/></clipPath><clipPath id="b"><path d="M25 6h4.516v5H25Zm0 0"/></clipPath><clipPath id="c"><path d="M.484 11H5v5H.484Zm0 0"/></clipPath></defs><g clip-path="url(#a)"><path fill="#061c3d" d="M21.984 27.59H7.848q-.44 0-.844-.168a2.2 2.2 0 0 1-.711-.477 2.2 2.2 0 0 1-.645-1.554V3.668q0-.435.168-.84c.114-.27.27-.508.477-.71q.312-.313.71-.477.405-.17.845-.168h14.136q.435-.001.84.168.405.165.715.476.305.306.477.711.164.405.164.84v21.727q0 .434-.168.84-.166.404-.477.71a2.1 2.1 0 0 1-.71.477 2.2 2.2 0 0 1-.84.168M7.848 2.066q-.321 0-.614.122c-.199.082-.37.199-.523.347a1.7 1.7 0 0 0-.348.52q-.119.297-.12.613v21.727c0 .21.042.418.12.613q.124.294.348.52c.152.152.324.265.523.347q.293.122.614.121h14.136q.318.001.614-.121c.195-.082.37-.195.52-.348.152-.148.265-.324.347-.52.082-.195.12-.402.12-.612V3.668c0-.211-.038-.418-.12-.613a1.6 1.6 0 0 0-.348-.52 1.6 1.6 0 0 0-.52-.348 1.6 1.6 0 0 0-.613-.12Zm0 0"/></g><path fill="#061c3d" d="M22.473 24.063H7.359a.3.3 0 0 1-.21-.09.29.29 0 0 1-.087-.211V5.297q0-.124.086-.207A.3.3 0 0 1 7.36 5h15.114a.3.3 0 0 1 .21.09.27.27 0 0 1 .087.207v18.465a.29.29 0 0 1-.086.21.3.3 0 0 1-.211.09m-14.817-.598h14.52V5.594H7.656ZM17.133 3.875h-4.434a.29.29 0 0 1-.21-.086.3.3 0 0 1-.09-.21.3.3 0 0 1 .09-.212.29.29 0 0 1 .21-.086h4.434q.123 0 .21.086a.29.29 0 0 1 .087.211.29.29 0 0 1-.086.211.29.29 0 0 1-.211.086M11.605 3.875h-.507a.29.29 0 0 1-.211-.086.29.29 0 0 1-.086-.21q-.001-.124.086-.212a.29.29 0 0 1 .21-.086h.508q.124 0 .211.086a.29.29 0 0 1 .086.211.29.29 0 0 1-.086.211.29.29 0 0 1-.21.086M14.914 26.652a1.12 1.12 0 0 1-.809-.336 1.12 1.12 0 0 1-.336-.809 1.14 1.14 0 0 1 .336-.812c.106-.105.23-.191.372-.246a1.12 1.12 0 0 1 .878 0c.137.055.262.14.372.246a1.18 1.18 0 0 1 .335.813q0 .228-.09.437a1.14 1.14 0 0 1-1.058.707m0-1.699a.53.53 0 0 0-.39.164.54.54 0 0 0-.16.39c0 .153.05.282.16.391q.163.16.39.16a.54.54 0 0 0 .39-.16.53.53 0 0 0 .165-.39.53.53 0 0 0-.164-.39.53.53 0 0 0-.39-.165m0 0"/><path fill="#061c3d" d="M12.867 9.66a1.1 1.1 0 0 1-.484-.426 1.03 1.03 0 0 1-.164-.62V6.897a.18.18 0 0 1 .054-.14.2.2 0 0 1 .141-.059q.2 0 .2.2v1.726a.74.74 0 0 0 .116.441q.119.18.313.274a.97.97 0 0 0 .832 0 .74.74 0 0 0 .316-.274.8.8 0 0 0 .118-.441V6.898q0-.081.058-.14a.18.18 0 0 1 .137-.059q.2 0 .2.2v1.71q.011.358-.18.657a1.15 1.15 0 0 1-.47.394 1.35 1.35 0 0 1-1.187 0m0 0"/><path fill="#061c3d" d="M13.46 9.852a1.5 1.5 0 0 1-.616-.137 1.14 1.14 0 0 1-.512-.445 1.12 1.12 0 0 1-.172-.657V6.898q-.004-.168.156-.238a.23.23 0 0 1 .278.059q.08.075.078.18v1.726a.699.699 0 0 0 .398.664.92.92 0 0 0 .785 0 .7.7 0 0 0 .29-.254.75.75 0 0 0 .109-.41V6.898q-.004-.168.156-.238a.24.24 0 0 1 .281.059q.076.075.075.18v1.714a1.15 1.15 0 0 1-.684 1.102 1.5 1.5 0 0 1-.621.137m-1.046-3.09a.12.12 0 0 0-.098.039.13.13 0 0 0-.039.097v1.715q-.01.335.172.617.165.252.442.375a1.3 1.3 0 0 0 1.14 0c.184-.082.328-.207.442-.375a1.05 1.05 0 0 0 .172-.617V6.898a.125.125 0 0 0-.086-.125.125.125 0 0 0-.149.028.12.12 0 0 0-.039.097v1.727a.84.84 0 0 1-.129.473.8.8 0 0 1-.34.297c-.293.132-.59.132-.882 0a.8.8 0 0 1-.34-.297.84.84 0 0 1-.13-.473V6.898a.14.14 0 0 0-.038-.097.12.12 0 0 0-.098-.04M15.348 9.715a.18.18 0 0 1-.055-.13c0-.042.012-.085.039-.12l1-1.23-.992-1.223a.2.2 0 0 1-.04-.121q-.003-.199.192-.192.048 0 .09.024c.031.011.05.03.07.054l.914 1.16.914-1.167a.15.15 0 0 1 .145-.07c.05 0 .098.019.133.054a.17.17 0 0 1 .058.133q0 .057-.035.11l-1 1.233 1 1.23q.041.049.04.114.002.078-.055.137a.18.18 0 0 1-.157.055.18.18 0 0 1-.14-.082l-.926-1.164-.914 1.171a.18.18 0 0 1-.152.075.16.16 0 0 1-.13-.051m0 0"/><path fill="#061c3d" d="M17.625 9.828a.23.23 0 0 1-.203-.105l-.879-1.106-.867 1.11a.244.244 0 0 1-.442-.141.25.25 0 0 1 .051-.156l.973-1.196-.961-1.183a.27.27 0 0 1-.055-.16q0-.105.074-.18c.086-.086.188-.098.297-.043q.051.029.09.074l.863 1.102.868-1.11a.24.24 0 0 1 .18-.093.24.24 0 0 1 .187.07q.075.07.074.176c0 .05-.016.101-.047.144l-.973 1.2.973 1.19a.2.2 0 0 1 .05.15.23.23 0 0 1-.07.179.24.24 0 0 1-.183.078m-1.086-1.402.977 1.222q.053.089.152.059.095-.034.09-.133a.1.1 0 0 0-.024-.074l-1.03-1.27 1.03-1.273a.1.1 0 0 0 .024-.07.11.11 0 0 0-.04-.09.14.14 0 0 0-.093-.035.09.09 0 0 0-.094.043l-.965 1.23-.96-1.219a.1.1 0 0 0-.047-.039.13.13 0 0 0-.16.02.11.11 0 0 0-.036.094.11.11 0 0 0 .028.086l1.02 1.257L15.378 9.5a.14.14 0 0 0-.027.086q-.002.051.039.086.04.04.097.035a.12.12 0 0 0 .094-.055ZM13.309 15.309a1.1 1.1 0 0 1-.485-.426 1.1 1.1 0 0 1-.164-.621v-1.715q.001-.083.055-.14a.2.2 0 0 1 .14-.06q.2 0 .2.2v1.723a.8.8 0 0 0 .117.44.7.7 0 0 0 .316.274.94.94 0 0 0 .832 0 .7.7 0 0 0 .313-.273.73.73 0 0 0 .117-.441v-1.723q0-.083.059-.14a.18.18 0 0 1 .136-.06q.2 0 .2.2v1.71a1.1 1.1 0 0 1-.649 1.052c-.394.18-.793.18-1.187 0m0 0"/><path fill="#061c3d" d="M13.902 15.496q-.32.001-.617-.133a1.16 1.16 0 0 1-.683-1.101v-1.715c0-.113.05-.195.156-.238a.24.24 0 0 1 .281.054q.077.078.078.184v1.723a.69.69 0 0 0 .399.664c.257.117.52.117.78 0a.7.7 0 0 0 .4-.664v-1.723a.23.23 0 0 1 .156-.238.24.24 0 0 1 .28.054q.08.078.075.184v1.71a1.15 1.15 0 0 1-.684 1.102 1.4 1.4 0 0 1-.62.137m-1.047-3.086a.12.12 0 0 0-.097.04.13.13 0 0 0-.04.097v1.715q-.01.335.173.617.17.252.445.375.569.264 1.137 0 .275-.123.445-.375.18-.283.168-.617v-1.715a.12.12 0 0 0-.04-.098c-.066-.066-.128-.066-.194 0a.14.14 0 0 0-.04.102v1.722a.84.84 0 0 1-.128.473.8.8 0 0 1-.34.297 1.03 1.03 0 0 1-.883 0 .77.77 0 0 1-.336-.297.78.78 0 0 1-.129-.473v-1.722a.14.14 0 0 0-.043-.102.12.12 0 0 0-.098-.039M16.023 15.36a.18.18 0 0 1-.058-.137v-2.676q0-.083.058-.14a.18.18 0 0 1 .137-.06q.2 0 .2.2v2.676q0 .08-.06.136a.18.18 0 0 1-.14.055.17.17 0 0 1-.137-.055m0 0"/><path fill="#061c3d" d="M16.16 15.477a.24.24 0 0 1-.18-.075.24.24 0 0 1-.074-.18v-2.675q0-.104.074-.18.075-.077.184-.078.104 0 .18.078.076.072.078.184v2.672a.24.24 0 0 1-.078.18.25.25 0 0 1-.184.074m-.098-.157q.1.094.2 0a.13.13 0 0 0 .039-.097V12.55a.14.14 0 0 0-.04-.102c-.046-.043-.093-.054-.152-.027q-.087.035-.082.129v2.672c-.004.039.012.07.035.097M20.715 11.238H9.117a.29.29 0 0 1-.21-.086.29.29 0 0 1-.087-.21q0-.124.086-.212a.29.29 0 0 1 .211-.085h11.598q.124-.001.207.085a.3.3 0 0 1 .09.211.3.3 0 0 1-.09.211.27.27 0 0 1-.207.086M20.465 22.281H9.367a.29.29 0 0 1-.21-.086.29.29 0 0 1-.087-.21q0-.124.086-.212a.29.29 0 0 1 .211-.085h11.098q.123-.001.21.085a.29.29 0 0 1 .087.211.29.29 0 0 1-.086.211.29.29 0 0 1-.211.086M18.645 20.793h-7.457a.29.29 0 0 1-.211-.086.29.29 0 0 1-.086-.21q-.001-.124.086-.212a.29.29 0 0 1 .21-.086h7.458q.124 0 .207.086a.3.3 0 0 1 .09.211.3.3 0 0 1-.09.211.27.27 0 0 1-.207.086M17.063 19.48h-4.297a.8.8 0 0 1-.586-.242.8.8 0 0 1-.242-.586v-1.394q.001-.345.242-.586a.79.79 0 0 1 .586-.246h4.297q.345 0 .585.246.247.24.247.586v1.394q0 .345-.247.586a.8.8 0 0 1-.585.242m-4.297-2.457q-.235 0-.235.235v1.394q0 .235.235.235h4.297q.234 0 .234-.235v-1.394q0-.234-.235-.235ZM25.676 8.43h-4.961a.29.29 0 0 1-.211-.086.29.29 0 0 1-.086-.211q-.001-.124.086-.211a.29.29 0 0 1 .21-.086h4.962q.124-.001.207.086a.3.3 0 0 1 .09.21.3.3 0 0 1-.09.212.27.27 0 0 1-.207.086m0 0"/><g clip-path="url(#b)"><path fill="#061c3d" d="M29.297 10.242h-3.621a.29.29 0 0 1-.211-.086.29.29 0 0 1-.086-.21V6.32q-.001-.124.086-.207a.3.3 0 0 1 .21-.09h3.622a.3.3 0 0 1 .21.09.27.27 0 0 1 .087.207v3.625a.29.29 0 0 1-.086.211.29.29 0 0 1-.211.086m-3.324-.594H29v-3.03h-3.027Zm0 0"/></g><path fill="#061c3d" d="M28.242 7.902h-1.515a.28.28 0 0 1-.207-.09.29.29 0 0 1 0-.418.28.28 0 0 1 .207-.085h1.515q.124-.001.211.086a.29.29 0 0 1 .086.21.27.27 0 0 1-.086.207.3.3 0 0 1-.21.09M28.242 8.96h-1.515a.28.28 0 0 1-.207-.089.29.29 0 0 1 0-.418.28.28 0 0 1 .207-.086h1.515q.124 0 .211.086a.29.29 0 0 1 .086.211.27.27 0 0 1-.086.207.3.3 0 0 1-.21.09M9.367 14.113h-4.96a.3.3 0 0 1-.212-.09.28.28 0 0 1-.086-.207q0-.123.086-.21a.3.3 0 0 1 .211-.09h4.961q.125 0 .207.09a.29.29 0 0 1 0 .417.28.28 0 0 1-.207.09m0 0"/><g clip-path="url(#c)"><path fill="#061c3d" d="M4.406 15.926H.781a.3.3 0 0 1-.21-.09.28.28 0 0 1-.087-.207v-3.625q0-.123.086-.211a.29.29 0 0 1 .211-.086h3.625q.124-.001.207.086a.3.3 0 0 1 .09.21v3.626a.28.28 0 0 1-.09.207.28.28 0 0 1-.207.09m-3.328-.598H4.11v-3.027H1.08Zm0 0"/></g><path fill="#061c3d" d="M3.465 13.582H1.723a.29.29 0 0 1-.211-.086.3.3 0 0 1 0-.422.29.29 0 0 1 .21-.086h1.743q.124 0 .207.086a.3.3 0 0 1 .09.211.3.3 0 0 1-.09.211.27.27 0 0 1-.207.086M3.465 14.64H1.723a.29.29 0 0 1-.211-.085.3.3 0 0 1 0-.422.29.29 0 0 1 .21-.086h1.743q.124-.001.207.086a.3.3 0 0 1 .09.21.3.3 0 0 1-.09.212.27.27 0 0 1-.207.086m0 0"/></svg>