<svg xmlns="http://www.w3.org/2000/svg" width="40" height="40" version="1.0" viewBox="0 0 30 30"><defs><clipPath id="a"><path d="M.484 4.102h29.032V25H.484Zm0 0"/></clipPath><clipPath id="b"><path d="M15 4.102h2V6h-2Zm0 0"/></clipPath><clipPath id="c"><path d="M13 4.102h3V6h-3Zm0 0"/></clipPath></defs><g clip-path="url(#a)"><path fill="#061c3d" d="M29.492 23.617a1.31 1.31 0 0 1-1.312 1.309H1.813A1.31 1.31 0 0 1 .5 23.617V5.418a1.31 1.31 0 0 1 1.313-1.313H28.18a1.31 1.31 0 0 1 1.312 1.313z"/></g><path fill="#fff" d="M28.547 22.54H1.55V5.94h26.996zM15.727 23.754a.811.811 0 1 1-1.623-.005.811.811 0 0 1 1.623.005"/><g clip-path="url(#b)"><path fill="#fff" d="M16.414 5.055a.31.31 0 0 1-.621 0 .31.31 0 0 1 .621 0"/></g><g clip-path="url(#c)"><path fill="#fff" d="M15.625 5.055c0 .14-.078.254-.176.254h-2.172c-.093 0-.172-.114-.172-.254s.079-.258.172-.258h2.172c.098 0 .176.117.176.258"/></g><path fill="#061c3d" d="M15.227 23.973c0 .05-.04.09-.09.09h-.442c-.05 0-.09-.04-.09-.09v-.442c0-.05.04-.09.09-.09h.442c.05 0 .09.04.09.09Zm.07-.758h-.762a.157.157 0 0 0-.156.156v.762c0 .086.07.156.156.156h.762c.086 0 .156-.07.156-.156v-.762a.157.157 0 0 0-.156-.156"/></svg>