<svg xmlns="http://www.w3.org/2000/svg" width="40" height="40" version="1.0" viewBox="0 0 30 30"><defs><clipPath id="a"><path d="M.484 0h29.032v29H.484Zm0 0"/></clipPath></defs><g clip-path="url(#a)"><path fill="#061c3d" d="M21.832 14.293a.463.463 0 0 1-.465.465H16.86a.467.467 0 1 1 0-.934h4.508c.258 0 .465.211.465.469m-.465 2.633H16.86a.467.467 0 1 0 0 .934h4.508a.467.467 0 0 0 0-.934m0 1.55H16.86a.467.467 0 1 0 0 .934h4.508a.467.467 0 0 0 0-.934m0-3.101H16.86a.467.467 0 1 0 0 .934h4.508a.467.467 0 0 0 0-.934m-4.976-2.633c0 .258.21.465.468.465h4.508a.463.463 0 0 0 .465-.465.463.463 0 0 0-.465-.465H16.86a.467.467 0 0 0-.468.465m12.316-6.691a4 4 0 0 1-.32.765l.218.493a.47.47 0 0 1-.097.52l-.406.41a14.3 14.3 0 0 1 1.406 6.222c0 3.86-1.504 7.492-4.235 10.223a14.38 14.38 0 0 1-10.226 4.234c-1.715 0-3.39-.297-4.988-.883-.02 0-.04.004-.059 0a.47.47 0 0 1-.39-.23l-.844-1.461h-.477l-.238.41.844 1.46c.082.141.082.313.007.458a.47.47 0 0 1-.386.242c-.043.004-.09.004-.133.004a2.4 2.4 0 0 1-2.09-1.207 2.4 2.4 0 0 1-.215-1.91 14.34 14.34 0 0 1-4.805-6.938 2.396 2.396 0 0 1-.555-2.46A15 15 0 0 1 .59 14.46c0-3.863 1.504-7.496 4.234-10.227A14.36 14.36 0 0 1 15.047 0c2.183 0 4.273.473 6.223 1.406l.41-.41a.46.46 0 0 1 .515-.094l.496.22q.366-.2.766-.321l.191-.504A.47.47 0 0 1 24.086 0h1.18c.195 0 .367.117.437.297l.192.504q.399.122.77.32l.491-.219a.47.47 0 0 1 .52.094l.832.836a.47.47 0 0 1 .097.52l-.218.492q.198.367.32.77l.5.19c.18.071.3.243.3.434v1.184a.465.465 0 0 1-.3.433ZM5.625 24.164l-2.64-4.57q-.24 0-.477-.051a13.4 13.4 0 0 0 3.117 4.621m4.234 2.203a1.5 1.5 0 0 0-.195-.601 1.48 1.48 0 0 0-1.469-.727.47.47 0 0 1-.46-.23l-3.59-6.215a.47.47 0 0 1 .035-.516 1.48 1.48 0 0 0-.325-2.105l.422.726a.48.48 0 0 1 0 .469l-.507.879a.47.47 0 0 1-.407.23H2.348a.46.46 0 0 1-.403-.23l-.418-.727a1.479 1.479 0 0 0 1.66 1.332q.03-.005.06-.004c.163 0 .32.086.401.23l3.59 6.216a.47.47 0 0 1-.031.515 1.48 1.48 0 0 0 .32 2.106l-.418-.727a.45.45 0 0 1 0-.465l.508-.878a.46.46 0 0 1 .403-.235h1.015c.168 0 .32.09.402.235Zm-.527-18.07v.223h4.73v-.223c0-.832-.43-1.582-1.113-2.004l-.113.879a.464.464 0 0 1-.461.406H11.02a.464.464 0 0 1-.461-.406l-.114-.879a2.35 2.35 0 0 0-1.113 2.004m2.098-1.649h.535l.137-1.062c-.047-.031-.172-.078-.403-.098-.234.02-.36.067-.406.098ZM9.727 9.453c.187.918 1 1.61 1.968 1.61h.004c.969 0 1.781-.692 1.969-1.61Zm4.765 3.54a4.4 4.4 0 0 0-1.77-.876l.618 1.934a.48.48 0 0 1-.098.453l-.824.93h2.074Zm-3.465 1.089.672.758.668-.758-.66-2.086h-.02Zm-.972-.031.617-1.934a4.42 4.42 0 0 0-2.707 1.926l.348.371a.45.45 0 0 1 .12.274l.07.746h2.474l-.825-.93a.48.48 0 0 1-.097-.453m-3.547-.207-.5.289.433 1.422.754.535q.083.06.137.148l2.941 5.09.332-.191-2.94-5.094a.5.5 0 0 1-.06-.191l-.085-.918Zm3.68 8.613 2.449 4.246 1.437-.832-2.449-4.246Zm18.386-7.996c0-1.984-.418-3.887-1.238-5.66a.6.6 0 0 1-.18-.04l-.492-.218a4.3 4.3 0 0 1-.77.316l-.19.504a.47.47 0 0 1-.438.297h-1.18a.47.47 0 0 1-.438-.297l-.191-.504a4 4 0 0 1-.766-.316l-.492.219a.47.47 0 0 1-.52-.098l-.835-.836a.47.47 0 0 1-.098-.52l.219-.492a4 4 0 0 1-.317-.765l-.503-.196a.46.46 0 0 1-.297-.433V4.238c0-.191.117-.363.297-.433l.503-.192a4 4 0 0 1 .317-.77l-.219-.491a.4.4 0 0 1-.039-.18 13.4 13.4 0 0 0-5.66-1.238C7.59.934 1.52 7 1.52 14.46q0 .622.058 1.238a.48.48 0 0 1 .195.188l.844 1.46h.477l.238-.413-.844-1.461a.48.48 0 0 1-.004-.457.46.46 0 0 1 .383-.243c.914-.05 1.766.41 2.223 1.204.433.75.43 1.66.008 2.398l3.3 5.719c.852.004 1.641.457 2.075 1.207.351.605.414 1.316.203 1.96q.72.248 1.465.41a.7.7 0 0 1-.079-.097l-2.714-4.707a.85.85 0 0 1-.086-.66.84.84 0 0 1 .218-.383l-2.906-5.031-.8-.57a.46.46 0 0 1-.176-.243l-.59-1.93a.46.46 0 0 1 .21-.538l1.141-.66a.47.47 0 0 1 .579.085l.375.403a5.37 5.37 0 0 1 2.582-1.965 2.93 2.93 0 0 1-1.11-1.922h-.39a.467.467 0 1 1 0-.934h.003v-.218c0-1.34.797-2.524 2.008-3.04a1 1 0 0 1 .145-.253c.219-.266.594-.418 1.113-.453h.066c.52.035.895.187 1.114.453a.9.9 0 0 1 .144.254A3.29 3.29 0 0 1 14.996 8.3v.219H15a.467.467 0 1 1 0 .933h-.387A2.96 2.96 0 0 1 13.5 11.38q.523.183.992.473v-.711c0-.52.426-.942.945-.942h1.372v-.156c0-.258.207-.465.464-.465h.743a1.27 1.27 0 0 1 1.097-.621c.461 0 .871.242 1.098.621h.738c.258 0 .469.207.469.465v.156h1.371c.52 0 .941.422.941.942v8.78a.943.943 0 0 1-.94.946h-7.352a.946.946 0 0 1-.946-.945v-3.555H8.93l2.5 4.332a.85.85 0 0 1 .441 0 .85.85 0 0 1 .527.406l2.72 4.704c.062.109.077.234.046.355a.44.44 0 0 1-.219.281L12.7 27.742q-.03.02-.058.031 1.185.211 2.406.211c7.46 0 13.527-6.066 13.527-13.523m-8.09-3.95h-.582a.47.47 0 0 1-.453-.359.347.347 0 0 0-.672 0 .47.47 0 0 1-.453.36h-.582v.308h2.742Zm-3.675.774v-.152h-1.372c-.003 0-.011.004-.011.008v8.78c0 .009.008.013.011.013h7.352q.007 0 .008-.012V11.14a.01.01 0 0 0-.008-.008h-1.371v.152c0 .258-.211.465-.469.465h-3.676a.463.463 0 0 1-.464-.465M28.574 4.56l-.426-.16a.48.48 0 0 1-.285-.329 3.2 3.2 0 0 0-.394-.953.47.47 0 0 1-.032-.437l.188-.414-.383-.383-.418.183a.46.46 0 0 1-.433-.027 3.2 3.2 0 0 0-.953-.394.47.47 0 0 1-.329-.29l-.164-.421h-.539l-.164.421a.46.46 0 0 1-.328.29q-.506.118-.953.394a.46.46 0 0 1-.434.027l-.414-.183-.383.383.184.414a.47.47 0 0 1-.031.437c-.18.293-.313.617-.395.953a.47.47 0 0 1-.285.328l-.426.16v.544l.426.164c.145.054.25.175.285.324q.124.51.395.957a.46.46 0 0 1 .031.433l-.184.415.383.382.414-.183a.47.47 0 0 1 .434.027q.447.275.953.399c.152.035.273.14.328.285l.164.422h.54l.163-.422a.46.46 0 0 1 .328-.285 3.3 3.3 0 0 0 .954-.399.47.47 0 0 1 .433-.027l.418.183.383-.382-.187-.415a.46.46 0 0 1 .03-.433 3.3 3.3 0 0 0 .395-.957.47.47 0 0 1 .285-.324l.426-.164Zm-1.37.273a2.528 2.528 0 0 1-5.056 0 2.53 2.53 0 0 1 2.528-2.527 2.53 2.53 0 0 1 2.527 2.527m-.934 0c0-.879-.715-1.594-1.594-1.594s-1.594.715-1.594 1.594.715 1.594 1.594 1.594 1.594-.715 1.594-1.594m0 0"/></g></svg>