<svg xmlns="http://www.w3.org/2000/svg" width="40" height="40" version="1.0" viewBox="0 0 30 30"><defs><clipPath id="a"><path d="M2.473 16H24v11H2.473Zm0 0"/></clipPath><clipPath id="b"><path d="M2.473 26H24v3H2.473Zm0 0"/></clipPath><clipPath id="c"><path d="M18 2h9.875v9H18Zm0 0"/></clipPath></defs><path fill="#061c3d" d="M12.828 16.172a.36.36 0 0 1-.289-.137l-2.012-2.484a.37.37 0 0 1-.082-.235v-1.843c0-.141.078-.266.2-.328a.37.37 0 0 1 .382.023 3.13 3.13 0 0 0 1.801.566c.645 0 1.27-.195 1.8-.566a.37.37 0 0 1 .384-.023c.12.062.199.187.199.328v1.843a.37.37 0 0 1-.082.235l-2.012 2.484a.37.37 0 0 1-.289.137m-1.64-2.985 1.64 2.024 1.64-2.024v-1.074a3.88 3.88 0 0 1-3.28 0Zm0 0"/><path fill="#061c3d" d="M12.828 12.477A3.91 3.91 0 0 1 8.922 8.57v-.25a.37.37 0 1 1 .742 0v.25a3.17 3.17 0 0 0 3.164 3.164 3.166 3.166 0 0 0 3.164-3.164V7.97a.37.37 0 1 1 .742 0v.601a3.913 3.913 0 0 1-3.906 3.907m0 0"/><path fill="#061c3d" d="M9.293 8.691a.36.36 0 0 1-.297-.152c-.203-.18-.77-.715-.84-2.75q-.023-.025-.047-.055c-.171-.242-.347-.75.09-2.421q.001-.019.008-.032c.016-.043.355-.965 1.574-1.304.387-.793 1.414-1.973 3.063-1.704a.38.38 0 0 1 .293.25c0 .008.008.028.011.047.692-.144 1.989-.289 2.696.45a.36.36 0 0 1 .101.234.64.64 0 0 1-.144.422c.191.117.398.265.605.46.649.61 1.403 1.766 1.317 3.833q-.001.053-.02.105c-.015.043-.387 1.121-1.027 2.098a.37.37 0 0 1-.434.148.38.38 0 0 1-.246-.386c.094-1.008.059-2.809-.453-3.348a.4.4 0 0 0-.258-.133c-1.441.723-3.472.723-4.914 0a.38.38 0 0 0-.226.125c-.54.563-.582 2.567-.485 3.703q.005.01.004.02a.37.37 0 0 1-.348.386q-.01.005-.023.004m5.95-4.98c.32 0 .609.125.835.363.48.504.645 1.489.688 2.348.113-.254.187-.453.218-.54.106-3.3-2.129-3.843-2.226-3.866a.37.37 0 0 1-.29-.399.375.375 0 0 1 .368-.332h.039c-.645-.195-1.59-.004-1.941.106a.38.38 0 0 1-.36-.075.38.38 0 0 1-.117-.336c-.574-.027-1.078.184-1.508.625-.379.391-.558.82-.558.825a.37.37 0 0 1-.266.226c-.895.192-1.176.77-1.215.864-.324 1.242-.246 1.652-.21 1.753a.38.38 0 0 1 .19.317q.006.287.028.594c.074-.829.266-1.676.691-2.121.239-.247.536-.368.868-.352q.08.007.156.043c1.25.664 3.137.664 4.39 0a.4.4 0 0 1 .157-.043zM20.254 17.469H5.402a.37.37 0 0 1-.28-.13.39.39 0 0 1-.087-.3 4.9 4.9 0 0 1 1.645-2.922 4.88 4.88 0 0 1 3.18-1.18h.956a.37.37 0 0 1 .325.192l1.687 2.082 1.688-2.082a.37.37 0 0 1 .324-.191h.957a4.9 4.9 0 0 1 3.18 1.18 4.9 4.9 0 0 1 1.644 2.921.38.38 0 0 1-.082.3.38.38 0 0 1-.285.13m-14.39-.742h13.929c-.488-1.762-2.137-3.047-3.996-3.047h-.774l-1.906 2.355a.37.37 0 0 1-.289.137.36.36 0 0 1-.289-.137l-1.91-2.355h-.77c-1.859 0-3.504 1.28-3.996 3.047m0 0"/><g clip-path="url(#a)"><path fill="#061c3d" d="M21.309 26.86H4.348a.37.37 0 0 1-.368-.317l-1.34-9.39a.4.4 0 0 1 .09-.298.37.37 0 0 1 .278-.128h19.64c.106 0 .207.046.278.128.07.082.105.188.09.297l-1.34 9.391a.37.37 0 0 1-.367.316m-16.641-.743h16.32l1.23-8.648H3.439Zm0 0"/></g><g clip-path="url(#b)"><path fill="#061c3d" d="M20.883 28.79H4.773c-1.27 0-2.3-1.032-2.3-2.302 0-.203.168-.37.37-.37h19.97a.37.37 0 0 1 .37.37c0 1.27-1.03 2.301-2.3 2.301M3.258 26.86c.168.68.785 1.187 1.515 1.187h16.11c.73 0 1.347-.508 1.515-1.188Zm0 0"/></g><path fill="#061c3d" d="M12.828 24.465a2.67 2.67 0 0 1-2.668-2.672 2.67 2.67 0 0 1 2.668-2.668c1.473 0 2.668 1.2 2.668 2.668a2.67 2.67 0 0 1-2.668 2.672m0-4.598a1.927 1.927 0 0 0 0 3.856 1.927 1.927 0 0 0 0-3.855m0 0"/><g clip-path="url(#c)"><path fill="#061c3d" d="M23.637 10.895h-.758a.675.675 0 0 1-.668-.641l-.035-.492a3 3 0 0 1-.371-.157l-.375.325a.67.67 0 0 1-.922-.02l-.535-.535a.664.664 0 0 1-.02-.922l.324-.375a2.6 2.6 0 0 1-.156-.375l-.492-.031a.675.675 0 0 1-.64-.668v-.758c0-.355.277-.64.64-.668l.492-.031a2.6 2.6 0 0 1 .156-.375l-.324-.375a.664.664 0 0 1 .02-.922l.535-.535a.67.67 0 0 1 .922-.02l.37.325q.188-.091.376-.157l.035-.492a.675.675 0 0 1 .668-.64h.758c.351 0 .64.277.664.64l.035.492q.194.067.375.157l.371-.325a.676.676 0 0 1 .926.02l.535.535c.25.25.258.648.016.922l-.32.375q.087.183.152.371l.492.035c.367.027.64.313.64.668v.758c0 .351-.273.64-.64.664l-.492.035a3 3 0 0 1-.153.375l.32.371a.67.67 0 0 1-.015.926l-.535.535a.676.676 0 0 1-.926.02l-.371-.325q-.181.088-.375.157l-.035.488a.67.67 0 0 1-.664.645m-.688-.743h.617l.047-.699a.37.37 0 0 1 .282-.332q.358-.093.675-.281a.37.37 0 0 1 .434.039l.527.457.438-.438-.457-.527a.37.37 0 0 1-.04-.434q.189-.316.282-.675a.37.37 0 0 1 .332-.282l.7-.046v-.618l-.7-.05a.37.37 0 0 1-.332-.278 2.7 2.7 0 0 0-.281-.68.365.365 0 0 1 .039-.43l.457-.53-.438-.438-.527.461a.37.37 0 0 1-.434.04 2.4 2.4 0 0 0-.675-.282.37.37 0 0 1-.282-.332l-.047-.7h-.617l-.05.7a.375.375 0 0 1-.278.332 2.6 2.6 0 0 0-.68.281.365.365 0 0 1-.43-.039l-.53-.46-.438.437.46.53a.365.365 0 0 1 .04.43c-.129.212-.223.442-.281.68a.375.375 0 0 1-.332.278l-.7.05v.618l.7.046a.37.37 0 0 1 .332.282 2.5 2.5 0 0 0 .281.676.37.37 0 0 1-.04.433l-.46.527.437.438.532-.461a.37.37 0 0 1 .43-.035q.32.189.68.277c.151.04.265.176.276.336Zm0 0"/></g><path fill="#061c3d" d="M23.258 8.574a1.95 1.95 0 0 1-1.95-1.949c0-1.074.876-1.95 1.95-1.95s1.949.876 1.949 1.95-.875 1.95-1.95 1.95m0-3.156c-.668 0-1.211.539-1.211 1.207a1.209 1.209 0 0 0 2.418 0c0-.668-.543-1.207-1.207-1.207m0 0"/></svg>