<svg xmlns="http://www.w3.org/2000/svg" width="40" height="40" version="1.0" viewBox="0 0 30 30"><defs><clipPath id="a"><path d="M.52 0h28.996v29H.52Zm0 0"/></clipPath></defs><path fill="#005baa" d="M21.004 18.496v.215c-1.05.184-1.848.969-1.848 1.906 0 1.145.953 1.547 1.848 1.82v2.094a2.7 2.7 0 0 1-1.227-.61.47.47 0 0 0-.66.005c-.18.183-.18.48.004.66.035.035.754.73 1.883.894v.211a.467.467 0 0 0 .934 0v-.218c1.05-.18 1.847-.965 1.847-1.903 0-1.152-.953-1.558-1.848-1.832v-2.086a2.74 2.74 0 0 1 1.227.61c.184.183.477.18.66-.004a.47.47 0 0 0-.004-.66c-.035-.032-.754-.73-1.883-.891v-.21a.467.467 0 1 0-.934 0m-.914 2.121c0-.43.387-.805.914-.949v1.789c-.617-.215-.914-.426-.914-.84m2.762 2.953c0 .43-.387.805-.915.95v-1.797c.618.215.915.43.915.847M20.281 9.191h-8.703a.463.463 0 0 0-.465.465v2.418c0 .258.207.469.465.469h8.703c.258 0 .465-.211.465-.469V9.656a.463.463 0 0 0-.465-.465m-.468 2.418h-7.766v-1.484h7.765ZM3.863 6.055h10.64a.467.467 0 0 0 0-.934H3.864a.467.467 0 0 0 0 .934m0 0"/><g clip-path="url(#a)"><path fill="#005baa" d="M29.453 10.723a1.96 1.96 0 0 0-.629-1.371l-.664-.622.285-.304a1.2 1.2 0 0 0 .325-.875 1.21 1.21 0 0 0-.387-.852l-2.664-2.476a.464.464 0 0 0-.657.027.46.46 0 0 0 .024.656l2.66 2.477c.059.054.09.125.094.203a.3.3 0 0 1-.078.203l-.285.305-7.098-6.602a.5.5 0 0 0-.16-.097L16.605.094a.467.467 0 0 0-.582.629l.48 1.082H.989a.467.467 0 0 0-.468.465v26.265c0 .258.21.465.468.465h16.39a.467.467 0 0 0 .47-.465v-2.043a5.67 5.67 0 0 0 3.62 1.301 5.706 5.706 0 0 0 5.704-5.7 5.71 5.71 0 0 0-4.492-5.573V9.023l3.457 3.22c.449.323.914.542 1.418.527a1.95 1.95 0 0 0 1.37-.63c.36-.386.548-.89.528-1.417M19.238 2.03l-1.09 1.172-.828-1.86Zm1.043 11.403h-8.703a.463.463 0 0 0-.465.464v8.485c0 .258.207.469.465.469h4.242q.06.449.188.875h-5.293a.6.6 0 0 1-.602-.602V8.918c0-.332.27-.605.602-.605h10.43c.332 0 .601.273.601.605v7.48a5.566 5.566 0 0 0-1 .04v-2.54a.463.463 0 0 0-.465-.464m-2.433 2.12v-1.187h1.965v1.188Zm1.965.934c-.786.325-1.465.707-1.942 1.188h-.023v-1.188Zm-4.868 3.309v-1.188h1.97q-.387.51-.661 1.188Zm.989.933a5.7 5.7 0 0 0-.16 1.188h-.829V20.73Zm-.989-3.054v-1.188h1.97v1.188Zm0-2.121v-1.188h1.97v1.188Zm-2.898 4.242v-1.188h1.965v1.188Zm1.965.933v1.188h-1.965V20.73Zm-1.965-3.054v-1.188h1.965v1.188Zm0-2.121v-1.188h1.965v1.188Zm5.8-8.176V4.527l3.067 2.852Zm-.933 20.687H1.454V2.738h15.46v4.64h-6.2c-.847 0-1.534.692-1.534 1.54v.512H3.863a.467.467 0 0 0 0 .934H9.18v3.37H3.863a.467.467 0 0 0 0 .934H9.18v3.371H3.863a.467.467 0 0 0 0 .934H9.18v3.37H3.863a.467.467 0 0 0 0 .934h5.325a1.54 1.54 0 0 0 1.527 1.383h5.664q.23.45.535.856Zm9.324-5.972a4.77 4.77 0 0 1-4.77 4.765 4.77 4.77 0 0 1-4.765-4.765 4.773 4.773 0 0 1 4.766-4.77c2.633 0 4.77 2.14 4.77 4.77m-7.57-18.078 1.414-1.524 5.715 5.317-1.414 1.523Zm9.574 7.488a1.037 1.037 0 0 1-1.469.055l-1.707-1.59 1.414-1.524 1.711 1.59a1.037 1.037 0 0 1 .051 1.469m0 0"/></g></svg>