<svg xmlns="http://www.w3.org/2000/svg" width="40" height="40" version="1.0" viewBox="0 0 30 30"><defs><clipPath id="a"><path d="M.848.363h28.304v28.305H.848Zm0 0"/></clipPath></defs><g clip-path="url(#a)"><path fill="#005baa" fill-rule="evenodd" d="M28.36 9.684c.554 1.52.855 3.156.855 4.863 0 7.836-6.348 14.183-14.184 14.183-3.289 0-6.32-1.12-8.726-3l-1.457 1.262a.42.42 0 0 1-.45.078.43.43 0 0 1-.28-.363l-.579-5.172a.43.43 0 0 1 .16-.39.42.42 0 0 1 .414-.082l4.79 1.511a.44.44 0 0 1 .3.332.43.43 0 0 1-.144.422l-1.27 1.106a12.18 12.18 0 0 0 7.242 2.37c6.77 0 12.258-5.488 12.258-12.257 0-1.371-.227-2.692-.64-3.922a.43.43 0 0 1 .156-.5l.875-.645a.44.44 0 0 1 .68.204M15.03.364c3.293 0 6.32 1.12 8.727 3.003l1.457-1.265a.42.42 0 0 1 .45-.079c.16.063.26.196.28.364l.578 5.172a.44.44 0 0 1-.16.394.43.43 0 0 1-.414.078L21.16 6.52a.43.43 0 0 1-.3-.332.43.43 0 0 1 .144-.422l1.27-1.106a12.2 12.2 0 0 0-7.243-2.37c-6.77 0-12.254 5.487-12.254 12.257a12.2 12.2 0 0 0 .641 3.926.44.44 0 0 1-.156.496l-.88.644a.44.44 0 0 1-.679-.203 14.1 14.1 0 0 1-.855-4.863C.848 6.715 7.195.363 15.03.363m0 4.73c5.223 0 9.453 4.234 9.453 9.453 0 5.223-4.23 9.457-9.453 9.457s-9.453-4.234-9.453-9.457c0-5.219 4.23-9.453 9.453-9.453m.946 8.304c.273.172.507.407.683.684h3.746a1.164 1.164 0 0 1 0 2.328H16.66a2.186 2.186 0 0 1-4.035-1.164c0-.777.41-1.46 1.023-1.848V9.457a1.164 1.164 0 0 1 2.328 0Zm-1.165 1.04c.446 0 .805.363.805.808a.807.807 0 1 1-1.613 0 .81.81 0 0 1 .809-.809m0 0"/></g></svg>