<svg xmlns="http://www.w3.org/2000/svg" width="40" height="40" version="1.0" viewBox="0 0 30 30"><defs><clipPath id="a"><path d="M.54 0h28.976v29H.539Zm0 0"/></clipPath><clipPath id="b"><path d="M21 20h8.516v7H21Zm0 0"/></clipPath><clipPath id="c"><path d="M21 26h8.516v3H21Zm0 0"/></clipPath><clipPath id="d"><path d="M21 0h8.516v7H21Zm0 0"/></clipPath><clipPath id="e"><path d="M21 6h8.516v3H21Zm0 0"/></clipPath><clipPath id="f"><path d="M.54 20H9v7H.54Zm0 0"/></clipPath><clipPath id="g"><path d="M.54 26H9v3H.54Zm0 0"/></clipPath><clipPath id="h"><path d="M.54 0H9v7H.54Zm0 0"/></clipPath><clipPath id="i"><path d="M.54 6H9v3H.54Zm0 0"/></clipPath></defs><path fill="#005baa" d="M18.223 15.531c-.852.383-1.985.59-3.188.59a.34.34 0 0 0-.254.106.35.35 0 0 0-.105.253q0 .151.105.254.104.105.254.106c1.3 0 2.54-.23 3.48-.652a.34.34 0 0 0 .188-.2.33.33 0 0 0-.004-.273.35.35 0 0 0-.203-.192.35.35 0 0 0-.273.008M15.035 13c1.3 0 2.54-.23 3.48-.652a.34.34 0 0 0 .188-.2.33.33 0 0 0-.004-.273.35.35 0 0 0-.203-.191.35.35 0 0 0-.273.007c-.852.383-1.985.59-3.188.59a.34.34 0 0 0-.254.106.35.35 0 0 0-.105.254c0 .101.035.183.105.254q.104.105.254.105M18.223 19.39c-.852.383-1.985.59-3.188.59a.34.34 0 0 0-.254.106.35.35 0 0 0-.105.254q0 .15.105.254.104.105.254.105c1.3 0 2.54-.23 3.48-.652a.34.34 0 0 0 .188-.2.33.33 0 0 0-.004-.273.35.35 0 0 0-.203-.191.35.35 0 0 0-.273.008m0 0"/><g clip-path="url(#a)"><path fill="#005baa" d="M28.613 12.684q-.006-.001-.011-.008a2.84 2.84 0 0 0-1.38-.926 2.8 2.8 0 0 0-1.66-.016c-.554.16-1.023.461-1.398.899a2.83 2.83 0 0 0-.668 1.52h-3.332v-.926q-.001-.345-.16-.649.159-.309.16-.652V9.383c0-.73-.57-1.395-1.61-1.867-.859-.395-1.972-.625-3.16-.664V6.05q.77-.094 1.387-.563.622-.468.922-1.187.302-.716.203-1.485a2.85 2.85 0 0 0-.57-1.386.3.3 0 0 0-.059-.078c0-.004-.004-.004-.007-.008a2.84 2.84 0 0 0-1.122-.832 2.7 2.7 0 0 0-.675-.192 3 3 0 0 0-.703-.023 3 3 0 0 0-.688.152A2.88 2.88 0 0 0 12.5 1.781a2.7 2.7 0 0 0-.262.657q-.092.34-.097.695a2.8 2.8 0 0 0 .074.699c.05.23.133.453.238.664.11.207.238.402.395.582a2.87 2.87 0 0 0 1.828.973v.8c-1.192.04-2.305.27-3.164.665-1.035.472-1.61 1.136-1.61 1.867v2.543q.004.343.16.652a1.4 1.4 0 0 0-.16.649v.925H6.574a2.86 2.86 0 0 0-.57-1.39.4.4 0 0 0-.059-.078l-.008-.008a3 3 0 0 0-.472-.457 3 3 0 0 0-.567-.34 2.83 2.83 0 0 0-1.281-.258q-.329.012-.652.094a2.842 2.842 0 0 0-1.156.61 2.8 2.8 0 0 0-.446.484 3 3 0 0 0-.511 1.203q-.058.327-.04.656a2.85 2.85 0 0 0 .364 1.258 2.85 2.85 0 0 0 1.46 1.277q.306.123.634.172.326.053.66.023.327-.023.644-.125a2.9 2.9 0 0 0 1.125-.668 2.9 2.9 0 0 0 .875-1.734h3.328v.899q.005.352.168.664c-.11.21-.164.43-.168.668v2.539c0 .734.57 1.398 1.61 1.87.86.395 1.972.626 3.164.665v.797q-.317.042-.617.148-.298.104-.567.274-.269.169-.496.39a2.911 2.911 0 0 0-.484 3.5c.105.184.23.352.37.512q.217.232.473.418c.172.12.36.223.555.305q.29.124.602.18a2.9 2.9 0 0 0 1.258-.048q.304-.08.585-.226a2.9 2.9 0 0 0 .965-.801q.198-.252.332-.54.137-.286.203-.597.069-.311.075-.629c0-.21-.024-.422-.067-.625a2.904 2.904 0 0 0-.527-1.14.4.4 0 0 0-.059-.078q-.001-.002-.007-.004a2.8 2.8 0 0 0-1.875-1.04v-.796c.343-.012.687-.04 1.02-.082 2.241-.297 3.75-1.285 3.75-2.453V17.1c0-.238-.06-.456-.169-.667q.166-.312.168-.664v-.899h3.332q.04.335.156.645.114.315.297.59c.121.187.266.355.426.511q.24.23.531.395a2.8 2.8 0 0 0 1.254.39q.335.025.664-.027a3 3 0 0 0 .637-.18 2.926 2.926 0 0 0 1.074-.762 2.88 2.88 0 0 0 .723-1.812 2.88 2.88 0 0 0-.59-1.86 1 1 0 0 0-.055-.077M3.7 16.688a2.16 2.16 0 0 1-1.453-.555 2.2 2.2 0 0 1-.348-.395 2.4 2.4 0 0 1-.242-.472 2.166 2.166 0 0 1-.113-1.043 2.15 2.15 0 0 1 .746-1.367q.2-.171.441-.29.237-.123.497-.175c.175-.04.347-.059.527-.051q.264.005.523.074a2.2 2.2 0 0 1 .914.516l-1.527 1.53-.703-.702a.34.34 0 0 0-.254-.11.35.35 0 0 0-.258.106.35.35 0 0 0-.105.258q.002.146.11.254l.956.957q.103.105.254.105a.35.35 0 0 0 .254-.105l1.71-1.715q.131.25.196.523a2.2 2.2 0 0 1-.261 1.614A2.167 2.167 0 0 1 3.7 16.688m11.336-4.762q.124.001.242-.004c.043 0 .086-.004.13-.004.038 0 .077-.004.113-.004q.086-.007.168-.008.04-.005.074-.004.094-.01.187-.015.024-.005.047-.004.1-.013.2-.02.017-.005.034-.004c.07-.007.137-.02.204-.027.007 0 .02 0 .027-.004.066-.008.133-.02.2-.027q.012-.004.03-.008.094-.013.188-.031.018-.004.035-.008l.18-.035q.022-.004.039-.008.086-.017.168-.04l.05-.01a2 2 0 0 0 .153-.04.3.3 0 0 0 .058-.016q.07-.016.141-.039a1 1 0 0 0 .067-.02q.063-.015.125-.038l.074-.024c.039-.011.074-.027.113-.039q.041-.016.082-.03c.035-.013.066-.028.102-.04l.09-.035a1 1 0 0 0 .09-.04c.023-.007.046-.019.07-.027q.006-.003.007-.007l.032-.012q.48-.216.89-.543v1.215c0 .863-1.812 1.824-4.41 1.824-2.601 0-4.414-.96-4.414-1.824V10.71q.41.33.89.543c.946.434 2.196.672 3.524.672m0 5.664c-2.601 0-4.414-.961-4.414-1.82v-1.22q.41.334.89.544c.946.433 2.2.672 3.524.672s2.574-.239 3.52-.672q.48-.21.89-.543v1.219c0 .859-1.812 1.82-4.41 1.82m4.406-4.336c-.035.855-1.836 1.793-4.406 1.793-2.574 0-4.37-.938-4.41-1.793q.405.327.887.543c.945.433 2.199.672 3.523.672s2.574-.239 3.52-.672a4 4 0 0 0 .886-.543m-8.82 3.84q.41.332.89.543c.946.433 2.2.672 3.524.672s2.574-.239 3.52-.672q.48-.21.89-.543v.008c0 .859-1.812 1.82-4.41 1.82-2.601 0-4.414-.961-4.414-1.82zM12.86 3.18a2.1 2.1 0 0 1 .356-1.196q.358-.544.957-.8a2.1 2.1 0 0 1 1.238-.145c.426.074.8.262 1.113.559l-1.527 1.527-.703-.703a.36.36 0 0 0-.504.004.34.34 0 0 0-.105.254c0 .097.03.18.101.25l.957.957q.106.105.254.105a.35.35 0 0 0 .254-.105l1.715-1.711q.111.221.176.46a2.2 2.2 0 0 1 .023.973 2.1 2.1 0 0 1-.402.891q-.147.199-.34.355a2 2 0 0 1-.41.27q-.222.11-.461.168-.24.06-.489.062a2.05 2.05 0 0 1-.953-.207 2.2 2.2 0 0 1-1.03-1.015 2 2 0 0 1-.165-.465 2 2 0 0 1-.055-.488m1.817 4.39v1.813c0 .101.035.183.105.254q.104.105.254.105a.35.35 0 0 0 .254-.105.34.34 0 0 0 .106-.254V7.57c2.402.082 4.05.992 4.05 1.813 0 .539-.703 1.113-1.86 1.469q-.005.003-.019.007c-.043.012-.09.028-.136.04l-.047.011q-.062.018-.125.035c-.024.004-.047.012-.07.016l-.106.023-.094.024c-.031.008-.058.012-.09.02q-.06.012-.113.019a1 1 0 0 1-.078.015l-.133.024c-.02.004-.043.004-.062.008l-.149.023c-.02.004-.039.004-.054.008q-.08.01-.16.02-.028.002-.055.003a2 2 0 0 1-.16.016q-.031.004-.063.008l-.156.012c-.027 0-.05.004-.078.004q-.073.003-.145.007c-.039 0-.074.004-.113.004s-.074.004-.113.004c-.079 0-.153.004-.23.004-2.602 0-4.415-.96-4.415-1.824 0-.82 1.649-1.73 4.055-1.813m.36 20.453q-.27 0-.528-.066a2.2 2.2 0 0 1-.926-.488 2.4 2.4 0 0 1-.352-.399 2.4 2.4 0 0 1-.242-.472 2.3 2.3 0 0 1-.12-.512 2.2 2.2 0 0 1 .394-1.508c.105-.144.222-.273.36-.387q.199-.175.44-.293a2.2 2.2 0 0 1 1.024-.226c.18.004.351.027.523.078a2.14 2.14 0 0 1 .914.512l-1.527 1.531-.703-.703a.35.35 0 0 0-.254-.106.35.35 0 0 0-.254.106.34.34 0 0 0-.105.254q0 .146.105.254l.957.957q.106.105.254.105a.35.35 0 0 0 .254-.105l1.715-1.711q.128.248.191.52.062.273.051.554a2.2 2.2 0 0 1-.086.55 2.2 2.2 0 0 1-1.02 1.273c-.163.095-.335.161-.515.208-.18.051-.367.074-.55.074m1.284-6.644a9.5 9.5 0 0 1-1.285.086c-2.601 0-4.414-.961-4.414-1.824v-1.215q.41.33.89.543c.946.433 2.196.672 3.524.672 1.324 0 2.574-.239 3.52-.672.32-.14.617-.324.89-.543v1.215c0 .757-1.343 1.504-3.125 1.738m10.047-4.692a2.2 2.2 0 0 1-1.02-.25 2 2 0 0 1-.433-.304 2 2 0 0 1-.348-.395 2 2 0 0 1-.242-.472 2 2 0 0 1-.12-.516 2.17 2.17 0 0 1 .136-1.04q.1-.246.254-.464a2.3 2.3 0 0 1 .36-.39 2.2 2.2 0 0 1 1.987-.442q.259.072.489.203.232.13.43.313l-1.532 1.53-.703-.702a.33.33 0 0 0-.254-.11.35.35 0 0 0-.254.106.35.35 0 0 0-.105.254.35.35 0 0 0 .105.258l.957.957q.106.105.254.105a.34.34 0 0 0 .254-.105l1.715-1.715q.128.25.191.523.063.274.055.555-.014.279-.09.547a2.173 2.173 0 0 1-2.086 1.555m0 0"/></g><g clip-path="url(#b)"><path fill="#005baa" d="M28.371 20.414H22.31a.86.86 0 0 0-.63.262.86.86 0 0 0-.261.629v4.011q.002.37.262.63a.86.86 0 0 0 .629.261h6.062q.37-.002.629-.262a.85.85 0 0 0 .262-.629v-4.011a.85.85 0 0 0-.262-.63.86.86 0 0 0-.629-.26m.172 4.902q-.001.172-.172.172H22.31q-.172 0-.172-.172v-4.011q0-.172.172-.172h6.062q.17 0 .172.172Zm0 0"/></g><g clip-path="url(#c)"><path fill="#005baa" d="M28.902 26.52h-7.125a.35.35 0 0 0-.254.105.35.35 0 0 0-.105.254v1.504q0 .146.105.254.107.105.254.105h7.125a.35.35 0 0 0 .254-.105.35.35 0 0 0 .106-.254v-1.504a.35.35 0 0 0-.106-.254.35.35 0 0 0-.254-.105m-.359 1.503h-6.406v-.785h6.406Zm0 0"/></g><g clip-path="url(#d)"><path fill="#005baa" d="M28.371.285H22.31a.85.85 0 0 0-.63.262.86.86 0 0 0-.261.629v4.012q.002.37.262.628a.86.86 0 0 0 .629.262h6.062q.37-.002.629-.262a.85.85 0 0 0 .262-.628V1.176A.85.85 0 0 0 29 .546a.85.85 0 0 0-.629-.26m.172 4.903q-.001.17-.172.171H22.31q-.172 0-.172-.171V1.176q0-.17.172-.172h6.062q.17.001.172.172Zm0 0"/></g><g clip-path="url(#e)"><path fill="#005baa" d="M28.902 6.39h-7.125a.35.35 0 0 0-.254.106.35.35 0 0 0-.105.254v1.504q0 .148.105.254.107.105.254.105h7.125a.35.35 0 0 0 .254-.105.35.35 0 0 0 .106-.254V6.75a.35.35 0 0 0-.106-.254.35.35 0 0 0-.254-.105m-.359 1.505h-6.406v-.786h6.406Zm0 0"/></g><g clip-path="url(#f)"><path fill="#005baa" d="M7.758 20.414H1.695a.87.87 0 0 0-.629.262.86.86 0 0 0-.261.629v4.011c0 .247.09.457.261.63a.87.87 0 0 0 .63.261h6.062q.37-.002.629-.262a.85.85 0 0 0 .261-.629v-4.011a.85.85 0 0 0-.261-.63.86.86 0 0 0-.63-.26m.172 4.902q-.001.172-.172.172H1.695q-.17 0-.172-.172v-4.011q.001-.172.172-.172h6.063q.17 0 .172.172Zm0 0"/></g><g clip-path="url(#g)"><path fill="#005baa" d="M8.29 26.52H1.163a.35.35 0 0 0-.254.105.35.35 0 0 0-.105.254v1.504q0 .146.105.254.106.105.254.105H8.29a.35.35 0 0 0 .254-.105.35.35 0 0 0 .105-.254v-1.504a.35.35 0 0 0-.105-.254.35.35 0 0 0-.254-.105m-.36 1.503H1.523v-.785H7.93Zm0 0"/></g><g clip-path="url(#h)"><path fill="#005baa" d="M1.695 6.078h6.063q.37-.002.629-.262a.85.85 0 0 0 .261-.628V1.176a.85.85 0 0 0-.261-.63.85.85 0 0 0-.63-.26H1.696a.85.85 0 0 0-.629.26.86.86 0 0 0-.261.63v4.012c0 .246.09.453.261.628a.87.87 0 0 0 .63.262m-.172-4.902q.001-.17.172-.172h6.063q.17.001.172.172v4.012q-.001.17-.172.171H1.695q-.17 0-.172-.171Zm0 0"/></g><g clip-path="url(#i)"><path fill="#005baa" d="M1.164 8.61H8.29a.35.35 0 0 0 .36-.36v-1.5a.35.35 0 0 0-.106-.254.35.35 0 0 0-.254-.105H1.164a.35.35 0 0 0-.254.105.35.35 0 0 0-.105.254v1.504q0 .148.105.254.106.103.254.101m.36-1.5H7.93v.78H1.523Zm0 0"/></g></svg>