<svg xmlns="http://www.w3.org/2000/svg" width="40" height="40" version="1.0" viewBox="0 0 30 30"><defs><clipPath id="a"><path d="M.484.508h29.032v28.308H.484Zm0 0"/></clipPath></defs><g clip-path="url(#a)"><path fill="#005baa" d="M1.934 8.984h6.742c.199 0 .386-.082.52-.226a.71.71 0 0 0 .187-.535 4.11 4.11 0 0 0-2.5-3.461A2.42 2.42 0 0 0 5.305.512 2.42 2.42 0 0 0 2.887 2.93c0 .734.328 1.39.843 1.832a4.11 4.11 0 0 0-2.5 3.46.7.7 0 0 0 .184.536.72.72 0 0 0 .52.226M3.797 2.93a1.509 1.509 0 1 1 3.017.002 1.509 1.509 0 0 1-3.017-.002m1.508 2.418a3.2 3.2 0 0 1 3.148 2.73H2.156a3.2 3.2 0 0 1 3.149-2.73m15.699 3.39c-.016.196.05.39.187.535.133.141.32.227.516.227h6.746a.713.713 0 0 0 .703-.762 4.11 4.11 0 0 0-2.5-3.46 2.42 2.42 0 0 0-1.578-4.25 2.42 2.42 0 0 0-2.418 2.417c0 .73.328 1.387.844 1.832a4.11 4.11 0 0 0-2.5 3.461m2.566-5.293c0-.832.676-1.511 1.508-1.511a1.513 1.513 0 0 1 0 3.023c-.832 0-1.508-.68-1.508-1.512m1.508 2.418A3.2 3.2 0 0 1 28.23 8.59h-6.3a3.2 3.2 0 0 1 3.148-2.727M9.383 27.683a4.11 4.11 0 0 0-2.5-3.46 2.42 2.42 0 0 0-1.578-4.25 2.42 2.42 0 0 0-2.418 2.418c0 .734.328 1.39.843 1.832a4.11 4.11 0 0 0-2.5 3.46.7.7 0 0 0 .184.536.72.72 0 0 0 .52.226h6.742c.199 0 .386-.082.52-.226a.71.71 0 0 0 .187-.535m-5.586-5.292a1.509 1.509 0 0 1 3.02 0 1.51 1.51 0 0 1-1.508 1.511h-.004a1.51 1.51 0 0 1-1.508-1.511m-1.64 5.148a3.2 3.2 0 0 1 3.148-2.73h.004a3.2 3.2 0 0 1 3.144 2.73Zm24.5-3.316a2.42 2.42 0 0 0-1.578-4.25 2.42 2.42 0 0 0-2.419 2.418c0 .734.328 1.39.844 1.832a4.11 4.11 0 0 0-2.5 3.46c-.016.196.05.391.187.536.133.144.32.226.516.226h6.746a.713.713 0 0 0 .703-.762 4.11 4.11 0 0 0-2.5-3.46M23.57 22.39a1.509 1.509 0 0 1 3.02 0 1.51 1.51 0 0 1-1.508 1.511h-.004a1.51 1.51 0 0 1-1.508-1.511m-1.64 5.148a3.2 3.2 0 0 1 3.148-2.73h.004a3.204 3.204 0 0 1 3.148 2.73Zm-1.633-.535a.456.456 0 0 1-.27.582c-1.547.57-3.172.86-4.836.86-1.203 0-2.39-.153-3.543-.458l.223.325a.45.45 0 0 1-.113.628.42.42 0 0 1-.258.082.45.45 0 0 1-.371-.191l-.984-1.414a.455.455 0 0 1 .176-.668l1.55-.746a.455.455 0 0 1 .606.21.455.455 0 0 1-.211.606l-.528.254a13.08 13.08 0 0 0 7.977-.34.453.453 0 0 1 .582.27M8.488 2.738a.455.455 0 0 1 .188-.613 13.99 13.99 0 0 1 11.902-.535l-.18-.352a.454.454 0 0 1 .809-.41l.777 1.54a.44.44 0 0 1 .016.378.46.46 0 0 1-.281.258l-1.64.523a.455.455 0 0 1-.57-.297.46.46 0 0 1 .296-.57l.554-.176a13.081 13.081 0 0 0-11.258.441.455.455 0 0 1-.613-.187M1.227 14.48c0-1.07.12-2.125.359-3.152l-.316.23a.447.447 0 0 1-.633-.093.447.447 0 0 1 .093-.633l1.383-1.023a.44.44 0 0 1 .371-.079.44.44 0 0 1 .301.235l.793 1.527a.458.458 0 0 1-.402.664.46.46 0 0 1-.406-.246l-.266-.52a13 13 0 0 0-.371 3.09c0 1.79.36 3.528 1.062 5.16a.46.46 0 0 1-.238.598.453.453 0 0 1-.594-.238 13.85 13.85 0 0 1-1.136-5.52m28.007 5.036-1.476.882a.46.46 0 0 1-.235.067.4.4 0 0 1-.144-.027.45.45 0 0 1-.277-.258l-.637-1.602a.453.453 0 0 1 .84-.336l.218.543c.485-1.379.727-2.824.727-4.305 0-1.246-.176-2.48-.52-3.668a.453.453 0 0 1 .31-.562.45.45 0 0 1 .558.309 13.98 13.98 0 0 1-.168 8.379l.336-.204a.457.457 0 0 1 .625.157.457.457 0 0 1-.157.625m-6.28.07a1 1 0 0 0 .16-.02l1.878-.37a.83.83 0 0 0 .653-.977l-1.461-7.328a.832.832 0 0 0-.973-.652l-1.879.374a.81.81 0 0 0-.527.352.8.8 0 0 0-.125.605c-1.078.332-2.375.39-3.98-.933-.825-.68-1.9-.703-2.673-.055l-.726.605h-4a.83.83 0 0 0-.633-.574l-1.879-.375a.83.83 0 0 0-.973.653l-1.46 7.328c-.09.449.203.886.652.976l1.879.371a1 1 0 0 0 .16.02c.332 0 .629-.2.762-.504l4.308 4.313c.29.289.672.445 1.082.445.406 0 .793-.156 1.078-.445.153-.153.27-.336.348-.532l.473.473a1.525 1.525 0 0 0 2.511-.547 1.531 1.531 0 0 0 1.996-.14c.286-.286.446-.669.446-1.075.39 0 .777-.148 1.074-.445a1.55 1.55 0 0 0 .395-1.469l.648-.644c.11.34.43.57.785.57m.355-8.441 1.43 7.175-1.723.344-1.43-7.176Zm-8.704.132c.438-.363 1.032-.34 1.516.059 1.895 1.562 3.492 1.496 4.734 1.129l1.094 5.484-.953.953-4.328-4.39-.02-.016c-.93-.848-1.78-1.215-2.343-1.004a.77.77 0 0 0-.504.66q-.005.006-.004.012l-.024.281c-.105 1.172-.18 2.055-1.257 2.496l-.66-3.02c-.051-.241.097-.425.23-.538Zm-7.62 7.387-1.723-.344 1.43-7.175 1.722.343Zm13.5 1.824a.62.62 0 0 1-.88 0l-3.199-3.199a.455.455 0 0 0-.64 0 .455.455 0 0 0 0 .64l3.199 3.2a.62.62 0 0 1 0 .879.63.63 0 0 1-.88 0l-3.378-3.38a.45.45 0 0 0-.64 0 .455.455 0 0 0 0 .642l2.55 2.55a.62.62 0 0 1 0 .875.62.62 0 0 1-.879 0l-2.73-2.73a.455.455 0 0 0-.64 0 .455.455 0 0 0 0 .64l1.269 1.27c.117.117.18.273.18.438a.617.617 0 0 1-.618.62.62.62 0 0 1-.441-.18l-4.723-4.722 1.184-5.933h2.996l-.707.59c-.457.378-.653.902-.535 1.43l.761 3.5a.46.46 0 0 0 .204.288c.105.067.23.086.347.055 2.133-.523 2.27-2.07 2.39-3.434q.009-.095.016-.183c.204.023.688.222 1.34.812l4.586 4.653a.63.63 0 0 1-.133.68m0 0"/></g></svg>