<svg xmlns="http://www.w3.org/2000/svg" width="40" height="40" version="1.0" viewBox="0 0 30 30"><defs><clipPath id="a"><path d="M.484 0h29.032v29.031H.484Zm0 0"/></clipPath></defs><path fill="#005baa" d="M13.941 3.508V2.16c-1.3.11-2.562.422-3.765.93a12.42 12.42 0 0 0-6.598 6.598 12.4 12.4 0 0 0-.93 3.769h1.344c.504-5.254 4.695-9.445 9.95-9.95M26.012 13.457h1.347c-.109-1.3-.422-2.562-.933-3.77a12.3 12.3 0 0 0-2.656-3.94 12.37 12.37 0 0 0-7.704-3.587v1.348c5.254.504 9.446 4.695 9.946 9.949M3.996 15.582H2.648a12.374 12.374 0 0 0 3.586 7.7 12.36 12.36 0 0 0 7.707 3.59v-1.349c-5.25-.503-9.441-4.691-9.945-9.941M16.066 25.523v1.348a12.374 12.374 0 0 0 7.703-3.586 12.4 12.4 0 0 0 2.66-3.941c.509-1.203.817-2.465.93-3.762h-1.347c-.508 5.25-4.696 9.438-9.946 9.941m0 0"/><g clip-path="url(#a)"><path fill="#005baa" d="M28.86 13.855h-4.88a9 9 0 0 0-8.316-8.312V.664a.662.662 0 0 0-1.324 0v4.879a9 9 0 0 0-8.313 8.312H1.148a.663.663 0 0 0 0 1.325h4.88a9 9 0 0 0 8.312 8.316v4.879c0 .176.07.34.195.465s.29.195.469.195c.363 0 .66-.297.66-.66v-4.879a9.004 9.004 0 0 0 8.316-8.316h4.875a.662.662 0 1 0 .004-1.324m-10.973-2.324a1.25 1.25 0 0 1 1.246-.996c.336 0 .652.13.898.371.309.313.434.739.344 1.176a1.26 1.26 0 0 1-.969.969 1.28 1.28 0 0 1-1.176-.344 1.27 1.27 0 0 1-.343-1.176m-4.48.793a1.6 1.6 0 0 1 1.6-1.277c.43 0 .837.164 1.15.476.398.399.558.95.44 1.508a1.59 1.59 0 0 1-1.242 1.242 1.63 1.63 0 0 1-1.507-.437 1.63 1.63 0 0 1-.442-1.512m-3.43-1.418c.242-.242.558-.37.894-.37q.141-.002.281.027a1.273 1.273 0 1 1-.55 2.488 1.2 1.2 0 0 1-.446-.188 1 1 0 0 1-.183-.152 1.2 1.2 0 0 1-.34-.629 1.26 1.26 0 0 1 .344-1.176m-1.743 4.942a.45.45 0 0 1-.289-.477 2.95 2.95 0 0 1 1.836-2.383c.207.192.465.328.75.387q.17.035.34.035c.406 0 .797-.148 1.094-.426.496.2.926.524 1.246.942a3.8 3.8 0 0 0-2.2 2.418 7.3 7.3 0 0 1-2.777-.496m10.157 2.02c-2.258.847-4.52.847-6.778 0a.58.58 0 0 1-.367-.618 3.79 3.79 0 0 1 2.36-3.062c.382.355.882.546 1.402.546a2.04 2.04 0 0 0 1.402-.543q.007.004.02.008a3.8 3.8 0 0 1 2.199 2.422c.058.203.105.414.129.629a.58.58 0 0 1-.367.617m3.379-2.02a7.3 7.3 0 0 1-2.774.496 3.8 3.8 0 0 0-2.2-2.418 2.95 2.95 0 0 1 1.247-.942 1.6 1.6 0 0 0 1.43.391c.289-.059.547-.195.754-.387a2.95 2.95 0 0 1 1.832 2.383.45.45 0 0 1-.29.477m0 0"/></g></svg>