<svg xmlns="http://www.w3.org/2000/svg" width="40" height="40" version="1.0" viewBox="0 0 30 30"><defs><clipPath id="a"><path d="M1.172 14h27.582v15.031H1.172Zm0 0"/></clipPath></defs><g clip-path="url(#a)"><path fill="#005baa" d="M16.266 29.027h-2.532c-.554 0-1.004-.449-1.004-1.004V25.72a10.7 10.7 0 0 1-3.562-1.477l-1.633 1.633a1.002 1.002 0 0 1-1.418 0l-1.789-1.79a1.01 1.01 0 0 1 0-1.417l1.633-1.633a10.7 10.7 0 0 1-1.477-3.562H2.176c-.555 0-1.004-.45-1.004-1.004v-1.266c0-.207.172-.375.379-.375h7.234a.374.374 0 0 1 .367.461 5.76 5.76 0 0 0 1.54 5.414 5.75 5.75 0 0 0 4.085 1.692 5.75 5.75 0 0 0 4.09-1.692 5.76 5.76 0 0 0 1.54-5.414.374.374 0 0 1 .367-.46h7.671c.207 0 .375.167.375.374v1.266c0 .554-.449 1.004-1 1.004h-2.308a10.6 10.6 0 0 1-1.477 3.562l1.633 1.633a1.008 1.008 0 0 1 0 1.418l-.602.602a.384.384 0 0 1-.535 0l-3.082-3.086q0-.002-.015-.004-.011.002-.016.004l-1.691 1.695a.024.024 0 0 0 0 .031l.644.645a.377.377 0 0 1-.082.593c-.945.54-1.965.926-3.023 1.153v2.308c0 .551-.45 1-1 1M9.12 23.38c.074 0 .149.02.211.066a10 10 0 0 0 3.844 1.594c.18.031.308.188.308.371v2.617c0 .133.114.246.25.246h2.532a.25.25 0 0 0 .246-.246V25.41a.38.38 0 0 1 .308-.37 9.8 9.8 0 0 0 2.66-.895l-.285-.286a.78.78 0 0 1 0-1.097l1.692-1.692a.79.79 0 0 1 .55-.226c.208 0 .403.078.547.226l2.817 2.817.336-.336a.25.25 0 0 0 .07-.176.25.25 0 0 0-.07-.176l-1.852-1.851a.37.37 0 0 1-.043-.48 9.95 9.95 0 0 0 1.594-3.845.38.38 0 0 1 .371-.308h2.613c.137 0 .25-.113.25-.246v-.89h-6.84a6.49 6.49 0 0 1-1.832 5.655 6.5 6.5 0 0 1-4.62 1.914 6.5 6.5 0 0 1-4.618-1.914 6.48 6.48 0 0 1-1.832-5.656H1.926v.89c0 .134.117.25.25.25h2.617c.18 0 .336.13.367.31a9.95 9.95 0 0 0 1.594 3.84.37.37 0 0 1-.043.48l-1.852 1.851a.26.26 0 0 0-.07.176c0 .066.027.129.07.176l1.793 1.789c.09.094.258.094.352 0l1.848-1.852a.4.4 0 0 1 .27-.11m0 0"/></g><path fill="#005baa" d="M14.781 23.148a6.5 6.5 0 0 1-4.62-1.914 6.5 6.5 0 0 1-1.915-4.62 6.5 6.5 0 0 1 1.914-4.618 6.533 6.533 0 0 1 9.238 9.238 6.5 6.5 0 0 1-4.617 1.914m0-12.312a5.78 5.78 0 0 0-4.09 1.691A5.75 5.75 0 0 0 9 16.613c0 1.547.602 2.996 1.691 4.09a5.75 5.75 0 0 0 4.09 1.692 5.75 5.75 0 0 0 4.086-1.692 5.79 5.79 0 0 0 0-8.176 5.78 5.78 0 0 0-4.086-1.691m-4.355 1.426"/><path fill="#005baa" d="M19.48 23.387a.37.37 0 0 1-.265-.114L17.938 22a.39.39 0 0 1-.11-.305.38.38 0 0 1 .164-.277c.313-.207.606-.45.875-.715q.382-.382.688-.828a.38.38 0 0 1 .273-.164.4.4 0 0 1 .305.11l1.265 1.269a.377.377 0 0 1 0 .535l-1.652 1.652a.39.39 0 0 1-.266.11m-.695-1.61.695.7 1.122-1.122-.692-.69q-.239.299-.508.57a7 7 0 0 1-.617.542m0 0"/><path fill="#005baa" d="M24.602 28.945a.78.78 0 0 1-.551-.23l-4.856-4.856a.773.773 0 0 1 0-1.097l1.692-1.692a.76.76 0 0 1 .547-.226c.21 0 .402.078.55.226l4.856 4.856a.773.773 0 0 1 0 1.097l-1.692 1.692a.78.78 0 0 1-.546.23m-4.875-5.648a.024.024 0 0 0 0 .031l4.859 4.856a.024.024 0 0 0 .031 0l1.692-1.692a.024.024 0 0 0 0-.031l-4.856-4.86q-.005-.002-.015-.003-.017.002-.016.004ZM14.781 19.11c-1.82 0-3.515-.797-4.77-2.247a.375.375 0 0 1 0-.496c1.255-1.449 2.95-2.25 4.77-2.25 1.817 0 3.512.801 4.77 2.25a.384.384 0 0 1 0 .496c-1.258 1.45-2.953 2.246-4.77 2.246m-3.976-2.497c1.082 1.13 2.484 1.742 3.976 1.742 1.489 0 2.89-.613 3.973-1.742-1.082-1.125-2.484-1.742-3.973-1.742-1.492 0-2.894.617-3.976 1.742m0 0"/><path fill="#005baa" d="M14.781 17.863c-.687 0-1.25-.562-1.25-1.25a1.247 1.247 0 1 1 1.25 1.25m0-1.742a.496.496 0 0 0-.496.492c0 .274.223.496.496.496a.495.495 0 0 0 0-.988M18.148 8.898H11.41a.376.376 0 0 1-.375-.378V6.69c0-.66.414-1.253 1.031-1.484.426-.164 1.79-.18 2.856-.164.09.004 2.223.035 2.574.164.617.23 1.031.824 1.031 1.484V8.52a.38.38 0 0 1-.379.378m-6.359-.753h5.984V6.69a.83.83 0 0 0-.53-.773c-.423-.098-4.356-.215-4.915-.004a.83.83 0 0 0-.539.777Zm5.441-2.23h.004zM14.781 4c-1.101 0-2-.898-2-2a1.997 1.997 0 1 1 2 2m0-3.242c-.687 0-1.246.558-1.246 1.242 0 .688.559 1.246 1.246 1.246a1.245 1.245 0 0 0 0-2.488M9.707 11.516H2.969a.38.38 0 0 1-.38-.375V9.309c0-.657.415-1.254 1.032-1.48.43-.165 1.793-.18 2.856-.165.093 0 2.226.035 2.574.164a1.58 1.58 0 0 1 1.031 1.48v1.833a.375.375 0 0 1-.375.375m-6.363-.754h5.984V9.309c0-.34-.21-.649-.531-.774-.418-.098-4.352-.215-4.91-.004a.84.84 0 0 0-.543.778Zm5.445-2.23q-.001.002.004.003s-.004 0-.004-.004M6.336 6.617a1.997 1.997 0 1 1 .002-3.994 1.997 1.997 0 0 1-.002 3.994m0-3.242a1.246 1.246 0 0 0 0 2.492 1.247 1.247 0 0 0 0-2.492M26.59 11.516h-6.738a.375.375 0 0 1-.375-.375V9.309c0-.657.414-1.254 1.03-1.48.43-.165 1.79-.18 2.856-.165.09 0 2.223.035 2.575.164a1.58 1.58 0 0 1 1.03 1.48v1.833a.376.376 0 0 1-.378.375m-6.36-.754h5.985V9.309a.84.84 0 0 0-.531-.774c-.422-.098-4.356-.215-4.91-.004a.83.83 0 0 0-.544.778Zm5.442-2.23.004.003v-.004zM23.223 6.617a2 2 0 0 1-2-1.996c0-1.101.898-2 2-2a1.997 1.997 0 0 1 0 3.996m0-3.242a1.247 1.247 0 0 0 0 2.492 1.246 1.246 0 0 0 0-2.492m0 0"/></svg>