<svg xmlns="http://www.w3.org/2000/svg" width="40" height="40" version="1.0" viewBox="0 0 30 30"><defs><clipPath id="a"><path d="M5 1.508h20V22H5Zm0 0"/></clipPath><clipPath id="b"><path d="M23 21h6.516v6.637H23Zm0 0"/></clipPath><clipPath id="c"><path d="M22 13h7.516v7H22Zm0 0"/></clipPath><clipPath id="d"><path d="M.484 13H9v7H.484Zm0 0"/></clipPath></defs><g clip-path="url(#a)"><path fill="#005baa" d="M21.457 18.582c.164-.14.305-.273.434-.406.238-.238.453-.485.648-.723a9.76 9.76 0 0 0 1.953-3.965q.105-.45.164-.902a9.63 9.63 0 0 0-.898-5.57 9.9 9.9 0 0 0-1.918-2.672 9.7 9.7 0 0 0-6.883-2.836h-.039a9.7 9.7 0 0 0-6.906 2.89A9.7 9.7 0 0 0 5.75 7.984a9.8 9.8 0 0 0-.332 5.477q.01.041.02.082a9.72 9.72 0 0 0 3.766 5.652q.024.017.05.04c.062.042.117.081.176.12q.397.271.812.5a9.71 9.71 0 0 0 9.395.012 10 10 0 0 0 .668-.398s0-.004.004-.004l.054-.035.094-.059c.066-.047.117-.086.172-.121q.032-.023.062-.047.253-.18.489-.379.118-.094.23-.199c.016-.016.031-.027.047-.043m-.2-.887c-.01.012-.03.024-.046.04a7 7 0 0 1-.496.449 9 9 0 0 1-.875.644l-.235.149h-.003c-.223.14-.465.273-.715.394l-.008.004s-.012.004-.016.008a5 5 0 0 1-.367.164q-.124.053-.254.105-.134.053-.262.102a8.5 8.5 0 0 1-1.671.418c-.055.008-.114.02-.168.023l-.168.024a9 9 0 0 1-.68.05q-.062.002-.125.004h-.207c-.066 0-.137 0-.203-.003h-.121q-.17-.007-.34-.02a9 9 0 0 1-.7-.078l-.433-.078c-.074-.016-.144-.028-.219-.043a6 6 0 0 1-.422-.113 2 2 0 0 1-.222-.067 1 1 0 0 1-.117-.039 3 3 0 0 1-.344-.113c-.008-.004-.02-.012-.031-.012-.11-.039-.239-.09-.368-.148l-.023-.008c-.012-.004-.023-.012-.035-.016-.082-.035-.168-.07-.25-.113l-.067-.031-.023-.008s-.016-.008-.02-.012q-.022-.007-.039-.02l-.093-.046-.043-.02q-.048-.029-.094-.05-.005.001-.004-.005l-.09-.046c-.055-.032-.117-.063-.176-.098-.03-.02-.062-.035-.093-.055-.032-.02-.063-.035-.09-.054l-.04-.024c-.07-.039-.144-.09-.218-.137l-.086-.062q-.006-.001-.012-.008a6 6 0 0 1-.36-.25 6 6 0 0 1-.374-.293h-.004a9 9 0 0 1-.52-.473l-.019-.015q-.007-.004-.008-.008l-.055-.055c-.046-.047-.093-.093-.132-.136a8.9 8.9 0 0 1-2.223-3.98c-.008-.016-.008-.036-.016-.056a9.023 9.023 0 0 1-.223-3.082 8.7 8.7 0 0 1 .384-1.87q.074-.237.168-.473.024-.073.054-.145.083-.2.172-.394c.059-.13.121-.254.184-.383q.075-.147.164-.293l.058-.11a9 9 0 0 1 1.477-1.882c.02-.02.039-.035.058-.055l.004-.004c.067-.066.157-.148.243-.226q.197-.177.402-.34a8 8 0 0 1 .77-.543c.175-.114.355-.215.539-.313.105-.062.226-.12.347-.18.133-.062.258-.124.39-.175 0 0 .016-.008.024-.008q.047-.025.094-.043l.086-.035.031-.012c.11-.043.207-.078.3-.11l.071-.027q.187-.063.352-.109a5 5 0 0 1 .39-.106c.067-.019.165-.042.266-.062.024-.004.043-.012.066-.016q.036-.008.07-.015h.005a1 1 0 0 1 .078-.016h.004c.027-.004.054-.012.086-.015.117-.024.222-.043.328-.055.094-.012.215-.031.332-.035a8.9 8.9 0 0 1 4.765.793c.918.43 1.77 1.02 2.508 1.757h.004q.082.078.156.16.083.083.164.176c.075.082.153.172.227.258.074.09.145.176.215.266q.14.18.27.367c.238.328.445.676.628 1.031q.235.453.41.922c.383 1 .582 2.07.586 3.172q.005.66-.09 1.305-.064.485-.187.953l-.012.055a9 9 0 0 1-.289.91h-.004a8.4 8.4 0 0 1-.886 1.738q-.06.094-.125.187-.064.093-.13.184-.012.011-.019.027l-.207.27-.066.078c-.184.227-.383.45-.594.66Zm0 0"/></g><g clip-path="url(#b)"><path fill="#005baa" d="m29.297 26.105-4.383-4.351a.52.52 0 0 0-.371-.152h-.05a.45.45 0 0 0-.321.156l-.465.46a.52.52 0 0 0-.148.329q-.005.023-.004.047c.004.14.054.273.156.37l4.383 4.352a.53.53 0 0 0 .746-.003l.46-.465a.53.53 0 0 0-.003-.746Zm0 0"/></g><path fill="#005baa" d="m23.031 20.945-1.281-1.273-.012-.012-.008.008q-.064.053-.128.102-.122.095-.239.183l.871.867.735.73.09.09.336-.34-.09-.085Zm0 0"/><g clip-path="url(#c)"><path fill="#005baa" d="M24.21 19.996q.194-.006.392-.023.31-.019.609-.067a7.4 7.4 0 0 0 1.941-.558c.102-.043.188-.082.278-.121l.074-.036c.203-.101.422-.222.633-.347.343-.207.675-.446.988-.707q.146-.117.281-.246a5.46 5.46 0 0 0-1.488-2.715 5.6 5.6 0 0 0-1.89-1.242 3.7 3.7 0 0 1-.712.359 10.8 10.8 0 0 1-2 3.789c-.21.262-.453.531-.71.797q-.06.057-.118.113l.992.988c.122.008.227.012.332.016Zm0 0"/></g><path fill="#005baa" d="M22.121 14.813q.16-.318.281-.641a4 4 0 0 1-.43-.238 5.5 5.5 0 0 0-1.519.898q.447.698.707 1.484.002-.004.004-.003l.125-.16q.064-.078.121-.16a14 14 0 0 0 .281-.411 8 8 0 0 0 .43-.77M25.645 12.762a6 6 0 0 1-.04.254q.13-.095.243-.2a2.74 2.74 0 0 0 .914-2.046c0-1.04-.575-1.946-1.426-2.418a10.7 10.7 0 0 1 .309 4.41M22.703 13.21q.07-.274.117-.55a8.03 8.03 0 0 0-.383-4.168c-.722.5-1.199 1.332-1.199 2.278 0 .812.352 1.543.91 2.046.168.153.356.286.555.395M14.95 12.809c.714 0 1.363-.274 1.85-.715a2.75 2.75 0 0 0 .91-2.047 2.767 2.767 0 0 0-2.76-2.766 2.77 2.77 0 0 0-2.762 2.766c0 .812.351 1.543.914 2.047a2.75 2.75 0 0 0 1.847.715M19.125 14.727a5.582 5.582 0 0 0-2.148-1.516 3.7 3.7 0 0 1-2.028.598 3.73 3.73 0 0 1-2.027-.598 5.5 5.5 0 0 0-2.137 1.5 5.5 5.5 0 0 0-1.246 2.453c.066.063.129.117.195.176q.055.046.114.094.081.066.164.136c.168.13.332.246.5.356q.146.097.281.183.01.001.02.008.063.04.12.074h.005q.062.042.124.07.037.025.075.044c.12.066.226.12.332.172l.082.039q.121.058.242.109h.004l.07.031c.016.004.028.012.043.016.086.035.168.07.258.101q.007-.001.008.004l.3.102a.04.04 0 0 0 .02.004l.027.012.028.011c.004 0 .054.016.058.016q.164.052.32.094.212.058.41.097h.013l.406.075a1 1 0 0 1 .113.015q.025.002.043.004.11.017.219.027.164.018.32.024.052.007.106.008.053.002.105.004a4.928 4.928 0 0 0 .438.004h.058q.045.001.09-.004h.012c.027 0 .05 0 .078-.004l.21-.012q.229-.018.458-.047l.152-.023a7.3 7.3 0 0 0 1.942-.559c.097-.04.18-.078.265-.117l.07-.031.012-.008q.247-.123.5-.27c.047-.027.09-.05.137-.078q.105-.064.203-.129a8 8 0 0 0 .785-.578l.133-.11c.02-.019.04-.034.059-.054q.022-.018.039-.035.029-.023.05-.047a5.4 5.4 0 0 0-.632-1.61 5.6 5.6 0 0 0-.602-.831ZM7.496 14.152a7.8 7.8 0 0 0 .906 1.711c.04.059.078.11.118.164.07.094.14.192.218.282a6.5 6.5 0 0 1 .719-1.497 5.7 5.7 0 0 0-1.523-.906q-.21.141-.438.246M8.668 10.742c0-.941-.473-1.773-1.191-2.273h-.004q-.035.091-.063.18c-.02.054-.035.109-.055.16-.035.109-.066.214-.097.324l-.082.324q-.095.41-.149.828-.018.165-.03.328v.004A7.632 7.632 0 0 0 7 12.023q.003.042.007.07c.015.18.043.36.07.54a13 13 0 0 0 .094.465c.008.027.012.058.023.086.2-.106.39-.239.559-.395a2.74 2.74 0 0 0 .914-2.047M4.313 12.996a10.854 10.854 0 0 1 .281-4.687 2.78 2.78 0 0 0-1.45 2.433 2.75 2.75 0 0 0 1.168 2.254m0 0"/><g clip-path="url(#d)"><path fill="#005baa" d="M4.594 14.27a3.7 3.7 0 0 1-.715-.364A5.52 5.52 0 0 0 .496 17.86q.147.141.305.27c.226.183.441.344.664.492.11.074.203.137.305.192.117.078.222.132.324.187.12.066.222.125.328.172l.074.035.258.117.074.031c.102.04.2.082.309.118.101.039.21.074.316.109.016.004.035.012.05.016.009 0 .056.02.063.02.25.081.497.144.73.19l.419.075c.187.027.387.047.586.062.156.012.285.024.418.024h.398c.125 0 .258-.012.39-.02.208-.02.407-.039.61-.07.356-.05.703-.129 1.04-.227a10.719 10.719 0 0 1-3.562-5.383m0 0"/></g></svg>