<svg xmlns="http://www.w3.org/2000/svg" width="40" height="40" version="1.0" viewBox="0 0 30 30"><defs><clipPath id="a"><path d="M17 .543h3V3h-3Zm0 0"/></clipPath><clipPath id="b"><path d="M20 .543h2V3h-2Zm0 0"/></clipPath><clipPath id="c"><path d="M7 .543h10V15H7Zm0 0"/></clipPath><clipPath id="d"><path d="M.484 18H11v3H.484Zm0 0"/></clipPath><clipPath id="e"><path d="M.484 21H11v7.852H.484Zm0 0"/></clipPath><clipPath id="f"><path d="M12 15h17.516v9H12Zm0 0"/></clipPath><clipPath id="g"><path d="M12 21h17.516v6H12Zm0 0"/></clipPath></defs><g clip-path="url(#a)"><path fill="#005baa" d="M19.46 2.54V.542H17.47v2.055c.324-.04.66-.059.996-.059z"/></g><g clip-path="url(#b)"><path fill="#005baa" d="M21.457 1.543c0-.55-.445-1-.996-1v1.996c.55 0 .996-.445.996-.996"/></g><path fill="#005baa" d="M4.492 10.523c-.273 0-.5.227-.5.5a.501.501 0 1 0 .5-.5"/><g clip-path="url(#c)"><path fill="#005baa" d="m9.098 13.887.988.867a8.9 8.9 0 0 1-.602-3.23c0-4.27 2.989-7.848 6.985-8.758V.543H14.3c-.399 0-.774.156-1.059.441L9.13 5.098a1.49 1.49 0 0 1-1.059.437h-.086v7.985h.125c.364 0 .715.128.989.367"/></g><path fill="#005baa" d="M24.453 9.527h2.992a.999.999 0 1 0 0-1.996h-2.992a.999.999 0 1 0 0 1.996M24.953 6.531h.996a.999.999 0 1 0 0-1.996h-.996c-.55 0-1 .45-1 1s.45.996 1 .996"/><path fill="#005baa" d="M17.965 11.316v-6.28h1v6.694l-3.14 3.137-.708-.703Zm-5.16 5.817-.004.008a7.95 7.95 0 0 0 5.664 2.367 7.94 7.94 0 0 0 6.234-2.996h-2.242a1.997 1.997 0 0 1-1.996-1.996 2 2 0 0 1 1.336-1.883 1.97 1.97 0 0 1-.34-1.11c0-.87.563-1.613 1.34-1.882a1.99 1.99 0 0 1 .629-2.825 1.98 1.98 0 0 1-.469-1.28q0-.295.078-.56a7.97 7.97 0 0 0-4.57-1.437c-4.402 0-7.985 3.582-7.985 7.984 0 2.145.852 4.094 2.235 5.532zM4.492 12.52a1.5 1.5 0 0 1-1.496-1.497 1.496 1.496 0 1 1 1.496 1.496m2.496-6.985H4.992v2.992h-1V5.535H1.5v7.985h5.488z"/><path fill="#005baa" d="M22.457 13.52a.999.999 0 1 0 0 1.996h2.992a.999.999 0 1 0 0-1.996zM22.457 11.523c0 .551.45.997.996.997h2.996a.999.999 0 0 0 0-1.996h-2.996c-.547 0-.996.449-.996 1"/><g clip-path="url(#d)"><path fill="#005baa" d="M9.98 19.008H8.484v-1h-.996v1H3.496v-1h-1v1H1c-.273 0-.5.222-.5.5v.996h9.98v-.996c0-.278-.222-.5-.5-.5"/></g><g clip-path="url(#e)"><path fill="#005baa" d="M2 26.492h.996v.996H2Zm0-1.996h.996v.996H2ZM2 22.5h.996v.996H2Zm1.992 3.992h1v.996h-1Zm0-1.996h1v.996h-1Zm0-1.996h1v.996h-1Zm1.996 3.992h1v.996h-1Zm0-1.996h1v.996h-1Zm0-1.996h1v.996h-1Zm1.996 3.992h1v.996h-1Zm0-1.996h1v.996h-1Zm0-1.996h1v.996h-1ZM.5 27.988c0 .278.227.5.5.5h8.98c.278 0 .5-.222.5-.5v-6.484H.5z"/></g><g clip-path="url(#f)"><path fill="#005baa" d="m29.5 16.207-.918-.39A10.97 10.97 0 0 1 18.477 22.5c-2.032 0-4.016-.559-5.739-1.617l-.523.851a11.97 11.97 0 0 0 6.262 1.762c4.812 0 9.136-2.86 11.023-7.289"/></g><g clip-path="url(#g)"><path fill="#005baa" d="M24.063 24.328a13.9 13.9 0 0 1-5.598 1.164c-2.016 0-3.961-.418-5.781-1.246l-.414.906a14.8 14.8 0 0 0 6.195 1.34 14.931 14.931 0 0 0 10.84-4.645l-.723-.69a13.9 13.9 0 0 1-4.52 3.171"/></g></svg>