<svg xmlns="http://www.w3.org/2000/svg" width="40" height="40" version="1.0" viewBox="0 0 30 30"><defs><clipPath id="a"><path d="M.484.129h29.032V29H.484Zm0 0"/></clipPath></defs><g clip-path="url(#a)"><path fill="#fff" fill-rule="evenodd" d="M16.785 26.547a1.9 1.9 0 0 1-.215.75l-.488.91c.176.102.36.207.535.305.422.234.957.054 1.188-.364a.896.896 0 0 0-.352-1.21c-.223-.125-.445-.262-.668-.391m-6.055-9.25c1.329 1.422 2.864.8 4.32.21 1.333-.538 2.614-1.058 3.833-.362l4.742 2.703q.252.146.445.351.037.037.067.078l.707-.297-2.418-6.238c-1.078.578-1.86.246-2.918-.187-1.156-.473-2.512-1.028-4.356.238-1.007.687-1.816 1.668-2.832 2.434a19 19 0 0 1-1.59 1.07m.223 4.851a1.9 1.9 0 0 0-1.254-.187 1.9 1.9 0 0 0-.984-1.438 1.9 1.9 0 0 0-2.246.348c-.117-.605-.282-1.191-.965-1.457l-.195-.082 2.722-6.16.313.144c.953.528 1.836.32 2.797.098.863-.203 1.8-.422 2.863.047-.777.644-1.45 1.387-2.262 1.996a19 19 0 0 1-1.82 1.2.647.647 0 0 0-.184.952c1.825 2.352 3.801 1.551 5.676.79 1.113-.45 2.18-.883 2.996-.419l4.742 2.704a.9.9 0 0 1 .356 1.21c-.242.422-.762.598-1.195.36-1.086-.621-2.184-1.223-3.27-1.844a.484.484 0 0 0-.66.18.484.484 0 0 0 .18.656c1.085.621 2.175 1.23 3.269 1.844.426.238.59.777.352 1.21-.227.419-.786.595-1.204.352l-4.296-2.418a.483.483 0 0 0-.657.188.48.48 0 0 0 .188.652c1.168.66 2.332 1.328 3.504 1.985.43.242.59.78.351 1.214a.895.895 0 0 1-1.207.348l-2.5-1.414a1.885 1.885 0 0 0-2.059-.598 1.884 1.884 0 0 0-2.417-1.293 1.88 1.88 0 0 0-.934-1.168m2.195 5.653a.94.94 0 0 0 .477.984.934.934 0 0 0 1.262-.383l.832-1.558a.94.94 0 0 0-.38-1.262.946.946 0 0 0-1.132.2Zm.235-2.461a.94.94 0 0 0-.461-1.05.94.94 0 0 0-1.133.198l-1.18 2.266a.93.93 0 0 0 .48.96.94.94 0 0 0 1.196-.276Zm-2.418-1.293a.935.935 0 0 0-.461-1.05.93.93 0 0 0-1.07.136l-1.371 2.449a.934.934 0 0 0 .382 1.262.935.935 0 0 0 1.262-.387Zm-2.297-1.469a.936.936 0 0 0-.406-1.207.937.937 0 0 0-1.262.383l-.871 1.629a.937.937 0 0 0 .383 1.258.94.94 0 0 0 1.066-.133ZM15.066.128l6.329 2.716V7.96c0 1.8-.614 3.402-1.657 4.652-.39-.156-.797-.316-1.234-.43q.158-.163.305-.34c.87-1.042 1.382-2.374 1.382-3.882V3.953c0-.21-.136-.39-.324-.453l-4.613-1.977a.46.46 0 0 0-.375 0L10.23 3.512a.49.49 0 0 0-.289.441l-.004 4.008c0 1.508.516 2.84 1.383 3.883q.2.24.422.457c-.281.05-.555.113-.82.176q-.277.066-.543.12c-1.035-1.25-1.645-2.843-1.645-4.636V2.844Zm0 2.36L10.902 4.27v3.69c0 1.278.43 2.4 1.157 3.27.32.383.699.723 1.12 1.004.532.059 1.09.235 1.696.594.875-.547 1.648-.762 2.348-.789.316-.238.601-.508.847-.809.727-.87 1.16-1.992 1.16-3.27V4.27Zm2.946 4.192c-1.028 1.035-2.051 2.082-3.082 3.113-.301.3-.793.3-1.094 0L12.12 8.082a.776.776 0 0 1 0-1.094.77.77 0 0 1 1.094 0l1.164 1.164 2.535-2.558a.772.772 0 0 1 1.098 1.086M29.46 19.496l-3.453-8.902a.84.84 0 0 0-1.086-.48l-1.711.663a.84.84 0 0 0-.48 1.086l3.449 8.903a.843.843 0 0 0 1.086.48l1.714-.664a.846.846 0 0 0 .48-1.086m-4.77-6.863a.571.571 0 0 1 0-1.14c.317 0 .575.253.575.57s-.258.57-.575.57M7.332 10.289l-1.68-.746a.843.843 0 0 0-1.105.43l-3.86 8.734a.84.84 0 0 0 .426 1.105l1.684.743a.84.84 0 0 0 1.105-.426l3.86-8.734a.836.836 0 0 0-.43-1.106M5.766 12.07a.566.566 0 0 1-.543-.593.573.573 0 0 1 .597-.547.574.574 0 0 1 .543.597.57.57 0 0 1-.597.543m0 0"/></g></svg>