<svg xmlns="http://www.w3.org/2000/svg" width="40" height="40" version="1.0" viewBox="0 0 30 30"><defs><clipPath id="a"><path d="M5 1.488h20v26.13H5Zm0 0"/></clipPath><clipPath id="b"><path d="M25 6h4.516v5H25Zm0 0"/></clipPath><clipPath id="c"><path d="M.484 11H5v5H.484Zm0 0"/></clipPath></defs><g clip-path="url(#a)"><path fill="#061c3d" d="M21.926 27.55H7.828c-.293 0-.57-.054-.84-.167a2.18 2.18 0 0 1-1.187-1.184q-.167-.405-.168-.84V3.695q.001-.434.168-.84a2.177 2.177 0 0 1 1.188-1.184c.269-.112.546-.167.84-.167h14.097q.435 0 .836.168.406.167.71.473.313.311.477.71.169.406.168.84V25.36c0 .293-.055.57-.168.84q-.166.4-.476.711a2.1 2.1 0 0 1-.711.473 2.1 2.1 0 0 1-.836.168M7.828 2.099q-.322 0-.613.12a1.602 1.602 0 0 0-.867.863 1.6 1.6 0 0 0-.121.614V25.36q0 .321.12.614.125.292.348.52c.149.148.325.265.52.347q.292.118.613.12h14.098q.316-.002.61-.12.296-.125.519-.348a1.6 1.6 0 0 0 .468-1.133V3.695a1.598 1.598 0 0 0-1.598-1.602Zm0 0"/></g><path fill="#061c3d" d="M22.414 24.031H7.34a.29.29 0 0 1-.211-.086.3.3 0 0 1-.086-.21V5.32q.002-.123.086-.21a.3.3 0 0 1 .21-.087h15.075a.293.293 0 0 1 .293.297v18.414a.29.29 0 0 1-.086.211.28.28 0 0 1-.207.086m-14.777-.593h14.48V5.618H7.637ZM17.086 3.902h-4.422a.3.3 0 0 1-.21-.09.29.29 0 0 1-.087-.207q.002-.123.086-.21a.29.29 0 0 1 .211-.086h4.422q.123-.001.21.086a.29.29 0 0 1 .087.21.27.27 0 0 1-.086.208.3.3 0 0 1-.211.09M11.574 3.902h-.508a.28.28 0 0 1-.207-.09.29.29 0 0 1 0-.418.27.27 0 0 1 .207-.085h.508q.124-.001.211.086a.29.29 0 0 1 .086.21.27.27 0 0 1-.086.208.3.3 0 0 1-.21.09M14.875 26.617q-.228-.002-.437-.086a1.1 1.1 0 0 1-.372-.25 1.1 1.1 0 0 1-.246-.37 1.12 1.12 0 0 1 0-.876 1.12 1.12 0 0 1 .617-.617 1.12 1.12 0 0 1 .876 0 1.14 1.14 0 0 1 .707 1.055q-.002.228-.09.437c-.055.14-.14.266-.246.371q-.16.164-.371.25-.21.084-.438.086m0-1.695a.543.543 0 0 0-.55.55.543.543 0 0 0 .55.551.543.543 0 0 0 .55-.55.53.53 0 0 0-.16-.387.53.53 0 0 0-.39-.164m0 0"/><path fill="#061c3d" d="M12.832 9.668a1.08 1.08 0 0 1-.645-1.043V6.918a.18.18 0 0 1 .055-.14.18.18 0 0 1 .137-.06q.2 0 .2.2v1.719a.77.77 0 0 0 .12.441.7.7 0 0 0 .313.274q.41.187.828 0a.76.76 0 0 0 .433-.715V6.918a.18.18 0 0 1 .055-.14.18.18 0 0 1 .137-.06q.2 0 .2.2v1.707a1.09 1.09 0 0 1-.645 1.043 1.35 1.35 0 0 1-1.188 0m0 0"/><path fill="#061c3d" d="M13.426 9.86q-.323-.001-.617-.137a1.1 1.1 0 0 1-.508-.446 1.13 1.13 0 0 1-.176-.652V6.918c0-.113.05-.195.16-.238.106-.043.195-.024.277.054.051.051.079.114.075.184v1.719a.72.72 0 0 0 .113.41q.106.168.29.25c.257.121.519.121.776 0a.64.64 0 0 0 .29-.25.7.7 0 0 0 .109-.406V6.918q-.001-.171.156-.238a.245.245 0 0 1 .281.054.25.25 0 0 1 .075.184v1.707a1.13 1.13 0 0 1-.172.652 1.1 1.1 0 0 1-.512.446q-.293.136-.617.136m-1.047-3.083q-.059-.001-.094.04a.13.13 0 0 0-.039.101v1.707q-.013.335.168.617.17.247.445.375c.38.172.754.172 1.133 0a1.06 1.06 0 0 0 .442-.375 1.05 1.05 0 0 0 .171-.617V6.918q.001-.094-.085-.129-.083-.034-.149.031a.13.13 0 0 0-.039.098v1.719a.84.84 0 0 1-.129.472.76.76 0 0 1-.336.293q-.444.206-.883 0a.74.74 0 0 1-.336-.293.84.84 0 0 1-.128-.472V6.918a.12.12 0 0 0-.043-.098.13.13 0 0 0-.098-.043M15.309 9.723a.15.15 0 0 1-.055-.125q0-.07.039-.121l.996-1.23-.988-1.22a.2.2 0 0 1-.04-.12q-.005-.195.192-.188.048.001.09.02c.027.015.05.03.07.058l.91 1.156.91-1.168a.16.16 0 0 1 .145-.066c.05 0 .098.015.133.054q.059.054.059.13a.18.18 0 0 1-.036.109l-1 1.23 1 1.227q.041.05.04.113-.001.083-.055.14a.2.2 0 0 1-.157.055.2.2 0 0 1-.14-.082l-.926-1.164-.91 1.168a.19.19 0 0 1-.152.078.16.16 0 0 1-.125-.054m0 0"/><path fill="#061c3d" d="M17.578 9.836a.23.23 0 0 1-.203-.106L16.5 8.63l-.867 1.11a.23.23 0 0 1-.176.097.22.22 0 0 1-.191-.07.21.21 0 0 1-.07-.168.23.23 0 0 1 .05-.157l.969-1.195-.961-1.18a.26.26 0 0 1-.05-.16c0-.066.023-.129.07-.176q.134-.129.296-.043a.24.24 0 0 1 .09.075l.863 1.097.868-1.109a.24.24 0 0 1 .175-.09.24.24 0 0 1 .188.07q.075.072.074.172a.24.24 0 0 1-.047.145l-.968 1.195.968 1.192c.035.043.055.09.051.148q0 .104-.07.18a.24.24 0 0 1-.184.074m-1.082-1.399.973 1.223q.053.083.152.055.095-.029.09-.133a.08.08 0 0 0-.023-.07L16.66 8.246l1.027-1.27q.025-.034.02-.07a.11.11 0 0 0-.035-.09.13.13 0 0 0-.094-.039.1.1 0 0 0-.094.043l-.96 1.23-.958-1.218a.3.3 0 0 0-.05-.039q-.087-.046-.157.023a.12.12 0 0 0-.039.094.14.14 0 0 0 .028.086l1.02 1.25-1.028 1.266a.13.13 0 0 0-.027.082q0 .051.035.086.11.116.191-.02ZM13.277 15.305a1.1 1.1 0 0 1-.488-.426 1.06 1.06 0 0 1-.16-.621V12.55a.18.18 0 0 1 .055-.14.18.18 0 0 1 .136-.06q.2 0 .2.2v1.719a.76.76 0 0 0 .12.437c.075.121.18.215.313.273q.411.195.828 0a.757.757 0 0 0 .434-.71v-1.72a.18.18 0 0 1 .055-.14.17.17 0 0 1 .136-.062q.2 0 .2.199v1.707a1.1 1.1 0 0 1-.18.652 1.07 1.07 0 0 1-.469.395 1.34 1.34 0 0 1-1.184 0Zm0 0"/><path fill="#061c3d" d="M13.867 15.492q-.321-.001-.613-.137a1.15 1.15 0 0 1-.684-1.097V12.55a.23.23 0 0 1 .157-.239.23.23 0 0 1 .277.055.24.24 0 0 1 .078.184v1.719a.7.7 0 0 0 .11.406q.107.168.285.254a.91.91 0 0 0 .78 0 .68.68 0 0 0 .29-.254.7.7 0 0 0 .11-.406v-1.72q-.001-.174.155-.238.159-.068.282.055.075.075.074.184v1.707c.008.246-.059.476-.191.683a1.2 1.2 0 0 1-.493.414q-.293.136-.617.137M12.82 12.41a.12.12 0 0 0-.093.04q-.043.044-.04.1v1.708q-.01.335.172.617.165.247.442.375.567.258 1.133 0a1.06 1.06 0 0 0 .441-.375 1.05 1.05 0 0 0 .172-.617V12.55a.13.13 0 0 0-.04-.098c-.066-.07-.128-.07-.194 0a.13.13 0 0 0-.04.098v1.719a.84.84 0 0 1-.128.472.76.76 0 0 1-.336.293q-.445.206-.883 0a.74.74 0 0 1-.336-.293.84.84 0 0 1-.13-.472v-1.72a.12.12 0 0 0-.042-.097.13.13 0 0 0-.098-.043M15.98 15.355a.18.18 0 0 1-.054-.14V12.55a.18.18 0 0 1 .054-.14.18.18 0 0 1 .137-.06q.2 0 .2.2v2.664q0 .082-.06.14a.205.205 0 0 1-.277 0m0 0"/><path fill="#061c3d" d="M16.117 15.469a.24.24 0 0 1-.18-.07.24.24 0 0 1-.074-.184V12.55a.25.25 0 0 1 .075-.184q.074-.075.183-.074.104-.001.18.074c.05.051.078.113.074.184v2.668a.23.23 0 0 1-.074.18.23.23 0 0 1-.184.07m-.094-.156q.096.093.196 0a.12.12 0 0 0 .039-.094V12.55a.13.13 0 0 0-.04-.098c-.046-.043-.093-.055-.152-.031q-.088.035-.082.129v2.668q-.001.052.04.094M20.66 11.246H9.094a.3.3 0 0 1-.211-.09.27.27 0 0 1-.086-.207q-.001-.123.086-.21a.29.29 0 0 1 .21-.087H20.66q.118 0 .207.086a.29.29 0 0 1 .086.211.27.27 0 0 1-.086.207.29.29 0 0 1-.207.09M20.41 22.258H9.34a.29.29 0 0 1-.207-.09.27.27 0 0 1-.086-.207q-.001-.123.086-.211a.28.28 0 0 1 .207-.086h11.07q.123-.001.211.086a.29.29 0 0 1 .086.21.27.27 0 0 1-.086.208.3.3 0 0 1-.21.09M18.594 20.773h-7.438a.293.293 0 0 1-.293-.296q0-.123.086-.211a.3.3 0 0 1 .207-.086h7.438q.123.001.21.086a.3.3 0 0 1 0 .422.3.3 0 0 1-.21.085M17.02 19.465h-4.29a.8.8 0 0 1-.582-.242.8.8 0 0 1-.242-.586v-1.39c0-.231.082-.423.242-.587a.8.8 0 0 1 .582-.242h4.29q.34.001.582.242a.8.8 0 0 1 .242.586v1.39c0 .231-.078.427-.242.587a.8.8 0 0 1-.582.242m-4.29-2.453q-.229 0-.23.234v1.39q.001.235.23.235h4.29q.234 0 .234-.234v-1.39q0-.235-.234-.235ZM25.605 8.445H20.66a.3.3 0 0 1-.21-.09.27.27 0 0 1-.087-.207q0-.123.086-.21a.29.29 0 0 1 .211-.086h4.945q.124-.001.211.085a.3.3 0 0 1 .086.211.29.29 0 0 1-.086.207.3.3 0 0 1-.21.09m0 0"/><g clip-path="url(#b)"><path fill="#061c3d" d="M29.219 10.25h-3.614a.29.29 0 0 1-.21-.086.3.3 0 0 1-.086-.21V6.34q.001-.124.086-.207a.3.3 0 0 1 .21-.09h3.614a.3.3 0 0 1 .21.09.27.27 0 0 1 .087.207v3.613a.29.29 0 0 1-.086.211.29.29 0 0 1-.211.086m-3.317-.59h3.02V6.637h-3.02Zm0 0"/></g><path fill="#061c3d" d="M28.168 7.914h-1.512a.29.29 0 0 1-.21-.086.3.3 0 0 1-.087-.207c0-.082.032-.152.086-.21a.29.29 0 0 1 .211-.087h1.512q.123 0 .21.086a.3.3 0 0 1 .087.211.3.3 0 0 1-.086.207.29.29 0 0 1-.211.086M28.168 8.973h-1.512a.3.3 0 0 1-.21-.086.3.3 0 0 1 0-.422.29.29 0 0 1 .21-.086h1.512q.123-.001.21.086a.3.3 0 0 1 0 .422.3.3 0 0 1-.21.086M9.34 14.11H4.395a.29.29 0 0 1-.211-.087.3.3 0 0 1 0-.421.3.3 0 0 1 .21-.086H9.34q.123.001.21.086a.29.29 0 0 1 .087.21.29.29 0 0 1-.086.211.29.29 0 0 1-.211.086m0 0"/><g clip-path="url(#c)"><path fill="#061c3d" d="M4.395 15.918H.78a.3.3 0 0 1-.21-.086.29.29 0 0 1-.087-.21v-3.614q0-.124.086-.211a.29.29 0 0 1 .211-.086h3.614q.123-.001.21.086a.3.3 0 0 1 .086.21v3.614a.3.3 0 0 1-.086.211.3.3 0 0 1-.21.086m-3.317-.594h3.02v-3.023h-3.02Zm0 0"/></g><path fill="#061c3d" d="M3.457 13.582H1.719a.29.29 0 0 1-.207-.086.3.3 0 0 1-.09-.21.3.3 0 0 1 .09-.212.27.27 0 0 1 .207-.086h1.738c.082 0 .148.028.207.086a.29.29 0 0 1 .086.211.293.293 0 0 1-.293.297M3.457 14.637H1.719a.27.27 0 0 1-.207-.086.29.29 0 0 1 0-.418.27.27 0 0 1 .207-.086h1.738c.082 0 .148.027.207.086a.28.28 0 0 1 .086.207.29.29 0 0 1-.086.21.28.28 0 0 1-.207.087m0 0"/></svg>