<svg xmlns="http://www.w3.org/2000/svg" width="40" height="40" version="1.0" viewBox="0 0 30 30"><defs><clipPath id="a"><path d="M6.031.422H24V28.73H6.031Zm0 0"/></clipPath></defs><g clip-path="url(#a)"><path fill="#061c3d" d="M23.082 23.781H6.906V5.95h16.176Zm-6.996 2.797h-2.184c-.265 0-.437-.176-.437-.437 0-.262.172-.438.437-.438h2.184c.262 0 .437.176.437.438a.44.44 0 0 1-.437.437m-4.02-23.781h5.903c.258 0 .433.18.433.437 0 .266-.175.438-.433.438h-5.903c-.265 0-.437-.172-.437-.438 0-.218.172-.437.437-.437m7.735 0h.875c.265 0 .437.18.437.437 0 .266-.172.438-.437.438H19.8c-.262 0-.438-.172-.438-.438 0-.218.176-.437.438-.437M21.77.527H8.219A2.193 2.193 0 0 0 6.03 2.711v23.605c0 1.223.965 2.184 2.188 2.184h13.55c1.223 0 2.184-.96 2.184-2.184V2.711A2.19 2.19 0 0 0 21.77.527"/></g><path fill="#061c3d" d="M13.379 10.055h.871v.875h-.871Zm2.36 0h.87v.875h-.87Zm-4.68 2.492h7.87a.436.436 0 0 0 .434-.438c0-1.18-.476-2.226-1.222-3.015l.656-.965c.133-.219.09-.477-.133-.61-.215-.132-.48-.085-.61.133l-.613.875a4.4 4.4 0 0 0-2.492-.789c-.918 0-1.789.305-2.492.79l-.61-.876c-.132-.218-.394-.265-.613-.132-.218.132-.261.39-.129.609l.657.965c-.746.785-1.227 1.836-1.227 3.015.086.262.305.438.524.438M9.922 19.016c.265 0 .48-.086.7-.262v1.004c0 .484.394.875.874.875h.524v1.18c0 .261.218.437.437.437.266 0 .438-.176.438-.437v-1.18h4.152v1.18c0 .261.219.437.437.437.262 0 .438-.176.438-.437v-1.18h.57c.477 0 .871-.39.871-.875v-1.004c.176.129.438.262.703.262.61 0 1.133-.524 1.133-1.137v-2.711c0-.61-.523-1.137-1.133-1.137-.265 0-.484.09-.703.266v-.965a1.6 1.6 0 0 1-.433.09h-7.871c-.176 0-.305-.047-.438-.09v.965c-.176-.133-.434-.266-.7-.266-.608 0-1.132.528-1.132 1.137v2.71c0 .614.524 1.138 1.133 1.138"/></svg>