<svg xmlns="http://www.w3.org/2000/svg" width="40" height="40" version="1.0" viewBox="0 0 30 30"><defs><clipPath id="a"><path d="M7 0h19v29.031H7Zm0 0"/></clipPath></defs><g clip-path="url(#a)"><path fill="#061c3d" d="M23.602 29.031H9.442c-.962 0-1.75-.789-1.75-1.75V6.074a.34.34 0 0 1 .68 0v21.207c0 .59.48 1.07 1.07 1.07h14.16c.59 0 1.07-.48 1.07-1.07V1.754c0-.59-.48-1.074-1.07-1.074H9.442a.343.343 0 0 1-.34-.34c0-.188.156-.34.34-.34h14.16c.968 0 1.753.79 1.753 1.754v25.52a1.755 1.755 0 0 1-1.753 1.757m0 0"/></g><path fill="#061c3d" d="M22.543 25.04H10.57a1.25 1.25 0 0 1-1.254-1.25V6.073c0-.187.157-.34.344-.34.184 0 .34.153.34.34v17.707c0 .317.258.574.57.574h11.973c.316 0 .57-.257.57-.574V2.816a.574.574 0 0 0-.57-.57h-2.172l-.664 1.535a.33.33 0 0 1-.312.203H13.71a.34.34 0 0 1-.305-.183l-.781-1.563h-.941a.34.34 0 0 1 0-.68h1.148c.133 0 .25.075.309.188l.78 1.567h5.25l.665-1.543a.33.33 0 0 1 .312-.204h2.395c.691 0 1.25.559 1.25 1.25v20.965c0 .692-.559 1.258-1.25 1.258M17.457 27.66h-1.992a.91.91 0 0 1-.906-.906v-.426c0-.5.406-.906.906-.906h1.992a.91.91 0 0 1 .906.906v.426c0 .496-.41.906-.906.906m-1.992-1.566a.227.227 0 0 0-.227.226v.426c0 .125.102.227.227.227h1.992a.23.23 0 0 0 .227-.227v-.426a.23.23 0 0 0-.227-.226Zm0 0"/><path fill="#061c3d" d="M15.074 2.238h-.422a.343.343 0 0 1-.34-.34c0-.187.157-.34.34-.34h.422a.34.34 0 0 1 0 .68M17.648 2.238h-1.496a.34.34 0 0 1 0-.68h1.496a.34.34 0 0 1 0 .68M26.172 8.387h-1.156a.343.343 0 0 1-.344-.34c0-.188.156-.34.344-.34h.816V5.238h-.816a.343.343 0 0 1-.344-.34c0-.187.156-.34.344-.34h1.156a.34.34 0 0 1 .34.34v3.149a.34.34 0 0 1-.34.34M26.172 12.23h-1.156a.343.343 0 0 1-.344-.34c0-.187.156-.34.344-.34h.816v-1.542h-.816a.343.343 0 0 1-.344-.34c0-.188.156-.34.344-.34h1.156a.34.34 0 0 1 .34.34v2.223c0 .191-.153.34-.34.34M7.266 5.246a.34.34 0 0 1-.34-.34V2.61a.76.76 0 1 0-1.52 0v2.297a.34.34 0 0 1-.68 0V2.61c0-.793.645-1.441 1.438-1.441.797 0 1.441.648 1.441 1.441v2.297a.34.34 0 0 1-.34.34m0 0"/><path fill="#061c3d" d="M7.266 3.55H5.07a.34.34 0 0 1 0-.679h2.196a.34.34 0 0 1 0 .68M8.48 5.246a.34.34 0 0 1-.34-.34V1.508a.34.34 0 0 1 .34-.34h1.118c.656 0 1.187.531 1.187 1.191a1.19 1.19 0 0 1-1.187 1.192h-.25l1.148 1.066a.34.34 0 1 1-.465.496l-1.21-1.129v.922a.34.34 0 0 1-.34.34m.34-2.375h.778a.513.513 0 0 0 0-1.023H8.82Zm0 0"/><path fill="#061c3d" d="M11.008 6.414H4.512c-.563 0-1.024-.46-1.024-1.023V1.02C3.488.46 3.95 0 4.512 0h6.496c.562 0 1.02.46 1.02 1.02v4.37c0 .563-.458 1.024-1.02 1.024M4.512.68a.343.343 0 0 0-.344.34v4.37c0 .188.156.344.344.344h6.496c.187 0 .34-.156.34-.343V1.02a.34.34 0 0 0-.34-.34ZM16.648 19.02a.4.4 0 0 1-.175-.047l-3.938-2.352a.34.34 0 0 1-.168-.297v-4.562c0-.121.063-.227.168-.29l3.938-2.417a.35.35 0 0 1 .359 0l3.941 2.418a.34.34 0 0 1 .165.289v4.562a.35.35 0 0 1-.165.297l-3.941 2.352a.37.37 0 0 1-.184.047m-3.597-2.887 3.597 2.148 3.602-2.148v-4.18l-3.602-2.21-3.597 2.21Zm0 0"/><path fill="#061c3d" d="M16.648 14.352a.33.33 0 0 1-.168-.047l-3.94-2.25a.335.335 0 0 1-.126-.465c.09-.164.3-.223.465-.125l3.77 2.156 3.773-2.156a.347.347 0 0 1 .465.125.35.35 0 0 1-.125.465l-3.942 2.25a.3.3 0 0 1-.172.047m0 0"/><path fill="#061c3d" d="M16.648 19.02a.343.343 0 0 1-.34-.34v-4.668a.343.343 0 0 1 .684 0v4.668a.34.34 0 0 1-.344.34m0 0"/></svg>