<svg xmlns="http://www.w3.org/2000/svg" width="40" height="40" version="1.0" viewBox="0 0 30 30"><defs><clipPath id="a"><path d="M.484 1.316h17.297v26.102H.484Zm0 0"/></clipPath><clipPath id="b"><path d="M20 1.29h2V6h-2Zm0 0"/></clipPath><clipPath id="c"><path d="M25.027 8.797h4.48V11h-4.48Zm0 0"/></clipPath></defs><g clip-path="url(#a)"><path fill="#fff" d="M10.48 26.457H7.727a.654.654 0 1 1 0-1.309h2.753a.655.655 0 1 1 0 1.309m5.48-3.293c0 .402-.327.73-.733.73H2.98a.733.733 0 0 1-.734-.73V4.988c0-.406.328-.734.734-.734h12.247c.406 0 .734.328.734.734v1.426h1.762V3.078c0-.973-.79-1.762-1.762-1.762H2.246c-.973 0-1.762.79-1.762 1.762V25.95c0 .973.79 1.762 1.762 1.762h13.715c.973 0 1.762-.79 1.762-1.762v-4.215H15.96z"/></g><path fill="#fff" d="M15.43 15.324h-4.446a.305.305 0 0 0-.304.305v4.293c0 .168.136.305.304.305h4.446a.305.305 0 0 0 .304-.305v-4.293a.305.305 0 0 0-.304-.305M15.734 8.227c0-.168-.136-.301-.304-.301h-4.446a.3.3 0 0 0-.304.3v4.602c0 .164.136.3.304.3h4.446a.304.304 0 0 0 .304-.3zM22.68 15.172l-4.45.152c-.164 0-.3.137-.3.305v4.293c0 .168.136.305.3.305h4.45c.168 0 .3-.137.3-.305v-4.445a.3.3 0 0 0-.3-.305M21.531 7.262a.305.305 0 0 0-.414-.11L17.27 9.527a.3.3 0 0 0-.114.414l2.223 3.848c.086.149.27.195.414.113l3.852-2.375a.305.305 0 0 0 .109-.414zM27.297 4.89c.351-.35.351-.773 0-1.128a.915.915 0 0 0-1.285 0l-1.82 1.672a.903.903 0 0 0 0 1.28.903.903 0 0 0 1.28 0z"/><g clip-path="url(#b)"><path fill="#fff" d="M21.059 5.648c.5 0 .906-.406.906-.906V2.63a.91.91 0 0 0-.906-.91.91.91 0 0 0-.907.91v2.113c0 .5.407.906.907.906"/></g><g clip-path="url(#c)"><path fill="#fff" d="m28.602 9.094-2.438-.153a.9.9 0 0 0-.906.903c0 .504.402.91.906.91l2.438.152c.5 0 .906-.406.906-.91 0-.5-.406-.902-.906-.902"/></g></svg>