<svg xmlns="http://www.w3.org/2000/svg" width="40" height="40" version="1.0" viewBox="0 0 30 30"><defs><clipPath id="a"><path d="M4.258 0H21v29.031H4.258Zm0 0"/></clipPath></defs><path fill="#061c3d" d="M23.203 22.723a.947.947 0 0 0 0 1.895.947.947 0 0 0 0-1.895m0 0"/><g clip-path="url(#a)"><path fill="#061c3d" d="M5.531 3.785H20.68V2.523A2.533 2.533 0 0 0 18.152 0H6.793A2.53 2.53 0 0 0 4.27 2.523v23.985a2.53 2.53 0 0 0 2.523 2.527h11.36a2.534 2.534 0 0 0 2.527-2.527v-2.524H5.53Zm5.348 22h3.187a.628.628 0 1 1 0 1.258H10.88a.628.628 0 1 1 0-1.258m0 0"/></g><path fill="#061c3d" d="M23.39 17.672a1.26 1.26 0 0 0 1.25-1.059l1.087-6.515H14.164l-1.828-2.286a.63.63 0 0 0-.492-.238H9.316a.63.63 0 0 0-.629.633c0 .348.282.629.63.629h2.222l1.715 2.148 1.113 6.688v1.894c0 1.043.848 1.895 1.895 1.895h7.57a.633.633 0 0 0 .633-.633.63.63 0 0 0-.633-.629h-7.57a.633.633 0 0 1-.633-.633v-1.894ZM21.31 16.41h-3.786a.625.625 0 0 1-.632-.633c0-.351.277-.629.632-.629h3.786c.355 0 .632.278.632.63a.625.625 0 0 1-.632.632m-5.047-3.785h6.308c.356 0 .633.277.633.629a.625.625 0 0 1-.633.633h-6.308a.625.625 0 0 1-.633-.633c0-.352.277-.629.633-.629m0 0"/></svg>