<svg xmlns="http://www.w3.org/2000/svg" width="40" height="40" version="1.0" viewBox="0 0 30 30"><defs><clipPath id="a"><path d="M.938.398h28.304v28.309H.938Zm0 0"/></clipPath></defs><g clip-path="url(#a)"><path fill="#fff" fill-rule="evenodd" d="M.95 23.422v-7.73c0-.512.417-.93.925-.93h9.953c.508 0 .926.418.926.93v3.351h4.488v-3.352c0-.511.418-.93.93-.93h9.95c.51 0 .929.419.929.93v7.73a.93.93 0 0 1-.93.927h-6.95v3.351c0 .512-.417.93-.925.93h-9.953a.93.93 0 0 1-.926-.93v-3.351H1.875a.93.93 0 0 1-.926-.926m10.898-6.965v-.766c0-.011-.008-.023-.02-.023H1.875c-.012 0-.02.012-.02.023v.766Zm0 2.586v-1.68H1.855v6.059q.001.019.02.02h7.492v-3.473a.93.93 0 0 1 .926-.926Zm8.398.906h-9.953q-.019.001-.02.02v.765h9.993v-.765q-.001-.019-.02-.02m-2.098-2.586v1.68h2.098c.508 0 .926.414.926.926v3.472h6.95c.01 0 .023-.007.023-.02v-6.058Zm9.997-.906v-.766a.025.025 0 0 0-.024-.023h-9.95a.025.025 0 0 0-.023.023v.766Zm-17.872 5.184v6.058c0 .012.008.024.02.024h9.953c.012 0 .02-.012.02-.024v-6.058Zm9.778-5.301a.28.28 0 0 1-.278-.277c0-.153.125-.278.278-.278.152 0 .277.125.277.277a.28.28 0 0 1-.277.278m1.062 0a.28.28 0 0 1-.277-.277c0-.153.125-.278.277-.278s.278.125.278.277a.28.28 0 0 1-.278.278m-2.125 0a.28.28 0 0 1-.277-.277c0-.153.125-.278.277-.278s.278.125.278.277a.28.28 0 0 1-.278.278m-15.234 0a.28.28 0 0 1-.277-.277c0-.153.125-.278.277-.278s.277.125.277.277a.28.28 0 0 1-.277.278m-1.063 0a.28.28 0 0 1-.277-.277c0-.153.125-.278.277-.278s.278.125.278.277a.28.28 0 0 1-.278.278m2.13 0a.28.28 0 0 1-.278-.277c0-.153.125-.278.277-.278s.278.125.278.277a.28.28 0 0 1-.278.278m8.413 4.277a.27.27 0 0 1-.273-.273c0-.157.121-.278.273-.278.157 0 .278.122.278.278a.273.273 0 0 1-.278.273m-2.125 0a.275.275 0 1 1 0-.55.276.276 0 1 1 0 .55m1.063 0a.275.275 0 1 1 0-.55.276.276 0 1 1 0 .55M10.844 9.223a2.647 2.647 0 0 1-2.586-2.641c0-.988.55-1.855 1.36-2.309A3.954 3.954 0 0 1 13.57.398a3.94 3.94 0 0 1 2.543.93q.46-.129.953-.129a3.62 3.62 0 0 1 3.551 2.93 2.65 2.65 0 0 1 1.664 2.453 2.65 2.65 0 0 1-2.644 2.64h-.485v.051a.45.45 0 0 1-.289.422l-.398.153q-.1.316-.254.609l.172.395a.45.45 0 0 1-.094.503l-.707.707a.455.455 0 0 1-.504.094l-.39-.172a3.5 3.5 0 0 1-.61.25l-.156.403a.45.45 0 0 1-.422.289h-1a.46.46 0 0 1-.426-.29l-.152-.402a3.5 3.5 0 0 1-.61-.25l-.394.172a.46.46 0 0 1-.504-.094l-.707-.707a.46.46 0 0 1-.094-.503l.176-.395a3.6 3.6 0 0 1-.254-.61l-.398-.152a.45.45 0 0 1-.293-.422Zm8.308-.907h.485c.957 0 1.738-.78 1.738-1.734 0-.8-.547-1.477-1.285-1.676a.46.46 0 0 1-.332-.39 2.703 2.703 0 0 0-2.692-2.41q-.48.002-.914.156a.45.45 0 0 1-.465-.098 3.046 3.046 0 0 0-5.16 2.367.45.45 0 0 1-.28.442 1.745 1.745 0 0 0-1.083 1.609c0 .938.75 1.707 1.68 1.734V8.27c0-.188.117-.356.293-.422l.398-.153q.1-.315.254-.61l-.176-.394a.455.455 0 0 1 .094-.503l.707-.708a.455.455 0 0 1 .508-.093l.39.176q.294-.157.61-.254l.152-.403a.46.46 0 0 1 .426-.289h1c.188 0 .355.117.422.29l.156.402q.316.097.61.253l.39-.175a.45.45 0 0 1 .504.093l.707.707a.45.45 0 0 1 .094.504l-.172.391q.153.294.254.613l.398.153c.176.066.29.234.29.422Zm-3.84-2.468-.124-.325h-.38l-.124.325a.45.45 0 0 1-.317.277 2.7 2.7 0 0 0-.793.328.45.45 0 0 1-.422.027l-.316-.14-.266.27.14.316a.45.45 0 0 1-.03.422 2.8 2.8 0 0 0-.328.793.45.45 0 0 1-.278.316l-.324.125v.379l.324.125c.14.055.242.172.278.316.066.282.18.547.328.793a.45.45 0 0 1 .03.422l-.14.317.266.27.316-.142a.45.45 0 0 1 .422.028c.246.148.512.262.793.328a.46.46 0 0 1 .32.277l.122.325h.379l.124-.325a.46.46 0 0 1 .32-.277 2.6 2.6 0 0 0 .79-.328.45.45 0 0 1 .422-.027l.316.14.27-.27-.14-.316a.46.46 0 0 1 .026-.422q.229-.37.329-.793a.46.46 0 0 1 .28-.316l.321-.125v-.379l-.32-.125a.45.45 0 0 1-.281-.316 2.7 2.7 0 0 0-.329-.793.46.46 0 0 1-.027-.422l.14-.317-.269-.27-.316.141a.45.45 0 0 1-.422-.027 2.6 2.6 0 0 0-.79-.328.45.45 0 0 1-.32-.277M15 6.57c1.215 0 2.2.985 2.2 2.2a2.2 2.2 0 1 1-4.4 0c0-1.215.985-2.2 2.2-2.2m0 .907a1.295 1.295 0 0 0 0 2.59 1.295 1.295 0 0 0 0-2.59m-1.047 7.257.652-1.132a.452.452 0 0 1 .785 0l.653 1.132a.453.453 0 0 1-.59.633v2.813a.453.453 0 0 1-.906 0v-2.813a.46.46 0 0 1-.426-.015.45.45 0 0 1-.168-.618m5.512-4.379a.46.46 0 0 1 .164-.16l1.133-.652a.45.45 0 0 1 .617.164.46.46 0 0 1 .016.426h1.753c.25 0 .454.203.454.453v2.93a.453.453 0 0 1-.907 0v-2.477h-1.3a.46.46 0 0 1-.016.426.45.45 0 0 1-.617.168l-1.133-.653a.452.452 0 0 1-.164-.625M8.28 10.133a.46.46 0 0 1 .016-.426.45.45 0 0 1 .617-.164l1.133.652a.46.46 0 0 1 .164.16q.06.107.062.23a.45.45 0 0 1-.226.395l-1.133.653a.45.45 0 0 1-.617-.168.46.46 0 0 1-.016-.426h-1.3v2.477a.453.453 0 0 1-.907 0v-2.93c0-.25.203-.453.453-.453Zm0 0"/></g></svg>