<svg xmlns="http://www.w3.org/2000/svg" width="40" height="40" version="1.0" viewBox="0 0 30 30"><defs><clipPath id="a"><path d="M3.387.293H27.34v28.309H3.387Zm0 0"/></clipPath></defs><g clip-path="url(#a)"><path fill="#061c3d" d="M21.762 10.96a2.97 2.97 0 0 0 2.965-2.964.59.59 0 0 0-.594-.59 2.965 2.965 0 0 0-2.965 2.961c0 .328.266.594.594.594M20.418 23.81c-.461.125-.906.187-1.406.187-1.516 0-2.668-1.328-3.223-2.117-.008-.012-.02-.016-.031-.027a.5.5 0 0 0-.137-.122c-.023-.015-.039-.03-.062-.043a.6.6 0 0 0-.254-.062H4.578V6.219h15.406v1.047a.593.593 0 0 0 1.184 0V3.258A2.967 2.967 0 0 0 18.207.293H6.355a2.967 2.967 0 0 0-2.96 2.965v22.515a2.967 2.967 0 0 0 2.96 2.965h11.852a2.967 2.967 0 0 0 2.961-2.965V24.38a.59.59 0 0 0-.75-.57M17.035 2.664h.012a.593.593 0 0 1 0 1.184.6.6 0 0 1-.602-.59.59.59 0 0 1 .59-.594m-5.937 0h2.367a.593.593 0 1 1 0 1.184h-2.367a.593.593 0 1 1 0-1.184m1.183 23.703a1.184 1.184 0 0 1-1.183-1.187 1.183 1.183 0 1 1 2.367 0c0 .656-.531 1.187-1.184 1.187M27 18.242a.6.6 0 0 0-.418-.265c-.848-.114-1.484-.809-1.484-1.614 0-.707.48-1.328 1.195-1.55a.589.589 0 0 0 .316-.89c-.691-1.048-1.793-1.778-2.683-1.778-.594 0-1.13.175-1.602.328-.367.117-.715.23-1 .23s-.629-.113-.996-.23c-.469-.157-1.008-.328-1.601-.328-1.387 0-3.485 1.793-3.485 4.496 0 2.547 1.953 6.172 3.774 6.172.87 0 1.402-.231 1.793-.399.488-.21.55-.21 1.039 0 .386.168.918.398 1.793.398 1.359 0 2.812-2.074 3.43-4.074a.6.6 0 0 0-.071-.496m0 0"/></g></svg>