<svg xmlns="http://www.w3.org/2000/svg" width="40" height="40" version="1.0" viewBox="0 0 30 30"><defs><clipPath id="a"><path d="M2.172.016h25.402v29H2.172Zm0 0"/></clipPath></defs><path fill="#061c3d" d="M3.902 21.324v3.344c0 .273.215.488.489.488h6.14a.48.48 0 0 0 .485-.488v-3.344c0-.273-.243-.484-.516-.484H4.39a.48.48 0 0 0-.488.484M14.605 8.617a.85.85 0 0 0-.851.852v.914c0 .484.394.851.851.851a.85.85 0 0 0 .848-.851v-.914a.85.85 0 0 0-.848-.852M21.383 26.828c0 .242.21.457.457.457H25a.47.47 0 0 0 .457-.457v-.82h-4.074z"/><g clip-path="url(#a)"><path fill="#061c3d" d="M26.336 26.828c0 .758-.606 1.367-1.367 1.367h-3.13c-.76 0-1.37-.61-1.37-1.367v-5.504c0-.758.61-1.367 1.37-1.367h1.126v-1.703H7.918v1.703h2.613c.758 0 1.399.61 1.399 1.398V24.7c0 .762-.61 1.399-1.399 1.399H7.918v1.187h1.184c.242 0 .457.211.457.453a.47.47 0 0 1-.457.457H5.82a.465.465 0 0 1-.457-.457c0-.242.211-.453.457-.453h1.184v-1.187H4.39c-.762 0-1.399-.61-1.399-1.399v-3.344c0-.757.61-1.398 1.399-1.398h2.613v-2.156c0-.246.215-.457.457-.457h7.508V15.64H7.582a3.736 3.736 0 0 1-3.738-3.739c0-1.672 1.156-3.16 2.734-3.586-.031-.183-.031-.336-.031-.52a3.737 3.737 0 0 1 4.894-3.554c.52-1.976 2.282-3.406 4.38-3.406 2.402 0 4.374 1.918 4.5 4.289q.68-.186 1.366-.184c2.95 0 5.317 2.43 5.317 5.352a5.32 5.32 0 0 1-5.317 5.316H15.88v1.704h7.539c.246 0 .457.214.457.457v2.156H25c.758 0 1.367.61 1.336 1.37Zm.23-7.058A2.17 2.17 0 0 0 25 19.105h-.305V17.77c0-.692-.582-1.278-1.277-1.278h-6.719v-.062h4.988c3.383 0 6.141-2.754 6.141-6.137 0-3.406-2.758-6.172-6.14-6.172q-.342-.001-.676.04A5.33 5.33 0 0 0 15.82.015a5.35 5.35 0 0 0-4.914 3.265 4.567 4.567 0 0 0-5.18 4.469c-1.597.715-2.703 2.363-2.703 4.152a4.56 4.56 0 0 0 4.559 4.559h6.566v.062H7.461c-.691 0-1.277.582-1.277 1.278v1.336H4.39a2.22 2.22 0 0 0-2.22 2.218V24.7c0 1.223.997 2.219 2.22 2.219h.46a1.26 1.26 0 0 0-.308.82c0 .692.586 1.278 1.277 1.278h3.282c.691 0 1.277-.586 1.277-1.278 0-.308-.117-.597-.309-.82h.461a2.22 2.22 0 0 0 2.219-2.219v-3.344a2.22 2.22 0 0 0-2.219-2.218H8.738v-.063h13.403v.063h-.301c-1.207 0-2.192.98-2.192 2.187v5.504c0 1.207.985 2.188 2.192 2.188h3.129c1.207 0 2.187-.98 2.187-2.188v-5.5a2.1 2.1 0 0 0-.59-1.558"/></g><path fill="#061c3d" d="M25.426 21.297a.47.47 0 0 0-.457-.457h-3.13a.465.465 0 0 0-.456.457v3.765h4.043zM19.77 8.648h-.7v3.04c0 .246-.21.457-.453.457a.47.47 0 0 1-.457-.457v-3.04h-.7c-.241 0-.483-.21-.483-.453 0-.246.21-.457.453-.457h2.34c.246 0 .457.211.457.457 0 .242-.211.453-.457.453m-3.403 1.735c0 .972-.762 1.793-1.734 1.793-.973 0-1.762-.79-1.762-1.762V9.5c0-.973.762-1.793 1.734-1.793.973 0 1.762.79 1.762 1.762Zm-4.832 1.305a.47.47 0 0 1-.457.457.47.47 0 0 1-.457-.457V8.195c0-.246.215-.457.457-.457s.457.211.457.457Zm14.559-1.426a4.41 4.41 0 0 0-4.407-4.41c-.578 0-1.125.125-1.671.335a.48.48 0 0 1-.457-.062c-.122-.121-.211-.273-.184-.426.031-.12.031-.242.031-.363A3.59 3.59 0 0 0 15.82 1.75c-1.824 0-3.375 1.367-3.558 3.16-.028.152-.121.305-.242.367a.54.54 0 0 1-.426 0 2.76 2.76 0 0 0-1.305-.336A2.843 2.843 0 0 0 7.461 7.77c0 .273.031.515.09.757.031.121 0 .243-.059.368-.062.12-.183.18-.304.21-1.399.211-2.434 1.399-2.434 2.797 0 1.551 1.277 2.797 2.828 2.797h14.106c2.43 0 4.406-2.008 4.406-4.437"/></svg>