<svg xmlns="http://www.w3.org/2000/svg" width="40" height="40" version="1.0" viewBox="0 0 30 30"><defs><clipPath id="a"><path d="M.809.328h28.308v28.305H.81Zm0 0"/></clipPath></defs><g clip-path="url(#a)"><path fill="#061c3d" fill-rule="evenodd" d="M2.68 6.09q-.148.03-.301.031a1.567 1.567 0 1 1 0-3.133 1.563 1.563 0 0 1 1.04 2.734l.776 1.493h1.79v.824h-2.04a.41.41 0 0 1-.367-.223Zm24.636 0-.898 1.726a.41.41 0 0 1-.367.223h-2.04v-.824h1.79l.773-1.492a1.566 1.566 0 1 1 .742.367m-1.21 8.277h-2.094v-.828h2.093a1.57 1.57 0 0 1 1.512-1.152 1.566 1.566 0 1 1-1.512 1.98m.48 7.836c-.383-.734-.785-1.512-.785-1.512h-1.79v-.828h2.04c.156 0 .297.086.367.223l.914 1.754a1.567 1.567 0 0 1 1.852 1.543 1.566 1.566 0 1 1-2.598-1.18m-23.176 0a1.569 1.569 0 1 1-.746-.363l.914-1.754a.41.41 0 0 1 .367-.223h2.04v.828h-1.79Zm.477-7.836a1.564 1.564 0 0 1-1.508 1.153 1.567 1.567 0 1 1 1.508-1.98h2.097v.827Zm19.297 12.274a2.064 2.064 0 0 1-2.059 2.058H8.867a2.063 2.063 0 0 1-2.055-2.058V2.387c0-1.133.926-2.059 2.055-2.059h12.258c1.133 0 2.059.926 2.059 2.059Zm-2.457-10.844c.683 0 1.23-.55 1.23-1.23V13.34c0-.68-.547-1.23-1.23-1.23a.532.532 0 0 1-.375-.907c.48-.48.48-1.258 0-1.738l-.864-.867h-.004a1.23 1.23 0 0 0-1.738 0 .532.532 0 0 1-.906-.375c0-.68-.55-1.23-1.23-1.23h-1.227c-.676 0-1.23.55-1.23 1.23 0 .472-.571.707-.903.375a1.23 1.23 0 0 0-1.738 0l-.871.867c-.48.48-.48 1.258 0 1.738a.53.53 0 0 1-.375.906 1.23 1.23 0 0 0-1.227 1.23v1.227c0 .68.55 1.23 1.227 1.23.472 0 .71.571.375.903a1.24 1.24 0 0 0 0 1.742l.87.868c.477.48 1.259.48 1.739 0a.528.528 0 0 1 .902.375c0 .68.555 1.23 1.23 1.23h1.227c.68 0 1.23-.55 1.23-1.23a.53.53 0 0 1 .907-.375c.48.48 1.262.48 1.738 0l.868-.868c.48-.48.48-1.261 0-1.742a.53.53 0 0 1 .375-.902m0-.828c-1.207 0-1.813 1.46-.957 2.316a.406.406 0 0 1 0 .57l-.868.868a.406.406 0 0 1-.57 0c-.855-.856-2.32-.246-2.32.96 0 .223-.18.403-.403.403h-1.226a.404.404 0 0 1-.403-.402c0-1.211-1.46-1.817-2.316-.961a.406.406 0 0 1-.57 0l-.867-.868a.406.406 0 0 1 0-.57c.855-.855.25-2.316-.961-2.316a.404.404 0 0 1-.403-.403V13.34c0-.223.184-.402.403-.402 1.21 0 1.816-1.465.96-2.32a.4.4 0 0 1 0-.567l.868-.867c.16-.16.414-.16.57 0 .856.851 2.316.246 2.316-.961 0-.223.184-.403.403-.403h1.226c.223 0 .403.18.403.403 0 1.207 1.465 1.812 2.32.96.156-.16.41-.16.57 0l.868.868a.4.4 0 0 1 0 .566c-.856.856-.25 2.32.957 2.32.222 0 .402.18.402.403v1.226c0 .223-.18.403-.402.403M15 17.313a3.367 3.367 0 0 0 3.36-3.36 3.367 3.367 0 0 0-3.36-3.36 3.37 3.37 0 0 0-3.363 3.36A3.37 3.37 0 0 0 15 17.313m0-.829a2.536 2.536 0 0 1-2.535-2.53A2.54 2.54 0 0 1 15 11.417a2.54 2.54 0 0 1 2.531 2.535A2.536 2.536 0 0 1 15 16.484m-1.121 9.774h2.238a.414.414 0 0 0 0-.828H13.88a.414.414 0 0 0 0 .828m0 0"/></g></svg>