<svg xmlns="http://www.w3.org/2000/svg" width="40" height="40" version="1.0" viewBox="0 0 30 30"><defs><clipPath id="a"><path d="M7 12h12v17.031H7Zm0 0"/></clipPath></defs><path fill="#061c3d" fill-rule="evenodd" d="M27.238 22.297H21.66a.34.34 0 0 1 0-.68h5.578c.407 0 .766-.34.766-.765V1.445a.774.774 0 0 0-.766-.765H2.762a.76.76 0 0 0-.766.765v19.407c0 .425.34.765.766.765h5.46a.34.34 0 0 1 0 .68h-5.46a1.445 1.445 0 0 1-1.446-1.445V1.445C1.316.645 1.965 0 2.762 0h24.476c.797 0 1.446.645 1.446 1.445v19.407c0 .8-.649 1.445-1.446 1.445m0 0"/><path fill="#061c3d" fill-rule="evenodd" d="M28.344 5.36H1.656a.343.343 0 0 1 0-.684h26.688a.343.343 0 0 1 0 .683m0 0"/><path fill="#061c3d" fill-rule="evenodd" d="M26.063 20.102h-5.086a.343.343 0 0 1-.34-.34c0-.188.156-.34.34-.34h4.746V5.016c0-.184.152-.34.34-.34.187 0 .34.156.34.34v14.746a.34.34 0 0 1-.34.34m-17.84 0H3.937a.34.34 0 0 1-.34-.34V5.016c0-.184.153-.34.34-.34s.34.156.34.34v14.406h3.946a.34.34 0 0 1 0 .68M23.035 5.36a.343.343 0 0 1-.34-.344V.34a.34.34 0 0 1 .68 0v4.676a.343.343 0 0 1-.34.343M4.277 3.93h-.715a.894.894 0 0 1-.882-.903v-.715c0-.492.39-.882.882-.882h.715c.493 0 .883.39.883.883v.714c0 .493-.39.903-.883.903m-.715-1.82a.22.22 0 0 0-.203.203v.714c0 .118.102.223.204.223h.714c.118 0 .203-.105.203-.223v-.715a.207.207 0 0 0-.203-.203ZM7.61 3.93h-.715a.894.894 0 0 1-.883-.903v-.715c0-.492.39-.882.883-.882h.714a.88.88 0 0 1 .887.883v.714a.897.897 0 0 1-.887.903m-.715-1.82a.207.207 0 0 0-.204.203v.714c0 .118.086.223.204.223h.714c.121 0 .204-.105.204-.223v-.715a.204.204 0 0 0-.204-.203ZM10.945 3.93h-.715a.894.894 0 0 1-.886-.903v-.715c0-.492.39-.882.886-.882h.715c.492 0 .883.39.883.883v.714c0 .493-.39.903-.883.903m-.715-1.82a.21.21 0 0 0-.207.203v.714c0 .118.086.223.207.223h.715c.117 0 .203-.105.203-.223v-.715a.207.207 0 0 0-.203-.203ZM20.824 3.012H13.75a.343.343 0 0 1 0-.684h7.074a.343.343 0 0 1 0 .684M26.93 3.012h-2.211a.343.343 0 0 1 0-.684h2.21a.343.343 0 0 1 0 .684m0 0"/><g clip-path="url(#a)"><path fill="#061c3d" fill-rule="evenodd" d="M16.93 29.031H9.023c-.632 0-1.14-.508-1.14-1.136V13.18c0-.61.508-1.121 1.14-1.121h7.907c.629 0 1.14.511 1.14 1.12v3.25a.34.34 0 0 1-.68 0v-3.25a.456.456 0 0 0-.46-.44H9.023a.453.453 0 0 0-.46.44v14.716c0 .253.203.457.46.457h7.907c.254 0 .46-.204.46-.457v-3.25a.34.34 0 0 1 .68 0v3.25c0 .628-.511 1.136-1.14 1.136m0 0"/></g><path fill="#061c3d" fill-rule="evenodd" d="M14.344 14.133h-2.739a1.027 1.027 0 0 1-1.035-1.035v-.7a.34.34 0 0 1 .34-.34h4.133a.34.34 0 0 1 .34.34v.7a1.03 1.03 0 0 1-1.04 1.035m-3.094-1.395v.36c0 .203.152.355.355.355h2.739c.207 0 .36-.152.36-.355v-.36ZM14.703 27.758H11.25a.34.34 0 0 1 0-.68h3.453a.33.33 0 0 1 .34.34.33.33 0 0 1-.34.34M17.73 26.48H8.223a.34.34 0 0 1-.34-.34.33.33 0 0 1 .34-.34h9.507a.33.33 0 0 1 .34.34.34.34 0 0 1-.34.34M18.684 24.984h-1.907a.34.34 0 0 1-.34-.34v-1.09a4 4 0 0 1-.68-.39l-.937.543a.335.335 0 0 1-.476-.117l-.95-1.649c-.035-.086-.054-.171-.035-.257.036-.082.086-.168.168-.204l.938-.543c-.02-.136-.02-.273-.02-.39 0-.137 0-.274.02-.395l-.938-.543a.46.46 0 0 1-.168-.218.43.43 0 0 1 .036-.258l.949-1.649c.101-.152.308-.222.476-.12l.938.546a4 4 0 0 1 .68-.39v-1.09a.34.34 0 0 1 .34-.34h1.906a.34.34 0 0 1 .34.34v1.09c.238.101.456.238.68.39l.952-.547c.067-.05.168-.05.254-.031.086.016.152.082.203.152l.953 1.649a.357.357 0 0 1-.136.476l-.934.543c.016.121.016.258.016.395 0 .117 0 .254-.016.39l.934.543c.086.036.136.122.172.204a.46.46 0 0 1-.036.257l-.953 1.649a.3.3 0 0 1-.203.152.26.26 0 0 1-.254-.035l-.953-.543c-.223.152-.441.29-.68.39v1.09a.34.34 0 0 1-.34.34m-1.567-.68h1.227v-.988c0-.136.101-.27.238-.304.305-.121.61-.29.867-.512a.31.31 0 0 1 .39-.031l.849.492.613-1.07-.852-.496a.36.36 0 0 1-.168-.356 2.526 2.526 0 0 0 0-1.004.37.37 0 0 1 .168-.355l.852-.496-.613-1.055-.848.496a.34.34 0 0 1-.39-.05 2.6 2.6 0 0 0-.868-.497.34.34 0 0 1-.238-.32v-.988h-1.227v.988c0 .133-.086.27-.222.32-.32.102-.63.274-.883.496-.102.102-.254.117-.39.051l-.852-.496-.614 1.055.852.496c.137.066.187.218.172.355a2.5 2.5 0 0 0 0 1.004c.015.152-.035.29-.172.356l-.852.496.614 1.07.851-.492c.137-.086.29-.07.39.031.255.223.563.39.884.512a.31.31 0 0 1 .222.304Zm0 0"/><path fill="#061c3d" fill-rule="evenodd" d="M17.73 22.55a2.01 2.01 0 0 1-2.007-2.003c0-1.106.902-2.008 2.007-2.008 1.106 0 2.008.902 2.008 2.008a2.01 2.01 0 0 1-2.008 2.004m0-3.331a1.33 1.33 0 0 0-1.328 1.328 1.325 1.325 0 1 0 1.328-1.328m0 0"/></svg>