<svg xmlns="http://www.w3.org/2000/svg" width="40" height="40" version="1.0" viewBox="0 0 30 30"><defs><clipPath id="a"><path d="M1.098.438H28.68v28.308H1.098Zm0 0"/></clipPath></defs><g clip-path="url(#a)"><path fill="#fff" d="m3.21 11.59.345-.867a.43.43 0 0 1 .39-.266h1.543c.192 0 .352.125.407.297l.332.836h.976L6.52 9.895H2.914l-.68 1.695Zm2.103 0-.11-.285h-.969l-.113.285ZM3.066 8.043h3.305v-1.75H3.066Zm3.305.848H3.066v.156h3.305Zm.852.48.992 2.457a.424.424 0 0 1-.383.61h-6.23a.424.424 0 0 1-.391-.583l1.004-2.484V5.867c0-.234.187-.422.426-.422h4.156a.42.42 0 0 1 .422.422v3.504Zm19.715-2.863-.165.742a.43.43 0 0 1-.414.332v.004h-1.464a.424.424 0 0 1-.415-.324l-.25-.754c-.074 0-.148-.012-.148.02v4.038h2.969V6.527q.001-.005-.004-.011Zm-1.817 0 .078.226h.82l.051-.226Zm1.93 4.906h-2.969l.008.402h-.004l2.945.008.02-.02ZM24.1 5.66h2.93a.872.872 0 0 1 .871.867v5.278a.874.874 0 0 1-.87.867h-2.93a.86.86 0 0 1-.614-.254.86.86 0 0 1-.258-.613V6.527c0-.476.395-.867.872-.867m-6.84-3.902-.866.738.867.945ZM15.75 3.047l-.129.11a.42.42 0 0 1-.55-.005l-.122-.105-.957 1.039h2.715Zm-1.45-.55-.866-.74v1.684Zm-.116-1.208 1.164.988 1.164-.988ZM13.008.438h4.68c.234 0 .425.19.425.425v3.645a.424.424 0 0 1-.425.426h-4.68a.424.424 0 0 1-.426-.426V.863c0-.234.191-.425.426-.425M5.973 18.25a.423.423 0 1 1-.848 0v-.434h-.812v.434a.427.427 0 0 1-.852 0v-.434h-.145l-.703 3.782h4.211l-.707-3.782h-.144Zm-.848-1.281v-.64c0-.419-.812-.419-.812 0v.64Zm-1.664 0v-.64c0-1.544 2.512-1.544 2.512 0v.64h.496c.222 0 .402.164.422.379l.859 4.597a.426.426 0 0 1-.418.5v.004h-5.23c-.266 0-.477-.242-.41-.539l.855-4.594a.43.43 0 0 1 .418-.347Zm22.602 1.343c1.457.446 1.648 2.43.308 3.145a1.71 1.71 0 1 1-.308-3.145m.265 1.231a.865.865 0 0 0-1.594.172c-.132.426.137.93.563 1.055a.863.863 0 0 0 1.031-1.227m-.004-2.816.406.12c.348.11.54.465.43.833l.324.265a.653.653 0 0 1 .899.262l.199.375a.645.645 0 0 1-.285.887l.043.422c.367.109.555.468.453.816l-.125.41c-.105.348-.465.535-.832.426l-.266.324c.18.34.063.727-.258.899l-.378.199a.647.647 0 0 1-.887-.281l-.422.039a.65.65 0 0 1-.812.453l-.473-.149a.653.653 0 0 1-.367-.808l-.325-.266a.65.65 0 0 1-.898-.258l-.2-.379a.645.645 0 0 1 .286-.886l-.043-.418c-.367-.114-.559-.473-.45-.817l.122-.41a.646.646 0 0 1 .828-.426l.27-.328a.65.65 0 0 1 .222-.875l.414-.222a.646.646 0 0 1 .887.285l.422-.04a.65.65 0 0 1 .816-.452m-.023.875-.04-.012a.64.64 0 0 1-.632.433c-.442-.015-.61.149-.914.012a.67.67 0 0 1-.29-.262l-.03.016a.65.65 0 0 1-.145.754c-.328.305-.328.535-.64.652a.63.63 0 0 1-.391.02l-.012.035c.27.094.441.348.434.637-.016.441.148.61.007.914a.62.62 0 0 1-.261.289l.02.031a.65.65 0 0 1 .753.145c.305.324.535.328.652.64a.63.63 0 0 1 .02.39l.035.009a.645.645 0 0 1 .633-.43c.445.016.613-.148.918-.012a.65.65 0 0 1 .289.266l.031-.02a.645.645 0 0 1 .145-.754c.324-.304.328-.535.64-.652a.63.63 0 0 1 .391-.02l.008-.035a.66.66 0 0 1-.434-.632c.02-.446-.144-.614-.008-.918a.67.67 0 0 1 .262-.29l-.015-.035a.64.64 0 0 1-.754-.14c-.305-.324-.535-.328-.653-.64a.63.63 0 0 1-.02-.391m-12.098 8.453a.42.42 0 0 1 .402-.461c-.242-.133-.41-.364-.41-.813 0-.445.317-.8.723-.945v-.043c0-.234.187-.426.434-.426v.004c.25 0 .43.192.421.465.797.281.957 1.25.383 1.363.207.14.344.367.344.774 0 .449-.32.804-.73.949 0 .64-.852.578-.852.039v-.043c-.379-.137-.68-.453-.715-.863m.719-.336c.172.168.058.254.187.351.207.153.543.032.543-.097 0-.106-.191-.141-.382-.18-.118-.023-.239-.047-.348-.074m.508-.758c.097.02.199.039.297.062-.13-.183-.02-.238-.133-.332-.2-.164-.547-.043-.547.09 0 .106.191.14.383.18m-.082-2.793a3.207 3.207 0 0 1 3.21 3.207 3.21 3.21 0 0 1-3.21 3.21 3.207 3.207 0 0 1-3.207-3.21 3.204 3.204 0 0 1 3.207-3.207m1.668 1.539a2.36 2.36 0 0 0-3.336 0 2.36 2.36 0 0 0 0 3.34 2.36 2.36 0 0 0 3.336 0 2.36 2.36 0 0 0 0-3.34m4.543-6.992c.015-.422.578-.563.789-.195l.62 1.074a.427.427 0 0 1-.37.636h-1.239c-.425 0-.582-.558-.226-.785l-1.211-.699a.423.423 0 0 1 .422-.73Zm-5.79 3.473c.376-.196.774.218.567.585l-.621 1.07a.42.42 0 0 1-.735-.003l-.617-1.067c-.21-.367.192-.78.563-.585v-1.043a.42.42 0 0 1 .422-.422.42.42 0 0 1 .422.422Zm-6.206-2.743c.359.227.199.785-.227.785H8.098a.425.425 0 0 1-.348-.671l.598-1.04c.214-.367.773-.226.789.196l1.215-.7a.425.425 0 0 1 .578.153.423.423 0 0 1-.157.578Zm-.426-6.925c-.016.421-.575.562-.79.195L7.73 9.64a.422.422 0 0 1 .368-.633v-.004h1.238c.426 0 .586.559.226.785l1.211.7a.423.423 0 1 1-.421.73Zm5.785-3.602c-.371.195-.774-.223-.563-.586l.621-1.074a.426.426 0 0 1 .739.004l.617 1.07c.21.363-.191.781-.563.586v1.176a.426.426 0 0 1-.852 0Zm6.21 2.871c-.355-.226-.198-.785.227-.785h1.239c.316 0 .55.348.355.664l-.605 1.047c-.215.367-.778.226-.79-.195l-1.214.699a.421.421 0 1 1-.422-.73Zm-1.652 4.254h-1.457a8.6 8.6 0 0 1-.312 1.988c.234.13.453.27.664.43a4.12 4.12 0 0 0 1.105-2.418m-2.308 0h-1.399v1.414q.6.052 1.153.238c.133-.5.219-1.058.246-1.652m-2.25 0h-1.399c.028.594.114 1.152.247 1.652a5 5 0 0 1 1.152-.238Zm-2.25 0h-1.453a4.14 4.14 0 0 0 1.101 2.418q.318-.241.664-.43a8.6 8.6 0 0 1-.312-1.988m-1.453-.852h1.453c.031-.714.14-1.39.312-1.988a5 5 0 0 1-.664-.43 4.15 4.15 0 0 0-1.101 2.418m2.3 0h1.403v-1.41a5 5 0 0 1-1.152-.238 8 8 0 0 0-.25 1.648m2.254 0h1.399a7.8 7.8 0 0 0-.246-1.648 5 5 0 0 1-1.153.238Zm2.25 0h1.457a4.13 4.13 0 0 0-1.105-2.418q-.314.241-.664.43c.172.598.281 1.274.312 1.988m-2.25-3.601v1.336a4 4 0 0 0 .875-.184c-.222-.5-.523-.941-.875-1.152m0 6.719v1.336c.352-.207.653-.649.875-1.149a4 4 0 0 0-.875-.187m-.851 1.336v-1.336a4 4 0 0 0-.871.187c.219.5.52.942.87 1.149m0-6.72V9.59c-.352.207-.652.648-.871 1.152.277.09.57.153.87.184m2.234-1.046.266.516q.151-.09.297-.188a4.5 4.5 0 0 0-.563-.328m.262 6.96-.262.52a4 4 0 0 0 .559-.332 3 3 0 0 0-.297-.187m-3.875.52-.266-.52a5 5 0 0 0-.3.188 4 4 0 0 0 .566.332m-.266-6.964.262-.516a4.5 4.5 0 0 0-.562.328q.147.1.3.188m2.07-1.778a5.003 5.003 0 1 1-5.003 5c0-2.762 2.242-5 5.004-5m0 0"/></g></svg>