<svg xmlns="http://www.w3.org/2000/svg" width="40" height="40" version="1.0" viewBox="0 0 30 30"><defs><clipPath id="a"><path d="M12 21h6v8.031h-6Zm0 0"/></clipPath><clipPath id="b"><path d="M9.102 7h11.613v15H9.102Zm0 0"/></clipPath></defs><path fill="#061c3d" d="M12.27 0h5.457v7.336H12.27Zm0 0"/><g clip-path="url(#a)"><path fill="#061c3d" d="M12.27 21.695h5.457v7.336H12.27Zm0 0"/></g><g clip-path="url(#b)"><path fill="#061c3d" d="M18.11 7.844h-6.22a2.784 2.784 0 0 0-2.785 2.785v7.691a2.784 2.784 0 0 0 2.786 2.785h6.218a2.787 2.787 0 0 0 2.786-2.785v-7.695a2.786 2.786 0 0 0-2.786-2.781m1.964 9.554a2.783 2.783 0 0 1-2.785 2.782h-4.578a2.783 2.783 0 0 1-2.785-2.782v-5.851a2.783 2.783 0 0 1 2.785-2.781h4.578a2.783 2.783 0 0 1 2.785 2.78Zm0 0"/></g><path fill="#061c3d" d="M16.234 11.418c-.441 0-.882.16-1.234.48a1.84 1.84 0 0 0-1.234-.48 1.83 1.83 0 0 0-1.332.582 2.076 2.076 0 0 0-.102 2.707q.045.06.102.113L15 17.527l2.566-2.707a1 1 0 0 0 .102-.113A2.076 2.076 0 0 0 17.566 12a1.84 1.84 0 0 0-1.332-.582m1.618 2.039h-.825v.824H16v-.824h-.824V12.43H16v-.825h1.027v.825h.82v1.027Zm0 0"/></svg>