<svg xmlns="http://www.w3.org/2000/svg" width="40" height="40" version="1.0" viewBox="0 0 30 30"><defs><clipPath id="a"><path d="M11 .508h8V3h-8Zm0 0"/></clipPath><clipPath id="b"><path d="M.484 6h29.032v22.816H.484Zm0 0"/></clipPath></defs><path fill="#061c3d" d="M17.07 3.484a.26.26 0 0 0 .192.082c.054 0 .12-.02.172-.062a.26.26 0 0 0 .02-.36 3.34 3.34 0 0 0-2.474-1.101c-.94 0-1.84.402-2.468 1.102a.254.254 0 0 0 .02.359.253.253 0 0 0 .355-.02 2.802 2.802 0 0 1 4.183 0m0 0"/><path fill="#061c3d" d="M14.98 3.566c-.507 0-.992.215-1.332.594a.253.253 0 1 0 .38.336 1.262 1.262 0 0 1 1.895 0c.05.059.12.082.19.082.059 0 .121-.02.172-.062.102-.098.117-.254.02-.356a1.77 1.77 0 0 0-1.325-.594m0 0"/><g clip-path="url(#a)"><path fill="#061c3d" d="M11.754 2.465a4.326 4.326 0 0 1 6.453 0c.05.058.121.082.191.082.059 0 .122-.02.172-.063.102-.097.117-.254.02-.355A4.84 4.84 0 0 0 14.98.512a4.83 4.83 0 0 0-3.601 1.61.25.25 0 0 0 .016.355.25.25 0 0 0 .359-.012m0 0"/></g><g clip-path="url(#b)"><path fill="#061c3d" d="M28.008 6.621H1.992A1.51 1.51 0 0 0 .484 8.133V22.94c0 .832.676 1.508 1.508 1.508h2.121l-2.515 2.094a.25.25 0 0 0-.032.355c.051.059.121.09.196.09.058 0 .117-.02.168-.054l2.77-2.305.386 1.172a.26.26 0 0 0 .324.156c.137-.031.207-.191.16-.324l-.394-1.192h7.531v3.164c0 .504.41.91.91.91h2.766c.5 0 .91-.406.91-.91V24.45h7.539l-.398 1.192c-.043.132.027.285.16.324.12.031.281-.02.324-.16l.39-1.172 2.77 2.305c.043.039.106.058.164.058a.27.27 0 0 0 .2-.09.257.257 0 0 0-.032-.355l-2.523-2.102H28c.836 0 1.508-.676 1.508-1.508V8.133a1.5 1.5 0 0 0-1.5-1.512M16.78 27.613a.4.4 0 0 1-.398.403h-2.766a.4.4 0 0 1-.398-.403v-5.82c0-.223.176-.398.398-.398h.11v.343c0 .375.304.672.675.672h1.196a.675.675 0 0 0 .675-.672v-.343h.11c.222 0 .398.175.398.398Zm-2.547-6.218h1.532v.343a.17.17 0 0 1-.168.164h-1.196a.17.17 0 0 1-.168-.164Zm2.149-.512h-2.766c-.5 0-.91.41-.91.91v1.129H2.012V8.148h25.976v14.774H17.293v-1.129c0-.5-.41-.91-.91-.91m12.625 2.058a1 1 0 0 1-1 1H17.293v-.511h10.95c.14 0 .253-.114.253-.254V7.895a.253.253 0 0 0-.254-.254H1.758a.253.253 0 0 0-.254.254v15.28c0 .141.113.255.254.255h10.949v.511H1.992a1 1 0 0 1-1-1V8.133c0-.555.446-1 1-1h26.016c.555 0 1 .445 1 1Zm0 0"/></g><path fill="#061c3d" d="M12.96 14.262h-.265a3 3 0 0 0 .012-.254 2.29 2.29 0 0 0-2.293-2.293c-.89 0-1.7.523-2.074 1.312a1.76 1.76 0 0 0-.98-.293c-.9 0-1.65.668-1.762 1.54a2.26 2.26 0 0 0-1.383.656 2.294 2.294 0 0 0 1.617 3.918h7.129c.613 0 1.191-.239 1.625-.668a2.29 2.29 0 0 0 .668-1.625 2.29 2.29 0 0 0-2.293-2.293m1.263 3.554c-.336.336-.782.52-1.262.52H5.832a1.785 1.785 0 0 1-1.262-3.043 1.78 1.78 0 0 1 1.262-.52c.14 0 .254-.117.254-.257 0-.7.574-1.274 1.273-1.274.344 0 .668.14.91.39 0 0 .047.044.118.071.133.04.273-.039.308-.18a1.8 1.8 0 0 1 1.72-1.296c.98 0 1.784.8 1.784 1.78 0 .153-.062.356-.062.509 0 .14.113.257.254.257h.57c.98 0 1.785.801 1.785 1.782 0 .476-.184.922-.523 1.261M18.82 18.59c0 .14.114.258.254.258s.254-.118.254-.258v-3.817h1.785a.256.256 0 0 0 0-.512H17.04a.26.26 0 0 0-.258.255c0 .14.117.257.258.257h1.781ZM23.938 18.707a.26.26 0 0 0 .23.14.28.28 0 0 0 .23-.14l2.036-4.074a.25.25 0 0 0-.114-.344.25.25 0 0 0-.343.113l-1.809 3.621-1.809-3.613a.255.255 0 1 0-.457.227Zm0 0"/></svg>