<svg xmlns="http://www.w3.org/2000/svg" width="40" height="40" version="1.0" viewBox="0 0 30 30"><defs><clipPath id="a"><path d="M5.766 0H23.91v29H5.766Zm0 0"/></clipPath></defs><g clip-path="url(#a)"><path fill="#061c3d" d="M23.32 24.059H6.664V5.695H23.32Zm-7.203 2.882h-2.25c-.273 0-.453-.183-.453-.453s.18-.449.453-.449h2.25c.27 0 .45.18.45.45 0 .226-.18.452-.45.452m-4.14-24.488h6.074c.27 0 .453.18.453.45 0 .273-.184.449-.453.449h-6.074c-.274 0-.45-.176-.45-.45 0-.226.176-.449.45-.449m7.964 0h.903c.27 0 .449.18.449.45 0 .273-.18.449-.45.449h-.902c-.27 0-.449-.176-.449-.45 0-.226.18-.449.45-.449M21.97.113H8.016a2.256 2.256 0 0 0-2.25 2.25v24.305c0 1.262.988 2.25 2.25 2.25h13.953c1.261 0 2.25-.988 2.25-2.25V2.363c0-1.215-.989-2.25-2.25-2.25"/></g><path fill="#061c3d" d="M13.328 9.926h.899v.898h-.899Zm2.43 0h.898v.898h-.898Zm-4.817 2.566h8.102c.223 0 .45-.18.45-.453 0-1.215-.493-2.293-1.263-3.101l.676-.993c.137-.226.094-.496-.136-.633-.223-.132-.493-.085-.63.137l-.628.903a4.56 4.56 0 0 0-2.567-.813c-.945 0-1.843.316-2.566.813l-.629-.903c-.133-.222-.406-.27-.629-.136-.226.136-.27.406-.133.632l.672.992a4.48 4.48 0 0 0-1.258 3.102c.09.274.313.453.54.453M9.77 19.152c.27 0 .496-.09.722-.27v1.036c0 .496.403.898.899.898h.539v1.215c0 .274.226.453.449.453.273 0 .453-.18.453-.453v-1.215h4.273v1.215c0 .274.227.453.45.453.27 0 .453-.18.453-.453v-1.215h.586a.9.9 0 0 0 .898-.898v-1.035c.18.133.45.27.723.27a1.19 1.19 0 0 0 1.168-1.173v-2.789c0-.629-.54-1.171-1.168-1.171-.274 0-.496.093-.723.273v-.992c-.137.043-.316.09-.449.09h-8.102c-.183 0-.316-.047-.449-.09v.992c-.183-.137-.453-.273-.722-.273-.63 0-1.168.543-1.168 1.171v2.79c0 .632.539 1.171 1.168 1.171"/></svg>