<svg xmlns="http://www.w3.org/2000/svg" width="40" height="40" version="1.0" viewBox="0 0 30 30"><defs><clipPath id="a"><path d="M2 22h8v7.031H2Zm0 0"/></clipPath><clipPath id="b"><path d="M.484 0h29.032v29H.484Zm0 0"/></clipPath><clipPath id="c"><path d="M22 20h7.516v8H22Zm0 0"/></clipPath><clipPath id="d"><path d="M.484 2H8v8H.484Zm0 0"/></clipPath></defs><path fill="#fff" fill-rule="evenodd" d="M15 23.285c-4.66 0-8.453-3.793-8.453-8.453S10.34 6.359 15 6.359c4.676 0 8.469 3.813 8.469 8.473S19.676 23.285 15 23.285m0-16.363c-4.355 0-7.89 3.555-7.89 7.91 0 4.352 3.535 7.89 7.89 7.89 4.371 0 7.91-3.538 7.91-7.89 0-4.355-3.539-7.91-7.91-7.91m0 0"/><path fill="#fff" fill-rule="evenodd" d="M23.148 15.953c-.035 0-.054 0-.07-.015-.086-.02-2.039-.547-2.328-2.282-.121-.644-.426-.715-.953-.832-.492-.12-1.125-.254-1.48-1.054a7 7 0 0 1-.274-.68c-.305-.817-.39-1.04-2.023-1.516-.73-.203-1.207-.578-1.426-1.105-.375-.918.152-1.903.168-1.953a.28.28 0 0 1 .375-.121c.136.085.187.238.117.375-.016.015-.426.832-.152 1.48.171.371.511.645 1.07.797 1.805.527 2.008.867 2.383 1.84.086.203.152.406.273.66.238.547.645.629 1.086.734.547.117 1.207.27 1.379 1.274.238 1.394 1.906 1.855 1.922 1.855a.257.257 0 0 1 .187.34c-.015.117-.136.203-.254.203M21.734 19.762a.3.3 0 0 1-.254-.168c-.015-.035-1.906-4.117-3.996-3.469-2.398.746-2.656.746-3.828.168-.46-.238-.883-.066-1.43.121-.507.203-1.085.406-1.75.27-.101-.032-.187-.051-.253-.067-.157-.05-.239-.203-.188-.34a.257.257 0 0 1 .34-.187c.066.015.137.035.219.05.511.102.969-.066 1.445-.238.578-.222 1.191-.441 1.871-.101.973.492 1.055.527 3.403-.203 2.55-.786 4.593 3.586 4.675 3.773.07.137 0 .29-.133.36a.4.4 0 0 1-.12.03m0 0"/><path fill="#fff" fill-rule="evenodd" d="M11.004 22.246c-.02 0-.05-.016-.07-.016a.28.28 0 0 1-.204-.34c.02-.019.375-1.464-.527-3.538-.695-1.649-.152-2.262.324-2.79.223-.253.407-.476.477-.78.168-.7 1.105-1.075 1.922-1.415.39-.152 1.02-.406 1.07-.558 0 0-.016-.02-.016-.036-.101-.152-.203-.289-.289-.425-.39-.563-.73-1.055-.664-2.262.067-.969-1.668-1.77-2.347-2.008a.26.26 0 0 1-.168-.34.267.267 0 0 1 .355-.168c.117.032 2.824.95 2.723 2.551-.07 1.02.187 1.395.543 1.902.101.137.203.29.324.461a.6.6 0 0 1 .066.493c-.136.39-.68.613-1.378.902-.66.273-1.497.613-1.598 1.035-.102.445-.375.75-.613 1.004-.442.496-.782.902-.22 2.21.985 2.282.579 3.845.56 3.915a.29.29 0 0 1-.27.203M24.203 7.586a3.464 3.464 0 0 1-3.473-3.469A3.48 3.48 0 0 1 24.203.63a3.49 3.49 0 0 1 3.485 3.488 3.474 3.474 0 0 1-3.485 3.469m0-6.414c-1.617 0-2.926 1.328-2.926 2.945a2.927 2.927 0 0 0 2.926 2.926c1.613 0 2.942-1.313 2.942-2.926a2.957 2.957 0 0 0-2.942-2.945m0 0"/><g clip-path="url(#a)"><path fill="#fff" fill-rule="evenodd" d="M5.797 29.031a3.474 3.474 0 0 1-3.469-3.484c0-1.922 1.547-3.488 3.469-3.488a3.494 3.494 0 0 1 3.488 3.488 3.49 3.49 0 0 1-3.488 3.484m0-6.41a2.926 2.926 0 0 0 0 5.852c1.617 0 2.945-1.313 2.945-2.926 0-1.617-1.328-2.926-2.945-2.926m0 0"/></g><path fill="#fff" fill-rule="evenodd" d="M24.203 1.172a.266.266 0 0 1-.273-.27V.273c0-.156.117-.273.273-.273.152 0 .29.117.29.273v.63c0 .152-.138.269-.29.269M26.48 2.125a.27.27 0 0 1-.203-.086c-.101-.117-.101-.289 0-.39l.442-.442c.117-.117.289-.117.39 0 .121.102.121.273 0 .39l-.441.442a.26.26 0 0 1-.188.086M28.047 4.387h-.633a.265.265 0 0 1-.27-.27c0-.156.118-.289.27-.289h.633c.152 0 .27.133.27.29 0 .152-.118.269-.27.269M26.922 7.094c-.086 0-.152-.02-.203-.086l-.442-.442c-.101-.101-.101-.273 0-.394a.29.29 0 0 1 .391 0l.441.445c.121.117.121.29 0 .39a.22.22 0 0 1-.187.087M24.203 8.215a.27.27 0 0 1-.273-.274v-.628c0-.153.117-.27.273-.27.152 0 .29.117.29.27v.628c0 .153-.138.274-.29.274M21.496 7.094a.28.28 0 0 1-.203-.086c-.102-.102-.102-.274 0-.39l.441-.446a.314.314 0 0 1 .41 0c.102.121.102.293 0 .394l-.46.442a.22.22 0 0 1-.188.086M21.004 4.387h-.629a.27.27 0 0 1-.273-.27c0-.156.12-.289.273-.289h.629c.152 0 .273.133.273.29 0 .152-.12.269-.273.269M21.938 2.125a.34.34 0 0 1-.204-.086l-.441-.441c-.102-.118-.102-.29 0-.391.117-.117.289-.117.39 0l.462.441c.101.102.101.274 0 .391a.34.34 0 0 1-.207.086M7.008 25.102a2.706 2.706 0 0 1-2.688-2.516c0-.152.117-.29.27-.29.156-.015.273.102.289.255a2.127 2.127 0 0 0 2.129 1.992c.558 0 1.086-.223 1.476-.613.121-.102.29-.102.395 0a.273.273 0 0 1 0 .39 2.63 2.63 0 0 1-1.871.782M4.61 27.094a.91.91 0 0 1-.919-.903c0-.507.407-.918.918-.918a.91.91 0 0 1 0 1.82m0-1.258a.35.35 0 0 0-.36.355c0 .188.152.36.36.36.187 0 .34-.172.34-.36a.344.344 0 0 0-.34-.355M6.887 27.586a.914.914 0 0 1-.918-.918.91.91 0 1 1 .918.918m0-1.258a.344.344 0 0 0-.356.34c0 .203.153.355.356.355a.36.36 0 0 0 .36-.355c0-.188-.173-.34-.36-.34m0 0"/><g clip-path="url(#b)"><path fill="#fff" fill-rule="evenodd" d="M15 29c-1.617 0-3.215-.273-4.727-.8a.28.28 0 0 1-.171-.36c.05-.152.203-.219.355-.168 1.465.512 2.996.781 4.543.781 2.926 0 5.715-.918 8.063-2.637a.3.3 0 0 1 .39.051c.086.137.067.309-.066.395C20.953 28.062 18.043 29 15 29m12.332-7.469a.3.3 0 0 1-.121-.035.273.273 0 0 1-.117-.371 13.65 13.65 0 0 0 1.531-6.293c0-2.043-.426-4-1.293-5.816-.07-.137 0-.309.133-.375.137-.07.308 0 .375.136a14.2 14.2 0 0 1 1.344 6.055c0 2.277-.559 4.54-1.598 6.547a.28.28 0 0 1-.254.152m-24.766-.218a.32.32 0 0 1-.253-.157 14.1 14.1 0 0 1-1.481-6.324c0-2.281.543-4.559 1.598-6.566a.277.277 0 0 1 .375-.118.28.28 0 0 1 .12.372 13.55 13.55 0 0 0-1.55 6.312c0 2.125.477 4.164 1.43 6.07.07.137.02.305-.118.375-.05.016-.085.035-.12.035m4.22-17.418a.3.3 0 0 1-.223-.118.3.3 0 0 1 .05-.394A14.18 14.18 0 0 1 15 .645c1.328 0 2.621.187 3.879.527.152.05.238.207.187.36-.035.136-.187.218-.34.187-1.21-.34-2.449-.512-3.726-.512-2.91 0-5.7.902-8.043 2.637a.32.32 0 0 1-.172.05m0 0"/></g><g clip-path="url(#c)"><path fill="#fff" fill-rule="evenodd" d="M25.715 27.52c-1.906 0-3.469-1.567-3.469-3.489s1.563-3.484 3.469-3.484a3.49 3.49 0 0 1 3.488 3.484 3.494 3.494 0 0 1-3.488 3.489m0-6.43c-1.617 0-2.926 1.328-2.926 2.941a2.924 2.924 0 0 0 2.926 2.926c1.617 0 2.941-1.309 2.941-2.926a2.953 2.953 0 0 0-2.941-2.941m0 0"/></g><g clip-path="url(#d)"><path fill="#fff" fill-rule="evenodd" d="M4.285 9.117A3.494 3.494 0 0 1 .797 5.63a3.49 3.49 0 0 1 3.488-3.484 3.49 3.49 0 0 1 3.488 3.484 3.494 3.494 0 0 1-3.488 3.488m0-6.414a2.927 2.927 0 1 0 .002 5.853 2.927 2.927 0 0 0-.002-5.853m0 0"/></g><path fill="#fff" fill-rule="evenodd" d="M4.285 5.902H2.652a.27.27 0 0 1-.273-.273c0-.152.121-.29.273-.29h1.36V4.15c0-.153.12-.27.273-.27.152 0 .274.117.274.27v1.48a.27.27 0 0 1-.274.273M25.715 25.785c-.152 0-.274-.137-.274-.289v-1.191h-1.343c-.153 0-.29-.121-.29-.274 0-.152.137-.289.29-.289h1.617c.152 0 .289.137.289.29v1.464c0 .152-.137.29-.29.29M15 25.816a10.8 10.8 0 0 1-3.672-.628.284.284 0 0 1-.172-.356c.067-.137.223-.223.356-.172 1.125.41 2.297.613 3.488.613 2.04 0 4.016-.593 5.715-1.699.117-.086.289-.05.375.082.082.121.05.29-.086.375A10.87 10.87 0 0 1 15 25.816m-9.594-5.933a.26.26 0 0 1-.238-.153 10.9 10.9 0 0 1-1.156-4.898c0-1.582.324-3.113.988-4.543.05-.137.219-.203.355-.137.137.051.207.223.137.36a10.4 10.4 0 0 0-.933 4.32c0 1.633.37 3.195 1.105 4.64.066.157.016.31-.137.376-.035.035-.07.035-.12.035m19.356-.36c-.035 0-.067 0-.102-.015a.295.295 0 0 1-.152-.375c.629-1.36.933-2.805.933-4.301 0-1.566-.34-3.062-.984-4.457a.277.277 0 0 1 .117-.375.28.28 0 0 1 .375.137c.7 1.48 1.055 3.043 1.055 4.695 0 1.582-.34 3.11-.988 4.54a.28.28 0 0 1-.254.151M9.148 6.121a.3.3 0 0 1-.238-.117.316.316 0 0 1 .086-.39A11.03 11.03 0 0 1 15 3.827c1.02 0 2.04.152 3.012.422a.26.26 0 0 1 .187.344.256.256 0 0 1-.344.183A10.8 10.8 0 0 0 15 4.387c-2.023 0-3.996.578-5.7 1.703-.05.015-.1.031-.152.031m0 0"/></svg>