<svg xmlns="http://www.w3.org/2000/svg" width="40" height="40" version="1.0" viewBox="0 0 30 30"><defs><clipPath id="a"><path d="M6 0h23.516v24H6Zm0 0"/></clipPath><clipPath id="b"><path d="M.484 5H24v24.031H.484Zm0 0"/></clipPath></defs><path fill="#fff" d="M8.648 6.125h-.453a.453.453 0 0 0 0 .906h.453a.453.453 0 0 0 0-.906M10.918 6.125h-.453a.453.453 0 0 0 0 .906h.453a.453.453 0 0 0 0-.906M8.648 7.938h-.453a.456.456 0 0 0 0 .91h.453a.456.456 0 0 0 0-.91M8.648 9.754h-.453a.453.453 0 0 0 0 .906h.453a.453.453 0 0 0 0-.906M8.648 11.566h-.453a.456.456 0 0 0 0 .91h.453c.25 0 .454-.206.454-.456a.456.456 0 0 0-.454-.454M8.648 13.383h-.453a.453.453 0 0 0 0 .906h.453a.453.453 0 0 0 0-.906M11.305 8.164a.45.45 0 0 0-.387-.226h-.453a.456.456 0 0 0 0 .91h.293c.113-.274.297-.524.547-.684M10.691 9.754h-.226a.453.453 0 0 0 0 .906h.226ZM10.691 11.566h-.226a.456.456 0 0 0 0 .91h.226ZM10.012 13.836c0 .25.203.453.453.453h.226v-.906h-.226a.453.453 0 0 0-.453.453m0 0"/><path fill="#fff" d="M14.32 25.176a9.53 9.53 0 0 0 9.48-8.48c.048-.344.048-.704.048-1.048a.46.46 0 0 0-.457-.453h-7.258V9.301a.453.453 0 0 0-.453-.453h-3.63a.453.453 0 0 0-.452.453v5.894H7.289V4.762h4.535V7.96c.07-.024.16-.024.227-.024h.68V4.763a.91.91 0 0 0-.907-.907H7.29a.91.91 0 0 0-.906.907v10.433H5.246a.456.456 0 0 0-.453.453 9.525 9.525 0 0 0 9.527 9.528m.453-.977v-3.695c.864.047 1.747.25 2.563.566-.637 1.68-1.543 2.86-2.563 3.13m3.38-2.742c.5.273 1 .613 1.429.996a8.3 8.3 0 0 1-2.86 1.453c.567-.613 1.044-1.453 1.43-2.449m-4.286 2.742c-1.023-.27-1.93-1.449-2.562-3.152a8.4 8.4 0 0 1 2.562-.543Zm-1.972-.27a8.3 8.3 0 0 1-2.883-1.495 8.7 8.7 0 0 1 1.453-1c.383 1 .883 1.859 1.43 2.496m8.39-2.066a8.4 8.4 0 0 0-1.836-1.27c.406-1.316.633-2.835.68-4.488h3.785c0 .157-.02.317-.043.497a8.32 8.32 0 0 1-2.586 5.261m-2.062-5.758c-.047 1.497-.25 2.903-.614 4.106a8.8 8.8 0 0 0-2.836-.613v-3.493Zm-5.72-6.351h2.724v5.441h-2.723Zm-.452 6.351h1.816v3.47c-.976.046-1.93.25-2.86.59a16.2 16.2 0 0 1-.589-4.083h1.633Zm-2.54 0c.044 1.633.274 3.153.657 4.446-.656.34-1.27.77-1.86 1.27A8.58 8.58 0 0 1 5.7 16.081h3.813Zm0 0"/><path fill="#fff" d="M18.402 14.742h5.899a.91.91 0 0 0 .906-.906V9.754a.91.91 0 0 0-.906-.906h-1.363V8.39a.91.91 0 0 0-.907-.907h-1.36c-.5 0-.91.41-.91.907v.457h-1.359c-.5 0-.906.406-.906.906v4.082c0 .5.406.906.906.906m0-.906v-3.582l2.496 1.766v.226c0 .25.204.457.454.457s.453-.207.453-.457v-.226l2.496-1.79v3.582h-5.899Zm1.813-4.082h3.223l-2.086 1.473-2.086-1.473Zm.457-1.363h1.36v.457h-1.36Zm0 0"/><g clip-path="url(#a)"><path fill="#fff" d="M7.105 3.426A13.63 13.63 0 0 1 15 .906c7.508 0 13.61 6.102 13.61 13.61 0 2.496-.66 4.898-1.93 7.007l-.09-.953a.456.456 0 0 0-.906.094l.226 2.266c0 .047.024.093.047.136v.024c.066.18.246.273.406.273.067 0 .114-.023.18-.047l2.246-.953a.43.43 0 0 0 .227-.59c-.09-.226-.364-.34-.59-.226l-.95.41a14.46 14.46 0 0 0 2.04-7.418C29.516 6.531 23.008.023 15 .023A14.24 14.24 0 0 0 6.563 2.7c-.204.137-.25.43-.114.637.16.203.453.246.656.09m0 0"/></g><g clip-path="url(#b)"><path fill="#fff" d="M15 29.031c2.902 0 5.715-.86 8.121-2.472a.445.445 0 0 0 .113-.633c-.136-.203-.433-.274-.636-.113A13.5 13.5 0 0 1 15 28.125c-7.508 0-13.61-6.102-13.61-13.61 0-2.495.68-4.898 1.95-7.007l.094.93c.023.226.226.41.453.41h.043a.46.46 0 0 0 .41-.5L4.137 6.28a.5.5 0 0 0-.114-.453c-.136-.156-.363-.226-.546-.156l-2.247.95c-.226.093-.34.362-.226.589.07.184.25.273.41.273.066 0 .113-.023.18-.043l.953-.41a14.5 14.5 0 0 0-2.063 7.485C.484 22.523 6.992 29.03 15 29.03m0 0"/></g><path fill="#fff" d="M18.926 7.938c.066-.27.203-.52.383-.747v-1.52a.457.457 0 0 0-.454-.456h-3.628a.457.457 0 0 0-.454.457v2.266h.907V6.125h2.722v1.813Zm0 0"/></svg>