<svg xmlns="http://www.w3.org/2000/svg" width="40" height="40" version="1.0" viewBox="0 0 30 30"><defs><clipPath id="a"><path d="M.484 1.348h29.032v26.129H.484Zm0 0"/></clipPath></defs><g clip-path="url(#a)"><path fill="#061c3d" d="M27.348 10.785a6.57 6.57 0 0 0-3.754-1.734 8 8 0 0 0-.696-.047q-.175-.002-.351.008l-.16.011v-.097q.002-.357-.032-.696a7.4 7.4 0 0 0-.25-1.37 7.4 7.4 0 0 0-1.253-2.477 7.3 7.3 0 0 0-4.711-2.738 7.27 7.27 0 0 0-5.286 1.285A7.2 7.2 0 0 0 8.95 4.94c-.246.391-.46.809-.633 1.239q-.128.326-.226.66l-.086.316-.078-.015q-.228-.043-.45-.063a3 3 0 0 0-2.43 1.023 3.04 3.04 0 0 0-.726 1.641c-.03.301-.02.606.035.903.032.152.07.293.122.437l.023.07c-.102.04-.473.18-.703.305-.336.18-.66.387-.961.621a5.8 5.8 0 0 0-1.461 1.754 5.75 5.75 0 0 0-.426 4.45 5.8 5.8 0 0 0 2.89 3.406 5.7 5.7 0 0 0 2.2.605c.649.027 1.246.012 1.856.012v5.351h14.359v-5.379c.332 0 .668.004 1.023-.02q.703-.042 1.375-.241a6.6 6.6 0 0 0 2.453-1.313c1.434-1.203 2.32-3.031 2.348-4.906a6.6 6.6 0 0 0-2.105-5.012M21.598 27H8.547v-9.324h13.047V27ZM19.41 14.059a3.7 3.7 0 0 0-.406-1.102 3.87 3.87 0 0 0-1.688-1.586 4 4 0 0 0-1.12-.34 4 4 0 0 0-.583-.035h-1.082c-.183 0-.39.008-.582.035a3.85 3.85 0 0 0-2.809 1.926 4 4 0 0 0-.406 1.102c-.082.386-.078.793-.078 1.132v1.825h-.832v-2.453a4.43 4.43 0 0 1 .715-2.45 4.4 4.4 0 0 1 1.941-1.652c.399-.172.813-.29 1.247-.34.414-.059.878-.023 1.343-.035.47.008.934-.024 1.348.035a4.44 4.44 0 0 1 3.187 1.992 4.46 4.46 0 0 1 .715 2.45v2.453h-.836V15.19c0-.34.008-.746-.074-1.132m-8.031.132c.062-.316.176-.629.332-.91a3.2 3.2 0 0 1 1.398-1.316c.293-.14.61-.238.934-.277.16-.024.316-.028.488-.028h1.082c.172 0 .328.004.489.027.324.047.64.137.933.278a3.2 3.2 0 0 1 1.399 1.316c.16.281.27.594.332.91.07.32.062.633.062 1.008v1.824h-7.515V15.2c0-.375-.004-.691.066-1.008M28.8 15.777a5.96 5.96 0 0 1-2.117 4.422 5.9 5.9 0 0 1-2.207 1.18 6.4 6.4 0 0 1-1.247.219c-.308.015-.644.015-.984.015v-4.59H20.97V14.57a5 5 0 0 0-.82-2.8 5.1 5.1 0 0 0-3.657-2.286 6 6 0 0 0-.73-.043h-1.38c-.23 0-.491.008-.73.043a4.8 4.8 0 0 0-1.43.391 5.05 5.05 0 0 0-2.226 1.895 5.1 5.1 0 0 0-.816 2.8v2.453H7.902v4.625c-.609 0-1.242.012-1.812-.011a5.1 5.1 0 0 1-4.508-3.555 5.14 5.14 0 0 1 .379-3.945 5.2 5.2 0 0 1 1.297-1.547c.265-.207.55-.395.851-.55.34-.169.454-.231 1.317-.49 0 0-.32-.663-.32-.687q-.059-.163-.094-.343c-.04-.23-.051-.473-.028-.707.051-.473.254-.93.563-1.286a2.37 2.37 0 0 1 1.906-.804c.121.004.817.187 1.059.277l.136-.656c.036-.145.215-.73.29-.93.156-.39.351-.77.574-1.125a6.7 6.7 0 0 1 1.738-1.832 6.68 6.68 0 0 1 4.816-1.168 6.65 6.65 0 0 1 5.426 4.742q.174.613.23 1.25c.02.207.032.426.024.633V9l-.05.734v.02h.023l.039-.008s1.57-.074 1.785-.05c.418.046.828.144 1.23.277.797.27 1.54.707 2.153 1.28 1.215 1.153 1.93 2.84 1.875 4.524m-15.133 7.575.156.109.078.047h.008v1.957h2.328v-1.957l.032-.02a2.32 2.32 0 0 0 1.117-1.972c.015-1.012-.715-1.973-1.692-2.227a2.3 2.3 0 0 0-1.476.082 2.3 2.3 0 0 0-1.125.953c-.535.86-.41 2.063.297 2.781.086.086.18.172.277.247m-.012-2.692a1.66 1.66 0 0 1 3.078.856 1.66 1.66 0 0 1-.8 1.418l-.196.101c-.066.047-.183.059-.148.168v1.61h-1.02V23.53c-.023-.164.086-.472-.187-.511l-.14-.079s-.306-.222-.368-.293c-.52-.511-.605-1.375-.219-1.988m0 0"/></g></svg>