<svg xmlns="http://www.w3.org/2000/svg" width="40" height="40" version="1.0" viewBox="0 0 30 30"><defs><clipPath id="a"><path d="M1.102 1h28.304v28.031H1.102Zm0 0"/></clipPath></defs><g clip-path="url(#a)"><path fill="#061c3d" d="M4.79 22.441q0 .061.003.122l.008.062a.32.32 0 0 1-.102.238.3.3 0 0 1-.25.075 2 2 0 0 0-.355-.036c-1.317 0-2.387 1.16-2.387 2.586s1.07 2.582 2.387 2.582h1.14a.3.3 0 0 1 0 .602h-1.14c-1.653.008-2.992-1.426-2.992-3.18s1.34-3.191 2.992-3.191h.093c.067-1.973 1.594-3.555 3.454-3.555.168 0 .3.133.3.3 0 .169-.132.302-.3.302-1.578.007-2.852 1.394-2.852 3.093m10.597 1.274c-.145-1.469-1.309-2.621-2.727-2.621-.601 0-1.176.203-1.644.582-.227-1.137-.953-2.121-1.965-2.606a.3.3 0 0 0-.403.14.293.293 0 0 0 .141.4c.996.48 1.66 1.55 1.7 2.73a.3.3 0 0 0 .202.277.31.31 0 0 0 .336-.097 2.07 2.07 0 0 1 1.633-.825c1.18 0 2.137 1.04 2.137 2.309v.039c0 .09.039.176.105.234.07.055.164.086.246.067.102-.016.196-.028.278-.028.953 0 1.73.84 1.73 1.88 0 1.034-.777 1.874-1.73 1.874H6.965a.3.3 0 0 0 0 .602h8.46c1.29 0 2.337-1.113 2.337-2.485 0-1.375-1.063-2.511-2.375-2.472m14.12-12.707v2.633c0 .304-.25.554-.554.554H27.43c-.07.29-.164.578-.27.86a.31.31 0 0 1-.285.195.3.3 0 0 1-.113-.023.3.3 0 0 1-.172-.391c.129-.328.23-.668.308-1.008a.3.3 0 0 1 .293-.238h1.711v-2.543h-1.71a.294.294 0 0 1-.294-.238 7 7 0 0 0-.941-2.266.3.3 0 0 1 .04-.379l1.21-1.21-1.793-1.794-1.207 1.211a.31.31 0 0 1-.379.04 6.9 6.9 0 0 0-2.273-.942.305.305 0 0 1-.239-.297V3.46h-2.543v1.715c0 .148-.097.27-.238.297a7 7 0 0 0-.957.285c.043.082.078.168.117.25.012.015.016.039.028.054.273.598.48 1.215.605 1.86a4.7 4.7 0 0 1 1.719-.317c1.308 0 2.523.524 3.426 1.465a.303.303 0 0 1-.012.43.3.3 0 0 1-.43-.012 4.09 4.09 0 0 0-2.984-1.281 4 4 0 0 0-1.629.34 8.58 8.58 0 0 1-1.648 6.262 4.12 4.12 0 0 0 3.277 1.632 4.13 4.13 0 0 0 4.121-4.12c0-.626-.133-1.223-.402-1.778a.3.3 0 0 1 .14-.402.3.3 0 0 1 .403.14 4.726 4.726 0 0 1-7.04 5.863l2.106 2.465.035-.03q.059-.047.13-.087c.01-.008.023-.02.03-.023.008-.008.02-.008.024-.012a.97.97 0 0 1 .535-.11.96.96 0 0 1 .527.204q.06.054.117.113c.012.012.02.016.032.027l.543.641a.3.3 0 0 1 .203-.156 7 7 0 0 0 2.27-.942.3.3 0 0 1 .378.04l1.211 1.206 1.793-1.793-1.215-1.214a.302.302 0 1 1 .43-.426l1.246 1.242a.564.564 0 0 1 .008.79l-1.867 1.858a.564.564 0 0 1-.79 0l-1.078-1.074a7.6 7.6 0 0 1-2.019.84v.285l4.762 5.567a.987.987 0 0 1-.106 1.386l-2.152 1.836a.983.983 0 0 1-1.387-.109l-5.875-6.86a.986.986 0 0 1 .106-1.39l.035-.027-2.926-3.422a8.55 8.55 0 0 1-9.816-.594.31.31 0 0 1-.047-.426.31.31 0 0 1 .422-.05 7.96 7.96 0 0 0 9.754.128q.205-.156.406-.32c.261-.223.511-.469.734-.719a8 8 0 0 0 1.332-8.695.1.1 0 0 0-.027-.05c-.301-.641-.688-1.25-1.164-1.806a7.9 7.9 0 0 0-5.442-2.773 7.93 7.93 0 0 0-5.816 1.89A7.96 7.96 0 0 0 1.93 9.017a7.93 7.93 0 0 0 1.894 5.816.3.3 0 0 1-.031.426.304.304 0 0 1-.43-.031 8.56 8.56 0 0 1-2.035-6.254 8.55 8.55 0 0 1 2.988-5.871c3.602-3.082 9.04-2.66 12.122.945.316.375.593.77.84 1.18.288-.11.59-.211.89-.29V3.419c0-.309.25-.559.559-.559h2.628c.305 0 .555.25.555.559v1.52c.707.18 1.387.457 2.024.835L25.008 4.7a.56.56 0 0 1 .793 0l1.86 1.86c.105.105.16.246.16.394 0 .152-.055.29-.16.399l-1.075 1.074a7.6 7.6 0 0 1 .84 2.02h1.527c.305 0 .555.253.555.562m-5.39 12.48-2.73 2.332 2.113 2.47c.133.16.379.179.535.038l2.149-1.84a.374.374 0 0 0 .039-.535Zm-1.414-1.648-2.73 2.332 1.02 1.191 2.73-2.332-.727-.847Zm-5.043-.961a.4.4 0 0 0-.133.262.38.38 0 0 0 .09.273l1.965 2.297 2.73-2.336-1.96-2.293c-.004-.012-.024-.02-.028-.023a.3.3 0 0 0-.09-.067c-.011-.008-.023-.008-.03-.012a.4.4 0 0 0-.22-.015c-.015.004-.035.004-.043.004a.2.2 0 0 0-.078.047.2.2 0 0 0-.047.027Zm-1.61-5.234c-.015.015-.038.039-.062.054-.16.164-.32.317-.492.469-.176.148-.36.289-.543.422q-.03.029-.066.05L17.762 20l1.164-.992ZM7.876 7.55a.306.306 0 0 0-.426-.067L4.82 9.394a.3.3 0 0 0-.12.247c0 .093.042.187.12.242l2.63 1.914q.086.057.179.055a.32.32 0 0 0 .246-.125.305.305 0 0 0-.066-.422L5.519 9.64l2.29-1.668a.31.31 0 0 0 .066-.422m4.059 4.172a.3.3 0 0 0 .246.12.3.3 0 0 0 .18-.054l2.628-1.91a.3.3 0 0 0 .121-.246.3.3 0 0 0-.12-.242l-2.63-1.914a.31.31 0 0 0-.425.066.31.31 0 0 0 .066.426l2.293 1.664L12 11.3a.304.304 0 0 0-.066.422m-3.012.12c.11 0 .219-.058.265-.16l1.97-3.816a.302.302 0 0 0-.535-.277l-1.97 3.816a.303.303 0 0 0 .13.406q.067.034.14.032M5.418 4.392a6.86 6.86 0 0 0-2.395 4.707 6.83 6.83 0 0 0 1.637 5.02 6.89 6.89 0 0 0 5.254 2.417 6.87 6.87 0 0 0 4.477-1.652q.344-.293.636-.621a6.91 6.91 0 0 0 .121-9.106 6.87 6.87 0 0 0-8.421-1.64.305.305 0 0 0-.13.41.3.3 0 0 0 .407.125 6.27 6.27 0 0 1 7.687 1.5c2.051 2.402 2.008 5.972-.109 8.312q-.27.3-.582.563c-.203.176-.426.34-.648.488a6.31 6.31 0 0 1-8.23-1.176A6.26 6.26 0 0 1 3.628 9.16a6.26 6.26 0 0 1 2.184-4.293c.128-.113.14-.3.035-.43a.3.3 0 0 0-.43-.046m0 0"/></g></svg>