<svg xmlns="http://www.w3.org/2000/svg" width="40" height="40" version="1.0" viewBox="0 0 30 30"><defs><clipPath id="a"><path d="M.484.363h29.032v28.305H.484Zm0 0"/></clipPath></defs><g clip-path="url(#a)"><path fill="#061c3d" d="m27.238 24.887 1.594-1.739c.457-.496.688-1.066.684-1.695l-.04-6.637a1.535 1.535 0 0 0-1.53-1.523h-.009c-.41.004-.792.164-1.082.457-.289.29-.445.676-.44 1.086l.019 3.844a1.64 1.64 0 0 0-1.567.433L21.93 22.06c-.438.437-.614 1.07-.508 1.828l.144 1.074a.695.695 0 0 0-.746.512l-.25.957a.694.694 0 0 0 .496.847l5.172 1.352a.708.708 0 0 0 .527-.07.68.68 0 0 0 .32-.422l.25-.957a.68.68 0 0 0-.073-.524.68.68 0 0 0-.422-.32l-.074-.02c-.051-.59.09-1.02.472-1.43m-.98 2.808-4.75-1.246.137-.535 4.753 1.246Zm-3.738-2.492-.196-1.437c-.066-.473.02-.832.25-1.063l2.938-2.945a.734.734 0 0 1 1.039-.004c.289.289.289.754.004 1.043l-1.57 1.574a.45.45 0 0 0 .003.64c.176.18.465.18.64 0l1.571-1.573a1.65 1.65 0 0 0 .149-2.149l-.024-4.46c0-.165.063-.321.18-.438a.6.6 0 0 1 .437-.188h.004c.34 0 .621.277.621.617l.04 6.64c.003.4-.141.74-.446 1.071l-1.594 1.739a2.57 2.57 0 0 0-.718 1.804Zm-13.336.27a.68.68 0 0 0-.32-.422.7.7 0 0 0-.427-.09l.149-1.074c.101-.758-.074-1.39-.512-1.828l-2.933-2.946a1.65 1.65 0 0 0-1.57-.433l.023-3.844c0-.41-.156-.797-.446-1.086a1.52 1.52 0 0 0-1.078-.457H2.06c-.84 0-1.528.684-1.532 1.523l-.039 6.637c-.004.629.227 1.2.684 1.695l1.598 1.739c.378.41.523.84.472 1.43l-.078.019a.7.7 0 0 0-.422.32.68.68 0 0 0-.07.524l.25.957a.684.684 0 0 0 .668.515.7.7 0 0 0 .176-.023l5.175-1.352a.697.697 0 0 0 .496-.847ZM3.44 24.27 1.844 22.53c-.305-.332-.446-.672-.446-1.07l.04-6.64a.624.624 0 0 1 .62-.618h.005a.6.6 0 0 1 .437.188.62.62 0 0 1 .184.437l-.028 4.461a1.644 1.644 0 0 0 .153 2.148l1.566 1.575c.18.18.465.18.645 0a.45.45 0 0 0 0-.64l-1.567-1.575a.74.74 0 0 1 0-1.043.74.74 0 0 1 1.043.004l2.934 2.945c.23.23.316.59.254 1.063l-.2 1.437-3.324.871a2.6 2.6 0 0 0-.719-1.804m.305 3.425-.14-.535 4.753-1.246.141.535Zm19.016-7.476a.76.76 0 0 0 0-1.07l-.63-.626a8.3 8.3 0 0 0 .954-2.296h.887a.76.76 0 0 0 .757-.762v-1.176a.46.46 0 0 0-.457-.457h-3.23a.457.457 0 0 0-.453.457 5.595 5.595 0 0 1-5.586 5.586 5.59 5.59 0 0 1-5.586-5.586.46.46 0 0 0-.457-.457H5.73a.457.457 0 0 0-.454.457v1.176c0 .418.34.762.758.762h.883c.2.808.52 1.578.953 2.296l-.625.625a.76.76 0 0 0 0 1.075l1.758 1.757a.756.756 0 0 0 1.074 0l.625-.625c.715.434 1.488.75 2.297.95v.886c0 .418.34.758.758.758h2.488c.418 0 .758-.34.758-.758v-.886a8.2 8.2 0 0 0 2.297-.95l.629.625a.754.754 0 0 0 1.07 0l1.762-1.757Zm-2.297 1.011-.777-.777a.45.45 0 0 0-.575-.058c-.808.539-1.699.91-2.652 1.101a.45.45 0 0 0-.367.445v1.098H13.91v-1.098a.45.45 0 0 0-.367-.445 7.4 7.4 0 0 1-2.652-1.101.45.45 0 0 0-.575.058l-.777.777-1.543-1.546.777-.778a.455.455 0 0 0 .055-.574A7.4 7.4 0 0 1 7.73 15.68a.46.46 0 0 0-.445-.367H6.187v-.57h2.336c.235 3.37 3.051 6.042 6.48 6.042s6.247-2.672 6.481-6.043h2.336v.57h-1.097a.46.46 0 0 0-.45.368 7.3 7.3 0 0 1-1.097 2.652.45.45 0 0 0 .058.574l.774.778ZM5.387 12.086h5.332l-.2 3.172c-.027.449.133.887.454 1.226.34.364.82.57 1.316.57s.973-.206 1.316-.57c.317-.34.48-.777.45-1.226l-.2-3.172h1.637c.035.195.153.36.309.465l-.524 2.504c-.093.449.028.914.344 1.304.473.582 1.336.957 2.203.957.863 0 1.73-.375 2.203-.957.317-.39.438-.855.344-1.304l-.527-2.504a.7.7 0 0 0 .312-.465h4.461a3.166 3.166 0 0 0 3.164-3.164 3.15 3.15 0 0 0-.886-2.192 3.2 3.2 0 0 0-1.762-.93 3.93 3.93 0 0 0-1.203-2.202 3.95 3.95 0 0 0-2.692-1.055c-.883 0-1.722.289-2.406.812A3.96 3.96 0 0 0 15.004.38a3.964 3.964 0 0 0-3.832 2.976 3.95 3.95 0 0 0-2.406-.812A3.954 3.954 0 0 0 4.87 5.801a3.17 3.17 0 0 0-1.758.93 3.13 3.13 0 0 0-.886 2.19 3.165 3.165 0 0 0 3.16 3.165m6.394-2.383a.46.46 0 0 0-.258-.437 1.774 1.774 0 0 1-.648-2.672v.875c0 .14.066.273.176.36l.957.75a.46.46 0 0 0 .562 0l.953-.75a.45.45 0 0 0 .176-.36v-.875c.23.304.364.68.364 1.07a1.79 1.79 0 0 1-1.008 1.602.45.45 0 0 0-.258.437l.351 5.61c.012.199-.062.39-.207.546a.9.9 0 0 1-.652.286.9.9 0 0 1-.652-.286.7.7 0 0 1-.207-.546s-.012 0 .351-5.61m5.602-2.16-.14-.418.39-1.281h.387l.386 1.281-.136.406a.4.4 0 0 0-.024.145v2.742h-.836v-2.73a.5.5 0 0 0-.027-.145m1.875 3.785v.43H16.39v-.43Zm.062 4.457c-.304.371-.902.621-1.496.621s-1.195-.25-1.496-.62c-.144-.18-.2-.364-.16-.544l.539-2.574h2.23l.543 2.574q.056.272-.16.543M5.297 6.672a.455.455 0 0 0 .437-.418 3.05 3.05 0 0 1 3.032-2.8c.933 0 1.8.417 2.382 1.148a.456.456 0 0 0 .813-.281 3.047 3.047 0 0 1 3.043-3.032 3.05 3.05 0 0 1 3.043 3.031.451.451 0 0 0 .809.281 3.04 3.04 0 0 1 2.382-1.148c1.578 0 2.91 1.23 3.035 2.8.02.231.204.411.434.419a2.276 2.276 0 0 1 2.164 2.25 2.257 2.257 0 0 1-2.254 2.254h-4.449v-.04a.716.716 0 0 0-.715-.718h-.297V7.75l.16-.469a.5.5 0 0 0 .004-.277l-.527-1.746a.45.45 0 0 0-.434-.324h-1.062a.46.46 0 0 0-.438.324L16.33 7a.45.45 0 0 0 .003.277l.164.489v2.652h-.3a.72.72 0 0 0-.72.719v.039h-1.675l-.078-1.242a2.71 2.71 0 0 0 1.25-2.27c0-1.027-.602-1.98-1.532-2.422a.455.455 0 0 0-.652.41v1.594l-.5.395-.504-.395V5.652a.448.448 0 0 0-.648-.41 2.7 2.7 0 0 0-1.532 2.422c0 .922.48 1.781 1.247 2.27l-.079 1.242H5.387a2.254 2.254 0 0 1-2.25-2.254c0-1.192.968-2.203 2.16-2.25m0 0"/></g></svg>