<svg xmlns="http://www.w3.org/2000/svg" width="40" height="40" version="1.0" viewBox="0 0 30 30"><defs><clipPath id="a"><path d="M3 27h2v1.809H3Zm0 0"/></clipPath><clipPath id="b"><path d="M.484 5H3v2H.484Zm0 0"/></clipPath><clipPath id="c"><path d="M21 .5h8V5h-8Zm0 0"/></clipPath><clipPath id="d"><path d="M.484.5H5V5H.484Zm0 0"/></clipPath><clipPath id="e"><path d="M24 20h5.516v3H24Zm0 0"/></clipPath><clipPath id="f"><path d="M24 23h5.516v3H24Zm0 0"/></clipPath><clipPath id="g"><path d="M21 5h8.516v2H21Zm0 0"/></clipPath><clipPath id="h"><path d="M.484 1h29.032v27H.484Zm0 0"/></clipPath><clipPath id="i"><path d="M22 26h2v2.809h-2Zm0 0"/></clipPath><clipPath id="j"><path d="M24 26h5.516v2.809H24Zm0 0"/></clipPath><clipPath id="k"><path d="M10 22h4v6.809h-4Zm0 0"/></clipPath><clipPath id="l"><path d="M.484 22H8v5H.484Zm0 0"/></clipPath></defs><g clip-path="url(#a)"><path fill="#061c3d" d="M3.992 27.523h1v1h-1Zm0 0"/></g><g clip-path="url(#b)"><path fill="#061c3d" d="M1.113 6.508h1.88a.501.501 0 0 1 0-1.004H.987v.879c0 .066.055.125.125.125m0 0"/></g><g clip-path="url(#c)"><path fill="#061c3d" d="M28.512.625A.13.13 0 0 0 28.387.5h-6.758a.13.13 0 0 0-.125.125v3.379h7.008Zm-.649 1.73a.5.5 0 0 1-.351.149.5.5 0 0 1-.356-.149l-.5-.5a.5.5 0 1 1 .707-.707l.5.5a.5.5 0 0 1 0 .707m0 0"/></g><path fill="#061c3d" d="M4.992 6.383v-.88h-2a.502.502 0 0 1 0 1.005h1.875c.07 0 .125-.059.125-.125m0 0"/><g clip-path="url(#d)"><path fill="#061c3d" d="M4.992.625A.126.126 0 0 0 4.867.5H1.113a.126.126 0 0 0-.125.125v3.879h4.004Zm0 0"/></g><g clip-path="url(#e)"><path fill="#061c3d" d="M24.008 20.52h5.004v1.5h-5.004Zm0 0"/></g><g clip-path="url(#f)"><path fill="#061c3d" d="M24.008 23.52h5.004v1.503h-5.004Zm0 0"/></g><path fill="#061c3d" d="M23.508 22.52h4.004v.5h-4.004Zm0 0"/><g clip-path="url(#g)"><path fill="#061c3d" d="M21.004 5.004h8.008v1.004h-8.008Zm0 0"/></g><g clip-path="url(#h)"><path fill="#061c3d" d="M28.512 13.512c-.371 0-.692.203-.867.5h-8.641c0-.828-.676-1.5-1.5-1.5q-.082.001-.156.008a.6.6 0 0 1-.149-.008h8.309c.277 0 .5-.223.5-.5V6.508h-1v5.004h-8.496l.414-2.067 1.804-.3a1.002 1.002 0 0 0 1.773-.637 1.002 1.002 0 0 0-1.937-.352l-2.148.36a.5.5 0 0 0-.406.394l-.438 2.184q-.036-.01-.074-.02V5.457a.5.5 0 0 0-.223-.418L14 4.188v-.82c.297-.173.5-.497.5-.864a1.002 1.002 0 0 0-2.004 0c0 .367.203.691.504.863v1.09c0 .164.082.32.223.414l1.277.852v5.351a2.1 2.1 0 0 0-.57.246L9.996 8.262v-1.39a1.001 1.001 0 0 0-.5-1.868c-.55 0-1 .45-1 1.004 0 .367.2.691.5.863v1.637c0 .156.07.3.191.394l3.352 2.61H4.992V7.008h-1v5.004c0 .277.223.5.5.5h8.309q-.075.012-.149.008-.074-.007-.156-.008c-.824 0-1.5.672-1.5 1.5h-8.64a1.01 1.01 0 0 0-.868-.5 1.002 1.002 0 0 0 0 2.004c.371 0 .692-.203.867-.504H9.88a1.49 1.49 0 0 0-.297 1.504h-5.09c-.277 0-.5.222-.5.5v5.004h1v-4.504h6.504v1.578l-1.73.289a1 1 0 0 0-.77-.367 1 1 0 0 0-1 1 1 1 0 0 0 1 1.004c.426 0 .793-.274.934-.653l2.148-.355a.5.5 0 0 0 .418-.496v-2H14.5v3.004c0 .132.05.257.145.351l2.859 2.856v1.43c-.3.175-.504.495-.504.866a1.003 1.003 0 0 0 2.004 0c0-.37-.203-.691-.5-.867V23.52a.5.5 0 0 0-.149-.352L15.5 20.313v-2.797h.5v2c0 .207.125.39.316.464l1.7.68a.998.998 0 0 0 1.988-.14c0-.555-.45-1.004-1-1.004a1 1 0 0 0-.617.214L17 19.18v-1.664h8.008v2.5h1v-3c0-.278-.223-.5-.5-.5h-5.09a1.51 1.51 0 0 0-.297-1.504h7.524c.175.3.496.504.867.504a1.003 1.003 0 0 0 0-2.004m0 0"/></g><path fill="#061c3d" d="M22.004 23.52h1.004v1.503h-1.004ZM23.508 25.523h4.004v.5h-4.004Zm0 0"/><g clip-path="url(#i)"><path fill="#061c3d" d="M22.004 26.523h1.004v1.5h-1.004Zm0 0"/></g><g clip-path="url(#j)"><path fill="#061c3d" d="M24.008 26.523h5.004v1.5h-5.004Zm0 0"/></g><path fill="#061c3d" d="M22.004 20.52h1.004v1.5h-1.004Zm0 0"/><g clip-path="url(#k)"><path fill="#061c3d" d="M10.996 22.52h-.5v6.003H13.5V22.52ZM12 28.023a.5.5 0 0 1-.5-.5.501.501 0 1 1 .5.5m.496-2.5h-1a.504.504 0 0 1-.5-.5c0-.277.227-.503.5-.503h1c.277 0 .504.226.504.503 0 .274-.227.5-.504.5m0-1.503h-1a.501.501 0 0 1 0-1h1c.277 0 .504.222.504.5 0 .277-.227.5-.504.5m0 0"/></g><g clip-path="url(#l)"><path fill="#061c3d" d="M7.871 22.52H1.113a.123.123 0 0 0-.125.125v3.753c0 .067.055.125.125.125h6.758a.13.13 0 0 0 .125-.125v-3.753a.126.126 0 0 0-.125-.125m-.523 1.855a.5.5 0 0 1-.356.145.5.5 0 0 1-.351-.145l-.5-.5a.5.5 0 1 1 .707-.707l.5.5a.5.5 0 0 1 0 .707m0 0"/></g></svg>