<svg xmlns="http://www.w3.org/2000/svg" width="40" height="40" version="1.0" viewBox="0 0 30 30"><defs><clipPath id="a"><path d="M2.898 0h23.95v29.031H2.898Zm0 0"/></clipPath></defs><g clip-path="url(#a)"><path fill="#061c3d" d="M21.078 21.809a.35.35 0 0 0-.305-.164H9.22a.35.35 0 0 0-.301.164l-1.145 1.765a.37.37 0 0 0-.015.371.37.37 0 0 0 .32.188h.781v4.539c0 .2.16.36.36.36h11.554c.2 0 .364-.16.364-.36v-4.54h.781a.37.37 0 0 0 .32-.187.37.37 0 0 0-.015-.37Zm-11.66.558h4.875l-.75 1.043h-4.8Zm.164 5.942v-4.176h4.148a.36.36 0 0 0 .293-.153l.614-.855v5.184Zm10.832 0H15.36v-5.184l.614.855c.07.098.18.153.293.153h4.148Zm-3.96-4.899-.75-1.043h4.874l.676 1.043ZM22.96 5.281A4.9 4.9 0 0 0 21.5 2.188 4.9 4.9 0 0 0 18.05.78a4.9 4.9 0 0 0-3.144 1.13 4.389 4.389 0 0 0-7.918 3.378 4.84 4.84 0 0 0-4.09 4.774 4.834 4.834 0 0 0 4.829 4.828h2.976a7.4 7.4 0 0 0-.117 1.304.366.366 0 0 0 .363.364.36.36 0 0 0 .239-.09c.515-.457 1.199-.992 2.046-1.254q.119.242.254.484c-.539.434-.937 1.13-1.172 2.059-.027.11 0 .222.067.308.066.09.172.141.285.141l.742.004c.309.89.805 1.492 1.293 2.039a.373.373 0 0 0 .54.004c.491-.54 1-1.14 1.316-2.024l.746.004a.37.37 0 0 0 .285-.136c.066-.086.094-.2.066-.309-.222-.934-.613-1.633-1.144-2.074.09-.156.175-.32.258-.48.847.269 1.527.816 2.035 1.277a.35.35 0 0 0 .242.093c.05 0 .098-.007.144-.03a.36.36 0 0 0 .22-.325 7.3 7.3 0 0 0-.114-1.36h2.973a4.834 4.834 0 0 0 4.828-4.828c0-2.398-1.793-4.437-4.137-4.78M11.355 15.398c.118-1 .461-1.851 1.04-2.582.128.586.308 1.168.539 1.735-.61.199-1.133.515-1.579.847m5.47 2.11h-.528a.36.36 0 0 0-.348.258c-.215.722-.57 1.234-.972 1.695-.395-.465-.747-.98-.954-1.707a.356.356 0 0 0-.347-.262l-.524-.004c.282-.8.82-1.586 1.832-1.586h.012c1.024.008 1.555.801 1.828 1.606m-1.821-2.328h-.02q-.467.002-.87.156a9.6 9.6 0 0 1-1.223-4.543 9.4 9.4 0 0 1 .629-3.172l3.054.02a9.4 9.4 0 0 1 .594 3.175 9.6 9.6 0 0 1-1.277 4.532 2.5 2.5 0 0 0-.887-.168m-1.172-8.278a10 10 0 0 1 1.23-1.957c.485.614.887 1.278 1.211 1.97Zm3.246 7.672q.358-.844.559-1.73c.57.738.906 1.597 1.011 2.597-.441-.34-.96-.66-1.57-.867m5.188-.406H19.12a5.64 5.64 0 0 0-1.32-2.242q.077-.545.09-1.102v-.008c-.024-2.406-.93-4.777-2.551-6.671a.36.36 0 0 0-.27-.13h-.004a.37.37 0 0 0-.273.126c-1.64 1.879-2.574 4.234-2.625 6.64v.012q.005.55.074 1.102a5.6 5.6 0 0 0-1.36 2.273H7.728a4.113 4.113 0 0 1-4.106-4.105c0-2.16 1.688-3.961 3.844-4.098a.38.38 0 0 0 .277-.156.36.36 0 0 0 .043-.313q-.167-.541-.168-1.105A3.67 3.67 0 0 1 11.285.723c1.344 0 2.582.738 3.223 1.922a.35.35 0 0 0 .265.183c.114.02.227-.02.309-.101A4.18 4.18 0 0 1 18.051 1.5c2.27 0 4.152 1.848 4.203 4.113.004.188.148.34.332.356a4.124 4.124 0 0 1 3.789 4.093 4.114 4.114 0 0 1-4.11 4.106m-6.082-4.625a1.57 1.57 0 0 0-1.11-.465h-.008a1.571 1.571 0 0 0-.007 3.14h.007c.418 0 .809-.16 1.102-.452a1.569 1.569 0 0 0 .016-2.223m-.524 1.707a.82.82 0 0 1-.598.246.85.85 0 0 1-.601-.25.849.849 0 0 1 .605-1.445h.004a.84.84 0 0 1 .598.25c.16.164.246.375.246.601a.82.82 0 0 1-.254.598m0 0"/></g></svg>