<svg xmlns="http://www.w3.org/2000/svg" width="40" height="40" version="1.0" viewBox="0 0 30 30"><defs><clipPath id="a"><path d="M.484 6.422h29.032v22.5H.484Zm0 0"/></clipPath><clipPath id="b"><path d="M9.195 0h11.61v7.984H9.195Zm0 0"/></clipPath></defs><g clip-path="url(#a)"><path fill="#061c3d" fill-rule="evenodd" d="M21.574 27.871c.29 0 .723.016 1.207.035 1.848.078 4.582.188 5.313-.562q.514-.526.496-1.262a56 56 0 0 0-.211-3.629h-2.934l.176 1.668a1.44 1.44 0 0 1-1.32 1.594l-3.102.265c-.312.024-.39-.277-.96-.277-1.06 0-1.59 1.27-.95 1.906.203.203.48.309.719.309.578 0 1.043-.047 1.566-.047M5.285 19.04a.456.456 0 1 1 .906.09l-.53 5.031c-.032.3.179.57.487.594l2.989.254 3.129-7.805c.07-.18.242-.289.422-.289h.988c-.715-1.93-1.992-2.969-4.086-3.43a8 8 0 0 0-.738-.129q-.295-.002-.57-.054c-.645-.035-1.27 0-1.829.113-2.11.434-3.203 1.992-3.875 3.965-.848 2.496-1.101 6.07-1.168 8.703q-.018.736.496 1.262c.348.355.754.527 1.25.527h7.45v-1.82l-4.532-.387a1.444 1.444 0 0 1-1.32-1.594Zm6.235 8.844v-1.73c.34-.075.82-.243 1.234-.778a1.157 1.157 0 0 1 1.867.906c0 2.043-1.734 1.668-3.101 1.602m.386.937-.844-.035-7.906-.004v.004a2.6 2.6 0 0 1-1.902-.805A2.58 2.58 0 0 1 .5 26.062c.07-2.753.332-6.37 1.215-8.976.828-2.434 2.27-4.227 4.902-4.625a3.305 3.305 0 0 1-.078-4.746 3.304 3.304 0 1 1 4.121 5.117c2.102.7 3.305 2.031 3.98 4.082h.72c.675-2.05 1.878-3.383 3.98-4.082a3.304 3.304 0 1 1 4.043-.371c3.824.578 5.027 4.102 5.597 7.52.329 1.972.47 4.109.52 6.081a2.58 2.58 0 0 1-.754 1.918c-1.016 1.04-3.988.918-6 .836-.781-.03-1.18-.043-1.89-.011-.278.011-.567.027-.848.027-.414 0-.887-.164-1.258-.48h-3.969c-.5.41-1.199.511-1.926.511-.312 0-.636-.023-.949-.043m-.582-3.562a.47.47 0 0 0-.226-.082l-1.012-.086 2.91-7.262h6.34l-3.852 9.61h-.105c.101-.313.156-.696.156-1.157 0-1.426-1.43-2.433-2.781-1.941-.219.082-.574.27-.711.469-.23.296-.512.402-.719.449m5-8.344c.715-1.93 1.992-2.969 4.086-3.43q.369-.081.738-.129.294-.002.575-.054a7.3 7.3 0 0 1 1.824.113c1.195.246 2.113.86 2.812 1.82 1.196 1.637 1.672 4.223 1.922 6.305h-2.933l-.258-2.45a.453.453 0 0 0-.5-.405.454.454 0 0 0-.406.5l.53 5.03a.53.53 0 0 1-.487.59l-2.957.255a2 2 0 0 0-.418-.18 2.14 2.14 0 0 0-2.125.539c-.516.512-.758 1.3-.563 2.02h-1.7l3.954-9.868a.455.455 0 0 0-.41-.656Zm-5.758-8.55a2.388 2.388 0 1 0-3.379 3.378c.329.328.75.563 1.223.656q.244.016.488.043a2.36 2.36 0 0 0 1.668-.699 2.39 2.39 0 0 0 0-3.379m10.559-.704a2.39 2.39 0 0 0-1.691 4.082 2.36 2.36 0 0 0 1.668.7q.244-.028.488-.044a2.4 2.4 0 0 0 1.223-.656 2.39 2.39 0 0 0 0-3.379 2.37 2.37 0 0 0-1.688-.703m0 0"/></g><g clip-path="url(#b)"><path fill="#061c3d" d="M20.504 4.281a.71.71 0 0 0-.516-.402.8.8 0 0 0 .145-.188c.105-.171.152-.375.156-.574.008-.414-.16-.828-.418-1.144-.488-.606-1.379-.598-2.027-.23.07-.348.023-.727-.172-1.02-.23-.344-.617-.528-1.02-.594-.836-.129-1.882.152-2.43.836-.199.246-.277.52-.253.797-.067-.047-.137-.09-.2-.13a1.6 1.6 0 0 0-.57-.198 1.57 1.57 0 0 0-1.195.347 1.8 1.8 0 0 0-.57.844c-.036.129-.055.29-.004.418q.006.007.011.02c-1.03-.43-2.242 1.261-1.492 2.175.301.367.785.508 1.239.567.082.644.437 1.203 1.042 1.48.594.27 1.31.242 1.86-.11a1.8 1.8 0 0 0 .59-.605c.488.72 1.332 1.188 2.203.813.531-.227 1.152-.813 1.25-1.438.5.36 1.27.371 1.793.075.582-.329.875-1.125.578-1.739m-.442 1.137c-.226.312-.617.422-.984.406a1.3 1.3 0 0 1-.988-.535.2.2 0 0 0-.188-.086c-.113-.023-.246.07-.203.211.113.344.051.652-.152.953-.2.29-.5.535-.828.664-.778.313-1.543-.242-1.89-.918-.079-.152-.274-.086-.329.043-.285.68-.984 1.035-1.703.938-.73-.098-1.293-.668-1.344-1.41-.004-.082-.058-.13-.137-.137-.613-.07-1.406-.348-1.34-1.098.044-.508.426-1.008.887-1.21.262-.118.567-.122.809.05.031.02.07-.027.039-.055-.016-.011-.027-.023-.043-.035-.004-.086-.059-.16-.059-.254a.8.8 0 0 1 .102-.363c.113-.234.285-.465.496-.621.273-.195.652-.297.984-.23.168.035.325.105.465.199.16.105.278.261.43.363.129.086.258-.074.2-.195a.7.7 0 0 0-.122-.164c-.031-.63.52-1.121 1.09-1.34.61-.23 1.566-.344 2.055.199.316.352.21.812.152 1.23v.008l-.031.031c-.055.06.02.165.093.118q.001-.004.008-.008c.055.043.137.039.18-.043q.018-.036.035-.078c.582-.29 1.39-.418 1.836.12.195.235.324.556.336.864.008.352-.172.55-.41.777-.07.067-.051.153.008.2a.09.09 0 0 0 .09.054c.742-.015.796.88.456 1.352m0 0"/></g></svg>