<svg xmlns="http://www.w3.org/2000/svg" width="40" height="40" version="1.0" viewBox="0 0 30 30"><defs><clipPath id="a"><path d="M21 7h8.516v8H21Zm0 0"/></clipPath><clipPath id="b"><path d="M.484 2.902H24V23H.484Zm0 0"/></clipPath><clipPath id="c"><path d="M21 25h2v1.129h-2Zm0 0"/></clipPath><clipPath id="d"><path d="M28 15h1.516v2H28Zm0 0"/></clipPath><clipPath id="e"><path d="M28 17h1.516v1H28Zm0 0"/></clipPath><clipPath id="f"><path d="M28 18h1.516v2H28Zm0 0"/></clipPath></defs><path fill="#061c3d" d="M7.527 20.883h3.325a.304.304 0 0 0 0-.61H7.527a.305.305 0 0 0 0 .61M7.527 19.21h3.325c.164 0 .3-.136.3-.304a.3.3 0 0 0-.3-.3H7.527a.304.304 0 0 0-.304.3c0 .168.136.305.304.305M7.527 17.54h3.325a.303.303 0 0 0 0-.606H7.527a.305.305 0 0 0-.304.304c0 .164.136.301.304.301M7.527 15.867h3.325a.303.303 0 0 0 0-.605H7.527a.305.305 0 0 0-.304.304c0 .168.136.301.304.301M15.39 4.543h-2.16c-.168 0-.3.137-.3.305a.3.3 0 0 0 .3.3h2.16a.304.304 0 0 0 .305-.3.305.305 0 0 0-.304-.305M15.39 6.516h-2.16c-.168 0-.3.136-.3.304s.133.305.3.305h2.16a.305.305 0 0 0 0-.61M15.39 8.492h-2.16a.3.3 0 0 0-.3.301c0 .168.133.305.3.305h2.16a.305.305 0 0 0 .305-.305c0-.164-.136-.3-.304-.3M15.39 10.465h-2.16c-.168 0-.3.137-.3.305a.3.3 0 0 0 .3.3h2.16a.304.304 0 0 0 .305-.3.305.305 0 0 0-.304-.305M15.39 14.414h-2.16a.3.3 0 0 0-.3.3c0 .169.133.306.3.306h2.16a.305.305 0 0 0 .305-.305c0-.164-.136-.3-.304-.3M15.39 16.387h-2.16c-.168 0-.3.136-.3.304s.133.301.3.301h2.16a.3.3 0 0 0 .305-.3.305.305 0 0 0-.304-.305M15.39 18.36h-2.16c-.168 0-.3.136-.3.304s.133.305.3.305h2.16a.305.305 0 0 0 0-.61M15.39 20.336h-2.16a.3.3 0 0 0-.3.3c0 .169.133.305.3.305h2.16a.305.305 0 0 0 .305-.304c0-.164-.136-.301-.304-.301M7.527 14.195h3.325a.3.3 0 0 0 .3-.3.304.304 0 0 0-.3-.305H7.527a.305.305 0 0 0-.304.305c0 .168.136.3.304.3M15.39 12.438h-2.16c-.168 0-.3.136-.3.304s.133.305.3.305h2.16a.305.305 0 0 0 0-.61M6.723 23.895H6.68a.08.08 0 0 1-.078-.063 1.21 1.21 0 0 0-1.168-.906 1.22 1.22 0 0 0-1.18.937.09.09 0 0 1-.063.063 1.215 1.215 0 0 0-.937 1.176v.324c0 .133.11.242.246.242h.32c.043 0 .078.035.078.078v.242h.489v-.242c0-.043.035-.078.078-.078h2.258c.043 0 .078.035.078.078v.242h.484v-.242c0-.043.04-.078.082-.078h.32c.137 0 .247-.11.247-.242v-.324c0-.668-.543-1.207-1.211-1.207m.644 1.289H3.82a.083.083 0 0 1-.082-.082c0-.399.328-.723.727-.723.133 0 .242-.11.242-.246a.724.724 0 0 1 1.45 0c0 .137.109.246.241.246h.325c.398 0 .726.324.726.723 0 .043-.039.082-.082.082M14.137 23.895h-.04a.08.08 0 0 1-.077-.063 1.216 1.216 0 0 0-1.172-.906 1.22 1.22 0 0 0-1.18.937.09.09 0 0 1-.059.063 1.215 1.215 0 0 0-.937 1.176v.324c0 .133.11.242.242.242h.32a.08.08 0 0 1 .082.078v.242h.485v-.242a.08.08 0 0 1 .082-.078h2.254a.08.08 0 0 1 .082.078v.242h.484v-.242a.08.08 0 0 1 .082-.078h.32c.133 0 .243-.11.243-.242v-.324c0-.668-.543-1.207-1.211-1.207m.648 1.289h-3.55c-.044 0-.079-.04-.079-.082 0-.399.324-.723.727-.723.133 0 .238-.11.238-.246 0-.399.328-.723.727-.723s.722.324.722.723c0 .137.11.246.246.246h.32c.403 0 .727.324.727.723 0 .043-.035.082-.078.082M15.875 22.863h-.238c-.168 0-.301.137-.301.305s.133.305.3.305h.239a.305.305 0 0 0 0-.61M2.973 22.863h-.239a.305.305 0 0 0 0 .61h.239a.304.304 0 0 0 0-.61M10.383 22.863h-2.16a.305.305 0 0 0 0 .61h2.16c.168 0 .3-.137.3-.305a.304.304 0 0 0-.3-.305M20.695 16.844a1.8 1.8 0 0 0-.8-.192 1.788 1.788 0 0 0-1.5.816c-.192.29-.29.626-.29.973 0 .344.098.68.29.973a1.78 1.78 0 0 0 1.5.816q.299-.001.585-.101a1.79 1.79 0 0 0 1.196-1.64v-.036l.004-.012a1.792 1.792 0 0 0-.984-1.598m.485 1.652a1.27 1.27 0 0 1-.223.68 1.3 1.3 0 0 1-1.062.558c-.422 0-.817-.207-1.06-.547a1.27 1.27 0 0 1-.237-.746c0-.27.082-.527.238-.742a1.3 1.3 0 0 1 .828-.531h.008a1 1 0 0 1 .223-.02c.12 0 .242.016.347.047.555.157.942.668.942 1.246 0 .024 0 .047-.004.055M27.457 10.742a1.789 1.789 0 1 0-3.578 0 1.788 1.788 0 0 0 3.578 0m-3.082 0c0-.715.582-1.297 1.293-1.297.71 0 1.293.582 1.293 1.297a1.294 1.294 0 0 1-2.586 0m0 0"/><g clip-path="url(#a)"><path fill="#061c3d" d="M24.508 13.445q.02.007.055.02l.085.035v.703c0 .137.114.25.25.25h1.54a.25.25 0 0 0 .246-.25v-.61l.027-.1.113-.048.086-.027.492.492a.23.23 0 0 0 .172.074.25.25 0 0 0 .176-.074l1.09-1.09a.24.24 0 0 0 .07-.172.25.25 0 0 0-.07-.18l-.434-.429-.066-.098.055-.09.03-.093h.708a.25.25 0 0 0 .246-.25v-1.54c0-.136-.11-.25-.246-.25h-.707l-.031-.093-.012-.027-.047-.09.504-.504a.22.22 0 0 0 .07-.172.25.25 0 0 0-.07-.176L27.754 7.57a.25.25 0 0 0-.18-.074.24.24 0 0 0-.172.07L26.97 8l-.063.059-.082-.028q-.032-.01-.062-.027l-.078-.035v-.696c0-.136-.11-.25-.247-.25h-1.539a.25.25 0 0 0-.25.25v.688L24.582 8c-.023.016-.05.023-.074.031l-.078.028-.492-.493a.25.25 0 0 0-.176-.066.27.27 0 0 0-.176.066l-1.09 1.094a.245.245 0 0 0 .004.348l.43.433.054.106-.043.09-.035.086h-.703c-.137 0-.25.109-.25.246v1.543q0 .052.024.097c.039.09.125.149.226.149h.61l.105.02.031.093.059.094-.508.504a.26.26 0 0 0-.074.18c0 .062.027.124.074.171l1.086 1.09c.047.047.11.074.176.074a.25.25 0 0 0 .175-.074l.493-.488Zm-.297-.508-.45.45-.738-.742.45-.45a.25.25 0 0 0 .043-.293 3 3 0 0 1-.196-.464.24.24 0 0 0-.234-.176h-.633v-1.047h.633c.113 0 .207-.07.234-.176.047-.156.11-.305.196-.465a.25.25 0 0 0-.043-.293l-.45-.449.739-.738.449.449c.047.047.11.07.176.07a.24.24 0 0 0 .117-.027q.212-.116.465-.191a.25.25 0 0 0 .176-.239V7.52h1.046v.636c0 .11.07.207.176.239q.253.075.465.19.055.031.121.032a.24.24 0 0 0 .172-.074l.45-.45.738.739-.45.45a.25.25 0 0 0-.039.296c.074.145.14.297.192.465a.24.24 0 0 0 .234.172h.637v1.047h-.637c-.11 0-.207.07-.238.175a2.5 2.5 0 0 1-.192.47.24.24 0 0 0 .043.288l.45.45-.739.742-.449-.45a.25.25 0 0 0-.176-.074.3.3 0 0 0-.117.032c-.145.074-.3.14-.465.187a.25.25 0 0 0-.176.238v.637h-1.046v-.637c0-.11-.07-.207-.176-.238a2.4 2.4 0 0 1-.465-.191.24.24 0 0 0-.117-.028.23.23 0 0 0-.176.075m0 0"/></g><g clip-path="url(#b)"><path fill="#061c3d" d="M21.797 21.684a.25.25 0 0 0 .176-.07l1.09-1.094a.24.24 0 0 0 0-.348l-.43-.434-.07-.093.054-.094.031-.094h.711c.137 0 .246-.11.246-.246v-1.543a.25.25 0 0 0-.246-.246h-.71l-.032-.094q-.006-.017-.012-.027l-.043-.09.504-.504a.245.245 0 0 0-.003-.348l-1.086-1.09a.26.26 0 0 0-.176-.074.25.25 0 0 0-.176.075l-.43.43-.066.058-.082-.028a.3.3 0 0 1-.063-.023l-.074-.039v-.695a.25.25 0 0 0-.246-.246h-1.539c-.14 0-.25.113-.25.246v.687l-.066.043q-.04.022-.075.031l-.082.028-.492-.492a.24.24 0 0 0-.172-.067.25.25 0 0 0-.175.067l-1.008 1.007V3.27a.304.304 0 0 0-.301-.305h-4.379a.305.305 0 0 0-.305.305v8.804h-1.28v-1.363a.743.743 0 0 0-.747-.742H8.582a.745.745 0 0 0-.746.742v1.363H6.25c-.168 0-.3.137-.3.305V15c0 .168.132.305.3.305s.305-.14.305-.305v-2.316h5.265v8.964H4.867v-2.343c.586-.176.992-.856.992-1.664 0-.774-.441-2.586-1.296-2.586-.903 0-1.301 1.87-1.301 2.586 0 .812.41 1.488.996 1.668v2.34h-1.36V8.663a.14.14 0 0 1 .141-.14h2.77a.14.14 0 0 1 .14.14v1.813c0 .168.137.308.301.308.168 0 .305-.14.305-.308V8.664a.746.746 0 0 0-.746-.746h-2.77a.75.75 0 0 0-.746.746V21.68H.785c-.168 0-.3.133-.3.3 0 .168.132.305.3.305h17.278a.316.316 0 0 0 .035-.629.2.2 0 0 0 .062-.043l.492-.492.078.027a.2.2 0 0 1 .055.02l.09.035v.703c0 .137.11.246.25.246h1.54c.132 0 .245-.109.245-.246v-.61l.024-.1.113-.048.086-.027.492.492c.047.047.11.07.172.07M9.93 12.074H8.44v-1.363c0-.074.063-.14.141-.14h1.211a.14.14 0 0 1 .137.14Zm-5.364 6.672h-.011c-.371-.004-.688-.508-.688-1.105 0-.899.496-1.977.692-1.977s.691 1.078.691 1.977c0 .59-.312 1.101-.668 1.109Zm12.586-1.605.059.109-.047.086-.031.086h-.328v-.629Zm-.347 2.316h.234l.106.023.03.09.055.094-.425.426Zm-4.38 2.191V3.57H16.2l-.004 18.078Zm4.38 0v-1.043l1.008 1.008c.015.016.035.024.05.035Zm4.37-1.082a.2.2 0 0 0-.116.032c-.145.074-.301.14-.465.187a.25.25 0 0 0-.18.238v.637h-1.043v-.637a.25.25 0 0 0-.176-.238 2.2 2.2 0 0 1-.465-.191.3.3 0 0 0-.117-.032.26.26 0 0 0-.18.075l-.449.449-.734-.738.45-.453a.25.25 0 0 0 .038-.293 2.6 2.6 0 0 1-.191-.461.244.244 0 0 0-.238-.176h-.504v-1.047h.504c.113 0 .207-.07.238-.176.047-.156.11-.308.191-.465a.24.24 0 0 0-.043-.293l-.445-.449.738-.738.446.445a.26.26 0 0 0 .18.074c.038 0 .081-.011.113-.027.14-.078.3-.144.468-.195a.24.24 0 0 0 .176-.235v-.636h1.043v.636c0 .11.074.204.18.235q.253.077.465.195.053.029.117.027a.25.25 0 0 0 .176-.07l.449-.45.738.74-.45.448a.24.24 0 0 0-.042.293c.078.149.14.297.191.465a.25.25 0 0 0 .239.176h.632v1.047h-.632a.244.244 0 0 0-.239.176 2.6 2.6 0 0 1-.191.464.24.24 0 0 0 .043.293l.45.446-.74.742-.448-.45a.26.26 0 0 0-.176-.07m0 0"/></g><path fill="#061c3d" d="m22.734 25.012.223.738a9 9 0 0 0 .727-.254l-.286-.715a8 8 0 0 1-.664.23m0 0"/><g clip-path="url(#c)"><path fill="#061c3d" d="m21.355 25.305.098.765q.382-.052.758-.129l-.16-.753c-.23.046-.461.09-.696.117m0 0"/></g><path fill="#061c3d" d="m27.926 20.547.695.336q.166-.346.3-.711l-.718-.27a7 7 0 0 1-.277.645m0 0"/><g clip-path="url(#d)"><path fill="#061c3d" d="m28.738 16.445.77-.043q-.024-.383-.074-.765l-.762.105c.031.23.055.469.066.703m0 0"/></g><g clip-path="url(#e)"><path fill="#061c3d" d="M28.746 17.148a8 8 0 0 1-.05.704l.765.085c.031-.253.047-.511.055-.765Zm0 0"/></g><path fill="#061c3d" d="m24.04 24.492.347.692c.226-.114.453-.239.672-.372l-.399-.66c-.203.121-.41.239-.62.34M25.246 23.766l.453.62q.306-.223.602-.476l-.504-.582a10 10 0 0 1-.55.438M27.215 21.766l.629.441a9 9 0 0 0 .418-.648l-.668-.387a9 9 0 0 1-.38.594m0 0"/><g clip-path="url(#f)"><path fill="#061c3d" d="m28.426 19.234.738.211q.104-.37.18-.746l-.754-.152q-.07.346-.164.687m0 0"/></g><path fill="#061c3d" d="m26.313 22.848.55.539q.27-.277.516-.57l-.594-.493q-.224.271-.473.524M18.273 9.918l-.738-.215a8 8 0 0 0-.18.75l.754.149c.047-.23.102-.461.164-.684M20.387 6.3l-.551-.538q-.27.276-.516.57l.594.492c.148-.18.309-.355.473-.523M18.004 11.297l-.766-.086c-.027.254-.047.512-.054.766l.77.023c.007-.234.023-.473.05-.703M19.105 7.977q.179-.307.38-.594l-.63-.442c-.148.207-.289.426-.418.649ZM18.773 8.602l-.695-.336q-.165.346-.3.71l.718.27c.086-.219.176-.437.277-.644M25.34 3.844l-.098-.766q-.377.053-.754.129l.16.754c.227-.047.461-.086.692-.117M22.656 4.656l-.34-.691a9 9 0 0 0-.675.37l.398.661c.203-.121.41-.238.617-.34M23.965 4.137l-.223-.739a9 9 0 0 0-.726.254l.285.715a10 10 0 0 1 .664-.23M17.191 12.746c.016.254.04.512.075.766l.761-.106a8 8 0 0 1-.066-.699ZM21.453 5.387 21 4.762a9 9 0 0 0-.602.476l.504.582c.176-.148.364-.297.551-.433m0 0"/></svg>