<svg xmlns="http://www.w3.org/2000/svg" width="40" height="40" version="1.0" viewBox="0 0 30 30"><defs><clipPath id="a"><path d="M.719 0h28.308v29.031H.72Zm0 0"/></clipPath></defs><g clip-path="url(#a)"><path fill="#fff" d="M29.156 24.426a.68.68 0 0 0-.625-.399h-.965V12.102a.915.915 0 0 0-.914-.915h-2.386a.915.915 0 0 0-.914.915v11.925h-.965a.68.68 0 0 0-.625.399.68.68 0 0 0 .097.738l3.075 3.617a.68.68 0 0 0 .527.242.67.67 0 0 0 .523-.242l3.075-3.617a.68.68 0 0 0 .097-.738m-3.695 3.531-2.543-2.996h.902a.464.464 0 0 0 .465-.469v-12.37h2.348v12.37c0 .262.207.469.469.469H28ZM7.6 18.645h-.96v-6.543a.915.915 0 0 0-.914-.915H3.336a.915.915 0 0 0-.914.915v6.543H1.46a.68.68 0 0 0-.629.398.68.68 0 0 0 .102.738l3.07 3.617a.69.69 0 0 0 1.055 0l3.07-3.617a.688.688 0 0 0-.527-1.136m-3.07 3.93-2.543-2.997h.903a.47.47 0 0 0 .468-.469v-6.988h2.344v6.988c0 .262.211.47.469.47h.902Zm17.567-8.895-.504-1.13a7.6 7.6 0 0 0 .73-1.757l1.153-.445c.18-.067.3-.243.3-.434v-2.25a.47.47 0 0 0-.3-.437l-1.153-.446a7.6 7.6 0 0 0-.73-1.758l.504-1.128a.47.47 0 0 0-.098-.52l-1.59-1.59a.47.47 0 0 0-.523-.097l-1.13.5A7.6 7.6 0 0 0 17 1.457L16.555.309a.46.46 0 0 0-.434-.301h-2.25a.465.465 0 0 0-.437.3l-.446 1.153a7.4 7.4 0 0 0-1.758.726l-1.128-.5a.46.46 0 0 0-.52.098l-1.59 1.59a.47.47 0 0 0-.097.52l.5 1.128a7.6 7.6 0 0 0-.73 1.758l-1.15.446a.465.465 0 0 0-.3.437v2.25a.46.46 0 0 0 .3.434l1.15.445a7.6 7.6 0 0 0 .73 1.758l-.5 1.129a.46.46 0 0 0 .097.52l1.59 1.593a.47.47 0 0 0 .52.098l1.128-.504q.788.452 1.657.699v5.25h-.965a.68.68 0 0 0-.625.398.67.67 0 0 0 .101.739l3.07 3.617a.685.685 0 0 0 1.055 0l3.07-3.617a.688.688 0 0 0-.527-1.137h-.96v-5.25a7.4 7.4 0 0 0 1.652-.7l1.129.505c.175.078.383.039.52-.098L22 14.203a.475.475 0 0 0 .098-.523m-4.563 8.59-2.539 2.996-2.543-2.996h.902a.464.464 0 0 0 .465-.47v-4.234h2.348v4.235c0 .262.21.469.469.469Zm3.106-9.56.468 1.056-1.136 1.136-1.055-.468a.47.47 0 0 0-.438.03 6.6 6.6 0 0 1-1.937.802.47.47 0 0 0-.328.289l-.418 1.078H14.19l-.414-1.078a.48.48 0 0 0-.328-.29 6.6 6.6 0 0 1-1.941-.8.46.46 0 0 0-.434-.031l-1.058.468-1.137-1.136.469-1.055a.47.47 0 0 0-.028-.438 6.6 6.6 0 0 1-.804-1.937.46.46 0 0 0-.29-.328L7.149 9.59V7.984l1.079-.414a.47.47 0 0 0 .289-.328 6.6 6.6 0 0 1 .804-1.941.48.48 0 0 0 .028-.438l-.47-1.054 1.138-1.137 1.058.469c.14.062.301.05.434-.028a6.6 6.6 0 0 1 1.941-.804.47.47 0 0 0 .328-.29l.414-1.078h1.606l.418 1.079a.46.46 0 0 0 .328.289 6.6 6.6 0 0 1 1.937.804c.133.078.297.09.438.028l1.055-.47 1.136 1.138-.468 1.058c-.063.14-.051.301.03.434.368.601.642 1.254.806 1.941.035.149.14.274.285.328l1.078.414V9.59l-1.078.418a.46.46 0 0 0-.285.328 6.7 6.7 0 0 1-.805 1.937.47.47 0 0 0-.031.438m-5.645-8.315a4.4 4.4 0 0 0-4.394 4.394 4.4 4.4 0 0 0 4.394 4.39 4.394 4.394 0 0 0 4.39-4.39 4.4 4.4 0 0 0-4.39-4.394m0 7.847A3.46 3.46 0 0 1 11.54 8.79a3.46 3.46 0 0 1 3.457-3.457 3.46 3.46 0 0 1 3.453 3.457 3.46 3.46 0 0 1-3.453 3.453m1.715-2.594c.043.368-.055.7-.285.97-.223.253-.567.44-.965.519v.133a.467.467 0 1 1-.934 0v-.141c-.62-.145-1.097-.578-1.246-1.172a.47.47 0 0 1 .91-.227c.098.395.516.524.844.516.29-.004.563-.101.684-.242a.3.3 0 0 0 .062-.242c-.011-.117-.047-.395-.86-.528-1.276-.207-1.503-.933-1.523-1.347-.03-.676.418-1.246 1.13-1.434v-.148a.47.47 0 0 1 .468-.47.47.47 0 0 1 .469.47v.144a1.62 1.62 0 0 1 1.117.965.468.468 0 1 1-.863.363c-.192-.457-.668-.484-.918-.425-.114.023-.485.136-.465.492.004.093.016.347.738.468 1 .165 1.551.614 1.637 1.336m0 0"/></g></svg>