<svg xmlns="http://www.w3.org/2000/svg" width="40" height="40" version="1.0" viewBox="0 0 30 30"><defs><clipPath id="a"><path d="M10 2.793h11V9H10Zm0 0"/></clipPath><clipPath id="b"><path d="M4.906 14.703h20.14V26.02H4.907Zm0 0"/></clipPath><clipPath id="c"><path d="M.504 25.324H29.5v.696H.504Zm0 0"/></clipPath><clipPath id="d"><path d="M7.348 23.594h15.336v2.426H7.348Zm0 0"/></clipPath><clipPath id="e"><path d="M22.363 2.902H28v6.532h-5.637Zm0 0"/></clipPath></defs><g clip-path="url(#a)"><path fill="#fff" fill-rule="evenodd" d="M18.84 8.8a.46.46 0 0 1-.336-.144c-.07-.07-.11-.156-.18-.297-.125-.242-.351-.691-.816-1.285a4 4 0 0 0-.324-.379 2 2 0 0 0-.247-.21 2 2 0 0 1-.378.316c-.477.297-.957.285-1.309.277h-.027c-.012 0-1.11-.027-2.282.055l-.054.004c-.383.023-.774.05-1.067.21-.28.15-.449.462-.554 1.051a.49.49 0 0 1-.317.375.48.48 0 0 1-.547-.171c-.222-.301-.27-.7-.3-.993v-.007c-.047-.415-.133-1.41.027-1.797.09-.211.351-.754.902-1.285 1.086-1.047 2.867-1.457 3.215-1.532a7 7 0 0 1 1.922-.148c.422.031.777.082 1.09.16.422.105.75.313.953.598.105.148.168.297.227.43.05.12.097.226.16.292.082.094.199.176.324.262.137.102.293.211.433.356.344.347.73.933.79 1.527.058.558-.184 1.039-.403 1.398-.023.04-.144.227-.262.399-.242.355-.359.511-.593.535q-.024.005-.047.004m-2-3.355c.203 0 .37.117.476.196l.012.004c.238.168.41.324.488.402.09.086.192.2.403.465.308.394.523.73.676.996q.051-.077.074-.117c.215-.352.297-.61.273-.832-.027-.29-.246-.696-.535-.989-.082-.086-.195-.164-.312-.25-.145-.105-.313-.222-.461-.379a1.8 1.8 0 0 1-.329-.558c-.046-.102-.085-.192-.132-.258-.075-.105-.23-.191-.438-.246a5.4 5.4 0 0 0-.93-.137 6.3 6.3 0 0 0-1.675.133c-.84.176-2.067.617-2.766 1.297-.434.418-.637.84-.695.976-.02.07-.035.325-.016.743a1.6 1.6 0 0 1 .438-.344c.468-.25.98-.285 1.433-.317h.055a27 27 0 0 1 2.367-.058h.024c.304.008.562.012.808-.14a1 1 0 0 0 .328-.344.5.5 0 0 1 .324-.227.4.4 0 0 1 .11-.016m.348.707-.004.004zm0 0"/></g><path fill="#fff" fill-rule="evenodd" d="M15.043 14.996c-.254 0-.543-.023-.855-.094a4.25 4.25 0 0 1-1.715-.847 4.4 4.4 0 0 1-1.32-1.883c-.09-.25-.15-.52-.188-.715a2 2 0 0 1-.645-.488 2.14 2.14 0 0 1-.504-.98c-.164-.739.086-1.462.684-1.985a.456.456 0 0 1 .64.043.456.456 0 0 1-.042.64c-.446.387-.461.817-.399 1.106.094.422.422.793.797.898.172.051.3.2.324.375.028.207.094.54.188.797.289.813.824 1.313 1.039 1.489a3.3 3.3 0 0 0 1.336.664c.61.136 1.113.046 1.305.004a2.9 2.9 0 0 0 1.007-.465c.106-.07.387-.282.672-.617.414-.489.719-1.157.883-1.93.04-.18.184-.32.367-.352.293-.05.668-.554.707-1.133q.047-.604-.398-.746a.454.454 0 0 1 .281-.863c.371.121.66.36.84.691.144.278.21.618.183.98-.054.747-.488 1.58-1.152 1.872-.21.816-.55 1.512-1.02 2.066-.343.407-.68.665-.851.782-.172.117-.633.437-1.312.597-.184.043-.48.094-.852.094"/><path fill="#fff" fill-rule="evenodd" d="M12.66 16.453a.451.451 0 0 1-.402-.652c.117-.238.316-.715.328-1.238.008-.2-.02-.293-.063-.446-.011-.043-.027-.094-.039-.144a.454.454 0 0 1 .325-.555.454.454 0 0 1 .55.328l.036.125c.054.184.109.379.097.715-.015.695-.273 1.312-.426 1.617a.46.46 0 0 1-.406.25M17.332 16.594a.45.45 0 0 1-.395-.23c-.23-.41-.507-1.048-.527-1.778-.008-.336.047-.531.098-.715a.3.3 0 0 0 .015-.055.45.45 0 0 1 .559-.312.45.45 0 0 1 .316.555q-.01.03-.015.058c-.043.153-.07.246-.067.445.016.543.23 1.04.41 1.36a.453.453 0 0 1-.394.672"/><g clip-path="url(#b)"><path fill="#fff" fill-rule="evenodd" d="M24.582 26.242H5.422a.453.453 0 0 1-.453-.449c-.004-1.367.058-4.781.738-6.977a5.8 5.8 0 0 1 .695-1.507 6 6 0 0 1 2.215-1.946 6.06 6.06 0 0 1 2.985-.644.45.45 0 0 1 .293.12l2.003 1.884a.45.45 0 0 1 .02.64.45.45 0 0 1-.64.02l-1.88-1.762a5.1 5.1 0 0 0-2.37.55A4.94 4.94 0 0 0 7.16 17.81c-.246.37-.43.765-.586 1.273-.586 1.89-.687 4.875-.699 6.254h18.254c-.016-1.379-.113-4.363-.7-6.254a4.9 4.9 0 0 0-.585-1.273 5 5 0 0 0-1.867-1.637 5.1 5.1 0 0 0-2.38-.55L16.61 17.39a.452.452 0 1 1-.601-.676l2.11-1.883a.47.47 0 0 1 .284-.113 6.06 6.06 0 0 1 2.985.644 5.9 5.9 0 0 1 2.21 1.946c.294.441.516.921.696 1.507.684 2.196.746 5.61.742 6.977 0 .246-.203.45-.453.45"/></g><g clip-path="url(#c)"><path fill="#fff" fill-rule="evenodd" d="M29.047 26.242H.957a.453.453 0 0 1 0-.906h28.09a.453.453 0 0 1 0 .906"/></g><g clip-path="url(#d)"><path fill="#fff" fill-rule="evenodd" d="M20.746 26.242H9.254a1.91 1.91 0 0 1-1.906-1.91v-.21c0-.25.203-.454.453-.454h14.402c.25 0 .453.203.453.453v.211a1.91 1.91 0 0 1-1.91 1.91M8.281 24.574c.11.438.504.762.973.762h11.492c.473 0 .867-.324.977-.762z"/></g><path fill="#fff" fill-rule="evenodd" d="M21.215 24.574H8.789a.453.453 0 0 1-.453-.453V17.81a1.21 1.21 0 0 1 1.207-1.207h10.918a1.21 1.21 0 0 1 1.207 1.207v6.312c0 .25-.203.453-.453.453m-11.973-.906h11.52v-5.86a.3.3 0 0 0-.301-.3H9.543a.3.3 0 0 0-.3.3z"/><path fill="#fff" fill-rule="evenodd" d="M13.21 22.316a.45.45 0 0 1-.273-.093l-1.671-1.278a.46.46 0 0 1-.176-.36.46.46 0 0 1 .176-.358l1.672-1.278a.454.454 0 0 1 .55.723l-1.199.914 1.2.918a.45.45 0 0 1 .085.633.46.46 0 0 1-.363.18M16.79 22.316a.45.45 0 0 1-.36-.18.45.45 0 0 1 .086-.632l1.199-.918-1.2-.914a.454.454 0 0 1 .551-.723l1.668 1.278a.45.45 0 0 1 0 .718l-1.668 1.278a.46.46 0 0 1-.277.093M14.457 22.992a.454.454 0 0 1-.437-.574l1.09-3.906a.457.457 0 0 1 .558-.317c.242.07.383.317.316.559l-1.093 3.91a.45.45 0 0 1-.434.328"/><g clip-path="url(#e)"><path fill="#fff" d="m27.895 8.332-.528-.926q-.204-.362-.414-.73.18-.09.145-.285-.03-.271-.063-.536c-.008-.027 0-.046.02-.066.125-.125.246-.258.367-.383a.25.25 0 0 0 .086-.195.26.26 0 0 0-.082-.195q-.177-.195-.356-.383-.04-.035-.027-.086c.027-.176.05-.356.074-.531a.24.24 0 0 0-.047-.203.23.23 0 0 0-.175-.106l-.528-.105q-.041-.001-.058-.043l-.27-.493q-.073-.156-.238-.136a.4.4 0 0 0-.13.035q-.239.106-.472.219-.033.023-.066 0a28 28 0 0 1-.488-.239.23.23 0 0 0-.204-.023.24.24 0 0 0-.152.137c-.09.16-.176.32-.266.476a.1.1 0 0 1-.05.04l-.54.093a.26.26 0 0 0-.18.11.24.24 0 0 0-.046.202q.034.27.063.54.011.035-.024.066c-.117.125-.234.254-.36.375a.26.26 0 0 0-.085.203.26.26 0 0 0 .086.2c.12.124.238.257.355.386.02.016.028.04.024.063-.028.18-.051.359-.078.542a.24.24 0 0 0 .132.278l.032.02-.024.038c-.308.547-.613 1.098-.93 1.645a.13.13 0 0 0-.003.144q.045.077.132.07c.32-.007.637-.003.957-.003q.053-.005.075.043.215.381.437.762.03.082.117.082.09 0 .121-.082.44-.761.887-1.516l.027-.043.028.047.879 1.523a.14.14 0 0 0 .125.09q.094-.006.125-.094l.433-.773q.016-.042.067-.04h.96c.137 0 .196-.097.13-.214m-4.817-3.121-.027-.035c.008-.012.02-.02.027-.031q.18-.195.367-.383a.25.25 0 0 0 .078-.246l-.066-.528c-.004-.039.008-.054.047-.062.18-.028.36-.063.535-.094a.25.25 0 0 0 .2-.14q.123-.235.253-.462c.008-.015.02-.03.028-.05l.09.043q.22.104.437.215.117.059.234 0 .27-.124.543-.247c.063.122.13.243.192.36l.086.168a.24.24 0 0 0 .183.133c.188.035.371.074.559.109.008.004.011.004.027.008l-.023.16q-.031.223-.063.441a.24.24 0 0 0 .067.207l.375.407.03.03-.288.298q-.058.066-.121.125a.24.24 0 0 0-.075.218c.024.18.043.364.067.543q-.001.023.004.051-.13.022-.254.043c-.11.02-.219.035-.324.055a.24.24 0 0 0-.188.137l-.262.472-.023.04-.035-.012c-.164-.082-.328-.16-.492-.243a.25.25 0 0 0-.239 0c-.164.079-.332.157-.496.235-.015.008-.027.011-.043.02l-.156-.298-.117-.222a.25.25 0 0 0-.2-.145q-.275-.048-.55-.101c-.012 0-.02-.004-.035-.008l.03-.234q.029-.183.052-.364a.22.22 0 0 0-.067-.21 18 18 0 0 0-.367-.403m4.442 3.078c-.27 0-.54.004-.81 0q-.098-.005-.14.082c-.12.219-.242.43-.363.645-.008.015-.016.027-.027.05l-.832-1.445a.25.25 0 0 0-.192-.105.25.25 0 0 0-.222.113c-.41.71-.575.992-.622 1.086a8 8 0 0 0-.167.289q-.012.017-.024.039c-.082-.133-.156-.266-.234-.398-.051-.09-.106-.18-.157-.274q-.046-.088-.14-.082c-.274.004-.543 0-.813 0h-.054q.009-.022.02-.039c.28-.5.566-1 .847-1.5q.017-.048.062-.031c.098.02.196.035.293.054.02.004.04.02.051.036q.128.24.262.48.04.105.152.14c.07.028.14.02.207-.015.086-.035.164-.07.246-.113.067-.04.14-.067.207-.106a.13.13 0 0 1 .067-.015c.015 0 .031 0 .043.008.16.078.32.152.476.234q.101.054.215.02a.26.26 0 0 0 .16-.137c.082-.16.172-.309.258-.465q.017-.042.059-.043l.308-.059c.032-.011.047 0 .059.028l.762 1.34c.035.058.066.117.105.187ZM25.14 6.48q.258 0 .497-.093a1.325 1.325 0 0 0 .703-.695q.098-.24.098-.497a1.3 1.3 0 0 0-.094-.496 1.31 1.31 0 0 0-1.192-.8q-.257-.002-.496.097a1.288 1.288 0 0 0-.7.7q-.099.234-.1.492c0 .171.035.335.097.492q.101.235.277.418a1.31 1.31 0 0 0 .91.382m.008-2.324q.206.002.399.078.188.082.336.227a1.045 1.045 0 0 1 .3.73q0 .205-.081.399a1 1 0 0 1-.227.332 1 1 0 0 1-.336.226q-.189.076-.394.075a1.1 1.1 0 0 1-.399-.078 1 1 0 0 1-.332-.227 1 1 0 0 1-.223-.336 1 1 0 0 1 .004-.793 1.01 1.01 0 0 1 .559-.555 1 1 0 0 1 .394-.078m-.582 1.196q-.115-.099-.007-.204c.07-.07.14-.07.203.008.062.059.12.117.183.184l.38-.383c.066-.066.136-.133.202-.203.067-.078.133-.082.207-.008q.11.106-.007.207l-.676.676q-.105.117-.211 0c-.09-.094-.184-.184-.274-.277m0 0"/></g></svg>