<svg xmlns="http://www.w3.org/2000/svg" width="40" height="40" version="1.0" viewBox="0 0 30 30"><defs><clipPath id="a"><path d="M.484 5h29.032v23.797H.484Zm0 0"/></clipPath><clipPath id="b"><path d="M14 .488h2V3h-2Zm0 0"/></clipPath></defs><g clip-path="url(#a)"><path fill="#fff" d="M27.57 14.027h-.582q.36-.28.57-.683.216-.4.25-.852a2.1 2.1 0 0 0-.117-.883 2.165 2.165 0 0 0-2.055-1.46 2.16 2.16 0 0 0-2.054 1.46 2.18 2.18 0 0 0 .703 2.418h-.95l-1.808-.902-.129-.086c.247-.055.368-.207.372-.46v-6.77a.46.46 0 0 0-.141-.34.46.46 0 0 0-.344-.145H8.715a.46.46 0 0 0-.344.145.46.46 0 0 0-.14.34v6.77q.003.378.37.46l-.132.086-1.805.902h-.95c.235-.187.427-.414.567-.683q.216-.4.25-.852a2.18 2.18 0 0 0-1.297-2.164 2.2 2.2 0 0 0-.87-.18q-.456 0-.872.18A2.17 2.17 0 0 0 2.31 11.61q-.153.428-.118.883.035.452.25.852.212.404.57.683H2.43q-.386.001-.743.149a1.95 1.95 0 0 0-.628.418 1.95 1.95 0 0 0-.567 1.37v5.317q-.001.201.145.344.14.14.34.14h.968v6.286q0 .201.14.344.141.14.345.14h3.867a.46.46 0 0 0 .34-.14.46.46 0 0 0 .144-.344V16.8l2.64-1.375.056-.035 3.261-2.328h4.524l3.261 2.328.055.035 2.64 1.375v11.25q0 .201.145.344.14.14.34.14h3.867q.204 0 .344-.14a.47.47 0 0 0 .14-.344v-6.285h.97a.46.46 0 0 0 .34-.141.46.46 0 0 0 .144-.344v-5.316q-.001-.386-.149-.742a1.95 1.95 0 0 0-.418-.63 1.95 1.95 0 0 0-1.37-.566m-1.933-2.898q.24 0 .465.09a1.2 1.2 0 0 1 .652.656q.094.221.094.46 0 .242-.094.466a1.205 1.205 0 0 1-1.578.652 1.205 1.205 0 0 1-.656-.652 1.241 1.241 0 0 1 0-.926q.092-.223.261-.395.174-.169.395-.261.221-.09.46-.09m-21.274 0q.24 0 .461.09c.149.062.278.148.395.261a1.22 1.22 0 0 1 .351.856q0 .24-.09.465a1.2 1.2 0 0 1-.656.652q-.221.094-.46.094a1.205 1.205 0 0 1-1.117-.746 1.2 1.2 0 0 1 0-.926 1.205 1.205 0 0 1 .652-.656q.223-.09.464-.09m4.582 3.453-2.87 1.492a.45.45 0 0 0-.263.43V27.57h-.968v-6.773h-.965v6.773H2.91V16.445h-.965v4.352h-.484v-4.832q-.001-.195.074-.371a.9.9 0 0 1 .207-.313.9.9 0 0 1 .317-.21.9.9 0 0 1 .37-.075h4.352a.5.5 0 0 0 .215-.047l1.934-.969a.2.2 0 0 0 .05-.03l1.329-.887h.765Zm5.57-4.422v1.934H9.2V6.293h5.317v1.934A.48.48 0 0 0 15 8.71h.969a.45.45 0 0 1 .344.148q.14.137.136.336a.46.46 0 0 1-.14.34.46.46 0 0 1-.34.14H15a.47.47 0 0 0-.344.145.46.46 0 0 0-.14.34m.97 1.934v-1.45h.484a1.43 1.43 0 0 0 1.023-.425q.205-.205.317-.469a1.43 1.43 0 0 0-.004-1.11 1.436 1.436 0 0 0-.785-.785 1.5 1.5 0 0 0-.551-.113h-.485V6.293h5.317v5.8Zm13.054 8.703h-.484v-4.352h-.965V27.57h-.969v-6.773h-.965v6.773h-.968V16.504a.45.45 0 0 0-.262-.43l-2.871-1.492-2.13-1.52h.766l1.329.887c.015.012.035.02.05.028l1.934.968q.104.052.215.051h4.351q.195 0 .371.074a.9.9 0 0 1 .317.211q.136.136.207.313.075.177.074.37Zm0 0"/></g><g clip-path="url(#b)"><path fill="#fff" d="M14.516.488h.968v1.938h-.968Zm0 0"/></g><path fill="#fff" d="m17.05 3.074 1.368-1.367.684.684-1.368 1.367ZM10.898 2.39l.684-.683 1.367 1.367-.683.684ZM11.257 9.043h-.172l-.14-.375h-.578l-.141.375h-.156l.468-1.39h.235Zm-.61-1.219-.234.703h.485l-.235-.703ZM11.879 9.043h-.219l-.312-1.39h.156l.266 1.155h.015l.313-1.156h.156l.312 1.156h.016l.266-1.156h.156l-.313 1.39h-.218l-.297-1.046h-.016ZM13.684 9.058a1 1 0 0 1-.25-.03.5.5 0 0 1-.172-.095.4.4 0 0 1-.094-.125l.094-.109h.015q.125.22.407.219.153 0 .218-.063.077-.058.078-.187a.2.2 0 0 0-.03-.11q-.02-.043-.079-.078c-.031-.031-.086-.05-.156-.062l-.156-.047a.6.6 0 0 1-.266-.14.34.34 0 0 1-.078-.235q0-.105.047-.188a.34.34 0 0 1 .14-.125.7.7 0 0 1 .266-.047.6.6 0 0 1 .25.047q.106.049.172.125l-.078.11h-.016a.6.6 0 0 0-.14-.094.4.4 0 0 0-.188-.047.4.4 0 0 0-.234.063c-.043.03-.063.086-.063.156 0 .062.016.117.047.156q.059.048.187.078l.172.031a.5.5 0 0 1 .282.157.34.34 0 0 1 .093.25q-.002.11-.062.203a.3.3 0 0 1-.156.14.6.6 0 0 1-.25.047M16.807 12.29h-.172l-.14-.375h-.579l-.14.375h-.157l.47-1.39h.233Zm-.61-1.218-.234.703h.484l-.234-.703ZM17.678 12.29h-.75v-.14l.563-.75v-.032h-.547v-.125h.734v.141l-.578.766.016.015h.562ZM18.27 12.306q-.174 0-.265-.094c-.055-.062-.078-.148-.078-.265v-.704h.14v.688q0 .251.235.25a.27.27 0 0 0 .219-.094q.076-.091.078-.312v-.532h.156v1.047h-.14v-.156l-.016-.016a.5.5 0 0 1-.141.141.3.3 0 0 1-.187.047M19.122 12.29v-1.047h.14v.172h.016q.077-.17.281-.172c.07 0 .125.012.157.032l-.032.125-.03.015a.24.24 0 0 0-.126-.03.25.25 0 0 0-.203.093c-.043.062-.062.164-.062.297v.515ZM20.71 11.806h-.72q-.002.188.079.281a.34.34 0 0 0 .234.078.4.4 0 0 0 .187-.03.4.4 0 0 0 .11-.126h.015l.094.063a.3.3 0 0 1-.14.171.47.47 0 0 1-.266.063.6.6 0 0 1-.25-.047.4.4 0 0 1-.172-.187.6.6 0 0 1-.062-.297q0-.187.062-.297a.42.42 0 0 1 .172-.188.5.5 0 0 1 .25-.062.44.44 0 0 1 .312.11c.07.073.11.187.11.343v.11Zm-.141-.125q-.001-.168-.079-.25a.23.23 0 0 0-.187-.078.3.3 0 0 0-.219.078q-.082.082-.094.25Zm0 0"/></svg>