<svg xmlns="http://www.w3.org/2000/svg" width="40" height="40" version="1.0" viewBox="0 0 30 30"><defs><clipPath id="a"><path d="M.484 0H8v7H.484Zm0 0"/></clipPath><clipPath id="b"><path d="M.484 22H8v7.031H.484Zm0 0"/></clipPath><clipPath id="c"><path d="M22 0h7.516v7H22Zm0 0"/></clipPath><clipPath id="d"><path d="M22 22h7.516v7.031H22Zm0 0"/></clipPath></defs><path fill="#fff" d="M15.625 24.48h-1.402a1.38 1.38 0 0 1-1.38-1.378v-1.555a7.5 7.5 0 0 1-1.417-.586l-1.098 1.098c-.539.539-1.414.539-1.95 0l-.991-.993a1.37 1.37 0 0 1 0-1.945l1.101-1.101a7.3 7.3 0 0 1-.59-1.418H6.344a1.38 1.38 0 0 1-1.38-1.38V13.82c0-.761.618-1.379 1.38-1.379h1.554c.145-.488.344-.964.586-1.418L7.387 9.926c-.54-.54-.54-1.41 0-1.95l.992-.992c.535-.539 1.41-.539 1.945 0l1.102 1.102a7.3 7.3 0 0 1 1.418-.59V5.941c0-.761.617-1.378 1.379-1.378h1.402c.762 0 1.379.617 1.379 1.378v1.555q.738.22 1.418.59l1.098-1.102c.539-.539 1.414-.539 1.949 0l.992.993c.539.535.539 1.41 0 1.949l-1.102 1.097c.246.454.446.926.59 1.418h1.555c.758 0 1.379.618 1.379 1.38v1.402c0 .761-.621 1.379-1.38 1.379H21.95a7.3 7.3 0 0 1-.59 1.418l1.102 1.101c.539.535.539 1.41 0 1.945l-.992.993c-.535.539-1.41.539-1.95 0l-1.097-1.098a7.5 7.5 0 0 1-1.418.586v1.555c0 .761-.617 1.378-1.379 1.378m-4.262-4.367q.101-.002.196.055c.546.324 1.136.57 1.754.727a.38.38 0 0 1 .285.367v1.84c0 .347.28.625.625.625h1.402a.627.627 0 0 0 .625-.625v-1.84c0-.176.117-.325.285-.367a6.6 6.6 0 0 0 1.754-.727.38.38 0 0 1 .461.055l1.305 1.304a.627.627 0 0 0 .883 0l.992-.992a.627.627 0 0 0 0-.883l-1.305-1.3a.374.374 0 0 1-.059-.461 6.5 6.5 0 0 0 .73-1.758.375.375 0 0 1 .364-.285h1.844a.624.624 0 0 0 .625-.621V13.82a.624.624 0 0 0-.625-.62H21.66a.375.375 0 0 1-.363-.286 6.6 6.6 0 0 0-.73-1.758.38.38 0 0 1 .058-.457l1.305-1.304a.627.627 0 0 0 0-.883l-.992-.992a.627.627 0 0 0-.883 0l-1.305 1.3a.37.37 0 0 1-.46.059 6.4 6.4 0 0 0-1.755-.727.38.38 0 0 1-.285-.367V5.941a.627.627 0 0 0-.625-.625h-1.402a.627.627 0 0 0-.625.625v1.844a.37.37 0 0 1-.282.363 6.5 6.5 0 0 0-1.757.73.374.374 0 0 1-.461-.058L9.793 7.516a.62.62 0 0 0-.879 0l-.996.996a.61.61 0 0 0-.18.437c0 .168.063.324.18.442l1.305 1.304a.374.374 0 0 1 .058.461 6.5 6.5 0 0 0-.73 1.758.37.37 0 0 1-.364.281H6.345a.627.627 0 0 0-.625.625v1.403c0 .343.281.625.625.625h1.843c.172 0 .325.117.364.285.156.617.402 1.207.73 1.754a.38.38 0 0 1-.058.46l-1.305 1.305a.627.627 0 0 0 0 .883l.996.992a.62.62 0 0 0 .879 0l1.305-1.304c.07-.07.168-.11.265-.11m0 0"/><path fill="#fff" d="M14.922 19.313a4.795 4.795 0 0 1-4.79-4.79c0-2.64 2.15-4.789 4.79-4.789a4.79 4.79 0 0 1 4.789 4.79c0 2.64-2.145 4.789-4.79 4.789m0-8.825a4.04 4.04 0 0 0-4.035 4.035 4.043 4.043 0 0 0 4.035 4.036 4.04 4.04 0 0 0 4.035-4.036 4.04 4.04 0 0 0-4.035-4.035m0 0"/><g clip-path="url(#a)"><path fill="#fff" d="M5.625 6.914a.37.37 0 0 1-.266-.11L2.211 3.657l-.484.485a.37.37 0 0 1-.387.09.38.38 0 0 1-.254-.305L.606.44A.39.39 0 0 1 .71.121a.39.39 0 0 1 .32-.105l3.485.48c.14.02.261.117.304.254a.37.37 0 0 1-.09.387l-.484.484L7.395 4.77a.38.38 0 0 1 0 .53L5.89 6.806a.37.37 0 0 1-.266.11M2.211 2.746c.098 0 .195.035.266.11l3.148 3.148.969-.969-3.149-3.148a.38.38 0 0 1 0-.532l.215-.214L1.422.832 1.73 3.07l.215-.215a.37.37 0 0 1 .266-.109m0 0"/></g><g clip-path="url(#b)"><path fill="#fff" d="M.871 29.031a.38.38 0 0 1-.266-.11.38.38 0 0 1-.105-.316l.48-3.488a.378.378 0 0 1 .641-.215l.484.485 3.149-3.145a.373.373 0 0 1 .531 0l1.5 1.5a.367.367 0 0 1 0 .531l-3.144 3.149.484.484a.378.378 0 0 1-.215.64l-3.484.481c-.02.004-.035.004-.055.004m.754-3.058-.312 2.242 2.242-.313-.215-.21a.377.377 0 0 1 0-.536l3.148-3.148-.968-.969-3.149 3.148a.38.38 0 0 1-.531 0Zm0 0"/></g><g clip-path="url(#c)"><path fill="#fff" d="M24.223 6.914a.37.37 0 0 1-.266-.11l-1.504-1.503a.38.38 0 0 1 0-.531l3.149-3.149-.485-.484a.37.37 0 0 1-.09-.387.37.37 0 0 1 .305-.254l3.484-.48a.39.39 0 0 1 .32.105.39.39 0 0 1 .106.32l-.48 3.485a.38.38 0 0 1-.254.304.37.37 0 0 1-.387-.09l-.484-.484-3.149 3.145a.37.37 0 0 1-.265.113m-.97-1.879.97.969 3.148-3.149a.38.38 0 0 1 .531 0l.215.215.309-2.238-2.238.309.214.214a.38.38 0 0 1 0 .532Zm0 0"/></g><g clip-path="url(#d)"><path fill="#fff" d="M28.977 29.031q-.028.001-.055-.004l-3.485-.48a.378.378 0 0 1-.214-.64l.484-.485-3.145-3.145a.39.39 0 0 1-.113-.27c0-.097.043-.195.113-.265l1.5-1.5a.377.377 0 0 1 .536 0l3.144 3.149.485-.485a.38.38 0 0 1 .386-.093.38.38 0 0 1 .254.308l.48 3.484a.38.38 0 0 1-.105.317.38.38 0 0 1-.265.11m-2.684-1.129 2.242.313-.312-2.242-.215.215a.373.373 0 0 1-.531 0l-3.149-3.149-.969.969 3.149 3.148a.38.38 0 0 1 0 .532Zm0 0"/></g></svg>