<svg xmlns="http://www.w3.org/2000/svg" width="40" height="40" version="1.0" viewBox="0 0 30 30"><defs><clipPath id="a"><path d="M2.227 0h25.402v29H2.227Zm0 0"/></clipPath></defs><g clip-path="url(#a)"><path fill="#061c3d" d="M14.93 4.266c-4.653 0-8.438 3.785-8.438 8.437 0 3.305 1.403 5.059 2.883 6.918.66.828 1.344 1.684 1.906 2.707-.476.164-.82.617-.82 1.149 0 .363.164.691.418.914a1.438 1.438 0 0 0 .676 2.406 2.406 2.406 0 0 0 2.379 2.082h1.992c1.215 0 2.222-.91 2.379-2.082a1.433 1.433 0 0 0 .675-2.406c.254-.223.418-.551.418-.914 0-.532-.343-.985-.816-1.149.559-1.023 1.242-1.879 1.902-2.707 1.485-1.86 2.883-3.613 2.883-6.918 0-4.652-3.785-8.437-8.437-8.437m.996 23.894h-1.992c-.801 0-1.477-.566-1.641-1.324h5.273a1.68 1.68 0 0 1-1.64 1.324m2.039-2.043h-6.07a.715.715 0 0 1-.715-.715c0-.39.32-.71.715-.71h6.07c.394 0 .715.32.715.71 0 .395-.32.715-.715.715m.219-2.148v.02q-.103-.019-.22-.02h-6.07a1.3 1.3 0 0 0-.218.02v-.02a.496.496 0 0 1-.496-.492c0-.274.222-.497.496-.497h6.508c.273 0 .496.223.496.497 0 .27-.223.492-.496.492m1.742-4.797c-.742.93-1.508 1.887-2.121 3.09h-5.746c-.618-1.203-1.383-2.16-2.121-3.09-1.403-1.758-2.723-3.414-2.723-6.469 0-4.254 3.46-7.719 7.715-7.719 4.258 0 7.718 3.465 7.718 7.72 0 3.054-1.324 4.71-2.722 6.468M16.895 9.59h-3.93c-.633 0-1.149.512-1.149 1.144v3.93c0 .633.516 1.145 1.149 1.145h3.93c.632 0 1.144-.512 1.144-1.145v-3.93c0-.632-.512-1.144-1.144-1.144m.425 5.074c0 .238-.191.43-.425.43h-3.93a.43.43 0 0 1-.43-.43v-3.93c0-.234.192-.425.43-.425h3.93c.234 0 .425.191.425.425Zm2.207-4.988c0-.867-.707-1.574-1.574-1.574h-.656V6.395c0-.2-.16-.36-.36-.36a.36.36 0 0 0-.359.36v1.707H15.29V6.395a.36.36 0 0 0-.36-.36c-.199 0-.359.16-.359.36v1.707h-1.293V6.395a.358.358 0 1 0-.719 0v1.707h-.652c-.87 0-1.578.707-1.578 1.574v.652H8.621a.364.364 0 0 0-.36.363c0 .196.165.36.36.36h1.707v1.289H8.621a.36.36 0 0 0-.36.36c0 .198.165.359.36.359h1.707v1.293H8.621a.36.36 0 0 0-.36.359c0 .2.165.36.36.36h1.707v.652c0 .87.707 1.578 1.578 1.578h.653v1.707c0 .195.16.36.359.36.2 0 .36-.165.36-.36V17.3h1.292v1.707c0 .195.16.36.36.36s.36-.165.36-.36V17.3h1.292v1.707c0 .195.16.36.36.36s.359-.165.359-.36V17.3h.652c.867 0 1.574-.707 1.574-1.578v-.653h1.707c.2 0 .36-.16.36-.36 0-.198-.16-.358-.36-.358h-1.707v-1.293h1.707c.2 0 .36-.16.36-.36s-.16-.36-.36-.36h-1.707v-1.292h1.707c.2 0 .36-.16.36-.36a.36.36 0 0 0-.36-.359h-1.707Zm-.718 6.047a.855.855 0 0 1-.856.855h-6.047a.86.86 0 0 1-.86-.855V9.676c0-.473.388-.856.86-.856h6.047c.473 0 .856.383.856.856Zm-4.055-4.313a.36.36 0 0 0-.645 0l-1.144 2.293a.359.359 0 1 0 .64.32l.211-.418h1.23l.212.418a.35.35 0 0 0 .32.2q.084 0 .16-.036c.18-.09.25-.304.16-.484Zm-.578 1.477.258-.512.254.512Zm2.754-1.352v2.293c0 .2-.16.36-.36.36a.36.36 0 0 1-.36-.36v-2.293c0-.2.165-.36.36-.36.2 0 .36.16.36.36m-2.36-9.082V.36c0-.199.16-.359.36-.359s.36.16.36.36v2.093c0 .2-.161.36-.36.36-.2 0-.36-.16-.36-.36m9.34 1.27c.14.136.14.367 0 .507l-1.48 1.48a.36.36 0 0 1-.508 0 .36.36 0 0 1 0-.507l1.48-1.48c.141-.141.368-.141.508 0m3.719 8.98a.36.36 0 0 1-.36.36h-2.093a.36.36 0 0 1-.36-.36c0-.2.16-.36.36-.36h2.094c.199 0 .359.16.359.36m-20.2-6.992L5.95 4.23a.366.366 0 0 1 0-.508c.14-.141.371-.141.512 0l1.48 1.48a.358.358 0 0 1-.253.613.36.36 0 0 1-.258-.105m-2.382 6.992c0 .195-.164.36-.363.36H2.59a.364.364 0 0 1-.36-.36c0-.2.165-.36.36-.36h2.094c.199 0 .363.16.363.36m0 0"/></g></svg>