<svg xmlns="http://www.w3.org/2000/svg" width="40" height="40" version="1.0" viewBox="0 0 30 30"><defs><clipPath id="a"><path d="M1.645 0H28.5v29.031H1.645Zm0 0"/></clipPath></defs><g clip-path="url(#a)"><path fill="#061c3d" d="M4.828 9.602c.879 0 1.594-.715 1.594-1.594s-.715-1.594-1.594-1.594-1.594.715-1.594 1.594.715 1.594 1.594 1.594m0-2.25c.363 0 .66.293.66.656a.659.659 0 0 1-1.316 0c0-.363.297-.656.656-.656m0 7.941c.879 0 1.594-.715 1.594-1.594s-.715-1.594-1.594-1.594-1.594.715-1.594 1.594.715 1.594 1.594 1.594m0-2.254c.363 0 .66.297.66.66 0 .36-.297.656-.66.656a.66.66 0 0 1-.656-.656c0-.363.297-.66.656-.66m0 4.754c-.879 0-1.594.715-1.594 1.594s.715 1.593 1.594 1.593 1.594-.714 1.594-1.593c0-.88-.715-1.594-1.594-1.594m0 2.254a.66.66 0 0 1-.656-.66.66.66 0 0 1 .656-.657c.363 0 .66.297.66.657 0 .363-.297.66-.66.66m23.227-1.414-1.157-.45a8 8 0 0 0-.734-1.769l.504-1.137a.47.47 0 0 0-.098-.52l-1.597-1.597a.47.47 0 0 0-.524-.098l-1.137.504a7.4 7.4 0 0 0-1.769-.734l-.445-1.16a.47.47 0 0 0-.438-.297H20V3.246c0-.973-.996-1.805-2.879-2.406-1.687-.535-3.926-.832-6.297-.832-2.375 0-4.61.297-6.3.832-1.883.601-2.876 1.433-2.876 2.406v16.899c0 .972.993 1.804 2.875 2.406 1.692.535 3.926.832 6.301.832q.88-.001 1.739-.055c.101.223.21.442.335.656l-.503 1.137a.46.46 0 0 0 .093.52l1.602 1.597a.46.46 0 0 0 .52.098l1.136-.504a7.5 7.5 0 0 0 1.77.734l.445 1.16a.47.47 0 0 0 .437.297h2.262a.47.47 0 0 0 .438-.296l.445-1.16a7.5 7.5 0 0 0 1.773-.735l1.133.504c.18.078.387.043.524-.098l1.597-1.597a.47.47 0 0 0 .098-.52l-.504-1.137a8 8 0 0 0 .734-1.77l1.157-.448a.46.46 0 0 0 .3-.434v-2.266a.46.46 0 0 0-.3-.433M4.809 1.734c1.597-.511 3.734-.793 6.015-.793 2.278 0 4.414.282 6.016.793 1.637.52 2.223 1.121 2.223 1.512 0 .39-.586.992-2.223 1.516-1.602.508-3.738.789-6.016.789-2.281 0-4.418-.281-6.015-.79-1.641-.523-2.227-1.124-2.227-1.515s.586-.992 2.227-1.512M2.582 4.746q.716.515 1.941.906c1.692.54 3.926.832 6.301.832 2.371 0 4.61-.293 6.297-.832.817-.261 1.469-.562 1.942-.906V8.88c0 .39-.586.992-2.223 1.512-1.602.511-3.738.793-6.016.793-2.281 0-4.418-.282-6.015-.793-1.641-.52-2.227-1.121-2.227-1.512Zm0 5.633q.716.511 1.941.906c1.692.535 3.926.832 6.301.832 2.371 0 4.61-.297 6.297-.832.817-.262 1.469-.566 1.942-.906v.996h-.665a.47.47 0 0 0-.437.297l-.445 1.16a7.5 7.5 0 0 0-1.77.734l-1.137-.504a.47.47 0 0 0-.52.098l-1.6 1.598a.46.46 0 0 0-.094.52l.503 1.136q-.091.164-.18.332c-.616.043-1.253.07-1.894.07-2.281 0-4.418-.28-6.015-.793-1.641-.52-2.227-1.12-2.227-1.511Zm8.242 12.066c-2.281 0-4.418-.277-6.015-.789-1.641-.52-2.227-1.125-2.227-1.511v-4.133q.716.511 1.941.906c1.692.535 3.926.832 6.301.832q.75-.002 1.489-.04a7 7 0 0 0-.149.474l-1.16.449a.465.465 0 0 0-.3.433v2.266c0 .191.12.367.3.434l1.16.449q.024.095.055.195c-.457.024-.926.035-1.395.035m16.598-1.437-1.086.418a.47.47 0 0 0-.29.328 6.6 6.6 0 0 1-.808 1.953.46.46 0 0 0-.027.434l.473 1.066-1.149 1.145-1.062-.473a.47.47 0 0 0-.434.027 6.6 6.6 0 0 1-1.953.813.46.46 0 0 0-.328.285l-.418 1.086h-1.621l-.414-1.086a.47.47 0 0 0-.332-.285 6.6 6.6 0 0 1-1.95-.813.48.48 0 0 0-.437-.027l-1.063.473-1.144-1.145.473-1.062a.47.47 0 0 0-.032-.438 6.7 6.7 0 0 1-.808-1.953.46.46 0 0 0-.285-.328l-1.086-.418V19.39l1.086-.418a.46.46 0 0 0 .285-.328 6.7 6.7 0 0 1 .808-1.954.46.46 0 0 0 .032-.433l-.473-1.067 1.144-1.144 1.063.473c.14.062.305.05.437-.028a6.7 6.7 0 0 1 1.95-.812.47.47 0 0 0 .332-.285l.414-1.086h1.62l.419 1.086c.055.144.18.25.328.285a6.7 6.7 0 0 1 1.953.812c.129.078.293.09.434.028l1.062-.473 1.149 1.144-.473 1.067c-.063.14-.055.3.027.433.375.606.645 1.262.809 1.954.039.148.144.273.289.328l1.086.418ZM19.532 15a5.205 5.205 0 0 0-5.2 5.2c0 2.866 2.332 5.198 5.2 5.198 2.866 0 5.198-2.332 5.198-5.199S22.398 15 19.531 15m0 9.46a4.264 4.264 0 0 1-4.262-4.26 4.264 4.264 0 0 1 4.261-4.262 4.267 4.267 0 0 1 4.262 4.261 4.267 4.267 0 0 1-4.262 4.262m.991-2.358a.464.464 0 0 1-.449.59.47.47 0 0 1-.453-.348l-1.086-4.047a.47.47 0 0 1 .906-.242Zm.915-3.75 1.765 1.488c.11.09.168.223.168.36s-.058.269-.168.359l-1.765 1.488a.471.471 0 0 1-.66-.055.47.47 0 0 1 .054-.66l1.344-1.133-1.344-1.133a.47.47 0 0 1 .605-.714m-3.211.714L16.883 20.2l1.344 1.133c.199.164.222.461.058.66a.47.47 0 0 1-.66.055l-1.77-1.488a.48.48 0 0 1-.168-.36c0-.137.063-.27.168-.36l1.77-1.487a.47.47 0 0 1 .66.054.47.47 0 0 1-.058.66m0 0"/></g></svg>