<svg xmlns="http://www.w3.org/2000/svg" width="40" height="40" version="1.0" viewBox="0 0 30 30"><defs><clipPath id="a"><path d="M.703 0h28.305v29H.703Zm0 0"/></clipPath></defs><g clip-path="url(#a)"><path fill="#061c3d" d="M17.941 13.75a.363.363 0 0 0-.566 0l-2.492 3.2a.356.356 0 0 0 .281.578h1.149v3.046c0 .196.16.356.359.356h1.973c.199 0 .359-.16.359-.356v-3.047h1.148a.37.37 0 0 0 .32-.199.37.37 0 0 0-.038-.379Zm.704 3.063a.36.36 0 0 0-.356.359v3.043h-1.262v-3.043c0-.2-.16-.36-.355-.36h-.774l1.762-2.257 1.758 2.258ZM8.305 2.387V.359c0-.199.16-.359.36-.359.198 0 .358.16.358.36v2.027c0 .195-.16.355-.359.355-.2 0-.36-.16-.36-.355m-4.309-.684a.359.359 0 0 1 .621-.355L5.63 3.102a.36.36 0 0 1-.309.539.36.36 0 0 1-.308-.18ZM2.691 6.04.938 5.027a.363.363 0 0 1-.133-.492.36.36 0 0 1 .488-.129l1.758 1.012a.36.36 0 0 1 .133.488.36.36 0 0 1-.313.18.4.4 0 0 1-.18-.047M11.7 3.102l1.012-1.754a.36.36 0 0 1 .488-.133c.172.097.23.32.133.488L12.32 3.461a.36.36 0 1 1-.621-.36m2.446 2.808a.363.363 0 0 1 .132-.492l1.758-1.012a.36.36 0 0 1 .488.13c.098.171.04.39-.132.491L14.637 6.04a.34.34 0 0 1-.18.047.36.36 0 0 1-.312-.176m14.421 2.985-.847-.028a5.2 5.2 0 0 0-.39-.941l.581-.621a.447.447 0 0 0-.008-.625l-1.351-1.348a.443.443 0 0 0-.625-.012l-.621.582c-.301-.16-.617-.293-.942-.39l-.027-.848a.45.45 0 0 0-.45-.437h-1.91a.45.45 0 0 0-.449.437l-.027.848c-.324.097-.64.23-.941.39l-.622-.582a.443.443 0 0 0-.625.012L17.962 6.68a.45.45 0 0 0-.008.629l.582.617c-.16.3-.293.617-.39.945l-.848.024a.454.454 0 0 0-.442.453v.636a5 5 0 0 0-2.175 1.055 4.6 4.6 0 0 0-1.133-1.148c.11-.426.168-.91.156-1.461a5.045 5.045 0 0 0-5.039-5.032A5.044 5.044 0 0 0 3.63 8.43c-.047 2.047.89 3.136 1.715 4.101.539.63 1.004 1.172 1.113 1.895v.054A4.55 4.55 0 0 0 3.625 16c-.79.902-1.227 2.098-1.227 3.367a4.94 4.94 0 0 0 4.934 4.934h1.484v3.117c0 .734.594 1.328 1.325 1.328h9.265c.735 0 1.328-.594 1.328-1.328v-3.117h1.485a4.94 4.94 0 0 0 4.933-4.934c0-1.93-1.14-3.633-2.793-4.437l.004-.133c.328-.098.645-.227.942-.39l.62.585c.18.164.458.16.63-.012l1.347-1.347a.45.45 0 0 0 .012-.63l-.586-.62q.245-.447.39-.942l.852-.027a.447.447 0 0 0 .438-.45V9.349a.456.456 0 0 0-.442-.453M4.344 8.44v-.007a4.324 4.324 0 0 1 4.32-4.32 4.324 4.324 0 0 1 4.32 4.32v.007c.043 1.774-.761 2.711-1.543 3.621-.523.61-1.02 1.192-1.218 1.973h-.188v-.883a.364.364 0 0 0-.36-.359H9.45l.375-1.621c.16.098.348.152.54.152.284 0 .55-.113.75-.312.198-.2.308-.465.308-.746a1.05 1.05 0 0 0-1.059-1.059c-.281 0-.547.11-.746.309a1.03 1.03 0 0 0-.308.695l-.594 2.586h-.106l-.593-2.57a1.04 1.04 0 0 0-.305-.7 1.07 1.07 0 0 0-1.5 0c-.2.2-.309.465-.309.75a1.063 1.063 0 0 0 1.059 1.059c.187 0 .375-.05.543-.152l.371 1.613h-.227a.357.357 0 0 0-.355.355v.883h-.188c-.199-.777-.699-1.36-1.222-1.973-.778-.91-1.582-1.847-1.54-3.62m3.668 5.07h1.304v.524H8.012Zm2.144 1.239v.438H7.172v-.438Zm-2.984 1.152h2.984v.442H7.172Zm2.476 1.157-.156.156a.55.55 0 0 1-.406.176h-.844a.55.55 0 0 1-.406-.176l-.156-.156Zm.477-7.04a.34.34 0 0 1 .242-.097c.09 0 .176.035.242.098a.36.36 0 0 1 .102.246c0 .09-.04.175-.102.242a.35.35 0 0 1-.242.097.342.342 0 0 1-.242-.586m-2.82.258a.34.34 0 0 1-.102.243.34.34 0 0 1-.242.101.36.36 0 0 1-.242-.101.36.36 0 0 1-.102-.243c0-.093.04-.18.102-.246a.34.34 0 0 1 .242-.097c.09 0 .176.03.242.097a.34.34 0 0 1 .102.246m12.71 17.141a.61.61 0 0 1-.609.61h-9.265a.61.61 0 0 1-.614-.61v-6.102c0-.336.274-.609.614-.609h3.25c.152 0 .289.063.441.211l1.605 1.574c.07.063.16.102.25.102h4.329Zm6.419-8.055a4.22 4.22 0 0 1-4.22 4.219h-1.48v-1.348a.36.36 0 0 0-.359-.359h-4.54l-1.503-1.469c-.289-.281-.594-.418-.941-.418h-3.25a1.33 1.33 0 0 0-1.328 1.328v2.266H7.328a4.22 4.22 0 0 1-4.215-4.219c0-2.16 1.383-3.855 3.344-4.164v1.5c0 .098.04.188.106.254l.769.77c.254.254.563.382.91.382h.844c.348 0 .656-.128.91-.382l.77-.77a.36.36 0 0 0 .105-.254v-2.277c.11-.723.578-1.266 1.117-1.895.469-.55.977-1.14 1.317-1.925.398.316.734.71.98 1.164a.36.36 0 0 0 .262.183.37.37 0 0 0 .305-.101 4.28 4.28 0 0 1 3.046-1.258c2.332 0 4.266 1.894 4.317 4.223a.36.36 0 0 0 .328.347c2.184.172 3.89 2.016 3.89 4.203M21.477 8.7a2.04 2.04 0 0 1 1.453-.601 2.056 2.056 0 0 1 1.453 3.512 2.06 2.06 0 0 1-2.383.382 5 5 0 0 0-.953-1.012 2.06 2.06 0 0 1 .43-2.28m6.812 2.008-.789.023a.45.45 0 0 0-.422.34q-.153.594-.465 1.121a.45.45 0 0 0 .059.54l.539.574-.984.984-.575-.539a.44.44 0 0 0-.539-.059 4.3 4.3 0 0 1-1.12.465.44.44 0 0 0-.34.422l-.005.07a4.6 4.6 0 0 0-.734-.164 5 5 0 0 0-.402-1.59 2.767 2.767 0 0 0 2.379-.781 2.775 2.775 0 0 0 0-3.922 2.75 2.75 0 0 0-1.961-.808c-.739 0-1.438.285-1.961.808a2.8 2.8 0 0 0-.801 2.223 5 5 0 0 0-2.27-.539q-.163.001-.328.008v-.281l.79-.024a.44.44 0 0 0 .421-.34c.102-.394.258-.773.465-1.12a.44.44 0 0 0-.058-.54l-.54-.574.985-.984.574.539c.148.14.363.164.54.058a4.3 4.3 0 0 1 1.124-.465.45.45 0 0 0 .34-.422l.023-.789h1.391l.027.79c.004.203.141.37.34.421q.594.154 1.121.465c.176.106.39.078.54-.058l.574-.54.984.985-.54.574a.454.454 0 0 0-.058.54c.207.35.364.726.465 1.12.05.2.219.336.422.34l.79.024Zm0 0"/></g></svg>