<svg xmlns="http://www.w3.org/2000/svg" width="40" height="40" version="1.0" viewBox="0 0 30 30"><defs><clipPath id="a"><path d="M.484.527h29.032v28.305H.484Zm0 0"/></clipPath></defs><path fill="#061c3d" d="M13.031 3.898h12.407a.427.427 0 0 0 0-.851H13.03a.427.427 0 0 0 0 .851M2.797 3.938h.015a.427.427 0 0 0 0-.852h-.015a.427.427 0 0 0 0 .852M5.133 3.938h.015a.424.424 0 0 0 .426-.426.424.424 0 0 0-.426-.426h-.015a.423.423 0 0 0-.422.426c0 .234.187.426.422.426M7.457 3.938h.016a.427.427 0 0 0 0-.852h-.016a.427.427 0 0 0 0 .852M11.578 14.656c-.773.149-1.383-.05-1.719-.55a1.58 1.58 0 0 1-.004-1.696c.336-.512.95-.715 1.727-.574.23.043.453-.11.496-.34a.43.43 0 0 0-.344-.496c-1.117-.203-2.062.14-2.59.941-.507.782-.507 1.864.008 2.637.426.637 1.118.977 1.95.977.203 0 .418-.02.636-.063a.426.426 0 1 0-.16-.836M16.727 11.008a.42.42 0 0 0-.477.191l-1.164 1.914-1.164-1.914a.423.423 0 0 0-.79.219v3.656a.427.427 0 0 0 .852 0v-2.136l.739 1.214a.42.42 0 0 0 .363.207.42.42 0 0 0 .363-.207l.739-1.214v2.136a.424.424 0 1 0 .847 0v-3.656a.43.43 0 0 0-.308-.41M20.313 12.797c-.2-.055-.399-.055-.594-.055-.172-.004-.336-.004-.45-.043a.37.37 0 0 1-.25-.308.59.59 0 0 1 .223-.536c.238-.175.61-.164 1.043.04a.423.423 0 0 0 .563-.211.42.42 0 0 0-.207-.563c-.989-.453-1.618-.16-1.907.055-.41.308-.629.832-.554 1.336.066.457.363.828.797.984.253.094.511.094.738.094.144 0 .281.004.375.027a.37.37 0 0 1 .285.285c.043.184-.035.399-.2.543-.3.266-.835.282-1.468.047a.425.425 0 1 0-.293.8 3.2 3.2 0 0 0 1.106.22c.613 0 1.007-.242 1.218-.426.403-.356.578-.883.465-1.375a1.23 1.23 0 0 0-.89-.914m0 0"/><path fill="#061c3d" d="M21.45 8.77H8.55c-1.183 0-2.144.96-2.144 2.136v4.36c0 1.18.961 2.136 2.145 2.136h12.898a2.14 2.14 0 0 0 2.14-2.136v-4.36c0-1.176-.96-2.136-2.14-2.136m1.292 6.496c0 .71-.582 1.289-1.293 1.289H8.551a1.29 1.29 0 0 1-1.293-1.29v-4.359A1.29 1.29 0 0 1 8.55 9.621h12.898c.711 0 1.293.578 1.293 1.285Zm0 0"/><g clip-path="url(#a)"><path fill="#061c3d" d="M28.23.527H1.77C1.063.527.488 1.102.488 1.81V27.23c0 .704.575 1.278 1.282 1.278h26.46c.707 0 1.282-.574 1.282-1.278V1.81c0-.707-.575-1.282-1.282-1.282m.434 1.282v3.644H9.707l1.688-4.074H28.23c.239 0 .434.191.434.43M1.77 1.379h8.703L8.789 5.453H1.336V1.81c0-.239.195-.43.434-.43m5.996 26.277a1.805 1.805 0 0 1 3.605 0Zm4.457 0a2.655 2.655 0 0 0-5.309 0H4.41v-.37c0-.087.074-.161.164-.161h.543c.2 0 .371-.137.414-.328.102-.453.278-.879.524-1.27a.42.42 0 0 0-.063-.523l-.387-.387a.17.17 0 0 1-.046-.113.16.16 0 0 1 .046-.113l.61-.61a.17.17 0 0 1 .23 0l.383.383c.14.14.36.164.527.059.391-.25.82-.43 1.274-.535a.42.42 0 0 0 .332-.415v-.539c0-.09.074-.164.16-.164h.86c.09 0 .164.075.164.164v.532c0 .199.136.37.332.418.46.101.898.277 1.296.53a.43.43 0 0 0 .528-.058l.383-.383a.165.165 0 0 1 .23 0l.496.493a1.1 1.1 0 0 0-.687 1.02v.987c0 .606.492 1.102 1.101 1.102h.301q.042.142.09.277v.004Zm9.28 0h-3.847a2.68 2.68 0 0 1 1.922-4.562 2.69 2.69 0 0 1 2.695 2.683 2.68 2.68 0 0 1-.77 1.88m2.794-.804a4.7 4.7 0 0 1-.258.804h-1.457a3.56 3.56 0 0 0 .543-1.879c0-1.949-1.59-3.535-3.547-3.535a3.543 3.543 0 0 0-3.543 3.535c0 .672.192 1.32.543 1.88h-1.45c-.108-.259-.198-.528-.26-.805a.43.43 0 0 0-.415-.329h-.629a.255.255 0 0 1-.254-.25v-.988c0-.137.117-.25.254-.25h.625c.2 0 .371-.137.414-.328a4.8 4.8 0 0 1 .614-1.48.425.425 0 0 0-.059-.528l-.45-.445a.25.25 0 0 1-.07-.176c0-.07.024-.133.07-.18l.7-.695a.257.257 0 0 1 .36 0l.44.438c.141.14.36.164.528.058a4.8 4.8 0 0 1 1.488-.625.42.42 0 0 0 .328-.414v-.62c0-.142.118-.25.254-.25h.993c.136 0 .25.112.25.25v.612c0 .2.136.371.332.414.539.122 1.05.332 1.515.625a.426.426 0 0 0 .524-.058l.445-.445a.257.257 0 0 1 .36 0l.695.699a.256.256 0 0 1 .004.355l-.446.442a.425.425 0 0 0-.058.527c.289.457.5.96.62 1.492a.42.42 0 0 0 .415.332h.625c.133 0 .25.113.25.25v.988c0 .137-.117.25-.25.25h-.63a.43.43 0 0 0-.413.329m3.933.804h-3.28q.047-.14.09-.281h.3c.605 0 1.101-.496 1.101-1.102v-.988c0-.605-.496-1.101-1.101-1.101h-.297a6 6 0 0 0-.469-1.133l.211-.207a1.107 1.107 0 0 0-.004-1.559l-.699-.7a1.103 1.103 0 0 0-1.559 0l-.21.212a5.7 5.7 0 0 0-1.153-.477v-.28c0-.61-.496-1.102-1.101-1.102h-.993a1.1 1.1 0 0 0-1.101 1.101v.293a6 6 0 0 0-1.13.473l-.206-.207a1.107 1.107 0 0 0-1.559.004l-.699.695c-.21.207-.324.484-.324.781 0 .293.113.57.324.777l.211.215c-.14.262-.266.535-.363.817a1 1 0 0 0-.098-.11l-.605-.609a1.023 1.023 0 0 0-1.434 0l-.152.152a5 5 0 0 0-.934-.383v-.203c0-.558-.457-1.011-1.016-1.011h-.859c-.559 0-1.012.453-1.012 1.011v.215a5 5 0 0 0-.914.383l-.148-.152a1.023 1.023 0 0 0-1.434 0l-.605.605a1 1 0 0 0-.297.719c0 .27.105.523.297.715l.152.156c-.152.285-.277.59-.37.902h-.216c-.558 0-1.015.453-1.015 1.008v.371h-1.79a.43.43 0 0 1-.433-.426V6.3h27.328v20.93a.43.43 0 0 1-.434.426m0 0"/></g></svg>