<svg xmlns="http://www.w3.org/2000/svg" width="40" height="40" version="1.0" viewBox="0 0 30 30"><defs><clipPath id="a"><path d="M19 0h9.023v15H19Zm0 0"/></clipPath><clipPath id="b"><path d="M1.895 0H12v15H1.895Zm0 0"/></clipPath></defs><path fill="#061c3d" d="M3.367 3.121h3.66v.715h-3.66ZM3.367 4.555h3.66v.715h-3.66ZM4.566 5.992h2.461v.711h-2.46ZM3.367 5.992h.64v.711h-.64ZM3.367 1.793H5.36v.715H3.367ZM12.004 8.32h2.75v3.828h-.633a.29.29 0 0 0-.25.438l.988 1.715a.29.29 0 0 0 .504 0l.992-1.715a.292.292 0 0 0-.253-.438h-.633V8.32h2.441c.2 0 .356-.16.356-.355v-5.8599999999999985q-.005-.01-.004-.023-.004-.012-.008-.023v-.004q-.004-.013-.008-.02v-.004q-.004-.012-.008-.02.001-.003-.004-.007a.03.03 0 0 0-.007-.016v-.004l-.012-.02q-.002-.003-.004-.007l-.012-.016v-.004c-.008-.003-.012-.011-.015-.015q-.002-.005-.004-.004c-.004-.008-.012-.012-.016-.02L16.371.105q-.01-.004-.02-.015l-.003-.004c-.004-.004-.012-.008-.016-.016h-.004L16.313.06c-.004 0-.004-.004-.008-.004l-.02-.012-.02-.008q-.003-.005-.007-.004c-.004-.004-.012-.004-.02-.008q-.012-.003-.023-.007h-.004c-.008-.004-.016-.004-.023-.008q-.012.001-.024-.004h-4.16a.354.354 0 0 0-.356.355v7.606c0 .195.16.355.356.355m5.039-6.53-.566-.005v-.562ZM12.363.714h3.399V2.14c0 .199.16.355.355.359l1.438.008v5.101h-5.192Zm0 0"/><path fill="#061c3d" d="M14.324 3.121h2.461v.715h-2.46ZM13.121 3.121h.649v.715h-.649ZM13.121 4.555h3.664v.715h-3.664ZM13.121 5.992h3.664v.711h-3.664ZM13.121 1.793h1.992v.715h-1.992Zm0 0"/><g clip-path="url(#a)"><path fill="#061c3d" d="m28.023 2.133-.003-.024v-.004q-.002-.01-.004-.023t-.004-.023l-.004-.004q-.002-.013-.004-.02.001-.002-.004-.004c0-.008-.004-.011-.008-.02v-.007l-.012-.016v-.004q-.005-.011-.011-.02.001-.003-.004-.007l-.012-.016v-.004l-.015-.015q.001-.005-.004-.004c-.004-.008-.012-.012-.016-.02L26.125.105c-.004-.003-.012-.007-.016-.015q-.005.001-.004-.004a.1.1 0 0 1-.02-.016h-.003L26.066.06q-.002.001-.003-.004-.013-.006-.02-.012h-.004q-.01-.007-.02-.008-.002-.005-.003-.004C26.008.027 26 .027 25.992.023q-.012-.003-.02-.007h-.007c-.008-.004-.016-.004-.024-.008q-.009.001-.02-.004h-4.159c-.2 0-.36.156-.36.355v7.606c0 .195.16.355.36.355h2.91v.676a.854.854 0 0 1-.852.856h-2.242c-.863 0-1.562.699-1.562 1.562v.734h-.633a.291.291 0 0 0-.254.438l.992 1.715c.11.195.39.195.5 0l.992-1.715a.292.292 0 0 0-.254-.438h-.632v-.734c0-.469.382-.851.851-.851h2.242c.864 0 1.563-.704 1.563-1.567V8.32h2.281c.2 0 .36-.16.36-.355V2.132m-1.222-.344-.57-.004v-.562Zm-4.684 5.82V.715h3.399V2.14c0 .199.16.355.355.359l1.438.008v5.101Zm0 0"/></g><path fill="#061c3d" d="M22.879 3.121h3.66v.715h-3.66ZM25.875 4.555h.664v.715h-.664ZM22.879 4.555h2.523v.715H22.88ZM22.879 5.992h3.66v.711h-3.66ZM22.879 1.793h1.988v.715H22.88Zm0 0"/><g clip-path="url(#b)"><path fill="#061c3d" d="M9.496 11.418v.73h-.633a.29.29 0 0 0-.25.438l.989 1.715a.29.29 0 0 0 .503 0l.993-1.715a.294.294 0 0 0-.254-.438h-.633v-.73c0-.867-.703-1.566-1.566-1.566H6.406A.854.854 0 0 1 5.555 9v-.68h2.601c.196 0 .356-.16.356-.355V2.132q.001-.01-.004-.023v-.004q.001-.01-.004-.023.001-.012-.004-.023v-.004q-.004-.013-.008-.02v-.004l-.008-.02q-.005-.003-.004-.007c-.003-.004-.003-.012-.007-.016q.001-.005-.004-.004a.03.03 0 0 0-.008-.02q-.005-.003-.004-.007l-.012-.016q-.005.001-.004-.004c-.004-.003-.007-.011-.011-.015l-.004-.004-.02-.02L6.617.105C6.61.102 6.605.098 6.597.09Q6.596.09 6.595.086l-.02-.012V.07C6.566.066 6.563.062 6.554.06Q6.554.06 6.552.055L6.53.043h-.004a.03.03 0 0 0-.015-.008Q6.508.033 6.504.031l-.02-.008H6.48Q6.475.02 6.46.016h-.003C6.449.012 6.441.012 6.434.008Q6.422.009 6.41.004H2.25a.357.357 0 0 0-.355.355v7.606c0 .195.16.355.355.355h2.59V9c0 .863.703 1.563 1.566 1.563h2.239c.468 0 .851.382.851.855M7.29 1.789l-.57-.004v-.562ZM2.605.715h3.403V2.14c0 .199.156.355.351.359l1.438.008v5.101H2.605Zm0 0"/></g><path fill="#061c3d" d="M21.129 16.363c-.371-.265-.883-.5-1.527-.695-1.25-.379-2.899-.59-4.645-.59s-3.395.211-4.645.59c-.64.195-1.156.43-1.523.695-.562.407-.684.813-.684 1.082q-.001.022.004.043-.005.012-.004.024v5.953q-.001.02.004.039-.005.017-.004.027v3.043c0 .27.122.676.684 1.082.367.266.883.5 1.524.696 1.25.378 2.898.59 4.644.59s3.395-.212 4.645-.59c.644-.196 1.156-.43 1.527-.696.562-.406.68-.812.68-1.082v-9.129c0-.27-.118-.675-.68-1.082m-.461 10.211c0 .29-.578.653-1.473.926-1.12.34-2.629.531-4.238.531s-3.113-.187-4.234-.531c-.895-.273-1.473-.637-1.473-.926v-1.75q.451.235 1.063.418c1.25.383 2.898.59 4.644.59s3.395-.207 4.645-.59c.41-.12.765-.262 1.066-.418Zm0-3.11c0 .29-.578.657-1.473.927-1.12.343-2.629.53-4.238.53s-3.113-.187-4.234-.53c-.895-.27-1.473-.637-1.473-.926v-1.55q.451.231 1.063.417c1.25.383 2.898.59 4.644.59s3.395-.207 4.645-.59q.615-.186 1.066-.418Zm0-3.042v.133c0 .289-.578.652-1.473.925-1.12.344-2.629.532-4.238.532s-3.113-.188-4.234-.532c-.895-.273-1.473-.636-1.473-.925v-1.746q.451.23 1.063.418c1.25.378 2.898.59 4.644.59s3.395-.212 4.645-.59q.615-.189 1.066-.418Zm-1.473-2.047c-1.12.34-2.629.527-4.238.527s-3.113-.187-4.234-.527c-.895-.273-1.473-.637-1.473-.93 0-.289.578-.652 1.473-.925 1.12-.34 2.625-.532 4.234-.532 1.61 0 3.117.192 4.238.532.895.273 1.473.636 1.473.925 0 .293-.578.657-1.473.93m0 0"/></svg>