<svg xmlns="http://www.w3.org/2000/svg" width="40" height="40" version="1.0" viewBox="0 0 30 30"><defs><clipPath id="a"><path d="M2.371 16H24v12H2.371Zm0 0"/></clipPath><clipPath id="b"><path d="M2.371 26H24v3.031H2.371Zm0 0"/></clipPath><clipPath id="c"><path d="M19 2h8.773v9H19Zm0 0"/></clipPath></defs><path fill="#061c3d" d="M12.813 16.309a.37.37 0 0 1-.293-.141l-2.028-2.504a.37.37 0 0 1-.082-.234v-1.864a.373.373 0 0 1 .586-.305 3.18 3.18 0 0 0 3.629 0 .373.373 0 0 1 .59.305v1.864a.37.37 0 0 1-.086.234l-2.027 2.504a.38.38 0 0 1-.29.14m-1.657-3.012 1.656 2.043 1.653-2.043V12.21a3.9 3.9 0 0 1-1.652.367c-.579 0-1.141-.125-1.657-.367Zm0 0"/><path fill="#061c3d" d="M12.813 12.578A3.944 3.944 0 0 1 8.87 8.641v-.25a.375.375 0 0 1 .75 0v.25a3.195 3.195 0 0 0 3.191 3.191 3.2 3.2 0 0 0 3.192-3.191v-.606c0-.207.164-.375.371-.375s.375.168.375.375v.606a3.94 3.94 0 0 1-3.937 3.937m0 0"/><path fill="#061c3d" d="M9.246 8.762a.38.38 0 0 1-.3-.149c-.204-.183-.774-.722-.844-2.773l-.047-.059c-.172-.242-.352-.758.09-2.441q0-.016.007-.031c.016-.043.36-.973 1.586-1.317.39-.797 1.426-1.984 3.086-1.715a.38.38 0 0 1 .297.25l.016.051c.691-.144 2-.293 2.715.45a.37.37 0 0 1 .101.238.64.64 0 0 1-.148.425c.195.118.406.27.613.465.652.614 1.414 1.781 1.328 3.864q-.001.052-.02.105c-.015.043-.39 1.129-1.038 2.113a.37.37 0 0 1-.434.149.37.37 0 0 1-.25-.387c.098-1.02.058-2.832-.457-3.375a.4.4 0 0 0-.258-.133c-1.453.727-3.5.727-4.953 0a.4.4 0 0 0-.23.125c-.543.567-.586 2.59-.489 3.735q.005.005.004.02a.376.376 0 0 1-.348.39zm5.996-5.02c.324 0 .617.125.848.367.484.508.648 1.5.691 2.368.114-.258.188-.457.219-.547.11-3.325-2.148-3.871-2.242-3.895a.376.376 0 0 1-.293-.406.376.376 0 0 1 .37-.332h.04c-.648-.195-1.602 0-1.96.11a.372.372 0 0 1-.477-.418c-.579-.024-1.09.187-1.524.632-.379.39-.559.824-.559.832a.39.39 0 0 1-.27.227c-.898.191-1.183.777-1.226.87-.324 1.255-.246 1.665-.21 1.77.113.063.19.18.19.317.005.191.016.394.032.597.074-.832.266-1.687.695-2.136.239-.246.54-.371.871-.356.06.004.11.02.16.043 1.262.672 3.165.672 4.426 0a.4.4 0 0 1 .157-.043zM20.297 17.613H5.324a.379.379 0 0 1-.371-.434 4.96 4.96 0 0 1 1.66-2.945 4.94 4.94 0 0 1 3.207-1.191h.961c.14 0 .266.078.328.195l1.704 2.102 1.699-2.102a.37.37 0 0 1 .328-.195h.965c1.172 0 2.308.426 3.203 1.191a4.96 4.96 0 0 1 1.66 2.946.38.38 0 0 1-.371.433m-14.508-.746h14.043c-.492-1.781-2.152-3.074-4.027-3.074h-.782l-1.921 2.375a.372.372 0 0 1-.582 0l-1.926-2.375h-.778c-1.875 0-3.53 1.293-4.027 3.074m0 0"/><g clip-path="url(#a)"><path fill="#061c3d" d="M21.363 27.082H4.262a.37.37 0 0 1-.371-.324l-1.348-9.465a.37.37 0 0 1 .086-.297.38.38 0 0 1 .285-.129h19.797c.11 0 .21.047.281.13a.37.37 0 0 1 .086.296l-1.348 9.465a.37.37 0 0 1-.367.324m-16.777-.75h16.453l1.238-8.719H3.344Zm0 0"/></g><g clip-path="url(#b)"><path fill="#061c3d" d="M20.93 29.027H4.69a2.323 2.323 0 0 1-2.32-2.32c0-.207.168-.375.375-.375H22.88c.203 0 .371.168.371.375 0 1.277-1.04 2.32-2.32 2.32M3.164 27.082c.168.684.79 1.195 1.527 1.195H20.93c.738 0 1.36-.511 1.527-1.195Zm0 0"/></g><path fill="#061c3d" d="M12.813 24.664a2.694 2.694 0 0 1-2.692-2.691 2.694 2.694 0 0 1 2.691-2.692 2.69 2.69 0 0 1 0 5.383m0-4.633a1.945 1.945 0 0 0-1.946 1.942c0 1.074.871 1.945 1.945 1.945a1.944 1.944 0 0 0 0-3.887m0 0"/><g clip-path="url(#c)"><path fill="#061c3d" d="M23.707 10.984h-.766a.68.68 0 0 1-.671-.644l-.036-.496a5 5 0 0 1-.375-.156l-.375.324a.68.68 0 0 1-.933-.02l-.54-.539a.673.673 0 0 1-.019-.93l.328-.375a3 3 0 0 1-.156-.378l-.496-.036a.68.68 0 0 1-.645-.671v-.766a.68.68 0 0 1 .645-.672l.496-.031q.064-.196.156-.38l-.328-.374a.68.68 0 0 1 .02-.934l.539-.539a.68.68 0 0 1 .933-.02l.375.329a3 3 0 0 1 .375-.156l.036-.497a.68.68 0 0 1 .671-.644h.766a.68.68 0 0 1 .672.644l.035.497c.129.042.254.097.375.156l.375-.328a.68.68 0 0 1 .934.02l.539.538a.68.68 0 0 1 .02.934l-.329.375q.093.18.156.375l.496.035a.68.68 0 0 1 .645.672v.766a.68.68 0 0 1-.645.671l-.496.036a2.6 2.6 0 0 1-.156.375l.328.375a.68.68 0 0 1-.02.933l-.538.54a.68.68 0 0 1-.934.019l-.375-.328a2.6 2.6 0 0 1-.375.156l-.035.496a.68.68 0 0 1-.672.648m-.691-.75h.62l.048-.703a.375.375 0 0 1 .28-.336c.243-.062.474-.156.684-.28a.38.38 0 0 1 .438.038l.535.461.438-.441-.461-.532a.38.38 0 0 1-.04-.437 2.6 2.6 0 0 0 .282-.684.375.375 0 0 1 .336-.28l.707-.048v-.625l-.707-.047a.375.375 0 0 1-.336-.28 2.6 2.6 0 0 0-.281-.685.38.38 0 0 1 .039-.437l.46-.531-.437-.442-.535.461a.364.364 0 0 1-.438.04 2.6 2.6 0 0 0-.683-.282.375.375 0 0 1-.281-.336l-.047-.703h-.621l-.051.703a.375.375 0 0 1-.281.336 2.7 2.7 0 0 0-.684.281.365.365 0 0 1-.437-.039l-.532-.46-.441.44.465.532a.38.38 0 0 1 .039.437c-.13.211-.223.442-.285.684a.375.375 0 0 1-.336.281l-.703.047v.625l.703.047c.16.012.297.125.336.281q.092.363.285.684a.38.38 0 0 1-.04.437l-.464.532.441.441.532-.465A.38.38 0 0 1 22 8.91q.321.194.684.285c.156.04.27.176.28.336Zm0 0"/></g><path fill="#061c3d" d="M23.324 8.648A1.97 1.97 0 0 1 21.36 6.68c0-1.082.883-1.965 1.965-1.965a1.966 1.966 0 0 1 0 3.933m0-3.187a1.22 1.22 0 0 0-1.219 1.219 1.22 1.22 0 0 0 1.22 1.218 1.22 1.22 0 0 0 1.218-1.218 1.22 1.22 0 0 0-1.219-1.22m0 0"/></svg>