<svg xmlns="http://www.w3.org/2000/svg" width="40" height="40" version="1.0" viewBox="0 0 30 30"><defs><clipPath id="a"><path d="M2.805 9H22v16H2.805Zm0 0"/></clipPath><clipPath id="b"><path d="M16 25h5v4.031h-5Zm0 0"/></clipPath><clipPath id="c"><path d="M10 0h17.484v15H10Zm0 0"/></clipPath></defs><g clip-path="url(#a)"><path fill="#061c3d" d="M21.91 24.46 8.8 24.41 4.989 10.55h-2.18V9.399h3.06L9.68 23.262l12.234.047Zm0 0"/></g><path fill="#061c3d" d="m22.207 21.7-13.879-.098.008-1.153 12.992.094 1.926-6.996-14.352-.09.008-1.152 15.852.097ZM11.238 28.89a1.96 1.96 0 0 1-1.383-.574 2 2 0 0 1-.425-.632 2 2 0 0 1-.149-.75q.001-.387.149-.75a1.99 1.99 0 0 1 1.058-1.059c.242-.102.492-.148.75-.148.262 0 .512.046.75.148q.362.146.637.422.276.277.422.637a1.9 1.9 0 0 1 0 1.5q-.146.357-.422.632a1.96 1.96 0 0 1-1.387.574m0-2.761a.77.77 0 0 0-.566.234.77.77 0 0 0-.238.57q-.001.336.238.57a.77.77 0 0 0 .566.235.78.78 0 0 0 .57-.234.78.78 0 0 0 .239-.57.78.78 0 0 0-.238-.57.78.78 0 0 0-.57-.235m0 0"/><g clip-path="url(#b)"><path fill="#061c3d" d="M18.242 29.035a2 2 0 0 1-.75-.148 1.99 1.99 0 0 1-1.058-1.063 1.96 1.96 0 0 1 .425-2.133q.276-.274.633-.425a1.975 1.975 0 0 1 1.5 0q.359.151.637.425.275.275.422.637.15.358.148.746a1.96 1.96 0 0 1-.574 1.387 1.9 1.9 0 0 1-.633.422 1.9 1.9 0 0 1-.75.152m0-2.765a.77.77 0 0 0-.57.238.78.78 0 0 0-.235.57q0 .333.235.567.239.239.57.238a.77.77 0 0 0 .57-.238.78.78 0 0 0 .235-.57.78.78 0 0 0-.235-.567.78.78 0 0 0-.57-.238m0 0"/></g><g clip-path="url(#c)"><path fill="#061c3d" d="m24.004 14.934-.73-.891c1.257-1.04 2.765-2.793 2.765-5.227 0-3.847-3.133-6.98-6.98-6.98a6.99 6.99 0 0 0-6.98 6.98c0 1.286.327 2.48.991 3.586l-.988.594a7.917 7.917 0 0 1-.77-1.703 8 8 0 0 1-.234-.906 9 9 0 0 1-.129-.926 8.3 8.3 0 0 1 .067-1.863 8.4 8.4 0 0 1 .492-1.805q.174-.434.394-.844.223-.416.493-.797a8 8 0 0 1 .582-.734A8 8 0 0 1 15.16 1.68a8 8 0 0 1 .844-.403 8.093 8.093 0 0 1 2.73-.586q.47-.018.934.016a8.3 8.3 0 0 1 1.836.352c.297.093.586.207.871.332a8.4 8.4 0 0 1 1.605.953 8.2 8.2 0 0 1 1.903 2.05q.251.392.46.813.207.417.368.86c.105.292.191.593.266.894q.106.458.16.922c.035.312.05.62.05.933 0 1.207-.312 2.38-.93 3.48-.538.962-1.296 1.849-2.253 2.638m0 0"/></g><path fill="#061c3d" d="M18.172 1.441h1.152v11.516h-1.152Zm0 0"/><path fill="#061c3d" d="M11.504 8.285h15.02v1.152h-15.02Zm0 0"/><path fill="#061c3d" d="M15.648 13.18c-.84-1.48-1.328-2.907-1.449-4.235-.156-1.71.266-3.394 1.254-5.007.793-1.297 1.75-2.223 2.266-2.72.105-.097.195-.183.25-.241l.832.793c-.07.078-.164.164-.281.28-.954.919-3.489 3.364-3.172 6.79.105 1.164.547 2.433 1.304 3.773Zm0 0"/><path fill="#061c3d" d="m21.945 13.102-1.004-.563c.72-1.297 1.141-2.531 1.243-3.664.316-3.43-2.22-5.871-3.172-6.793q-.175-.168-.282-.277l.836-.797c.051.058.141.144.247.246.515.496 1.476 1.422 2.265 2.715.988 1.613 1.41 3.3 1.254 5.011-.117 1.293-.586 2.68-1.387 4.122m0 0"/><path fill="#061c3d" d="M18.832 5.86c-2.082 0-4.043-.887-5.246-2.372l.894-.722c.989 1.218 2.614 1.941 4.352 1.941 1.844 0 3.578-.836 4.527-2.18l.942.664a6.1 6.1 0 0 1-2.305 1.942q-1.494.732-3.164.726m0 0"/></svg>