<svg xmlns="http://www.w3.org/2000/svg" width="40" height="40" version="1.0" viewBox="0 0 30 30"><defs><clipPath id="a"><path d="M.484 1.652h29.032v25.403H.484Zm0 0"/></clipPath></defs><g clip-path="url(#a)"><path fill="#061c3d" d="M5.629 3.664a.393.393 0 0 1-.39.395h-.016a.393.393 0 1 1 0-.786h.015c.215 0 .39.176.39.391m16.2-.39H11.093a.392.392 0 0 0 0 .785h10.734a.393.393 0 1 0 0-.786m-15.368 0h-.016a.393.393 0 1 0 0 .785h.016a.393.393 0 0 0 0-.786m1.223 0h-.02a.392.392 0 0 0 0 .785h.02a.393.393 0 0 0 0-.786m21.472 15.863a6.08 6.08 0 0 1-6.074 6.074 6.04 6.04 0 0 1-4.285-1.777H17.02v2.832h2.113a.393.393 0 1 1 0 .785H7.918a.392.392 0 0 1 0-.785h2.113v-2.832H.875a.393.393 0 0 1-.39-.395V6.56c0-.22.175-.395.39-.395h1.676V2.043c0-.219.176-.395.39-.395H24.11c.22 0 .395.176.395.395v4.121h1.672c.219 0 .394.176.394.395v7.605a6.08 6.08 0 0 1 2.586 4.973M24.504 6.949v6.281q.673.165 1.281.47V6.95Zm-1.422 6.114q.324 0 .637.035V5.68H3.332v12.523h13.75c.453-2.906 2.973-5.14 6-5.14M3.332 4.898h20.387V2.434H3.332ZM1.27 6.95v13.656H17.19a6 6 0 0 1-.18-1.468v-.149H2.942a.39.39 0 0 1-.39-.39V6.949Zm0 15.7h16.863a6 6 0 0 1-.688-1.262H1.27Zm14.968.785h-5.425v2.832h5.425Zm12.137-4.297a5.296 5.296 0 0 0-5.293-5.29 5.29 5.29 0 0 0-5.285 5.29 5.29 5.29 0 0 0 5.285 5.289 5.296 5.296 0 0 0 5.293-5.29m-7.043-1.899a.394.394 0 0 0-.555 0l-1.625 1.621a.4.4 0 0 0-.113.278c0 .105.043.203.113.277l1.625 1.621a.38.38 0 0 0 .278.113.39.39 0 0 0 .277-.668l-1.348-1.343 1.348-1.344a.394.394 0 0 0 0-.555m5.684 1.621-1.621-1.62a.394.394 0 0 0-.555 0 .387.387 0 0 0 0 .554l1.344 1.344-1.344 1.343a.387.387 0 0 0 0 .555.38.38 0 0 0 .277.113.4.4 0 0 0 .278-.113l1.62-1.62a.393.393 0 0 0 0-.555m-2.985-1.847c-.199-.09-.43 0-.52.199l-1.57 3.535a.39.39 0 0 0 .356.55.39.39 0 0 0 .36-.233l1.573-3.536a.394.394 0 0 0-.199-.515m-5.61-6.832-1.39.707 1.39.707a.39.39 0 0 1 0 .699l-1.39.707 1.39.707a.393.393 0 0 1 0 .7l-4.718 2.398a.4.4 0 0 1-.18.043.4.4 0 0 1-.175-.043l-4.72-2.399a.392.392 0 0 1 0-.699L10.02 13l-1.391-.707a.392.392 0 0 1 0-.7l1.39-.706-1.39-.707a.392.392 0 0 1 0-.7l4.719-2.402a.4.4 0 0 1 .355 0l4.719 2.402a.392.392 0 0 1 0 .7m-2.253 3.258-2.465 1.253a.36.36 0 0 1-.18.043.36.36 0 0 1-.175-.043l-2.461-1.25-1.215.614 3.851 1.96 3.856-1.96Zm0-2.114-2.465 1.254a.36.36 0 0 1-.18.043.36.36 0 0 1-.175-.043l-2.465-1.254-1.211.617 3.851 1.961 3.856-1.96Zm1.21-1.496-3.855-1.957-3.851 1.957 1.363.695a.2.2 0 0 1 .05.028l2.438 1.238 2.45-1.242a.2.2 0 0 1 .035-.02Zm0 0"/></g></svg>