<svg xmlns="http://www.w3.org/2000/svg" width="40" height="40" version="1.0" viewBox="0 0 30 30"><defs><clipPath id="a"><path d="M.484 1.543H29v26.129H.484Zm0 0"/></clipPath></defs><path fill="#061c3d" d="M13.496 15.727a.327.327 0 0 0-.46-.036l-2.122 1.829a.33.33 0 0 0-.113.246c0 .097.043.187.113.25l2.121 1.828a.324.324 0 0 0 .461-.035.324.324 0 0 0-.031-.461l-1.832-1.582 1.832-1.575a.33.33 0 0 0 .031-.464M17.836 15.691a.33.33 0 0 0-.465.036.33.33 0 0 0 .035.464l1.832 1.579-1.832 1.578a.33.33 0 0 0-.035.465.33.33 0 0 0 .465.03l2.117-1.827a.323.323 0 0 0 0-.496ZM16.648 14.645a.334.334 0 0 0-.425.187l-2.188 5.633a.329.329 0 1 0 .613.238l2.188-5.633a.33.33 0 0 0-.188-.425m0 0"/><path fill="#061c3d" d="M24.102 9.61H6.766a.943.943 0 0 0-.942.945V21.68c0 .52.422.941.942.941h17.34c.519 0 .94-.422.94-.941V10.555a.944.944 0 0 0-.944-.946m-17.622.945c0-.16.13-.29.286-.29h17.336c.16 0 .289.13.289.29v1.851H6.48Zm17.622 11.41H6.766a.287.287 0 0 1-.286-.285v-8.617h17.91v8.617a.29.29 0 0 1-.288.285m0 0"/><g clip-path="url(#a)"><path fill="#061c3d" d="M28.18 24.137h-.68V9.078a1.64 1.64 0 0 0-1.64-1.64H7.632l-.121-.176c.097-.192.18-.383.238-.578l.543-.094a.33.33 0 0 0 .273-.324V5.109a.334.334 0 0 0-.27-.324l-.546-.098a3 3 0 0 0-.238-.574l.316-.457a.33.33 0 0 0-.039-.418l-.82-.816a.33.33 0 0 0-.418-.035l-.45.312a3.5 3.5 0 0 0-.578-.238l-.097-.543a.33.33 0 0 0-.324-.27H3.945a.326.326 0 0 0-.32.27l-.098.543a3.3 3.3 0 0 0-.578.238l-.457-.316a.33.33 0 0 0-.418.039l-.812.816a.33.33 0 0 0-.04.418l.317.457a3.2 3.2 0 0 0-.242.574l-.543.098a.334.334 0 0 0-.27.324v1.157c0 .16.114.297.274.324l.543.094q.087.291.238.578l-.316.453a.33.33 0 0 0 .035.418l.816.82c.11.113.29.129.422.035l.453-.316c.14.074.29.137.438.191q-.014.104-.016.215v15.059h-.726a.33.33 0 0 0-.329.328 2.92 2.92 0 0 0 2.918 2.922h20.36a2.92 2.92 0 0 0 2.914-2.922.33.33 0 0 0-.328-.328M2.742 8.016l-.398.277-.426-.43.277-.394a.33.33 0 0 0 .012-.36 2.7 2.7 0 0 1-.324-.785.33.33 0 0 0-.262-.254l-.48-.082v-.601l.476-.086a.33.33 0 0 0 .262-.25q.1-.41.328-.785a.33.33 0 0 0-.012-.36l-.277-.398.426-.426.402.273a.33.33 0 0 0 .36.012q.359-.228.78-.32a.33.33 0 0 0 .25-.262l.087-.48h.605l.086.48a.33.33 0 0 0 .25.262q.411.093.781.32a.33.33 0 0 0 .36-.012l.394-.273.43.426-.277.398a.33.33 0 0 0-.008.36q.228.373.328.789a.33.33 0 0 0 .258.246l.48.086v.601l-.48.082a.34.34 0 0 0-.266.254c-.059.27-.164.528-.324.785a.33.33 0 0 0 .012.36l.277.394-.43.43-.394-.277a.33.33 0 0 0-.36-.012c-.25.152-.508.258-.785.324a.32.32 0 0 0-.246.262l-.086.48h-.605l-.086-.48a.33.33 0 0 0-.246-.262 2.6 2.6 0 0 1-.786-.32.33.33 0 0 0-.363.008M4.027 9.73h1.075a.33.33 0 0 0 .324-.273l.097-.547c.2-.058.391-.14.575-.238l.453.316a.32.32 0 0 0 .418-.035l.82-.82q.017-.02.027-.04H25.86c.543 0 .985.442.985.985v15.059H4.027Zm21.567 17H5.234a2.27 2.27 0 0 1-2.238-1.937c.047 0 26.524.004 24.832 0a2.266 2.266 0 0 1-2.234 1.937m0 0"/></g><path fill="#061c3d" d="M15.52 24.902a.86.86 0 1 0 0 1.723.86.86 0 1 0 0-1.723m0 1.063a.2.2 0 0 1-.204-.203c0-.114.09-.203.204-.203s.203.09.203.203-.09.203-.203.203M8.012 10.418a.917.917 0 1 0-.002 1.838.917.917 0 0 0 .002-1.838m0 1.18a.262.262 0 1 1 0-.524.262.262 0 0 1 0 .524m0 0"/><path fill="#061c3d" d="M9.926 10.418a.917.917 0 1 0-.002 1.834.917.917 0 0 0 .002-1.834m0 1.18a.262.262 0 1 1 0-.524.262.262 0 0 1 0 .524M11.84 10.418a.92.92 0 0 0-.922.918.92.92 0 0 0 1.84 0 .92.92 0 0 0-.918-.918m0 1.18a.262.262 0 1 1 0-.524.262.262 0 0 1 0 .524M23.129 11.008h-7.695a.328.328 0 1 0 0 .656h7.695a.328.328 0 1 0 0-.656M6.55 5.684a2.028 2.028 0 0 0-4.054 0c0 1.12.91 2.03 2.027 2.03 1.122 0 2.028-.91 2.028-2.03m-3.398 0a1.37 1.37 0 1 1 2.742 0c0 .757-.613 1.375-1.37 1.375a1.376 1.376 0 0 1-1.372-1.375m0 0"/></svg>