<svg xmlns="http://www.w3.org/2000/svg" width="40" height="40" version="1.0" viewBox="0 0 30 30"><defs><clipPath id="a"><path d="M.484 0h29.032v29.031H.484Zm0 0"/></clipPath></defs><g clip-path="url(#a)"><path fill="#061c3d" d="M4.863 6.98a.455.455 0 0 1-.418-.488l.051-.625a13.54 13.54 0 0 0-3.101 8.649c0 2.78.835 5.468 2.425 7.754a.457.457 0 0 1-.75.52 14.46 14.46 0 0 1-2.586-8.274c0-3.453 1.22-6.766 3.454-9.395l-.801.063a.455.455 0 0 1-.07-.907l1.956-.156a.458.458 0 0 1 .489.496l-.157 1.946a.45.45 0 0 1-.492.417m17.89 18.72A13.55 13.55 0 0 1 15 28.12a13.54 13.54 0 0 1-8.648-3.101l.625.05c.25.02.468-.168.488-.418a.46.46 0 0 0-.418-.492l-1.945-.156a.456.456 0 0 0-.497.488l.157 1.957a.455.455 0 0 0 .906-.07l-.063-.8A14.47 14.47 0 0 0 15 29.03c2.965 0 5.84-.894 8.273-2.586a.457.457 0 0 0 .114-.633.453.453 0 0 0-.633-.113m4.11-1.852-.8.062a14.47 14.47 0 0 0 3.453-9.394c0-2.961-.895-5.836-2.586-8.274a.46.46 0 0 0-.633-.113.46.46 0 0 0-.117.633 13.52 13.52 0 0 1 2.425 7.754c0 3.172-1.085 6.207-3.101 8.652l.05-.629a.456.456 0 0 0-.91-.07l-.156 1.945a.46.46 0 0 0 .489.5l1.957-.16a.455.455 0 0 0-.07-.906m-3.523-7.66a8.5 8.5 0 0 1-1.262 3.042l1.188 1.188-2.364 2.363-1.187-1.187a8.5 8.5 0 0 1-3.043 1.261v1.676h-3.344v-1.676a8.5 8.5 0 0 1-3.043-1.261L9.098 22.78l-2.364-2.363 1.188-1.188a8.5 8.5 0 0 1-1.262-3.043H4.984v-3.343H6.66A8.5 8.5 0 0 1 7.922 9.8L6.734 8.617 9.098 6.25l1.187 1.188a8.5 8.5 0 0 1 3.043-1.262V4.5h3.344v1.676a8.5 8.5 0 0 1 3.043 1.261l1.187-1.187 2.364 2.367-1.188 1.184a8.5 8.5 0 0 1 1.262 3.043h1.676v3.344Zm-2.692-1.672A5.65 5.65 0 0 0 15 8.87a5.65 5.65 0 0 0-5.648 5.645A5.65 5.65 0 0 0 15 20.164a5.65 5.65 0 0 0 5.648-5.648M15 9.78a4.734 4.734 0 0 0-4.734 4.735 4.734 4.734 0 0 0 3.492 4.57v-3.492h-1.215a.332.332 0 0 1-.262-.535l2.457-3.18a.33.33 0 0 1 .524 0l2.457 3.18a.332.332 0 0 1-.262.535h-1.215v3.492a4.734 4.734 0 0 0 3.492-4.57A4.734 4.734 0 0 0 15 9.78M7.246 3.336A13.52 13.52 0 0 1 15 .91c3.168 0 6.207 1.086 8.648 3.102l-.625-.047a.455.455 0 0 0-.07.906l1.945.156a.454.454 0 0 0 .497-.488l-.157-1.957a.455.455 0 1 0-.906.074l.063.797A14.47 14.47 0 0 0 15 0c-2.965 0-5.84.898-8.273 2.586a.46.46 0 0 0-.114.637.46.46 0 0 0 .633.113m0 0"/></g></svg>