<svg xmlns="http://www.w3.org/2000/svg" width="40" height="40" version="1.0" viewBox="0 0 30 30"><defs><clipPath id="a"><path d="M3.586 16H26v9H3.586Zm0 0"/></clipPath><clipPath id="b"><path d="M3.586 0H26v29H3.586Zm0 0"/></clipPath></defs><path fill="#061c3d" fill-rule="evenodd" d="M13.137 23.504a.34.34 0 0 1-.336-.336v-4.59c0-.437.672-.437.672 0v4.59a.34.34 0 0 1-.336.336M16.52 23.504a.34.34 0 0 1-.336-.336v-4.59c0-.437.671-.437.671 0v4.59a.34.34 0 0 1-.335.336m0 0"/><path fill="#061c3d" fill-rule="evenodd" d="M16.52 21.207h-3.383c-.438 0-.438-.668 0-.668h3.383c.453 0 .453.668 0 .668M9.234 21.46H8.043a.34.34 0 0 1-.336-.335v-2.547c0-.183.152-.336.336-.336h1.191c2.008 0 2.008 3.219 0 3.219m-.855-.67c.887 0 1.691.151 1.691-1.04a.85.85 0 0 0-.836-.836H8.38Zm0 0"/><path fill="#061c3d" fill-rule="evenodd" d="M8.043 23.504a.34.34 0 0 1-.336-.336v-2.043c0-.437.672-.437.672 0v2.043a.34.34 0 0 1-.336.336M20.441 21.46H19.27a.336.336 0 0 1-.336-.335v-2.547c0-.183.148-.336.336-.336h1.171c2.012 0 2.012 3.219 0 3.219m-.84-.67c.872 0 1.676.151 1.676-1.04a.837.837 0 0 0-.836-.836h-.84Zm0 0"/><path fill="#061c3d" fill-rule="evenodd" d="M19.27 23.504a.336.336 0 0 1-.336-.336v-2.043c0-.437.668-.437.668 0v2.043a.335.335 0 0 1-.332.336m0 0"/><g clip-path="url(#a)"><path fill="#061c3d" fill-rule="evenodd" d="M25.652 24.926H4.023c-.437 0-.437-.668 0-.668h21.63c.433 0 .433.668 0 .668m0-7.438H4.023c-.437 0-.437-.668 0-.668h21.63c.433 0 .433.668 0 .668m0 0"/></g><path fill="#061c3d" fill-rule="evenodd" d="M22.266 12.496H7.742c-.453 0-.453-.668 0-.668h14.524c.437 0 .437.668 0 .668M22.266 15.145H7.742c-.437 0-.437-.672 0-.672h14.524c.437 0 .437.672 0 .672M11.68 9.848a.33.33 0 0 1-.235-.098l-2.53-2.547c-.134-.117-.134-.336 0-.469l2.53-2.53c.317-.317.785.151.47.468L9.616 6.969l2.297 2.293c.219.218.066.586-.234.586M17.996 9.848c-.305 0-.453-.368-.254-.586l2.313-2.293-2.313-2.297c-.3-.3.168-.785.488-.469l2.528 2.531c.137.133.137.352 0 .47L18.23 9.75a.33.33 0 0 1-.234.098M13.203 10.25a.34.34 0 0 1-.3-.5L16.3 3.867c.219-.383.804-.05.57.336l-3.383 5.879a.37.37 0 0 1-.285.168m0 0"/><g clip-path="url(#b)"><path fill="#061c3d" fill-rule="evenodd" d="M23.875 28.613H5.781a2.107 2.107 0 0 1-2.093-2.11V2.126c0-1.156.937-2.11 2.093-2.11h18.094c1.156 0 2.11.938 2.11 2.094v24.395a2.12 2.12 0 0 1-2.11 2.11m0-27.93H5.781a1.44 1.44 0 0 0-1.426 1.442v24.379c0 .785.637 1.437 1.426 1.437h18.094a1.45 1.45 0 0 0 1.441-1.437V2.109c0-.789-.652-1.425-1.441-1.425m0 0"/></g></svg>