<svg xmlns="http://www.w3.org/2000/svg" width="40" height="40" version="1.0" viewBox="0 0 30 30"><defs><clipPath id="a"><path d="M.484.055h29.032V29H.484Zm0 0"/></clipPath></defs><g clip-path="url(#a)"><path fill="#061c3d" d="M21.832 14.348a.463.463 0 0 1-.465.464H16.86a.467.467 0 1 1 0-.933h4.508c.258 0 .465.21.465.469m-.465 2.632H16.86a.467.467 0 1 0 0 .934h4.508a.467.467 0 0 0 0-.934m0 1.551H16.86a.467.467 0 1 0 0 .934h4.508a.467.467 0 0 0 0-.934m0-3.101H16.86a.467.467 0 1 0 0 .934h4.508a.467.467 0 0 0 0-.934m-4.976-2.633c0 .258.21.465.468.465h4.508a.467.467 0 0 0 0-.934H16.86a.47.47 0 0 0-.468.469m12.316-6.692q-.122.398-.32.766l.218.492a.47.47 0 0 1-.097.52l-.406.406a14.3 14.3 0 0 1 1.406 6.227c0 3.859-1.504 7.492-4.235 10.222a14.38 14.38 0 0 1-10.226 4.235c-1.715 0-3.39-.297-4.988-.883-.02 0-.04.004-.059 0a.47.47 0 0 1-.39-.23l-.844-1.462h-.477l-.238.41.844 1.462c.082.14.082.312.007.457a.47.47 0 0 1-.386.242c-.043.004-.09.004-.133.004a2.4 2.4 0 0 1-2.09-1.207 2.4 2.4 0 0 1-.215-1.91 14.34 14.34 0 0 1-4.805-6.938 2.396 2.396 0 0 1-.555-2.46 15 15 0 0 1-.128-1.942c0-3.864 1.504-7.496 4.234-10.227A14.36 14.36 0 0 1 15.047.055c2.183 0 4.273.472 6.223 1.406l.41-.41a.45.45 0 0 1 .515-.094l.496.215q.366-.193.766-.317l.191-.503a.47.47 0 0 1 .438-.297h1.18c.195 0 .367.117.437.297l.192.503q.399.124.77.317l.491-.215a.46.46 0 0 1 .52.094l.832.836a.47.47 0 0 1 .097.52l-.218.491q.198.369.32.766l.5.195c.18.07.3.243.3.434v1.184a.47.47 0 0 1-.3.433ZM5.625 24.22l-2.64-4.57q-.24 0-.477-.051a13.4 13.4 0 0 0 3.117 4.62m4.234 2.203a1.5 1.5 0 0 0-.195-.602 1.48 1.48 0 0 0-1.469-.726.47.47 0 0 1-.46-.23l-3.59-6.216a.47.47 0 0 1 .035-.515 1.48 1.48 0 0 0-.325-2.106l.422.727a.48.48 0 0 1 0 .469l-.507.879a.47.47 0 0 1-.407.23H2.348a.46.46 0 0 1-.403-.23l-.418-.727a1.476 1.476 0 0 0 1.66 1.328h.06c.163 0 .32.086.401.23l3.59 6.215a.47.47 0 0 1-.031.516 1.48 1.48 0 0 0 .32 2.106l-.418-.727a.45.45 0 0 1 0-.465l.508-.879a.46.46 0 0 1 .403-.234h1.015c.168 0 .32.09.402.234Zm-.527-18.07v.222h4.73v-.222c0-.832-.43-1.582-1.113-2.004l-.113.879a.464.464 0 0 1-.461.406H11.02a.464.464 0 0 1-.461-.406l-.114-.88a2.35 2.35 0 0 0-1.113 2.005m2.098-1.649h.535l.137-1.066c-.047-.028-.172-.074-.403-.094-.234.02-.36.066-.406.094ZM9.727 9.508c.187.918 1 1.61 1.968 1.61h.004c.969 0 1.781-.692 1.969-1.61Zm4.765 3.539a4.4 4.4 0 0 0-1.77-.875l.618 1.933a.48.48 0 0 1-.098.454l-.824.93h2.074Zm-3.465 1.09.672.758.668-.758-.66-2.086h-.02Zm-.972-.032.617-1.933a4.42 4.42 0 0 0-2.707 1.926l.348.37a.45.45 0 0 1 .12.274l.07.746h2.474l-.825-.93a.48.48 0 0 1-.097-.453m-3.547-.207-.5.29.433 1.421.754.536c.055.039.102.09.137.144l2.941 5.094.332-.192-2.94-5.093a.5.5 0 0 1-.06-.192l-.085-.918Zm3.68 8.614 2.449 4.246 1.437-.832-2.449-4.246Zm18.386-7.996c0-1.985-.418-3.887-1.238-5.66a.6.6 0 0 1-.18-.04l-.492-.218a4.3 4.3 0 0 1-.77.316l-.19.504a.47.47 0 0 1-.438.297h-1.18a.47.47 0 0 1-.438-.297l-.191-.504a4 4 0 0 1-.766-.316l-.492.218a.47.47 0 0 1-.52-.097l-.835-.836a.47.47 0 0 1-.098-.52l.219-.492a4 4 0 0 1-.317-.766l-.503-.195a.465.465 0 0 1-.297-.433V4.293c0-.191.117-.363.297-.434l.503-.195q.118-.398.317-.766l-.219-.492a.4.4 0 0 1-.039-.18 13.3 13.3 0 0 0-5.66-1.238C7.59.988 1.52 7.055 1.52 14.516q0 .622.058 1.238a.5.5 0 0 1 .195.184l.844 1.464h.477l.238-.414-.844-1.46a.48.48 0 0 1-.004-.458.46.46 0 0 1 .383-.242c.914-.05 1.766.41 2.223 1.203.433.75.43 1.66.008 2.399l3.3 5.718c.852.004 1.641.457 2.075 1.207.351.606.414 1.317.203 1.961q.72.246 1.465.41a.7.7 0 0 1-.079-.097l-2.714-4.707a.85.85 0 0 1-.086-.66.84.84 0 0 1 .218-.383l-2.906-5.031-.8-.57a.46.46 0 0 1-.176-.243l-.59-1.93a.46.46 0 0 1 .21-.539l1.141-.66a.47.47 0 0 1 .579.086l.375.403a5.37 5.37 0 0 1 2.582-1.965 2.93 2.93 0 0 1-1.11-1.922h-.39a.467.467 0 1 1 0-.934h.003v-.222c0-1.336.797-2.52 2.008-3.036a1 1 0 0 1 .145-.253c.219-.266.594-.418 1.113-.454a.2.2 0 0 1 .066 0c.52.036.895.188 1.114.454a.9.9 0 0 1 .144.253 3.29 3.29 0 0 1 2.008 3.036v.222H15a.467.467 0 1 1 0 .934h-.387a2.96 2.96 0 0 1-1.113 1.926q.523.182.992.472v-.71c0-.52.426-.942.945-.942h1.372v-.156c0-.258.207-.465.464-.465h.743a1.27 1.27 0 0 1 1.097-.621c.461 0 .871.242 1.098.62h.738c.258 0 .469.208.469.466v.156h1.371c.52 0 .941.422.941.941v8.782a.943.943 0 0 1-.94.945h-7.352a.946.946 0 0 1-.946-.945v-3.555H8.93l2.5 4.332a.85.85 0 0 1 .441 0 .84.84 0 0 1 .527.406l2.72 4.703c.062.11.077.235.046.356a.45.45 0 0 1-.219.281L12.7 27.797a.4.4 0 0 1-.058.031q1.185.21 2.406.211c7.46 0 13.527-6.066 13.527-13.523m-8.09-3.95h-.582a.47.47 0 0 1-.453-.359.347.347 0 0 0-.672 0 .47.47 0 0 1-.453.36h-.582v.308h2.742Zm-3.675.774v-.152h-1.372c-.003 0-.011.003-.011.007v8.782c0 .007.008.011.011.011h7.352q.007 0 .008-.011v-8.782a.01.01 0 0 0-.008-.008h-1.371v.153c0 .258-.211.465-.469.465h-3.676a.463.463 0 0 1-.464-.465m11.765-6.727-.426-.16a.48.48 0 0 1-.285-.328 3.3 3.3 0 0 0-.394-.957.46.46 0 0 1-.032-.434l.188-.414-.383-.382-.418.183a.46.46 0 0 1-.433-.027 3.2 3.2 0 0 0-.953-.395.47.47 0 0 1-.329-.289l-.164-.422h-.539l-.164.422a.46.46 0 0 1-.328.29q-.506.117-.953.394a.46.46 0 0 1-.434.027l-.414-.183-.383.382.184.414c.063.141.05.305-.031.434q-.271.446-.395.957a.47.47 0 0 1-.285.328l-.426.16v.543l.426.164c.145.055.25.176.285.325q.124.51.395.957a.46.46 0 0 1 .031.433l-.184.414.383.383.414-.184a.47.47 0 0 1 .434.028q.447.276.953.394a.47.47 0 0 1 .328.29l.164.421h.54l.163-.422a.46.46 0 0 1 .328-.285 3.3 3.3 0 0 0 .954-.398.47.47 0 0 1 .433-.028l.418.184.383-.383-.187-.414a.46.46 0 0 1 .03-.433 3.3 3.3 0 0 0 .395-.957.47.47 0 0 1 .285-.325l.426-.164Zm-1.37.274a2.528 2.528 0 0 1-5.056 0 2.53 2.53 0 0 1 2.528-2.528 2.53 2.53 0 0 1 2.527 2.528m-.934 0c0-.88-.715-1.594-1.594-1.594s-1.594.715-1.594 1.594.715 1.593 1.594 1.593 1.594-.714 1.594-1.593m0 0"/></g></svg>