<svg xmlns="http://www.w3.org/2000/svg" width="40" height="40" version="1.0" viewBox="0 0 30 30"><defs><clipPath id="a"><path d="M.836 0h28.68v29H.836Zm0 0"/></clipPath></defs><g clip-path="url(#a)"><path fill="#061c3d" d="M28.906 0H1.438A.6.6 0 0 0 .84.598V28.07c0 .332.265.598.598.598h27.468a.594.594 0 0 0 .594-.598V.598A.59.59 0 0 0 28.906 0m-.597 1.195v3.582H2.035V1.195ZM2.035 27.47v-21.5H28.31v21.5Zm0 0"/></g><path fill="#061c3d" d="M15.766 3.586h10.75a.6.6 0 0 0 .597-.598.6.6 0 0 0-.597-.597h-10.75a.597.597 0 0 0 0 1.195M3.824 3.586H5.02a.6.6 0 0 0 .597-.598.6.6 0 0 0-.597-.597H3.824a.598.598 0 1 0 0 1.195M9.195 3.586h1.196a.6.6 0 0 0 .597-.598.6.6 0 0 0-.597-.597H9.195a.6.6 0 0 0-.597.597.6.6 0 0 0 .597.598M15.766 10.148H5.02a.6.6 0 0 0-.598.598v10.75a.6.6 0 0 0 .598.598h10.746c.332 0 .597-.27.597-.598v-10.75a.6.6 0 0 0-.597-.598M5.617 11.344h9.555v2.39H5.617Zm0 9.558V14.93h9.555v5.972Zm0 0"/><path fill="#061c3d" d="M9.023 16.297a.594.594 0 0 0-.843 0l-1.196 1.195a.6.6 0 0 0 0 .844l1.196 1.191c.234.235.61.235.843 0a.59.59 0 0 0 0-.84l-.77-.769.77-.773a.6.6 0 0 0 0-.848M12.605 16.297a.59.59 0 0 0-.84 0 .594.594 0 0 0 0 .844l.77.77-.77.769a.594.594 0 0 0 0 .843.59.59 0 0 0 .84 0l1.196-1.195a.594.594 0 0 0 0-.844ZM6.805 11.941H8v1.196H6.805ZM9.195 11.941h1.196v1.196H9.195ZM18.754 11.344h3.586a.6.6 0 0 0 .598-.598.6.6 0 0 0-.598-.598h-3.586a.6.6 0 0 0-.598.598.6.6 0 0 0 .598.598M25.32 12.54h-6.566a.6.6 0 0 0-.598.597.6.6 0 0 0 .598.597h6.57a.598.598 0 1 0-.004-1.195M19.918 17.637h-.95v2.226h.516v-.715h.453c.43 0 .711-.378.711-.761 0-.367-.312-.75-.73-.75m-.016 1.062h-.418v-.61c.387.005.41-.01.489.016.234.09.199.594-.07.594M22.32 18.5h-.89v-.863h-.512v2.226h.512v-.914h.89v.914h.516v-2.226h-.516ZM24.215 17.637h-.95v2.226h.512v-.715h.457c.614 0 .953-.773.508-1.273a.7.7 0 0 0-.527-.238m-.02 1.062h-.418v-.61c.391.005.414-.01.493.016.23.09.195.594-.075.594m0 0"/></svg>