<svg xmlns="http://www.w3.org/2000/svg" width="40" height="40" version="1.0" viewBox="0 0 30 30"><defs><clipPath id="a"><path d="M.484 1.234h29.032V28H.484Zm0 0"/></clipPath></defs><g clip-path="url(#a)"><path fill="#061c3d" d="M25.8 7.773c-.722 0-1.394.211-1.964.57l-1.809-2.507c.54-.473.883-1.156.883-1.93a2.584 2.584 0 0 0-2.578-2.582 2.585 2.585 0 0 0-2.582 2.582c0 1.035.613 1.922 1.492 2.332l-.719 2.024-3.203-1.375c.14-.395.215-.809.215-1.23A3.716 3.716 0 0 0 11.82 1.94a3.72 3.72 0 0 0-3.715 3.715c0 .508.102.992.29 1.434L5.246 8.66a2.57 2.57 0 0 0-2.18-1.219 2.582 2.582 0 0 0 0 5.164c.09 0 .172-.02.262-.027l.602 3.012a3.716 3.716 0 0 0-2.746 3.582 3.72 3.72 0 0 0 3.714 3.715 3.7 3.7 0 0 0 2.676-1.145l2.328 1.965a2.57 2.57 0 0 0-.457 1.461 2.58 2.58 0 0 0 2.582 2.582 2.58 2.58 0 0 0 2.578-2.582c0-.969-.543-1.805-1.332-2.246l1.016-2.336a5.1 5.1 0 0 0 1.809.336 5.11 5.11 0 0 0 5.101-5.102c0-.629-.117-1.226-.328-1.785l1.695-.726a3.71 3.71 0 0 0 2.63 1.84l-.278 2.874h-.008a2.582 2.582 0 0 0 0 5.165 2.585 2.585 0 0 0 2.582-2.583c0-1.253-.898-2.3-2.086-2.53l.282-2.876c.039 0 .074.004.113.004a3.716 3.716 0 0 0 3.715-3.715A3.72 3.72 0 0 0 25.8 7.773m-2.1 14.528c.21-.242.523-.465.73-.508.199-.04.351-.18.394-.363.016-.059.02-.137.024-.29a.25.25 0 0 0-.094-.203 1 1 0 0 1-.305-.433.23.23 0 0 0-.117-.137q.001-.012-.004-.023a.26.26 0 0 0 .07-.176c-.003-.281-.003-.527.102-.633.066-.066.207-.101.414-.101q.305.001.41.101c.102.106.102.352.102.64 0 .063.027.126.066.169v.023a.23.23 0 0 0-.117.137 1 1 0 0 1-.305.433.28.28 0 0 0-.093.223c.003.133.007.211.02.266a.5.5 0 0 0 .398.367c.207.043.515.266.73.508a2.08 2.08 0 0 1-1.215.394c-.45 0-.867-.148-1.21-.394m3.3-1.696c0 .52-.195.993-.512 1.356-.254-.281-.656-.578-1.011-.648q-.005-.024-.004-.07c.132-.13.246-.298.324-.473a.53.53 0 0 0 .187-.332.52.52 0 0 0-.066-.372c0-.336-.02-.652-.246-.875-.164-.168-.414-.25-.766-.25q-.509-.001-.754.25c-.226.223-.246.536-.246.875a.53.53 0 0 0-.066.375.53.53 0 0 0 .187.329c.078.175.192.34.325.468a.3.3 0 0 1-.016.075c-.348.07-.746.363-1 .648a2.06 2.06 0 0 1-.512-1.356c0-1.152.938-2.09 2.086-2.09 1.152 0 2.09.938 2.09 2.09M20.172 4.242a1 1 0 0 1-.305-.437.24.24 0 0 0-.117-.137q.001-.012-.004-.023a.26.26 0 0 0 .07-.172c0-.285-.003-.528.102-.633.066-.07.207-.106.414-.106.203 0 .344.036.41.106.106.105.106.348.102.637 0 .066.027.125.07.171q-.005.007-.004.02a.24.24 0 0 0-.117.137 1 1 0 0 1-.305.437.23.23 0 0 0-.093.2c.003.156.007.23.02.285.046.187.198.332.398.37.207.04.519.262.73.505a2.08 2.08 0 0 1-1.211.394 2.08 2.08 0 0 1-1.215-.394c.215-.243.524-.465.735-.504a.5.5 0 0 0 .394-.371c.012-.055.016-.13.02-.286a.23.23 0 0 0-.094-.199m-1.93-.336c0-1.152.938-2.09 2.09-2.09 1.148 0 2.086.938 2.086 2.09 0 .524-.195.992-.512 1.36-.258-.286-.656-.582-1.011-.649-.004-.015-.004-.043-.004-.074.132-.129.246-.293.324-.473.09-.066.16-.18.187-.328a.52.52 0 0 0-.066-.37c0-.34-.02-.653-.246-.88-.164-.168-.414-.246-.766-.25-.34.004-.59.082-.754.25-.226.227-.246.54-.246.88a.52.52 0 0 0-.066.37.5.5 0 0 0 .187.328c.078.18.192.344.325.473a.2.2 0 0 1-.016.07c-.348.07-.742.367-1 .653a2.07 2.07 0 0 1-.512-1.36m1.461 2.496c.203.051.41.086.629.086a2.54 2.54 0 0 0 1.297-.363l1.805 2.504c-.426.351-.77.8-1.004 1.309l-3.453-1.485Zm-3.605 4.317a5.11 5.11 0 0 0-5.102 5.101c0 .422.055.832.152 1.223l-2.773.832a3.73 3.73 0 0 0-1.57-1.887l3.547-6.922a3.699 3.699 0 0 0 4.77-1.727l3.233 1.388-.785 2.21a5 5 0 0 0-1.472-.218m-4.586-4.473a1.55 1.55 0 0 1-.489-.703.25.25 0 0 0-.164-.156.2.2 0 0 1-.027-.078q-.005-.06-.004-.09a.27.27 0 0 0 .11-.211c0-.38-.004-.707.109-.918.074-.137.226-.293.777-.293.543 0 .7.156.77.293.113.21.113.539.11.926 0 .086.042.16.108.207a.2.2 0 0 1-.003.082.4.4 0 0 1-.024.082.24.24 0 0 0-.164.156c-.098.277-.281.539-.492.703a.25.25 0 0 0-.094.207c.004.195.008.317.027.39.06.235.247.41.497.462.359.074.914.472 1.238.886a3.2 3.2 0 0 1-1.977.688c-.746 0-1.43-.258-1.976-.684.324-.414.883-.816 1.238-.89a.63.63 0 0 0 .496-.457c.02-.078.024-.2.027-.403a.23.23 0 0 0-.093-.199m.308-3.812a3.226 3.226 0 0 1 2.965 4.492 3.2 3.2 0 0 1-.625.933c-.402-.504-1.035-.941-1.504-1.035-.023-.008-.097-.027-.113-.094a1 1 0 0 1-.012-.18c.211-.195.39-.452.508-.73.125-.078.219-.23.254-.433s-.004-.38-.098-.492c0-.387-.011-.747-.164-1.036-.203-.37-.594-.554-1.215-.554-.613 0-1.004.183-1.203.554-.156.29-.168.645-.168 1.036-.093.113-.133.289-.097.496.035.199.132.351.254.43.117.277.296.538.511.73l-.011.18c-.02.066-.094.085-.118.093-.468.094-1.101.535-1.504 1.04a3.2 3.2 0 0 1-.882-2.208 3.226 3.226 0 0 1 3.222-3.222M.977 10.024a2.089 2.089 0 1 1 4.176 0c0 .519-.196.992-.512 1.355-.254-.285-.653-.578-1.012-.645q-.002-.029-.004-.074c.133-.129.246-.297.324-.473a.5.5 0 0 0 .188-.332.5.5 0 0 0-.067-.37c0-.505-.062-1.126-1.011-1.126-.442 0-.73.137-.88.418-.109.203-.12.446-.12.711a.5.5 0 0 0-.063.371.5.5 0 0 0 .184.329c.078.175.191.34.324.468a.3.3 0 0 1-.016.074c-.347.07-.742.368-.996.649a2.06 2.06 0 0 1-.515-1.356m.878 1.695c.211-.242.52-.465.727-.508a.5.5 0 0 0 .398-.367c.012-.059.016-.133.02-.285a.25.25 0 0 0-.094-.204 1 1 0 0 1-.304-.433.24.24 0 0 0-.114-.137q-.005-.011-.004-.023a.28.28 0 0 0 .067-.176c0-.234 0-.457.062-.578.024-.043.086-.156.457-.156.493 0 .512.14.508.742 0 .062.027.125.07.168q-.004.011-.003.023a.23.23 0 0 0-.118.137 1 1 0 0 1-.304.433.25.25 0 0 0-.094.207c.004.141.008.223.023.282a.49.49 0 0 0 .395.367c.207.043.52.266.73.508a2.06 2.06 0 0 1-2.422 0m1.954.761a2.57 2.57 0 0 0 1.836-2.457 2.6 2.6 0 0 0-.176-.925l3.148-1.57c.317.538.762.988 1.297 1.308l-3.547 6.926a3.7 3.7 0 0 0-1.469-.305c-.164 0-.328.016-.488.035Zm-2.133 6.692a3.226 3.226 0 0 1 3.222-3.223 3.226 3.226 0 0 1 3.223 3.223c0 .855-.336 1.629-.879 2.207-.406-.504-1.039-.945-1.508-1.04-.023-.003-.097-.026-.113-.093a1 1 0 0 1-.012-.18c.211-.191.391-.449.508-.73.125-.078.219-.23.254-.434s-.004-.379-.098-.492c0-.383-.011-.746-.168-1.035-.199-.371-.59-.555-1.214-.555-.61 0-1 .184-1.2.555-.156.29-.168.645-.168 1.035-.093.113-.132.29-.097.496.035.2.129.352.254.43.117.281.297.539.507.73 0 .079-.003.145-.007.18-.02.067-.094.09-.117.094-.47.094-1.102.535-1.508 1.039a3.2 3.2 0 0 1-.88-2.207m1.246 2.539c.32-.414.879-.816 1.238-.89a.63.63 0 0 0 .496-.458c.02-.078.024-.199.028-.402a.23.23 0 0 0-.094-.2 1.6 1.6 0 0 1-.492-.702.24.24 0 0 0-.16-.157.2.2 0 0 1-.028-.078q-.005-.06-.004-.09a.27.27 0 0 0 .11-.21c0-.38-.004-.708.109-.915.074-.14.227-.297.777-.297.543 0 .7.157.77.297.113.207.113.536.11.922 0 .086.042.16.109.207 0 .02.004.047-.004.082a.2.2 0 0 1-.028.082.25.25 0 0 0-.16.157c-.097.277-.281.539-.492.703a.25.25 0 0 0-.094.207 2 2 0 0 0 .028.394c.058.23.246.407.496.457.36.075.918.477 1.242.89a3.205 3.205 0 0 1-3.957 0m7.894 5.156c.211-.242.52-.465.727-.508a.49.49 0 0 0 .395-.367 1.4 1.4 0 0 0 .023-.285.24.24 0 0 0-.094-.203 1 1 0 0 1-.305-.438.26.26 0 0 0-.113-.136q-.004-.012-.008-.024a.25.25 0 0 0 .07-.172c0-.285 0-.527.102-.632q.103-.101.418-.102c.2 0 .34.035.406.102.106.105.106.347.102.636 0 .067.027.13.07.172q-.005.013-.004.02a.25.25 0 0 0-.117.136 1 1 0 0 1-.304.438c-.063.047-.094.14-.094.219.004.132.008.21.02.265a.5.5 0 0 0 .398.371c.207.043.52.266.73.508-.343.242-.761.39-1.21.39-.454 0-.872-.148-1.212-.39m3.297-1.699c0 .523-.195.992-.511 1.36-.254-.286-.657-.583-1.012-.65-.004-.015-.004-.042-.004-.073.133-.13.246-.293.324-.47a.53.53 0 0 0 .188-.331.52.52 0 0 0-.067-.371c0-.336-.02-.653-.246-.88-.164-.163-.414-.245-.765-.245q-.509 0-.754.246c-.227.226-.246.539-.246.879a.5.5 0 0 0-.063.37.5.5 0 0 0 .184.333c.078.176.191.34.324.469a.2.2 0 0 1-.016.07c-.347.07-.742.367-1 .652a2.1 2.1 0 0 1-.511-1.359 2.088 2.088 0 0 1 4.176 0m-1.293-2.441a2.5 2.5 0 0 0-.793-.137c-.703 0-1.34.281-1.804.738l-2.332-1.96a3.7 3.7 0 0 0 .629-3.024l2.77-.828a5.12 5.12 0 0 0 2.55 2.875Zm.36-3.34c.008-.008.023-.012.03-.024.466-.625 1.29-1.218 1.833-1.328a.77.77 0 0 0 .617-.57c.024-.094.031-.258.04-.54a.26.26 0 0 0-.095-.198 2.34 2.34 0 0 1-.718-1.032.25.25 0 0 0-.2-.164.4.4 0 0 1-.07-.18.5.5 0 0 1 .004-.203.27.27 0 0 0 .14-.234c-.003-.547-.003-1.016.165-1.328.105-.2.344-.465 1.18-.469.82.004 1.054.27 1.164.469.164.312.164.781.164 1.34 0 .097.054.183.14.222a.52.52 0 0 1-.066.383.25.25 0 0 0-.2.164c-.14.403-.41.79-.718 1.032a.23.23 0 0 0-.094.199c.008.27.012.441.035.539.074.289.309.508.617.57.547.11 1.368.703 1.836 1.328.008.012.02.016.028.024a4.57 4.57 0 0 1-2.914 1.043 4.6 4.6 0 0 1-2.918-1.043m6.191-.325c-.539-.714-1.469-1.378-2.125-1.511-.121-.024-.21-.102-.234-.203-.012-.043-.016-.188-.02-.317.309-.27.57-.644.735-1.05.16-.083.289-.282.335-.551.047-.274-.007-.504-.136-.637 0-.54-.016-1.047-.223-1.441-.262-.485-.785-.723-1.613-.727-.817.004-1.34.242-1.598.727-.21.39-.222.894-.222 1.441-.13.133-.184.367-.137.64.047.266.176.465.336.547.164.407.426.782.734 1.051a4 4 0 0 1-.02.317.29.29 0 0 1-.234.203c-.656.133-1.59.797-2.129 1.512a4.6 4.6 0 0 1-1.336-3.243c0-2.543 2.07-4.61 4.614-4.61a4.613 4.613 0 0 1 4.609 4.61 4.6 4.6 0 0 1-1.336 3.242m1.305-5.48a5.13 5.13 0 0 0-2.64-2.48l.773-2.184 3.441 1.477a3.8 3.8 0 0 0-.164 1.093c0 .485.098.95.266 1.375Zm3.148.445c.32-.414.88-.816 1.238-.886a.63.63 0 0 0 .497-.461 2 2 0 0 0 .027-.399.25.25 0 0 0-.094-.203 1.55 1.55 0 0 1-.488-.703.25.25 0 0 0-.164-.152c-.008-.02-.02-.047-.027-.082-.004-.04-.004-.067-.004-.09a.26.26 0 0 0 .109-.211c0-.38-.004-.707.11-.914.074-.137.226-.297.78-.297.54 0 .696.16.766.297.113.207.113.535.11.926 0 .082.043.16.109.203 0 .02.004.047-.004.082a.3.3 0 0 1-.027.086.24.24 0 0 0-.16.152c-.098.277-.282.54-.493.703a.25.25 0 0 0-.093.203c.004.196.011.32.027.399.059.234.246.41.496.46.36.07.918.473 1.242.887a3.205 3.205 0 0 1-3.957 0m4.32-.332c-.406-.504-1.039-.945-1.507-1.039-.024-.004-.098-.023-.114-.09a1 1 0 0 1-.011-.18c.21-.195.39-.452.508-.734.125-.074.218-.23.253-.43.036-.206-.003-.382-.097-.492 0-.386-.012-.746-.164-1.035-.2-.375-.594-.558-1.219-.558-.61 0-1 .183-1.2.558-.155.285-.167.645-.167 1.035-.094.11-.133.29-.098.493s.129.355.254.43c.117.28.297.538.512.734l-.012.175c-.02.07-.094.09-.113.094-.473.094-1.106.535-1.508 1.04a3.2 3.2 0 0 1-.883-2.208 3.226 3.226 0 0 1 3.223-3.222 3.226 3.226 0 0 1 3.222 3.222c0 .856-.335 1.63-.878 2.207m0 0"/></g></svg>