<svg xmlns="http://www.w3.org/2000/svg" width="40" height="40" version="1.0" viewBox="0 0 30 30"><defs><clipPath id="a"><path d="M.484 0h29.032v29.031H.484Zm0 0"/></clipPath></defs><g clip-path="url(#a)"><path fill="#061c3d" d="M22.234 25.063a.424.424 0 0 1-.425.425h-2.602a.425.425 0 1 1 0-.851h2.602c.234 0 .425.191.425.425M11.504 5.758V2.215c0-.152.082-.293.215-.371l3.066-1.77a.42.42 0 0 1 .43 0l3.066 1.77a.43.43 0 0 1 .215.37v3.544a.42.42 0 0 1-.215.367l-3.066 1.773a.42.42 0 0 1-.43 0L11.72 6.125a.42.42 0 0 1-.215-.367m6.137-2.805-2.215 1.281V6.79l2.215-1.277Zm-4.856-.738L15 3.492l2.215-1.277L15 .938Zm5.711 21.078v3.543a.42.42 0 0 1-.215.367l-3.066 1.774a.46.46 0 0 1-.215.054.46.46 0 0 1-.215-.054l-3.066-1.774a.42.42 0 0 1-.215-.367v-3.543c0-.152.082-.293.215-.371l3.066-1.77a.42.42 0 0 1 .43 0l3.066 1.77a.43.43 0 0 1 .215.371m-1.281 0L15 22.012l-2.215 1.281L15 24.57Zm.426.738-2.215 1.278v2.558l2.215-1.277ZM8.19 4.414h2.602a.428.428 0 1 0 0-.855H8.191a.427.427 0 0 0 0 .855m-.71 18.879v3.543a.43.43 0 0 1-.211.367L4.2 28.977a.46.46 0 0 1-.212.054.46.46 0 0 1-.215-.054L.707 27.203a.42.42 0 0 1-.215-.367v-3.543c0-.152.082-.293.215-.371l3.066-1.77a.42.42 0 0 1 .426 0l3.07 1.77c.13.078.211.219.211.371m-1.278 0-2.215-1.281-2.215 1.281 2.215 1.277Zm.426.738L4.414 25.31v2.558L6.63 26.59Zm-2.215-3.824v-.824a.428.428 0 1 0-.855 0v.824a.428.428 0 0 0 .855 0M21.81 3.559h-2.602a.428.428 0 1 0 0 .855h2.602a.428.428 0 0 0 0-.855m7.699 19.734v3.543a.42.42 0 0 1-.215.367l-3.066 1.774a.46.46 0 0 1-.215.054.46.46 0 0 1-.211-.054l-3.07-1.774a.43.43 0 0 1-.211-.367v-3.543c0-.152.082-.293.21-.371l3.07-1.77a.42.42 0 0 1 .427 0l3.066 1.77a.43.43 0 0 1 .215.371m-1.281 0-2.215-1.281-2.215 1.281 2.215 1.277Zm.425.738-2.21 1.278v2.558l2.21-1.277Zm-2.21-14.363v-.824a.428.428 0 1 0-.856 0v.824a.427.427 0 0 0 .855 0m0 10.539v-.824a.428.428 0 1 0-.856 0v.824a.427.427 0 0 0 .855 0m3.066-7.453v3.543a.42.42 0 0 1-.215.367l-3.066 1.773a.4.4 0 0 1-.215.055.4.4 0 0 1-.211-.055l-3.07-1.773a.43.43 0 0 1-.211-.367v-3.543c0-.152.082-.293.21-.371l3.07-1.77a.42.42 0 0 1 .427 0l3.066 1.77a.43.43 0 0 1 .215.37m-1.281 0-2.215-1.277-2.215 1.277 2.215 1.277Zm.425.738-2.21 1.278v2.558l2.21-1.277Zm.856-11.277v3.543a.42.42 0 0 1-.215.367l-3.066 1.773a.42.42 0 0 1-.426 0l-3.07-1.773a.43.43 0 0 1-.211-.367V2.215c0-.152.082-.293.21-.371L25.8.074a.42.42 0 0 1 .427 0l3.066 1.77a.43.43 0 0 1 .215.37m-1.281 0L26.012.938l-2.215 1.277 2.215 1.277Zm.425.738-2.21 1.281V6.79l2.21-1.277ZM4.414 9.668v-.824a.428.428 0 1 0-.855 0v.824a.428.428 0 0 0 .855 0m13.09 2.355a3.5 3.5 0 0 1 1.035 2.5c0 .946-.367 1.836-1.035 2.504A3.53 3.53 0 0 1 15 18.062a3.53 3.53 0 0 1-2.504-1.035 3.52 3.52 0 0 1-1.035-2.504 3.5 3.5 0 0 1 1.035-2.5A3.53 3.53 0 0 1 15 10.988c.945 0 1.832.367 2.504 1.035m.094 2.5a.43.43 0 0 0-.157-.328l-1.027-.847a.43.43 0 0 0-.602.058.424.424 0 0 0 .06.602l.624.515-.625.52a.42.42 0 0 0-.059.598.427.427 0 0 0 .602.059l1.027-.845a.44.44 0 0 0 .157-.332m-5.04.332 1.028.844a.427.427 0 0 0 .601-.058.42.42 0 0 0-.058-.598l-.625-.52.625-.515a.424.424 0 0 0 .059-.602.43.43 0 0 0-.602-.058l-1.027.847a.431.431 0 0 0 0 .66m2.215.938a.426.426 0 0 0 .415-.316l.449-1.684a.43.43 0 0 0-.301-.523.43.43 0 0 0-.524.3l-.449 1.688a.422.422 0 0 0 .41.535m-3.98 8.844H8.191a.427.427 0 0 0 0 .851h2.602a.425.425 0 1 0 0-.851M7.48 12.754v3.543a.43.43 0 0 1-.21.367L4.2 18.437a.4.4 0 0 1-.212.055.4.4 0 0 1-.215-.055L.707 16.665a.42.42 0 0 1-.215-.367v-3.543c0-.152.082-.293.215-.371l3.066-1.77a.42.42 0 0 1 .426 0l3.07 1.77c.13.078.211.219.211.37m-1.277 0-2.215-1.277-2.215 1.277 2.215 1.277Zm.426.738L4.414 14.77v2.558l2.215-1.277ZM7.48 2.215v3.543a.43.43 0 0 1-.21.367L4.2 7.898a.42.42 0 0 1-.427 0L.707 6.125a.42.42 0 0 1-.215-.367V2.215c0-.152.082-.293.215-.371L3.773.074a.42.42 0 0 1 .426 0l3.07 1.77c.13.078.211.218.211.37m-1.277 0L3.988.938 1.773 2.215l2.215 1.277Zm.426.738L4.414 4.234V6.79L6.63 5.512Zm12.96 9.008a.65.65 0 0 0-.144.723c.11.254.336.41.614.41h.218c.414 0 .754.336.754.754v1.355c0 .414-.34.754-.754.754h-.218a.65.65 0 0 0-.614.41.65.65 0 0 0 .145.723l.152.152a.75.75 0 0 1 0 1.067l-.957.96a.757.757 0 0 1-1.066 0l-.153-.152a.635.635 0 0 0-.722-.144.64.64 0 0 0-.41.613v.215c0 .418-.34.754-.754.754h-1.36a.754.754 0 0 1-.754-.754v-.215a.64.64 0 0 0-.41-.613.64.64 0 0 0-.722.144l-.153.153a.757.757 0 0 1-1.066 0l-.957-.961a.75.75 0 0 1 0-1.067l.152-.152a.65.65 0 0 0 .145-.723.65.65 0 0 0-.614-.41h-.218a.757.757 0 0 1-.754-.754v-1.355c0-.418.34-.754.754-.754h.218a.65.65 0 0 0 .614-.41.65.65 0 0 0-.145-.723l-.152-.156a.75.75 0 0 1 0-1.067l.957-.957a.757.757 0 0 1 1.066 0l.153.153c.199.195.468.25.722.144a.64.64 0 0 0 .41-.613v-.219c0-.414.34-.754.754-.754h1.36c.414 0 .754.34.754.754v.219c0 .277.152.508.41.613.254.106.527.05.722-.144l.153-.153a.76.76 0 0 1 .531-.222c.203 0 .395.082.535.222l.957.957a.75.75 0 0 1 0 1.067Zm-.929 1.047a1.49 1.49 0 0 1 .328-1.653l.082-.082-.82-.82-.082.086a1.49 1.49 0 0 1-1.652.328 1.5 1.5 0 0 1-.938-1.402v-.117h-1.156v.117c0 .625-.36 1.16-.938 1.402a1.49 1.49 0 0 1-1.652-.328l-.082-.086-.82.82.082.082c.441.442.57 1.075.328 1.653a1.49 1.49 0 0 1-1.399.937h-.117v1.157h.117c.625 0 1.16.359 1.399.937.242.578.113 1.211-.328 1.656l-.082.082.82.817.082-.082a1.49 1.49 0 0 1 1.652-.328c.579.238.938.777.938 1.402v.117h1.156v-.117c0-.625.36-1.164.938-1.402a1.49 1.49 0 0 1 1.652.328l.082.082.82-.817-.082-.082a1.495 1.495 0 0 1-.328-1.656 1.49 1.49 0 0 1 1.399-.937h.117v-1.157h-.117c-.625 0-1.16-.36-1.399-.937m0 0"/></g></svg>