<svg xmlns="http://www.w3.org/2000/svg" width="40" height="40" version="1.0" viewBox="0 0 30 30"><defs><clipPath id="a"><path d="M.484 0h29.032v29.031H.484Zm0 0"/></clipPath></defs><g clip-path="url(#a)"><path fill="#061c3d" d="M28.547 20.805a1.45 1.45 0 0 1-1.45 1.453H2.903c-.8 0-1.449-.649-1.449-1.453v-2.418h.48a1.45 1.45 0 0 0 1.454-1.453v-4.836c0-.801-.649-1.453-1.453-1.453h-.48V8.227c0-.801.648-1.454 1.448-1.454h24.196c.8 0 1.449.653 1.449 1.454ZM11.66 23.227h6.68a6.27 6.27 0 0 1-3.34.968 6.27 6.27 0 0 1-3.34-.968M22.777 24.3c.02.05.02.11-.004.137-.425.492-.828.898-1.238 1.238-.047.043-.11.015-.133.008l-1.699-.723a.47.47 0 0 0-.437.027 8.3 8.3 0 0 1-2.274.95.47.47 0 0 0-.332.289l-.683 1.707c-.02.039-.055.086-.11.09a9.2 9.2 0 0 1-1.738 0c-.05-.004-.086-.051-.102-.087l-.687-1.71a.47.47 0 0 0-.332-.29 8.3 8.3 0 0 1-2.274-.949.47.47 0 0 0-.437-.027l-1.7.723c-.019.007-.085.03-.132-.008a10 10 0 0 1-1.238-1.238c-.024-.028-.024-.086-.008-.133l.46-1.078h2.4a7.23 7.23 0 0 0 9.843 0h2.398ZM1.453 11.613h.48c.27 0 .485.219.485.485v4.836c0 .27-.215.484-.484.484h-.48ZM18.34 5.805h-6.68a6.27 6.27 0 0 1 6.68 0M7.223 4.735c-.02-.051-.02-.114.011-.15.329-.397.72-.788 1.23-1.23.048-.039.11-.015.134-.007l1.699.726c.14.059.305.051.437-.031a8.2 8.2 0 0 1 2.274-.945.5.5 0 0 0 .332-.29l.683-1.71c.02-.04.055-.086.118-.09a9 9 0 0 1 1.73 0c.05.004.086.05.102.086l.687 1.715c.059.144.184.25.332.289.785.191 1.551.511 2.274.945a.47.47 0 0 0 .437.031l1.7-.726c.019-.008.085-.032.14.015.402.332.805.739 1.23 1.23.024.028.024.09.008.134l-.46 1.078h-2.4A7.25 7.25 0 0 0 15 3.87c-1.832 0-3.57.692-4.922 1.934H7.68Zm19.875 1.07H23.37l.3-.707a1.09 1.09 0 0 0-.167-1.137c-.461-.531-.899-.973-1.336-1.336a1.07 1.07 0 0 0-1.145-.164l-1.476.629a9.2 9.2 0 0 0-2.078-.867L16.87.73a1.1 1.1 0 0 0-.918-.683 9.7 9.7 0 0 0-1.902 0 1.09 1.09 0 0 0-.922.687l-.598 1.489c-.715.199-1.414.488-2.078.867l-1.476-.63a1.07 1.07 0 0 0-1.145.165c-.555.477-.98.902-1.336 1.336a1.1 1.1 0 0 0-.168 1.144l.3.7H2.903A2.423 2.423 0 0 0 .484 8.227v12.578a2.423 2.423 0 0 0 2.418 2.422H6.63l-.3.707c-.165.39-.099.828.16 1.128.363.442.788.868 1.343 1.348.313.27.754.332 1.145.164l1.476-.629a9.3 9.3 0 0 0 2.078.867l.598 1.489c.16.39.516.652.91.687.293.028.61.043.93.043s.652-.015.98-.043c.406-.035.762-.297.922-.691l.598-1.485a9.3 9.3 0 0 0 2.078-.867l1.476.63c.391.167.832.105 1.137-.16a11.5 11.5 0 0 0 1.344-1.345 1.1 1.1 0 0 0 .168-1.144l-.3-.7h3.726a2.423 2.423 0 0 0 2.418-2.421V8.227a2.423 2.423 0 0 0-2.418-2.422"/></g><path fill="#061c3d" d="M7.742 12.098h1.453a.483.483 0 0 0 0-.97H7.742a1.94 1.94 0 0 0-1.937 1.938c0 1.067.87 1.934 1.937 1.934.531 0 .969.434.969.969a.97.97 0 0 1-.969.965H6.29a.484.484 0 1 0 0 .969h1.453a1.936 1.936 0 0 0 0-3.872.968.968 0 1 1 0-1.933M22.258 12.098h1.453a.487.487 0 0 0 .484-.485.487.487 0 0 0-.484-.484h-1.453a1.936 1.936 0 0 0 0 3.871.968.968 0 1 1 0 1.934h-1.453a.483.483 0 0 0-.48.484c0 .27.214.484.48.484h1.453a1.94 1.94 0 0 0 1.937-1.933 1.94 1.94 0 0 0-1.937-1.938.97.97 0 0 1-.969-.965c0-.535.438-.968.969-.968M27.098 10.645a.487.487 0 0 0-.485.484v6.773c0 .266.219.485.485.485a.487.487 0 0 0 .484-.485V11.13a.487.487 0 0 0-.484-.484M12.582 16.934a.968.968 0 1 1 0-1.934.968.968 0 0 1 0 1.934m1.45-2.903a.48.48 0 0 0-.442.293 1.9 1.9 0 0 0-1.008-.293 1.936 1.936 0 1 0 0 3.871c.367 0 .715-.109 1.008-.289a.483.483 0 0 0 .926-.195v-2.902a.487.487 0 0 0-.485-.485M17.418 16.934A.967.967 0 1 1 17.422 15a.967.967 0 0 1-.004 1.934m1.453-2.903a.48.48 0 0 0-.441.293 1.9 1.9 0 0 0-1.012-.293 1.936 1.936 0 0 0 0 3.871c.371 0 .715-.109 1.012-.289a.483.483 0 0 0 .925-.195v-2.902a.487.487 0 0 0-.484-.485"/></svg>