<svg xmlns="http://www.w3.org/2000/svg" width="40" height="40" version="1.0" viewBox="0 0 30 30"><defs><clipPath id="a"><path d="M6.29 0h17.42v29.031H6.29Zm0 0"/></clipPath></defs><g clip-path="url(#a)"><path fill="#061c3d" d="M7.258 2.418c0-.8.652-1.45 1.453-1.45h2.418v.485c0 .8.648 1.45 1.453 1.45h4.836a1.45 1.45 0 0 0 1.453-1.45V.97h2.418c.8 0 1.453.648 1.453 1.449v24.195c0 .801-.652 1.453-1.453 1.453H8.711c-.8 0-1.453-.652-1.453-1.453Zm4.84-1.45h5.804v.485c0 .266-.215.48-.484.48h-4.836a.48.48 0 0 1-.484-.48ZM8.71 29.032h12.578a2.42 2.42 0 0 0 2.422-2.418V2.418A2.423 2.423 0 0 0 21.289 0H8.711a2.423 2.423 0 0 0-2.422 2.418v24.195a2.42 2.42 0 0 0 2.422 2.418"/></g><path fill="#061c3d" d="M18.387 26.129h-6.774a.487.487 0 0 0-.484.484c0 .266.219.485.484.485h6.774a.487.487 0 0 0 .484-.485.487.487 0 0 0-.484-.484M11.793 10.54a.495.495 0 0 0 .684-.074.487.487 0 0 0-.079-.68l-1.945-1.56 1.945-1.558a.49.49 0 0 0 .079-.68.49.49 0 0 0-.684-.074L9.375 7.848a.48.48 0 0 0-.18.379c0 .148.063.285.18.378zM17.523 10.465a.495.495 0 0 0 .684.074l2.418-1.934a.48.48 0 0 0 .18-.378.48.48 0 0 0-.18-.38l-2.418-1.933a.49.49 0 0 0-.684.074.49.49 0 0 0 .079.68l1.945 1.559-1.945 1.558a.487.487 0 0 0-.079.68M14.422 11.121a.488.488 0 0 0 .57-.383l.965-4.836a.484.484 0 0 0-.95-.191l-.964 4.84a.484.484 0 0 0 .379.57M9.195 14.516h.48a.484.484 0 1 0 0-.97h-.48a.484.484 0 1 0 0 .97M11.129 14.031c0 .266.219.485.484.485h9.192a.484.484 0 1 0 0-.97h-9.192a.487.487 0 0 0-.484.485M9.195 20.324h.48a.484.484 0 1 0 0-.969h-.48a.484.484 0 1 0 0 .969M20.805 19.355h-9.192a.484.484 0 1 0 0 .97h9.192a.484.484 0 1 0 0-.97M10.16 16.453h.485a.487.487 0 0 0 .484-.484.487.487 0 0 0-.484-.485h-.485a.487.487 0 0 0-.484.485c0 .265.219.484.484.484M20.805 15.484h-3.871a.483.483 0 0 0 0 .97h3.87a.484.484 0 1 0 0-.97M12.582 16.453H15a.487.487 0 0 0 .484-.484.487.487 0 0 0-.484-.485h-2.418a.484.484 0 1 0 0 .97M10.16 18.387h.485a.487.487 0 0 0 .484-.485.487.487 0 0 0-.484-.484h-.485a.487.487 0 0 0-.484.484c0 .266.219.485.484.485M20.805 17.418h-3.871a.483.483 0 0 0 0 .969h3.87a.484.484 0 1 0 0-.969M12.582 18.387H15a.487.487 0 0 0 .484-.485.487.487 0 0 0-.484-.484h-2.418a.484.484 0 1 0 0 .969M9.676 21.773c0 .266.219.485.484.485h.485a.487.487 0 0 0 .484-.485.487.487 0 0 0-.484-.484h-.485a.487.487 0 0 0-.484.484M20.805 21.29h-3.871a.483.483 0 0 0 0 .968h3.87a.484.484 0 1 0 0-.969M12.582 22.258H15a.487.487 0 0 0 .484-.485.487.487 0 0 0-.484-.484h-2.418a.484.484 0 1 0 0 .969M10.645 23.227h-.485a.484.484 0 1 0 0 .968h.485a.484.484 0 1 0 0-.969M20.805 23.227h-3.871a.48.48 0 0 0-.48.484c0 .266.214.484.48.484h3.87a.484.484 0 1 0 0-.968M12.582 24.195H15a.484.484 0 1 0 0-.969h-2.418a.484.484 0 1 0 0 .969"/></svg>