<svg xmlns="http://www.w3.org/2000/svg" width="40" height="40" version="1.0" viewBox="0 0 30 30"><defs><clipPath id="a"><path d="M27 10h2.027v3H27Zm0 0"/></clipPath><clipPath id="b"><path d="M.719 10H3v3H.719Zm0 0"/></clipPath><clipPath id="c"><path d="M21 14h8.027v5H21Zm0 0"/></clipPath></defs><path fill="#061c3d" d="M13.04 6.273a.8.8 0 0 0 .202.559q.21.241.528.277c.304.016.613-.004.921 0 .004 1.204 0 2.407.004 3.614.317.004.637 0 .953 0 0-1.203-.003-2.407 0-3.61.282.004.559.008.84.004a.82.82 0 0 0 .52-.195.82.82 0 0 0 .285-.473c.016-.117.023-.23.02-.347-.004-1.715 0-3.434 0-5.153a.9.9 0 0 0-.262-.683.96.96 0 0 0-.688-.278c-.812-.004-1.62 0-2.43 0a.84.84 0 0 0-.78.434c-.102.195-.141.398-.122.617 0 1.746 0 3.488.008 5.234m2.66.235a1.5 1.5 0 0 1-.532.047q-.248.03-.484-.059c.015-.16-.059-.375.086-.492a5 5 0 0 1 .656-.016c.086.012.21-.027.261.07q.03.222.012.45M14.675.598q.245-.06.496-.035.27-.025.539.039.03.247-.027.488a5 5 0 0 1-.727.027c-.102-.008-.238.024-.297-.086a.8.8 0 0 1 .016-.433m1.785 1.074c.004 1.238 0 2.48.008 3.719-.864 0-1.723.004-2.582 0-.004-1.243 0-2.48-.004-3.723q1.29-.001 2.578.004M10.617 3.957a.8.8 0 0 0 .356-.074.75.75 0 0 0 .289-.215.8.8 0 0 0 .175-.316.8.8 0 0 0 .028-.36.8.8 0 0 0-.32-.554.8.8 0 0 0-.622-.153.8.8 0 0 0-.543.34.8.8 0 0 0-.136.625.83.83 0 0 0 .265.484.83.83 0 0 0 .508.223M19.77 3.957a.854.854 0 0 0 .594-.395.85.85 0 0 0 .093-.71.8.8 0 0 0-.363-.461.77.77 0 0 0-.578-.102.8.8 0 0 0-.5.309.8.8 0 0 0-.16.566c.011.234.109.434.289.586q.268.236.625.207M22.39 7.848q-.001.215.157.367a.48.48 0 0 0 .371.137c.863 0 1.73.003 2.598 0a.52.52 0 0 0 .351-.106.54.54 0 0 0 .211-.3q.041-.391.008-.782a.61.61 0 0 1-.23.43.69.69 0 0 1-.426.226.68.68 0 0 1-.477-.093.7.7 0 0 1-.308-.372.7.7 0 0 1-.004-.484.7.7 0 0 1 .27-.367.68.68 0 0 1 .437-.129.87.87 0 0 1 .644.3q.078-.074.098-.179a.8.8 0 0 0-.074-.68 1.7 1.7 0 0 0-.477-.375 1.638 1.638 0 0 0-1.176-.14q-.299.075-.55.25c-.176.125-.313.383-.563.324a.44.44 0 0 1-.168-.094.4.4 0 0 1-.113-.355.4.4 0 0 1 .086-.176 2.1 2.1 0 0 1 1.027-.648 2.12 2.12 0 0 1 1.219.007q.961.245 1.426 1.13c.101.202.105.449.253.632a.7.7 0 0 0 .274.18.42.42 0 0 0 .297-.156.48.48 0 0 0 .02-.516 3.8 3.8 0 0 0-.676-1.031 5 5 0 0 0-.82-.664V3.46a.7.7 0 0 0-.102-.414.35.35 0 0 0-.332-.149h-2.723a.46.46 0 0 0-.441.207.96.96 0 0 0-.094.57c.008 1.391-.004 2.782.008 4.173M3.184 7.637c-.016.238.07.43.246.586a.62.62 0 0 0 .414.129c.926-.004 1.847-.004 2.773-.004q.241 0 .418-.168a.58.58 0 0 0 .18-.414c0-1.239 0-2.473-.004-3.711a.66.66 0 0 0-.07-.438c-.086-.105-.235-.082-.356-.09-1.144.004-2.289-.011-3.433.008-.137.031-.172.188-.168.309.003 1.265-.004 2.531 0 3.793M10.55 10c-.003.758.005 1.52-.003 2.281q.032.254.191.461c.242-.297.512-.562.805-.805q-.117-.127-.234-.261c.007-.555.007-1.114.007-1.668a1.24 1.24 0 0 0 .86-1.047 1.24 1.24 0 0 0-.125-.7 1.2 1.2 0 0 0-.489-.511 1.27 1.27 0 0 0-.886-.133 1.2 1.2 0 0 0-.524.25 1.2 1.2 0 0 0-.355.461 1.2 1.2 0 0 0-.106.57q.02.299.168.555c.164.27.391.453.692.547M18.762 10.008c0 .578 0 1.152.004 1.73-.067.07-.13.145-.196.215a5 5 0 0 1 .805.7.66.66 0 0 0 .145-.419q-.004-1.124-.008-2.242.346-.123.57-.418c.148-.195.23-.418.246-.66a1.2 1.2 0 0 0-.156-.687 1.22 1.22 0 0 0-.504-.493 1.235 1.235 0 0 0-1.484.246 1.24 1.24 0 0 0-.325.668q-.063.464.196.852a1.2 1.2 0 0 0 .707.508M6.027 11.578a2.56 2.56 0 0 1-.132-1.176c-.008-.328.011-.66-.012-.988-.29.02-.574 0-.86.016.004.539 0 1.074 0 1.61-.007.655.23 1.202.723 1.632q.634.532 1.461.566c.36.012.715 0 1.07.04q.411.087.762.316c.254.152.516.297.766.46q.211-.408.488-.777c-.355-.246-.73-.468-1.11-.68a.63.63 0 0 0-.312-.1c-.469-.005-.937.003-1.406 0a1.45 1.45 0 0 1-.625-.145 1.62 1.62 0 0 1-.813-.774M20.445 14.008a4.7 4.7 0 0 1 1.235-.707q.512-.076 1.023-.059.838-.06 1.445-.629.552-.568.622-1.36c.007-.605 0-1.214.003-1.823-.289.004-.578 0-.867 0-.008.523.008 1.043-.011 1.562a1.57 1.57 0 0 1-.985 1.395q-.286.11-.59.11c-.254-.005-.508.003-.761-.013a1.15 1.15 0 0 0-.594.086 6.6 6.6 0 0 0-1.047.688q.316.339.527.75m0 0"/><g clip-path="url(#a)"><path fill="#061c3d" d="M27.707 11.871q.346.305.781.152a.8.8 0 0 0 .352-.214.8.8 0 0 0 .207-.352.86.86 0 0 0-.164-.781.84.84 0 0 0-.332-.239q-.2-.08-.406-.054a.8.8 0 0 0-.387.144.8.8 0 0 0-.27.305.86.86 0 0 0-.066.559.85.85 0 0 0 .285.48m0 0"/></g><g clip-path="url(#b)"><path fill="#061c3d" d="M2.152 11.941A.8.8 0 0 0 2.5 11.5a.83.83 0 0 0-.004-.559.84.84 0 0 0-.355-.437.84.84 0 0 0-.547-.117.84.84 0 0 0-.512.258.8.8 0 0 0-.23.523.86.86 0 0 0 .199.594.86.86 0 0 0 .547.308.93.93 0 0 0 .554-.129m0 0"/></g><path fill="#061c3d" d="M19.703 18.387a4.4 4.4 0 0 0 .274-2.282 4.8 4.8 0 0 0-.594-1.687 4.9 4.9 0 0 0-2.723-2.219 4.8 4.8 0 0 0-1.773-.238c-.532.02-1.04.137-1.532.344a4.8 4.8 0 0 0-1.914 1.422 4.8 4.8 0 0 0-1.015 2.16q-.194.995.058 1.972.305 1.101 1.047 1.973.306.352.676.645a4.9 4.9 0 0 0 1.656.84q.45.128.918.163.47.042.934-.011c.312-.04.613-.102.914-.196q.446-.144.855-.37c.278-.15.532-.325.774-.524a5 5 0 0 0 1.445-1.992m-2.289-1.426c.18.016.363-.012.543.016a.31.31 0 0 1 .227.257.32.32 0 0 1-.114.325.93.93 0 0 1-.824.007c-.031.04-.062.082-.094.118q.346.234.618.55.194.259-.008.512a.42.42 0 0 1-.29.14.42.42 0 0 1-.308-.09c-.18-.136-.27-.358-.45-.491q-.135.116-.265.238.218.257.278.59c.023.234-.266.453-.473.305-.195-.157-.246-.415-.379-.61a3 3 0 0 1-.312.11q.04.35.023.707-.025.309-.324.39a.4.4 0 0 1-.317-.074.4.4 0 0 1-.168-.281 3 3 0 0 1 .032-.758 3 3 0 0 1-.309-.067q-.165.293-.371.555a.29.29 0 0 1-.32.031.29.29 0 0 1-.18-.27c.008-.233.191-.41.293-.605-.05-.058-.102-.113-.152-.175q-.07-.023-.141-.051c-.227.18-.367.492-.672.55a.36.36 0 0 1-.312-.066.38.38 0 0 1-.153-.285.52.52 0 0 1 .203-.437c.153-.157.352-.254.504-.41a2 2 0 0 0-.144-.102q-.393.141-.774-.012a.32.32 0 0 1-.117-.344.33.33 0 0 1 .25-.261c.184-.02.371-.004.555-.008q.005-.21.004-.422a3.3 3.3 0 0 1-.653-.027.32.32 0 0 1-.191-.328.32.32 0 0 1 .226-.31q.375-.034.75.044l.07-.168q-.426-.182-.648-.594a.39.39 0 0 1 .016-.398.41.41 0 0 1 .309-.188.42.42 0 0 1 .343.098q.222.212.403.465.187-.105.328-.262a1.2 1.2 0 0 1-.29-.605.32.32 0 0 1 .157-.23.3.3 0 0 1 .277-.028q.31.21.414.574c.106-.04.215-.066.329-.09a1.9 1.9 0 0 1-.051-.691q.069-.334.406-.352.316.012.422.313.053.356-.047.695l.047.031c.098.02.191.047.289.078q.118-.335.39-.558a.26.26 0 0 1 .153-.035q.076.001.148.039a.3.3 0 0 1 .11.113q.039.066.043.148c.007.23-.172.399-.274.59a.73.73 0 0 0 .328.246c.164-.226.332-.52.645-.547a.36.36 0 0 1 .191.032.44.44 0 0 1 .16.117c.043.05.07.113.082.18a.37.37 0 0 1-.007.195q-.217.45-.66.672l.046.148a3 3 0 0 1 .743-.035.33.33 0 0 1 .234.203.33.33 0 0 1-.027.313.31.31 0 0 1-.29.152c-.164.004-.324 0-.488 0q-.016.206.008.418m0 0"/><g clip-path="url(#c)"><path fill="#061c3d" d="M29.102 16.66a2.28 2.28 0 0 0-.504-1.344c-.164-.203-.442-.207-.672-.261q.006-.121-.012-.242c-.09-.149-.281-.145-.434-.16a14 14 0 0 0-.906 0c-.148.019-.324.003-.433.124-.063.102-.086.22-.145.325a2.3 2.3 0 0 0-.363.054.96.96 0 0 0-.43.422 3 3 0 0 0-.332.754h-3.734v.93c1.25-.004 2.496.004 3.746 0q.192.604.625 1.066c.16.149.402.07.57.2a1 1 0 0 0 .059.288c.183.106.379.157.59.145.332.027.66.008.984-.066.195-.06.133-.332.305-.407.18-.05.398-.047.523-.207a2.4 2.4 0 0 0 .563-1.62m-.688.684c-.168.508-.516.824-1.035.953-.317.062-.625.05-.934-.04a1.3 1.3 0 0 1-.812-.69q-.421-.799.008-1.59c.222-.368.543-.614.953-.73q.49-.134.965.054c.312.125.558.336.73.625.262.453.3.926.125 1.418m0 0"/></g><path fill="#061c3d" d="M16.441 15.965c-.218.238-.445.469-.652.719-.168.203-.242.46-.394.675q-.194.282-.516.184-.269-.124-.461-.348c-.148-.136-.316-.246-.465-.386a.44.44 0 0 1-.125-.336.43.43 0 0 1 .152-.32.47.47 0 0 1 .45-.145q.345.234.61.562c.347-.386.663-.8.995-1.199-.465-.316-.957-.355-1.469-.125a1.71 1.71 0 0 0-.93 1.07q-.056.31-.003.622.058.314.222.582a1.68 1.68 0 0 0 .98.73 1.42 1.42 0 0 0 1.161-.21q.6-.41.734-1.118a1.2 1.2 0 0 0-.168-.93c-.019-.055-.085-.086-.12-.027M3.188 16.008a.9.9 0 0 0-.489.433.86.86 0 0 0-.066.645q.094.54.62.687a.77.77 0 0 0 .712-.187.84.84 0 0 0 .25-.582 1 1 0 0 0-.2-.73.775.775 0 0 0-.827-.266M10.922 20.832a14 14 0 0 1-.633-.73 1.8 1.8 0 0 1-.71.585q-.4.146-.821.11c.004.332 0 .668 0 1.004.3.023.601 0 .894-.07q.752-.283 1.27-.899M21.375 20.793a2 2 0 0 1-.398-.152 6 6 0 0 1-.899-.575 5 5 0 0 1-.578.73q.505.358 1.05.65.393.239.821.413c.008-.355.004-.71.004-1.066M7.75 21.168a.86.86 0 0 0-.336-.723 1.17 1.17 0 0 0-.672-.078c-1.008.004-2.015 0-3.02 0a1.18 1.18 0 0 0-.773.113.58.58 0 0 0-.238.524c-.004.332 0 .668 0 1.004 1.684-.004 3.363-.004 5.047-.004-.008-.277.004-.555-.008-.836m-3.79.09a.327.327 0 0 1-.156.293.34.34 0 0 1-.16.062.4.4 0 0 1-.167-.023.37.37 0 0 1-.23-.34.37.37 0 0 1 .19-.36.35.35 0 0 1 .372.028.35.35 0 0 1 .152.34m1.013-.004a.3.3 0 0 1-.051.18.4.4 0 0 1-.129.128.349.349 0 0 1-.352 0 .37.37 0 0 1-.18-.359.38.38 0 0 1 .231-.332.4.4 0 0 1 .18-.016.4.4 0 0 1 .168.075.38.38 0 0 1 .133.324M27.984 21.242a1.04 1.04 0 0 0-.605-.8 1.8 1.8 0 0 0-.715-.075c-1.137 0-2.27.008-3.406-.004a.84.84 0 0 0-.742.5 2.4 2.4 0 0 0-.133 1.149q2.805-.006 5.617 0c-.008-.258.016-.516-.016-.77m-4.191.016a.3.3 0 0 1-.043.176.34.34 0 0 1-.125.132.345.345 0 0 1-.348.008.4.4 0 0 1-.136-.144.408.408 0 0 1 .133-.535.35.35 0 0 1 .363.03.34.34 0 0 1 .156.333m.508.324a.4.4 0 0 1-.196-.348.36.36 0 0 1 .047-.199.36.36 0 0 1 .137-.148.35.35 0 0 1 .344.027.33.33 0 0 1 .125.129c.031.05.047.11.05.168a.34.34 0 0 1-.148.336.33.33 0 0 1-.36.035m1.05.016a.38.38 0 0 1-.246-.325.38.38 0 0 1 .172-.37.4.4 0 0 1 .168-.048.37.37 0 0 1 .305.153q.052.075.063.164a.37.37 0 0 1-.114.34.34.34 0 0 1-.164.09.37.37 0 0 1-.183-.004M11.328 26.602a534 534 0 0 1 .004-4.332c.125-.247.273-.477.453-.688a9 9 0 0 1-.742-.617 1.8 1.8 0 0 0-.5.883c0 1.582.008 3.16.012 4.742q-.37.146-.614.46a1.23 1.23 0 0 0-.18 1.153q.17.518.68.719.336.113.688.066.615-.088.914-.64c.16-.325.184-.657.062-.996a1.3 1.3 0 0 0-.777-.75M7.754 26.535c.02.266-.258.434-.5.434H2.988a.24.24 0 0 1-.199-.078.24.24 0 0 1-.07-.2c-.012-1.367-.008-2.734-.008-4.097 1.684.004 3.363 0 5.047.004q-.005 1.969-.004 3.937M22.383 22.602c-.004.78 0 1.566 0 2.351 1.867 0 3.738.004 5.61-.004q.002-1.179.003-2.351c-1.871-.004-3.742.004-5.613.004M19.832 22.934a1.25 1.25 0 0 0-1.207-.137q-.666.257-.77.965a1.3 1.3 0 0 0 .2.863c.172.266.406.441.707.535-.004.73 0 1.465 0 2.195a.92.92 0 0 0-.387.504.8.8 0 0 0-.031.371.8.8 0 0 0 .129.352q.103.159.265.266.159.1.352.125a.86.86 0 0 0 .676-.192.9.9 0 0 0 .226-.281.8.8 0 0 0 .09-.352.9.9 0 0 0-.168-.515.9.9 0 0 0-.426-.34c0-.711.004-1.426 0-2.137.301-.136.532-.343.7-.629q.215-.41.113-.863a1.22 1.22 0 0 0-.469-.73M13.48 24.227a.86.86 0 0 0-.55-.051.8.8 0 0 0-.461.304.84.84 0 0 0-.176.52.78.78 0 0 0 .426.703.82.82 0 0 0 .558.09.83.83 0 0 0 .493-.281.84.84 0 0 0 .203-.508c.007-.367-.157-.629-.493-.777M27.988 25.605c-1.867-.003-3.734.004-5.601 0 0 .211-.008.422.004.63a.87.87 0 0 0 .504.675q.258.088.535.059c1.218-.004 2.441-.004 3.66 0q.314.04.605-.082a.53.53 0 0 0 .285-.477c.016-.27.004-.535.008-.805M7.703 6.348c0 .195 0 .386-.008.582q.231.017.45-.059a.63.63 0 0 0 .406-.605c0-.48.004-.961 0-1.446a.62.62 0 0 0-.34-.605 1.1 1.1 0 0 0-.516-.063c0 .196.004.395.004.59.082.04.211.067.215.176 0 .406.004.816 0 1.223.004.117-.117.168-.21.207m0 0"/><path fill="#061c3d" d="M9.223 16.336c-1.211-.012-2.422-.004-3.633-.004a4 4 0 0 0-.473-.941.56.56 0 0 0-.383-.243c-.12-.03-.261-.015-.347-.117q.006-.264-.246-.34a2.4 2.4 0 0 0-.676-.046q-.382-.012-.77.023c-.152.016-.222.16-.27.285 0 .031.005.086.009.113l-.059-.02.008.06a.73.73 0 0 0-.594.218 2.2 2.2 0 0 0-.52 1.274q-.057.719.32 1.34.124.248.329.437c.164.105.379.059.55.145q.002.127-.015.25l.024-.07a.28.28 0 0 0 .21.198 2.6 2.6 0 0 0 1.333.055c.12-.027.273-.07.293-.215.023-.11.085-.199.18-.258a.69.69 0 0 0 .566-.226q.333-.456.527-.988c1.21-.008 2.426 0 3.637-.004 0-.309-.004-.617 0-.926M4.87 17.352c-.148.46-.45.785-.898.964a1.25 1.25 0 0 1-.797.125 2.1 2.1 0 0 1-.727-.34 1.7 1.7 0 0 1-.61-1.445c.028-.351.153-.66.384-.926.226-.27.511-.44.855-.523q.327-.057.652-.004.538.124.907.535.54.745.234 1.614M26.77 16.094a.7.7 0 0 0-.415.308.68.68 0 0 0-.09.508q.059.241.25.406a.74.74 0 0 0 .446.172.7.7 0 0 0 .309-.07.723.723 0 0 0 .395-.484.7.7 0 0 0 .007-.32.72.72 0 0 0-.344-.446.72.72 0 0 0-.558-.074M14.695 22.766v1.086q-.005 2.573-.004 5.14.479.006.957 0c-.003-2.078 0-4.152-.003-6.226a39 39 0 0 0-.95 0m0 0"/></svg>