<svg xmlns="http://www.w3.org/2000/svg" width="40" height="40" version="1.0" viewBox="0 0 30 30"><defs><clipPath id="a"><path d="M.484 0h29.032v29H.484Zm0 0"/></clipPath></defs><g clip-path="url(#a)"><path fill="#061c3d" fill-rule="evenodd" d="M26.246 3.313v10.761h-2v-2.406c0-.352-.14-.688-.387-.938a1.34 1.34 0 0 0-.937-.386h-1.535V3.313Zm-14.258-.29.09-1.539a.307.307 0 0 1 .305-.285h4.289a.3.3 0 0 1 .3.285l.094 1.54Zm5.137.965.383 6.356h-1.363V6.53c0-.476-.27-.914-.696-1.133a1.28 1.28 0 0 0-1.324.11l-2.395 1.75.2-3.27h5.195M27.898.473v1.406a.47.47 0 0 1-.468.469h-7.223a.47.47 0 0 1-.469-.47V.474c0-.262.211-.47.469-.47h7.223c.258 0 .468.208.468.47M11.375 16.086v1.426a.97.97 0 0 0-.656-.254H9.28a.97.97 0 0 0-.902.617l-.168.438q-.24.08-.469.183v-4.25a.785.785 0 0 0-.785-.785H2.875a.785.785 0 0 0-.785.785v6.746H.848a.36.36 0 0 1-.356-.36v-9.167c0-.098.047-.188.125-.246l6.738-4.93c.09-.07.211-.078.313-.027.102.05.168.156.168.27v4.78l6.86-5.023a.3.3 0 0 1 .48.242v4.782h7.746c.094 0 .183.035.254.101a.36.36 0 0 1 .101.254v2.406h-4.023v-.308a.3.3 0 0 0-.086-.215.3.3 0 0 0-.215-.086H9.977a.298.298 0 0 0-.305.3v2.016c0 .082.031.16.09.215.054.059.133.09.215.09Zm-6.387 4.906h-1.93V14.73c0-.168.133-.304.301-.304h3.114c.168 0 .3.136.3.304v3.575a.96.96 0 0 0-.707.285l-1.015 1.015a.97.97 0 0 0-.203 1.079Zm7.352-3.465V15.79a.75.75 0 0 1 .75-.746h15.672c.41 0 .746.336.746.746v1.738Zm5.383-.715a.437.437 0 1 0 .001-.873.437.437 0 0 0-.001.874m-1.676 0a.437.437 0 1 0 0-.875.438.438 0 0 0 0 .876m-1.676 0a.437.437 0 1 0 0-.875.438.438 0 0 0 0 .876m15.137 1.684v9.469c0 .41-.336.746-.746.746H13.59a.9.9 0 0 0 .344-.223l1.015-1.015a.965.965 0 0 0 .203-1.075l-.191-.425q.152-.316.27-.645l.433-.168c.371-.14.617-.5.617-.902V22.82a.97.97 0 0 0-.617-.902l-.434-.168a6 6 0 0 0-.27-.645l.192-.425a.965.965 0 0 0-.203-1.075l-1.015-1.015a1 1 0 0 0-.11-.094Zm-5.41 7.223h3.742a.487.487 0 0 0 .484-.485.487.487 0 0 0-.484-.484h-3.742a.484.484 0 1 0 0 .969m-3.348-1.207 1.281-4.778a.486.486 0 0 0-.343-.593.48.48 0 0 0-.59.343l-1.282 4.778a.48.48 0 0 0 .344.59.48.48 0 0 0 .59-.34m-2.332-4.688-1.832 1.832a.486.486 0 0 0 0 .684l1.832 1.832a.486.486 0 0 0 .684 0 .48.48 0 0 0 0-.684l-1.489-1.492 1.489-1.488a.48.48 0 0 0 0-.684.48.48 0 0 0-.684 0m5.68 7.547h3.742a.487.487 0 0 0 .484-.484.487.487 0 0 0-.484-.485h-3.742a.484.484 0 1 0 0 .97m-1.352-6.863 1.488 1.488-1.488 1.492a.48.48 0 0 0 0 .684.486.486 0 0 0 .684 0l1.832-1.832a.486.486 0 0 0 0-.684l-1.832-1.832a.48.48 0 0 0-.684 0 .48.48 0 0 0 0 .684M11.06 19.105c.468.114.918.297 1.328.551l.863-.383 1.016 1.016-.383.863c.254.41.441.86.55 1.328l.883.34v1.438l-.882.34c-.11.468-.297.918-.551 1.328l.383.863-1.016 1.016-.863-.383c-.41.254-.86.441-1.328.55l-.34.883H9.28l-.34-.882a4.5 4.5 0 0 1-1.328-.551l-.863.383-1.016-1.016.383-.863a4.6 4.6 0 0 1-.55-1.328l-.883-.34V22.82l.882-.34c.114-.468.297-.918.551-1.328l-.383-.863 1.016-1.016.863.383c.41-.254.86-.437 1.328-.55l.34-.883h1.438ZM10 21.031a2.506 2.506 0 0 0-2.508 2.508A2.509 2.509 0 1 0 10 21.031m0 0"/></g></svg>