<svg xmlns="http://www.w3.org/2000/svg" width="40" height="40" version="1.0" viewBox="0 0 30 30"><defs><clipPath id="a"><path d="M.484 2.902h29.032V26.13H.484Zm0 0"/></clipPath></defs><path fill="#061c3d" d="M3.23 17.219c-.617 0-1.12.504-1.12 1.12a1.12 1.12 0 0 0 2.238 0c0-.616-.5-1.12-1.118-1.12m0 1.593a.475.475 0 1 1-.002-.95.475.475 0 0 1 .002.95m0 0"/><g clip-path="url(#a)"><path fill="#061c3d" d="M27.766 13.887V4.063c0-.63-.512-1.141-1.141-1.141h-25c-.629 0-1.14.512-1.14 1.14v15.204c0 .632.511 1.144 1.14 1.144h9.262v2.758h-.145a1.487 1.487 0 0 0 0 2.973h6.766a1.487 1.487 0 0 0 0-2.973h-.145V20.41h1.91a5.44 5.44 0 0 0 4.805 2.899c3 0 5.438-2.438 5.438-5.438a5.41 5.41 0 0 0-1.75-3.984M1.129 4.063c0-.274.223-.497.496-.497h25c.273 0 .496.223.496.497v9.304a5 5 0 0 0-.445-.27V5.087c0-.59-.48-1.074-1.07-1.074H2.647A1.08 1.08 0 0 0 1.57 5.086V16.27H1.13ZM18.883 16.27H2.215V5.086c0-.238.195-.43.433-.43h22.957a.43.43 0 0 1 .43.43v7.719a5.4 5.4 0 0 0-1.957-.371 5.44 5.44 0 0 0-5.195 3.836m-1.375 7.543c.465 0 .844.378.844.843a.845.845 0 0 1-.844.844h-6.766a.845.845 0 0 1-.844-.844c0-.465.38-.843.844-.843Zm-5.977-.645V20.41h5.188v2.758Zm5.516-3.402H1.625a.5.5 0 0 1-.496-.5v-2.352H18.73c-.054.313-.09.629-.09.957 0 .668.13 1.305.348 1.895Zm7.031 2.898a4.8 4.8 0 0 1-4.793-4.793 4.8 4.8 0 0 1 4.793-4.793 4.796 4.796 0 0 1 4.793 4.793 4.796 4.796 0 0 1-4.793 4.793m0 0"/></g><path fill="#061c3d" d="M24.781 21.36h-1.406a.323.323 0 0 1-.32-.325v-.707q-.316-.13-.59-.34l-.613.352a.34.34 0 0 1-.247.035.33.33 0 0 1-.195-.152l-.703-1.215a.324.324 0 0 1 .117-.442l.613-.351a2.6 2.6 0 0 1 0-.684l-.613-.355a.34.34 0 0 1-.148-.196.3.3 0 0 1 .031-.242l.703-1.218a.31.31 0 0 1 .195-.149.32.32 0 0 1 .247.031l.613.356c.183-.14.379-.258.59-.344v-.707c0-.18.144-.32.32-.32h1.406c.18 0 .32.14.32.32v.707q.318.13.594.344l.614-.356a.3.3 0 0 1 .242-.03c.082.019.152.073.195.148l.703 1.218a.3.3 0 0 1 .031.242.31.31 0 0 1-.148.196l-.613.355a2.5 2.5 0 0 1 0 .684l.613.351c.152.09.207.286.117.442l-.703 1.215a.33.33 0 0 1-.195.152.33.33 0 0 1-.242-.035l-.614-.352q-.276.21-.593.34v.707a.32.32 0 0 1-.32.324m-1.082-.645h.762v-.61c0-.14.09-.265.223-.308.28-.086.535-.235.757-.438a.32.32 0 0 1 .38-.043l.53.305.38-.656-.528-.309a.32.32 0 0 1-.152-.347 2.1 2.1 0 0 0 0-.875.32.32 0 0 1 .152-.348l.527-.305-.378-.66-.532.305a.32.32 0 0 1-.379-.04 1.9 1.9 0 0 0-.757-.44.32.32 0 0 1-.223-.31v-.609h-.762v.61c0 .14-.094.265-.226.308a1.9 1.9 0 0 0-.758.442.32.32 0 0 1-.38.039l-.526-.305-.383.66.531.305a.32.32 0 0 1 .152.348 2 2 0 0 0-.05.437c0 .145.02.293.05.438a.32.32 0 0 1-.152.347l-.531.309.383.656.527-.305a.32.32 0 0 1 .379.043c.223.203.476.352.758.438a.33.33 0 0 1 .226.308Zm.38-1.559a1.286 1.286 0 1 1 .001-2.572 1.286 1.286 0 0 1-.002 2.572m0-1.93c-.356 0-.642.29-.642.645a.642.642 0 1 0 1.286 0 .645.645 0 0 0-.645-.644M7.746 13.078H6.34a.323.323 0 0 1-.32-.324v-.703a2.7 2.7 0 0 1-.59-.344l-.614.355a.325.325 0 0 1-.441-.12l-.703-1.215a.325.325 0 0 1 .121-.442l.61-.351a3 3 0 0 1-.02-.344q.001-.17.02-.34l-.61-.355a.33.33 0 0 1-.152-.196.33.33 0 0 1 .03-.242l.704-1.219a.31.31 0 0 1 .195-.148.32.32 0 0 1 .246.031l.614.356q.274-.213.59-.344v-.707c0-.176.144-.32.32-.32h1.406c.18 0 .324.144.324.32v.707c.207.086.407.203.59.344l.613-.356a.3.3 0 0 1 .243-.031c.082.02.152.074.195.148l.703 1.219a.3.3 0 0 1 .031.242.31.31 0 0 1-.148.196l-.613.355a2.5 2.5 0 0 1 0 .684l.613.351a.32.32 0 0 1 .117.442l-.703 1.214a.32.32 0 0 1-.438.121l-.613-.355a2.8 2.8 0 0 1-.59.344v.703c0 .18-.144.324-.324.324m-1.082-.644h.762v-.61c0-.14.09-.265.226-.308a2 2 0 0 0 .754-.438.32.32 0 0 1 .38-.043l.53.309.38-.66-.528-.305a.32.32 0 0 1-.152-.352 2.1 2.1 0 0 0 0-.875.32.32 0 0 1 .152-.347l.527-.305-.379-.66-.53.305a.32.32 0 0 1-.38-.04 2.05 2.05 0 0 0-.754-.44.32.32 0 0 1-.226-.306V6.75h-.762v.61c0 .14-.094.261-.226.304-.278.09-.536.234-.758.441a.32.32 0 0 1-.375.04l-.532-.305-.382.66.53.305a.32.32 0 0 1 .153.347 2 2 0 0 0-.05.438c0 .144.019.293.05.437a.32.32 0 0 1-.152.352l-.531.305.382.66.532-.309a.31.31 0 0 1 .375.043c.222.203.48.352.758.438a.32.32 0 0 1 .226.308Zm.379-1.555a1.29 1.29 0 0 1-1.285-1.29c0-.706.578-1.284 1.285-1.284.71 0 1.289.578 1.289 1.285 0 .71-.578 1.289-1.289 1.289m0-1.93a.64.64 0 0 0-.64.64c0 .356.288.645.64.645a.642.642 0 1 0 0-1.285M13.414 15.285a.32.32 0 0 1-.293-.195l-.187-.422q-.205-.001-.403-.043l-.273.371a.323.323 0 0 1-.45.066l-.828-.609a.3.3 0 0 1-.128-.21.33.33 0 0 1 .058-.24l.274-.37a2 2 0 0 1-.16-.371l-.461-.051a.324.324 0 0 1-.286-.356l.114-1.023a.33.33 0 0 1 .12-.215.32.32 0 0 1 .235-.07l.461.05q.048-.086.11-.167c.042-.055.081-.106.128-.157l-.183-.421a.32.32 0 0 1-.004-.247.32.32 0 0 1 .168-.18l.941-.413a.324.324 0 0 1 .426.168l.184.422q.205 0 .406.043l.273-.372a.32.32 0 0 1 .211-.125.33.33 0 0 1 .238.059l.829.61a.32.32 0 0 1 .125.21.3.3 0 0 1-.059.239l-.27.37q.099.178.16.372l.458.05a.32.32 0 0 1 .285.355l-.113 1.024a.324.324 0 0 1-.356.286l-.457-.051q-.054.086-.113.168-.059.084-.13.16l.188.418a.324.324 0 0 1-.168.426l-.941.414a.4.4 0 0 1-.129.027m-.273-1.27a.32.32 0 0 1 .293.192l.148.332.352-.156-.145-.328a.32.32 0 0 1 .082-.371q.118-.106.207-.223a1.5 1.5 0 0 0 .152-.266.32.32 0 0 1 .329-.187l.359.039.043-.383-.36-.039a.32.32 0 0 1-.28-.258 1.4 1.4 0 0 0-.243-.555.32.32 0 0 1 0-.378l.215-.29-.309-.23-.214.293a.325.325 0 0 1-.364.113 1.34 1.34 0 0 0-.597-.066.33.33 0 0 1-.332-.191l-.145-.333-.352.157.145.328a.32.32 0 0 1-.082.37q-.118.106-.207.224a1.5 1.5 0 0 0-.152.265.31.31 0 0 1-.329.188l-.359-.04-.043.383.36.04c.14.015.253.12.28.257q.06.31.243.555a.32.32 0 0 1 0 .379l-.215.289.309.23.215-.289a.32.32 0 0 1 .363-.113q.286.096.597.063zm-.18799999999999994-.351c-.215 0-.426-.07-.605-.203a1.024 1.024 0 0 1-.22-1.434 1.029 1.029 0 0 1 1.845.453 1.03 1.03 0 0 1-1.02 1.184m-.223-.719q.125.088.286.07a.385.385 0 0 0 .168-.69.385.385 0 0 0-.454.62m0 0"/></svg>