<svg xmlns="http://www.w3.org/2000/svg" width="40" height="40" version="1.0" viewBox="0 0 30 30"><defs><clipPath id="a"><path d="M18 18h11.242v11.031H18Zm0 0"/></clipPath><clipPath id="b"><path d="M.938 10h28.304v19H.938Zm0 0"/></clipPath></defs><g clip-path="url(#a)"><path fill="#061c3d" d="M28.594 25.195a.464.464 0 0 0 .469-.469v-1.703a.45.45 0 0 0-.137-.328.45.45 0 0 0-.332-.14H28a4 4 0 0 0-.262-.637l.418-.418a.46.46 0 0 0 .137-.332.46.46 0 0 0-.137-.332l-1.203-1.203a.45.45 0 0 0-.332-.137.45.45 0 0 0-.328.137l-.422.422a4 4 0 0 0-.637-.266v-.594a.464.464 0 0 0-.468-.468h-1.703a.45.45 0 0 0-.329.136.45.45 0 0 0-.136.332v.594q-.333.106-.641.266l-.418-.422a.46.46 0 0 0-.332-.137.46.46 0 0 0-.332.137l-1.203 1.203a.46.46 0 0 0-.137.332q.001.192.137.332l.422.418a4.3 4.3 0 0 0-.266.637h-.594a.45.45 0 0 0-.332.14q-.136.135-.136.328v1.704a.464.464 0 0 0 .468.468h.594q.106.331.266.637l-.422.422q-.136.135-.137.328.001.195.137.332l1.203 1.203q.14.136.332.137a.46.46 0 0 0 .332-.137l.418-.418q.309.158.64.262v.594q-.001.192.137.332.135.136.328.136h1.704a.464.464 0 0 0 .468-.468v-.594q.331-.104.637-.262l.422.418q.135.136.328.137a.46.46 0 0 0 .332-.137l1.203-1.203a.46.46 0 0 0 .137-.332.45.45 0 0 0-.137-.328l-.418-.422a4 4 0 0 0 .262-.637Zm-1.477-.304q-.089.275-.219.527a.87.87 0 0 0-.097.55q.041.289.246.5l.117.114-.543.543-.113-.117a.88.88 0 0 0-.5-.246.87.87 0 0 0-.551.097q-.252.13-.527.22a.85.85 0 0 0-.453.32.9.9 0 0 0-.18.527v.16h-.766v-.16a.86.86 0 0 0-.176-.528.84.84 0 0 0-.457-.32 4 4 0 0 1-.527-.219.86.86 0 0 0-.547-.097.86.86 0 0 0-.5.246l-.117.117-.543-.543.117-.113a.88.88 0 0 0 .246-.5.87.87 0 0 0-.093-.551 3 3 0 0 1-.22-.527.88.88 0 0 0-.32-.453.9.9 0 0 0-.527-.18h-.164v-.766h.164a.885.885 0 0 0 .848-.633q.085-.275.219-.527a.86.86 0 0 0 .093-.547.86.86 0 0 0-.246-.5l-.117-.117.543-.543.117.117a.86.86 0 0 0 .5.246.86.86 0 0 0 .547-.093c.172-.09.344-.165.527-.22a.885.885 0 0 0 .633-.847v-.164h.766v.164a.9.9 0 0 0 .18.527q.177.234.453.32.276.084.527.22c.172.09.355.125.55.093a.88.88 0 0 0 .5-.246l.114-.117.543.543-.117.117a.86.86 0 0 0-.246.5.86.86 0 0 0 .097.547q.13.252.22.527.083.282.32.457a.86.86 0 0 0 .527.176h.16v.766h-.16a.9.9 0 0 0-.527.18.85.85 0 0 0-.32.453m0 0"/></g><path fill="#061c3d" d="M23.914 21.3a2.59 2.59 0 0 0-1.82.755 2.574 2.574 0 1 0 3.64 0 2.6 2.6 0 0 0-.836-.555q-.468-.2-.984-.2m0 4.212q-.324 0-.625-.121a1.65 1.65 0 0 1-.887-.887 1.637 1.637 0 0 1 .355-1.785q.229-.234.532-.356.301-.127.625-.125c.219 0 .426.04.629.125q.298.123.531.356.228.227.356.531.122.301.12.625c0 .219-.038.426-.124.629a1.6 1.6 0 0 1-.352.527 1.6 1.6 0 0 1-.531.356q-.302.127-.629.125m0 0"/><g clip-path="url(#b)"><path fill="#061c3d" d="m1.352 15.91 1.972.426v8.477q-.001.364.356.453l11.23 2.808q.113.031.227-.004v.004l3.742-.937-.227-.907-3.16.79V15.78l1.985 2.317a.45.45 0 0 0 .453.152l7.855-1.707v2.184h.938v-2.391l1.972-.426a.44.44 0 0 0 .348-.328.44.44 0 0 0-.117-.46l-2.809-2.81a.45.45 0 0 0-.246-.124v-.004l-7.484-1.403-.172.918 4.941.926-8.133 1.418-8.132-1.418 4.941-.926-.172-.918-7.484 1.403v.004a.44.44 0 0 0-.246.124l-2.809 2.81a.44.44 0 0 0-.117.46q.077.27.348.328m2.91 8.535v-7.902l7.855 1.707a.446.446 0 0 0 .453-.152l1.985-2.317V27.02Zm21.367-11.297 2.027 2.028-9.652 2.097-2.09-2.437Zm-21.211 0 9.715 1.688-2.09 2.437-9.652-2.097Zm0 0"/></g><path fill="#061c3d" d="M10.832 5.754q-.105 1.054.29 2.043a4.26 4.26 0 0 0 1.19 1.68q.371.322.372.816v.95q-.002.368.144.714.141.341.406.605.259.265.606.407.345.143.715.144h.937a1.88 1.88 0 0 0 1.727-1.156q.145-.345.144-.715v-.949a1.02 1.02 0 0 1 .36-.809q.351-.303.632-.671.28-.373.473-.793a4.3 4.3 0 0 0 .406-1.79 4.6 4.6 0 0 0-.086-.921 4.4 4.4 0 0 0-.738-1.68q-.271-.376-.617-.688a4.1 4.1 0 0 0-1.512-.867 4 4 0 0 0-1.738-.168c-.48.063-.941.203-1.375.422q-.652.323-1.156.852c-.34.347-.61.746-.813 1.187a4.3 4.3 0 0 0-.367 1.387m2.79 4.55h2.804v.47H13.62Zm1.87 1.872h-.937a.87.87 0 0 1-.805-.469h2.547a.87.87 0 0 1-.805.469m-.844-9.336q.186-.024.38-.024 1.23 0 2.14.825.275.246.484.539a3.45 3.45 0 0 1 .578 1.32c.047.234.07.477.07.719a3.44 3.44 0 0 1-.69 2.023 3.3 3.3 0 0 1-.493.531 1.9 1.9 0 0 0-.46.594h-1.165v-.933a.45.45 0 0 0-.187-.375l-1.61-1.207a.18.18 0 0 1-.074-.153v-.414c.004-.082.047-.137.121-.168a.19.19 0 0 1 .207.031l.274.274q.162.157.37.238a1.15 1.15 0 0 0 .86 0q.207-.081.367-.238l.278-.274a.19.19 0 0 1 .207-.03c.074.03.117.085.12.167V6.7a.18.18 0 0 1-.077.153l-.668.503.558.75.672-.503q.451-.34.453-.903v-.414q.001-.341-.191-.625a1.1 1.1 0 0 0-.508-.418 1.1 1.1 0 0 0-.652-.062 1.1 1.1 0 0 0-.578.308l-.274.274q-.136.135-.273 0l-.274-.274a1.1 1.1 0 0 0-.578-.308 1.1 1.1 0 0 0-.652.062 1.1 1.1 0 0 0-.508.418 1.1 1.1 0 0 0-.191.625V6.7q0 .563.453.903l1.418 1.066v.7h-1.168q-.174-.345-.465-.602a3.36 3.36 0 0 1-.934-1.32 3.4 3.4 0 0 1-.222-1.602 3.34 3.34 0 0 1 1.816-2.668 3.3 3.3 0 0 1 1.066-.336M14.555.008h.937v1.406h-.937ZM19.703 5.625h1.402v.938h-1.402ZM8.941 5.625h1.403v.938H8.94ZM10.39 2.121l.66-.66.997.992-.664.66ZM18 2.453l.996-.992.66.66-.992.992Zm0 0"/></svg>