<svg xmlns="http://www.w3.org/2000/svg" width="40" height="40" version="1.0" viewBox="0 0 30 30"><defs><clipPath id="a"><path d="M18 26h11.516v3H18Zm0 0"/></clipPath><clipPath id="b"><path d="M.484 26H12v3H.484Zm0 0"/></clipPath></defs><path fill="#061c3d" d="M20.137 19.035c-.52 0-.93.461-.93 1.02v5.133a.33.33 0 0 0 .328.332.33.33 0 0 0 .332-.332V22l7.809.023v3.2c0 .183.148.332.332.332a.33.33 0 0 0 .328-.332v-5.157c0-.562-.418-1.02-.93-1.02zm7.539 1.031v1.297l-7.809-.023v-1.285c0-.176.11-.36.27-.36l7.27.012c.144 0 .269.164.269.36m0 0"/><g clip-path="url(#a)"><path fill="#061c3d" d="M29.34 26.527a.33.33 0 0 0-.328-.28h-10.5a.334.334 0 0 0-.332.339c.043 1.816 1.343 2.336 2.035 2.36h6.883c1.664 0 2.425-1.231 2.242-2.419m-6.438.383h1.73v.356h-1.73Zm4.196 1.375h-6.871c-.051 0-1.165-.055-1.36-1.375h3.375v.402c0 .34.278.618.617.618h1.82c.34 0 .614-.278.614-.617v-.403h3.402c-.039.82-.562 1.375-1.597 1.375m0 0"/></g><path fill="#061c3d" d="M25.66 20.914h1.059a.33.33 0 0 0 .332-.328.33.33 0 0 0-.332-.332H25.66a.33.33 0 0 0 0 .66M20.797 20.914h.25a.33.33 0 0 0 .332-.328.33.33 0 0 0-.332-.332h-.25a.33.33 0 0 0 0 .66M23.676 23.348a.33.33 0 0 0-.328.328.33.33 0 0 0 .328.332h2.86a.33.33 0 0 0 .331-.332.33.33 0 0 0-.332-.328ZM20.918 22.492a.33.33 0 0 0-.332.328v1.61c0 .18.148.328.332.328h1.492a.33.33 0 0 0 .332-.328v-1.61a.33.33 0 0 0-.332-.328Zm1.164 1.606h-.832v-.946h.832ZM10.328 25.578a.33.33 0 0 0 .332-.332v-5.16c0-.559-.418-1.02-.93-1.02l-7.273-.011c-.523 0-.93.468-.93 1.023v5.133c0 .184.149.328.332.328.18 0 .329-.144.329-.328V22.02l7.808.027v3.2c0 .183.149.331.332.331m-8.14-4.219v-1.28c0-.177.109-.364.269-.364l7.27.012c.148 0 .27.168.27.359v1.3Zm0 0"/><g clip-path="url(#b)"><path fill="#061c3d" d="M2.54 28.969h6.882c1.66 0 2.422-1.23 2.238-2.418a.33.33 0 0 0-.324-.281H.832a.33.33 0 0 0-.332.335c.043 1.817 1.344 2.34 2.04 2.364m8.476-2.04c-.036.821-.559 1.38-1.594 1.38H2.547c-.05-.004-1.164-.055-1.356-1.38Zm0 0"/></g><path fill="#061c3d" d="M8.793 20.25h-.988a.33.33 0 0 0-.328.328c0 .184.144.332.328.332h.988a.33.33 0 0 0 0-.66M3.348 20.25H3.27a.33.33 0 0 0 0 .66h.078a.33.33 0 0 0 0-.66M4.36 20.25H4.28a.33.33 0 0 0 0 .66h.078a.33.33 0 0 0 0-.66M5.18 27.95H7a.33.33 0 0 0 .332-.333A.33.33 0 0 0 7 27.29H5.18a.33.33 0 0 0 0 .66M3.27 22.652a.33.33 0 0 0-.329.332v1.532a.33.33 0 0 0 .329.332h1.496a.33.33 0 0 0 .332-.332v-1.532a.33.33 0 0 0-.332-.332Zm1.164 1.535h-.832v-.875h.832ZM6.09 23.531a.33.33 0 0 0-.332.328c0 .184.148.332.332.332h2.805a.33.33 0 0 0 .332-.332.33.33 0 0 0-.332-.328ZM11.293 11.969l1.062 1.097a.33.33 0 0 0 .461.016l.442-.395.629.286.093.527c.028.16.165.273.325.273l1.5-.027a.33.33 0 0 0 .316-.258l.106-.472.722-.356.457.383c.13.11.32.102.442-.012l.922-.879a.33.33 0 0 0 .058-.406l-.375-.625.344-.773.457-.024a.33.33 0 0 0 .316-.332l-.008-1.52a.335.335 0 0 0-.308-.327l-.457-.032-.238-.61.464-.374a.33.33 0 0 0 .032-.484l-1.25-1.332a.333.333 0 0 0-.47-.012l-.48.457-.714-.317-.028-.632a.33.33 0 0 0-.328-.317l-1.539-.004a.33.33 0 0 0-.328.328l-.008.653-.652.328-.45-.492a.33.33 0 0 0-.476-.008l-1.16 1.16a.325.325 0 0 0-.027.438l.433.543-.254.68-.562.027a.33.33 0 0 0-.313.34l.043 1.542a.34.34 0 0 0 .324.32l.516.012.211.829-.273.343a.34.34 0 0 0 .023.438m-.148-2.278-.024-.902.453-.023a.32.32 0 0 0 .293-.215l.395-1.059c.039-.11.02-.23-.051-.324l-.363-.453.707-.707.383.418c.097.11.257.14.39.074l1.059-.531a.33.33 0 0 0 .183-.293l.004-.524h.895l.02.524a.33.33 0 0 0 .195.289l1.105.484a.32.32 0 0 0 .36-.062l.402-.38.781.833-.379.305a.33.33 0 0 0-.098.375l.403 1.027a.32.32 0 0 0 .281.21l.363.024.004.899-.343.015a.33.33 0 0 0-.286.2l-.496 1.113a.32.32 0 0 0 .016.305l.328.542-.52.493-.394-.332a.33.33 0 0 0-.36-.043l-1.058.52a.35.35 0 0 0-.176.222l-.086.375-.949.02-.074-.422a.34.34 0 0 0-.188-.247l-.984-.445a.33.33 0 0 0-.36.055l-.367.328-.64-.664.195-.246a.33.33 0 0 0 .059-.285l-.313-1.23a.33.33 0 0 0-.312-.25Zm0 0"/><path fill="#061c3d" d="M15.012 11.527c1.25 0 2.27-1.02 2.27-2.27a2.275 2.275 0 0 0-2.27-2.273 2.276 2.276 0 0 0-2.274 2.274c0 1.25 1.02 2.27 2.274 2.27m0-3.879c.886 0 1.605.72 1.605 1.61 0 .887-.719 1.61-1.605 1.61a1.61 1.61 0 0 1 0-3.22m0 0"/><path fill="#061c3d" d="M10.766 3.633c-2.828-.985-5.778 1.215-5.297 3.949-1.66.445-2.832 1.852-2.832 3.461 0 1.988 1.77 3.605 3.945 3.605 1.356.012 5.277.051 5.211.051a.333.333 0 0 0 .332-.328.33.33 0 0 0-.328-.332l-5.211-.05c-1.813 0-3.29-1.321-3.29-2.946 0-1.395 1.106-2.61 2.63-2.887a.33.33 0 0 0 .258-.422c-.707-2.359 2.078-4.476 4.59-3.386.156.066.34.004.421-.145 1.918-3.46 7.555-3.05 8.817.64a.327.327 0 0 0 .394.212c1.637-.426 3.547.707 3.547 2.457 0 .37-.086.718-.25 1.035a.327.327 0 0 0 .281.48c1.536.043 2.739 1.16 2.739 2.54 0 1.402-1.274 2.538-2.836 2.538l-5.809-.05a.33.33 0 0 0-.328.328.325.325 0 0 0 .324.332l5.809.05c1.93 0 3.5-1.433 3.5-3.199 0-1.593-1.242-2.906-2.91-3.156.738-2.281-1.442-4.453-3.942-4.055-1.605-3.894-7.48-4.328-9.765-.722M12.574 25.605h4.63c.401 0 .73-.332.73-.734v-2.719a.733.733 0 0 0-.73-.734h-4.63a.734.734 0 0 0-.734.734v2.72c0 .401.328.733.734.733m-.074-3.453c0-.039.035-.074.074-.074h4.63c.038 0 .07.035.07.074v2.72a.07.07 0 0 1-.07.07h-4.63c-.039 0-.074-.032-.074-.07Zm0 0"/><path fill="#061c3d" d="M13.785 23.84h.414a.33.33 0 0 0 .332-.328.33.33 0 0 0-.332-.332h-.414a.33.33 0 0 0-.332.332c0 .183.149.328.332.328M15.578 23.84h.414c.18 0 .328-.145.328-.328a.33.33 0 0 0-.328-.332h-.414a.33.33 0 0 0-.332.332c0 .183.149.328.332.328M23.02 16h-4.922a.33.33 0 0 0-.328.332c0 .184.148.328.328.328h4.922c.23 0 .421.192.421.426v.734a.33.33 0 0 0 .329.332.33.33 0 0 0 .332-.332v-.734c0-.598-.485-1.086-1.082-1.086M11.988 16.332a.33.33 0 0 0-.332-.332h-5.14c-.598 0-1.082.488-1.082 1.086v.734a.33.33 0 0 0 .328.332.33.33 0 0 0 .332-.332v-.734c0-.234.191-.426.422-.426h5.14a.33.33 0 0 0 .332-.328M14.219 18.918a.33.33 0 0 0-.465.055.33.33 0 0 0 .055.465l.879.69a.33.33 0 0 0 .402.005l.914-.692a.331.331 0 0 0-.399-.527l-.39.297.008-2.703c.273.219.34.367.543.367.09 0 .18-.035.246-.11a.333.333 0 0 0-.028-.468l-.875-.77a.33.33 0 0 0-.347-.05c-.047-.004-.192.148-.965.816a.33.33 0 0 0-.031.465.33.33 0 0 0 .464.031l.329-.285-.004 2.68Zm0 0"/></svg>