<svg xmlns="http://www.w3.org/2000/svg" width="40" height="40" version="1.0" viewBox="0 0 30 30"><defs><clipPath id="a"><path d="M.484.18h29.032V29H.484Zm0 0"/></clipPath></defs><g clip-path="url(#a)"><path fill="#061c3d" d="M13.996 15.05a.43.43 0 0 1-.43-.429c0-.238.192-.43.43-.43h2.61c.238 0 .433.192.433.43s-.195.43-.434.43Zm2.734-9.269a.432.432 0 0 1 0-.863h3.504a.432.432 0 0 1 0 .863Zm0-1.918a.432.432 0 0 1 0-.863h3.504a.432.432 0 0 1 0 .863ZM8.594 9.305a.434.434 0 0 1-.434-.43c0-.238.195-.434.434-.434h5.789a.432.432 0 0 1 0 .864Zm7.594 0a.434.434 0 0 1-.434-.43c0-.238.195-.434.434-.434h3.734a.432.432 0 0 1 0 .864Zm-4.696 2.875a.43.43 0 0 1 0-.864h4.418a.43.43 0 0 1 0 .863Zm5.793 0a.43.43 0 0 1 0-.864h2.848a.43.43 0 0 1 0 .863ZM9.063 2.645h5.812c.473 0 .86.386.86.855v2.125c0 .473-.387.86-.86.86H9.063a.864.864 0 0 1-.86-.86V3.5c0-.469.39-.855.86-.855m5.808.863H9.066V5.62h5.805ZM9.156 13.926a4.437 4.437 0 0 0-5.68 5.91 4.437 4.437 0 0 0 5.84 2.285 4.437 4.437 0 0 0-.16-8.191Zm-3.738-.719A5.294 5.294 0 1 1 9.66 22.91a5.294 5.294 0 1 1-4.242-9.703M4.242 23.625l.293.164.23-.41c.11-.2.356-.277.56-.18 1.456.64 3.1.582 4.456-.012 2.805-1.226 4.137-4.515 2.887-7.375a5.57 5.57 0 0 0-3.09-2.968 5.599 5.599 0 0 0-5.238 9.808.43.43 0 0 1 .113.59Zm.985.691c.16.266.171.602.011.887l-1.695 3.043a.894.894 0 0 1-1.211.344l-1.016-.567a.895.895 0 0 1-.343-1.214l1.695-3.04a.89.89 0 0 1 .762-.456l.105-.184a6.47 6.47 0 0 1-2.012-7.426 6.46 6.46 0 0 1 4.582-3.945V1.902c0-.933.766-1.699 1.7-1.699h12.851a1.7 1.7 0 0 1 1.7 1.7v.074c1.898.265 3.703.933 5.316 1.968.23.149.27.477.055.684q-.52.521-.989 1.09c.903.402 1.735.894 2.528 1.492.222.164.23.496.023.668v.004a15.1 15.1 0 0 0-3.957 5.316 9.1 9.1 0 0 0 3.645 1.434.43.43 0 0 1 .363.433c.008.688.023 1.329.035 1.918.129 6.27.14 6.895-5.867 10.043a.42.42 0 0 1-.403-.004c-2.984-1.562-4.484-2.503-5.214-3.828h-6.438c-.41.313-.855.575-1.324.778a6.45 6.45 0 0 1-4.797.156Zm-.75.426-1.016-.566-.043.012-1.695 3.039.011.046 1.016.563.043-.012 1.695-3.039Zm2.492-13.12a6.462 6.462 0 0 1 5.414 10.714h5.144c-.367-1.227-.332-2.836-.28-5.352q.016-.89.034-1.933c0-.211.157-.383.36-.418a9.15 9.15 0 0 0 3.855-1.574V1.902a.84.84 0 0 0-.836-.836H7.805a.84.84 0 0 0-.836.836Zm13.89 8.26a.431.431 0 0 1 .61-.609l1.457 1.457 2.156-3.738a.427.427 0 0 1 .586-.152.43.43 0 0 1 .156.586l-2.422 4.195a.43.43 0 0 1-.691.113Zm2.246 5.403c-4.632-2.426-4.62-2.91-4.523-7.75.012-.45.02-.945.027-1.469a.43.43 0 0 1 .364-.421 6.78 6.78 0 0 0 4.015-2.196.428.428 0 0 1 .645 0c1.027 1.176 2.472 1.95 4.015 2.196a.43.43 0 0 1 .364.433c.004.52.015 1.012.023 1.457.102 4.84.11 5.324-4.527 7.754a.42.42 0 0 1-.403-.004m-3.664-7.73c-.086 4.285-.097 4.777 3.868 6.867 3.964-2.09 3.957-2.582 3.867-6.867-.004-.352-.016-.723-.02-1.125a7.66 7.66 0 0 1-3.847-2.067 7.66 7.66 0 0 1-3.848 2.067c-.004.402-.012.773-.02 1.125m2.914-5.2a8 8 0 0 0 .446-.445 16 16 0 0 1 1.57-4.21 16 16 0 0 1 2.383-3.305 12.4 12.4 0 0 0-4.395-1.551v9.511Zm1.356-.558c.285.312.59.61.914.875a15.9 15.9 0 0 1 3.7-5.082 12.6 12.6 0 0 0-2.13-1.172 15.1 15.1 0 0 0-2.484 5.379M18.1 17c-.113 5.719-.128 6.352 5.208 9.16 5.336-2.808 5.324-3.441 5.207-9.16-.012-.488-.024-1.012-.032-1.582a9.9 9.9 0 0 1-5.175-2.79 9.93 9.93 0 0 1-5.176 2.79c-.008.57-.02 1.094-.031 1.582m0 0"/></g></svg>