<svg xmlns="http://www.w3.org/2000/svg" width="40" height="40" version="1.0" viewBox="0 0 30 30"><defs><clipPath id="a"><path d="M1.41 0h26.856v29.031H1.41Zm0 0"/></clipPath></defs><g clip-path="url(#a)"><path fill="#061c3d" fill-rule="evenodd" d="M16.46 22.96c.017.243-.128.735-.71.99a1.7 1.7 0 0 1-.312.1c0 .622-.88.602-.88.012a3 3 0 0 1-.769-.234.44.44 0 0 1-.21-.586.435.435 0 0 1 .581-.21c.336.155.867.273 1.235.113.14-.063.175-.122.183-.16-.008-.036-.047-.09-.187-.157-.34-.152-.512.02-1.121-.223-.004-.003-.012-.003-.016-.007-.566-.278-.715-.684-.703-.98.023-.434.328-.88 1.008-1.04 0-.625.879-.601.879-.015q.416.062.773.238a.446.446 0 0 1 .203.59.443.443 0 0 1-.59.203c-.293-.145-.863-.274-1.203-.114-.137.067-.187.114-.187.16.015.063.12.126.191.16.313.141.605-.007 1.117.223.559.247.7.649.719.938M15 25.032a2.72 2.72 0 0 0 2.719-2.718A2.72 2.72 0 0 0 15 19.593a2.72 2.72 0 0 0-2.719 2.72A2.72 2.72 0 0 0 15 25.03m0-6.316a3.604 3.604 0 0 0-3.602 3.598A3.604 3.604 0 0 0 15 25.91a3.6 3.6 0 0 0 3.598-3.597A3.6 3.6 0 0 0 15 18.715M6.871 3.813c0-.688.66-1.247 1.477-1.247h3.949V5.31c0 1.171 1.058 2.125 2.36 2.125h2.374c-.21.468-.75.804-1.383.804H9.906c-.812 0-1.511.262-2.086.778l-.949.855Zm6.309-1.688v3.184c0 .687.664 1.246 1.476 1.246h5.746c.782 0 1.735.101 2.176.886l.86 1.547V2.125c0-.687-.665-1.246-1.481-1.246h-7.3c-.813 0-1.477.559-1.477 1.246m-6.93 9.133c.156.07.344.043.473-.074L8.41 9.668q.61-.546 1.496-.547h5.742c1.133 0 2.082-.726 2.309-1.687h2.445c.793 0 1.239.136 1.407.433l1.683 3.028c.219.39.824.238.824-.215V2.125C24.316.953 23.258 0 21.957 0h-7.3c-1.134 0-2.083.723-2.305 1.688H8.348c-1.301 0-2.36.953-2.36 2.125v7.042c0 .176.106.332.262.403m21.45 12.23a.466.466 0 0 1-.466.465h-6.023l-.875-.973a5.5 5.5 0 0 0 0-1.335l.96-1.067a.58.58 0 0 0 .071-.676l-.703-1.215a3.8 3.8 0 0 1 2.688-1.785l-.97 4.473a.43.43 0 0 0 .09.375l1.094 1.324c.176.211.504.211.68 0l1.094-1.324a.43.43 0 0 0 .09-.375l-.97-4.473a3.8 3.8 0 0 1 3.24 3.754Zm-8.083 2.504.88-1.52-.954-1.054a.44.44 0 0 1-.105-.367 4.5 4.5 0 0 0 0-1.477.44.44 0 0 1 .105-.367l.953-1.055-.879-1.52-1.39.298a.44.44 0 0 1-.372-.09 4.4 4.4 0 0 0-1.277-.738.43.43 0 0 1-.262-.278l-.441-1.351h-1.754l-.437 1.351a.45.45 0 0 1-.266.278c-.461.171-.89.421-1.277.738a.44.44 0 0 1-.371.09l-1.391-.297-.875 1.52.95 1.054c.089.102.128.234.108.367a4.5 4.5 0 0 0 0 1.477c.02.133-.019.27-.109.367l-.95 1.055.876 1.52 1.39-.298a.44.44 0 0 1 .372.094c.386.316.816.563 1.277.738a.45.45 0 0 1 .266.274l.437 1.351h1.754l.441-1.351a.43.43 0 0 1 .262-.274 4.5 4.5 0 0 0 1.277-.738.44.44 0 0 1 .372-.094Zm-17.32-2.504v-2.832a3.8 3.8 0 0 1 3.238-3.754l-.969 4.473a.45.45 0 0 0 .09.375l1.098 1.324c.176.211.5.211.676 0l1.097-1.324a.45.45 0 0 0 .09-.375l-.972-4.473a3.8 3.8 0 0 1 2.687 1.785l-.7 1.215a.58.58 0 0 0 .071.676l.957 1.067a5.5 5.5 0 0 0 0 1.335l-.875.973h-6.02a.47.47 0 0 1-.468-.465M6.09 12.801a1.589 1.589 0 1 1 .002 3.182A1.589 1.589 0 0 1 6.09 12.8m0 5.695-.617 2.856.617.75.62-.75Zm5.336-4.043h.652v3.344a6 6 0 0 0-.328.23l-.324-.07Zm3.37-2.094h.653v3.235h-.652Zm3.372-2.09h.652v7.633l-.574.125q-.042-.03-.078-.058Zm5.738 2.532a1.589 1.589 0 1 1 .002 3.182 1.589 1.589 0 0 1-.002-3.182m0 5.695-.62 2.856.62.75.621-.75Zm1.606-2.23a2.467 2.467 0 0 0-1.606-4.344 2.467 2.467 0 0 0-1.605 4.344 4.7 4.7 0 0 0-2.14 1.601.58.58 0 0 0-.462-.148v-7.89a.44.44 0 0 0-.441-.438h-1.531a.44.44 0 0 0-.442.437v7.617a2 2 0 0 0-.2-.09l-.44-1.363a.58.58 0 0 0-.317-.351v-3.72a.44.44 0 0 0-.441-.44h-1.532c-.242 0-.44.199-.44.44v3.673a.58.58 0 0 0-.563.398l-.395 1.219v-3.2a.44.44 0 0 0-.441-.437h-1.532a.437.437 0 0 0-.437.438v3.758c-.25-.055-.473-.118-.711.097a4.67 4.67 0 0 0-2.14-1.601 2.46 2.46 0 0 0 .867-1.875c0-1.36-1.11-2.47-2.473-2.47a2.467 2.467 0 0 0-1.605 4.344 4.68 4.68 0 0 0-3.067 4.391v2.832c0 .742.605 1.344 1.348 1.344h5.93l1.03 1.79a.58.58 0 0 0 .622.276l1.402-.296c.36.27.746.496 1.16.668l.442 1.363a.58.58 0 0 0 .55.398h2.192c.254 0 .472-.16.55-.398l.442-1.363a5.3 5.3 0 0 0 1.16-.668l1.402.296a.58.58 0 0 0 .622-.277l1.035-1.789h5.93c.742 0 1.347-.602 1.347-1.344v-2.832a4.68 4.68 0 0 0-3.07-4.39m0 0"/></g></svg>