<svg xmlns="http://www.w3.org/2000/svg" width="40" height="40" version="1.0" viewBox="0 0 30 30"><defs><clipPath id="a"><path d="M1.39 0h27.583v29.031H1.39Zm0 0"/></clipPath></defs><g clip-path="url(#a)"><path fill="#fff" d="M28.402.473a.42.42 0 0 0-.41-.004L22.672 3.5a.41.41 0 0 0-.207.36v11.617a8.4 8.4 0 0 0-3.453-2.563V5.63a.415.415 0 0 0-.617-.36l-5.32 3.036a.4.4 0 0 0-.208.355v4.254a8.4 8.4 0 0 0-3.453 2.563V10.43a.42.42 0 0 0-.203-.356.4.4 0 0 0-.41 0l-5.32 3.031a.41.41 0 0 0-.208.356v13.398c0 .227.184.41.41.41h5.32a.41.41 0 0 0 .411-.41v-.976a8.342 8.342 0 0 0 13.05 0v.976c0 .227.184.41.411.41h5.32a.41.41 0 0 0 .41-.41V.83a.41.41 0 0 0-.203-.356M13.687 8.898l4.5-2.562v6.305a8.2 8.2 0 0 0-2.25-.309c-.777 0-1.53.105-2.25.309ZM8.595 26.445h-4.5V13.7l4.5-2.562v5.578A8.3 8.3 0 0 0 7.59 20.68c0 1.433.363 2.785 1.004 3.965Zm7.344 1.762c-4.149 0-7.528-3.375-7.528-7.527s3.38-7.528 7.528-7.528a7.534 7.534 0 0 1 7.527 7.528 7.534 7.534 0 0 1-7.527 7.527m11.847-1.762h-4.5v-1.8a8.3 8.3 0 0 0 1.004-3.965 8.3 8.3 0 0 0-1.004-3.965V4.098l4.5-2.563Zm-11.847-12.16a6.403 6.403 0 0 0-6.395 6.395 6.403 6.403 0 0 0 6.395 6.394 6.4 6.4 0 0 0 6.394-6.394 6.4 6.4 0 0 0-6.395-6.395m0 11.969c-3.07 0-5.57-2.5-5.57-5.574 0-3.075 2.5-5.575 5.57-5.575a5.58 5.58 0 0 1 5.574 5.575 5.58 5.58 0 0 1-5.574 5.574m2.019-4.113c0 .89-.687 1.632-1.598 1.808l.008.453a.41.41 0 0 1-.398.422h-.012a.414.414 0 0 1-.41-.402l-.012-.465c-.543-.098-.89-.383-1.223-.695a.41.41 0 1 1 .563-.598c.379.356.61.504 1.063.504.66 0 1.199-.461 1.199-1.027 0-.563-.54-1.024-1.2-1.024-1.113 0-2.019-.828-2.019-1.847 0-.887.691-1.633 1.602-1.81l-.012-.503a.416.416 0 0 1 .402-.422.416.416 0 0 1 .422.402l.012.536c.496.109 1.101.394 1.367.797a.415.415 0 0 1-.121.57.41.41 0 0 1-.567-.117c-.14-.211-.746-.48-1.085-.48-.66 0-1.196.46-1.196 1.027 0 .566.535 1.027 1.195 1.027 1.114 0 2.02.828 2.02 1.844m2.734-20.258L2.055 11.949a.411.411 0 1 1-.39-.723l18.476-9.98-1.692-.39a.41.41 0 0 1-.308-.493c.05-.222.27-.36.492-.308l2.754.633c.105.027.199.09.258.183a.43.43 0 0 1 .05.309l-.633 2.758a.411.411 0 0 1-.8-.188Zm0 0"/></g></svg>