<svg xmlns="http://www.w3.org/2000/svg" width="40" height="40" version="1.0" viewBox="0 0 30 30"><defs><clipPath id="a"><path d="M.719 0h28.308v29.031H.72Zm0 0"/></clipPath></defs><path fill="#061c3d" d="M12.613 7.715a1.3 1.3 0 0 1-.398.14 6.5 6.5 0 0 1-1.715.157l.023-1.246q.072.005.149.015c.465.04 1.246.114 1.629.293.129.063.273.137.363.239.066.066.102.152.094.214-.008.067-.067.133-.145.188m-2.05-2.817a6 6 0 0 1 1.417.07c.125.024.27.052.372.114.066.031.113.09.125.133.015.094-.118.242-.313.355-.336.196-1.039.344-1.629.414Zm2.636 1.918a1.8 1.8 0 0 0-.586-.394 2 2 0 0 0-.297-.117c.079-.035.149-.067.211-.106.493-.289.727-.687.664-1.101a.94.94 0 0 0-.476-.649 1.8 1.8 0 0 0-.61-.195c-.101-.016-.21-.02-.308-.035l.008-.672a.363.363 0 0 0-.36-.367.37.37 0 0 0-.367.355l-.008.63c-.168-.005-.328-.009-.496 0l.012-.65a.364.364 0 1 0-.727-.015l-.015.742q-.375.065-.75.164a.365.365 0 0 0 .195.703c.18-.054.363-.086.54-.12L9.772 7.94c-.132-.02-.261-.035-.39-.062a.36.36 0 1 0-.153.703c.176.04.356.066.528.09l-.016.683c0 .2.16.368.36.372h.003c.2 0 .364-.16.364-.36l.015-.629c.09 0 .176.016.27.016.098 0 .2-.016.3-.02l.016.606c.004.2.16.351.364.351h.004a.363.363 0 0 0 .359-.37l-.024-.653c.207-.031.407-.059.606-.105.207-.051.426-.114.625-.243a1 1 0 0 0 .469-.68c.043-.285-.059-.585-.274-.824"/><path fill="#061c3d" d="M11.105 11.008a4.465 4.465 0 0 1-4.464-4.461 4.47 4.47 0 0 1 4.464-4.461 4.464 4.464 0 0 1 4.458 4.46 4.46 4.46 0 0 1-4.458 4.462m0-9.406a4.955 4.955 0 0 0-4.949 4.945 4.95 4.95 0 0 0 4.95 4.945 4.95 4.95 0 0 0 4.94-4.945 4.95 4.95 0 0 0-4.94-4.945"/><g clip-path="url(#a)"><path fill="#061c3d" d="M24.18 16.082a4.04 4.04 0 0 1-4.032-4.031A4.04 4.04 0 0 1 24.18 8.02a4.04 4.04 0 0 1 4.039 4.03 4.04 4.04 0 0 1-4.04 4.032m-1.504 4.57a6.04 6.04 0 0 0-5.559-3.687 6.05 6.05 0 0 0-6.039 6.039c0 .101.012.203.016.305a7.9 7.9 0 0 1-2.692-1.524 4.79 4.79 0 0 0 2.059-3.93 4.81 4.81 0 0 0-4.77-4.8c.012-.75.176-1.504.48-2.196a6.53 6.53 0 0 0 4.934 2.25 6.566 6.566 0 0 0 6.56-6.562c0-.652-.102-1.281-.282-1.875a8.46 8.46 0 0 1 5.21 2.64 4.998 4.998 0 0 0 2.255 9.692 6.87 6.87 0 0 1-2.172 3.648m-5.559 7.422a5.075 5.075 0 0 1-5.07-5.07 5.08 5.08 0 0 1 5.07-5.074c2.215 0 4.102 1.433 4.79 3.422a.24.24 0 0 0 .034.152c.008.008.02.012.024.02.148.468.223.968.223 1.48a5.075 5.075 0 0 1-5.07 5.07M5.66 21.687a3.836 3.836 0 0 1-3.832-3.832 3.836 3.836 0 0 1 3.832-3.832 3.836 3.836 0 0 1 3.832 3.832 3.836 3.836 0 0 1-3.832 3.832m-.152-15.14c0-3.082 2.512-5.59 5.597-5.59a5.6 5.6 0 0 1 5.59 5.59 5.6 5.6 0 0 1-5.59 5.594 5.6 5.6 0 0 1-5.597-5.594m18.672.504c-.367 0-.723.043-1.067.113a8.98 8.98 0 0 0-5.906-3c-.957-2.441-3.328-4.172-6.102-4.172-3.617 0-6.562 2.938-6.562 6.555 0 1.457.48 2.797 1.293 3.89a6.15 6.15 0 0 0-.629 2.641 4.8 4.8 0 0 0-4.348 4.777c0 2.649 2.153 4.801 4.801 4.801.84 0 1.63-.218 2.32-.601a8.2 8.2 0 0 0 3.16 1.777c.407 2.938 2.93 5.211 5.977 5.211 3.328 0 6.04-2.711 6.04-6.04 0-.651-.106-1.276-.302-1.866a7.34 7.34 0 0 0 2.5-4.23 5 5 0 0 0 3.829-4.856c0-2.762-2.247-5-5.004-5"/></g><path fill="#061c3d" d="M24.18 15.168a3.117 3.117 0 1 1 3.121-3.117 3.12 3.12 0 0 1-3.121 3.117m0-6.719a3.607 3.607 0 0 0-3.598 3.602 3.604 3.604 0 0 0 3.598 3.601 3.606 3.606 0 0 0 3.605-3.601 3.61 3.61 0 0 0-3.605-3.602M5.66 20.82a2.97 2.97 0 0 1-2.969-2.965 2.97 2.97 0 0 1 2.97-2.968 2.966 2.966 0 0 1 0 5.934m0-6.414a3.456 3.456 0 0 0-3.453 3.45c0 1.902 1.55 3.449 3.453 3.449a3.453 3.453 0 0 0 3.45-3.45 3.453 3.453 0 0 0-3.45-3.449M17.117 27.207a4.21 4.21 0 0 1-4.203-4.203 4.2 4.2 0 1 1 4.203 4.203m0-8.887a4.69 4.69 0 0 0-4.687 4.684 4.694 4.694 0 0 0 4.687 4.687 4.693 4.693 0 0 0 4.684-4.687 4.687 4.687 0 0 0-4.684-4.684"/><path fill="#061c3d" d="M6.918 19.543c-.121.203-.402.312-.613.227-.2-.079-.348-.305-.36-.555-.015-.25.09-.586.192-.613a.3.3 0 0 1 .12-.02c.212 0 .466.125.583.262.168.191.203.492.078.699m-.91-3.148a.63.63 0 0 1 .566-.41h.008c.242.003.473.199.5.425.031.211-.098.45-.309.582-.218.137-.562.203-.636.133-.164-.164-.203-.527-.13-.73m-1.684 1.933h-.008a.61.61 0 0 1-.68-.172.545.545 0 0 1 .005-.66.6.6 0 0 1 .433-.168q.105.001.211.031c.242.075.516.293.512.399-.016.207-.25.488-.473.57m1.813-.223a.9.9 0 0 1-.04-.484 1 1 0 0 0 .169.016c.273 0 .574-.117.761-.235.375-.234.586-.66.535-1.054a1.015 1.015 0 0 0-.964-.848c-.45-.012-.883.293-1.047.73a1.1 1.1 0 0 0-.063.387c0 .207.047.422.14.61a.6.6 0 0 1-.413.27c-.145-.294-.52-.513-.785-.602-.422-.13-.88-.02-1.149.28-.312.345-.32.91-.023 1.286.203.25.527.39.851.39q.198 0 .38-.066c.296-.113.62-.414.741-.765.184.058.348.199.438.378-.18.274-.219.672-.207.84.023.442.289.832.664.98a.8.8 0 0 0 .336.063c.344 0 .687-.183.871-.488.23-.387.176-.918-.125-1.266-.227-.261-.668-.468-1.07-.422M17.266 23.488a.45.45 0 0 1-.286-.02 8 8 0 0 1-1.5-.761c.336-.676.844-1.441 1.415-2.11a.27.27 0 0 1 .203-.093h.007c.075 0 .149.027.2.078a8.8 8.8 0 0 1 1.492 1.996c.015.027.023.059.035.086-.395.363-.93.648-1.566.824m.082 2.02a.27.27 0 0 1-.196.09c-.066.02-.156-.032-.215-.09-.546-.547-1.07-1.43-1.464-2.137a1 1 0 0 1-.047-.121c.437.266.902.492 1.386.672a.9.9 0 0 0 .34.062.8.8 0 0 0 .243-.03c.496-.138.94-.34 1.32-.587-.363.7-.867 1.61-1.367 2.14m1.875-3.164a9.5 9.5 0 0 0-1.578-2.11.78.78 0 0 0-.57-.214.77.77 0 0 0-.548.261c-.613.719-1.16 1.547-1.511 2.278-.157.332-.145.726.035 1.046.406.735.953 1.653 1.543 2.247a.76.76 0 0 0 .55.226h.012c.211 0 .407-.086.547-.238.574-.617 1.121-1.63 1.535-2.434a1.17 1.17 0 0 0-.015-1.062M25.371 13.14a.3.3 0 0 1-.246.18c-.656.055-1.363.055-1.988-.008-.024 0-.043-.015-.055-.03-.004-.009-.02-.036-.016-.067.168-.922.57-2.223.84-2.899q.037-.082.114-.093c.132-.008.257-.016.378-.016q.198.002.38.016c-.16.504-.434 1.254-.641 1.793a.38.38 0 0 0 .05.355.41.41 0 0 0 .317.168c.32-.004.7 0 1.086.027-.078.25-.113.348-.219.575m.613-.859a.5.5 0 0 0-.386-.21 28 28 0 0 0-.957-.016c.078-.211.164-.442.246-.668q.01-.01.015-.008l.77-.316c.121-.047.18-.196.133-.317a.245.245 0 0 0-.32-.129l-.38.156q.076-.216.13-.398a.48.48 0 0 0-.051-.41.46.46 0 0 0-.336-.207 4 4 0 0 0-.868-.012.61.61 0 0 0-.52.387c-.132.312-.28.75-.42 1.215-.017.004-.024.004-.04.004l-.715.242a.245.245 0 0 0 .074.477.3.3 0 0 0 .082-.016l.434-.149c-.117.422-.219.848-.281 1.219a.57.57 0 0 0 .5.672c.336.031.695.047 1.058.047.34 0 .684-.016 1.016-.043a.8.8 0 0 0 .645-.453 4.4 4.4 0 0 0 .242-.645.48.48 0 0 0-.07-.422"/><path fill="#061c3d" d="M17.93 22.656c-.024.004-.043.008-.067.008a.245.245 0 0 1-.234-.18 3 3 0 0 0-.535-1.043.24.24 0 0 1 .031-.34.247.247 0 0 1 .344.04c.289.351.5.773.625 1.214a.244.244 0 0 1-.164.301"/></svg>