<svg xmlns="http://www.w3.org/2000/svg" width="40" height="40" version="1.0" viewBox="0 0 30 30"><defs><clipPath id="a"><path d="M.484.871h29.032v27.582H.484Zm0 0"/></clipPath></defs><g clip-path="url(#a)"><path fill="#061c3d" d="m19.648 7.18 2.313 1.68a.555.555 0 0 1-.328 1.004.56.56 0 0 1-.328-.106l-2.313-1.68a.556.556 0 0 1-.125-.777.564.564 0 0 1 .781-.121M8.387 9.875a.53.53 0 0 0 .324-.11l2.355-1.71a.555.555 0 0 0-.656-.895L8.06 8.871a.55.55 0 0 0-.121.774c.109.148.277.23.449.23M6.57 20.703a.56.56 0 0 0 .531-.73l-.882-2.715a.555.555 0 1 0-1.055.344l.883 2.714a.55.55 0 0 0 .523.387m9.965 4.063h-3.047a.557.557 0 0 0-.554.554c0 .305.25.555.554.555h3.047a.554.554 0 1 0 0-1.11m7.29-7.524-.891 2.738a.558.558 0 0 0 .527.727c.234 0 .45-.148.523-.383l.891-2.738a.56.56 0 0 0-.355-.7.554.554 0 0 0-.696.356m5.581-5.633-1.375 4.227a.555.555 0 0 1-.547.473h-4.546a.7.7 0 0 1-.16-.024q-.013-.004-.02-.008a.6.6 0 0 1-.133-.07.58.58 0 0 1-.129-.125q-.006-.011-.012-.016c-.011-.023-.027-.046-.039-.07a.2.2 0 0 1-.03-.078l-.052-.16-1.515 1.097c-.11.66-.328 1.29-.641 1.856l.54 1.644.23-.168a.545.545 0 0 1 .652 0l3.668 2.665c.195.14.277.39.203.62l-1.375 4.231a.555.555 0 0 1-.547.473h-4.547a.6.6 0 0 1-.16-.028q-.012-.004-.023-.003a.5.5 0 0 1-.133-.07q-.01-.008-.02-.02c-.039-.032-.078-.063-.11-.106q-.003-.011-.007-.015a.7.7 0 0 1-.074-.145v-.004l-1.402-4.308a.56.56 0 0 1 .199-.622l.074-.05-1.508-1.094a6.5 6.5 0 0 1-.832.062c-.293 0-.582-.027-.863-.066l-1.516 1.102.067.046c.191.141.277.391.199.622l-1.375 4.222a.555.555 0 0 1-.547.477H6.453a.6.6 0 0 1-.16-.028q-.006-.004-.023-.003c-.047-.02-.094-.04-.13-.07l-.023-.02a.5.5 0 0 1-.105-.106q-.006-.011-.012-.015a.6.6 0 0 1-.07-.145v-.004l-1.403-4.308a.55.55 0 0 1 .2-.622l3.671-2.668a.55.55 0 0 1 .649 0l.234.172.551-1.699a6 6 0 0 1-.605-1.77L7.68 15.767l-.028.09a.55.55 0 0 1-.547.472H2.56c-.055 0-.106-.012-.16-.023-.008-.004-.012-.004-.024-.008a.5.5 0 0 1-.133-.07q-.007-.005-.02-.016a.7.7 0 0 1-.117-.121.6.6 0 0 1-.074-.14v-.005L.63 11.625a.56.56 0 0 1 .203-.617L4.5 8.34a.56.56 0 0 1 .652 0l3.672 2.668c.192.14.278.39.2.617l-.09.273h1.754a5.9 5.9 0 0 1 1.765-1.316l.508-1.566h-.203c-.059 0-.11-.012-.16-.024q-.012-.004-.024-.008a.5.5 0 0 1-.129-.07c-.008-.008-.015-.008-.023-.016a.7.7 0 0 1-.106-.109c-.004-.008-.007-.008-.011-.016a.5.5 0 0 1-.07-.144h-.005l-1.402-4.316a.56.56 0 0 1 .2-.622l3.671-2.664a.56.56 0 0 1 .653 0l3.668 2.664a.56.56 0 0 1 .203.622l-1.368 4.23a.55.55 0 0 1-.546.473h-.286l.497 1.527a6 6 0 0 1 1.851 1.355h1.727l-.094-.289a.55.55 0 0 1 .203-.62l3.668-2.665a.545.545 0 0 1 .652 0l3.668 2.664c.203.14.282.39.211.621m-2.531 3.586a.6.6 0 0 0-.082-.12c-.008-.005-.012-.005-.02-.009l-.953-.336a.55.55 0 0 1-.308-.27l-.153-.3a1 1 0 0 1-.304 0l-.153.3a.54.54 0 0 1-.308.27l-.95.336q-.01.004-.023.008c-.023.024-.05.07-.082.121Zm-1.008-3.297c-.035-.359-.316-.644-.66-.644s-.621.285-.656.644a1 1 0 0 0-.008.079 1.42 1.42 0 0 0 .32.847q.096.117.196.184c.05.031.105.055.148.055a.3.3 0 0 0 .148-.055.9.9 0 0 0 .2-.184c.172-.215.316-.543.316-.847q.001-.037-.004-.067zm2.356-.25-3.02-2.195-3.02 2.195.087.25.359 1.11.312.957.063.187a.9.9 0 0 1 .297-.144l.71-.254.071-.133a2.4 2.4 0 0 1-.406-.617 2.4 2.4 0 0 1-.246-1.031v-.078c.039-.973.82-1.75 1.773-1.75.98 0 1.777.82 1.777 1.832 0 .578-.253 1.207-.652 1.648l.067.133.714.254a.8.8 0 0 1 .297.144Zm-8.418 4.594q.018-.18.02-.363c0-1.078-.36-2.07-.97-2.871a4.8 4.8 0 0 0-.796-.84 4.813 4.813 0 0 0-1.43-.797 4.7 4.7 0 0 0-3.274.027q-.527.195-.984.5-.239.166-.46.356a4.8 4.8 0 0 0-.704.754 4.77 4.77 0 0 0-.965 2.87c0 .13.012.259.02.392.023.242.058.48.117.714a4.8 4.8 0 0 0 .664 1.54 4.78 4.78 0 0 0 3.312 2.09c.223.03.446.054.676.054.215 0 .422-.023.63-.047q.239-.029.472-.086a4.8 4.8 0 0 0 3.21-2.586 5 5 0 0 0 .462-1.707M14.37 4.703c.004.297.149.617.313.828q.03.035.058.063c.098.11.203.176.293.176.055 0 .113-.032.176-.075a1 1 0 0 0 .172-.168 1.6 1.6 0 0 0 .293-.636q.018-.107.02-.207a.74.74 0 0 0-.294-.598.5.5 0 0 0-.129-.074.624.624 0 0 0-.687.137.7.7 0 0 0-.207.367 1 1 0 0 0-.02.168q.012.008.012.02m-.906 3.074q-.007-.001-.02.004-.034.043-.082.121h3.34a1 1 0 0 0-.074-.117l-.004-.004q-.012-.005-.023-.004l-.95-.336a.56.56 0 0 1-.308-.273l-.153-.3c-.007 0-.02 0-.027.003-.043.004-.086.012-.125.012a1 1 0 0 1-.152-.012l-.14.274-.013.027a.54.54 0 0 1-.308.27Zm4.59-3.422-3.02-2.195-3.02 2.195.813 2.508a.9.9 0 0 1 .297-.148l.664-.23.05-.02.071-.133c-.02-.02-.035-.043-.055-.059-.367-.433-.601-1.03-.601-1.585 0-1.012.797-1.833 1.777-1.833s1.778.82 1.778 1.833c0 .578-.254 1.207-.657 1.648l.07.133.715.254a.8.8 0 0 1 .297.144Zm-4.282 5.766a5.8 5.8 0 0 1 2.442-.023l-.356-1.086h-1.726Zm-5.925 1.547L4.832 9.473l-3.02 2.195.813 2.508c.09-.063.188-.117.297-.149l.715-.25.066-.14a2.54 2.54 0 0 1-.652-1.645c0-1.012.797-1.832 1.777-1.832.95 0 1.719.77 1.77 1.735v.097c0 .336-.086.692-.235 1.012-.047.11-.101.21-.164.309-.078.117-.16.226-.254.328l.07.136.712.25a1 1 0 0 1 .3.149l.063-.211.312-.957.36-1.11Zm-2.36.23c-.047-.351-.32-.625-.656-.625s-.613.274-.66.625v.012q-.007.04-.008.086c0 .3.149.629.32.848q.082.104.168.168a.35.35 0 0 0 .18.074.35.35 0 0 0 .184-.074 1 1 0 0 0 .168-.168 2 2 0 0 0 .12-.184c.114-.195.196-.433.196-.664zM3.262 15.09q-.013.005-.02.004a.5.5 0 0 0-.082.12H6.5a.7.7 0 0 0-.082-.12q-.007.001-.02-.004l-.953-.336a.58.58 0 0 1-.308-.27l-.153-.304a1 1 0 0 1-.304 0l-.153.304a.56.56 0 0 1-.304.27Zm4.781-.434 1.117.809a5.8 5.8 0 0 1 .73-2.453H8.583Zm3.668 8.836-.941-.683-.907-.657-.941-.683-.195-.149-3.024 2.196.813 2.507a.9.9 0 0 1 .297-.144l.718-.25.07-.137a2.53 2.53 0 0 1-.656-1.644c0-1.008.797-1.832 1.778-1.832h.02c.39.004.753.144 1.046.37.242.188.438.438.563.727.093.227.148.477.148.735 0 .195-.027.394-.082.586-.102.39-.305.77-.574 1.058l.07.137.711.254c.113.027.21.078.3.144l.813-2.511Zm-3.629.567a1.54 1.54 0 0 0 .293.632c.113.145.242.243.352.243.09 0 .191-.075.296-.18.016-.024.036-.04.051-.059.176-.215.32-.543.32-.847l-.003-.032a2 2 0 0 0-.016-.136c-.074-.317-.336-.555-.648-.555a.63.63 0 0 0-.387.137.74.74 0 0 0-.281.586q0 .099.023.21m-.926 2.878-.02.008c-.023.024-.05.07-.081.121h3.336a1 1 0 0 0-.079-.12c-.007-.005-.015-.005-.023-.009l-.95-.34a.54.54 0 0 1-.308-.269l-.152-.3a1 1 0 0 1-.305 0l-.152.3a.54.54 0 0 1-.309.27Zm5.64-5.605a5.9 5.9 0 0 1-2.163-1.543l-.406 1.25 1.484 1.082Zm7.84 2.473q-.002.018-.003.043c0 .3.144.629.32.843.02.028.04.047.067.07.093.102.195.173.28.173.11 0 .235-.098.352-.243q.036-.047.07-.101c.106-.156.188-.348.227-.547a1 1 0 0 0 .02-.2.73.73 0 0 0-.278-.581.63.63 0 0 0-.39-.14c-.309 0-.567.233-.645.542-.008.047-.015.09-.02.14m-.902 3.133q-.01.003-.023.007c-.023.024-.05.07-.082.121h3.34a.6.6 0 0 0-.082-.12c-.004-.005-.012-.005-.02-.009l-.953-.335a.55.55 0 0 1-.309-.27l-.152-.3a1 1 0 0 1-.305 0l-.152.3a.54.54 0 0 1-.308.27Zm4.582-3.422-3.02-2.196-.194.145-.942.683-.902.657-.942.683-.039.028.817 2.507a.9.9 0 0 1 .297-.144l.718-.25.067-.137a2.6 2.6 0 0 1-.574-1.066 2.3 2.3 0 0 1-.075-.578c0-.266.055-.516.153-.743.12-.289.316-.539.558-.722a1.7 1.7 0 0 1 1.047-.367h.016c.98 0 1.777.82 1.777 1.832 0 .578-.254 1.207-.652 1.644l.066.137.715.254a.8.8 0 0 1 .297.144Zm-4.914-3.688a5.9 5.9 0 0 1-2.156 1.516l1.07.777 1.485-1.078Zm2.594-5.18-.535-1.64H20.18c.41.73.66 1.555.726 2.43Zm-8.601.66v1.137c0 .637-.399 1.18-.961 1.399a1.5 1.5 0 0 1-.54.105h-.57a.4.4 0 0 1-.09-.012.55.55 0 0 1-.46-.546v-3.028a.55.55 0 0 1 .55-.55h.567a1.503 1.503 0 0 1 1.504 1.496m-1.516.645v.883h.016c.214 0 .39-.176.39-.39v-1.137a.42.42 0 0 0-.105-.27.4.4 0 0 0-.285-.121h-.016Zm4.59 1.274a.56.56 0 0 1-.364.695.567.567 0 0 1-.633-.234h-.96a.556.556 0 0 1-.63.234.555.555 0 0 1-.362-.695l.945-3.028c0-.015.008-.023.015-.039l.024-.058a.3.3 0 0 0 .031-.047.3.3 0 0 0 .027-.043l.043-.043c.012-.008.024-.024.036-.031a.2.2 0 0 1 .046-.032q.022-.018.043-.031l.07-.031c.009 0 .016-.008.028-.008h.004a.4.4 0 0 1 .133-.024h.008c.047 0 .097.004.14.016l.04.008h.007c.016.008.035.012.05.023a.2.2 0 0 0 .044.016c.02.012.035.027.059.04q.012.01.03.023a.2.2 0 0 1 .044.042q.018.016.031.032c.016.015.023.031.035.047q.017.023.027.043.02.03.028.066c.004.012.012.02.015.031Zm-1.364-.649-.113-.355-.11.355Zm4.192-1.644v1.886c0 .414-.227.774-.563.965a1.1 1.1 0 0 1-.558.156h-.38a1.1 1.1 0 0 1-.28-.039 1.12 1.12 0 0 1-.84-1.078v-1.89c0-.5.328-.914.777-1.063.11-.035.223-.059.344-.059h.379a1.125 1.125 0 0 1 1.121 1.121m-1.504-.012-.008.012v1.89l.39.012.005-.738.008-1.164Zm0 0"/></g></svg>