<svg xmlns="http://www.w3.org/2000/svg" width="40" height="40" version="1.0" viewBox="0 0 30 30"><defs><clipPath id="a"><path d="M21 14h8.516v2H21Zm0 0"/></clipPath><clipPath id="b"><path d="M16 .473h4V10h-4Zm0 0"/></clipPath><clipPath id="c"><path d="M9 25h4v3.777H9Zm0 0"/></clipPath><clipPath id="d"><path d="M12 24h6v4.777h-6Zm0 0"/></clipPath><clipPath id="e"><path d="M17 25h4v3.777h-4Zm0 0"/></clipPath><clipPath id="f"><path d="M.484 16h29.032v7H.484Zm0 0"/></clipPath><clipPath id="g"><path d="M.484 8h29.032v7H.484Zm0 0"/></clipPath></defs><path fill="#061c3d" d="M23.43 12.598v-1q.217-.053.418-.164a1.892 1.892 0 0 0 .664-.598 1.9 1.9 0 0 0 .308-1.285 1.9 1.9 0 0 0-.113-.438 1.6 1.6 0 0 0-.21-.398 2 2 0 0 0-.298-.336 2 2 0 0 0-.37-.254 2 2 0 0 0-.423-.16 2 2 0 0 0-.445-.05q-.228-.001-.445.05-.224.057-.422.16-.2.106-.371.254a1.9 1.9 0 0 0-.512.734 1.84 1.84 0 0 0-.11.887c.016.148.051.297.102.438a1.9 1.9 0 0 0 .504.738q.166.152.367.258.2.111.418.164v1Zm0 0"/><g clip-path="url(#a)"><path fill="#061c3d" d="M21.086 14.941h7.96v.938h-7.96Zm0 0"/></g><path fill="#061c3d" d="M2.355 14.941h6.56v.938h-6.56Zm0 0"/><g clip-path="url(#b)"><path fill="#061c3d" d="M17.809.547 16.172 1.78v6.23h.125c.133.024.226.04.324.063.238.055.469.125.719.2V7.75h.937v.938c.16.066.317.144.47.226q.368.21.71.469V1.78Zm.468 6.266h-.937v-.938h.937Zm0-1.872h-.937v-.937h.937Zm0-1.875h-.937V2.13h.937Zm0 0"/></g><path fill="#061c3d" d="M12.191 3.879V8.23l.164.165.07-.024.134-.047.28-.094c.247-.074.497-.128.755-.187v-.887h.937v.774H15c.16 0 .469 0 .703.03h.235V3.88Zm2.34 2.34h-.937V5.28h.937ZM9.45 10.383l.163-.176a7 7 0 0 1 1.598-1.258q.158-.105.328-.187c.07-.04.16-.086.254-.125l.098-.04.066-.038.152-.07-.164-.165-1.16-1.168-2.34 2.34h.934v.965ZM5.008 19.219a.89.89 0 0 1-.778.402H2.582q.294.85.711 1.649a30 30 0 0 1 2.586-.688 19 19 0 0 1-.438-1.996ZM6.32 18.215c.106.738.262 1.46.465 2.18a33 33 0 0 1 2.32-.387 7.2 7.2 0 0 1-1.035-1.793ZM3.734 22.102a12.9 12.9 0 0 0 2.688 3.203q.627-.27 1.289-.47a15.5 15.5 0 0 1-1.586-3.366c-.824.187-1.625.394-2.39.633M8.305 25.688l-.035-.04q-.516.149-.997.32a12.8 12.8 0 0 0 2.75 1.548 11 11 0 0 1-1.718-1.828M10.008 20.992l-.149-.14a37 37 0 0 0-2.808.437q.585 1.741 1.594 3.277 1.125-.293 2.273-.468a27 27 0 0 1-.602-2.856Zm0 0"/><g clip-path="url(#c)"><path fill="#061c3d" d="M9.242 25.395a8.25 8.25 0 0 0 3.45 2.668 10.3 10.3 0 0 1-1.493-3.028c-.68.094-1.351.215-1.957.36m0 0"/></g><g clip-path="url(#d)"><path fill="#061c3d" d="M15 28.516c1.043 0 2.066-1.371 2.844-3.598a28 28 0 0 0-5.703 0c.777 2.23 1.8 3.594 2.843 3.598Zm0 0"/></g><path fill="#061c3d" d="M11.375 21.973c.14.718.305 1.402.469 2.03a29 29 0 0 1 6.273 0c.184-.628.348-1.312.469-2.03q-.833.45-1.754.691a7.53 7.53 0 0 1-3.738 0q-.924-.24-1.754-.691Zm0 0"/><g clip-path="url(#e)"><path fill="#061c3d" d="M17.3 28.078a8.2 8.2 0 0 0 3.458-2.683 22 22 0 0 0-1.957-.36 10.3 10.3 0 0 1-1.5 3.043m0 0"/></g><path fill="#061c3d" d="M21.73 25.648a10.8 10.8 0 0 1-1.742 1.872q1.465-.597 2.739-1.54a6 6 0 0 0-.997-.332M19.992 20.992l-.289.25q-.229 1.46-.621 2.883 1.148.175 2.273.469a14 14 0 0 0 1.59-3.278c-.922-.226-1.86-.347-2.793-.457ZM22.285 24.836q.661.2 1.293.469a12.9 12.9 0 0 0 2.688-3.192 28 28 0 0 0-2.399-.629 15 15 0 0 1-1.582 3.352M15 10.723a4.8 4.8 0 0 0-1.793.355 5 5 0 0 0-.809.434 5 5 0 0 0-.71.582c-.215.219-.41.453-.583.71a5 5 0 0 0-.433.81 4.77 4.77 0 0 0-.355 1.793 4.8 4.8 0 0 0 .355 1.792q.181.422.433.809.26.382.582.71.33.324.711.583a4.9 4.9 0 0 0 1.688.699q.45.09.914.09.463 0 .914-.09a4.857 4.857 0 0 0 1.688-.7q.381-.258.71-.581.323-.33.583-.711.252-.387.433-.809c.117-.285.203-.578.266-.879q.088-.45.09-.914a4.8 4.8 0 0 0-.356-1.793 5 5 0 0 0-.433-.808 5 5 0 0 0-.582-.711 5 5 0 0 0-.711-.582 5 5 0 0 0-.809-.434A4.77 4.77 0 0 0 15 10.723m-.234 4.214h.468q.28-.024.547.063.264.087.48.266.212.181.34.43a1.41 1.41 0 0 1-1.132 2.05v.938h-.938v-.938a1.35 1.35 0 0 1-.844-.484 1.37 1.37 0 0 1-.328-.918h.938q.001.193.137.328.139.14.332.14h.468a.45.45 0 0 0 .332-.14q.136-.135.137-.328a.464.464 0 0 0-.469-.469h-.468a1.416 1.416 0 0 1-1.379-1.29 1.373 1.373 0 0 1 .285-.969q.156-.209.379-.343.222-.138.48-.183v-.961h.938v.96q.506.085.836.477c.222.258.332.563.336.903h-.938a.464.464 0 0 0-.469-.469h-.468a.464.464 0 0 0-.47.469q.002.195.138.332.139.136.332.136M20.91 20.008c.79.105 1.563.23 2.34.387q.305-1.08.469-2.18h-1.774a7.3 7.3 0 0 1-1.035 1.793M25.77 19.621a.89.89 0 0 1-.778-.402l-.41-.621q-.164 1.012-.437 1.996 1.339.294 2.585.687.406-.798.688-1.648Zm0 0"/><g clip-path="url(#f)"><path fill="#061c3d" d="M25.223 17.02a.45.45 0 0 0-.391-.204h-3.547q-.363-.018-.469.332a6.1 6.1 0 0 1-2.195 3.145 6 6 0 0 1-1.723.895 6.03 6.03 0 0 1-3.835 0 6 6 0 0 1-1.72-.895 6.1 6.1 0 0 1-2.195-3.145q-.105-.35-.468-.332H5.168a.45.45 0 0 0-.39.204l-.801 1.199H.484v.937H4.23q.252 0 .387-.21l.801-1.192h2.957a7 7 0 0 0 1.02 1.898 7 7 0 0 0 1.546 1.5 6.9 6.9 0 0 0 1.93.961 6.9 6.9 0 0 0 2.129.332q1.091 0 2.129-.332a6.9 6.9 0 0 0 1.93-.96 7 7 0 0 0 1.546-1.5 7 7 0 0 0 1.02-1.9h2.957l.8 1.192q.135.21.388.211h3.746v-.937h-3.493Zm0 0"/></g><g clip-path="url(#g)"><path fill="#061c3d" d="m25.383 11.871-.801 1.2h-2.957a7 7 0 0 0-1.105-2 6 6 0 0 0-.754-.817 7.3 7.3 0 0 0-1.258-.934 7 7 0 0 0-.996-.468 7 7 0 0 0-1-.301l-.282-.055-.203-.047h-.277a7.05 7.05 0 0 0-2.781.262l-.254.078-.227.078a6 6 0 0 0-.5.219l-.242.121c-.105.05-.195.105-.3.164a6.8 6.8 0 0 0-1.962 1.723c-.09.117-.168.21-.25.324a7.2 7.2 0 0 0-.859 1.676H5.418l-.8-1.223a.44.44 0 0 0-.388-.207H.484v.938h3.493l.8 1.195a.46.46 0 0 0 .391.21h3.547q.369.013.469-.339a5.9 5.9 0 0 1 .84-1.738c.058-.082.12-.172.203-.274q.129-.158.28-.328.622-.697 1.43-1.172l.258-.14q.106-.06.22-.106.21-.105.433-.187l.172-.063c.07-.023.144-.05.234-.074.789-.246 1.59-.32 2.41-.23a.6.6 0 0 1 .234.035c.094.03.122 0 .211.03l.215.044q.448.095.871.262.446.17.864.406.59.345 1.093.812.354.324.649.7.721.908 1.05 2.023.105.352.47.34h3.511a.46.46 0 0 0 .39-.211l.801-1.195h3.493v-.938H25.77a.44.44 0 0 0-.387.207m0 0"/></g></svg>