<svg xmlns="http://www.w3.org/2000/svg" width="40" height="40" version="1.0" viewBox="0 0 30 30"><defs><clipPath id="a"><path d="M.484 0h29.032v29.031H.484Zm0 0"/></clipPath></defs><g clip-path="url(#a)"><path fill="#fff" fill-rule="evenodd" d="M14.496 1.828a.475.475 0 0 1-.566-.004.476.476 0 0 1-.086-.66l.758-.976a.467.467 0 0 1 .722-.02l.856.977a.47.47 0 0 1-.707.617l-.04-.047v1.387a.468.468 0 1 1-.937 0Zm9.832 3.973-.95.949a.464.464 0 0 1-.66 0 .464.464 0 0 1 0-.66l.927-.93a.47.47 0 0 1-.012-.933l1.23-.13a.48.48 0 0 1 .38.133.49.49 0 0 1 .136.38l-.121 1.292a.465.465 0 0 1-.508.422.463.463 0 0 1-.422-.508Zm3.48 9.148h-1.39a.47.47 0 0 1-.469-.469.47.47 0 0 1 .469-.468h1.277a.467.467 0 0 1 .66-.648l.98.753a.467.467 0 0 1 .02.723l-.976.855a.47.47 0 0 1-.617-.707Zm-4.054 8.93-.984-.984a.47.47 0 0 1 0-.66.47.47 0 0 1 .664 0l.902.902a.468.468 0 0 1 .93.008l.156 1.222a.47.47 0 0 1-.125.383.45.45 0 0 1-.371.145l-1.297-.086a.474.474 0 0 1-.438-.5.47.47 0 0 1 .5-.434Zm-8.246 3.332a.48.48 0 0 1 .57.004c.203.16.242.453.082.656l-.754.98a.466.466 0 0 1-.723.02l-.855-.976a.465.465 0 0 1 .043-.66.465.465 0 0 1 .66.042l.043.047v-1.39c0-.258.207-.465.469-.465.258 0 .465.207.465.465Zm-9.121-3.36a.47.47 0 0 1 .398.407.47.47 0 0 1-.406.523l-1.227.157a.46.46 0 0 1-.379-.125.45.45 0 0 1-.144-.372l.086-1.296a.466.466 0 0 1 .5-.434.46.46 0 0 1 .433.496l-.003.063.98-.98a.47.47 0 0 1 .664.66Zm-4.074-8.824a.469.469 0 0 1-.665.649l-.976-.754a.466.466 0 0 1-.023-.723l.98-.855a.469.469 0 0 1 .617.703l-.047.043h1.387a.47.47 0 0 1 .469.469.47.47 0 0 1-.47.468Zm3.355-9.125a.467.467 0 0 1-.926-.008l-.156-1.222a.47.47 0 0 1 .121-.383.47.47 0 0 1 .375-.144l1.297.085a.468.468 0 1 1-.066.934l-.06-.004.981.985a.464.464 0 0 1 0 .66.464.464 0 0 1-.66 0Zm9.297-1.715c5.7 0 10.328 4.63 10.328 10.333 0 5.699-4.629 10.328-10.328 10.328-5.703 0-10.332-4.63-10.332-10.328 0-5.704 4.629-10.332 10.332-10.332m0 .938c-5.184 0-9.395 4.21-9.395 9.395 0 5.183 4.211 9.394 9.395 9.394s9.394-4.21 9.394-9.394-4.21-9.395-9.394-9.395m4.726 4.332-2.636 2.75a.46.46 0 0 1-.543.098l-3.227-1.59-3.273 2.848a.47.47 0 0 1-.66-.047.47.47 0 0 1 .046-.66L12.902 9.8a.48.48 0 0 1 .516-.067l3.2 1.579 2.413-2.52a.47.47 0 0 1-.457-.418.463.463 0 0 1 .41-.516l1.227-.14a.46.46 0 0 1 .379.129.46.46 0 0 1 .14.375l-.105 1.293a.467.467 0 0 1-.934-.059m-7.421 3.75h1.886a.47.47 0 0 1 .469.469v6.808a.47.47 0 0 1-.469.47H12.27a.47.47 0 0 1-.47-.47v-6.808c0-.258.208-.469.47-.469m.464.938v5.87h.954v-5.87Zm3.04.351h1.886a.47.47 0 0 1 .469.469v5.52a.47.47 0 0 1-.469.468h-1.887a.47.47 0 0 1-.468-.469v-5.52a.47.47 0 0 1 .468-.468m.468.938v4.582h.95v-4.582Zm-7.48.96h1.886c.262 0 .47.211.47.47v3.62a.47.47 0 0 1-.47.47H8.762a.47.47 0 0 1-.469-.47v-3.62a.47.47 0 0 1 .469-.47m.468.938v2.684h.954v-2.684Zm10.051-6.602h1.887a.47.47 0 0 1 .469.47v9.284a.47.47 0 0 1-.469.47h-1.887a.47.47 0 0 1-.468-.47V11.2a.47.47 0 0 1 .468-.469m.469.938v8.348h.95v-8.348Zm0 0"/></g></svg>