<svg xmlns="http://www.w3.org/2000/svg" width="40" height="40" version="1.0" viewBox="0 0 30 30"><defs><clipPath id="a"><path d="M.484 0h29.012v29.031H.484Zm0 0"/></clipPath></defs><path fill="#fff" d="M13.852 4.777h2.328a.34.34 0 0 0 .336-.336v-.46c0-.368-.215-.704-.551-.825l-.277-.125a.97.97 0 0 1-.704.278c-.277 0-.492-.094-.707-.278l-.273.125a.93.93 0 0 0-.55.824v.461c.058.184.214.336.398.336m0 0"/><path fill="#fff" d="M15.781 2.082a.94.94 0 0 1-.226.629.695.695 0 0 1-1.082 0 .94.94 0 0 1-.223-.629q0-.367.223-.629a.695.695 0 0 1 1.082 0 .94.94 0 0 1 .226.629M8.492 7.75v-.46a.87.87 0 0 0-.55-.83l-.278-.089a.97.97 0 0 1-.703.274c-.277 0-.492-.09-.707-.274l-.274.121a.94.94 0 0 0-.55.828v.457c0 .184.152.34.336.34h2.328c.246-.031.398-.156.398-.367M6.992 6.309c.426 0 .766-.399.766-.887 0-.492-.34-.89-.766-.89-.43 0-.765.398-.765.89 0 .488.335.887.765.887M21.875 8.086h2.328a.34.34 0 0 0 .336-.336v-.46a.87.87 0 0 0-.55-.83l-.278-.12a.97.97 0 0 1-.703.273c-.278 0-.492-.09-.703-.273l-.278.12a.94.94 0 0 0-.55.83v.46c.062.21.214.336.398.336M23.04 6.309c.425 0 .765-.399.765-.887 0-.492-.34-.89-.766-.89-.43 0-.766.398-.766.89.032.488.368.887.766.887M4.602 14.516l-.278-.121a.96.96 0 0 1-.703.273c-.273 0-.488-.09-.703-.273l-.215.12a.9.9 0 0 0-.55.829v.457c0 .183.152.34.335.34h2.328a.34.34 0 0 0 .336-.34v-.457a.9.9 0 0 0-.55-.828M3.652 14.332c.43 0 .766-.398.766-.887 0-.492-.336-.89-.766-.89s-.765.398-.765.89c.031.489.367.887.765.887M15.965 25.879l-.277-.125a.97.97 0 0 1-.704.277c-.277 0-.492-.093-.707-.277l-.273.125a.93.93 0 0 0-.55.824v.461c0 .184.151.336.335.336h2.328a.34.34 0 0 0 .336-.336v-.46c.063-.368-.152-.673-.488-.825M15.016 25.695c.425 0 .765-.398.765-.89 0-.489-.34-.887-.765-.887-.43 0-.766.398-.766.887 0 .492.336.89.766.89M7.941 22.54l-.277-.122a.97.97 0 0 1-.703.273c-.277 0-.492-.09-.707-.273l-.274.121a.94.94 0 0 0-.55.828v.457c0 .188.152.34.336.34h2.328a.34.34 0 0 0 .336-.34v-.426c.062-.367-.153-.707-.489-.859M6.992 22.355c.426 0 .766-.398.766-.886 0-.492-.34-.89-.766-.89-.43 0-.765.398-.765.89 0 .488.335.886.765.886M23.04 22.691c-.278 0-.493-.09-.708-.273l-.273.121a.94.94 0 0 0-.551.828v.457c0 .188.152.34.336.34h2.36a.34.34 0 0 0 .335-.34v-.426c0-.367-.215-.707-.55-.828l-.278-.12c-.152.152-.398.241-.672.241M22.305 21.5c0 .488.336.887.765.887.426 0 .766-.399.766-.887 0-.492-.34-.89-.766-.89-.43 0-.765.398-.765.89m0 0"/><g clip-path="url(#a)"><path fill="#fff" d="M26.375 11.332c-.273 0-.52.031-.797.09l-.824-2.266c.887-.582 1.469-1.562 1.469-2.664a3.2 3.2 0 0 0-3.184-3.183 3.13 3.13 0 0 0-2.727 1.562L18.138 3.86c.062-.214.062-.43.062-.675A3.2 3.2 0 0 0 15.016 0c-1.746 0-3.188 1.41-3.188 3.156 0 .274.031.52.094.793l-2.266.828C9.074 3.891 8.094 3.31 6.992 3.31c-1.746 0-3.187 1.437-3.187 3.183 0 1.164.613 2.176 1.562 2.727L4.355 11.39c-.214-.059-.425-.059-.671-.059-1.778 0-3.215 1.438-3.215 3.184a3.2 3.2 0 0 0 3.183 3.183c.278 0 .52-.027.797-.09l.828 2.266c-.89.582-1.472 1.563-1.472 2.664a3.206 3.206 0 0 0 3.187 3.188c1.16 0 2.172-.614 2.723-1.563l2.176 1.008c-.063.215-.063.43-.063.676 0 1.746 1.442 3.183 3.188 3.183a3.202 3.202 0 0 0 3.09-3.98l2.269-.828c.582.89 1.559 1.472 2.664 1.472 1.746 0 3.184-1.441 3.184-3.187a3.12 3.12 0 0 0-1.563-2.723l1.012-2.176c.215.063.43.063.672.063a3.206 3.206 0 0 0 3.187-3.188 3.15 3.15 0 0 0-3.156-3.152m-1.254.242a3.2 3.2 0 0 0-1.93 2.606l-5.328-2.207 3.094-3.09a3.12 3.12 0 0 0 2.082.765 3 3 0 0 0 1.285-.277Zm-9.863 2.36v-2.512l1.777.734Zm-.488 0-1.778-1.778 1.778-.734Zm0 1.164v2.511l-1.778-.734Zm.488 0 1.777 1.777-1.777.734Zm2.265-2.758 4.625 1.93h-6.55Zm-.12-.55-1.747-.735 4.227-1.746Zm-4.778 0-2.48-2.481 4.257 1.746Zm1.809 2.48H7.879l4.625-1.93Zm0 .492-1.93 1.93-4.625-1.93Zm-1.809 2.48 1.746.735-4.226 1.746Zm4.777 0 2.48 2.48-4.257-1.745Zm-1.804-2.48h6.55l-4.625 1.93Zm7.441-10.996a2.7 2.7 0 0 1 2.695 2.695 2.7 2.7 0 0 1-2.695 2.695 2.7 2.7 0 0 1-2.695-2.695c0-1.469 1.222-2.695 2.695-2.695m-2.941 1.53a3.1 3.1 0 0 0-.246 1.196c0 .766.277 1.469.707 2.024l-5.329 2.203v-4.38a3.19 3.19 0 0 0 2.723-2.023ZM15.016.462c1.5 0 2.695 1.223 2.695 2.695 0 1.5-1.227 2.692-2.695 2.692-1.473 0-2.696-1.223-2.696-2.692A2.676 2.676 0 0 1 15.016.461m-2.942 3.95A3.19 3.19 0 0 0 14.77 6.34v4.379L9.44 8.516a3.15 3.15 0 0 0 .704-2.024q.001-.689-.274-1.285ZM4.266 6.491c0-1.5 1.222-2.695 2.695-2.695a2.7 2.7 0 0 1 2.695 2.695 2.7 2.7 0 0 1-2.695 2.696c-1.473 0-2.695-1.227-2.695-2.696m1.53 2.942c.368.152.766.242 1.196.242.793 0 1.5-.305 2.082-.766l3.094 3.094-5.332 2.207a3.11 3.11 0 0 0-2.02-2.637ZM.958 14.516a2.7 2.7 0 0 1 2.695-2.696c1.47 0 2.696 1.227 2.696 2.696 0 1.468-1.227 2.695-2.696 2.695a2.7 2.7 0 0 1-2.695-2.695m3.95 2.941c1.042-.46 1.808-1.441 1.929-2.605l5.332 2.207-3.125 3.062c-.55-.492-1.285-.766-2.082-.766q-.69-.001-1.29.274Zm2.085 7.809a2.7 2.7 0 0 1-2.695-2.696c0-1.5 1.223-2.695 2.695-2.695 1.5 0 2.692 1.227 2.692 2.695 0 1.47-1.223 2.696-2.692 2.696m2.938-1.532c.152-.367.246-.765.246-1.195 0-.766-.278-1.469-.703-2.02l5.328-2.206v4.378a3.19 3.19 0 0 0-2.727 2.024Zm5.086 4.84a2.7 2.7 0 0 1-2.696-2.695c0-1.5 1.223-2.695 2.696-2.695 1.5 0 2.695 1.222 2.695 2.695a2.68 2.68 0 0 1-2.695 2.695m2.937-3.953a3.18 3.18 0 0 0-2.695-1.93v-4.347l5.328 2.207c-.457.55-.703 1.254-.703 2.02q.001.688.277 1.284Zm7.809-2.082c0 1.5-1.223 2.695-2.692 2.695a2.696 2.696 0 0 1 0-5.39c1.47 0 2.692 1.226 2.692 2.695m-1.532-2.937a3 3 0 0 0-1.19-.247c-.798 0-1.532.305-2.083.766l-3.062-3.062 5.328-2.207a3.11 3.11 0 0 0 2.02 2.636Zm2.145-2.391a2.7 2.7 0 0 1-2.695-2.695 2.7 2.7 0 0 1 2.695-2.696 2.7 2.7 0 0 1 2.695 2.696 2.68 2.68 0 0 1-2.695 2.695m0 0"/></g><path fill="#fff" d="m27.324 14.516-.273-.121a.97.97 0 0 1-.707.273c-.274 0-.489-.09-.703-.273l-.215.12a.94.94 0 0 0-.551.829v.457c0 .183.152.34.336.34h2.328a.34.34 0 0 0 .336-.34v-.457a.9.9 0 0 0-.55-.828M26.375 14.332c.43 0 .766-.398.766-.887 0-.492-.336-.89-.766-.89s-.766.398-.766.89c0 .489.336.887.766.887m0 0"/></svg>