<svg xmlns="http://www.w3.org/2000/svg" width="40" height="40" version="1.0" viewBox="0 0 30 30"><defs><clipPath id="a"><path d="M.484 6H4v13H.484Zm0 0"/></clipPath><clipPath id="b"><path d="M3 0h26.516v19H3Zm0 0"/></clipPath><clipPath id="c"><path d="M10 23h10v6.031H10Zm0 0"/></clipPath></defs><path fill="#fff" d="M8.992 8.508v3.504h2.004V8.508zM4.988 7.508v4.504h2.004V7.508z"/><g clip-path="url(#a)"><path fill="#fff" d="M1.695 16.887c.067.375.157.758.258 1.133h.531v-6.008h1.504V6.684l-.074.101a13.4 13.4 0 0 0-2.219 5.36l-.047.28-1.164.438v3.309l1.164.433z"/></g><g clip-path="url(#b)"><path fill="#fff" d="m28.352 12.426-.047-.281a13.4 13.4 0 0 0-2.22-5.36l-.163-.234.512-1.13-2.34-2.339-1.13.516-.234-.164a13.4 13.4 0 0 0-5.359-2.223l-.281-.047L16.652 0h-3.304l-.438 1.164-.281.047a13.4 13.4 0 0 0-5.36 2.223l-.234.164-1.129-.516-2.34 2.34.493 1.086h3.394A10.94 10.94 0 0 1 15 3.504c5.219 0 9.582 3.637 10.715 8.508h1.8v6.008h.532c.101-.375.191-.758.258-1.133l.047-.282 1.164-.433v-3.309z"/></g><path fill="#fff" d="M17.504 13.016H16.5v-1.004h1.004Zm0 2H16.5v-1h1.004Zm0 2.004H16.5v-1h1.004ZM15.5 13.016h-1v-1.004h1Zm0 2h-1v-1h1Zm0 2.004h-1v-1h1Zm-.91-12.008-1.09-.008v5.008h-1.004v2H13.5v6.008h5.004v-6.008h3.004v-2h-1V6.09zM9.25 19.02H1.2c.347 1.066.816 2.07 1.382 3.003h7.14a32 32 0 0 1-.472-3.003M10.75 22.023h8.5c.203-.937.371-1.941.492-3.003h-9.484c.12 1.062.289 2.066.492 3.003"/><path fill="#fff" d="M20.508 16.02h1v1h-1Zm0-2.004h1v1h-1Zm2 2.004h1v1h-1Zm0-2.004h1v1h-1Zm2.004 2.004h1v1h-1Zm0-2.004h1v1h-1Zm-5.008 4.004h7.008v-5.004h-7.008zM3.246 23.027a14.6 14.6 0 0 0 9.399 5.809c-1.11-1.184-2.047-3.195-2.696-5.809zM17.355 28.836a14.58 14.58 0 0 0 9.395-5.809h-6.7c-.648 2.614-1.585 4.625-2.695 5.809M20.277 22.023h7.141a14.6 14.6 0 0 0 1.383-3.003H20.75a32 32 0 0 1-.473 3.003M4.488 16.02h1v1h-1Zm0-2.004h1v1h-1Zm2.004 2.004h1v1h-1Zm0-2.004h1v1h-1Zm2 2.004h1v1h-1Zm0-2.004h1v1h-1Zm2.004 2.004h1v1h-1Zm0-2.004h1v1h-1ZM3.488 18.02h9.008v-5.004H3.488z"/><g clip-path="url(#c)"><path fill="#fff" d="M10.984 23.027c.938 3.645 2.438 6.004 4.016 6.004s3.078-2.36 4.016-6.004z"/></g></svg>