<svg xmlns="http://www.w3.org/2000/svg" width="40" height="40" version="1.0" viewBox="0 0 30 30"><defs><clipPath id="a"><path d="M22 13h7.516v5H22Zm0 0"/></clipPath><clipPath id="b"><path d="M.484 0H12v12H.484Zm0 0"/></clipPath><clipPath id="c"><path d="M6 22h18v7.031H6Zm0 0"/></clipPath></defs><path fill="#061c3d" d="M26.148 21.055H4.398a.504.504 0 0 1-.386-.825l2.16-2.585h18.207l2.156 2.585a.503.503 0 0 1-.387.825m0 0"/><g clip-path="url(#a)"><path fill="#061c3d" d="m29.406 17.004-3.144-3.774a.4.4 0 0 0-.297-.136h-3.863l3.793 4.55h3.21a.39.39 0 0 0 .301-.64m0 0"/></g><path fill="#061c3d" d="m1.14 17.004 3.145-3.774a.4.4 0 0 1 .3-.136H8.45l-3.797 4.55h-3.21a.39.39 0 0 1-.301-.64M15.273 5.695a5.69 5.69 0 0 0-5.687 5.688c0 .933.223 1.808.617 2.586l1.297 2.535h7.55l1.294-2.535a5.689 5.689 0 0 0-5.07-8.273M18 11.504l-3.187 3.176c-.282.28-.754.02-.665-.371l.555-2.356h-1.871a.4.4 0 0 1-.402-.402c0-.102.035-.203.117-.285l3.187-3.176c.282-.281.758-.02.664.37l-.554 2.356h1.87a.4.4 0 0 1 .403.403.4.4 0 0 1-.117.285m0 0"/><g clip-path="url(#b)"><path fill="#061c3d" d="M11.852 5.488a5.687 5.687 0 0 0-5.68-5.48C3.098.008.48 2.555.48 5.695a5.69 5.69 0 0 0 7.993 5.2 6.82 6.82 0 0 1 3.379-5.407M6.742 9.04v.64a.57.57 0 0 1-1.14 0v-.64c-.832-.184-1.508-.754-1.692-1.5q-.014-.069-.015-.137c0-.312.257-.57.57-.57.27 0 .492.188.55.434.098.398.606.707 1.157.707.617 0 1.137-.391 1.137-.856 0-.46-.52-.851-1.137-.851-1.254 0-2.277-.895-2.277-1.993 0-.925.73-1.699 1.707-1.921v-.637a.571.571 0 0 1 1.14 0v.637c.832.183 1.508.757 1.688 1.503q.018.063.02.133a.571.571 0 0 1-1.126.137c-.094-.395-.601-.703-1.152-.703-.617 0-1.137.39-1.137.851s.52.852 1.137.852c1.254 0 2.277.895 2.277 1.992 0 .926-.73 1.7-1.707 1.922m0 0"/></g><path fill="#061c3d" d="M19.824 1.715v4.598a6.8 6.8 0 0 1 2.278 5.074c0 .187-.02.379-.036.566h4.586V1.715Zm3.414 6.258a1.139 1.139 0 0 1 0-2.278 1.138 1.138 0 0 1 0 2.278m0 0"/><g clip-path="url(#c)"><path fill="#061c3d" d="M6.742 22.195v6.258c0 .313.254.57.567.57h15.93c.316 0 .57-.257.57-.57v-6.258Zm2.844 4.551a1.138 1.138 0 1 1 .002-2.275 1.138 1.138 0 0 1-.002 2.275m3.98 0a1.138 1.138 0 1 1 .003-2.275 1.138 1.138 0 0 1-.003 2.275m0 0"/></g></svg>