<svg xmlns="http://www.w3.org/2000/svg" width="40" height="40" version="1.0" viewBox="0 0 30 30"><defs><clipPath id="a"><path d="M2 16h26.844v9H2Zm0 0"/></clipPath><clipPath id="b"><path d="M2 22h26.844v7.031H2Zm0 0"/></clipPath></defs><path fill="#061c3d" d="m15.3 13.758-1.226-.754 1.465 2.148 1.473-2.148-1.235.754a.42.42 0 0 1-.476 0M16 9.055v1.652l1.602-.902ZM15.082 6.43l-1.395 2.265 1.395-.656ZM16 6.43v1.61l1.395.655Zm0 0"/><path fill="#061c3d" d="M21.242 14.148c3.012-4.386-.344-10.66-5.703-10.578-5.93-.043-9.055 7.262-4.957 11.516a6.85 6.85 0 0 0 2.54 1.68 6.7 6.7 0 0 0 3.015.414 7 7 0 0 0 1.504-.301c.488-.16.953-.367 1.394-.633q.665-.393 1.223-.922.556-.532.984-1.176m-2.265-2.394-3.028 4.422q-.17.312-.515.23a.47.47 0 0 1-.301-.23l-3.028-4.422q-.2-.306.051-.57.246-.264.563-.082l2.82 1.73 2.82-1.73q.316-.183.567.082.248.264.05.57m-6.934-2.11c.016-.054.043-.105.07-.156.012.04 3.059-5 2.992-4.808a.42.42 0 0 1 .415-.313q.316-.019.445.274l3 4.847a.45.45 0 0 1 .078.371.45.45 0 0 1-.219.309l-3.02 1.703c.13-.113-.027.031-.097.05a.43.43 0 0 1-.395-.03c-.062-.047-.136-.094-.035-.02l-3.023-1.703q-.305-.183-.211-.523m0 0"/><path fill="#061c3d" d="m15.082 9.055-1.602.75 1.602.902Zm0 0"/><path fill="#061c3d" d="M15.54 20.7a10.26 10.26 0 0 0 5.413-1.536 10.226 10.226 0 0 0 3.797-4.156C28.219 8.344 23.086 0 15.54.102 7.511.027 2.468 9.222 6.854 15.918a10.4 10.4 0 0 0 1.641 1.992 10 10 0 0 0 2.086 1.516q1.138.632 2.398.953 1.259.321 2.56.32m0-18.157c7.124-.012 10.554 8.852 5.327 13.633-2.816 2.754-7.836 2.754-10.648 0-5.227-4.781-1.797-13.645 5.32-13.633m0 0"/><g clip-path="url(#a)"><path fill="#061c3d" d="M15.543 24.508c4.937-.067 12.316-1.016 13.035-4.656.149-1.586-1.226-2.715-3.351-3.579-4.305 7.235-15.067 7.23-19.372 0-2.918 1.082-4.566 3.293-2.335 5.34 2.117 1.89 7.187 2.895 12.023 2.895m0 0"/></g><g clip-path="url(#b)"><path fill="#061c3d" d="M15.543 25.535c-5.215-.12-10.078-.73-13.055-3.496v2.121c0 1.215.985 2.211 2.551 2.977v-1.68q0-.209.152-.36a.5.5 0 0 1 .364-.148q.208.001.36.149a.49.49 0 0 1 .151.359c-.003.547.016 1.578-.007 2.117q1.452.54 2.976.84c-.004-.32 0-1.21 0-1.512q0-.214.152-.359a.48.48 0 0 1 .36-.148c.14 0 .262.046.363.148a.48.48 0 0 1 .152.36c-.007.39.008 1.288 0 1.69.954.16 1.958.278 2.97.352.007-.312-.009-1.18 0-1.476a.5.5 0 0 1 .152-.364.5.5 0 0 1 .359-.148q.21 0 .363.148a.5.5 0 0 1 .153.364c-.004.324.004 1.199 0 1.531.992.043 1.976.043 2.964 0-.003-.34.004-1.203 0-1.531a.5.5 0 0 1 .157-.364.5.5 0 0 1 .36-.148q.21 0 .362.148a.5.5 0 0 1 .153.364v1.476a32 32 0 0 0 2.965-.351c-.012-.407.011-1.297 0-1.692a.5.5 0 0 1 .156-.359.48.48 0 0 1 .36-.148.512.512 0 0 1 .516.508l-.001 1.511a19.6 19.6 0 0 0 2.976-.84c-.03-.539 0-1.574-.011-2.117a.5.5 0 0 1 .156-.355.48.48 0 0 1 .36-.149q.21-.002.363.149a.5.5 0 0 1 .152.355v1.68c1.566-.766 2.547-1.762 2.547-2.977v-2.12c-2.969 2.765-7.844 3.374-13.051 3.495m0 0"/></g></svg>