<svg xmlns="http://www.w3.org/2000/svg" width="40" height="40" version="1.0" viewBox="0 0 30 30"><defs><clipPath id="a"><path d="M.484 20H8v9.031H.484Zm0 0"/></clipPath><clipPath id="b"><path d="M22 21h7.516v8.031H22Zm0 0"/></clipPath><clipPath id="c"><path d="M1 0h28.516v28H1Zm0 0"/></clipPath></defs><g clip-path="url(#a)"><path fill="#005baa" d="M6.102 20.137H2.55a.94.94 0 0 0-.664.273l-1.13 1.13a.94.94 0 0 0-.273.663v5.895c0 .515.418.933.938.933h4.68c.52 0 .937-.418.937-.933V21.07a.934.934 0 0 0-.937-.933m-3.747 1.129v.742h-.742Zm3.747 6.832h-4.68v-5.153h.933c.52 0 .938-.422.938-.937v-.938h2.809Zm0 0"/></g><path fill="#005baa" d="M2.355 23.883h2.813v.933H2.355ZM2.355 25.754h2.813v.937H2.355ZM4.23 22.008h.938v.937H4.23Zm0 0"/><g clip-path="url(#b)"><path fill="#005baa" d="M28.578 21.54h-5.617a.94.94 0 0 0-.938.937v5.62c0 .516.422.934.938.934h5.617c.52 0 .938-.418.938-.933v-5.621a.94.94 0 0 0-.938-.938m-2.34 6.558v-2.813h-.937v2.813h-2.34v-5.621h2.34v1.875h.937v-1.875h2.34v5.62Zm0 0"/></g><g clip-path="url(#c)"><path fill="#005baa" d="m19.352 24.68.605.605h-3.18c4.18-1.785 7.121-5.941 7.121-10.77a10.75 10.75 0 0 0-.859-4.214h2.73a.937.937 0 0 0 .938-.934v-5.62a.94.94 0 0 0-.937-.938h-.938a.937.937 0 0 0-.934.937v5.621h-.937V5.602a.937.937 0 0 0-.938-.934h-.937a.934.934 0 0 0-.934.934v.761a10.7 10.7 0 0 0-2.507-1.62 5.617 5.617 0 1 1 7.89 6.804l.211-.629-.887-.297-.582 1.746L25.98 13.5l.52-.777-.523-.348a6.57 6.57 0 0 0 3.539-5.82A6.563 6.563 0 0 0 22.96 0a6.56 6.56 0 0 0-6.188 4.383 10.7 10.7 0 0 0-3.648-.637c-5.937 0-10.77 4.832-10.77 10.77v2.617l-.605-.606-.66.66 1.734 1.739 1.739-1.738-.665-.66-.605.605v-2.617c0-5.422 4.41-9.832 9.832-9.832 5.426 0 9.836 4.41 9.836 9.832 0 5.937-4.832 10.77-10.77 10.77H7.977v.937h11.98l-.605.605.664.664 1.734-1.738-1.734-1.734Zm5.48-20.934h.938v5.621h-.938Zm-2.809 1.856v2.851a11 11 0 0 0-.937-1.183V5.602Zm0 0"/></g><path fill="#005baa" d="M13.125 18.73a4.22 4.22 0 0 0 4.215-4.214 4.22 4.22 0 0 0-4.215-4.215c-2.32 0-4.21 1.89-4.21 4.215a4.22 4.22 0 0 0 4.21 4.214m0-7.492a3.283 3.283 0 0 1 3.281 3.278 3.283 3.283 0 0 1-3.281 3.277 3.28 3.28 0 0 1-3.277-3.277 3.28 3.28 0 0 1 3.277-3.278m0 0"/><path fill="#005baa" d="M13.125 16.86a2.346 2.346 0 0 0 2.344-2.344c0-1.29-1.051-2.34-2.344-2.34-1.29 0-2.34 1.05-2.34 2.34a2.345 2.345 0 0 0 2.34 2.343m0-3.747a1.405 1.405 0 1 1 .003 2.81 1.405 1.405 0 0 1-.003-2.81m0 0"/><path fill="#005baa" d="M7.473 12.645H6.102v3.746h1.37c.294 0 .407.218.434.289a.45.45 0 0 1-.101.508l-.97.972 2.65 2.649.968-.973a.469.469 0 0 1 .8.332v1.371H15v-1.371a.469.469 0 0 1 .8-.332l.97.973 2.648-2.649-.969-.973a.45.45 0 0 1-.101-.507c.027-.07.14-.29.433-.29h1.371v-3.745h-1.37a.46.46 0 0 1-.434-.29.45.45 0 0 1 .101-.511l.969-.969-2.648-2.648-.97.968a.47.47 0 0 1-.51.102.46.46 0 0 1-.29-.434v-1.37h-3.746v1.37c0 .29-.223.407-.29.434a.47.47 0 0 1-.51-.102l-.97-.968-2.648 2.648.969.969a.46.46 0 0 1 .101.511.46.46 0 0 1-.433.29m.996-1.465-.309-.305 1.324-1.324.309.304c.41.41.996.528 1.531.305a1.38 1.38 0 0 0 .867-1.297V8.43h1.871v.433c0 .578.333 1.078.868 1.297a1.38 1.38 0 0 0 1.53-.305l.31-.304 1.324 1.324-.309.305c-.406.41-.523.996-.305 1.53.223.536.72.868 1.301.868h.434v1.875h-.434c-.582 0-1.078.332-1.3.867a1.39 1.39 0 0 0 .304 1.532l.309.308-1.324 1.324-.31-.308a1.38 1.38 0 0 0-1.53-.305 1.38 1.38 0 0 0-.867 1.297v.437H12.19v-.437c0-.578-.332-1.074-.867-1.297a1.38 1.38 0 0 0-1.531.305l-.309.308L8.16 18.16l.309-.308c.406-.41.523-.997.304-1.532a1.385 1.385 0 0 0-1.3-.867h-.434v-1.875h.434c.582 0 1.078-.332 1.3-.867a1.39 1.39 0 0 0-.304-1.531M2.355 2.809h.938a.937.937 0 0 0 .937-.934V.938A.94.94 0 0 0 3.293 0h-.938a.937.937 0 0 0-.933.938v.937c0 .516.418.934.933.934m0-1.872h.938v.938h-.938ZM6.102 2.809h.937a.937.937 0 0 0 .938-.934V.938A.94.94 0 0 0 7.039 0h-.937a.937.937 0 0 0-.934.938v.937c0 .516.418.934.934.934m0-1.872h.937v.938h-.937ZM9.848 2.809h.937a.937.937 0 0 0 .938-.934V.938A.94.94 0 0 0 10.785 0h-.937a.937.937 0 0 0-.934.938v.937c0 .516.418.934.934.934m0-1.872h.937v.938h-.937Zm0 0"/></svg>