<svg xmlns="http://www.w3.org/2000/svg" width="40" height="40" version="1.0" viewBox="0 0 30 30"><defs><clipPath id="a"><path d="M1.172 0h27.582v29.031H1.172Zm0 0"/></clipPath></defs><g clip-path="url(#a)"><path fill="#005baa" d="M28.781 15.262A13.68 13.68 0 0 1 24.746 25a13.68 13.68 0 0 1-9.738 4.031c-3.676 0-7.137-1.43-9.735-4.031a13.68 13.68 0 0 1-4.035-9.738c0-3.63 1.403-7.055 3.942-9.645a.406.406 0 0 1 .57-.008c.16.157.164.414.008.57a12.9 12.9 0 0 0-3.715 9.083c0 7.148 5.816 12.965 12.965 12.965 7.148 0 12.965-5.817 12.965-12.965 0-3.418-1.317-6.64-3.711-9.082a.402.402 0 1 1 .574-.562 13.7 13.7 0 0 1 3.945 9.644M5.921 8.285c2.458-.629 5.993-1.754 8.876-3.55a.4.4 0 0 1 .426 0c2.882 1.796 6.414 2.921 8.875 3.55.175.043.3.207.3.39v8.813c0 1.176-.285 2.23-.875 3.223-1.39 2.344-4.492 4.184-7.226 5.805-.379.222-.73.433-1.078.644a.406.406 0 0 1-.418 0c-.348-.21-.703-.422-1.078-.644-2.735-1.621-5.836-3.461-7.23-5.805a6.17 6.17 0 0 1-.876-3.223V8.676c0-.184.125-.348.305-.39m.505 9.203c0 1.028.25 1.946.761 2.813 1.286 2.164 4.293 3.949 6.946 5.523q.455.269.875.52c.285-.168.574-.34.875-.52 2.656-1.574 5.66-3.36 6.949-5.523a5.4 5.4 0 0 0 .762-2.813v-8.5c-2.434-.64-5.778-1.734-8.586-3.437-2.809 1.703-6.149 2.797-8.582 3.437Zm1.363 2.453a4.7 4.7 0 0 1-.66-2.453V9.832c0-.18.117-.34.293-.387 2.855-.804 5.34-1.8 7.387-2.965a.4.4 0 0 1 .398 0c2.05 1.165 4.535 2.16 7.39 2.965a.4.4 0 0 1 .294.387v7.656c0 .899-.215 1.7-.664 2.453-1.223 2.059-4.434 3.95-6.782 5.329l-.23.136a.4.4 0 0 1-.207.055.4.4 0 0 1-.203-.055l-.235-.136C12.227 23.89 9.012 22 7.79 19.94m.145-2.453c0 .758.175 1.407.55 2.04 1.118 1.882 4.227 3.71 6.496 5.046l.028.016.031-.016c2.27-1.336 5.379-3.164 6.496-5.047.375-.632.55-1.28.55-2.039v-7.351c-2.706-.778-5.081-1.735-7.077-2.844-1.992 1.11-4.371 2.066-7.074 2.844Zm1.41 1.938v-5.461c0-.469.383-.852.855-.852h1.32c.266 0 .504.121.66.317 1.895-.364 2.442-1.36 2.227-3.918a.734.734 0 0 1 .653-.793c.582-.067 1.082.094 1.445.465.867.879.762 2.754.644 3.832h2.094a1.212 1.212 0 0 1 .996 1.898 1.209 1.209 0 0 1-.008 1.863 1.205 1.205 0 0 1-.348 1.7c.083.16.13.336.13.523a1.14 1.14 0 0 1-1.137 1.137h-1.121c-.234.015-.484.043-.746.066-.633.063-1.32.129-1.98.129a6.5 6.5 0 0 1-1.16-.09 7 7 0 0 1-.763-.191c-.265-.078-.5-.149-.859-.188a.84.84 0 0 1-.726.414H10.2a.85.85 0 0 1-.852-.851Zm7.98-3.988a.405.405 0 0 0 0 .808h2.137c.223 0 .406-.18.406-.402a.41.41 0 0 0-.406-.406Zm2.309 2.023a.403.403 0 0 0-.403-.406h-1.84a.405.405 0 1 0 0 .809h1.84c.223 0 .403-.18.403-.403M19.203 19a.33.33 0 0 0-.328-.328h-1.137a.33.33 0 0 0-.332.328c0 .18.149.328.332.328h1.137a.33.33 0 0 0 .328-.328m-1.566-5.18a.405.405 0 0 0-.403.407c0 .222.18.406.403.406h1.605a.405.405 0 0 0 .403-.406.405.405 0 0 0-.403-.407Zm-5.266.39v4.856c.41.047.691.13.965.211.207.063.406.121.676.172.777.14 1.765.063 2.672-.023a1.144 1.144 0 0 1 .047-.953 1.2 1.2 0 0 1-.551-1.012c0-.297.101-.563.277-.773a1.2 1.2 0 0 1-.27-.43q-.343.266-.863.437a.4.4 0 0 1-.125.024.405.405 0 0 1-.129-.79c1.035-.34 1.38-1.03 1.22-2.468v-.09s0-.004.003-.004c.242-1.906.121-3.125-.363-3.617-.18-.18-.407-.258-.715-.234.195 2.433-.235 4.168-2.844 4.695m-2.219 5.216c0 .023.02.043.047.043h1.32c.024 0 .043-.02.043-.043v-5.461c0-.024-.019-.047-.042-.047H10.2a.047.047 0 0 0-.048.047Zm8.86-14.149a.56.56 0 0 1 .086-.597l.668-.77-.297-.976a.56.56 0 0 1 .164-.582.56.56 0 0 1 .597-.102l.938.395.836-.582a.566.566 0 0 1 .887.511c-.02.219-.086 1.016-.086 1.016l.812.613a.56.56 0 0 1 .211.57.55.55 0 0 1-.422.43l-.992.234-.336.961a.56.56 0 0 1-.476.38h-.059a.55.55 0 0 1-.48-.27l-.528-.875-1.02-.02a.56.56 0 0 1-.503-.336m1.035-.46.723.015c.14.004.265.078.34.195l.374.621.239-.683a.4.4 0 0 1 .289-.262l.707-.168-.578-.437a.4.4 0 0 1-.157-.356l.059-.722-.594.414a.41.41 0 0 1-.39.039l-.668-.282.21.696a.41.41 0 0 1-.081.383ZM6.19 4.772a.56.56 0 0 1 .211-.57l.813-.613-.086-1.016a.56.56 0 0 1 .883-.511l.836.582.941-.395a.56.56 0 0 1 .598.102.55.55 0 0 1 .16.582l-.293.972.668.774a.566.566 0 0 1-.418.933l-1.02.02-.527.875a.55.55 0 0 1-.48.27h-.063a.56.56 0 0 1-.473-.38l-.336-.96-.992-.235a.55.55 0 0 1-.422-.43m1.106-.234.71.164a.4.4 0 0 1 .286.262l.242.683.375-.62c.07-.118.2-.192.336-.196l.727-.016L9.5 4.27a.4.4 0 0 1-.082-.383l.21-.696-.671.282a.4.4 0 0 1-.387-.04l-.597-.413.062.722a.4.4 0 0 1-.156.356l-.582.437Zm5.441-2.191a.563.563 0 0 1 .316-.973l1.008-.129.434-.922a.564.564 0 0 1 1.024 0l.433.922 1.012.129a.56.56 0 0 1 .465.383c.07.21.011.437-.149.59l-.742.695.191 1a.568.568 0 0 1-.828.602l-.894-.493-.89.493a.55.55 0 0 1-.606-.04.55.55 0 0 1-.223-.562l.191-1Zm.926-.239.531.5a.39.39 0 0 1 .117.368l-.136.714.64-.351a.4.4 0 0 1 .387 0l.637.351-.137-.714a.4.4 0 0 1 .121-.368l.531-.5-.722-.09a.4.4 0 0 1-.317-.226l-.308-.66-.309.66a.4.4 0 0 1-.312.227Zm0 0"/></g></svg>