<svg xmlns="http://www.w3.org/2000/svg" width="40" height="40" version="1.0" viewBox="0 0 30 30"><defs><clipPath id="a"><path d="M.484.145h29.032V29H.484Zm0 0"/></clipPath></defs><g clip-path="url(#a)"><path fill="#005baa" d="M29.348 7.918a.4.4 0 0 1 0 .566L28.02 9.813v2.261h-4.344V7.73h4.152l-2.012 2.012-.511-.883a.4.4 0 0 0-.547-.148.403.403 0 0 0-.149.55l.774 1.337c.133.23.445.27.633.082l2.765-2.762c.157-.16.41-.16.567 0m-.86 17.508a1.92 1.92 0 0 1 0 2.71 1.92 1.92 0 0 1-2.71 0l-5.22-5.218a.927.927 0 0 1-.046-1.258l-.93-.93a1.52 1.52 0 0 0-1.875-.234 8.93 8.93 0 0 1-4.578 1.254 8.97 8.97 0 0 1-8.973-8.973 8.97 8.97 0 0 1 8.973-8.972 8.97 8.97 0 0 1 8.973 8.972 8.95 8.95 0 0 1-1.254 4.582 1.51 1.51 0 0 0 .234 1.871l.93.93a.93.93 0 0 1 1.258.047Zm-8.46-12.649a6.9 6.9 0 0 0-6.9-6.898 6.9 6.9 0 0 0-6.898 6.898 6.9 6.9 0 0 0 6.899 6.899 6.9 6.9 0 0 0 6.898-6.899m-1.813 10.688c-.785.375-1.613.664-2.473.855a11.7 11.7 0 0 1-2.613.29 11.8 11.8 0 0 1-8.367-3.465 11.8 11.8 0 0 1-3.465-8.368c0-3.265 1.324-6.222 3.465-8.363A11.8 11.8 0 0 1 13.129.95c1.285 0 2.523.203 3.68.578.906.297 1.761.7 2.558 1.196l-.062-.004a.4.4 0 0 0-.418.379.4.4 0 0 0 .379.422l1.449.078a.403.403 0 0 0 .383-.578l-.555-1.305a.4.4 0 1 0-.738.308l.011.032a12.6 12.6 0 0 0-2.761-1.29 12.6 12.6 0 0 0-3.926-.62 12.6 12.6 0 0 0-8.934 3.699 12.58 12.58 0 0 0-3.703 8.933c0 3.493 1.414 6.649 3.703 8.938a12.6 12.6 0 0 0 8.934 3.7c.953 0 1.887-.106 2.789-.31.926-.21 1.809-.52 2.64-.914a.402.402 0 0 0-.343-.726M28.02 3.398l1.328-1.328a.406.406 0 0 0 0-.57.4.4 0 0 0-.567 0l-2.765 2.766a.403.403 0 0 1-.633-.082l-.774-1.34a.4.4 0 0 1 .149-.547.4.4 0 0 1 .547.144l.511.887 2.012-2.012h-4.152V5.66h4.344Zm.761 10.934-2.765 2.766a.404.404 0 0 1-.633-.086l-.774-1.336a.402.402 0 1 1 .695-.402l.512.882 2.012-2.011h-4.152v4.343h4.344v-2.261l1.328-1.329a.4.4 0 0 0 0-.566.394.394 0 0 0-.567 0M13.52 11.574l.312 3.145-.7 1.004-.702-1.004.316-3.145a3.984 3.984 0 0 0-3.582 3.606v1.062h7.934V15.18a3.99 3.99 0 0 0-3.578-3.606m-.391-.281a1.9 1.9 0 0 0 1.898-1.898 1.9 1.9 0 0 0-1.898-1.899 1.9 1.9 0 0 0-1.899 1.899 1.9 1.9 0 0 0 1.899 1.898m0 0"/></g></svg>