<svg xmlns="http://www.w3.org/2000/svg" width="40" height="40" version="1.0" viewBox="0 0 30 30"><defs><clipPath id="a"><path d="M.828 0h28.309v29.031H.828Zm0 0"/></clipPath></defs><g clip-path="url(#a)"><path fill="#005baa" fill-rule="evenodd" d="M16.41 22.27v.03c0 .368-.32.669-.71.669h-1.38c-.39 0-.71-.301-.71-.668v-.024q.492.187.925.438c.29.168.645.168.934 0q.438-.252.941-.445m6.856-13.25h1.015c.16 0 .29.128.29.293v12.39a.28.28 0 0 1-.087.207.3.3 0 0 1-.203.086h-7.035c1.438-.398 3.121-.527 4.797-.543a1.23 1.23 0 0 0 1.223-1.226zM12.758 21.996H5.723a.295.295 0 0 1-.293-.293V9.313c0-.165.133-.293.293-.293h1.02v11.207c0 .675.542 1.222 1.218 1.226 1.676.016 3.36.145 4.797.543m1.777-.34c-1.777-.847-4.176-1.117-6.566-1.136a.3.3 0 0 1-.293-.293V8.254c0-.078.031-.152.09-.207a.3.3 0 0 1 .207-.086c.71.004 1.312.02 1.847.05.098.696.325 1.192.594 1.677-.375-.032-.758-.051-1.16-.063a.467.467 0 1 0-.031.934c.613.023 1.172.058 1.742.125.152.324.293.71.394 1.207a23 23 0 0 0-2.101-.176.473.473 0 0 0-.488.45.47.47 0 0 0 .449.487c.797.032 1.52.086 2.27.207q.01.089.015.184c.008.148.05.289.121.414a.94.94 0 0 0-.125.469v.086c-.73-.11-1.46-.168-2.242-.203a.473.473 0 0 0-.488.449.473.473 0 0 0 .449.488c.87.035 1.68.106 2.496.25.12.211.285.39.484.531v.059c0 .242.051.473.149.68-1-.211-2.008-.313-3.086-.364a.47.47 0 0 0-.492.446.474.474 0 0 0 .449.492c1.316.058 2.523.2 3.746.535a1.65 1.65 0 0 0 1.57 1.242Zm-.953-2.972c-1.348-.422-2.789-.618-4.32-.688a.467.467 0 1 0-.047.934c1.45.07 2.812.246 4.086.644a.467.467 0 1 0 .281-.89m1.89-.067a1.64 1.64 0 0 0 1.567-1.242c1.223-.336 2.43-.477 3.75-.535a.47.47 0 0 0 .445-.492.467.467 0 0 0-.488-.446c-1.082.051-2.09.153-3.09.364.098-.207.149-.438.149-.68v-.063c.199-.136.363-.316.484-.527a18 18 0 0 1 2.496-.25.47.47 0 0 0 .45-.488.473.473 0 0 0-.489-.45c-.781.036-1.512.094-2.242.204v-.086a.94.94 0 0 0-.125-.469.9.9 0 0 0 .125-.414l.012-.184c.75-.12 1.472-.175 2.27-.207a.47.47 0 0 0 .448-.488.473.473 0 0 0-.488-.45c-.734.032-1.41.083-2.101.177.101-.496.242-.883.394-1.207a22 22 0 0 1 1.742-.125.468.468 0 1 0-.031-.934c-.402.012-.785.031-1.16.063.27-.485.496-.981.594-1.676a35 35 0 0 1 1.847-.051.293.293 0 0 1 .297.293v11.973c0 .16-.129.289-.293.293-2.39.02-4.789.289-6.562 1.136Zm1.231.957c1.274-.398 2.637-.574 4.086-.644a.467.467 0 1 0-.047-.934c-1.531.07-2.972.266-4.316.688a.467.467 0 1 0 .277.89m.863-5.648v.261a.7.7 0 0 1-.695.7v.699a.7.7 0 0 1-.7.695h-.019v.7a.7.7 0 0 1-.695.699h-.906a.7.7 0 0 1-.7-.7v-.699h-.019a.697.697 0 0 1-.695-.695v-.7a.7.7 0 0 1-.7-.698v-.262Zm-3.773-.938h-1.355c-.208-3.515-1.731-3.375-1.731-5.758a4.294 4.294 0 1 1 8.59 0c0 2.383-1.524 2.243-1.73 5.758H16.21V8.727h.531c.809 0 1.469-.66 1.469-1.465 0-.809-.66-1.469-1.469-1.469-.808 0-1.465.66-1.465 1.469v.527h-.547v-.527c0-.809-.66-1.469-1.468-1.469-.805 0-1.465.66-1.465 1.469 0 .804.66 1.465 1.465 1.465h.531Zm1.484 0h-.547V8.727h.547ZM13.793 7.79h-.531a.534.534 0 0 1-.532-.527.532.532 0 0 1 1.063 0Zm2.418 0v-.527a.532.532 0 0 1 1.062 0c0 .289-.238.527-.53.527Zm-.738-6.309a.468.468 0 1 1-.937 0V.47a.468.468 0 1 1 .937 0Zm-3.305.633a.47.47 0 0 1-.172.64.47.47 0 0 1-.64-.171l-.504-.875a.467.467 0 1 1 .808-.469ZM9.625 4.316a.467.467 0 1 1-.469.809l-.875-.504a.468.468 0 0 1 .465-.812Zm9.023-1.734a.47.47 0 0 1-.64.172.47.47 0 0 1-.172-.64l.508-.876a.47.47 0 0 1 .64-.172c.223.13.301.414.168.641Zm2.2 2.543a.46.46 0 0 1-.637-.168.466.466 0 0 1 .168-.64l.875-.508a.469.469 0 1 1 .469.813Zm4.422 1.441-.043.309a.469.469 0 0 1-.926-.14l.191-1.305a.47.47 0 0 1 .387-.395l1.3-.219a.47.47 0 0 1 .544.387.474.474 0 0 1-.387.54l-.469.077a14.1 14.1 0 0 1 3.285 9.063c0 7.808-6.34 14.148-14.152 14.148-7.809 0-14.148-6.34-14.148-14.148a14.1 14.1 0 0 1 3.41-9.211.466.466 0 1 1 .707.61 13.18 13.18 0 0 0-3.18 8.6c0 7.294 5.918 13.216 13.211 13.216 7.297 0 13.215-5.922 13.215-13.215a13.15 13.15 0 0 0-2.945-8.317m0 0"/></g></svg>