<svg xmlns="http://www.w3.org/2000/svg" width="40" height="40" version="1.0" viewBox="0 0 30 30"><defs><clipPath id="a"><path d="M.484 1.215H28V28H.484Zm0 0"/></clipPath><clipPath id="b"><path d="M15 13h14.516v15H15Zm0 0"/></clipPath></defs><g clip-path="url(#a)"><path fill="#fff" d="M19.324 21.945a4.4 4.4 0 0 1-1.625-.316 4.2 4.2 0 0 1-.863-.473A7.338 7.338 0 0 1 6.43 14.488a7.337 7.337 0 0 1 14.629-.816q.74.323 1.316.898a4.35 4.35 0 0 1 1.168 2.13 4.3 4.3 0 0 1-.023 1.937l.363.363 2.582.043c.308-1.152.265-.996.578-2.148l-2.531-1.403v-2.004l2.531-1.406c-.313-1.152-.27-.996-.578-2.145l-2.89.047L22.57 8.25l1.489-2.48c-.844-.844-.727-.73-1.57-1.57l-2.481 1.487-1.735-1.003.047-2.891c-1.152-.313-.996-.27-2.148-.578L14.77 3.746h-2.004l-1.407-2.531c-1.152.308-.992.265-2.144.578l.047 2.89-1.735 1.005-2.48-1.489c-.844.84-.73.727-1.574 1.57L4.96 8.25c-.45.777-.55.957-1 1.734l-2.895-.046c-.308 1.152-.265.996-.574 2.144l2.531 1.406v2.004l-2.53 1.406c.308 1.149.265.993.573 2.145l2.895-.047c.45.777.55.953 1 1.734l-1.488 2.48c.843.845.73.731 1.574 1.571l2.48-1.488c.778.45.957.555 1.735 1.004l-.047 2.89c1.152.31.992.27 2.144.579l1.407-2.532h2.004l1.402 2.532c1.152-.309.996-.27 2.148-.578l-.047-2.891c.778-.45.954-.555 1.735-1.004l2.48 1.488.403-.402-2.555-2.555a4.4 4.4 0 0 1-1.012.121m0 0"/></g><g clip-path="url(#b)"><path fill="#fff" d="m28.89 24.96-6.128-6.128a3.64 3.64 0 0 0-.864-3.781 3.64 3.64 0 0 0-4.015-.77l2.328 2.328-1.902 1.907-2.332-2.332a3.643 3.643 0 0 0 4.555 4.879l6.128 6.132a1.58 1.58 0 0 0 2.23-2.234m0 0"/></g><path fill="#fff" d="M9.2 17.45v-4.43h1.003v-1.274H9.2V10.52h-.746v1.226H7.45v1.274h1.004v4.43ZM11.727 17.45v-1.048h1.007V15.13h-1.007v-4.61h-.743v4.61H9.977v1.273h1.007v1.047ZM14.27 17.45v-3.583h1.007v-1.27H14.27V10.52h-.743v2.078H12.52v1.27h1.007v3.581Zm0 0"/></svg>