<svg xmlns="http://www.w3.org/2000/svg" width="40" height="40" version="1.0" viewBox="0 0 30 30"><defs><clipPath id="a"><path d="M.484 2.941h29.032V26H.484Zm0 0"/></clipPath></defs><g clip-path="url(#a)"><path fill="#fff" fill-rule="evenodd" d="M17.55 19.113h-.023l-.011.008h-.004l-.004.004H17.5l-.016.016h-.004v.004h-.003c-.008.007-.012.02-.02.027l-.168.367a.1.1 0 0 1-.035.043l-.016.008-.004.004q-.01.004-.027.008l-.395.058a.1.1 0 0 0-.085.117q.002.035.027.059l.117.117.176.18c.023.027.035.058.027.094l-.066.414a.05.05 0 0 0 0 .035v.008l.004.007.008.02.003.004v.004l.032.031.011.004.016.008h.027l.012.004.004-.004h.004a.04.04 0 0 0 .031-.012l.344-.191q.012-.007.023-.008l.028-.004.027.004q.012.001.023.008l.344.191q.013.012.031.012h.004l.004.004.012-.004h.027l.016-.008.012-.004.03-.031v-.004l.005-.004.008-.02.004-.007v-.008a.05.05 0 0 0 0-.035l-.067-.414c-.008-.036.004-.067.027-.094l.223-.227.07-.07a.08.08 0 0 0 .028-.059.1.1 0 0 0-.086-.117l-.395-.058q-.017-.004-.027-.008l-.004-.004-.016-.008a.1.1 0 0 1-.035-.043l-.172-.367c-.003-.008-.007-.02-.015-.027h-.004v-.004h-.004l-.016-.016h-.007l-.004-.004h-.004l-.012-.008Zm-2.554 0h-.008l-.02.004-.015.004-.008.004h-.004l-.007.004-.02.016-.008.007-.023.032-.207.445a.1.1 0 0 1-.04.05l-.015.009-.012.007c-.007.004-.02.004-.027.008l-.477.07c-.07.012-.12.075-.109.145q.006.04.035.07l.14.14v.005l.216.215q.04.047.035.113l-.086.5v.043l.004.004v.004l.012.035.003.004.004.008.012.011.012.016h.008l.004.004.03.015h.009l.007.004h.043c.012-.004.028-.007.04-.015l.414-.23q.015-.008.03-.012l.032-.004.031.004q.016.005.031.011l.415.23c.011.009.027.012.039.016h.043l.007-.004h.008l.031-.015.004-.004h.008l.012-.016.012-.011.004-.008.003-.004.012-.035v-.004l.004-.004v-.043l-.086-.5a.15.15 0 0 1 .035-.113l.274-.274.082-.086a.12.12 0 0 0 .035-.07c.012-.07-.04-.133-.11-.145l-.476-.07q-.013-.004-.031-.008l-.008-.008-.016-.007a.1.1 0 0 1-.039-.051l-.207-.445-.023-.032-.008-.007-.02-.016-.007-.004h-.004l-.008-.004-.016-.004-.02-.004Zm-2.555 0h-.023l-.012.008h-.004l-.004.004h-.007l-.016.016h-.004v.004h-.004c-.008.007-.012.02-.015.027l-.172.367a.1.1 0 0 1-.035.043l-.016.008-.004.004q-.011.004-.027.008l-.395.058a.1.1 0 0 0-.086.117q.002.035.028.059l.117.117.175.18c.024.027.036.058.028.094l-.067.414a.05.05 0 0 0 0 .035v.008l.004.007.008.02.004.004v.004l.031.031.012.004.016.008H12l.012.004.004-.004h.004a.04.04 0 0 0 .03-.012l.345-.191q.01-.007.023-.008l.027-.004.028.004q.01.001.023.008l.344.191q.013.012.031.012h.004l.004.004.012-.004h.027l.016-.008.011-.004.032-.031v-.004l.003-.004.008-.02.004-.007v-.008a.05.05 0 0 0 0-.035l-.066-.414c-.008-.036.004-.067.027-.094l.223-.227.07-.07a.08.08 0 0 0 .027-.059.1.1 0 0 0-.085-.117l-.395-.058q-.017-.004-.027-.008l-.004-.004-.016-.008a.1.1 0 0 1-.035-.043l-.172-.367c-.004-.008-.008-.02-.016-.027h-.003v-.004h-.004l-.016-.016h-.008l-.004-.004h-.004l-.011-.008Zm-5.09-.86h15.297l-.136.29A8.55 8.55 0 0 1 15 23.012a8.55 8.55 0 0 1-7.512-4.469Zm-3.175 0h2.61l.253.532A9.06 9.06 0 0 0 15 23.523a9.06 9.06 0 0 0 7.96-4.738l.255-.531h2.613l-.058.308a2.45 2.45 0 0 1-.965 1.391c-.5.352-.848.875-.98 1.473a2.46 2.46 0 0 1-1.86 1.86 2.44 2.44 0 0 0-1.473.98 2.45 2.45 0 0 1-2.426 1.007 2.47 2.47 0 0 0-1.738.344 2.45 2.45 0 0 1-2.316.168l-.016-.008-.016-.004a3 3 0 0 1-.308-.168l-.387-.195-.422-.125a2.4 2.4 0 0 0-.898-.012 2.43 2.43 0 0 1-1.36-.152l-.02-.008-.01-.004a2.44 2.44 0 0 1-1.067-.855 2.5 2.5 0 0 0-.645-.629l-.379-.207-.421-.133c-.231-.05-.45-.137-.653-.246l-.004-.004-.023-.012a2.45 2.45 0 0 1-1.207-1.609 2.44 2.44 0 0 0-.98-1.473 2.46 2.46 0 0 1-.966-1.39Zm14.797-4.51.222 1.386h-.449Zm-4.535-.368c.136 0 .23.043.273.125a.74.74 0 0 1 .07.36v1.523a.8.8 0 0 1-.07.367c-.043.086-.137.129-.274.129-.132 0-.226-.043-.273-.129a.8.8 0 0 1-.066-.367v-1.524q0-.24.066-.363.072-.122.274-.121m10.238-.406.672 2.047v1.261h.574v-1.261l.664-2.047h-.55l-.388 1.312-.406-1.312Zm-1.738 0v.445h.523v2.863h.605v-2.863h.516v-.445Zm-.91 0v3.308h.597V12.97Zm-1.739 0v3.308h1.402v-.414h-.804V12.97Zm-1.644 0-.66 3.308h.566l.133-.761h.578l.129.761h.558l-.66-3.308Zm-2.832 0v2.238q0 .374.082.613.08.241.285.371t.562.13c.238 0 .43-.044.563-.13a.66.66 0 0 0 .285-.375q.082-.24.082-.609v-2.238h-.582v2.308c0 .192-.024.336-.067.442-.046.101-.14.156-.28.156-.138 0-.231-.055-.274-.156a1.1 1.1 0 0 1-.07-.442V12.97Zm-5.672 0v3.308h.601v-1.496h.672v1.496h.606V12.97h-.606v1.383h-.672v-1.383Zm-3.399 0v3.308h.598V12.97Zm-2.394 0v3.308h.601v-1.496h.672v1.496h.606V12.97H5.62v1.383H4.95v-1.383Zm10.09-.035q-.51 0-.735.27-.217.268-.219.796v1.242q.001.528.22.805.223.274.733.273.054.001.07-.004c.087.13.188.254.313.375q.181.177.328.247l.118-.399a1.5 1.5 0 0 1-.332-.32q.457-.216.457-.977V14q-.001-.527-.22-.797-.22-.27-.733-.27m-5.7 0q-.52 0-.73.289c-.14.191-.215.476-.215.855v1.11q0 .55.207.843c.137.196.363.29.676.29q.406 0 .558-.368l.043.324h.391v-1.68H8.77v.383h.355v.31q0 .293-.078.44-.082.148-.285.149c-.137 0-.235-.047-.282-.14q-.076-.141-.078-.423v-1.382c0-.121.008-.223.024-.297a.36.36 0 0 1 .094-.188q.075-.075.226-.074.143 0 .215.059.07.054.094.16t.023.289v.187h.574v-.172q0-.478-.21-.722-.218-.241-.704-.242M.492 11.199h29.016l-1.633 3.27 1.633 3.27H.492l1.633-3.27Zm17.059-2.996h-.004l-.02.004-.011.004-.004.004h-.004l-.008.004-.016.011-.007.008q-.01.011-.02.028l-.168.367a.1.1 0 0 1-.035.039l-.016.008-.004.004q-.01.007-.027.007l-.395.059a.104.104 0 0 0-.085.121c0 .02.011.043.027.059l.117.117.176.18a.1.1 0 0 1 .027.09l-.066.417a.05.05 0 0 0 0 .036v.007l.015.032v.004l.024.023h.004l.004.004.011.004.016.008h.004l.008.003h.035q.019-.005.031-.011l.344-.192.023-.011h.055l.023.011.344.192q.013.006.031.011h.036l.007-.003h.004l.016-.008.012-.004.004-.004h.003l.024-.024V9.81l.016-.032V9.77a.05.05 0 0 0 0-.036l-.067-.418a.1.1 0 0 1 .027-.09L18.286 9l.07-.07a.1.1 0 0 0 .028-.059.104.104 0 0 0-.086-.121l-.395-.059a.1.1 0 0 1-.027-.007l-.004-.004-.016-.008a.1.1 0 0 1-.035-.04l-.172-.366a.1.1 0 0 0-.015-.028l-.008-.008-.016-.011-.007-.004h-.004l-.004-.004-.012-.004-.02-.004Zm-5.11 0h-.004l-.019.004-.012.004-.004.004h-.004l-.007.004-.016.011-.008.008a.1.1 0 0 0-.015.028l-.172.367a.1.1 0 0 1-.035.039l-.016.008-.004.004a.1.1 0 0 1-.027.007l-.395.059a.104.104 0 0 0-.086.121c0 .02.012.043.028.059l.117.117.175.18a.1.1 0 0 1 .028.09l-.067.417a.05.05 0 0 0 0 .036v.007l.016.032v.004l.024.023h.003l.004.004.012.004.016.008h.004l.007.003h.036q.018-.005.03-.011l.345-.192.023-.011h.055l.023.011.344.192q.013.006.031.011h.035l.008-.003h.004l.016-.008.011-.004.004-.004h.004l.024-.024V9.81l.015-.032V9.77a.05.05 0 0 0 0-.036l-.066-.418a.1.1 0 0 1 .027-.09L13.176 9l.07-.07a.1.1 0 0 0 .027-.059.104.104 0 0 0-.085-.121l-.395-.059q-.017-.001-.027-.007l-.004-.004-.016-.008a.1.1 0 0 1-.035-.04l-.172-.366a.1.1 0 0 0-.016-.028l-.007-.008-.016-.011-.008-.004h-.004l-.004-.004-.011-.004-.02-.004Zm2.555-.375-.008.004h-.02l-.015.008h-.008l-.004.004-.007.004-.02.015-.008.008q-.012.013-.023.031l-.207.446a.1.1 0 0 1-.04.05l-.015.008-.012.008c-.007.004-.02.004-.027.008l-.477.07a.126.126 0 0 0-.109.145q.006.04.035.07l.14.14v.005l.216.214q.04.049.035.11l-.086.504v.043l.004.004v.003l.012.036.003.004.004.007.024.024.008.004.004.004.03.015h.009l.007.004h.043c.012-.004.028-.008.04-.015l.414-.231.03-.012.032-.004.031.004.031.012.415.23c.011.008.027.012.039.016h.043l.007-.004h.008l.031-.015.004-.004.008-.004.024-.024.004-.007.003-.004.012-.036v-.003l.004-.004V9.68l-.086-.504a.14.14 0 0 1 .035-.11l.274-.273.082-.086a.12.12 0 0 0 .035-.07.126.126 0 0 0-.11-.145l-.476-.07q-.013-.004-.031-.008l-.008-.008-.016-.008a.1.1 0 0 1-.039-.05l-.207-.446q-.011-.018-.023-.03l-.008-.009-.02-.015-.007-.004-.004-.004h-.008l-.016-.008h-.02l-.007-.004-.004.004ZM15 5.93a8.55 8.55 0 0 1 7.512 4.468l.136.29H7.352l.136-.29A8.55 8.55 0 0 1 15 5.93m-.012-2.989c.344 0 .684.07 1.004.215l.02.008.004.004.308.164.383.195c.418.168.879.22 1.332.141a2.46 2.46 0 0 1 1.668.3l.008.009.015.007c.293.172.555.41.758.7q.134.189.297.347l.348.282.375.203q.205.093.433.14c.23.051.45.137.653.246l.008.008.011.008c.606.332 1.051.914 1.207 1.61.133.597.485 1.12.985 1.472.488.34.82.84.965 1.39l.054.297h-2.61l-.253-.53A9.05 9.05 0 0 0 15 5.417a9.05 9.05 0 0 0-7.96 4.738l-.255.531H4.172l.058-.308c.145-.55.477-1.05.965-1.39.5-.352.852-.876.985-1.473.207-.93.93-1.653 1.86-1.86a2.46 2.46 0 0 0 1.472-.984 2.44 2.44 0 0 1 2.425-1.004 2.44 2.44 0 0 0 1.735-.348c.402-.254.86-.379 1.316-.379m0 0"/></g></svg>