<svg xmlns="http://www.w3.org/2000/svg" width="40" height="40" version="1.0" viewBox="0 0 30 30"><defs><clipPath id="a"><path d="M8 0h20.719v15H8Zm0 0"/></clipPath><clipPath id="b"><path d="M1.137 5H14v24H1.137Zm0 0"/></clipPath></defs><g clip-path="url(#a)"><path fill="#005baa" d="M9.082.398h19.363v13.829H9.082v-2.473l-.398.059v2.812h20.16V0H8.684v9.39l.398-.058Zm0 0"/></g><path fill="#005baa" d="M24.86 3.117h.007a.2.2 0 0 0 .051-.02l.07 1.04a.15.15 0 0 0 .16.14.2.2 0 0 0 .09-.035q.035.03.086.035a.156.156 0 0 0 .164-.14l.067-1.04a.2.2 0 0 0 .05.02h.008c.051 0 .094-.043.098-.094.055-.804-.129-.996-.164-1.027a.1.1 0 0 0-.063-.02q-.004-.004-.007-.003h-.48s-.005 0-.009.004a.1.1 0 0 0-.058.02c-.04.03-.22.222-.168 1.026.004.051.047.094.097.094M25.516 1.625a.27.27 0 0 1-.278.277.28.28 0 0 1-.199-.078.27.27 0 0 1-.082-.199q0-.112.082-.195a.27.27 0 0 1 .2-.082q.111 0 .195.082a.27.27 0 0 1 .082.195M26.203 3.117h.004a.2.2 0 0 0 .055-.02l.066 1.04c.004.082.078.144.164.14a.17.17 0 0 0 .086-.035q.038.03.086.035c.086.004.16-.058.164-.14l.067-1.04a.2.2 0 0 0 .054.02h.004a.1.1 0 0 0 .102-.094c.05-.804-.13-.996-.168-1.027a.1.1 0 0 0-.059-.02q-.006-.004-.012-.003h-.476q-.006-.001-.012.004-.03 0-.058.02c-.036.03-.22.222-.165 1.026 0 .051.047.094.098.094M26.578 1.902a.276.276 0 0 0 .277-.277.28.28 0 0 0-.277-.277.28.28 0 0 0-.277.277c0 .156.125.277.277.277M17.148 6.61q-.059.07-.105.14l-.336-.195-.184.32.336.191a1.4 1.4 0 0 0-.066.16l-.375-.097-.098.351.375.102-.023.172h-.387v.367h.387l.023.172-.375.102.098.355.375-.102c.02.055.039.11.066.16l-.336.196.184.316.336-.191q.046.072.105.137l-.273.273.258.262.273-.274q.065.053.14.106l-.194.336.316.18.195-.333c.051.024.106.043.16.067l-.101.37.355.099.102-.375c.055.007.113.02.172.023v.387h.367V10c.059-.004.117-.016.172-.023l.101.375.356-.098-.102-.371c.055-.024.11-.043.16-.067l.196.332.316-.18-.191-.335q.072-.052.137-.106l.273.274.258-.262-.274-.273q.059-.066.11-.137l.332.191.183-.316-.336-.195c.028-.051.047-.106.067-.16l.375.101.097-.355-.375-.102.024-.172h.387v-.367h-.387l-.024-.172.375-.102-.097-.351-.375.098a1.4 1.4 0 0 0-.067-.16l.336-.192-.183-.32-.332.195q-.051-.07-.11-.14l.274-.274-.258-.258-.273.274a1 1 0 0 0-.137-.106l.191-.336-.316-.183-.196.335a2 2 0 0 0-.16-.066l.102-.375-.356-.094-.101.375a1 1 0 0 0-.172-.023v-.387h-.367v.387a1 1 0 0 0-.172.023l-.102-.375-.355.094.101.375q-.082.03-.16.066l-.195-.335-.316.183.195.336a1 1 0 0 0-.14.106l-.274-.274-.258.258Zm1.586-.32a1.65 1.65 0 1 1-.002 3.302 1.65 1.65 0 0 1 .002-3.303m0 0"/><path fill="#005baa" d="M18.313 7.129a.423.423 0 0 0 .843 0 .425.425 0 0 0-.422-.422.425.425 0 0 0-.422.422M19.156 8.746a.4.4 0 0 1-.125.297.4.4 0 0 1-.297.125.4.4 0 0 1-.297-.125.4.4 0 0 1-.125-.297.4.4 0 0 1 .125-.297.4.4 0 0 1 .297-.12.4.4 0 0 1 .297.12.4.4 0 0 1 .125.297M18.348 7.938a.422.422 0 0 0-.844 0 .423.423 0 0 0 .844 0M19.121 7.938a.423.423 0 0 0 .844 0 .422.422 0 0 0-.844 0M22.14 8.633h.29v1.558h-.29ZM22.688 7.605h.289v2.586h-.29ZM23.234 8.059h.29v2.132h-.29ZM23.781 7.605h.29v2.586h-.29ZM24.328 8.395h.29v1.796h-.29ZM21.863 10.383h3.032v.097h-3.032ZM20.727 5.262l.199.015a2.45 2.45 0 0 1 2.316-2.214l-.144.335 1.054-.433-1.047-.453.149.351c-2.352.235-2.527 2.38-2.527 2.399M16.137 4.938l.824.539-.54-.825a1.886 1.886 0 0 0-2.8-2.515 1.886 1.886 0 0 0 2.516 2.8m-.52-1.973h.188v1.18h-.188Zm-.36-.52h.188v1.7h-.187Zm-.359.297h.192v1.403h-.192Zm-.359-.297h.191v1.7h-.19Zm-.355.676h.187v1.024h-.187ZM14 4.27h1.988v.062H14ZM10.563 13.43a.305.305 0 0 0 .253-.473l.598-.55a.3.3 0 0 0 .367 0l.598.55a.304.304 0 1 0 .555.219h.433a.305.305 0 1 0 .555-.219l.594-.555q.082.061.187.063a.305.305 0 1 0-.254-.137l-.597.555a.303.303 0 0 0-.484.191h-.434a.306.306 0 0 0-.489-.191l-.593-.551a.304.304 0 1 0-.508 0l-.598.55a.305.305 0 1 0-.184.547m.203-.305c0 .113-.09.203-.203.203a.2.2 0 0 1-.204-.203c0-.113.09-.207.204-.207s.203.094.203.207m.629-.96c0-.11.09-.204.203-.204s.203.094.203.203c0 .113-.09.207-.203.207a.205.205 0 0 1-.203-.207m1.238.753c.113 0 .203.094.203.207s-.09.203-.203.203a.2.2 0 0 1-.203-.203c0-.113.09-.207.203-.207m.828.207c0-.113.094-.207.207-.207s.203.094.203.207-.09.203-.203.203a.205.205 0 0 1-.207-.203m1.035-.965c0-.113.094-.203.207-.203s.203.09.203.203-.09.203-.203.203a.205.205 0 0 1-.207-.203M26.926 10.813c.07-.243.11-.54.11-.86 0-.789-.556-1.43-.556-1.43s-.554.641-.554 1.43c0 .32.039.617.11.86h-.153l-.254.898h.71v-.379a.24.24 0 0 0 .099.043v.398h.085v-.398a.24.24 0 0 0 .098-.043v.379h.711l-.254-.899Zm-.446-.598a.32.32 0 0 1-.316-.317c0-.175.14-.316.316-.316s.317.14.317.316c0 .172-.14.317-.317.317M26.738 11.855v.27c0 .09-.086.262-.258.402-.171-.14-.253-.312-.253-.402v-.27s-.243.133-.243.332c0 .2.496 1.04.496 1.04s.497-.84.497-1.04c0-.199-.239-.332-.239-.332m0 0"/><path fill="#005baa" d="M26.617 9.898q-.001.136-.137.137-.136-.001-.136-.137.001-.138.136-.136.136-.002.137.136M25.031 12.277a.27.27 0 0 0-.164.055l-1.023-.773H22.64v.148h1.152l.984.746a.272.272 0 0 0 .254.371.27.27 0 0 0 .274-.273.27.27 0 0 0-.274-.274M20.426 11.45h1.988v.35h-1.988ZM12.164 1.156c-.148.004-.32.012-.383.004a7 7 0 0 0-.875-.015c-.097.015-.492.05-.547.039-.066-.024-.34-.008-.5.004l.012.148c.184-.012.402-.02.441-.012.094.031.575-.023.618-.031a7 7 0 0 1 .828.016c.078.011.242.004.414-.004.117-.004.281-.012.312-.004l.04-.145c-.051-.011-.165-.008-.36 0M10.313 1.71c.09.032.574-.022.617-.03a7 7 0 0 1 .828.015c.078.012.242.004.414-.004.117-.004.281-.011.312-.004l.04-.144c-.051-.012-.165-.008-.36 0-.148.008-.32.012-.383.004a8 8 0 0 0-.875-.016c-.097.02-.492.051-.547.04-.066-.024-.34-.008-.5.003l.012.149c.184-.012.402-.02.441-.012M10.313 2.395c.09.03.574-.024.617-.032.066-.011.687-.008.828.016.078.012.242.004.414-.004.117-.004.281-.012.312-.004l.04-.144c-.051-.012-.165-.008-.36 0-.148.007-.32.011-.383.003a8 8 0 0 0-.875-.015c-.097.02-.492.05-.547.039-.066-.024-.34-.008-.5.004l.012.148c.184-.011.402-.02.441-.011M12.164 2.613c-.148.008-.32.016-.383.004a7 7 0 0 0-.875-.012 4 4 0 0 1-.547.036c-.066-.02-.34-.008-.5.004l.012.148c.184-.012.402-.02.441-.008.094.027.575-.027.618-.035a9 9 0 0 1 .828.016c.078.011.242.004.414 0 .117-.008.281-.012.312-.004l.04-.149c-.051-.011-.165-.008-.36 0M18.316 1.297c.149.023 1.094-.024 1.239-.035a35 35 0 0 1 1.773.015c.152.012.504.004.844-.004.3-.003.613-.011.691 0l.02-.148a8 8 0 0 0-.715 0c-.32.008-.684.012-.828.004a32 32 0 0 0-1.797-.016c-.191.016-1.086.055-1.203.035-.133-.02-.914.004-1 .008l.004.149c.34-.012.883-.024.972-.008M18.316 1.684c.149.023 1.094-.02 1.239-.032a30 30 0 0 1 1.773.012c.152.012.504.004.844 0 .3-.008.613-.016.691-.004l.02-.148c-.09-.012-.38-.004-.715 0-.336.008-.684.015-.828.004a36 36 0 0 0-1.797-.016c-.191.016-1.086.055-1.203.035-.133-.02-.914.004-1 .008l.004.148c.34-.011.883-.02.972-.007M17.79 2.363c.089.032.57-.023.616-.031a9 9 0 0 1 .828.016c.078.011.239.004.41-.004.122-.004.286-.012.317-.004l.035-.145c-.047-.011-.16-.007-.355 0-.153.008-.32.012-.383.004a7 7 0 0 0-.875-.011 4 4 0 0 1-.547.035c-.066-.024-.344-.008-.5.004l.008.148a4 4 0 0 1 .445-.012M17.79 2.754c.089.031.57-.024.616-.031.067-.012.688-.008.828.011.078.012.239.008.41 0 .122-.007.286-.011.317-.004l.035-.144c-.047-.016-.16-.012-.355-.004-.153.008-.32.016-.383.004a7 7 0 0 0-.875-.012 4 4 0 0 1-.547.035c-.066-.02-.344-.007-.5.004l.008.149c.183-.012.406-.02.445-.008m0 0"/><g clip-path="url(#b)"><path fill="#005baa" d="M1.492 15.914a.81.81 0 0 0 .703.117l.27-.082-.203-2.664h.25l.304 3.945-.05 10.465c0 .684.547 1.239 1.23 1.242.68 0 1.234-.546 1.238-1.23l.04-9.113.667-.051 1.493 9.355a1.233 1.233 0 1 0 2.433-.39L8.223 17.19l-.297-3.93-.102-1.32-.031-.398 2.898-.438a.77.77 0 0 0 .5-.285l2.332-2.863a.8.8 0 0 0-.152-1.152l.383-.887-.3-.133-.388.887a.8.8 0 0 0-.78.277l-2.138 2.625-3.433.52c-.008 0-.02.004-.027.004l-.805.062-2.824.219a.7.7 0 0 0-.18.035c-.188.05-.438.164-.688.422-.714.726-1.05 2.18-1.027 4.441.004.25.125.489.328.637m0 0"/></g><path fill="#005baa" d="M6.918 6.8q.128.428.078.872a2.25 2.25 0 0 1-1.605 1.91 2.26 2.26 0 0 1-1.707-.191 2.236 2.236 0 0 1-1.148-2.21c.03-.298.12-.576.26-.837.145-.258.333-.485.567-.668.23-.188.489-.32.774-.406q.431-.122.875-.075c.293.032.574.121.832.266q.39.21.672.562.28.345.402.778M24.773 6.277a1.212 1.212 0 1 0 2.424-.002 1.212 1.212 0 0 0-2.424.002m1.211-.984c.543 0 .985.441.985.984a.97.97 0 0 1-.211.606l-1.38-1.38a.97.97 0 0 1 .606-.21m.61 1.754a.984.984 0 0 1-1.379-1.379ZM13.633 9.645c.09.03.57-.024.617-.032.066-.011.688-.008.828.012.078.012.242.008.414 0 .117-.004.281-.012.313-.004l.035-.144c-.047-.012-.16-.008-.356 0-.148.003-.32.011-.382 0a7 7 0 0 0-.875-.012c-.098.015-.493.05-.547.039-.067-.024-.344-.008-.5 0l.011.152c.18-.015.403-.02.442-.011M13.633 10.031c.09.031.57-.023.617-.031.066-.012.688-.008.828.016.078.011.238.004.41-.004.121-.004.285-.012.317-.004l.035-.145c-.047-.011-.16-.008-.356 0-.148.004-.32.012-.382.004a7 7 0 0 0-.875-.015c-.098.015-.493.05-.547.039-.067-.024-.344-.008-.5.004l.011.148c.18-.012.403-.02.442-.012M13.633 10.715c.09.031.57-.024.617-.031a7 7 0 0 1 .828.015c.078.012.238.004.41-.004.121-.004.285-.011.317-.004l.035-.144c-.047-.012-.16-.008-.356 0-.148.004-.32.012-.382.004a7 7 0 0 0-.875-.016c-.098.016-.493.05-.547.04-.067-.024-.344-.009-.5.003l.011.149c.18-.012.403-.02.442-.012M13.633 11.102c.09.03.57-.024.617-.032.066-.011.688-.008.828.016.078.012.242.004.414-.004.117-.004.281-.012.313-.004l.035-.144c-.047-.012-.16-.008-.356 0-.148.007-.32.011-.382.004a7 7 0 0 0-.875-.016c-.098.02-.493.05-.547.039-.067-.024-.344-.008-.5.004l.011.148c.18-.011.403-.02.442-.011M10.762 3.82l-.34.34-.336-.34-.125.121.34.34-.34.34.125.121.336-.336.34.336.125-.12-.34-.34.34-.34ZM12.191 3.82l-.34.34-.34-.34-.12.121.34.34-.34.34.12.121.34-.336.34.336.121-.12-.34-.34.34-.34ZM18.34 3.82l-.34.34-.34-.34-.12.121.339.34-.34.34.121.121.34-.336.34.336.12-.12-.339-.34.34-.34ZM19.766 3.82l-.34.34-.336-.34-.125.121.34.34-.34.34.125.121.336-.336.34.336.125-.12-.34-.34.34-.34ZM22.445 5.734v.34c.114.051.27.074.414.074v.262h.168v-.27c.258-.038.407-.187.407-.425 0-.27-.211-.348-.407-.41v-.407q.062.011.098.016c.031.012.04.027.04.063v.14l.21-.02V4.77a1 1 0 0 0-.348-.075v-.199h-.168V4.7c-.246.031-.406.18-.406.406 0 .274.207.356.406.407v.43a.6.6 0 0 1-.156-.02c-.035-.012-.043-.027-.043-.063v-.14Zm.582-.168c.075.036.121.082.121.168 0 .106-.05.157-.12.184Zm-.297-.488c0-.094.055-.144.13-.168v.34c-.083-.035-.13-.082-.13-.172M17.227 12.45l.16-.09-.133-.231-.16.094a.5.5 0 0 0-.063-.063l.09-.16-.226-.133-.094.16a.3.3 0 0 0-.086-.023v-.188h-.266v.188a.4.4 0 0 0-.086.023l-.093-.16-.227.133.09.16a.5.5 0 0 0-.063.063l-.16-.094-.133.23.16.09c-.007.031-.019.059-.023.09h-.184v.266h.184c.004.027.016.058.024.086l-.16.093.132.227.16-.09q.03.031.063.063l-.09.16.227.133.093-.16c.028.007.059.019.086.023v.183h.266v-.183c.031-.004.058-.016.086-.024l.094.16.226-.132-.09-.16q.035-.031.063-.063l.16.09.133-.227-.16-.093a.4.4 0 0 0 .023-.086h.188v-.266h-.188a.4.4 0 0 0-.023-.09m-.645.726a.505.505 0 1 1 .002-1.01.505.505 0 0 1-.002 1.01m0 0"/><path fill="#005baa" d="M16.738 12.672q-.002.152-.156.152-.152 0-.152-.152 0-.158.152-.156.154-.001.156.156M19.379 12.45l.16-.09-.133-.231-.16.094a.5.5 0 0 0-.062-.063l.09-.16-.227-.133-.094.16a.4.4 0 0 0-.086-.023v-.188h-.265v.188a.4.4 0 0 0-.086.023l-.094-.16-.227.133.09.16a.5.5 0 0 0-.062.063l-.16-.094-.133.23.16.09a.4.4 0 0 0-.024.09h-.183v.266h.183a.4.4 0 0 0 .024.086l-.16.093.133.227.16-.09q.029.031.062.063l-.09.16.227.133.094-.16c.027.007.058.019.086.023v.183h.265v-.183c.028-.004.059-.016.086-.024l.094.16.226-.132-.09-.16q.035-.031.063-.063l.16.09.133-.227-.16-.093a.4.4 0 0 0 .023-.086h.184v-.266h-.184a.4.4 0 0 0-.023-.09m-.645.726a.503.503 0 0 1-.504-.504.507.507 0 1 1 .504.504m0 0"/><path fill="#005baa" d="M18.89 12.672a.157.157 0 0 0-.156-.156.153.153 0 0 0-.152.156.15.15 0 0 0 .152.152.153.153 0 0 0 .157-.152m0 0"/></svg>