<svg xmlns="http://www.w3.org/2000/svg" width="40" height="40" version="1.0" viewBox="0 0 30 30"><defs><clipPath id="a"><path d="M1.535 0h26.856v29.031H1.535Zm0 0"/></clipPath></defs><g clip-path="url(#a)"><path fill="#fff" fill-rule="evenodd" d="M25.89 21.371c-.581.34-1.394.867-2.335 1.48-2.293 1.497-6.364 4.149-7.567 4.07-.87-.046-1.726-.12-2.554-.19-2.016-.176-4.176-.38-6.352-.047V21.48a15 15 0 0 0 2.371-.277c.52-.105 1.453-.535 2.438-.98 1.933-.88 2.082-.848 3.875-.477.613.125 1.218.238 1.894.43 1.137.324 1.762.715 1.762 1.105 0 .227-.067.489-.219.649-.238.254-.644.5-1.058.418l-3.282-.621a.4.4 0 0 0-.16 0l-1.453.261a.437.437 0 0 0-.352.512c.043.238.27.395.508.352l1.371-.25 3.203.609q.16.03.325.031c.476 0 .96-.195 1.367-.547a.5.5 0 0 0 .117-.043l5.898-3.234c.727-.34 1.372-.184 1.551.156.196.371-.144 1.09-1.347 1.797M6.208 27.676a.48.48 0 0 1-.48.48H2.895a.48.48 0 0 1-.48-.48v-6.707a.48.48 0 0 1 .48-.48h2.832a.48.48 0 0 1 .48.48ZM8.324 16.27v4.171c.309-.039.625-.086.938-.152.246-.05.683-.227 1.183-.445V16.27a.11.11 0 0 0-.105-.11H8.43a.11.11 0 0 0-.106.11m6.313-2.93h1.906c.059 0 .11.05.11.11v5.523c-.641-.137-1.633-.344-2.126-.391v-5.133c0-.058.051-.11.11-.11m6.218-4.18a.105.105 0 0 0-.105.106v11.793l2.121-1.164V9.265a.105.105 0 0 0-.105-.105Zm7.208 9.977c-.454-.86-1.649-1.098-2.79-.559l-1.523.836V9.266a.985.985 0 0 0-.984-.985h-1.91a.985.985 0 0 0-.985.985v10.957c-.574-.547-1.566-.856-2.344-1.051v-5.723a.985.985 0 0 0-.984-.984h-1.906a.985.985 0 0 0-.985.984v5.153c-.632.093-1.351.402-2.328.851V16.27a.985.985 0 0 0-.984-.985H8.43a.985.985 0 0 0-.985.985v4.253q-.223.018-.43.024a1.35 1.35 0 0 0-1.288-.934H2.895c-.75 0-1.356.606-1.356 1.356v6.707c0 .75.606 1.355 1.356 1.355h2.832c.746 0 1.355-.605 1.355-1.355v-.047c2.012-.332 4.02-.164 6.27.031.835.074 1.699.149 2.585.195 1.415.082 4.614-1.93 8.13-4.218.93-.61 1.734-1.133 2.296-1.457 1.864-1.09 2.098-2.29 1.7-3.043M3.663 14.762c.09.23.344.336.566.254C11.316 12.305 17.63 8.383 23.148 3.23l-.554 2.317a.44.44 0 0 0 .324.527.433.433 0 0 0 .527-.324c.094-.387.91-3.75.914-3.84h.004c.004-.23-.129-.332-.129-.336-.082-.097-.25-.14-.375-.125l-3.832.54a.437.437 0 0 0-.37.495.434.434 0 0 0 .491.371l2.493-.347c-5.407 5.066-11.7 8.996-18.723 11.687a.44.44 0 0 0-.254.567m4.23-10.535c.188 0 .36-.125.418-.305l.63-1.953.628 1.953c.059.18.23.305.418.305l2.055-.004-1.664 1.203a.44.44 0 0 0-.16.488l.64 1.953-1.66-1.21a.43.43 0 0 0-.515 0l-1.66 1.21.64-1.953a.44.44 0 0 0-.16-.488L5.84 4.223Zm-3.667-.09c-.344-.25-.165-.793.257-.793l3.09.004.95-2.942c.132-.402.706-.402.835 0l.95 2.942 3.09-.004c.421-.004.601.543.257.793l-2.504 1.812.961 2.934c.133.406-.336.742-.675.492L8.94 7.555l-2.496 1.82c-.34.246-.808-.09-.675-.492l.96-2.934Zm0 0"/></g></svg>