<svg xmlns="http://www.w3.org/2000/svg" width="40" height="40" version="1.0" viewBox="0 0 30 30"><defs><clipPath id="a"><path d="M.484 3.45h29.032v22.5H.484Zm0 0"/></clipPath></defs><g clip-path="url(#a)"><path fill="#005baa" d="M15.004 9.938a3.244 3.244 0 1 0-3.246-3.246 3.25 3.25 0 0 0 3.246 3.246m0-5.766a2.524 2.524 0 0 1 2.523 2.52 2.527 2.527 0 0 1-2.523 2.523A2.527 2.527 0 0 1 12.48 6.69c0-1.39 1.133-2.52 2.524-2.52M7.16 11.695a3.244 3.244 0 0 0 0-6.488 3.244 3.244 0 0 0 0 6.488m0-5.765a2.527 2.527 0 0 1 2.524 2.523 2.527 2.527 0 0 1-2.524 2.524 2.527 2.527 0 0 1-2.523-2.524A2.527 2.527 0 0 1 7.16 5.93m15.684 5.765a3.25 3.25 0 0 0 3.246-3.242 3.25 3.25 0 0 0-3.246-3.246 3.25 3.25 0 0 0-3.242 3.246 3.247 3.247 0 0 0 3.242 3.242m0-5.765a2.527 2.527 0 0 1 2.523 2.523 2.527 2.527 0 0 1-2.523 2.524 2.524 2.524 0 0 1 0-5.047m-9.219 14.199-.316 1.348c-.032.14.023.289.14.375a.35.35 0 0 0 .399.015l1.183-.715 1.184.715a.351.351 0 0 0 .398-.016.37.37 0 0 0 .14-.374l-.316-1.348 1.047-.902a.355.355 0 0 0 .106-.383.36.36 0 0 0-.313-.25l-1.375-.117-.539-1.274a.36.36 0 0 0-.332-.219.36.36 0 0 0-.332.22l-.535 1.276-1.379.114a.36.36 0 0 0-.312.25.355.355 0 0 0 .105.383Zm.816-.95a.36.36 0 0 0 .301-.218l.29-.688.288.688c.051.121.168.207.301.219l.742.062-.562.485a.36.36 0 0 0-.117.355l.171.727-.636-.387a.366.366 0 0 0-.375 0l-.633.387.168-.727a.36.36 0 0 0-.113-.355l-.567-.485Zm13.348.274 1.633-2.281a.36.36 0 0 0-.293-.57h-.406v-1.43c0-1.547-1.157-2.883-2.75-3.18-1.094-.199-3.938-.219-5.485-.094a3.4 3.4 0 0 0-2.36-1.664c-1.038-.195-5.562-.191-6.5.055-.929.242-1.679.84-2.108 1.61-1.551-.126-4.391-.11-5.485.093-1.594.297-2.754 1.633-2.754 3.18v1.43H.88a.36.36 0 0 0-.293.57l1.629 2.281-1.63 2.277a.36.36 0 0 0 .294.57h3.82v2.653c0 .2.164.36.364.36h1.91a.36.36 0 0 0 .324-.2c.773.262 1.629.477 2.558.477.555 0 1.137-.078 1.743-.266.359-.11.64-.34.847-.625a5.848 5.848 0 0 0 7.691-2.398h8.993a.361.361 0 0 0 .293-.57Zm-1.95-6.75c1.255.23 2.165 1.27 2.165 2.469v1.43h-7.121V13.41c0-.277-.04-.547-.11-.808 1.61-.11 4.16-.067 5.067.101m-14.03-1.715c.773-.203 5.168-.234 6.191-.047 1.25.235 2.16 1.27 2.16 2.47v3.19h-.02a5.86 5.86 0 0 0-5.109-3 5.84 5.84 0 0 0-5.113 3h-.07v-3.19c0-1.126.804-2.122 1.96-2.423m-9.805 4.184c0-1.2.91-2.238 2.16-2.469.906-.168 3.461-.21 5.07-.101q-.107.391-.109.808v3.192H2.004Zm2.695 5.672v.738H1.58l1.374-1.922a.36.36 0 0 0 0-.418l-1.375-1.918h8a6 6 0 0 0-.203.637 1.7 1.7 0 0 0-.598-.106c-.312 0-.48.133-.57.243-.238.293-.145.703-.05 1.14.093.426.198.907-.009 1.164-.136.168-.421.274-.84.309a.36.36 0 0 0-.335-.227h-1.91c-.2 0-.364.16-.364.36m1.914 3.746H5.422v-3.383h1.191Zm5.512-1.137c0 .469-.273 1.04-.738 1.184-1.508.465-2.836.16-4.051-.274V21.43c.648-.047 1.101-.239 1.375-.575.422-.527.266-1.246.152-1.77a3 3 0 0 1-.086-.51c.567 0 1.028.46 1.028 1.027v1.539c0 .097.039.191.11.257a.38.38 0 0 0 .26.102l1.169-.027a.72.72 0 0 1 .55.215.73.73 0 0 1 .231.546Zm-.484-4c0-1.871 1.52-3.39 3.39-3.39s3.39 1.519 3.39 3.39a3.392 3.392 0 0 1-5.585 2.578 1.44 1.44 0 0 0-.438-.86 1.5 1.5 0 0 0-.445-.3 3.3 3.3 0 0 1-.312-1.418m3.39 5.129c-.789 0-1.57-.184-2.273-.531.058-.2.09-.406.09-.598v-.515a4.118 4.118 0 0 0 6.297-3.484 4.116 4.116 0 0 0-4.114-4.114 4.115 4.115 0 0 0-3.898 5.418l-.606.012v-1.168c0-.48-.195-.915-.507-1.235a5.11 5.11 0 0 1 5.011-4.047c2.828 0 5.13 2.301 5.13 5.133 0 2.828-2.302 5.129-5.13 5.129m5.45-3.004a5.82 5.82 0 0 0 0-4.254h7.945l-1.371 1.918a.36.36 0 0 0 0 .418l1.37 1.918Zm0 0"/></g></svg>