<svg xmlns="http://www.w3.org/2000/svg" width="40" height="40" version="1.0" viewBox="0 0 30 30"><defs><clipPath id="a"><path d="M.484 0h29.032v29.031H.484Zm0 0"/></clipPath></defs><path fill="#005baa" d="M16.52 10.262a.703.703 0 1 0 1.406 0 3.95 3.95 0 0 0-3.238-3.88V5.024a.705.705 0 0 0-.704-.703.705.705 0 0 0-.703.703v1.36a3.95 3.95 0 0 0-3.238 3.879 3.95 3.95 0 0 0 3.238 3.879v5.035a2.53 2.53 0 0 1-1.832-2.438.705.705 0 0 0-.703-.703.705.705 0 0 0-.703.703 3.95 3.95 0 0 0 3.238 3.88v1.362c0 .387.317.704.703.704a.705.705 0 0 0 .704-.704v-1.363a3.95 3.95 0 0 0 3.238-3.879 3.94 3.94 0 0 0-3.238-3.875V7.824a2.53 2.53 0 0 1 1.832 2.438m-3.239 2.437a2.53 2.53 0 0 1-1.832-2.437c0-1.145.754-2.13 1.832-2.438Zm3.239 4.04a2.53 2.53 0 0 1-1.832 2.437v-4.871a2.53 2.53 0 0 1 1.832 2.433m0 0"/><g clip-path="url(#a)"><path fill="#005baa" d="M27.957 18.195v-2.687c0-.684-.164-1.367-.473-1.973V13.5c0-3.605-1.402-6.996-3.953-9.547A13.43 13.43 0 0 0 13.984 0a13.43 13.43 0 0 0-9.546 3.953A13.4 13.4 0 0 0 .483 13.5c0 3.605 1.403 6.996 3.954 9.547A13.4 13.4 0 0 0 13.984 27c1.266 0 2.512-.172 3.715-.516v.762c0 .984.801 1.785 1.785 1.785h8.243c.988 0 1.789-.8 1.789-1.785V19.97c0-.907-.68-1.66-1.559-1.774m-1.598-5.437a3.9 3.9 0 0 1 1.137 2.75v2.672h-1.078v-2.633a2.8 2.8 0 0 0-1.152-2.27 2.8 2.8 0 0 0-1.66-.539 2.81 2.81 0 0 0-2.81 2.809v2.633h-1.081v-2.672a3.896 3.896 0 0 1 5.18-3.672 3.95 3.95 0 0 1 1.464.922m-1.46.824a10.8 10.8 0 0 1-1.051 4.598h-2.59v-2.633a2.354 2.354 0 0 1 3.64-1.965m-7.2 10.184c-1.191.43-2.437.648-3.715.648-6.02 0-10.914-4.894-10.914-10.914 0-6.016 4.895-10.914 10.914-10.914a10.88 10.88 0 0 1 10.692 8.703 4.358 4.358 0 0 0-5.422 4.219v2.687a1.79 1.79 0 0 0-1.555 1.774Zm11.356 3.48c0 .73-.594 1.324-1.328 1.324h-8.243c-.73 0-1.324-.593-1.324-1.324V19.97c0-.73.594-1.328 1.324-1.328h8.243a1.33 1.33 0 0 1 1.328 1.328Zm0 0"/></g><path fill="#005baa" d="M23.605 21.477c-.867 0-1.574.707-1.574 1.574 0 .512.25.992.664 1.285v1.617a.912.912 0 1 0 1.825 0v-1.617c.414-.293.664-.773.664-1.285 0-.867-.707-1.574-1.579-1.574m0 0"/></svg>