<svg xmlns="http://www.w3.org/2000/svg" width="40" height="40" version="1.0" viewBox="0 0 30 30"><defs><clipPath id="a"><path d="M.52.04h28.953v28.952H.52Zm0 0"/></clipPath></defs><g clip-path="url(#a)"><path fill="#fff" fill-rule="evenodd" d="M15.43 21.055q.016.235.015.476a7.465 7.465 0 0 1-7.46 7.461 7.466 7.466 0 0 1-7.465-7.46 7.467 7.467 0 0 1 7.937-7.45 10.8 10.8 0 0 1-.508-3.281C7.95 4.863 12.77.039 18.711.039c5.941 0 10.762 4.824 10.762 10.762 0 5.941-4.82 10.765-10.762 10.765a10.7 10.7 0 0 1-3.281-.511m-6.672-6.492a6.993 6.993 0 0 0-4.703 1.16 7 7 0 0 0-1.192 3.914c0 1.39.407 2.691 1.106 3.781a2.1 2.1 0 0 1 2.062-1.68h1.422c1.16 0 2.102.942 2.102 2.102v2.062a.227.227 0 0 1-.227.227h-2.11c.821.336 1.72.52 2.657.52 1.45 0 2.797-.438 3.914-1.192a7 7 0 0 0 1.16-4.703 6.96 6.96 0 0 0-1.254-3.285l-2.02 2.02a1.245 1.245 0 0 1-1.757 0 1.245 1.245 0 0 1 0-1.759l2-2a7 7 0 0 0-3.16-1.168m18.707 1.683a10.27 10.27 0 0 0 1.555-5.445C29.02 5.113 24.402.492 18.71.492c-2.065 0-3.991.61-5.605 1.656a10.3 10.3 0 0 0-1.496 5.36c0 2.394.813 4.597 2.18 6.351l.145-.144.004-.043-.665-.664a.22.22 0 0 1-.05-.246.225.225 0 0 1 .21-.14h3.126c.125 0 .226.1.226.226v3.125a.225.225 0 0 1-.14.21.22.22 0 0 1-.247-.05l-.683-.684-.172.172a10.27 10.27 0 0 0 6.402 2.223c2.028 0 3.922-.586 5.52-1.598m-15.04-.383-2.187 2.188a.79.79 0 0 0-.226.64c.195.02.484.016.847-.078l4.899-4.898.574 1.71v-2.35h-2.355l1.78.64H14.5a.2.2 0 0 1-.062.137l-2.008 2.007zm4.845-4.836H12.62a.227.227 0 0 1-.226-.226V9.12c0-1.16.94-2.101 2.101-2.101h.922c1.164 0 2.105.94 2.105 2.101v.82a2.1 2.1 0 0 1 1.848-1.101h.922c1.16 0 2.102.941 2.102 2.105v.82a2.11 2.11 0 0 1 1.652-.796h.922c1.16 0 2.101.941 2.101 2.101v1.68a.223.223 0 0 1-.222.227h-4.676a.227.227 0 0 1-.227-.227v-1.68q.001-.112.008-.218h-4.457a.227.227 0 0 1-.226-.227Zm-.739-.453h.54V9.121a1.65 1.65 0 0 0-1.653-1.652h-.922c-.594 0-1.113.316-1.402.785.25-.156.547-.246.867-.246h.922c.91 0 1.648.738 1.648 1.648Zm4.922 1.824h.492v-1.453c0-.914-.742-1.652-1.652-1.652h-.922c-.582 0-1.094.3-1.387.754.258-.164.567-.262.895-.262h.926c.91 0 1.648.738 1.648 1.649Zm4.543 2.13h.625V13.07c0-.91-.742-1.652-1.652-1.652h-.922c-.617 0-1.152.34-1.438.84.243-.137.52-.215.817-.215h.922c.91 0 1.648.738 1.648 1.648ZM14.957 2.675a1.941 1.941 0 1 1 0 3.882 1.941 1.941 0 0 1 0-3.882m1.262 2.738a1.491 1.491 0 0 0-2.055-2.055 1.491 1.491 0 0 0 2.055 2.055m3.613-.914a1.941 1.941 0 1 1 0 3.883 1.941 1.941 0 0 1 0-3.883m1.254 2.746a1.488 1.488 0 0 0-2.059-2.059 1.491 1.491 0 0 0 2.059 2.059m3.422-.621a1.944 1.944 0 0 1 0 3.887 1.944 1.944 0 0 1 0-3.887m1.281 2.703a1.49 1.49 0 0 0-2.043-2.04 1.487 1.487 0 0 0 1.281 2.251c.278 0 .54-.074.762-.21M8.527 25.676h.575V23.84c0-.91-.739-1.649-1.649-1.649H6.031c-.605 0-1.133.32-1.418.805.246-.148.532-.23.84-.23H6.88c.91 0 1.648.738 1.648 1.648Zm-1.785-8.742a2.125 2.125 0 1 1 0 4.249 2.125 2.125 0 0 1 0-4.25m1.399 3.039a1.675 1.675 0 0 0-1.398-2.59c-.34 0-.653.101-.915.273a1.675 1.675 0 0 0 1.398 2.59c.34 0 .653-.101.915-.273m18.086 1.164.14.488q.42.116.801.332l.445-.242a.22.22 0 0 1 .242.015c.313.23.59.508.825.82.05.071.058.169.015.247l-.242.445c.14.25.254.52.332.801l.485.14a.22.22 0 0 1 .16.184c.058.387.058.778 0 1.164a.22.22 0 0 1-.16.184l-.485.14q-.119.424-.332.801l.242.446a.23.23 0 0 1-.015.246c-.235.312-.512.59-.825.82a.22.22 0 0 1-.242.016l-.445-.243q-.38.216-.8.332l-.141.489a.24.24 0 0 1-.188.16 4.1 4.1 0 0 1-1.16 0 .23.23 0 0 1-.184-.16l-.144-.489a3.6 3.6 0 0 1-.801-.332l-.445.243a.22.22 0 0 1-.242-.016 4 4 0 0 1-.825-.82.23.23 0 0 1-.015-.246l.246-.446a3.3 3.3 0 0 1-.332-.8l-.489-.141a.22.22 0 0 1-.16-.184 3.9 3.9 0 0 1 0-1.164.22.22 0 0 1 .16-.183l.489-.141q.113-.423.332-.8l-.246-.446a.23.23 0 0 1 .015-.246c.235-.313.512-.59.825-.82a.22.22 0 0 1 .242-.016l.445.242q.383-.216.8-.332l.145-.488a.23.23 0 0 1 .184-.16 4.1 4.1 0 0 1 1.16 0 .24.24 0 0 1 .188.16m-1.493.906c-.3.078-.593.2-.859.367a.22.22 0 0 1-.227.004l-.43-.234a3.5 3.5 0 0 0-.39.37c.05-.046.106-.093.156-.136l.43.234c.074.04.16.036.23-.007.278-.176.586-.301.907-.375a.23.23 0 0 0 .168-.157Zm4.047 3.344L29 25.32a3.4 3.4 0 0 0 0-.742l-.469-.14a.22.22 0 0 1-.156-.165 3 3 0 0 0-.375-.906.23.23 0 0 1-.008-.23l.235-.43a3.5 3.5 0 0 0-.528-.527l-.426.234a.22.22 0 0 1-.23-.004 3.1 3.1 0 0 0-.906-.379.22.22 0 0 1-.168-.156l-.137-.469a4 4 0 0 0-.746 0l-.063.219q.286-.019.579.016l.136.468a.23.23 0 0 0 .164.157q.489.111.91.375a.22.22 0 0 0 .227.007l.43-.234c.191.156.37.332.527.527l-.234.426c-.04.074-.04.16.004.23q.264.425.379.907a.22.22 0 0 0 .156.168l.469.137q.03.288.011.578m-.922 2.195c.133-.121.254-.254.368-.39l-.235-.43a.22.22 0 0 1 .008-.227c.164-.27.29-.558.363-.863l-.062.02a.22.22 0 0 0-.156.163 3 3 0 0 1-.38.91.22.22 0 0 0-.003.227l.234.43q-.065.084-.137.16m-4.23-4.23a2.43 2.43 0 0 0 1.598 4.258c.73 0 1.386-.32 1.832-.829a2.433 2.433 0 0 1-4.031-1.832c0-.613.226-1.172.6-1.597m1.832-.38a1.98 1.98 0 0 0-1.98 1.977 1.98 1.98 0 0 0 3.956 0c0-1.09-.886-1.976-1.976-1.976M5.328.243l.145.488c.277.075.547.188.8.333L6.72.816a.22.22 0 0 1 .242.02c.312.23.59.508.82.82a.22.22 0 0 1 .02.242l-.246.446c.144.254.258.523.332.8l.488.145a.22.22 0 0 1 .16.184 4.2 4.2 0 0 1 0 1.164.23.23 0 0 1-.16.183l-.488.14c-.074.282-.188.552-.332.802l.246.445a.22.22 0 0 1-.02.242c-.23.313-.508.59-.82.824a.23.23 0 0 1-.242.016l-.446-.242a3.6 3.6 0 0 1-.8.332l-.145.484a.22.22 0 0 1-.183.16 3.9 3.9 0 0 1-1.16 0 .23.23 0 0 1-.188-.16l-.14-.484a3.4 3.4 0 0 1-.802-.332l-.445.242a.23.23 0 0 1-.242-.016 4.1 4.1 0 0 1-.824-.824.23.23 0 0 1-.016-.242l.242-.445a3.4 3.4 0 0 1-.332-.801l-.484-.14a.24.24 0 0 1-.164-.184 4.2 4.2 0 0 1 0-1.164.23.23 0 0 1 .164-.184l.484-.144q.117-.419.332-.801l-.242-.446a.23.23 0 0 1 .016-.242c.234-.312.511-.59.824-.82a.22.22 0 0 1 .242-.02l.445.247c.25-.145.52-.258.801-.333l.14-.488a.23.23 0 0 1 .188-.16 4.1 4.1 0 0 1 1.16 0c.086.012.16.074.184.16m-1.445.895c-.32.078-.625.203-.903.379a.23.23 0 0 1-.23.004l-.426-.235a4 4 0 0 0-.367.34q.093-.088.191-.164l.426.234c.074.04.16.04.23-.008.278-.171.587-.3.907-.375a.23.23 0 0 0 .168-.156ZM7.94 4.473c.09-.024.164-.047.164-.047a3.4 3.4 0 0 0 0-.746l-.468-.137a.23.23 0 0 1-.157-.164 3 3 0 0 0-.378-.91.22.22 0 0 1-.004-.227l.234-.43a3.4 3.4 0 0 0-.527-.527l-.43.235a.22.22 0 0 1-.227-.004 3 3 0 0 0-.91-.38.22.22 0 0 1-.164-.156L4.938.512q-.376-.042-.747 0l-.046.164q.305-.024.617.011l.136.47a.23.23 0 0 0 .165.155c.324.075.628.204.91.375.07.047.156.047.226.008l.43-.234q.293.234.527.527l-.234.43c-.04.07-.04.156.004.227q.265.421.379.91c.015.078.078.14.156.164l.469.136c.023.208.023.415.011.618M6.992 6.66q.182-.172.34-.367l-.234-.426a.23.23 0 0 1 .004-.23c.175-.278.3-.582.375-.903q-.014.005-.016.004a.22.22 0 0 0-.156.168c-.075.32-.203.63-.38.907a.23.23 0 0 0-.003.23l.234.426q-.075.099-.164.191m-4.23-4.234a2.42 2.42 0 0 0-.805 1.804c0 1.34 1.09 2.43 2.43 2.43.715 0 1.36-.308 1.804-.805-.43.391-1.003.63-1.628.63-1.34 0-2.43-1.09-2.43-2.43 0-.63.238-1.2.629-1.63m1.8-.352a1.98 1.98 0 0 0 0 3.957 1.98 1.98 0 1 0 0-3.957m0 0"/></g></svg>