<svg xmlns="http://www.w3.org/2000/svg" width="40" height="40" version="1.0" viewBox="0 0 30 30"><defs><clipPath id="a"><path d="M5 .656h24V25H5Zm0 0"/></clipPath><clipPath id="b"><path d="M1.027 13H17v15.965H1.027Zm0 0"/></clipPath></defs><g clip-path="url(#a)"><path fill="#005baa" d="M17.047.656c-6.406 0-11.645 5.07-11.902 11.418a8.4 8.4 0 0 1 1.878-.55 9.93 9.93 0 0 1 2.274-5.391l.992.992c.184.172.41.266.649.266.23 0 .468-.094.64-.266a.904.904 0 0 0 0-1.305l-.988-.988a10.1 10.1 0 0 1 5.539-2.293v1.402a.917.917 0 1 0 1.836 0V2.535c2.09.192 4.008 1.02 5.527 2.293l-.988.992a.92.92 0 0 0 0 1.301.92.92 0 0 0 .648.266.92.92 0 0 0 .649-.266l.992-.992a10.05 10.05 0 0 1 2.293 5.531h-1.402a.92.92 0 0 0-.918.918c0 .504.41.918.918.918h1.402a10.03 10.03 0 0 1-2.293 5.527l-.992-.992a.927.927 0 0 0-1.301 0 .924.924 0 0 0 0 1.305l.992.992a9.98 9.98 0 0 1-5.383 2.274 9.3 9.3 0 0 1-.543 1.878c6.34-.265 11.403-5.503 11.403-11.902C28.969 6.004 23.62.656 17.047.656m0 0"/></g><path fill="#005baa" d="M21.242 12.578a.916.916 0 0 0-.914-.918h-2.371V7.445a.917.917 0 1 0-1.832 0v5.133c0 .504.41.918.918.918h3.281c.512 0 .918-.41.918-.918m0 0"/><g clip-path="url(#b)"><path fill="#005baa" d="M8.727 13.2a7.7 7.7 0 0 0-7.7 7.698c0 3.973 3.008 7.235 6.871 7.653 4.622.48 8.532-3.121 8.532-7.653A7.7 7.7 0 0 0 8.727 13.2M5.82 22.894c-.011-.122.09-.223.211-.223h1.157c.097 0 .19.062.203.156a.99.99 0 0 0 .976.828h.664c.489 0 .946-.332 1.024-.816a.983.983 0 0 0-.97-1.152H8.48c-1.335 0-2.53-.973-2.66-2.301a2.557 2.557 0 0 1 2.121-2.774v-1.008a.21.21 0 0 1 .211-.207h1.153c.113 0 .207.094.207.207v1.008a2.564 2.564 0 0 1 2.125 2.293c.011.121-.094.223-.211.223h-1.16c-.098 0-.188-.063-.203-.156a.99.99 0 0 0-.973-.828h-.664c-.492 0-.95.332-1.028.816a.983.983 0 0 0 .97 1.152h.722a2.56 2.56 0 0 1 2.543 2.813c-.113 1.148-1.02 2.023-2.121 2.246v1.023a.21.21 0 0 1-.207.211H8.152a.21.21 0 0 1-.21-.21v-1.009a2.56 2.56 0 0 1-2.122-2.292m0 0"/></g></svg>