<svg xmlns="http://www.w3.org/2000/svg" width="40" height="40" version="1.0" viewBox="0 0 30 30"><defs><clipPath id="a"><path d="M1.102 0H28.68v29.031H1.102Zm0 0"/></clipPath></defs><g clip-path="url(#a)"><path fill="#005baa" fill-rule="evenodd" d="M12.512 23.297a.77.77 0 0 0 .742.578h.992c.356 0 .66-.246.742-.578ZM16.344.484c0-.261.215-.476.476-.476.262 0 .477.215.477.476v1.22a.48.48 0 0 1-.477.476.48.48 0 0 1-.476-.477Zm2.48 1.528h-1.219a.48.48 0 0 0-.476.476c0 .262.215.477.476.477h1.22a.48.48 0 0 0 .476-.477.48.48 0 0 0-.477-.476m-1.527 2.48a.48.48 0 0 1-.477.477.48.48 0 0 1-.476-.477V3.273c0-.261.215-.476.476-.476.262 0 .477.215.477.476Zm-2.48-1.527h1.218a.48.48 0 0 0 .477-.477.48.48 0 0 0-.477-.476h-1.219a.48.48 0 0 0-.476.476c0 .262.215.477.476.477m5.363 13.598c0-.262.215-.477.476-.477.262 0 .477.215.477.477v1.449a.48.48 0 0 1-.477.476.48.48 0 0 1-.476-.476Zm2.855 1.906H21.59a.476.476 0 1 0 0 .953h1.445a.476.476 0 1 0 0-.953m-1.902 2.855a.48.48 0 0 1-.477.477.48.48 0 0 1-.476-.477V19.88a.476.476 0 1 1 .953 0Zm-2.86-1.906h1.45a.475.475 0 1 0 0-.95h-1.45a.473.473 0 0 0-.472.477c0 .262.21.473.472.473M5.215 14.199a.475.475 0 1 1 .95 0v1.446c0 .265-.212.476-.474.476a.473.473 0 0 1-.476-.476Zm2.855 1.906H6.621a.47.47 0 0 0-.473.473c0 .266.211.477.473.477h1.45a.475.475 0 1 0 0-.95m-1.906 2.856a.475.475 0 1 1-.95 0v-1.45a.475.475 0 1 1 .95 0ZM3.31 17.055h1.449c.262 0 .472-.211.472-.477a.47.47 0 0 0-.472-.473h-1.45a.475.475 0 1 0 0 .95M2.484 6.68a10.29 10.29 0 0 1 6.387-4.84l-.23-.555a.18.18 0 0 1 .175-.246c1.2.07 3.024.543 4.067 1.512a.3.3 0 0 1-.106.5c-.824.277-1.734.86-2.543 1.504a.18.18 0 0 1-.277-.07l-.297-.723c-3.758.875-6.894 4.316-8.21 7.949-.071.187-.352.137-.348-.063A10.3 10.3 0 0 1 2.484 6.68m10.532 22.347a10.28 10.28 0 0 1-7.383-3.109l-.367.477a.18.18 0 0 1-.301-.032c-.54-1.07-1.04-2.886-.723-4.273a.295.295 0 0 1 .485-.16c.652.574 1.609 1.074 2.574 1.449.113.043.148.18.078.273l-.477.618c2.637 2.82 7.184 3.816 10.989 3.14.199-.035.293.235.117.332a10.25 10.25 0 0 1-4.992 1.285m14.09-20.293a10.29 10.29 0 0 1 .996 7.95l.597.082a.178.178 0 0 1 .125.273c-.66 1.004-1.984 2.344-3.344 2.766a.298.298 0 0 1-.378-.344c.168-.852.125-1.93-.032-2.953a.176.176 0 0 1 .2-.203l.773.101c1.121-3.691-.29-8.129-2.777-11.086-.13-.152.054-.37.226-.265a10.24 10.24 0 0 1 3.613 3.68M18.21 13.2l.234.61c.028.07.094.113.168.113h.934a.17.17 0 0 0 .164-.113l.234-.61c.387-.09.754-.242 1.09-.449l.594.262c.07.031.144.02.2-.035l.66-.66a.18.18 0 0 0 .034-.2l-.261-.594c.207-.335.36-.703.449-1.09l.605-.23a.18.18 0 0 0 .118-.168v-.933a.17.17 0 0 0-.118-.165l-.605-.234a3.7 3.7 0 0 0-.45-1.09l.262-.593a.18.18 0 0 0-.035-.2l-.66-.66a.18.18 0 0 0-.2-.035l-.593.262a3.7 3.7 0 0 0-1.09-.45l-.234-.605a.18.18 0 0 0-.164-.117h-.934a.18.18 0 0 0-.168.117l-.234.606c-.383.09-.75.242-1.086.449l-.594-.262a.18.18 0 0 0-.199.035l-.66.66a.18.18 0 0 0-.04.2l.266.593c-.207.336-.359.703-.449 1.09l-.61.235a.17.17 0 0 0-.112.164v.933c0 .074.043.14.113.168l.61.23c.09.387.241.755.448 1.09l-.265.594a.18.18 0 0 0 .039.2l.66.66c.05.054.129.066.2.035l.593-.262c.336.207.703.36 1.086.45m.867-1.761a1.867 1.867 0 0 1-1.867-1.868 1.868 1.868 0 1 1 1.867 1.867M7.836 9.812l-.961-.55a.474.474 0 0 0-.473.82l.961.555c.227.129.516.05.649-.176a.48.48 0 0 0-.176-.649m2.773-2.421-.554-.961a.473.473 0 1 0-.82.472l.554.961a.47.47 0 0 0 .645.172.466.466 0 0 0 .175-.644m3.618-.715a.475.475 0 0 1-.477.472.475.475 0 0 1-.477-.472v-1.11c0-.261.215-.476.477-.476s.477.215.477.476Zm-.477 1.59a4.707 4.707 0 0 0-4.707 4.707c0 2.617 1.668 2.457 1.895 6.312h1.523v-4.707h-.617c-.864 0-1.57-.707-1.57-1.57s.706-1.57 1.57-1.57c.863 0 1.57.707 1.57 1.57v.617h.672v-.617c0-.52.262-1.004.687-1.297l.067-.149a5 5 0 0 1-.168-.406l-.172-.066a1.13 1.13 0 0 1-.727-1.055v-.933c0-.317.133-.614.356-.82a4 4 0 0 0-.379-.016m1.29 4.765.597.594h-.598Zm1.937.824.109-.046q.2.092.406.168l.067.171c.101.266.296.477.539.602-.504 1.098-1.38 1.828-1.535 4.535h-1.524v-4.707h.617a1.57 1.57 0 0 0 1.32-.723m-2.891 5.43h-.672v-4.707h.672Zm-1.625-5.66h-.617a.62.62 0 0 1-.617-.617c0-.34.277-.617.617-.617s.617.277.617.617Zm-1.5 6.613a.77.77 0 0 0 .742.578h4.094a.77.77 0 0 0 .742-.578Zm4.07 2.106a.77.77 0 0 0 .742-.578h-4.046a.77.77 0 0 0 .742.578Zm0 0"/></g></svg>