<svg xmlns="http://www.w3.org/2000/svg" width="40" height="40" version="1.0" viewBox="0 0 30 30"><path fill="#fff" d="M28.957 14.285A13.14 13.14 0 0 0 27 7.297c.758-.945 1.957-2.61 1.957-3.656 0-.36-.066-.703-.2-1.04a2.8 2.8 0 0 0-.573-.886 2.7 2.7 0 0 0-.864-.613 2.9 2.9 0 0 0-1.027-.25q-.54-.024-1.05.152a2.8 2.8 0 0 0-1.567 1.363q-.245.48-.297 1.02a13 13 0 0 0-1.79-1.09 13.35 13.35 0 0 0-3.98-1.285 13.3 13.3 0 0 0-4.18 0q-1.035.164-2.038.484-1.001.321-1.938.8-.938.475-1.793 1.09-.047-.539-.293-1.019A2.81 2.81 0 0 0 4.75.851q-.54.023-1.027.25a2.766 2.766 0 0 0-1.437 1.5c-.134.337-.204.68-.204 1.04 0 1.047 1.2 2.71 1.957 3.656a13.5 13.5 0 0 0-.941 1.867q-.405.973-.645 1.992a13.2 13.2 0 0 0-.328 4.16 13.2 13.2 0 0 0 .96 4.059 13.5 13.5 0 0 0 2.161 3.57c.004 0 .004.004.008.004q.362.434.766.836c.625.625 1.3 1.18 2.035 1.672q1.1.732 2.324 1.242a13.6 13.6 0 0 0 5.14 1.024q1.325.001 2.622-.262a13.5 13.5 0 0 0 2.523-.762 13.503 13.503 0 0 0 4.36-2.914q.403-.404.765-.836l.004-.004a13.2 13.2 0 0 0 2.355-4.047q.815-2.236.809-4.613m-26.191.34H4.8c.054 2.84.812 5.535 2.168 7.77H5.676a12.6 12.6 0 0 1-2.106-3.641c-.5-1.332-.765-2.711-.804-4.129m18.535-.68c-.031-2.843-.43-5.543-1.149-7.77h3.118c1.378 2.126 2.23 4.825 2.289 7.77Zm-.348 8.45h-.8q.116-.365.222-.747c.207.282.41.536.578.747m-.43-1.72-.023-.03c-.508-.754-.93-1.54-.93-2.04a2 2 0 0 1 .16-.812 2.08 2.08 0 0 1 1.145-1.145 2.083 2.083 0 0 1 1.621 0 2.08 2.08 0 0 1 1.145 1.145q.162.392.16.812c0 .895-1.352 2.696-2.117 3.606-.329-.395-.77-.953-1.16-1.535m-1.632-2.07c0 .641.449 1.516.972 2.313a19 19 0 0 1-.425 1.477h-3.579v-4.692c.364-.418 1.551-1.832 2.13-3.078h2.632c-.004.473-.02.95-.047 1.414a2.77 2.77 0 0 0-1.226 1.031 2.74 2.74 0 0 0-.457 1.535m-7.418 0c0 .5-.422 1.282-.93 2.036a20.057 20.057 0 0 1-1.187 1.57c-.762-.91-2.118-2.711-2.118-3.606 0-.28.051-.554.16-.812q.159-.393.457-.691c.2-.2.426-.356.688-.461a2.08 2.08 0 0 1 1.625 0c.262.105.488.261.687.46q.3.3.457.692c.11.258.16.531.16.812m-.805 3.043q.107.382.219.747h-.801c.172-.211.371-.465.582-.747m.508-.73c.523-.797.976-1.672.976-2.313a2.78 2.78 0 0 0-.46-1.535 2.76 2.76 0 0 0-1.223-1.03 28 28 0 0 1-.047-1.415h2.629c.582 1.246 1.765 2.66 2.129 3.078v4.692h-3.578a21 21 0 0 1-.426-1.477M15.18 6.176v4.5a2.7 2.7 0 0 0-.961.3q-.45.235-.79.622a2.771 2.771 0 0 0-.703 1.852c0 .167.028.331.07.495h-2.378c.031-2.867.445-5.57 1.184-7.77Zm-3.332-.68.136-.344c.875-2.101 2.024-3.386 3.196-3.593v3.937Zm5.625 8.621a.4.4 0 0 0-.028.074c-.402.934-1.336 2.164-1.925 2.864-.586-.7-1.52-1.926-1.922-2.864q-.013-.04-.032-.074c-.101-.25-.16-.48-.16-.668a2 2 0 0 1 .16-.812c.106-.258.258-.489.457-.684q.3-.298.688-.46a2.12 2.12 0 0 1 2.305.46 2.1 2.1 0 0 1 .62 1.496c0 .188-.058.418-.163.668M15.18 23.07v3.942c-1.262-.219-2.453-1.649-3.332-3.942Zm4.015 0c-.883 2.293-2.074 3.723-3.336 3.942V23.07Zm-.953-9.125q.07-.245.074-.496 0-.514-.183-.992a2.8 2.8 0 0 0-.52-.86 2.7 2.7 0 0 0-.793-.62 2.7 2.7 0 0 0-.96-.301v-4.5h3.578c.738 2.199 1.152 4.902 1.183 7.77ZM15.86 5.496V1.56c1.172.207 2.325 1.492 3.196 3.593q.071.17.136.344Zm4.059 0a14 14 0 0 0-.234-.605c-.559-1.336-1.215-2.364-1.942-3.051 1.961.566 3.711 1.863 5.055 3.656Zm-8.559-.605c-.082.199-.16.398-.238.605H8.246c1.344-1.793 3.09-3.09 5.055-3.656-.727.687-1.387 1.715-1.942 3.05m-.468 1.285c-.72 2.226-1.121 4.926-1.149 7.77H5.48C5.543 11 6.39 8.3 7.773 6.175Zm-5.41 8.449h4.261q.006.61.035 1.215c-.199-.027-.398-.04-.601-.024q-.302.019-.59.102a2.7 2.7 0 0 0-.559.227q-.263.14-.492.34-.228.198-.41.437a2.7 2.7 0 0 0-.309.515 2.7 2.7 0 0 0-.191.57 3 3 0 0 0-.066.598c0 1.098 1.32 2.872 2.066 3.79h-.852c-1.382-2.125-2.23-4.825-2.293-7.77m5.64 8.445c.59 1.621 1.336 2.864 2.172 3.657-1.961-.567-3.707-1.864-5.047-3.657Zm8.8 0h2.876c-1.344 1.793-3.09 3.09-5.05 3.657.839-.793 1.581-2.036 2.175-3.657m2.497-.675c.746-.918 2.062-2.692 2.062-3.79q0-.304-.062-.597a3.3 3.3 0 0 0-.191-.57 2.9 2.9 0 0 0-.72-.954 2.7 2.7 0 0 0-.495-.34 2.778 2.778 0 0 0-1.148-.328 2.6 2.6 0 0 0-.598.024 31 31 0 0 0 .035-1.215h4.262c-.063 2.945-.915 5.645-2.293 7.77Zm3.82-7.77h2.035a12.66 12.66 0 0 1-2.91 7.77h-1.289c1.352-2.235 2.11-4.93 2.164-7.77m2.035-.68h-2.035c-.054-2.843-.812-5.535-2.164-7.77h.414q.656.953 1.422 1.821a.33.33 0 0 0 .254.113q.151-.001.254-.113l.121-.144a12.5 12.5 0 0 1 1.734 6.093M26.164 1.527q.416-.002.809.16.387.164.687.458.293.3.457.687.16.393.16.809c0 .832-1.16 2.437-1.937 3.394a.2.2 0 0 0-.035.043c-.051.063-.098.117-.14.172a20 20 0 0 1-1.196-1.582q-.011-.02-.028-.04c-.367-.55-.683-1.112-.82-1.565a1 1 0 0 0-.02-.07 1.2 1.2 0 0 1-.054-.352c0-.278.055-.551.16-.809a2.2 2.2 0 0 1 .461-.687c.195-.196.426-.348.684-.457.261-.11.53-.16.812-.16m-2.668 2.797q.218.615.559 1.172h-.418q-.245-.35-.508-.684a11.5 11.5 0 0 0-1.992-1.98q1.262.614 2.36 1.492m-15.582.489c-.176.222-.348.449-.508.683h-.422c.23-.371.414-.762.563-1.172a12.7 12.7 0 0 1 2.36-1.496 11.5 11.5 0 0 0-1.993 1.985M4.88 1.527a2.12 2.12 0 0 1 1.496.621q.3.296.457.684.165.393.164.809a1.6 1.6 0 0 1-.074.422c-.137.453-.461 1.019-.828 1.574q-.008.011-.016.023-.561.826-1.2 1.59-.07-.082-.14-.168c-.011-.02-.023-.031-.035-.047-.781-.957-1.941-2.562-1.941-3.394q0-.417.16-.809.164-.389.46-.684a2.1 2.1 0 0 1 1.497-.62m-.254 6.47a.33.33 0 0 0 .254.112.33.33 0 0 0 .254-.113 20 20 0 0 0 1.418-1.82h.418C5.613 8.41 4.855 11.102 4.8 13.946H2.766c.058-2.18.632-4.212 1.734-6.094.059.066.102.117.125.144M6.277 23.07h1.13q.242.353.507.688a11.8 11.8 0 0 0 1.988 1.98 12.8 12.8 0 0 1-3.625-2.668m14.86 2.668a11.7 11.7 0 0 0 1.992-1.98q.263-.335.508-.688h1.125a12.8 12.8 0 0 1-3.625 2.668m0 0"/></svg>