<svg xmlns="http://www.w3.org/2000/svg" width="40" height="40" version="1.0" viewBox="0 0 30 30"><defs><clipPath id="a"><path d="M6.34.41h17.422v28.305H6.34Zm0 0"/></clipPath></defs><g clip-path="url(#a)"><path fill="#061c3d" fill-rule="evenodd" d="M6.355 23.863v3.211c0 .848.75 1.54 1.665 1.54h13.96c.915 0 1.66-.692 1.66-1.54v-3.21Zm17.29-21.918c0-.843-.75-1.535-1.665-1.535H8.02c-.915 0-1.665.692-1.665 1.535V3.29h17.29Zm-9.86.36a.46.46 0 0 1-.457-.457c0-.25.207-.453.457-.453h2.426a.454.454 0 1 1 0 .91Zm-7.43 1.898V22.95h17.29V4.203ZM15 9.86a3.718 3.718 0 1 1 0 7.434 3.717 3.717 0 1 1 0-7.434m-.457 1.508c0-.254.203-.457.457-.457s.457.203.457.457v.242c.281.07.531.243.695.473a.456.456 0 0 1-.738.535c-.121-.168-.285-.133-.5-.133-.277 0-.43.34-.226.543.117.114.242.094.398.094 1.086 0 1.648 1.32.871 2.102-.14.136-.309.242-.5.3v.262a.458.458 0 0 1-.914 0v-.242a1.25 1.25 0 0 1-.7-.473.46.46 0 0 1 .102-.636.46.46 0 0 1 .64.101c.122.168.286.133.5.133.278 0 .427-.34.224-.543-.114-.113-.239-.094-.395-.094-1.086 0-1.648-1.32-.871-2.097.14-.141.309-.246.5-.305Zm-.434-4.422h1.782c.117 0 .214.098.214.215v.895a5.55 5.55 0 0 1 2.016.836l.633-.633a.21.21 0 0 1 .305 0l1.261 1.258a.22.22 0 0 1 0 .304l-.633.633c.399.602.688 1.281.833 2.016h.894c.121 0 .219.097.219.219v1.777a.22.22 0 0 1-.219.219h-.894a5.6 5.6 0 0 1-.832 2.015l.632.633a.22.22 0 0 1 0 .305l-1.261 1.258a.21.21 0 0 1-.305 0l-.633-.633a5.5 5.5 0 0 1-2.016.836v.894a.217.217 0 0 1-.214.215h-1.782a.217.217 0 0 1-.214-.215v-.894a5.55 5.55 0 0 1-2.016-.836l-.633.633a.217.217 0 0 1-.309 0L9.68 17.637a.22.22 0 0 1 0-.305l.633-.633a5.7 5.7 0 0 1-.836-2.015h-.891a.22.22 0 0 1-.219-.215v-1.781c0-.122.098-.22.219-.22h.89c.149-.73.438-1.413.836-2.011l-.632-.633a.224.224 0 0 1 0-.308l1.258-1.258a.217.217 0 0 1 .308 0l.633.633a5.6 5.6 0 0 1 2.016-.836v-.89c0-.122.097-.22.214-.22m1.836 18.48c.45 0 .813.368.813.813a.814.814 0 0 1-.813.813h-1.894a.814.814 0 0 1 0-1.625Zm0 0"/></g></svg>