<svg xmlns="http://www.w3.org/2000/svg" width="40" height="40" version="1.0" viewBox="0 0 30 30"><defs><clipPath id="a"><path d="M3 .18h20V16H3Zm0 0"/></clipPath><clipPath id="b"><path d="M18 14h11.516v15H18Zm0 0"/></clipPath><clipPath id="c"><path d="M.484 14H12v15H.484Zm0 0"/></clipPath></defs><path fill="#005baa" d="M13.945 28.852c-.328 0-.66-.075-.984-.223a3 3 0 0 1-1.414-1.453l-.832-1.785a.224.224 0 0 1 .11-.301.225.225 0 0 1 .3.11l.832 1.784c.262.559.684.996 1.195 1.23.496.231 1.016.247 1.465.036a.23.23 0 0 1 .301.11c.05.113.004.25-.11.304a2.1 2.1 0 0 1-.863.188M9.867 23.262a.23.23 0 0 1-.207-.13l-1.87-4.01a.227.227 0 0 1 .108-.302.23.23 0 0 1 .305.11l1.867 4.011a.225.225 0 0 1-.11.301.2.2 0 0 1-.093.02m0 0"/><g clip-path="url(#a)"><path fill="#005baa" d="M6.195 15.39a.23.23 0 0 1-.207-.128l-2.097-4.504a.24.24 0 0 1-.016-.156l1.469-5.446a.23.23 0 0 1 .12-.148L15.755.21a.225.225 0 0 1 .3.11l6.618 14.19a.224.224 0 0 1-.11.302.224.224 0 0 1-.3-.11L15.738.72 5.754 5.375l-1.418 5.266 2.066 4.43a.23.23 0 0 1-.109.3.3.3 0 0 1-.098.02m0 0"/></g><path fill="#005baa" d="M20.43 23.262a.23.23 0 0 1-.207-.13.224.224 0 0 1 .109-.3l1.578-.738a.23.23 0 0 1 .3.11c.052.116.005.25-.108.304l-1.579.734a.2.2 0 0 1-.093.02M14.71 28.684a.22.22 0 0 1-.202-.133.225.225 0 0 1 .11-.301c.937-.437 1.265-1.715.737-2.848a.224.224 0 0 1 .11-.3l3.078-1.438a.224.224 0 0 1 .3.11.224.224 0 0 1-.109.3l-2.879 1.344c.305.797.258 1.64-.074 2.289l5.414-2.523a.224.224 0 0 1 .301.109.224.224 0 0 1-.11.3l-6.577 3.071a.3.3 0 0 1-.098.02M4.094 10.887a.23.23 0 0 1-.145-.055.22.22 0 0 1-.074-.23l1.469-5.446a.225.225 0 0 1 .422-.039L7.59 9.031a.2.2 0 0 1 .008.172.22.22 0 0 1-.118.129l-3.289 1.535a.3.3 0 0 1-.097.02M5.62 5.875l-1.18 4.375 2.645-1.234ZM9.188 8.512a.23.23 0 0 1-.208-.13.227.227 0 0 1 .11-.3l6.785-3.164a.224.224 0 0 1 .3.11.225.225 0 0 1-.109.3L9.281 8.492a.2.2 0 0 1-.094.02M6.719 12.215a.23.23 0 0 1-.207-.13.23.23 0 0 1 .11-.304l4.968-2.316a.227.227 0 0 1 .3.11.23.23 0 0 1-.109.304l-4.969 2.316a.3.3 0 0 1-.093.02M13.582 9.016a.22.22 0 0 1-.203-.133.224.224 0 0 1 .11-.301l3.363-1.57a.224.224 0 0 1 .3.11.224.224 0 0 1-.109.3l-3.363 1.57a.2.2 0 0 1-.098.024M9.195 17.527a.23.23 0 0 1-.207-.129l-1.5-3.218a.225.225 0 0 1 .11-.3l10.23-4.775a.25.25 0 0 1 .176-.007.26.26 0 0 1 .129.12l1.5 3.216c.05.113.004.25-.11.3l-2.507 1.172a.23.23 0 0 1-.301-.113.225.225 0 0 1 .11-.3l2.3-1.071-1.309-2.809-9.82 4.582L9.305 17l.996-.465a.224.224 0 0 1 .3.11.224.224 0 0 1-.109.3l-1.203.563a.3.3 0 0 1-.094.02M18.914 15.547a.23.23 0 0 1-.207-.129.23.23 0 0 1 .11-.305l1.492-.691a.225.225 0 0 1 .3.11.23.23 0 0 1-.109.3l-1.492.695a.3.3 0 0 1-.094.02M19.125 20.965a.23.23 0 0 1-.207-.133.225.225 0 0 1 .11-.3l2.882-1.344a.23.23 0 0 1 .3.109c.052.113.005.25-.108.305l-2.883 1.34a.2.2 0 0 1-.094.023m0 0"/><path fill="#005baa" d="M15 23.121a5.03 5.03 0 0 1-5.023-5.023A5.03 5.03 0 0 1 15 13.07a5.03 5.03 0 0 1 5.023 5.028A5.03 5.03 0 0 1 15 23.12m0-9.594c-2.52 0-4.57 2.051-4.57 4.57s2.05 4.571 4.57 4.571 4.57-2.05 4.57-4.57-2.05-4.57-4.57-4.57m0 0"/><path fill="#005baa" d="M15 21.59a3.496 3.496 0 0 1-3.492-3.492A3.5 3.5 0 0 1 15 14.602a3.5 3.5 0 0 1 3.492 3.496A3.496 3.496 0 0 1 15 21.59m0-6.531a3.04 3.04 0 0 0-3.04 3.039A3.04 3.04 0 0 0 15 21.137a3.04 3.04 0 0 0 3.04-3.04A3.04 3.04 0 0 0 15 15.06m0 0"/><path fill="#005baa" d="M15 20.059a1.962 1.962 0 1 1 .002-3.925A1.962 1.962 0 0 1 15 20.06m0-3.47a1.509 1.509 0 0 0 0 3.016 1.509 1.509 0 0 0 0-3.015m0 0"/><path fill="#005baa" d="M20.46 18.324H15.97a.227.227 0 0 1 0-.453h4.492a.227.227 0 0 1 0 .453M14.031 18.324H9.54a.227.227 0 0 1 0-.453h4.492a.227.227 0 0 1 0 .453M15 17.355a.23.23 0 0 1-.227-.23v-4.488a.227.227 0 0 1 .454 0v4.488c0 .129-.102.23-.227.23M15 23.785a.227.227 0 0 1-.227-.226v-4.493a.227.227 0 0 1 .454 0v4.493a.227.227 0 0 1-.227.226m0 0"/><g clip-path="url(#b)"><path fill="#005baa" d="M27.344 28.328h-3.395a1.055 1.055 0 0 1-1.054-1.055v-.73a.93.93 0 0 0-.864-.926h-2.566c-.281 0-.543-.11-.746-.312-.2-.2-.309-.461-.309-.742v-.7c0-.582.473-1.054 1.055-1.054h2.312v-7.461c0-.578.473-1.055 1.055-1.055h.164c.281 0 .547.113.746.312.2.2.309.465.309.743v2.574a1.04 1.04 0 0 1 .601-.192h.168c.485 0 .895.332 1.016.778.176-.137.398-.215.637-.215h.168c.504 0 .925.355 1.03.828.173-.133.392-.207.626-.207h.164c.582 0 1.055.473 1.055 1.055v4.59c0 .582-.473 1.054-1.055 1.054h-.063v1.66a1.049 1.049 0 0 1-1.055 1.055m-3.996-1.797v.742c0 .332.27.602.601.602h3.395a.6.6 0 0 0 .601-.602v-1.886c0-.125.102-.227.227-.227h.289c.332 0 .602-.27.602-.601v-4.59a.6.6 0 0 0-.602-.602h-.164a.6.6 0 0 0-.602.602.227.227 0 0 1-.453 0v-.621a.6.6 0 0 0-.601-.602h-.168a.6.6 0 0 0-.598.602v.789a.227.227 0 0 1-.227.226.23.23 0 0 1-.164-.066.25.25 0 0 1-.066-.16v-1.352a.6.6 0 0 0-.598-.598h-.168a.6.6 0 0 0-.601.598.227.227 0 0 1-.453 0v-3.437a.6.6 0 0 0-.602-.598h-.164a.6.6 0 0 0-.602.598v7.687a.227.227 0 0 1-.226.227h-2.54a.6.6 0 0 0-.6.601v.7c0 .16.062.308.179.421.113.114.262.18.422.18h2.59a1.387 1.387 0 0 1 1.293 1.367m0 0"/></g><g clip-path="url(#c)"><path fill="#005baa" d="M6.05 28.328H2.657a1.049 1.049 0 0 1-1.055-1.055v-1.66H1.54A1.055 1.055 0 0 1 .484 24.56v-4.59c0-.582.473-1.055 1.055-1.055h.164c.234 0 .453.074.625.207a1.06 1.06 0 0 1 1.031-.828h.168c.239 0 .461.078.637.215a1.06 1.06 0 0 1 1.016-.778h.168c.222 0 .43.07.601.192v-2.574c0-.578.473-1.055 1.055-1.055h.164c.582 0 1.055.477 1.055 1.055v7.46h2.312c.582 0 1.055.473 1.055 1.055v.7c0 .582-.473 1.054-1.055 1.054H7.97a.93.93 0 0 0-.864.926v.73c0 .582-.472 1.055-1.054 1.055m-4.347-8.96H1.54a.6.6 0 0 0-.601.6v4.59c0 .333.269.602.601.602h.29c.124 0 .226.102.226.227v1.886a.6.6 0 0 0 .601.602h3.395c.332 0 .601-.27.601-.602v-.742a1.387 1.387 0 0 1 1.293-1.367h2.59a.604.604 0 0 0 .602-.602v-.699a.6.6 0 0 0-.602-.601H7.996a.227.227 0 0 1-.226-.227v-7.687a.604.604 0 0 0-.602-.602h-.164a.604.604 0 0 0-.602.602v3.437a.227.227 0 0 1-.453 0 .6.6 0 0 0-.601-.598H5.18a.604.604 0 0 0-.602.598l.004 1.352a.25.25 0 0 1-.066.16.23.23 0 0 1-.164.066.227.227 0 0 1-.227-.226v-.79a.6.6 0 0 0-.602-.6H3.36a.6.6 0 0 0-.601.6v.622a.227.227 0 0 1-.453 0 .6.6 0 0 0-.602-.602m0 0"/></g></svg>