<svg xmlns="http://www.w3.org/2000/svg" width="40" height="40" version="1.0" viewBox="0 0 30 30"><defs><clipPath id="a"><path d="M.484 0h29.032v29.031H.484Zm0 0"/></clipPath></defs><g clip-path="url(#a)"><path fill="#005baa" d="M27.063 0H2.938A2.44 2.44 0 0 0 .495 2.441v19.172c0 .778.633 1.41 1.406 1.41h6.633l-.707 3.497H6.516a1.26 1.26 0 0 0-1.258 1.257c0 .692.566 1.254 1.258 1.254h16.968a1.26 1.26 0 0 0 1.258-1.258c0-.691-.566-1.253-1.258-1.253h-1.332l-.984-3.497h6.93c.773 0 1.406-.632 1.406-1.41V2.441A2.44 2.44 0 0 0 27.062 0M2.938.723h24.125c.949 0 1.718.773 1.718 1.718V18.86H1.22V2.441c0-.945.77-1.718 1.719-1.718m21.082 27.05a.536.536 0 0 1-.536.536H6.516a.536.536 0 0 1-.536-.536c0-.293.243-.53.536-.53h16.968c.293 0 .536.237.536.53m-2.622-1.253H8.566l.707-3.497h11.145Zm7.383-4.907a.684.684 0 0 1-.683.684H1.902a.684.684 0 0 1-.683-.684v-2.031H28.78ZM3.301 8.488c-.2 0-.36.164-.36.364v4.652c0 .2.16.36.36.36h1.898c.2 0 .364-.16.364-.36V8.852c0-.2-.165-.364-.364-.364Zm1.539 4.653H3.664V9.21H4.84Zm1.855-6.18c-.199 0-.36.164-.36.363v6.18c0 .2.161.36.36.36h1.899c.199 0 .363-.16.363-.36v-6.18c0-.199-.164-.363-.363-.363Zm1.54 6.18H7.058V7.684h1.175Zm1.792-3.352c-.199 0-.359.164-.359.363v3.352c0 .2.16.36.36.36h1.898c.199 0 .363-.16.363-.36v-3.352c0-.199-.164-.363-.363-.363Zm1.54 3.352H10.39v-2.625h1.175Zm3.566-5.82h-1.899c-.199 0-.363.16-.363.359v5.824c0 .2.164.36.363.36h1.899c.199 0 .36-.16.36-.36V7.68c0-.2-.161-.36-.36-.36m-.363 5.82h-1.176V8.043h1.176ZM2.766 7.523a.367.367 0 0 1 .078-.507L7.402 3.64a.36.36 0 0 1 .47.03l3.202 3.087 4.016-2.914-.805-.106a.36.36 0 1 1 .094-.715l1.723.223c.199.024.34.203.316.402l-.223 1.727a.366.366 0 0 1-.36.316q-.022-.002-.046-.003a.367.367 0 0 1-.312-.407l.117-.914-4.34 3.153a.36.36 0 0 1-.465-.032l-3.2-3.086-4.316 3.196a.364.364 0 0 1-.508-.074m-.332 7.883c0-.199.16-.363.359-.363h12.848a.362.362 0 0 1 0 .723H2.793c-.2 0-.36-.16-.36-.36m20.035-4.086a1.765 1.765 0 0 0 0 3.532 1.766 1.766 0 0 0 0-3.532m0 2.809a1.042 1.042 0 1 1 1.043-1.043c0 .574-.469 1.043-1.043 1.043m3.816-2.156h-.62a3 3 0 0 0-.15-.36l.442-.437a.64.64 0 0 0 0-.906l-.668-.668a.64.64 0 0 0-.453-.188.64.64 0 0 0-.453.188l-.438.441a3 3 0 0 0-.363-.152v-.618a.64.64 0 0 0-.64-.644H22c-.352 0-.64.289-.64.644v.618a3 3 0 0 0-.36.152l-.441-.441a.64.64 0 0 0-.454-.188.64.64 0 0 0-.453.188l-.664.668a.64.64 0 0 0 0 .906l.438.437a4 4 0 0 0-.149.36h-.62c-.356 0-.641.289-.641.644v.942c0 .351.285.64.64.64h.621q.066.182.149.36l-.438.437c-.25.25-.25.66 0 .91l.664.664a.64.64 0 0 0 .453.188.64.64 0 0 0 .454-.188l.441-.437q.176.083.36.148v.621c0 .352.288.641.64.641h.941c.356 0 .641-.29.641-.64v-.622c.125-.043.242-.093.363-.148l.438.437a.64.64 0 0 0 .453.188.64.64 0 0 0 .453-.188l.668-.664c.25-.25.25-.66 0-.91l-.441-.437q.085-.178.148-.36h.621c.356 0 .64-.289.64-.64v-.942a.64.64 0 0 0-.64-.644m-.082 1.504h-.598a.64.64 0 0 0-.609.441q-.059.19-.152.367a.64.64 0 0 0 .12.742l.423.422-.551.551-.422-.422a.65.65 0 0 0-.746-.117q-.177.089-.367.152a.64.64 0 0 0-.442.61v.597h-.777v-.597a.64.64 0 0 0-.441-.61 3 3 0 0 1-.368-.152.65.65 0 0 0-.746.117l-.422.422-.55-.55.422-.423a.64.64 0 0 0 .12-.742 2 2 0 0 1-.152-.367.64.64 0 0 0-.61-.441h-.597v-.782h.598c.277 0 .52-.175.61-.437q.058-.195.152-.371a.64.64 0 0 0-.121-.742l-.422-.422.55-.551.422.422c.2.195.496.242.746.117q.179-.089.368-.152a.64.64 0 0 0 .441-.61v-.597h.777v.597c0 .278.18.524.442.61q.189.064.37.152a.64.64 0 0 0 .743-.117l.422-.422.55.55-.421.423a.64.64 0 0 0-.121.742 2.4 2.4 0 0 1 .156.37.63.63 0 0 0 .605.438h.598ZM19.73 8.34c1.301 0 2.36-1.055 2.36-2.356s-1.059-2.359-2.36-2.359a2.36 2.36 0 0 0-2.355 2.36c0 1.3 1.055 2.355 2.355 2.355m0-3.992c.903 0 1.637.734 1.637 1.636 0 .899-.734 1.633-1.637 1.633a1.637 1.637 0 0 1-1.632-1.633c0-.902.734-1.636 1.632-1.636m5.477 3.992c1.3 0 2.36-1.055 2.36-2.356s-1.06-2.359-2.36-2.359a2.358 2.358 0 0 0 0 4.715m0-3.992c.902 0 1.637.734 1.637 1.636 0 .899-.735 1.633-1.637 1.633a1.637 1.637 0 0 1-1.633-1.633c0-.902.735-1.636 1.633-1.636m-1.074 1.816a.363.363 0 0 1 0-.512c.14-.14.37-.14.512 0l.34.34.788-.785a.356.356 0 0 1 .512 0c.14.14.14.367 0 .508l-1.047 1.047a.357.357 0 0 1-.508 0Zm-5.274.18.364-.36-.364-.363a.36.36 0 0 1 0-.508.356.356 0 0 1 .512 0l.363.36.36-.36a.356.356 0 0 1 .511 0c.141.14.141.367 0 .508l-.363.363.363.36a.363.363 0 0 1-.257.617.36.36 0 0 1-.254-.106l-.36-.359-.363.36a.36.36 0 0 1-.254.105.36.36 0 0 1-.254-.106.36.36 0 0 1-.004-.511m0 0"/></g></svg>