<svg xmlns="http://www.w3.org/2000/svg" width="40" height="40" version="1.0" viewBox="0 0 30 30"><defs><clipPath id="a"><path d="M5 0h22.578v29.031H5Zm0 0"/></clipPath><clipPath id="b"><path d="M2.172 7H14v12H2.172Zm0 0"/></clipPath></defs><g clip-path="url(#a)"><path fill="#005baa" d="M27.82 23.71V.485c0-.289-.191-.484-.48-.484H5.563a.46.46 0 0 0-.485.484v6.774h.969V.968h20.808v22.259H22.5c-.29 0-.484.191-.484.484v4.355H6.046v-7.261h-.968v7.742c0 .293.195.484.484.484H22.5a.44.44 0 0 0 .34-.144l4.836-4.84c.05-.047.05-.094.097-.145v-.047c.047-.05.047-.097.047-.144m-4.836.485h3.192l-1.598 1.594-1.594 1.598Zm0 0"/></g><g clip-path="url(#b)"><path fill="#005baa" d="M8.469 18.387h4.836v-.969h-1.45V8.227c0-.293-.195-.485-.484-.485H8.47c-.293 0-.485.192-.485.485v2.902H5.563a.46.46 0 0 0-.485.484v1.934H2.66a.46.46 0 0 0-.484.484v3.871c0 .293.195.485.484.485Zm.48-9.676h1.938v8.707H8.949Zm-2.902 3.387h1.937v5.32H6.047Zm-2.902 2.418h1.933v2.902H3.145Zm0 0"/></g><path fill="#005baa" d="M24.918 11.613V3.387c0-.29-.191-.485-.484-.485h-10.16a.46.46 0 0 0-.485.485v8.226c0 .29.195.485.484.485h10.16c.294 0 .485-.196.485-.485m-.969-5.808h-5.804V3.87h5.804ZM17.176 3.87v1.934h-2.418V3.87Zm-2.418 2.902h2.418v4.356h-2.418zm3.387 4.356V6.773h5.804v4.356ZM14.273 13.547h10.16v.969h-10.16ZM14.273 15.969h10.16v.965h-10.16ZM14.273 18.387h10.16v.968h-10.16ZM7.5 2.902h2.902v.97H7.5ZM7.5 5.324h4.355v.965H7.5ZM7.5 20.805h3.387v.968H7.5ZM12.34 20.805h3.387v.968H12.34ZM17.176 20.805h3.387v.968h-3.387ZM7.5 23.227h3.387v.968H7.5ZM12.34 23.227h3.387v.968H12.34ZM17.176 23.227h3.387v.968h-3.387ZM7.5 25.645h3.387v.968H7.5ZM12.34 25.645h3.387v.968H12.34ZM17.176 25.645h3.387v.968h-3.387Zm0 0"/></svg>