<svg xmlns="http://www.w3.org/2000/svg" width="40" height="40" version="1.0" viewBox="0 0 30 30"><defs><clipPath id="a"><path d="M.484 2.121h29.032v24.68H.484Zm0 0"/></clipPath></defs><g clip-path="url(#a)"><path fill="#061c3d" fill-rule="evenodd" d="M12.531 12.98a.43.43 0 0 1-.008-.62.44.44 0 0 1 .622-.008l1.25 1.23 2.449-2.45a.443.443 0 0 1 .625 0 .443.443 0 0 1 0 .626l-2.762 2.754a.437.437 0 0 1-.617 0Zm3.078 11.098a.44.44 0 0 1-.441.442h-5.43a.44.44 0 0 1-.437-.442c0-.242.195-.437.437-.437h5.43a.44.44 0 0 1 .441.437m.41-2.379a.44.44 0 0 1-.437.442H9.738a.44.44 0 0 1-.437-.442.44.44 0 0 1 .437-.441h5.844c.242 0 .438.199.438.441M9.302 19.32c0-.246.195-.441.437-.441h9.07a.438.438 0 1 1 0 .879h-9.07a.437.437 0 0 1-.437-.438m9.496 4.743a1.02 1.02 0 0 1-1.016-1.016c0-.559.457-1.016 1.016-1.016s1.015.457 1.015 1.016a1.02 1.02 0 0 1-1.015 1.015m0-2.91a1.894 1.894 0 1 0-.001 3.79 1.894 1.894 0 0 0 0-3.79m8.816-6.184a1.014 1.014 0 1 1 .006-2.03 1.014 1.014 0 0 1-.006 2.03m-4.398 9.898V14.395h-3.938a4.58 4.58 0 0 1-4.28 2.988 4.58 4.58 0 0 1-4.388-3.305.442.442 0 1 1 .848-.242 3.69 3.69 0 0 0 3.54 2.668 3.7 3.7 0 0 0 3.542-2.668.435.435 0 0 1 .418-.32h4.258V8.89h-3.856a2.03 2.03 0 0 1-2.03-2.032V3.004H7.933c-.641 0-1.157.52-1.157 1.152v7.094h3.938a4.58 4.58 0 0 1 4.281-2.988 4.58 4.58 0 0 1 4.387 3.304.437.437 0 0 1-.305.543.435.435 0 0 1-.539-.3 3.7 3.7 0 0 0-3.543-2.668 3.69 3.69 0 0 0-3.539 2.668s0 .004-.004.004l-.055.12a.46.46 0 0 1-.363.196H6.777v12.738c0 .637.516 1.153 1.157 1.153h14.129c.632 0 1.152-.516 1.152-1.153M18.207 3.625l4.387 4.387h-3.235a1.154 1.154 0 0 1-1.152-1.153ZM2.375 12.703a1.02 1.02 0 0 1-1.016-1.015 1.016 1.016 0 1 1 1.016 1.016m25.238-.64c-.89 0-1.64.62-1.84 1.453h-1.68V8.453a.44.44 0 0 0-.128-.312l-5.887-5.887a.44.44 0 0 0-.312-.129H7.934c-1.125 0-2.036.91-2.036 2.031v7.094h-1.68a1.9 1.9 0 0 0-1.843-1.457A1.9 1.9 0 0 0 .48 11.688a1.896 1.896 0 0 0 3.739.44h1.68v12.74c0 1.12.91 2.034 2.035 2.034h14.129a2.036 2.036 0 0 0 2.03-2.035V14.395h1.68a1.9 1.9 0 0 0 1.84 1.457 1.9 1.9 0 0 0 1.899-1.895 1.897 1.897 0 0 0-1.899-1.895m0 0"/></g></svg>