<svg xmlns="http://www.w3.org/2000/svg" width="40" height="40" version="1.0" viewBox="0 0 30 30"><defs><clipPath id="a"><path d="M3 0h23.902v29.031H3Zm0 0"/></clipPath></defs><g clip-path="url(#a)"><path fill="#fff" fill-rule="evenodd" d="M11.984 12.766v.668c0 .476.293.886.711 1.054v.317c0 .476.29.883.703 1.054v.317c0 .629.512 1.14 1.137 1.14h.89c.63 0 1.141-.511 1.141-1.14v-.317c.41-.171.704-.578.704-1.054v-.336c.39-.18.66-.574.66-1.035v-.668c.105-1.735.535-2.465.949-3.176.387-.66.754-1.285.754-2.496a4.68 4.68 0 0 0-4.676-4.672 4.677 4.677 0 0 0-4.672 4.672c0 1.21.367 1.836.754 2.496.414.71.844 1.441.945 3.176m1.793-5.118h-.527a.527.527 0 0 1-.527-.523.528.528 0 0 1 1.054 0Zm1.457 4.649h-.55V8.559h.55Zm1.79.906v.23a.234.234 0 0 1-.231.235h-3.668a.234.234 0 0 1-.23-.234v-.23Zm-.66 1.602c0 .129-.11.234-.235.234h-2.297a.234.234 0 0 1-.23-.234v-.23h2.761Zm-.938 1.605h-.89a.234.234 0 0 1-.231-.234v-.23h1.355v.23c0 .129-.11.234-.234.234m-.469-13.082a3.77 3.77 0 0 1 3.766 3.766c0 .965-.278 1.437-.625 2.039-.395.672-.88 1.496-1.04 3.164h-.917V8.559h.527a1.435 1.435 0 1 0-1.434-1.434v.523h-.55v-.523a1.435 1.435 0 0 0-2.868 0c0 .79.641 1.434 1.434 1.434h.527v3.738h-.918c-.16-1.668-.644-2.492-1.039-3.164-.351-.602-.629-1.074-.629-2.04a3.77 3.77 0 0 1 3.766-3.765m1.184 4.32v-.523a.528.528 0 0 1 1.054 0c0 .29-.238.523-.527.523ZM14.504 1.45V.453a.454.454 0 0 1 .91 0v.996a.454.454 0 0 1-.91 0m-3.617.219a.454.454 0 0 1 .785-.457l.496.863a.453.453 0 0 1-.785.453ZM8.195 3.906a.45.45 0 0 1 .617-.168l.864.5a.453.453 0 0 1-.23.844.5.5 0 0 1-.227-.059l-.86-.496a.46.46 0 0 1-.164-.62m9.551-1.832.5-.863a.454.454 0 0 1 .785.457l-.496.86a.46.46 0 0 1-.394.226.43.43 0 0 1-.227-.063.45.45 0 0 1-.168-.617m2.332 2.781a.453.453 0 0 1 .164-.617l.863-.5a.45.45 0 0 1 .618.168.46.46 0 0 1-.164.621l-.864.496a.47.47 0 0 1-.226.059.45.45 0 0 1-.39-.227m6.473 14.68c-.235-.39-1.192-1.547-3.68-.098l-4.293 2.5a2.2 2.2 0 0 1-.48.215q.075-.15.12-.324c.231-.855-.277-1.75-1.155-2.035-.02-.004-.04-.012-.06-.016-1.226-.218-2.44-.66-3.417-1.011a29 29 0 0 0-.934-.328c-1.129-.368-2.14.082-2.98.57L6.543 20.82l-.195-.343a1.07 1.07 0 0 0-.653-.512 1.07 1.07 0 0 0-.824.101l-1.207.68c-.52.297-.703.961-.406 1.48l3.539 6.254c.2.356.566.551.945.551.18 0 .363-.043.535-.14l1.203-.68a1.09 1.09 0 0 0 .41-1.48l-.402-.708.64-.367 5.47 1.465a3.329 3.329 0 0 0 2.668-.379l7.785-4.797c.742-.457.98-1.605.5-2.41M9.03 27.422l-1.203.68a.18.18 0 0 1-.242-.067l-3.54-6.254a.18.18 0 0 1-.015-.136.17.17 0 0 1 .082-.11l1.203-.68a.2.2 0 0 1 .086-.023c.02 0 .04.004.051.008a.17.17 0 0 1 .106.082l3.543 6.258a.18.18 0 0 1-.07.242m16.547-6.25-7.789 4.797c-.602.37-1.258.46-1.957.273l-5.648-1.512a.47.47 0 0 0-.348.043l-.793.461-2.05-3.625 3.136-1.816c.7-.406 1.457-.746 2.242-.492.258.082.559.191.906.316 1 .363 2.243.813 3.532 1.047.41.148.636.54.535.93-.13.468-.5.562-.828.543-.7-.137-1.328-.317-1.985-.504-.289-.078-.582-.164-.894-.246a.453.453 0 0 0-.234.875q.456.123.878.246c.63.18 1.235.347 1.903.488.261.055.492.094.636.117.817.13 1.54 0 2.215-.39l4.29-2.5c1.198-.696 2.113-.782 2.445-.223.23.383.132.973-.192 1.172m-20.02.703a.431.431 0 0 1-.851.125.434.434 0 0 1 .363-.488.43.43 0 0 1 .489.363m0 0"/></g></svg>