<svg xmlns="http://www.w3.org/2000/svg" width="40" height="40" version="1.0" viewBox="0 0 30 30"><defs><clipPath id="a"><path d="M2.336 11h25.402v18.031H2.336Zm0 0"/></clipPath></defs><path fill="#fff" d="M24.742 26.973a.835.835 0 0 1-.832.832H4.398a.84.84 0 0 1-.835-.832V13.098c0-.457.378-.832.835-.832H23.91c.457 0 .832.375.832.832Zm0 0"/><path fill="#fff" d="M23.91 12.266H4.398a.84.84 0 0 0-.835.832v13.875c0 .457.378.832.835.832H23.91a.835.835 0 0 0 .832-.832V13.098a.833.833 0 0 0-.832-.832m0 0"/><path fill="#fff" d="M22.64 17.898c-1.175 0-2.136.961-2.136 2.137 0 1.18.96 2.14 2.137 2.14h3.164c.39 0 .71-.32.71-.71v-2.848c0-.394-.32-.71-.71-.71H22.64Zm0 0"/><g clip-path="url(#a)"><path fill="#061c3d" d="M25.977 16.766v-3.664a2.06 2.06 0 0 0-2.063-2.059H4.398a2.054 2.054 0 0 0-2.062 2.055v13.875c0 1.136.926 2.058 2.062 2.058H23.91a2.06 2.06 0 0 0 2.063-2.058v-3.668a1.856 1.856 0 0 0 1.683-1.848v-2.84c0-.972-.738-1.762-1.68-1.851m-1.235 5.41h-2.101a2.143 2.143 0 0 1-2.137-2.14c0-1.177.96-2.138 2.137-2.138h2.101Zm-12.836.75a.6.6 0 0 1-.601-.598c0-.332.27-.601.601-.601a.6.6 0 0 1 0 1.2m12.004 4.883H14.81v-2.016l.988-.988a1.687 1.687 0 0 0 2.3-1.57c0-.93-.753-1.684-1.683-1.684a1.687 1.687 0 0 0-1.45 2.547l-1.241 1.242v2.469H12.55V23.89a1.687 1.687 0 0 0-.64-3.246 1.687 1.687 0 0 0-.583 3.27v3.894h-1.176v-2.47L8.91 24.099a1.686 1.686 0 1 0-3.133-.863c0 .93.758 1.687 1.688 1.687.215 0 .426-.043.613-.117l.988.988v2.016H4.398a.84.84 0 0 1-.835-.832v-13.88c0-.456.378-.831.835-.831H23.91c.457 0 .832.375.832.832v3.66h-2.101a3.284 3.284 0 0 0-3.278 3.277 3.285 3.285 0 0 0 3.278 3.281h2.101v3.66a.833.833 0 0 1-.832.833m-8.09-4.579c0-.332.27-.601.598-.601s.598.27.598.601a.6.6 0 0 1-.598.598.6.6 0 0 1-.598-.598m-7.773 0a.6.6 0 1 1-1.2-.005.6.6 0 0 1 1.2.005m18.469-1.773a.71.71 0 0 1-.543.691v-4.23a.716.716 0 0 1 .543.691Zm0 0"/></g><path fill="#061c3d" d="M23.734 20.035q0 .207-.078.395a1.1 1.1 0 0 1-.222.332 1 1 0 0 1-.332.222 1.025 1.025 0 1 1 .633-.95m0 0"/><path fill="#fff" d="M22.64 17.898c-1.175 0-2.136.961-2.136 2.137 0 1.18.96 2.14 2.137 2.14h3.164c.39 0 .71-.32.71-.71v-2.848c0-.394-.32-.71-.71-.71H22.64Zm0 0"/><path fill="#061c3d" d="M23.734 20.035q0 .207-.078.395a1.1 1.1 0 0 1-.222.332 1 1 0 0 1-.332.222 1.025 1.025 0 1 1 .633-.95M22.535 14.996H5.925a.636.636 0 1 1 0-1.27h16.61c.352 0 .633.286.633.633a.634.634 0 0 1-.633.637m0 0"/><path fill="#061c3d" d="M20.957 14.05a4.4 4.4 0 0 0 .703-1.683 4.61 4.61 0 0 0-3.746-5.347 4.61 4.61 0 0 0-5.344 3.746 4.6 4.6 0 0 0 .66 3.293h7.727Zm0 0"/><path fill="#fff" d="m17.191 14.05.055-.304.238.043c.778.137 1.438-.234 1.555-.89a1.15 1.15 0 0 0-.57-1.211c.336-.118.613-.415.683-.793.114-.622-.375-1.168-1.086-1.29l-.086-.015.145-.8-.535-.099-.14.801-.259-.043.141-.804-.535-.098-.14.805-.903-.157-.348-.062-.144.844.48.085-.437 2.473-.48-.086-.15.84.348.063.903.156-.098.539h.555l.074-.445.262.043-.074.402h.546Zm-.43-3.804.712.125.164.031c.25.047.414.239.375.473-.04.223-.27.355-.512.313l-.875-.153Zm-.429 2.469.156-.899L17.52 12c.289.05.476.29.43.543-.044.254-.298.406-.595.355l-.316-.054Zm0 0"/><path fill="#061c3d" d="M9.527.328a4.62 4.62 0 0 1 5.176 3.98c.297 2.29-1.453 4.844-3.98 5.176a4.615 4.615 0 0 1-5.172-3.98A4.615 4.615 0 0 1 9.527.328m0 0"/><path fill="#fff" d="m10.05 3.844 2.028.844-2.285-2.844ZM9.926 3.86l-.258-2L8.18 5.2ZM10.586 7.953l1.547-2.848-1.742 1.356ZM8.234 5.613l2.223 2.356-.191-1.492ZM10.066 3.98l.286 2.184L11.872 5l.226-.172-2.024-.848ZM10.227 6.184 9.94 4 8.2 5.336l.426.176Zm0 0"/></svg>