<svg xmlns="http://www.w3.org/2000/svg" width="40" height="40" version="1.0" viewBox="0 0 30 30"><defs><clipPath id="a"><path d="M1.52 0H28.37v29H1.52Zm0 0"/></clipPath></defs><g clip-path="url(#a)"><path fill="#061c3d" fill-rule="evenodd" d="M27.61 22.797V19.19l-3.122 1.801v3.606Zm-7.106 0 3.121 1.8v-3.605l-3.121-1.8Zm.43-4.352 3.12-1.8 3.126 1.8-3.125 1.801Zm-3.305-2.933a2.637 2.637 0 0 0-2.637-2.633 2.637 2.637 0 0 0-2.633 2.633 2.64 2.64 0 0 0 2.633 2.636 2.64 2.64 0 0 0 2.637-2.636M11.44 7.098l3.121 1.804V5.297l-3.12-1.805Zm.43-4.352 3.121-1.8 3.125 1.8-3.125 1.805Zm6.676 4.352V3.492l-3.121 1.805v3.605ZM9.484 19.19 6.36 20.992v3.606l3.125-1.801ZM2.38 22.797l3.121 1.8v-3.605l-3.121-1.8Zm.43-4.352 3.12-1.8 3.122 1.8-3.121 1.801Zm25.66 0v4.602a.42.42 0 0 1-.211.371l-3.985 2.3a.44.44 0 0 1-.433 0l-3.98-2.3a.42.42 0 0 1-.22-.371v-4.352l-1.859-1.074a3.493 3.493 0 0 1-5.574 0l-1.863 1.074v4.352a.43.43 0 0 1-.211.371l-3.988 2.3a.42.42 0 0 1-.43 0l-3.985-2.3a.44.44 0 0 1-.214-.371v-4.602c0-.152.086-.297.214-.375l3.985-2.297a.42.42 0 0 1 .43 0l3.77 2.176 1.858-1.074c-.898-2.117.48-4.547 2.79-4.832V9.895l-3.77-2.172a.44.44 0 0 1-.215-.375V2.746c0-.152.082-.297.215-.371l3.984-2.3a.42.42 0 0 1 .43 0l3.988 2.3c.133.074.211.219.211.371v4.602a.43.43 0 0 1-.21.375l-3.77 2.172v2.148c2.304.285 3.687 2.715 2.785 4.832l1.863 1.074 3.766-2.176a.43.43 0 0 1 .433 0l3.985 2.297c.133.078.21.223.21.375m-7.43 7.516a12.08 12.08 0 0 1-12.094 0 .43.43 0 0 0-.59.156.433.433 0 0 0 .157.59 12.94 12.94 0 0 0 12.96 0 .431.431 0 1 0-.434-.746m-.02-20.91a12.13 12.13 0 0 1 6.044 10.476.432.432 0 0 0 .863 0c0-4.64-2.461-8.914-6.477-11.222a.43.43 0 1 0-.43.746M2.493 15.957c.238 0 .43-.191.43-.43 0-4.312 2.316-8.324 6.05-10.476a.436.436 0 0 0 .157-.59.43.43 0 0 0-.59-.156 12.93 12.93 0 0 0-6.476 11.222c0 .239.19.43.43.43m14.281-1.3-1.972 2.417a.43.43 0 0 1-.653.02l-1.082-1.188a.435.435 0 0 1 .028-.61.43.43 0 0 1 .61.028l.745.82 1.656-2.03a.44.44 0 0 1 .61-.063c.183.152.21.422.058.605m0 0"/></g></svg>