<svg xmlns="http://www.w3.org/2000/svg" width="40" height="40" version="1.0" viewBox="0 0 30 30"><defs><clipPath id="a"><path d="M.828 0h28.309v29.031H.828Zm0 0"/></clipPath></defs><g clip-path="url(#a)"><path fill="#061c3d" d="M29.176 12.34v-.012a.6.6 0 0 0-.02-.14l-.011-.036q-.005-.01-.004-.023a1 1 0 0 0-.063-.11c0-.007-.008-.011-.012-.015a.5.5 0 0 0-.105-.106l-.012-.011-2.094-1.524c-.023-.015-.054-.027-.082-.043l-.668-4.547h.325a.56.56 0 0 0 .53-.382l.802-2.465c.004-.008 0-.016.004-.02a.7.7 0 0 0 .023-.152v-.016a.6.6 0 0 0-.023-.136.1.1 0 0 0-.008-.036c-.004-.007-.004-.02-.008-.023-.016-.04-.04-.074-.059-.11-.003-.007-.011-.011-.015-.019a.5.5 0 0 0-.102-.098c0-.003-.004-.011-.012-.015L25.466.777a.545.545 0 0 0-.652 0l-2.098 1.524a.56.56 0 0 0-.2.625l.102.312-4.543.77v-.004l-.012-.035c-.003-.008-.003-.02-.007-.024-.016-.039-.04-.074-.059-.11-.004-.007-.012-.01-.016-.015a.5.5 0 0 0-.101-.105l-.012-.012-2.094-1.523a.55.55 0 0 0-.656 0l-2.094 1.523a.5.5 0 0 0-.164.207L8.074 2.906l.207-.629c.004-.007 0-.011.004-.02a.6.6 0 0 0 .024-.152v-.011c0-.047-.012-.094-.024-.14l-.012-.032q-.003-.017-.007-.027a1 1 0 0 0-.059-.11c-.004-.008-.012-.012-.016-.015a.5.5 0 0 0-.097-.102c-.004-.004-.008-.012-.016-.016L5.984.13a.55.55 0 0 0-.656 0L3.234 1.652a.56.56 0 0 0-.203.625l.801 2.465c.074.23.29.387.527.387h.29l-1.262 6.113a.6.6 0 0 0-.172.086L1.12 12.852a.56.56 0 0 0-.203.625l.8 2.464c.075.227.29.387.528.387h2.59c.242 0 .457-.16.531-.387l.238-.742 4.461 1.055v9.965c0 1.535 1.25 2.789 2.79 2.789h5.195c1.535 0 2.789-1.25 2.789-2.79V15.54l3.61-1.344.253.782c.074.23.29.386.531.386h2.59a.56.56 0 0 0 .528-.386l.8-2.465c.004-.008 0-.016.004-.02a.5.5 0 0 0 .02-.152m-1.762 1.906h-1.781l-.14-.441-.161-.492.707.292.273.114q.106.042.211.043a.6.6 0 0 0 .215-.043l.98-.403Zm.07-2.043-.359.152-.055.02-.101.043-.446.184-.57-.239h-.008l-.379-.16.325-.23.222-.164.414-.301.473.344Zm-1.39-9.586-.364.149-.28.12-.317.134-.344-.145-.227-.094-.386-.16.96-.695Zm-.07 2.043h-1.782l-.176-.535-.128-.398.718.296.063.028.199.086q.1.04.21.039a.6.6 0 0 0 .212-.04l.484-.199.5-.207Zm-3.07-.348.35 1.079c.075.23.29.386.528.386h1.14l.731 4.95-.558.406-7.575-5.297.211-.649Zm-7.52-.992.96.7-.363.152-.601.246-.57-.238-.387-.16Zm.89 2.743h-1.781l-.23-.708-.047-.152-.028-.07.082.031.559.227.285.12.059.024q.054.022.101.031a.1.1 0 0 0 .035.004c.028.004.047.008.07.008h.008c.016 0 .028-.004.043-.004a.5.5 0 0 0 .168-.039l.067-.027.281-.117.594-.246.043-.016-.012.035-.078.227ZM4.75 4.015l-.3-.934.554.227.426.18q.105.041.21.042a.6.6 0 0 0 .215-.043l.98-.402-.214.664-.09.266Zm.887-2.746.96.699-.359.152-.605.246-.57-.238-.387-.16Zm.129 3.859h1.168a.55.55 0 0 0 .527-.387l.254-.77 5.34 1.118.265.82-8.3 6.254-.594-.434ZM4.52 14.94l-.086.266H2.652l-.304-.934.984.407a.6.6 0 0 0 .211.043c.012 0 .027-.004.043-.004a.5.5 0 0 0 .168-.04l.984-.402Zm-1.45-2.129.477-.343.543.398.094.07.324.235-.363.148-.047.02-.555.23-.246-.105-.324-.133-.008-.004-.38-.156Zm2.883 1.325.219-.66c.004-.008 0-.016.004-.02a.7.7 0 0 0 .023-.152v-.016c0-.043-.011-.094-.02-.137l-.011-.035c-.004-.008-.004-.02-.008-.023-.015-.04-.039-.074-.058-.11q-.008-.01-.016-.015a.6.6 0 0 0-.098-.106l-.011-.011-.004-.004 7.761-5.852a.55.55 0 0 0 .407.184h.738v2.832h-2.024a2.793 2.793 0 0 0-2.789 2.789v2.312Zm13.77 1.816V26.22c0 .922-.75 1.672-1.672 1.672h-5.196c-.921 0-1.671-.75-1.671-1.672V12.797c0-.922.75-1.672 1.671-1.672h1l.364.727c.144.285.375.496.66.609.148.062.312.094.476.094h.192c.156 0 .305-.032.445-.082.293-.11.547-.328.692-.621l.363-.727h1c.926 0 1.672.75 1.672 1.672v3.156Zm-3.918-4.828-.117.23a.15.15 0 0 1-.141.086h-.192a.16.16 0 0 1-.14-.086l-.113-.23Zm5.03 3.223V12.8c0-1.535-1.25-2.79-2.788-2.79h-2.055V7.18h.738a.54.54 0 0 0 .457-.254l7 4.894-.09.067a.55.55 0 0 0-.199.625l.2.62Zm-8.581 2.425.84 2.586c.074.23.289.387.531.387h3.621a.56.56 0 0 0 .527-.387l.993-3.054.125-.39c.004-.005 0-.013.004-.017.011-.05.023-.101.023-.152v-.016c0-.043-.012-.093-.02-.14-.003-.008-.007-.024-.011-.031-.004-.008-.004-.02-.008-.028a1 1 0 0 0-.059-.105q-.006-.01-.011-.02a.4.4 0 0 0-.106-.101l-.012-.012-.136-.098-2.563-1.863-.23-.168a.56.56 0 0 0-.657 0l-.226.168-2.7 1.961a.6.6 0 0 0-.199.266.55.55 0 0 0-.007.355Zm2.625-2.058.555-.402.558.402 1.235.898-.364.149-.875.363-.558.23-.555-.23-.809-.336-.425-.176Zm2.555 2.09-.598 1.824h-2.809l-.504-1.555-.117-.355 1.813.75h.004c.011.008.027.008.043.011.02.008.035.012.054.016q.004.002.008.004a.5.5 0 0 0 .113.012h.012a.4.4 0 0 0 .094-.012h.004q.016-.007.031-.008.031-.01.063-.02.005 0 .011-.003l.008-.004 1.805-.746Zm-3.707 5.8c0-.304.25-.554.554-.554h2.305a.56.56 0 0 1 .559.554.56.56 0 0 1-.56.56h-2.304a.56.56 0 0 1-.554-.56m4.843-2.265h-6.238a.56.56 0 0 0-.559.558v5.125c0 .309.254.559.559.559h6.238c.305 0 .559-.25.559-.559v-5.125a.56.56 0 0 0-.559-.558m-.558 5.129H12.89v-4.016h5.12Zm-4.703-1.153c0-.308.254-.558.558-.558H17c.309 0 .559.25.559.558 0 .305-.25.555-.559.555h-3.133a.555.555 0 0 1-.558-.555m0 0"/></g></svg>