<svg xmlns="http://www.w3.org/2000/svg" width="40" height="40" version="1.0" viewBox="0 0 30 30"><defs><clipPath id="a"><path d="M1.918 0h26.129v29.031H1.918Zm0 0"/></clipPath></defs><g clip-path="url(#a)"><path fill="#fff" fill-rule="evenodd" d="m19.887 11.496 1.078-.625v.004l1.367-.793 1.363.793q.01.001.02.008l1.062.613-2.445 1.41Zm2.152 1.914-2.441-1.414v2.824l2.441 1.41ZM19.016 1.914 16.57 3.328v2.82l2.446-1.41Zm-5.18-.5L14.914.79v.004L16.281 0l1.367.793 1.079.621-2.446 1.41Zm2.156 1.914-2.445-1.414v2.824l1.351.782c.004.003.012.003.016.007l1.078.621Zm-3.027 8.668v2.824l-1.367.79q-.005.005-.016.011l-1.059.61v-2.82Zm-5.18-.5 2.445 1.41 2.446-1.41-1.063-.613q-.005-.007-.015-.008l-1.368-.793-1.367.793v-.004Zm2.156 1.914v2.82l-2.445-1.41v-2.824Zm2.664-3.414a.29.29 0 1 1-.492-.312l1.91-3.012a.294.294 0 0 1 .403-.09.294.294 0 0 1 .09.402Zm5.458 2.953c.16 0 .289.133.289.293s-.13.29-.29.29H14.5a.29.29 0 0 1-.293-.29c0-.16.133-.293.293-.293Zm-.016-5.965 1.91 3.012a.294.294 0 0 0 .402.09.294.294 0 0 0 .09-.402l-1.91-3.012a.29.29 0 1 0-.492.313M6.157 20.09l4.6-1.594c.31-.11.606-.16.903-.164q.446 0 .902.152l7.118 2.383c.297.102.527.313.656.574.129.258.164.563.07.856-.156.3-.386.543-.656.68a1.03 1.03 0 0 1-.793.058l-5.2-1.742a.291.291 0 0 0-.187.55l5.2 1.739c.437.148.867.098 1.238-.086.39-.195.715-.539.926-.96a1.664 1.664 0 0 0 .09-.805l5.3-2.747c.29-.148.61-.175.895-.097.277.078.52.254.672.523.156.274.183.586.105.867a1.15 1.15 0 0 1-.55.7l-8.618 4.976-.015.008a2.8 2.8 0 0 1-.918.39 2.9 2.9 0 0 1-1 .028l-6.461-.934a.28.28 0 0 0-.196.043l-.488.285Zm-4.243.816 5.14 8.125 2.907-1.84-.547-.863q-.007-.011-.008-.015L4.82 19.066Zm23.149-8.91L22.62 13.41v2.82l1.063-.609q.004-.006.015-.012l1.363-.789Zm0 0"/></g></svg>