<svg xmlns="http://www.w3.org/2000/svg" width="40" height="40" version="1.0" viewBox="0 0 30 30"><defs><clipPath id="a"><path d="M23 7h5.012v8H23Zm0 0"/></clipPath></defs><path fill="#061c3d" d="M24.738 20.336a.6.6 0 0 1 .211-.32.6.6 0 0 1 .363-.133h.723q.169 0 .297-.106.128-.105.164-.27.218-1.11.219-2.241a.45.45 0 0 0-.137-.328.43.43 0 0 0-.328-.137h-4.66v-6.059q0-.35-.34-.449l-2.922-.832V7.016a.464.464 0 0 0-.465-.465H12.27a.464.464 0 0 0-.465.465V9.46l-2.922.832q-.34.098-.34.45V16.8h-4.66a.43.43 0 0 0-.328.137q-.136.135-.137.328c.004.754.074 1.5.223 2.242q.03.164.16.27.127.105.297.105h.722a.6.6 0 0 1 .364.133.6.6 0 0 1 .21.32q.262.826.665 1.594a.61.61 0 0 1-.086.726l-.516.516a.466.466 0 0 0-.059.59 11.6 11.6 0 0 0 3.172 3.172.46.46 0 0 0 .59-.059l.516-.516q.328-.31.726-.086.768.4 1.594.665a.6.6 0 0 1 .32.21.58.58 0 0 1 .133.36v.726q0 .17.106.297.105.13.27.16a11.4 11.4 0 0 0 4.484 0 .44.44 0 0 0 .27-.16.45.45 0 0 0 .105-.297v-.726a.58.58 0 0 1 .132-.36.6.6 0 0 1 .32-.21q.828-.265 1.594-.665.399-.223.727.086l.516.516a.46.46 0 0 0 .59.059 11.6 11.6 0 0 0 3.171-3.172.44.44 0 0 0 .078-.305.45.45 0 0 0-.136-.285l-.516-.516a.608.608 0 0 1-.086-.727q.403-.767.664-1.593m-6.41-9.906 2.328.664V16.8h-2.328Zm-5.59-2.95h4.657v9.32h-.93v-1.866a.46.46 0 0 0-.137-.329.45.45 0 0 0-.328-.136h-1.867a.46.46 0 0 0-.328.136.46.46 0 0 0-.137.329V16.8h-.93Zm2.793 7.922v1.399h-.93v-1.399Zm-6.054-4.308 2.328-.664v6.37H9.477Zm12.007 6.636a6.446 6.446 0 0 1-6.418 5.977q-.602-.001-1.199-.113a6.3 6.3 0 0 1-1.156-.336 6.446 6.446 0 0 1-4.062-5.527Zm2.368 2.325q-.24.749-.602 1.445a1.5 1.5 0 0 0-.172.95 1.5 1.5 0 0 0 .426.866l.238.239a10.6 10.6 0 0 1-2.387 2.386l-.238-.242a1.52 1.52 0 0 0-.867-.426 1.5 1.5 0 0 0-.95.176 9 9 0 0 1-1.445.598 1.5 1.5 0 0 0-.789.55c-.207.27-.308.575-.312.91v.337a10.4 10.4 0 0 1-3.375 0v-.336a1.5 1.5 0 0 0-.309-.91 1.53 1.53 0 0 0-.793-.551c-.5-.156-.98-.36-1.445-.598a1.5 1.5 0 0 0-.95-.172 1.5 1.5 0 0 0-.866.422l-.239.242a10.6 10.6 0 0 1-2.386-2.386l.238-.239a1.5 1.5 0 0 0 .426-.867 1.5 1.5 0 0 0-.172-.949 9 9 0 0 1-.598-1.445 1.5 1.5 0 0 0-.55-.793 1.5 1.5 0 0 0-.91-.309h-.337q-.1-.608-.129-1.223h3.36a7.4 7.4 0 0 0 .683 2.676 7.5 7.5 0 0 0 1.621 2.235c.34.316.704.601 1.098.847a7.2 7.2 0 0 0 2.566 1.02 7.4 7.4 0 0 0 4.09-.387 7.2 7.2 0 0 0 1.235-.633 7.2 7.2 0 0 0 2.015-1.89q.405-.564.703-1.192.3-.632.47-1.304.174-.675.214-1.372h3.36q-.03.614-.126 1.223h-.335q-.51.005-.915.309-.406.305-.546.793M15.531 6.082V2.734q.315-.109.543-.347.234-.241.328-.559c.067-.215.078-.43.043-.648a1.5 1.5 0 0 0-.254-.594 1.405 1.405 0 0 0-2.25 0 1.5 1.5 0 0 0-.254.594 1.405 1.405 0 0 0 .915 1.554v3.348ZM15.066.957q.194.001.329.137.138.137.136.332a.44.44 0 0 1-.136.328q-.135.136-.329.137a.45.45 0 0 1-.328-.137.44.44 0 0 1-.136-.328q-.002-.196.136-.332.135-.136.328-.137m0 0"/><path fill="#061c3d" d="M19.727 6.082v3.262h.93V6.277l.8-.8q.282.14.598.14a1.39 1.39 0 0 0 1.293-.863 1.405 1.405 0 0 0 0-1.07 1.4 1.4 0 0 0-.305-.454 1.4 1.4 0 0 0-.453-.3 1.3 1.3 0 0 0-.535-.11q-.277-.001-.535.11c-.172.07-.32.172-.454.3q-.194.198-.3.454a1.34 1.34 0 0 0 .03 1.132l-.933.938a.43.43 0 0 0-.136.328m2.328-2.328q.193.001.328.137c.094.09.137.199.137.328a.45.45 0 0 1-.137.332q-.135.134-.328.133a.464.464 0 0 1-.465-.465q.001-.195.137-.328.135-.136.328-.137M8.078 2.82q-.279-.001-.535.11-.259.107-.453.3a1.4 1.4 0 0 0-.305.454 1.405 1.405 0 0 0 .758 1.828q.256.105.535.105.316 0 .598-.14l.8.8v3.067h.93V6.082a.43.43 0 0 0-.136-.328l-.934-.938q.135-.28.14-.597.001-.277-.109-.535a1.4 1.4 0 0 0-.3-.454 1.41 1.41 0 0 0-.989-.41m0 1.864a.45.45 0 0 1-.328-.133.45.45 0 0 1-.137-.332q-.002-.195.137-.328.136-.136.328-.137.193.001.328.137.139.135.137.328a.45.45 0 0 1-.137.328.43.43 0 0 1-.328.137M3.418 7.945a1.45 1.45 0 0 0-.656.164 1.393 1.393 0 0 0-.477 2.055 1.4 1.4 0 0 0 .516.438 1.43 1.43 0 0 0 .664.14q.17-.006.336-.055c.11-.03.215-.078.316-.132.098-.059.188-.125.27-.207l1.363.683v3.438h.93v-3.727a.44.44 0 0 0-.258-.418L4.8 9.512q.01-.082.015-.168 0-.277-.105-.535a1.4 1.4 0 0 0-.305-.454 1.4 1.4 0 0 0-.453-.3 1.4 1.4 0 0 0-.535-.11m0 1.864a.464.464 0 0 1-.465-.465q.001-.195.137-.328.135-.136.328-.137.193.001.328.137.139.135.137.328a.43.43 0 0 1-.137.328.43.43 0 0 1-.328.137M5.75 15.402h.93v.93h-.93Zm0 0"/><g clip-path="url(#a)"><path fill="#061c3d" d="M28.113 9.344q.001-.277-.11-.535a1.4 1.4 0 0 0-.3-.454 1.4 1.4 0 0 0-.453-.3 1.3 1.3 0 0 0-.535-.11c-.188 0-.363.035-.535.11q-.26.107-.453.3a1.4 1.4 0 0 0-.305.454q-.106.258-.106.535.005.086.016.168l-1.621.812a.44.44 0 0 0-.258.418v3.727h.934V11.03l1.36-.683q.298.294.714.37.415.078.8-.085.388-.164.622-.516.229-.351.23-.773m-1.863 0c0-.13.043-.239.137-.328q.135-.136.328-.137.193.001.328.137c.094.09.137.199.137.328a.45.45 0 0 1-.137.332q-.135.134-.328.133a.43.43 0 0 1-.328-.137.43.43 0 0 1-.137-.328m0 0"/></g><path fill="#061c3d" d="M23.453 15.402h.934v.93h-.934ZM13.668 8.879h2.797v.93h-2.797ZM13.668 10.742h2.797v.934h-2.797ZM13.668 12.605h2.797v.934h-2.797ZM18.793 11.676h1.398v.93h-1.398ZM18.793 13.54h1.398v.929h-1.398ZM9.941 11.676h1.399v.93H9.94ZM9.941 13.54h1.399v.929H9.94Zm0 0"/></svg>