<svg xmlns="http://www.w3.org/2000/svg" width="40" height="40" version="1.0" viewBox="0 0 30 30"><defs><clipPath id="a"><path d="M12 0h15.793v25H12Zm0 0"/></clipPath><clipPath id="b"><path d="M2.39 4H18v25.031H2.39Zm0 0"/></clipPath></defs><path fill="#fff" d="M10.473 16.855q.001.28.242.418l4.043 2.336q.242.141.484 0l4.043-2.336a.45.45 0 0 0 .242-.418v-4.671a.45.45 0 0 0-.242-.418L15.242 9.43a.45.45 0 0 0-.484 0l-4.043 2.336a.45.45 0 0 0-.242.418Zm.964-3.835 3.079 1.777v3.558l-3.078-1.777Zm4.047 5.335v-3.558l3.079-1.777v3.558ZM15 10.406l3.078 1.778L15 13.96l-3.078-1.777Zm0 0"/><g clip-path="url(#a)"><path fill="#fff" d="M27.371 10.27a.45.45 0 0 0 .242-.418V7.516a.46.46 0 0 0-.242-.418L25.348 5.93a.45.45 0 0 0-.485 0l-1.781 1.027-5.574-3.219V1.684a.46.46 0 0 0-.242-.422L15.242.094a.47.47 0 0 0-.484 0l-2.024 1.168a.46.46 0 0 0-.242.422V4.02q.001.276.242.418l2.024 1.167q.242.141.484 0l1.781-1.027 5.579 3.219v2.055q-.001.282.238.418l1.781 1.027v6.441l-1.781 1.028a.45.45 0 0 0-.238.418v2.058l-3.993 2.301a.47.47 0 0 0-.222.293.47.47 0 0 0 .047.367.46.46 0 0 0 .293.227q.192.047.367-.051l3.988-2.3 1.781 1.023c.16.093.325.093.485 0l2.023-1.168a.45.45 0 0 0 .242-.418v-2.328a.46.46 0 0 0-.242-.422l-1.781-1.024v-6.441ZM16.54 3.738 15 4.628l-1.54-.89V1.961L15 1.07l1.54.89Zm7.027 4.059 1.54-.89 1.539.89v1.777l-1.54.89-1.539-.89Zm3.079 13.445-1.54.89-1.539-.89v-1.777l1.54-.89 1.539.89Zm0 0"/></g><g clip-path="url(#b)"><path fill="#fff" d="m17.266 24.602-2.024-1.168a.45.45 0 0 0-.484 0l-1.781 1.027-5.579-3.219v-2.055a.46.46 0 0 0-.238-.421L5.38 17.742v-6.441l1.781-1.028a.45.45 0 0 0 .238-.418V7.797l3.797-2.192a.46.46 0 0 0 .227-.293.46.46 0 0 0-.047-.367.46.46 0 0 0-.293-.226.47.47 0 0 0-.367.05L6.918 6.958 5.137 5.934a.45.45 0 0 0-.48 0L2.628 7.098a.46.46 0 0 0-.242.418v2.336a.45.45 0 0 0 .242.418l1.781 1.027v6.441L2.63 18.766a.45.45 0 0 0-.242.418v2.34q.001.276.242.417l2.023 1.168c.16.094.325.094.485 0l1.781-1.027 5.574 3.219v2.058q.001.277.242.418l2.024 1.164q.242.141.484 0l2.024-1.168a.45.45 0 0 0 .242-.418v-2.332a.46.46 0 0 0-.242-.421M3.356 7.797l1.539-.89 1.539.89v1.777l-1.54.89-1.539-.89Zm3.078 13.445-1.54.89-1.539-.89v-1.777l1.54-.89 1.539.89Zm10.105 5.832-1.539.89-1.54-.89v-1.773l1.54-.89 1.54.89Zm0 0"/></g><path fill="#fff" d="M21.559 12.797c.03.129.109.226.222.293a.45.45 0 0 0 .367.05.45.45 0 0 0 .293-.222.47.47 0 0 0 .051-.367 8 8 0 0 0-.297-.903 7.758 7.758 0 0 0-2.207-3.059 8 8 0 0 0-.765-.566 8 8 0 0 0-.828-.468 7 7 0 0 0-.88-.364 7.699 7.699 0 0 0-1.86-.39 7.8 7.8 0 0 0-1.901.07 7.6 7.6 0 0 0-1.82.535 7.6 7.6 0 0 0-1.641.961 7 7 0 0 0-.719.625 7 7 0 0 0-.636.707 8 8 0 0 0-.547.778 8.126 8.126 0 0 0-.785 1.73 8 8 0 0 0-.227.926 7.7 7.7 0 0 0 .598 4.648 7.703 7.703 0 0 0 1.648 2.313q.346.335.727.617a7.926 7.926 0 0 0 1.648.95 7.9 7.9 0 0 0 2.773.6q.48.012.954-.03a7.7 7.7 0 0 0 2.73-.782q.427-.211.824-.476a7.8 7.8 0 0 0 1.446-1.239q.317-.35.593-.742.276-.387.504-.808a8 8 0 0 0 .399-.864q.17-.444.289-.906a8 8 0 0 0 .175-.937.47.47 0 0 0-.097-.356.47.47 0 0 0-.324-.184.47.47 0 0 0-.356.098.47.47 0 0 0-.183.32q-.053.417-.153.82a7 7 0 0 1-.601 1.552q-.198.365-.442.707-.239.338-.52.648a6 6 0 0 1-.597.578c-.21.184-.434.352-.664.504a7 7 0 0 1-.723.418q-.374.182-.765.324a6 6 0 0 1-.801.227 6 6 0 0 1-.824.129q-.417.04-.832.027a7 7 0 0 1-.828-.074 7 7 0 0 1-.817-.176 7.2 7.2 0 0 1-1.531-.644 6.9 6.9 0 0 1-1.895-1.614 6.5 6.5 0 0 1-.48-.68 6 6 0 0 1-.399-.73 7 7 0 0 1-.304-.773 7 7 0 0 1-.207-.809 7 7 0 0 1-.106-.824 6.506 6.506 0 0 1 .098-1.66q.071-.41.195-.809.128-.4.297-.781.175-.376.39-.735.218-.356.477-.683.262-.323.559-.617.3-.295.629-.547.333-.253.691-.465a6.6 6.6 0 0 1 1.528-.656q.397-.117.812-.188.411-.064.828-.082.417-.017.832.02.416.034.824.12.41.09.805.223.394.135.77.317c.25.121.488.258.722.41q.352.227.668.496c.215.18.414.371.606.574a7 7 0 0 1 .972 1.348c.133.242.254.496.356.754q.153.389.262.789Zm0 0"/></svg>