<svg xmlns="http://www.w3.org/2000/svg" width="40" height="40" version="1.0" viewBox="0 0 30 30"><defs><clipPath id="a"><path d="M2.543 3.938h2.906V9H2.543Zm0 0"/></clipPath><clipPath id="b"><path d="M3 6h2.45v2H3Zm0 0"/></clipPath><clipPath id="c"><path d="M24.559 3.938h4.355V9H24.56Zm0 0"/></clipPath><clipPath id="d"><path d="M.484 26h29.032v3.031H.484Zm0 0"/></clipPath></defs><g clip-path="url(#a)"><path fill="#fff" d="M5.52 8.016H2.7V4.902h2.82Zm-1.22.488h-.382q-.072-.002-.074-.074c0-.047.027-.078.074-.078h.383c.043 0 .074.03.074.078 0 .039-.031.074-.074.074m-.702-4.149h1.03c.044 0 .075.032.075.075 0 .047-.031.078-.074.078H3.598c-.047 0-.075-.031-.075-.078 0-.04.028-.075.075-.075m1.351 0h.153c.046 0 .074.032.074.075 0 .047-.028.078-.074.078h-.153c-.047 0-.078-.031-.078-.078 0-.04.031-.075.078-.075m.344-.398H2.926a.383.383 0 0 0-.383.383v4.12c0 .212.168.38.383.38h2.367c.21 0 .379-.168.379-.38V4.34a.383.383 0 0 0-.379-.383"/></g><path fill="#fff" d="M3.828 5.621h.152v.152h-.152Zm.41 0h.153v.152h-.153Zm-.816.434h1.375c.039 0 .074-.028.074-.075a.76.76 0 0 0-.21-.527l.112-.168c.024-.039.016-.082-.023-.105-.04-.024-.082-.016-.105.023l-.11.152a.76.76 0 0 0-.433-.14.76.76 0 0 0-.434.14l-.11-.152c-.023-.039-.066-.047-.105-.023-.039.023-.047.066-.023.105l.113.168a.76.76 0 0 0-.211.527c.016.047.05.075.09.075"/><g clip-path="url(#b)"><path fill="#fff" d="M3.223 7.184a.2.2 0 0 0 .125-.043v.175c0 .082.066.153.152.153h.09v.203c0 .047.039.078.078.078.043 0 .074-.031.074-.078v-.203h.727v.203c0 .047.035.078.074.078.047 0 .078-.031.078-.078v-.203h.098c.086 0 .152-.07.152-.153v-.175a.22.22 0 0 0 .125.043c.106 0 .195-.09.195-.196v-.472a.2.2 0 0 0-.195-.2.2.2 0 0 0-.125.043v-.164c-.023.004-.05.012-.074.012H3.422c-.031 0-.055-.008-.074-.012v.164a.25.25 0 0 0-.125-.043.2.2 0 0 0-.196.2v.472c0 .106.09.196.196.196"/></g><g clip-path="url(#c)"><path fill="#fff" d="M27.738 5.785c.282 0 .512-.23.512-.515a.1.1 0 0 0-.102-.102.513.513 0 0 0-.511.512c0 .058.047.105.101.105m-.23 2.223a.9.9 0 0 1-.246.031c-.262 0-.461-.23-.555-.367q-.004.001-.008-.004a.1.1 0 0 0-.023-.02q-.006-.006-.012-.007a.1.1 0 0 0-.043-.012h-1.855V4.965h2.664v.18c0 .058.047.101.105.101a.1.1 0 0 0 .102-.101v-.696a.513.513 0 0 0-.512-.511h-2.05a.514.514 0 0 0-.516.511v3.899c0 .28.23.511.515.511h2.051c.281 0 .512-.23.512-.511v-.243a.11.11 0 0 0-.04-.082.1.1 0 0 0-.09-.015m-.586-3.66a.1.1 0 0 1 .101.101.1.1 0 0 1-.101.106.104.104 0 0 1-.102-.106.1.1 0 0 1 .102-.101m-1.027 0h.41a.103.103 0 0 1 0 .207h-.41a.105.105 0 0 1-.106-.106c0-.054.047-.101.106-.101m.203 4.101a.2.2 0 0 1-.203-.203c0-.113.09-.207.203-.207s.207.094.207.207a.205.205 0 0 1-.207.203m2.547-1.406a.1.1 0 0 0-.07-.043.29.29 0 0 1-.259-.281c0-.121.082-.23.207-.27a.1.1 0 0 0 .067-.062.12.12 0 0 0-.012-.09c-.121-.18-.312-.309-.465-.309a.9.9 0 0 0-.277.059c-.063.02-.125.039-.172.039-.05 0-.11-.02-.172-.04a.9.9 0 0 0-.277-.058c-.242 0-.606.313-.606.778 0 .441.34 1.07.653 1.07a.7.7 0 0 0 .312-.07c.086-.036.094-.036.18 0 .066.03.16.07.308.07.239 0 .489-.36.594-.707a.11.11 0 0 0-.011-.086m0 0"/></g><path fill="#061c3d" d="M14.516 7.05v-.593l-.887.297ZM14.516 3.664l-1.332 2.219 1.332-.445ZM15.484 9.523v1.438l1.235-1.852ZM14.516 10.96V9.524L13.28 9.11ZM15.484 6.457v.594l.891-.297ZM15.484 3.664v1.773l1.332.446ZM4.355 4.336A.47.47 0 0 0 4.7 4.19a.46.46 0 0 0 .14-.34v-.968a.46.46 0 0 0-.14-.34.47.47 0 0 0-.344-.145.47.47 0 0 0-.343.145.46.46 0 0 0-.14.34v.969q0 .199.14.34.145.145.343.144M3.871 6.754q0 .201.14.344.146.14.344.14a.48.48 0 0 0 .485-.484v-.969a.478.478 0 0 0-.484-.48.48.48 0 0 0-.485.48ZM7.258 3.367q.201 0 .344-.14a.47.47 0 0 0 .14-.344.46.46 0 0 0-.14-.34.46.46 0 0 0-.344-.145h-.969a.45.45 0 0 0-.34.145.46.46 0 0 0-.14.34q0 .201.14.344.14.14.34.14ZM23.71 3.367a.46.46 0 0 0 .34-.14.46.46 0 0 0 .145-.344.45.45 0 0 0-.144-.34.45.45 0 0 0-.34-.145h-.969a.47.47 0 0 0-.344.145.46.46 0 0 0-.14.34q0 .201.14.344.146.14.344.14ZM25.16 6.754q-.001.201.145.344.14.14.34.14c.132 0 .25-.047.343-.14a.47.47 0 0 0 .14-.344v-.969a.46.46 0 0 0-.14-.34.47.47 0 0 0-.343-.14.46.46 0 0 0-.34.14.45.45 0 0 0-.145.34ZM25.645 4.336a.46.46 0 0 0 .343-.145.46.46 0 0 0 .14-.34v-.968a.46.46 0 0 0-.14-.34.46.46 0 0 0-.343-.145.45.45 0 0 0-.34.145.45.45 0 0 0-.145.34v.969q-.001.199.145.34a.45.45 0 0 0 .34.144M19.156 15.95h-6.86l-.968.964h6.86ZM17.902 17.883h-7.257v6.773h7.257Zm-5.078 4.84q.002.18-.18.234-.176.048-.269-.11l-1.004-1.671v1.547a.24.24 0 0 1-.07.172.24.24 0 0 1-.172.07.24.24 0 0 1-.172-.07.24.24 0 0 1-.07-.172v-2.418q-.002-.187.18-.235.175-.05.269.11l1.004 1.668v-1.543a.23.23 0 0 1 .07-.172.24.24 0 0 1 .172-.07q.097 0 .172.07a.23.23 0 0 1 .07.172Zm1.953-1.696q.101 0 .172.07.07.075.07.173a.24.24 0 0 1-.07.171.24.24 0 0 1-.172.07h-1.086v1.212a.24.24 0 0 1-.07.172.24.24 0 0 1-.172.07.23.23 0 0 1-.168-.07.23.23 0 0 1-.074-.172v-2.418a.22.22 0 0 1 .074-.172.23.23 0 0 1 .168-.07h1.328q.101 0 .172.07a.23.23 0 0 1 .07.172.23.23 0 0 1-.07.168.24.24 0 0 1-.172.07h-1.086v.484Zm2.641-.484h-.723v2.18a.23.23 0 0 1-.074.172.23.23 0 0 1-.168.07.24.24 0 0 1-.172-.07.24.24 0 0 1-.07-.172v-2.18h-.727a.24.24 0 0 1-.171-.07.23.23 0 0 1-.07-.168.23.23 0 0 1 .07-.172.24.24 0 0 1 .171-.07h1.934a.23.23 0 0 1 .172.07.23.23 0 0 1 .07.172.23.23 0 0 1-.07.168.23.23 0 0 1-.172.07m0 0"/><path fill="#061c3d" d="M22.227 7.238c0-.472-.047-.945-.141-1.41a7 7 0 0 0-.41-1.355 7 7 0 0 0-.668-1.25 7 7 0 0 0-.899-1.094 7 7 0 0 0-1.093-.899 7 7 0 0 0-1.25-.667c-.438-.18-.891-.32-1.356-.41a7.1 7.1 0 0 0-2.82 0c-.465.09-.918.23-1.356.41a7 7 0 0 0-1.25.667 7.314 7.314 0 0 0-1.992 1.992 7.5 7.5 0 0 0-.668 1.25 7.4 7.4 0 0 0-.41 1.356 7.1 7.1 0 0 0 0 2.82q.14.698.41 1.356.276.656.668 1.25a7.3 7.3 0 0 0 1.992 1.992A7.25 7.25 0 0 0 15 14.465q.711 0 1.41-.14a7.2 7.2 0 0 0 2.602-1.083 7 7 0 0 0 1.093-.898c.336-.332.637-.7.899-1.094q.398-.591.668-1.246a7.2 7.2 0 0 0 .555-2.766m-10.543-.734 2.902-4.836c.176-.293.656-.293.828 0l2.906 4.836-.004.004q.07.111.07.246.001.35-.331.46l-2.903.966a.45.45 0 0 1-.304 0l-2.903-.965q-.333-.11-.332-.461c0-.09.028-.172.075-.246Zm2.914 6.324-2.903-4.355a.44.44 0 0 1 .016-.559.45.45 0 0 1 .539-.168l2.75.918 2.75-.918a.45.45 0 0 1 .54.168q.21.27.015.559l-2.903 4.355a.44.44 0 0 1-.175.16.45.45 0 0 1-.227.055.45.45 0 0 1-.227-.055.44.44 0 0 1-.175-.16M28.547 25.14v-15q0-.191-.07-.37a.977.977 0 0 0-.895-.598h-1.453v-.48a.47.47 0 0 0-.14-.344.47.47 0 0 0-.344-.141.46.46 0 0 0-.34.14.45.45 0 0 0-.145.344v.48h-2.14a8.2 8.2 0 0 1-1.34 2.907h3.965v7.742H24.59a1.43 1.43 0 0 0-.527-.703 1.43 1.43 0 0 0-.836-.265h-.97c-.304 0-.585.09-.835.265q-.375.27-.527.703H19.84v-3.187l-.969.969v6.37l.969-.968v-2.219h1.055q.152.435.527.703.377.265.836.266h.969c.304 0 .585-.09.835-.266q.375-.27.528-.703h1.055v4.356Zm-5.078-4.43a.45.45 0 0 1-.242.075h-.97a.45.45 0 0 1-.241-.074.43.43 0 0 0 .242-.406.43.43 0 0 0-.242-.41.45.45 0 0 1 .242-.075h.969c.085 0 .168.028.242.075a.44.44 0 0 0-.242.41q.001.276.242.406m0 0"/><g clip-path="url(#d)"><path fill="#061c3d" d="M29.031 26.11H.97a.47.47 0 0 0-.344.14.47.47 0 0 0-.14.344v1.449q-.001.195.074.371a.9.9 0 0 0 .21.316q.136.136.313.207.177.076.371.075h27.094a.9.9 0 0 0 .371-.075.95.95 0 0 0 .316-.207.95.95 0 0 0 .207-.316.9.9 0 0 0 .075-.371v-1.45a.47.47 0 0 0-.141-.343.47.47 0 0 0-.344-.14m0 0"/></g><path fill="#061c3d" d="M3.871 9.172H2.418a1.1 1.1 0 0 0-.367.074 1 1 0 0 0-.317.211.9.9 0 0 0-.207.313.9.9 0 0 0-.074.37v15h2.902v-4.355H5.41q.157.435.531.703.375.265.832.266h.97c.304 0 .585-.09.835-.266q.375-.27.527-.703h.57q.204 0 .345-.14a.46.46 0 0 0 .14-.34.47.47 0 0 0-.14-.344.47.47 0 0 0-.344-.14h-.57a1.43 1.43 0 0 0-.528-.704 1.43 1.43 0 0 0-.836-.265h-.969q-.456.001-.832.265-.374.27-.53.703H4.354v-7.742h3.97A8.1 8.1 0 0 1 6.98 9.172H4.84v-.48a.478.478 0 0 0-.484-.484.48.48 0 0 0-.485.483Zm2.66 10.723a.45.45 0 0 1 .242-.075h.97c.085 0 .167.028.241.075a.43.43 0 0 0-.242.41q.001.276.242.406a.45.45 0 0 1-.242.074h-.969a.45.45 0 0 1-.242-.074.43.43 0 0 0 .242-.406.43.43 0 0 0-.242-.41m0 0"/></svg>