<svg xmlns="http://www.w3.org/2000/svg" width="40" height="40" version="1.0" viewBox="0 0 30 30"><defs><clipPath id="a"><path d="M.484 7H11v15H.484Zm0 0"/></clipPath><clipPath id="b"><path d="M19 7h10.516v15H19Zm0 0"/></clipPath><clipPath id="c"><path d="M7 1.559h4V9H7Zm0 0"/></clipPath><clipPath id="d"><path d="M19 1.559h4V9h-4Zm0 0"/></clipPath><clipPath id="e"><path d="M13 1.559h4V7h-4Zm0 0"/></clipPath><clipPath id="f"><path d="M19 21h4v6.691h-4Zm0 0"/></clipPath><clipPath id="g"><path d="M7 21h4v6.691H7Zm0 0"/></clipPath><clipPath id="h"><path d="M13 22h4v5.691h-4Zm0 0"/></clipPath></defs><path fill="#061c3d" d="m7.488 12.438-.777 1.039h.586c.05-.356.121-.7.215-1.04ZM6.422 14.512l.86 2.285.183-.39a7.8 7.8 0 0 1-.235-1.895Zm0 0"/><path fill="#061c3d" d="M8.633 10.063a4.671 4.671 0 0 0-6.066 4.45 4.67 4.67 0 0 0 4.663 4.663q.722 0 1.403-.219a7 7 0 0 1-.555-.918l-.488.473a.52.52 0 0 1-.36.144h-.023a.53.53 0 0 1-.367-.176l-3.625-4.144a.52.52 0 0 1-.027-.652l.003-.004 1.551-2.07a.52.52 0 0 1 .414-.208H7.88c.207-.472.46-.922.754-1.34m0 0"/><path fill="#061c3d" d="m5.418 12.438-.777 1.039h.777l.773-1.04ZM4.746 14.512l1 1.144-.43-1.144Zm0 0"/><g clip-path="url(#a)"><path fill="#061c3d" d="M9.324 19.813a5.7 5.7 0 0 1-2.094.398 5.706 5.706 0 0 1-5.699-5.7c0-3.14 2.555-5.698 5.7-5.698.722 0 1.425.136 2.093.398.258-.274.531-.531.828-.766a6.7 6.7 0 0 0-2.922-.668 6.74 6.74 0 0 0-6.734 6.735 6.74 6.74 0 0 0 6.734 6.734c1.02 0 2.016-.23 2.922-.668a8 8 0 0 1-.828-.765m0 0"/></g><path fill="#061c3d" d="M15 7.777a6.74 6.74 0 0 0-6.734 6.735A6.74 6.74 0 0 0 15 21.246a6.74 6.74 0 0 0 6.734-6.734A6.74 6.74 0 0 0 15 7.777m0 12.434c-3.14 0-5.7-2.559-5.7-5.7s2.56-5.698 5.7-5.698 5.7 2.558 5.7 5.699-2.56 5.699-5.7 5.699m0 0"/><path fill="#061c3d" d="M22.262 17.273a7.6 7.6 0 0 1-.895 1.684q.68.218 1.403.219a4.67 4.67 0 0 0 4.664-4.664 4.67 4.67 0 0 0-6.067-4.45c.348.5.64 1.04.867 1.61v-.164a.518.518 0 1 1 1.036 0v.207h.32v-.207a.518.518 0 1 1 1.035 0v.363c.52.25.879.785.879 1.399 0 .394-.152.757-.399 1.035.247.273.399.636.399 1.035a1.56 1.56 0 0 1-.879 1.398v.364a.518.518 0 1 1-1.035 0v-.207h-.32v.207a.52.52 0 0 1-1.008.171m0 0"/><path fill="#061c3d" d="M24.465 13.27c0-.286-.23-.52-.516-.52H22.91v1.035h1.04c.284 0 .515-.23.515-.515m0 0"/><g clip-path="url(#b)"><path fill="#061c3d" d="M22.77 7.777c-1.02 0-2.016.23-2.922.668q.44.354.828.766a5.6 5.6 0 0 1 2.094-.399c3.144 0 5.699 2.56 5.699 5.7s-2.555 5.699-5.7 5.699c-.726 0-1.43-.137-2.093-.398a8 8 0 0 1-.828.765 6.7 6.7 0 0 0 2.922.668 6.74 6.74 0 0 0 6.734-6.734 6.74 6.74 0 0 0-6.734-6.735m0 0"/></g><path fill="#061c3d" d="M15 9.848a4.67 4.67 0 0 0-4.664 4.664A4.67 4.67 0 0 0 15 19.176a4.67 4.67 0 0 0 4.664-4.664A4.67 4.67 0 0 0 15 9.848m2.07 3.422c0 .289-.23.52-.515.52a.52.52 0 0 1-.52-.52v-.204c0-.347-.172-.668-.46-.863a1.04 1.04 0 0 0-1.15 0c-.288.195-.46.516-.46.863 0 .25.137.473.36.582l1.816.91c.574.286.93.864.93 1.508a2.06 2.06 0 0 1-.923 1.723 2 2 0 0 1-.628.281v.067a.52.52 0 1 1-1.04 0v-.067a2 2 0 0 1-.628-.28 2.06 2.06 0 0 1-.922-1.724v-.203c0-.289.23-.52.515-.52s.52.231.52.52v.203c0 .348.172.668.46.864.173.113.372.172.571.172h.012c.195 0 .394-.059.566-.172.29-.196.461-.516.461-.864a.64.64 0 0 0-.36-.582l-1.816-.91a1.67 1.67 0 0 1-.93-1.508c0-.695.344-1.34.923-1.722a2 2 0 0 1 .628-.281v-.176a.52.52 0 1 1 1.04 0v.175c.218.055.433.149.628.282a2.06 2.06 0 0 1 .922 1.722ZM22.91 15.86h1.04a.518.518 0 0 0 0-1.036h-1.04Zm0 0"/><g clip-path="url(#c)"><path fill="#061c3d" d="M9.23 2.973a1.038 1.038 0 0 0-.965-1.414c-.574 0-1.035.464-1.035 1.039A1.034 1.034 0 0 0 8.422 3.62L9.82 5.367v2.41a.518.518 0 1 0 1.035 0v-2.59a.5.5 0 0 0-.113-.324Zm0 0"/></g><g clip-path="url(#d)"><path fill="#061c3d" d="M19.664 8.297a.52.52 0 0 0 .516-.52v-2.41l1.398-1.746a1.034 1.034 0 0 0 1.191-1.023 1.035 1.035 0 1 0-2 .375l-1.511 1.89a.5.5 0 0 0-.113.324v2.59c0 .285.23.52.52.52m0 0"/></g><g clip-path="url(#e)"><path fill="#061c3d" d="M15 1.559a1.038 1.038 0 0 0-.52 1.933v2.926c0 .285.235.516.52.516s.52-.23.52-.516V3.492A1.038 1.038 0 0 0 15 1.558m0 0"/></g><g clip-path="url(#f)"><path fill="#061c3d" d="M21.734 25.39c-.05 0-.105.005-.156.012l-1.398-1.746v-2.023a.515.515 0 0 0-.516-.516c-.289 0-.52.23-.52.516v2.203c0 .117.04.23.114.324l1.512 1.89a1.034 1.034 0 1 0 .965-.66m0 0"/></g><g clip-path="url(#g)"><path fill="#061c3d" d="M10.336 21.117a.515.515 0 0 0-.516.516v2.023l-1.398 1.746a1.034 1.034 0 1 0 .809.648l1.511-1.89a.52.52 0 0 0 .113-.324v-2.203a.516.516 0 0 0-.52-.516m0 0"/></g><g clip-path="url(#h)"><path fill="#061c3d" d="M15.52 25.531v-2.797a.52.52 0 0 0-.52-.515c-.285 0-.52.23-.52.515v2.797a1.034 1.034 0 1 0 1.04 0m0 0"/></g></svg>