<svg xmlns="http://www.w3.org/2000/svg" width="40" height="40" version="1.0" viewBox="0 0 30 30"><defs><clipPath id="a"><path d="M.484 0H27v21H.484Zm0 0"/></clipPath><clipPath id="b"><path d="M2 6h27.516v23.031H2Zm0 0"/></clipPath></defs><path fill="#fff" d="M19.55 12.762h-.21c0-.555-.106-1.094-.32-1.598a4.11 4.11 0 0 0-6.688-1.305 4.1 4.1 0 0 0-.879 1.305 4.1 4.1 0 0 0-.32 1.598h-.211c-.684 0-1.242.554-1.242 1.242v5.48c0 .688.558 1.243 1.242 1.243h8.629a1.24 1.24 0 0 0 1.242-1.243v-5.48a1.24 1.24 0 0 0-1.242-1.242m-3.863 4.031v.887a.45.45 0 0 1-.449.449.45.45 0 0 1-.453-.45v-.886a1.154 1.154 0 0 1 .453-2.219 1.154 1.154 0 0 1 .45 2.219m-3.332-4.031a2.886 2.886 0 0 1 2.883-2.883 2.885 2.885 0 0 1 2.88 2.883Zm0 0"/><path fill="#fff" d="M24.176 7.23a17 17 0 0 1-8.942-2.507l-.222-.137-.223.14-.023.016a15.8 15.8 0 0 1-4.598 2c-1.45.375-2.945.54-4.445.488l-.38-.011-.05.375a24 24 0 0 0-.215 3.453c.02 1.687.234 3.305.637 4.805.48 1.785 1.226 3.418 2.226 4.859a15 15 0 0 0 1.954 2.281 16.5 16.5 0 0 0 2.636 2.035c.711.442 1.477.852 2.281 1.215l.055.024.156.07.157-.059a17 17 0 0 0 2.383-1.07 14 14 0 0 0 2.769-1.973 13 13 0 0 0 2.004-2.316c.996-1.473 1.715-3.184 2.137-5.082.558-2.516.597-5.371.117-8.254l-.059-.352Zm-.524 8.422q-.006.042-.02.082h-2.46v3.98c0 .735-.594 1.329-1.324 1.329h-4.641v4.328l-.152.059a18 18 0 0 1-2.078-1.114c-3.258-2.03-5.418-4.918-6.422-8.582h2.738v-1.879a1.49 1.49 0 0 1 1.266-1.402 7 7 0 0 1 .289-.015c.007-.376.062-.692.117-.926a4.332 4.332 0 0 1 1.168-2.086 4.4 4.4 0 0 1 1.394-.942 4.4 4.4 0 0 1 1.684-.343V5.684a17.853 17.853 0 0 0 8.61 2.383 23 23 0 0 1 .265 3.456c0 1.442-.145 2.832-.434 4.13m0 0"/><path fill="#fff" d="M12.914 12.48h2.297v-2.07c-1.27.008-2.297.934-2.297 2.07m0 0"/><g clip-path="url(#a)"><path fill="#fff" d="M2.84 20.113a13.3 13.3 0 0 1-1.23-5.597C1.61 7.133 7.616 1.129 15 1.129c1.676 0 3.14.36 3.598.488 1.37.387 2.543.961 3.511 1.574a2.086 2.086 0 1 0 .758-.875A14.408 14.408 0 0 0 15 0a14.43 14.43 0 0 0-8.117 2.48A14.6 14.6 0 0 0 2.96 6.398a14.6 14.6 0 0 0-1.336 2.465 14.4 14.4 0 0 0-1.14 5.653c0 1.96.382 3.859 1.14 5.652q.099.229.203.457a.59.59 0 0 0 .66.172.6.6 0 0 0 .352-.684m0 0"/></g><g clip-path="url(#b)"><path fill="#fff" d="M28.375 8.863a14.6 14.6 0 0 0-.969-1.886.59.59 0 0 0-.804-.118.59.59 0 0 0-.153.727 13.3 13.3 0 0 1 1.457 3.363s.48 1.762.48 3.567c0 7.382-6.003 13.386-13.386 13.386-1.66 0-3.004-.32-3.602-.488-2.113-.605-3.777-1.664-5.023-2.73a2.086 2.086 0 1 0-.738.926c.398.335.816.652 1.246.94A14.427 14.427 0 0 0 15 29.03c1.957.001 3.86-.382 5.648-1.14a14.2 14.2 0 0 0 2.47-1.34 15 15 0 0 0 2.148-1.769 14.618 14.618 0 0 0 3.11-4.613 14.4 14.4 0 0 0 1.14-5.652c0-1.961-.383-3.86-1.141-5.653m0 0"/></g></svg>