<svg xmlns="http://www.w3.org/2000/svg" width="40" height="40" version="1.0" viewBox="0 0 30 30"><defs><clipPath id="a"><path d="M1.066 4.273h28.305V25.32H1.066Zm0 0"/></clipPath></defs><g clip-path="url(#a)"><path fill="#fff" fill-rule="evenodd" d="M16.125 7.3v3.794q-.498.212-.984.465a14 14 0 0 0-.985-.465V7.3h-.886c-.23 0-.364-.266-.223-.446l1.875-2.433a.275.275 0 0 1 .437 0l1.875 2.433c.141.18.012.446-.218.446ZM5.652 12.935c8.52-2.16 14.578 5.39 15.442 12.457l1.828.023C21.508 15.898 14.746 9.141 5.164 11.32l-.258-.855a.231.231 0 0 0-.41-.067L2.852 12.7c-.09.125-.036.301.105.356l2.645 1.008c.183.074.359-.102.304-.282Zm18.977 0-.254.847c-.055.18.121.356.305.281l2.644-1.007a.233.233 0 0 0 .106-.356l-1.645-2.3a.232.232 0 0 0-.41.066l-.258.855c-3.402-.773-6.449-.422-9.027.785.574.364 1.11.758 1.648 1.215 2.032-.812 4.352-1.03 6.89-.386m-10.223 2.441c-2.898 2.5-4.765 6.324-5.219 10.016l-1.824.023c.668-4.516 2.547-8.41 5.356-11.023q.873.404 1.687.984M1.078 21.34a3.13 3.13 0 0 1 3.11-2.883 3.13 3.13 0 0 1 3.109 2.883.22.22 0 0 1-.219.234H1.297a.22.22 0 0 1-.219-.234m3.11-6.414a1.684 1.684 0 1 1 0 3.367 1.684 1.684 0 0 1 0-3.367m18.796 6.414a3.13 3.13 0 0 1 3.11-2.883 3.13 3.13 0 0 1 3.11 2.883.22.22 0 0 1-.22.234h-5.78a.22.22 0 0 1-.22-.234m3.11-6.414a1.684 1.684 0 1 0 0 3.367 1.684 1.684 0 0 0 0-3.367M12.03 25.18a3.13 3.13 0 0 1 3.11-2.883 3.13 3.13 0 0 1 3.109 2.883.22.22 0 0 1-.219.234H12.25a.22.22 0 0 1-.219-.234m3.11-6.414a1.684 1.684 0 1 1 0 3.367 1.684 1.684 0 0 1 0-3.367m0 0"/></g></svg>