<svg xmlns="http://www.w3.org/2000/svg" width="40" height="40" version="1.0" viewBox="0 0 30 30"><defs><clipPath id="a"><path d="M12 0h17.516v17H12Zm0 0"/></clipPath><clipPath id="b"><path d="M.484 16H2v2H.484Zm0 0"/></clipPath><clipPath id="c"><path d="M.484 13H2v2H.484Zm0 0"/></clipPath><clipPath id="d"><path d="M.484 18H2v3H.484Zm0 0"/></clipPath><clipPath id="e"><path d="M12 27h2v2.031h-2Zm0 0"/></clipPath></defs><g clip-path="url(#a)"><path fill="#fff" d="M29.371 5.41a.36.36 0 0 0-.25-.105l-4.875.011c-.008-.003-.008-.011-.016-.02-.003-.007-.011-.007-.02-.015l.013-4.875a.4.4 0 0 0-.114-.261.356.356 0 0 0-.5 0l-5.273 5.277a.35.35 0 0 0-.09.308l-.012 4.82-5.297 5.298a.526.526 0 0 0 .372.898c.136 0 .27-.05.375-.152l5.296-5.297 4.79-.012a.352.352 0 0 0 .34-.094l5.273-5.273c.137-.137.125-.371-.012-.508"/></g><path fill="#fff" d="M21.156 11.902a.876.876 0 0 0-.453 1.157 8.2 8.2 0 0 1 .672 3.257c0 4.512-3.668 8.184-8.18 8.184s-8.18-3.672-8.18-8.184c0-4.507 3.669-8.18 8.18-8.18 1.153 0 2.266.235 3.309.7a.88.88 0 0 0 1.16-.45.883.883 0 0 0-.445-1.16 9.9 9.9 0 0 0-4.024-.847c-5.48 0-9.937 4.46-9.937 9.937 0 5.48 4.457 9.942 9.937 9.942s9.938-4.461 9.938-9.942a9.8 9.8 0 0 0-.82-3.957.88.88 0 0 0-1.157-.457"/><path fill="#fff" d="M16.703 11.32a.88.88 0 0 0-.387-1.18 6.86 6.86 0 0 0-3.12-.742c-3.813 0-6.919 3.106-6.919 6.918 0 3.817 3.106 6.922 6.918 6.922 3.817 0 6.918-3.105 6.918-6.922 0-1.07-.238-2.097-.71-3.054a.878.878 0 0 0-1.575.777 5.166 5.166 0 0 1-4.633 7.441 5.17 5.17 0 0 1-5.16-5.164 5.17 5.17 0 0 1 5.16-5.16c.82 0 1.602.188 2.328.555a.88.88 0 0 0 1.18-.39"/><path fill="#fff" d="M13.195 14.512a.878.878 0 1 0 0-1.758 3.566 3.566 0 0 0-3.562 3.562 3.57 3.57 0 0 0 3.562 3.567 3.57 3.57 0 0 0 3.563-3.567.88.88 0 0 0-.88-.878.88.88 0 0 0-.878.878c0 .997-.809 1.809-1.805 1.809a1.81 1.81 0 0 1-1.804-1.809c0-.992.808-1.804 1.804-1.804"/><g clip-path="url(#b)"><path fill="#fff" d="M1.066 17.57a.53.53 0 0 0 .496-.558l-.011-.192a.524.524 0 0 0-.547-.504.527.527 0 0 0-.504.547l.008.211a.53.53 0 0 0 .527.496z"/></g><path fill="#fff" d="M1.633 12.434a.531.531 0 0 0 .684-.3l.07-.185a.525.525 0 0 0-.293-.683.53.53 0 0 0-.688.297l-.074.19a.527.527 0 0 0 .3.68"/><g clip-path="url(#c)"><path fill="#fff" d="M1.074 14.973q.042.005.082.004c.258 0 .48-.184.524-.446l.027-.187a.52.52 0 0 0-.43-.61.524.524 0 0 0-.609.43l-.031.203a.53.53 0 0 0 .437.606"/></g><path fill="#fff" d="M3.453 9.922a2 2 0 0 1 .106-.156.53.53 0 0 0-.137-.735.53.53 0 0 0-.735.137l-.117.176a.526.526 0 0 0 .442.816c.172 0 .34-.082.441-.238M2.8 21.598a.526.526 0 1 0-.938.48l.099.184a.528.528 0 0 0 .93-.496zM14.098 4.7q.094.004.187.015.026.002.05.004c.27 0 .5-.203.528-.477a.53.53 0 0 0-.476-.578c-.067-.004-.137-.012-.211-.016a.52.52 0 0 0-.563.485.526.526 0 0 0 .485.566"/><g clip-path="url(#d)"><path fill="#fff" d="m1.969 19.46-.051-.187a.52.52 0 0 0-.645-.37.52.52 0 0 0-.37.644l.05.2a.53.53 0 0 0 .652.362.525.525 0 0 0 .364-.648"/></g><path fill="#fff" d="M9.023 5.398a.6.6 0 0 0 .18-.03l.18-.067a.53.53 0 0 0 .328-.672.53.53 0 0 0-.672-.324l-.195.07a.529.529 0 0 0 .18 1.023M4.66 8.156c.133 0 .266-.05.367-.152l.141-.133a.526.526 0 0 0 .016-.746.526.526 0 0 0-.747-.016l-.144.141a.526.526 0 0 0 .367.906M4.16 23.68a.527.527 0 0 0-.82.66q.067.083.133.164a.526.526 0 0 0 .746.062.526.526 0 0 0 .062-.742q-.064-.072-.12-.144M11.543 4.773q.035 0 .07-.003l.188-.024A.527.527 0 1 0 11.68 3.7q-.103.011-.207.028a.526.526 0 0 0 .07 1.047M6.695 6.543a.52.52 0 0 0 .282-.082l.164-.102a.526.526 0 0 0 .172-.722.524.524 0 0 0-.723-.176l-.18.11a.525.525 0 0 0-.16.726c.098.16.27.246.445.246M16.54 5.148l.183.059a.526.526 0 0 0 .66-.344.53.53 0 0 0-.344-.664l-.195-.058a.526.526 0 1 0-.305 1.008M24.969 19.5a.527.527 0 0 0-.66.344l-.063.183a.527.527 0 0 0 1 .332l.067-.199a.524.524 0 0 0-.344-.66M24.027 21.922a.525.525 0 0 0-.718.195q-.047.084-.098.16a.53.53 0 0 0 .18.727c.086.05.18.074.273.074.176 0 .352-.09.45-.254.038-.062.073-.12.109-.183a.526.526 0 0 0-.196-.72M25.207 12.16a.525.525 0 0 0-.668-.324.525.525 0 0 0-.328.668l.062.184a.53.53 0 0 0 .5.363.526.526 0 0 0 .5-.695zM19.996 25.781l-.156.114a.53.53 0 0 0-.133.734c.105.144.27.223.434.223.105 0 .21-.028.3-.094l.172-.117c.235-.172.29-.5.121-.739a.534.534 0 0 0-.738-.12M22.59 24.09a.525.525 0 0 0-.742.035l-.13.14a.53.53 0 0 0 .384.891.54.54 0 0 0 .386-.168q.07-.074.14-.156a.52.52 0 0 0-.038-.742M24.766 14.926l.023.191c.027.27.258.473.523.473q.028.001.055-.004c.29-.031.5-.29.469-.578l-.02-.207a.527.527 0 0 0-.586-.461.533.533 0 0 0-.464.586M25.371 16.934a.523.523 0 0 0-.57.476l-.02.192c-.035.289.176.55.465.582h.059c.265 0 .492-.2.523-.47l.02-.206a.526.526 0 0 0-.477-.574M17.84 27.012l-.176.074a.525.525 0 1 0 .402.973l.192-.082a.523.523 0 0 0 .273-.692.52.52 0 0 0-.691-.273M8.188 26.844l-.172-.082a.527.527 0 1 0-.465.945l.183.09a.53.53 0 0 0 .704-.25.526.526 0 0 0-.25-.703M6.074 25.543q-.076-.06-.148-.117a.527.527 0 1 0-.664.82c.054.043.11.09.168.133.093.074.207.11.32.11.16 0 .316-.071.418-.208a.524.524 0 0 0-.094-.738M10.531 27.668l-.183-.047a.527.527 0 0 0-.641.383.526.526 0 0 0 .379.64c.07.016.137.036.207.047q.058.017.117.016a.53.53 0 0 0 .516-.406.523.523 0 0 0-.395-.633M15.469 27.75l-.184.035a.528.528 0 0 0 .09 1.047q.047-.001.094-.008c.07-.012.136-.027.207-.039a.528.528 0 0 0-.207-1.035"/><g clip-path="url(#e)"><path fill="#fff" d="M12.996 27.969q-.098.001-.191-.004a.53.53 0 0 0-.543.508.525.525 0 0 0 .508.547c.066.003.14.003.21.003h.008c.285 0 .524-.23.528-.515a.534.534 0 0 0-.52-.54"/></g></svg>