<svg xmlns="http://www.w3.org/2000/svg" width="40" height="40" version="1.0" viewBox="0 0 30 30"><defs><clipPath id="a"><path d="M.484 0H8v7H.484Zm0 0"/></clipPath><clipPath id="b"><path d="M22 0h7.516v7H22Zm0 0"/></clipPath><clipPath id="c"><path d="M.484 22H8v7.031H.484Zm0 0"/></clipPath><clipPath id="d"><path d="M22 22h7.516v7.031H22Zm0 0"/></clipPath></defs><g clip-path="url(#a)"><path fill="#fff" fill-rule="evenodd" d="m1.79 2.078.19 1.89a.556.556 0 0 1-.496.61c-.039.004-.015.004-.058.004a.555.555 0 0 1-.551-.5L.523.637a.54.54 0 0 1 .16-.45.53.53 0 0 1 .243-.14.6.6 0 0 1 .207-.02L4.578.38a.556.556 0 0 1-.113 1.105l-1.89-.191 4.57 4.57a.559.559 0 0 1-.395.95.56.56 0 0 1-.395-.165Zm0 0"/></g><g clip-path="url(#b)"><path fill="#fff" fill-rule="evenodd" d="m27.453 1.324-1.89.196A.556.556 0 0 1 25.45.41L28.894.06a.56.56 0 0 1 .449.16.56.56 0 0 1 .16.449l-.352 3.445a.56.56 0 0 1-.554.5c-.043 0-.02 0-.059-.004A.556.556 0 0 1 28.047 4l.191-1.89-4.57 4.57a.556.556 0 1 1-.785-.785Zm0 0"/></g><g clip-path="url(#c)"><path fill="#fff" fill-rule="evenodd" d="M1.043 29.012a.57.57 0 0 1-.39-.16v-.004H.647a.56.56 0 0 1-.156-.45l.352-3.445a.556.556 0 0 1 1.105.113l-.195 1.891 4.57-4.57a.56.56 0 0 1 .785 0 .55.55 0 0 1 0 .785l-4.57 4.57 1.89-.191a.556.556 0 0 1 .113 1.105l-3.42.348q-.019.005-.036.004c-.012.004-.008.004-.043.004m0 0"/></g><path fill="#fff" fill-rule="evenodd" d="M14.996 9.852a4.686 4.686 0 0 0-4.68 4.683 4.683 4.683 0 0 0 4.68 4.68 4.686 4.686 0 0 0 4.684-4.68 4.69 4.69 0 0 0-4.684-4.683m0 0"/><path fill="#fff" fill-rule="evenodd" d="m13.328 5.441-.336 2.036a.33.33 0 0 1-.219.253 7.4 7.4 0 0 0-1.011.418.33.33 0 0 1-.336-.023l-1.676-1.2c-.129-.093-.328-.16-.45-.034L7.356 8.836c-.125.125-.058.32.032.45L8.59 10.96c.07.098.078.226.023.336a7 7 0 0 0-.418 1.012.33.33 0 0 1-.254.218l-2.035.336c-.156.028-.343.121-.343.293v2.754c0 .172.187.266.343.293l2.035.336a.33.33 0 0 1 .254.219c.114.347.254.687.418 1.012a.33.33 0 0 1-.023.335l-1.203 1.676c-.09.13-.157.328-.032.45l1.946 1.945c.125.125.32.058.449-.035l1.676-1.2a.332.332 0 0 1 .336-.023c.324.164.664.305 1.011.418.114.039.2.137.22.254l.335 2.035c.027.156.117.344.293.344h2.75c.176 0 .27-.184.297-.344l.336-2.035a.33.33 0 0 1 .219-.254 7.4 7.4 0 0 0 1.011-.418.33.33 0 0 1 .336.023l1.676 1.204c.129.09.324.156.45.03l1.945-1.945c.125-.12.058-.316-.036-.449l-1.199-1.676a.33.33 0 0 1-.027-.335c.168-.325.308-.665.422-1.012a.33.33 0 0 1 .254-.219l2.035-.336c.035-.004.344-.062.344-.293v-2.75c0-.176-.188-.27-.344-.297l-2.035-.336a.33.33 0 0 1-.254-.218 7 7 0 0 0-.418-1.012.33.33 0 0 1 .023-.336l1.2-1.676c.093-.129.16-.324.035-.45l-1.946-1.944c-.125-.125-.32-.059-.449.035L18.57 8.125a.32.32 0 0 1-.336.023 7 7 0 0 0-1.011-.418.33.33 0 0 1-.22-.253l-.335-2.036c-.027-.156-.117-.343-.293-.343h-2.754c-.176 0-.266.183-.293.343m-3.66 9.094a5.33 5.33 0 0 1 5.328-5.328 5.335 5.335 0 0 1 5.328 5.328 5.335 5.335 0 0 1-5.328 5.328 5.335 5.335 0 0 1-5.328-5.328m0 0"/><g clip-path="url(#d)"><path fill="#fff" fill-rule="evenodd" d="M28.95 29.012c.148 0 .288-.059.394-.16v-.004a.56.56 0 0 0 .16-.45l-.352-3.445a.556.556 0 0 0-1.105.113l.191 1.891-4.566-4.57a.564.564 0 0 0-.79 0 .56.56 0 0 0 0 .785l4.571 4.57-1.89-.191a.556.556 0 0 0-.114 1.105l3.422.348a.1.1 0 0 0 .04.004c.01.004.003.004.038.004m0 0"/></g></svg>