<svg xmlns="http://www.w3.org/2000/svg" width="40" height="40" version="1.0" viewBox="0 0 30 30"><defs><clipPath id="a"><path d="M.703 0h28.305v29H.703Zm0 0"/></clipPath></defs><g clip-path="url(#a)"><path fill="#061c3d" fill-rule="evenodd" d="M1.707 16.504a3.4 3.4 0 0 0-1.004 2.414v1.27c0 .035.027.062.063.062h5.91q.036 0 .054-.027.02-.03.004-.059a9 9 0 0 1-.714-4.055q.001-.036-.028-.054a3.405 3.405 0 0 0-4.285.449m13.29-7.856a7.96 7.96 0 0 1 7.96 7.961 7.93 7.93 0 0 1-1.832 5.082.066.066 0 0 0 .004.086l1.351 1.348c.024.027.063.027.09 0l.477-.473a.22.22 0 0 1 .316 0l3.961 3.957a.24.24 0 0 1 .067.16.23.23 0 0 1-.067.16l-2.008 2.009a.23.23 0 0 1-.32 0l-3.96-3.961a.226.226 0 0 1 0-.317l.48-.476c.023-.028.023-.067 0-.09l-1.352-1.352c-.023-.023-.059-.023-.086-.004a7.956 7.956 0 0 1-10.71-.5 7.96 7.96 0 0 1 0-11.258 7.93 7.93 0 0 1 5.628-2.332m4.913 3.047a6.95 6.95 0 0 0-9.828 0c-3.004 3.004-2.625 7.953.75 10.48q.03.023.066.005c.024-.008.036-.032.036-.055v-3a4.01 4.01 0 0 1 3.664-4.008l.16-.015q.03-.006.055.02a.07.07 0 0 1 .015.054l-1.121 5.703a.06.06 0 0 0 .012.05l1.21 1.536a.06.06 0 0 0 .051.023q.03 0 .051-.023l1.242-1.574q.018-.025.012-.055l-1.11-5.66q-.006-.031.016-.055a.05.05 0 0 1 .051-.02l.16.016a4.01 4.01 0 0 1 3.657 4.008v3c0 .023.015.047.035.055q.036.018.066-.004c3.38-2.528 3.754-7.477.75-10.48m-6.851 1.293a1.937 1.937 0 1 0 3.875 0 1.94 1.94 0 0 0-1.938-1.941 1.94 1.94 0 0 0-1.937 1.941m15.226 3.516a3.404 3.404 0 0 0-4.285-.45.07.07 0 0 0-.027.055 9 9 0 0 1-.715 4.055.06.06 0 0 0 .004.059q.018.029.054.027h5.91c.036 0 .067-.027.067-.062v-1.27c0-.941-.387-1.797-1.008-2.414m-2.414-5.461c-1.558 0-2.34 1.89-1.242 2.992 1.101 1.098 2.992.32 2.992-1.238 0-.969-.785-1.754-1.75-1.754m-5.324-5.934a3.84 3.84 0 0 0-3.625 2.645.07.07 0 0 0 .004.05c.012.016.023.028.043.032a9 9 0 0 1 6.086 4.785c.011.024.043.04.07.031.027-.004.047-.027.05-.054.06-.832.5-1.575 1.169-2.032q.029-.017.027-.054V8.926a3.83 3.83 0 0 0-3.816-3.817zm-1.969-2.925a1.976 1.976 0 1 0 3.953 0A1.974 1.974 0 0 0 20.555.207a1.974 1.974 0 0 0-1.977 1.977M8.04 3.582a1.976 1.976 0 0 0 2.797 0 1.976 1.976 0 0 0 0-2.797 1.976 1.976 0 0 0-2.797 0 1.983 1.983 0 0 0 0 2.797m-2.004 7.305c.445.445.735 1.047.781 1.71.004.028.024.051.051.055a.06.06 0 0 0 .07-.03 9 9 0 0 1 6.086-4.786q.028-.007.043-.031c.008-.016.012-.032.004-.051a3.83 3.83 0 0 0-3.64-2.645C7.352 5.105 5.62 6.83 5.62 8.926v1.586c0 .023.012.043.027.054.141.094.266.2.387.32m-3.148 3.148a1.75 1.75 0 0 1 0-2.48c1.097-1.098 2.988-.317 2.988 1.242s-1.89 2.336-2.988 1.238m0 0"/></g></svg>