<svg xmlns="http://www.w3.org/2000/svg" width="40" height="40" version="1.0" viewBox="0 0 30 30"><defs><clipPath id="a"><path d="M.73 0h28.305v29.031H.73Zm0 0"/></clipPath></defs><path fill="#061c3d" d="M14.996 17.227c.27 0 .492-.223.492-.493v-1.476h.492a1.48 1.48 0 0 0 1.477-1.477 1.48 1.48 0 0 0-1.477-1.476h-.984a.495.495 0 0 0-.492.492v3.937c0 .27.223.493.492.493m.492-3.938h.492c.27 0 .493.223.493.492 0 .27-.223.492-.493.492h-.492ZM18.93 17.227a.493.493 0 0 0 .492-.493v-3.937a.493.493 0 0 0-.985 0v3.937c0 .27.223.493.493.493M11.059 17.227a.493.493 0 0 0 .492-.493v-1.476h.984v1.476c0 .27.223.493.492.493.27 0 .493-.223.493-.493v-2.953a1.48 1.48 0 0 0-1.477-1.476 1.48 1.48 0 0 0-1.477 1.476v2.953c0 .27.223.493.493.493m.492-3.446c0-.27.222-.492.492-.492s.492.223.492.492v.492h-.984Zm0 0"/><path fill="#061c3d" d="M14.996 22.145a7.385 7.385 0 0 0 7.379-7.38 7.385 7.385 0 0 0-7.379-7.378 7.385 7.385 0 0 0-7.379 7.379 7.385 7.385 0 0 0 7.38 7.379m0-13.774a6.405 6.405 0 0 1 6.395 6.395 6.405 6.405 0 0 1-6.395 6.394 6.405 6.405 0 0 1-6.394-6.394 6.405 6.405 0 0 1 6.394-6.395m0 0"/><g clip-path="url(#a)"><path fill="#061c3d" d="M2.203 25.59a1.476 1.476 0 0 0 .492-2.867v-1.32l3.703-2.965c.223.507.485 1.007.793 1.468l-.902.903a.493.493 0 0 0 0 .695l1.965 1.969a.493.493 0 0 0 .695 0l.906-.903a9.5 9.5 0 0 0 3.172 1.332v1.688c0 .27.223.492.493.492h2.953c.27 0 .492-.223.492-.492v-1.688q.617-.13 1.21-.347l.762 4.574c.036.238.247.41.485.41h1.562a1.476 1.476 0 0 0 2.868-.492 1.48 1.48 0 0 0-1.477-1.473c-.64 0-1.187.41-1.39.98H19.84l-.73-4.394a9 9 0 0 0 1.03-.59l.907.903a.493.493 0 0 0 .695 0l1.969-1.97a.5.5 0 0 0 0-.694l-.906-.903a4 4 0 0 0 .14-.222h3.45a1.48 1.48 0 0 0 1.39.984 1.48 1.48 0 0 0 1.477-1.477 1.48 1.48 0 0 0-1.477-1.472 1.48 1.48 0 0 0-1.39.984h-2.918a9.5 9.5 0 0 0 .664-1.969h1.68c.269 0 .488-.222.488-.492V13.29a.49.49 0 0 0-.489-.492h-1.687A9.3 9.3 0 0 0 22.8 9.625l.902-.902a.493.493 0 0 0 0-.696L21.734 6.06a.493.493 0 0 0-.695 0l-.902.902a12 12 0 0 0-1.028-.59l2.563-4.394h1.773c.203.57.75.98 1.39.98.81 0 1.474-.664 1.474-1.473A1.48 1.48 0 0 0 24.836.008c-.64 0-1.188.41-1.39.984H21.39c-.172 0-.34.09-.426.246l-2.766 4.746a9 9 0 0 0-1.23-.355V3.94a.495.495 0 0 0-.492-.492h-2.95a.493.493 0 0 0-.492.492V5.63A9.3 9.3 0 0 0 9.86 6.96l-.902-.902a.493.493 0 0 0-.695 0l-.707.695-2.399-1.602v-2.28c.57-.204.985-.75.985-1.388A1.48 1.48 0 0 0 4.664.008a1.48 1.48 0 0 0-1.476 1.476c0 .637.414 1.184.984 1.387v2.547c0 .168.082.32.223.414l2.453 1.633-.559.562a.493.493 0 0 0 0 .696l.902.902a9.4 9.4 0 0 0-1.332 3.172H4.172a.495.495 0 0 0-.492.492v2.953c0 .27.222.492.492.492h1.687c.055.246.114.485.188.727l-4.145 3.32a.48.48 0 0 0-.183.38v1.562a1.474 1.474 0 0 0 .484 2.867m20.172 1.965a.493.493 0 1 1 0 .983.493.493 0 0 1 0-.983m5.41-8.852a.49.49 0 1 1 0 .98.493.493 0 0 1-.492-.492c0-.27.223-.488.492-.488M24.835.993a.493.493 0 1 1 0 .984.493.493 0 0 1 0-.985m-20.17.984a.493.493 0 1 1 0-.983.493.493 0 0 1 0 .983m0 13.773v-1.969h1.597a.495.495 0 0 0 .488-.41 8.4 8.4 0 0 1 1.477-3.52.5.5 0 0 0-.051-.64l-.848-.84 1.274-1.273.847.847a.5.5 0 0 0 .64.051 8.3 8.3 0 0 1 3.516-1.476.494.494 0 0 0 .415-.485V4.434h1.964v1.601c0 .238.172.442.414.485a8.4 8.4 0 0 1 3.516 1.476c.2.14.469.121.64-.05l.848-.848 1.274 1.273-.848.848a.5.5 0 0 0-.05.64 8.3 8.3 0 0 1 1.476 3.516.49.49 0 0 0 .484.414h1.602v1.965h-1.602a.5.5 0 0 0-.484.414 8.4 8.4 0 0 1-1.477 3.516c-.14.199-.12.468.051.64l.848.848-1.285 1.262-.848-.848a.5.5 0 0 0-.64-.05 8.3 8.3 0 0 1-3.516 1.476.49.49 0 0 0-.414.484v1.602h-1.97v-1.602a.494.494 0 0 0-.41-.484 8.3 8.3 0 0 1-3.519-1.477.49.49 0 0 0-.636.05l-.836.849-1.274-1.274.848-.848a.5.5 0 0 0 .05-.64 8.3 8.3 0 0 1-1.476-3.516.49.49 0 0 0-.488-.414H4.664Zm-2.462 7.871a.493.493 0 1 1 0 .985.493.493 0 0 1 0-.985m0 0"/></g></svg>