<svg xmlns="http://www.w3.org/2000/svg" width="40" height="40" version="1.0" viewBox="0 0 30 30"><defs><clipPath id="a"><path d="M1.7 0h26.855v29.031H1.699Zm0 0"/></clipPath></defs><g clip-path="url(#a)"><path fill="#061c3d" fill-rule="evenodd" d="M21.262 12.914a7.5 7.5 0 0 1 2.195.91l1.234-.547a.305.305 0 0 1 .344.063l1.383 1.383a.31.31 0 0 1 .062.343l-.546 1.23c.418.68.722 1.423.91 2.2l1.258.484a.3.3 0 0 1 .195.286v1.957a.3.3 0 0 1-.195.285l-1.258.484a7.6 7.6 0 0 1-.91 2.195l.546 1.235c.051.117.028.25-.062.34l-1.383 1.383a.31.31 0 0 1-.344.066l-1.234-.55a7.4 7.4 0 0 1-2.195.91l-.485 1.261a.3.3 0 0 1-.285.195h-1.957a.3.3 0 0 1-.285-.195l-.484-1.262a7.4 7.4 0 0 1-2.196-.91l-1.234.55a.31.31 0 0 1-.344-.065l-1.383-1.383a.305.305 0 0 1-.062-.34l.547-1.235a7.5 7.5 0 0 1-.91-2.195l-1.258-.484a.3.3 0 0 1-.196-.285v-1.957c0-.13.075-.243.196-.286l1.258-.484c.187-.777.492-1.52.91-2.2l-.547-1.23a.31.31 0 0 1 .062-.343l1.383-1.383a.305.305 0 0 1 .344-.063l1.234.547a7.4 7.4 0 0 1 2.196-.91l.484-1.258a.3.3 0 0 1 .285-.199h1.957c.13 0 .238.078.285.2ZM10.363 4.848c2.48 0 4.715-.317 6.32-.828 1.446-.461 2.337-1.028 2.337-1.594s-.891-1.133-2.336-1.594c-1.606-.512-3.84-.828-6.32-.828-2.485 0-4.72.316-6.325.828-1.445.461-2.336 1.027-2.336 1.594 0 .566.89 1.133 2.336 1.594 1.606.511 3.84.828 6.324.828m0 12.82c-2.574 0-4.918-.332-6.62-.875-.837-.27-1.532-.594-2.04-.965v4.356c0 .566.89 1.132 2.336 1.593 1.606.512 3.84.828 6.324.828q.328 0 .657-.007l-.446-.172a1.28 1.28 0 0 1-.828-1.203v-1.957c0-.536.324-1.012.828-1.207l.793-.305q.013-.051.031-.102-.511.017-1.035.016m-6.3.539c.652 0 1.183.531 1.183 1.184s-.531 1.183-1.184 1.183a1.185 1.185 0 0 1-1.183-1.183c0-.653.531-1.184 1.184-1.184m12.917-7.336c-1.703.543-4.046.879-6.617.879-2.574 0-4.918-.336-6.62-.879-.837-.266-1.532-.59-2.04-.96v4.355c0 .566.89 1.132 2.336 1.593 1.606.512 3.84.829 6.324.829q.728-.002 1.426-.04.099-.205.203-.406l-.344-.777a1.29 1.29 0 0 1 .266-1.438l1.383-1.382c.379-.38.95-.485 1.437-.266l.778.344a8.6 8.6 0 0 1 1.511-.625l.309-.797c.191-.5.668-.824 1.203-.824h.485V9.91c-.508.371-1.204.695-2.04.961M4.063 12.227c.652 0 1.183.53 1.183 1.183 0 .652-.531 1.184-1.184 1.184A1.185 1.185 0 0 1 2.88 13.41c0-.652.531-1.183 1.184-1.183M19.02 8.344c0 .566-.891 1.136-2.336 1.594-1.606.511-3.84.828-6.32.828-2.485 0-4.72-.317-6.325-.828C2.594 9.48 1.703 8.91 1.703 8.344V3.988c.508.371 1.203.7 2.04.965 1.702.543 4.046.879 6.62.879 2.57 0 4.914-.336 6.617-.879.836-.266 1.532-.594 2.04-.965ZM4.063 6.246c-.653 0-1.184.531-1.184 1.184s.531 1.183 1.184 1.183 1.183-.531 1.183-1.183c0-.653-.531-1.184-1.184-1.184M18.14 21.434l-1.414-1.192 1.414-1.191a.489.489 0 1 0-.63-.75l-1.855 1.562q-.032.03-.062.067a.485.485 0 0 0 .058.687l1.86 1.567a.49.49 0 1 0 .629-.75m3.375.75 1.859-1.567a.488.488 0 0 0-.008-.754l-1.851-1.562a.489.489 0 1 0-.629.75l1.41 1.191-1.41 1.192a.49.49 0 1 0 .629.75m-.957.062-1.141-4.258a.492.492 0 0 0-.95.254L19.61 22.5a.492.492 0 0 0 .95-.254m-1.047-6.973a4.966 4.966 0 0 0-4.969 4.97 4.97 4.97 0 1 0 9.941 0 4.97 4.97 0 0 0-4.972-4.97m0 0"/></g></svg>