<svg xmlns="http://www.w3.org/2000/svg" width="40" height="40" version="1.0" viewBox="0 0 30 30"><defs><clipPath id="a"><path d="M.484.344h29.032v28.308H.484Zm0 0"/></clipPath></defs><g clip-path="url(#a)"><path fill="#fff" fill-rule="evenodd" d="m1.313 11.926-.012.011a.47.47 0 0 1-.656-.101.464.464 0 0 1 .101-.652l1.098-.813a.49.49 0 0 1 .394-.078.47.47 0 0 1 .309.258l.613 1.3a.467.467 0 0 1-.226.622.465.465 0 0 1-.622-.223l-.078-.164c-.191.879-.289 1.793-.289 2.73 0 7.141 5.797 12.938 12.938 12.938a12.9 12.9 0 0 0 4.594-.84.474.474 0 0 1 .605.27.473.473 0 0 1-.273.605 13.8 13.8 0 0 1-4.926.902c-7.656 0-13.875-6.218-13.875-13.875 0-.988.105-1.957.305-2.89m16.019-9.813a13 13 0 0 0-5.887.227.47.47 0 0 1-.574-.324.467.467 0 0 1 .328-.575 13.993 13.993 0 0 1 6.383-.234l-.039-.055a.468.468 0 0 1 .754-.55l.805 1.105a.472.472 0 0 1-.18.7l-1.305.605a.466.466 0 0 1-.62-.227.466.466 0 0 1 .226-.62Zm11.313 14.48.039-.034a.466.466 0 1 1 .613.703l-1.027.902a.5.5 0 0 1-.387.11.48.48 0 0 1-.328-.231l-.72-1.246a.468.468 0 0 1 .813-.465l.07.121q.101-.804.102-1.637c0-1.41-.226-2.765-.644-4.039a.47.47 0 0 1 .3-.59.47.47 0 0 1 .59.301 13.9 13.9 0 0 1 .579 6.106M13.172 7.946a.265.265 0 0 1-.262-.265c0-.145.117-.262.262-.262h3.262c.144 0 .261.117.261.262a.265.265 0 0 1-.261.265ZM7.449 17.29l1.785-1.035c.5-.285.996-.527 1.543-.348.762.246 2 .77 3.27 1.004.21.082.355.293.297.52-.063.222-.258.32-.52.293-.687-.141-1.328-.352-2.039-.543a.47.47 0 0 0-.242.906c.734.195 1.398.41 2.113.559q.01.002.02.003l.39.063c.618.098 1.18.012 1.72-.3l3.152-1.84c1.187-.692 1.699-.415 1.687.09-.004.151-.05.308-.168.378l-5.727 3.527a1.67 1.67 0 0 1-1.335.188L9.242 19.64a.46.46 0 0 0-.355.047l-.059.035Zm2.48-2.324c-.195-.934-.054-1.969.532-3 .523-.914 1.32-1.942 2.398-3.125q.148.04.313.039h3.262c.109 0 .21-.012.312-.04 1.078 1.184 1.875 2.212 2.399 3.126.656 1.152.753 2.312.449 3.328a4 4 0 0 0-1.125.469l-3.157 1.84q-.029.016-.058.03a1.34 1.34 0 0 0-.324-1.226.47.47 0 0 0 .328-.445v-.14c.707-.15 1.36-.65 1.258-1.493-.11-.875-.91-1.223-1.649-1.344a1.8 1.8 0 0 1-.488-.14c-.133-.067-.25-.16-.262-.336-.008-.23.153-.383.352-.461a1 1 0 0 1 .297-.063h.054c.282.004.57.141.7.457a.468.468 0 1 0 .863-.363 1.64 1.64 0 0 0-1.125-.973v-.148a.467.467 0 0 0-.469-.465.467.467 0 0 0-.469.465v.156c-.066.016-.133.04-.195.063-.566.222-.973.71-.941 1.379.043.86.808 1.234 1.53 1.351.18.031.372.07.54.149.164.074.309.183.332.386.023.192-.102.305-.25.38-.152.074-.34.109-.508.113h-.055c-.355-.004-.71-.164-.8-.524a.467.467 0 0 0-.907.227c.16.636.66 1.039 1.254 1.18v.144q-.001.03.004.055-.008-.002-.015-.004a.3.3 0 0 0-.063-.016c-1.23-.223-2.441-.742-3.18-.98a2.13 2.13 0 0 0-1.136-.051m3.344-8.48-.726-.731a.75.75 0 0 1 0-1.063.755.755 0 0 1 .937-.097c.11.07.235.082.356.031a.38.38 0 0 0 .23-.277.75.75 0 0 1 1.465 0c.027.129.11.226.23.277.122.05.247.04.356-.031a.75.75 0 0 1 .938.097.75.75 0 0 1 0 1.063l-.727.73Zm-7.222 10.23 2.601 4.598a.466.466 0 0 1-.175.632l-.887.5a.466.466 0 0 1-.633-.175l-2.602-4.598a.466.466 0 0 1 .176-.633l.887-.5a.47.47 0 0 1 .633.176m-.606.637a.37.37 0 0 0-.312.418.369.369 0 0 0 .73-.11.37.37 0 0 0-.418-.308m19.278-15.2c.394.09.77.246 1.113.461l.723-.324.851.852-.32.722c.21.344.367.719.46 1.114l.74.285v1.203l-.74.285c-.093.395-.25.77-.46 1.113l.32.723-.851.851-.723-.32c-.344.211-.719.367-1.113.461l-.282.738h-1.207l-.28-.738a3.9 3.9 0 0 1-1.118-.46l-.723.32-.851-.852.324-.723a3.8 3.8 0 0 1-.465-1.113l-.734-.285V5.262l.734-.285c.098-.395.25-.77.465-1.114l-.324-.722.851-.852.723.324a3.7 3.7 0 0 1 1.113-.46l.285-.743h1.207Zm-.887 1.61a2.102 2.102 0 1 0 .001 4.204 2.102 2.102 0 0 0-.001-4.204M5.984 10.316c-2.449 0-4.453-2-4.453-4.453A4.466 4.466 0 0 1 5.984 1.41a4.464 4.464 0 0 1 4.454 4.453c0 2.453-2 4.453-4.454 4.453m-.468-7.05c-.086.02-.176.046-.258.082-.613.238-1.055.77-1.02 1.492.047.937.883 1.34 1.676 1.469.207.035.426.082.621.171.2.09.375.227.406.48.024.192-.066.33-.199.423-.199.137-.469.195-.71.199-.446.012-.907-.18-1.02-.633a.47.47 0 0 0-.567-.344.467.467 0 0 0-.343.567c.18.71.75 1.152 1.414 1.297v.21c0 .258.21.47.468.47a.47.47 0 0 0 .47-.47v-.202c.788-.153 1.526-.696 1.417-1.63-.117-.956-1-1.327-1.809-1.46a2 2 0 0 1-.562-.164c-.172-.082-.316-.207-.328-.43-.012-.285.183-.48.43-.578.433-.168 1.035-.063 1.261.476a.468.468 0 1 0 .864-.363 1.78 1.78 0 0 0-1.274-1.066v-.215a.47.47 0 0 0-.469-.469.47.47 0 0 0-.468.469Zm18.32 14.859a4.45 4.45 0 1 1 0 8.902 4.45 4.45 0 0 1-4.45-4.453 4.45 4.45 0 0 1 4.45-4.449m-2.176 7.29.274-.274a.47.47 0 0 0 0-.66.47.47 0 0 0-.664 0l-.27.269a.47.47 0 0 0 0 .664c.18.18.477.18.66 0m5.016-.665-.274-.27a.464.464 0 0 0-.66 0 .464.464 0 0 0 0 .66l.27.274c.183.18.48.18.664 0a.476.476 0 0 0 0-.664m-6.383-1.707h.383a.467.467 0 1 0 0-.934h-.383a.467.467 0 1 0 0 .934m5.719-3.305-.27.27a.47.47 0 0 0 0 .664c.18.18.477.18.66 0l.274-.274a.47.47 0 0 0 0-.66.47.47 0 0 0-.664 0m-2.645-.707v.383c0 .258.211.469.469.469a.47.47 0 0 0 .469-.469v-.383a.47.47 0 0 0-.47-.468.47.47 0 0 0-.468.468m0 1.86v1.683c0 .168.09.324.235.406l1.125.649a.467.467 0 1 0 .468-.809l-.89-.515V20.89a.47.47 0 0 0-.47-.47.47.47 0 0 0-.468.47m4.016 1.218h-.387a.467.467 0 0 0 0 .934h.387a.467.467 0 1 0 0-.934M21 20.4l.27.273c.183.18.48.18.664 0a.476.476 0 0 0 0-.664l-.274-.27a.464.464 0 0 0-.66 0 .464.464 0 0 0 0 .66m3.305 5.722v-.387a.467.467 0 0 0-.47-.464.467.467 0 0 0-.468.464v.387c0 .258.211.465.469.465a.467.467 0 0 0 .469-.465m0 0"/></g></svg>