<svg xmlns="http://www.w3.org/2000/svg" width="40" height="40" version="1.0" viewBox="0 0 30 30"><defs><clipPath id="a"><path d="M.484 1.36h29.032v26.128H.484Zm0 0"/></clipPath></defs><g clip-path="url(#a)"><path fill="#061c3d" d="M27.84 19.031H2.16V3.008h25.68Zm-10.016 2.64h-5.648a.54.54 0 0 1-.543-.542c0-.305.242-.547.543-.547h5.648c.301 0 .543.242.543.547 0 .3-.242.543-.543.543M28.54 1.368H1.461a.94.94 0 0 0-.938.938v19.98c0 .516.418.938.938.938H14.09v2.515h-1.527a.2.2 0 0 0-.118.035l-2.187 1.536c-.168.113-.086.375.117.375h9.25c.203 0 .285-.262.117-.375l-2.187-1.536a.2.2 0 0 0-.117-.035H15.91v-2.515h12.63c.519 0 .937-.422.937-.938V2.305a.94.94 0 0 0-.938-.938"/></g><path fill="#061c3d" d="M8.324 7.176a2.1 2.1 0 0 1 2.098 2.097 2.1 2.1 0 0 1-2.098 2.098 2.1 2.1 0 0 1-2.097-2.098 2.1 2.1 0 0 1 2.097-2.097m-3.05 3.887-.66.859 1.062 1.062.86-.66q.417.248.894.371l.144 1.075h1.5l.14-1.075q.483-.124.895-.37l.864.66 1.058-1.063-.656-.86c.164-.277.29-.578.371-.894l1.074-.145v-1.5l-1.074-.14a3.4 3.4 0 0 0-.371-.899l.656-.859-1.058-1.059-.864.657a3.4 3.4 0 0 0-.894-.371l-.14-1.075h-1.5L7.43 5.852a3.5 3.5 0 0 0-.895.37l-.86-.656-1.062 1.059.66.86a3.6 3.6 0 0 0-.375.898l-1.07.14v1.5l1.07.145q.129.476.375.895M23.152 12.23l1.88 1.875-1.446 1.446.277.867 2.309-2.313-2.445-2.445zM20.648 12.664l-.277-.867-2.308 2.308 2.445 2.45.57-.57-1.875-1.88zM20.762 10.969l2.062 6.484.649-.207-2.059-6.484zM26.172 4.39h-12.16v.965h12.16zM15.988 14.816H3.828v.965h12.16zM8.844 17.52h7.144v-.97H8.844zM16.906 7.285h9.266V6.32h-9.266zM18.258 9.219h7.914v-.965h-7.914z"/></svg>