<svg xmlns="http://www.w3.org/2000/svg" width="40" height="40" version="1.0" viewBox="0 0 30 30"><defs><clipPath id="a"><path d="M.484 2.25h29.032v24.676H.484Zm0 0"/></clipPath></defs><g clip-path="url(#a)"><path fill="#061c3d" d="M27.676 2.258H2.324c-1.015 0-1.84.828-1.84 1.84V24.93c0 1.015.825 1.843 1.84 1.843h25.352c1.015 0 1.84-.828 1.84-1.843V4.098c0-1.012-.825-1.84-1.84-1.84M2.324 2.98h25.352a1.12 1.12 0 0 1 1.117 1.118v1.965H1.207V4.098c0-.614.5-1.118 1.117-1.118m25.352 23.067H2.324c-.617 0-1.117-.5-1.117-1.117V6.785h27.586V24.93c0 .617-.5 1.117-1.117 1.117m-6.313-12.828H19.82a4.356 4.356 0 0 0-4.336-3.992 4.356 4.356 0 0 0-4.336 3.992h-1.05l-.637-1.793a1.43 1.43 0 0 0-1.367-.969H5.957c-.2 0-.36.16-.36.363 0 .2.16.36.36.36h2.137c.316 0 .582.187.687.484l2.469 6.945c.117.332.34.598.621.766-.2.242-.324.559-.324.895 0 .789.637 1.43 1.418 1.43h.797a1.216 1.216 0 1 0 .425 0h4.336a1.216 1.216 0 0 0 .215 2.413 1.22 1.22 0 0 0 1.219-1.218 1.22 1.22 0 0 0-1.004-1.196h1.266a.362.362 0 0 0 0-.722h-7.254a.71.71 0 0 1-.695-.707c0-.375.304-.684.68-.692h5.679c.629 0 1.168-.387 1.371-.976l1.703-4.903a.35.35 0 0 0-.047-.328.35.35 0 0 0-.293-.152m-6.894 9.676a.497.497 0 0 1-.496.496.496.496 0 0 1-.493-.496c0-.274.223-.493.493-.493.273 0 .496.223.496.493m4.761 0a.493.493 0 1 1-.986.005.493.493 0 0 1 .986-.005m-6.613-11.54c.348.32.781.579 1.27.754a8 8 0 0 0-.125 1.11h-1.89c.07-.7.339-1.34.745-1.864m6.48 1.864h-1.89a8 8 0 0 0-.125-1.11 3.7 3.7 0 0 0 1.27-.754 3.63 3.63 0 0 1 .746 1.864m-3.613 3.824c-.308-.379-.554-.89-.73-1.477a4.1 4.1 0 0 1 1.46 0c-.175.586-.425 1.098-.73 1.477m0-2.266c-.308 0-.609.032-.894.086q-.082-.452-.106-.922h1.996a7 7 0 0 1-.101.922 5 5 0 0 0-.895-.086m-1-1.558q.024-.476.106-.922c.285.055.586.082.894.082.305 0 .606-.027.895-.082.055.297.086.605.101.922Zm.27-1.63c.176-.585.426-1.097.73-1.472.305.375.555.887.73 1.473a4.1 4.1 0 0 1-1.46 0m2.156-.194c-.148-.5-.348-.961-.59-1.348.575.137 1.098.41 1.532.781a2.9 2.9 0 0 1-.942.567m-2.851 0a2.9 2.9 0 0 1-.942-.567 3.66 3.66 0 0 1 1.531-.781 5.5 5.5 0 0 0-.59 1.348m-.297 2.546q.024.571.125 1.106a3.7 3.7 0 0 0-1.27.758 3.6 3.6 0 0 1-.746-1.864Zm.297 1.82c.148.505.347.962.59 1.348a3.6 3.6 0 0 1-1.532-.78 3 3 0 0 1 .942-.567m2.851 0c.363.141.684.333.942.567a3.6 3.6 0 0 1-1.532.781c.242-.386.442-.843.59-1.347m1.438.044a3.6 3.6 0 0 0-1.266-.754 8 8 0 0 0 .125-1.11h1.89a3.63 3.63 0 0 1-.75 1.864m.968 2.558a.71.71 0 0 1-.687.492h-6.012a.71.71 0 0 1-.687-.488l-1.575-4.426h.793a4.356 4.356 0 0 0 4.336 3.993 4.36 4.36 0 0 0 4.336-3.993h1.035ZM5.574 4.523c0-.199.16-.363.36-.363s.363.164.363.363a.362.362 0 0 1-.723 0m-1.703 0c0-.199.164-.363.363-.363a.362.362 0 1 1-.363.363m-1.703 0c0-.199.164-.363.363-.363.2 0 .364.164.364.363 0 .2-.165.36-.364.36s-.363-.16-.363-.36m0 0"/></g></svg>