<svg xmlns="http://www.w3.org/2000/svg" width="40" height="40" version="1.0" viewBox="0 0 30 30"><defs><clipPath id="a"><path d="M.484 1.633h29.032v26.129H.484Zm0 0"/></clipPath></defs><g clip-path="url(#a)"><path fill="#fff" fill-rule="evenodd" d="m15.07 1.762.73 1.926a.16.16 0 0 0 .137.101l2.06.098c.14.008.194.183.085.273l-1.605 1.29a.16.16 0 0 0-.051.16l.539 1.988a.152.152 0 0 1-.23.168l-1.723-1.13a.15.15 0 0 0-.168 0l-1.727 1.13c-.117.078-.265-.032-.23-.168l.543-1.989a.16.16 0 0 0-.051-.16l-1.61-1.289a.154.154 0 0 1 .09-.273l2.059-.098a.15.15 0 0 0 .133-.102l.734-1.925c.047-.13.235-.13.285 0m9.555 15.86c2.7 0 4.887 2.187 4.887 4.886a4.888 4.888 0 1 1-4.887-4.887m-.645 5.32-1.093-1.094a.72.72 0 0 0-1.024 0 .72.72 0 0 0 0 1.023l1.606 1.61a.73.73 0 0 0 1.027 0c.969-.97 1.926-1.95 2.89-2.922a.723.723 0 1 0-1.027-1.02ZM14.926 9.522a3.633 3.633 0 0 1 0 7.266 3.633 3.633 0 0 1 0-7.266M8.492 23.801H18.91a6 6 0 0 1-.14-1.293c0-1.203.363-2.32.984-3.25a7.15 7.15 0 0 0-4.828-1.867 7.185 7.185 0 0 0-7.024 5.68.6.6 0 0 0 .59.73m20.785-13.672-1.304 1.598c-.04.046-.043.109-.016.168l.941 1.832c.067.125-.058.261-.191.21l-1.922-.746a.15.15 0 0 0-.16.036l-1.453 1.464c-.098.098-.27.024-.262-.117l.117-2.058a.145.145 0 0 0-.086-.145l-1.84-.93a.15.15 0 0 1 .032-.28l1.992-.528a.16.16 0 0 0 .113-.125l.313-2.035a.154.154 0 0 1 .281-.063l1.117 1.735c.031.05.09.078.153.066l2.03-.328c.141-.024.235.14.145.246m-5.984-6.086c.023-.137-.137-.23-.246-.145l-1.598 1.305a.14.14 0 0 1-.164.016l-1.836-.942a.153.153 0 0 0-.21.192l.745 1.922a.15.15 0 0 1-.035.164l-1.46 1.453c-.102.097-.024.265.113.258l2.058-.114a.15.15 0 0 1 .145.082l.93 1.84c.062.125.25.106.285-.031l.523-1.992a.15.15 0 0 1 .125-.11l2.039-.316c.137-.023.176-.203.059-.277L23.03 6.23a.15.15 0 0 1-.066-.152ZM.719 9.883l2.035.328a.15.15 0 0 0 .152-.066L4.023 8.41c.075-.117.258-.078.278.063l.316 2.035c.008.062.051.11.11.125l1.996.527c.132.035.152.219.027.281l-1.84.93a.15.15 0 0 0-.082.145l.113 2.058a.151.151 0 0 1-.257.117L3.23 13.227a.15.15 0 0 0-.164-.036l-1.921.746c-.13.051-.254-.085-.192-.21l.945-1.832a.15.15 0 0 0-.02-.168L.575 10.129c-.086-.106.008-.27.145-.246m6.086-5.985c-.106-.086-.27.008-.246.145l.332 2.035a.15.15 0 0 1-.07.152L5.09 7.348c-.121.074-.082.254.058.277l2.036.316c.062.008.109.051.125.11l.527 1.992a.15.15 0 0 0 .281.031l.93-1.84a.15.15 0 0 1 .144-.082l2.059.114c.14.007.215-.16.117-.262l-1.465-1.45a.16.16 0 0 1-.035-.163l.746-1.922a.152.152 0 0 0-.21-.192L8.57 5.22a.15.15 0 0 1-.168-.016Zm0 0"/></g></svg>