<svg xmlns="http://www.w3.org/2000/svg" width="40" height="40" version="1.0" viewBox="0 0 30 30"><defs><clipPath id="a"><path d="M5 23h4v4.328H5Zm0 0"/></clipPath><clipPath id="b"><path d="M21 23h4v4.328h-4Zm0 0"/></clipPath><clipPath id="c"><path d="M.484 1.922h29.032V18H.484Zm0 0"/></clipPath></defs><path fill="#fff" d="M10.465 25.672H8.438a.45.45 0 0 1-.329-.133.45.45 0 0 1-.136-.328q.001-.193.136-.328.135-.134.329-.133h2.027q.164 0 .164-.168v-4.008q.001-.193.137-.328.136-.134.324-.133.193-.001.328.133.136.135.137.328v4.008q0 .218-.086.418-.082.198-.235.355-.152.153-.351.235a1.1 1.1 0 0 1-.418.082m0 0"/><g clip-path="url(#a)"><path fill="#fff" d="M7.008 27.102c-.25 0-.488-.051-.723-.145a1.9 1.9 0 0 1-1.164-1.746q-.001-.376.145-.723.14-.344.406-.613.269-.264.613-.41a1.92 1.92 0 0 1 1.445 0q.351.146.614.41a1.8 1.8 0 0 1 .41.613q.146.346.144.723.002.376-.144.723a1.8 1.8 0 0 1-.41.613 1.88 1.88 0 0 1-1.336.555m0-2.856a1 1 0 0 0-.367.074.9.9 0 0 0-.313.211 1 1 0 0 0-.21.313 1.01 1.01 0 0 0 0 .738q.075.177.21.313.136.136.313.207.177.075.37.074.19 0 .368-.074a.9.9 0 0 0 .312-.207q.135-.136.211-.313a1 1 0 0 0 .07-.371.9.9 0 0 0-.074-.367.9.9 0 0 0-.207-.313.9.9 0 0 0-.312-.21 1 1 0 0 0-.371-.075m0 0"/></g><path fill="#fff" d="M21.563 25.672h-2.028q-.214 0-.418-.082a1.07 1.07 0 0 1-.586-.59 1 1 0 0 1-.086-.418v-4.008q.001-.193.137-.328.135-.134.328-.133.189-.001.324.133.136.135.137.328v4.008q0 .169.164.168h2.027q.194-.001.329.133.136.135.136.328a.45.45 0 0 1-.136.328q-.135.134-.328.133m0 0"/><g clip-path="url(#b)"><path fill="#fff" d="M22.992 27.102a1.894 1.894 0 0 1-1.746-2.614q.14-.344.41-.613a1.88 1.88 0 0 1 1.336-.55c.25 0 .488.046.723.14q.344.146.613.41c.176.176.313.383.406.613q.146.346.145.723.001.376-.145.723a1.904 1.904 0 0 1-1.02 1.023 1.9 1.9 0 0 1-.722.145m0-2.856a1 1 0 0 0-.37.074.9.9 0 0 0-.313.211 1 1 0 0 0-.211.313.98.98 0 0 0 .21 1.05q.136.136.313.208.177.075.371.074.19 0 .367-.074a.9.9 0 0 0 .313-.207q.135-.136.21-.313.073-.18.075-.371a.96.96 0 0 0-.285-.68.9.9 0 0 0-.313-.21 1 1 0 0 0-.367-.075m0 0"/></g><g clip-path="url(#c)"><path fill="#fff" d="M26.578 17.582h-1.734a.45.45 0 0 1-.461-.46.45.45 0 0 1 .46-.462h1.735a1.99 1.99 0 0 0 1.992-1.969v-.023c0-.336-.035-.672-.11-1a4.6 4.6 0 0 0-.839-1.82 4.74 4.74 0 0 0-2.465-1.672 4.7 4.7 0 0 0-.996-.164q-.505-.026-1.004.054a.44.44 0 0 1-.379-.105.44.44 0 0 1-.16-.356v-.062q0-.405-.066-.809a5 5 0 0 0-.34-1.101q-.24-.528-.602-.985a4.5 4.5 0 0 0-.82-.808 4.581 4.581 0 0 0-2.102-.898 4.665 4.665 0 0 0-3.312.723.45.45 0 0 1-.352.065.45.45 0 0 1-.296-.207 5.6 5.6 0 0 0-1.868-1.843 5.6 5.6 0 0 0-2.5-.809 5.524 5.524 0 0 0-2.863.523 5.6 5.6 0 0 0-2.312 2 5.53 5.53 0 0 0-.95 2.973v.278q.017.633.168 1.253c.028.11.016.211-.035.313a.45.45 0 0 1-.222.219 4.64 4.64 0 0 0-1.977 1.722 4.6 4.6 0 0 0-.738 2.516v.027c.004 1.082.898 1.965 1.992 1.965h1.734a.45.45 0 0 1 .461.461.451.451 0 0 1-.46.46l-1.735.001c-1.602 0-2.91-1.293-2.918-2.887v-.027a5.57 5.57 0 0 1 .785-2.855q.385-.651.93-1.172a5.7 5.7 0 0 1 1.203-.883 6.4 6.4 0 0 1-.11-1.094A6.431 6.431 0 0 1 4.415 4.88a6.5 6.5 0 0 1 2.688-2.32 6.5 6.5 0 0 1 2.808-.633h.02q.253.001.5.02a6.55 6.55 0 0 1 2.937.956 6.7 6.7 0 0 1 1.887 1.75 5.6 5.6 0 0 1 2.539-.695c.441-.012.883.027 1.316.121q.656.133 1.258.426a5.56 5.56 0 0 1 2.04 1.66 5.6 5.6 0 0 1 1.054 2.41c.027.172.05.348.066.52q.19-.012.38-.012.55 0 1.09.105.541.111 1.05.32a5.6 5.6 0 0 1 1.812 1.212c.258.258.493.539.696.844a5.6 5.6 0 0 1 .941 3.105v.027c-.008 1.594-1.316 2.887-2.918 2.887m0 0"/></g><path fill="#fff" d="M24.184 21.035H5.816q-.223 0-.43-.082a1.15 1.15 0 0 1-.609-.61 1.2 1.2 0 0 1-.086-.429v-5.387c0-.148.032-.293.086-.43a1.15 1.15 0 0 1 .61-.605q.205-.086.43-.086h18.367q.223 0 .43.086.204.084.363.242.158.159.246.364c.054.136.086.28.086.43v5.386c0 .148-.032.293-.086.43a1.15 1.15 0 0 1-.61.61 1.2 1.2 0 0 1-.43.081M5.816 14.328q-.193.006-.199.2v5.386q.006.193.2.2h18.367q.193-.007.199-.2v-5.387q-.006-.193-.2-.199Zm0 0"/><path fill="#fff" d="M9.281 19.594H8.254a.44.44 0 0 1-.328-.137.44.44 0 0 1-.133-.324q-.001-.194.133-.328c.094-.09.199-.137.328-.137H9.28a.44.44 0 0 0 .324-.133.44.44 0 0 0 .133-.324.43.43 0 0 0-.133-.32.45.45 0 0 0-.324-.137h-.105a1.39 1.39 0 0 1-1.278-.852 1.4 1.4 0 0 1-.105-.527v-.145q0-.275.105-.527.103-.257.301-.45a1.38 1.38 0 0 1 .977-.405h1.027q.189.001.324.136.136.135.137.329a.45.45 0 0 1-.137.324q-.136.136-.324.136H9.176a.462.462 0 0 0-.46.457l-.001.145q.001.188.137.324c.09.086.195.133.324.133h.105q.275 0 .531.105.252.103.446.301a1.38 1.38 0 0 1 .406.977q0 .276-.105.527-.106.254-.301.45a1.386 1.386 0 0 1-.977.402M20.824 19.594h-1.027a.43.43 0 0 1-.324-.137.45.45 0 0 1-.137-.324q.001-.194.137-.328.136-.136.324-.137h1.027a.44.44 0 0 0 .324-.133.44.44 0 0 0 .137-.324.43.43 0 0 0-.137-.32.44.44 0 0 0-.324-.137h-.105q-.276 0-.528-.106a1.35 1.35 0 0 1-.449-.296 1.366 1.366 0 0 1-.406-.977v-.145q0-.275.105-.527.106-.257.301-.45.194-.194.45-.3.25-.105.527-.105h1.027c.129 0 .234.047.328.136q.134.135.133.329a.44.44 0 0 1-.133.324.46.46 0 0 1-.328.136H20.72a.44.44 0 0 0-.324.133q-.134.136-.133.324v.145q-.001.188.133.324c.09.086.199.133.324.133h.105a1.37 1.37 0 0 1 .98.406 1.37 1.37 0 0 1 .403.977q0 .276-.105.527-.104.254-.297.45c-.133.128-.282.23-.45.296q-.254.105-.53.106M13.098 19.32a1.37 1.37 0 1 1 .523-2.637 1.369 1.369 0 0 1 0 2.531q-.25.106-.523.106m0-1.816a.443.443 0 0 0-.445.445q0 .187.128.317a.44.44 0 0 0 .633 0 .43.43 0 0 0 .129-.317.443.443 0 0 0-.445-.445m0 0"/><path fill="#fff" d="M14.008 19.594a.43.43 0 0 1-.328-.137.45.45 0 0 1-.137-.324v-2.367c0-.13.047-.235.137-.328q.135-.134.328-.133.188-.001.324.133c.09.093.137.199.137.328v2.367a.45.45 0 0 1-.137.324.43.43 0 0 1-.324.137M16.902 19.32q-.273 0-.523-.105a1.37 1.37 0 1 1 1.047-2.531 1.369 1.369 0 0 1 0 2.531q-.253.105-.524.105m0-1.816a.443.443 0 0 0-.445.445q0 .187.129.317a.44.44 0 0 0 .633 0 .43.43 0 0 0 .129-.317.443.443 0 0 0-.446-.445m0 0"/><path fill="#fff" d="M17.813 19.594a.43.43 0 0 1-.329-.137.45.45 0 0 1-.136-.324v-2.367c0-.13.047-.235.136-.328q.135-.134.328-.133.189-.001.325.133c.09.093.136.199.136.328v2.367a.45.45 0 0 1-.136.324.43.43 0 0 1-.325.137m0 0"/></svg>