<svg xmlns="http://www.w3.org/2000/svg" width="40" height="40" version="1.0" viewBox="0 0 30 30"><defs><clipPath id="a"><path d="M.484 9h29.032v20.031H.484Zm0 0"/></clipPath></defs><g clip-path="url(#a)"><path fill="#061c3d" d="M28.586 25.395h-.996c.047-.137.09-.293.09-.477V10.914a1.37 1.37 0 0 0-1.383-1.383h-3.625c.047.137.09.293.09.453 0 .157-.024.317-.09.454h3.625c.25 0 .476.203.476.476v14.004c0 .25-.203.477-.476.477h-8.59a.456.456 0 0 0-.453.453c0 .25-.203.453-.453.453h-3.625a.453.453 0 0 1-.453-.453.453.453 0 0 0-.453-.453H3.68a.48.48 0 0 1-.477-.477V10.914c0-.25.203-.476.477-.476h3.625a1.6 1.6 0 0 1-.09-.454c0-.16.023-.316.09-.453H3.68c-.77 0-1.383.61-1.383 1.383v14.004c0 .16.023.316.09.477H1.39c-.5 0-.907.406-.907.906v.996c0 .953.77 1.723 1.723 1.723h25.586a1.72 1.72 0 0 0 1.723-1.723V26.3a.943.943 0 0 0-.93-.906m0 1.902a.814.814 0 0 1-.816.816H2.207a.814.814 0 0 1-.816-.816V26.3h10.515c.18.523.68.906 1.27.906H16.8c.59 0 1.09-.383 1.27-.906h10.515Zm0 0"/></g><path fill="#061c3d" d="m9.438 15.512-1.043.66a.44.44 0 0 0-.204.383c0 .16.067.297.204.386l6.343 4.079c.07.046.16.07.25.07s.184-.024.25-.07l6.344-4.079a.45.45 0 0 0 .207-.386.44.44 0 0 0-.207-.383l-1.039-.66-.84.547.793.496-5.508 3.535-5.508-3.535.793-.496Zm0 0"/><path fill="#061c3d" d="M7.828 11.117H5.29c-.77 0-1.406.633-1.406 1.406V23.31c0 .773.637 1.406 1.406 1.406h19.399a1.41 1.41 0 0 0 1.406-1.406V12.523a1.41 1.41 0 0 0-1.407-1.406H22.13l-.906.59.496.316h2.949c.27 0 .496.227.496.5V23.31c0 .273-.227.5-.496.5H5.289a.504.504 0 0 1-.5-.5V12.523c0-.273.227-.5.5-.5h2.945l.5-.316Zm0 0"/><path fill="#061c3d" d="m21.582 12.996-1.176-.746-.84.543.93.59-5.508 3.535-5.508-3.535.93-.59-.84-.543-1.175.746a.45.45 0 0 0-.204.387c0 .16.067.293.204.387l6.343 4.078c.07.047.16.066.25.066s.184-.02.25-.066l6.344-4.078a.45.45 0 0 0 .207-.387.45.45 0 0 0-.207-.387m0 0"/><path fill="#061c3d" d="M8.121 9.984c0 .157.07.293.203.383l6.414 4.149c.07.046.16.07.25.07s.184-.024.25-.07l6.414-4.149a.44.44 0 0 0 .203-.383.44.44 0 0 0-.203-.386l-2.02-1.313c-.066.156-.179.293-.292.43l-.274.293 1.497.976-5.575 3.602-5.574-3.602 1.223-.793-.27-.273a2 2 0 0 1-.32-.43l-1.7 1.11a.47.47 0 0 0-.226.386m0 0"/><path fill="#061c3d" d="M10.48 3.91a.73.73 0 0 0-.5.227.7.7 0 0 0-.203.496l.02.93c0 .183.094.363.226.5.137.136.32.203.5.203h.364c.09.25.203.5.316.75l-.25.25a.7.7 0 0 0-.203.496c0 .183.09.363.227.5l.68.633a.7.7 0 0 0 .5.203c.179 0 .363-.09.5-.227l.245-.27c.25.114.5.227.75.294v.363c0 .18.09.363.227.5a.7.7 0 0 0 .496.203h.023l.93-.024c.184 0 .363-.09.5-.226a.7.7 0 0 0 .203-.5v-.36c.25-.093.5-.206.746-.32l.274.25a.7.7 0 0 0 .5.203c.18 0 .363-.09.496-.226l.637-.68a.7.7 0 0 0 .203-.496.73.73 0 0 0-.227-.5l-.273-.25c.113-.25.226-.496.297-.746h.363c.18 0 .36-.09.496-.227a.7.7 0 0 0 .207-.5l-.023-.93a.73.73 0 0 0-.227-.495.7.7 0 0 0-.5-.207h-.363a11 11 0 0 0-.317-.747l.25-.273a.7.7 0 0 0 .203-.496.73.73 0 0 0-.226-.5l-.68-.633c-.293-.273-.726-.273-.996.02l-.273.273a5 5 0 0 0-.746-.293V.715a.74.74 0 0 0-.227-.5.7.7 0 0 0-.5-.203l-.93.023a.73.73 0 0 0-.703.723v.363c-.25.09-.496.203-.746.317l-.25-.247a.7.7 0 0 0-.5-.207.73.73 0 0 0-.496.227l-.637.68a.7.7 0 0 0-.203.5c0 .183.09.363.227.5l.273.25a5 5 0 0 0-.297.746Zm.723.906c.227 0 .41-.16.43-.363.07-.406.226-.77.433-1.133.114-.18.09-.43-.07-.566l-.383-.363.36-.387.386.363c.16.16.387.16.567.047.34-.227.703-.387 1.11-.477a.46.46 0 0 0 .362-.453l-.023-.52.566-.046v.52c0 .226.16.41.364.433.41.067.773.227 1.133.43.183.113.433.09.566-.07l.363-.383.387.363-.363.383c-.16.16-.16.386-.047.566.23.34.386.703.476 1.113.047.204.227.36.434.36l.52-.02.023.543h-.524a.42.42 0 0 0-.43.364c-.066.406-.226.77-.429 1.132-.113.18-.09.43.066.567l.387.363-.363.383-.387-.36c-.156-.16-.383-.16-.566-.046-.34.226-.7.386-1.11.476a.46.46 0 0 0-.363.453l.024.52-.52.07v-.523a.42.42 0 0 0-.363-.43c-.41-.066-.77-.227-1.133-.43a.46.46 0 0 0-.25-.07c-.113 0-.25.047-.316.137l-.364.386-.386-.363.363-.387c.16-.156.16-.382.047-.566a3.2 3.2 0 0 1-.477-1.11.49.49 0 0 0-.453-.363l-.523.024-.043-.567Zm0 0"/><path fill="#061c3d" d="M14.762 7.035A2.03 2.03 0 0 0 16.8 4.996a2.03 2.03 0 0 0-2.04-2.039 2.03 2.03 0 0 0-2.038 2.04 2.03 2.03 0 0 0 2.039 2.038m0-3.172c.636 0 1.133.5 1.133 1.133 0 .637-.497 1.133-1.133 1.133a1.12 1.12 0 0 1-1.133-1.133c0-.633.5-1.133 1.133-1.133m0 0"/></svg>