<svg xmlns="http://www.w3.org/2000/svg" width="40" height="40" version="1.0" viewBox="0 0 30 30"><defs><clipPath id="a"><path d="M.484 5.152h29.032v21.051H.484Zm0 0"/></clipPath></defs><g clip-path="url(#a)"><path fill="#061c3d" fill-rule="evenodd" d="M9.793 25.414h3.656v-.68c0-.449.367-.816.817-.816h.703v-.95H9.44a2.223 2.223 0 0 1-2.226-2.222v-4.07h.574v2.285h21.149V9.598H11.465V7.37h15.82a2.23 2.23 0 0 1 2.227 2.227v11.148a2.23 2.23 0 0 1-2.227 2.223h-5.531v.949h.707c.45 0 .816.367.816.816v.68h3.657a.353.353 0 0 1 0 .707H9.793a.353.353 0 0 1 0-.707m1.91-8.117a.147.147 0 0 1-.144-.145c0-.078.066-.144.144-.144h5.945a.144.144 0 1 1 0 .289Zm0-1.016a.143.143 0 0 1-.144-.14c0-.082.066-.145.144-.145h5.945c.082 0 .145.063.145.145a.14.14 0 0 1-.145.14Zm-5.988-5.574c.547 0 .988.441.988.988a.99.99 0 0 1-.988.989.99.99 0 0 1-.988-.989.99.99 0 0 1 .988-.988m.238-1.719H5.48a.453.453 0 0 0-.453.45v.175a2 2 0 0 0-.297.125l-.125-.125a.45.45 0 0 0-.636 0l-.332.332a.45.45 0 0 0 0 .64l.12.122c-.046.098-.089.195-.124.3H3.46a.453.453 0 0 0-.453.45v.473c0 .25.203.453.453.453h.172c.035.101.078.203.125.297l-.121.125a.443.443 0 0 0 0 .636l.332.332a.45.45 0 0 0 .636 0l.125-.12c.094.046.196.09.297.12v.176c0 .25.203.453.453.453h.473c.246 0 .45-.203.45-.453v-.176a2 2 0 0 0 .296-.12l.125.12a.45.45 0 0 0 .637 0l.336-.332a.45.45 0 0 0 0-.636l-.125-.125c.05-.094.09-.196.125-.297h.172c.25 0 .453-.203.453-.453v-.473a.453.453 0 0 0-.453-.45h-.172a2 2 0 0 0-.125-.3l.125-.121a.455.455 0 0 0 0-.64l-.336-.333a.45.45 0 0 0-.637 0l-.125.125a2 2 0 0 0-.297-.125v-.175a.45.45 0 0 0-.449-.45M9.68 5.152H1.754c-.348 0-.664.145-.89.371-.231.23-.372.543-.372.891v8.473c0 .347.14.664.371.89.227.23.543.371.89.371H9.68c.343 0 .66-.14.886-.37.23-.227.371-.544.371-.891V6.414c0-.348-.14-.66-.37-.89a1.26 1.26 0 0 0-.887-.372M.777 7.574h9.875v7.313a.977.977 0 0 1-.972.976H1.754a.977.977 0 0 1-.977-.977Zm8.57-1.14a.217.217 0 1 1 .434.003.217.217 0 0 1-.433-.003m-1.69 0c0-.118.093-.215.214-.215s.219.097.219.215a.22.22 0 0 1-.219.218.215.215 0 0 1-.215-.218m.843 0a.217.217 0 1 1 .434.004.217.217 0 0 1-.434-.004m4.938 7.285a.264.264 0 0 1 0 .37.257.257 0 0 1-.372 0l-1.004-1.003a.264.264 0 0 1 0-.371l1.004-1.004a.257.257 0 0 1 .371 0 .264.264 0 0 1 0 .371l-.816.816Zm.742 1.172a.26.26 0 0 1-.34.148.263.263 0 0 1-.152-.34l1.488-3.789a.26.26 0 0 1 .34-.148c.132.05.199.203.148.34Zm2.105-.801a.257.257 0 0 1-.37 0 .264.264 0 0 1 0-.371l.82-.82-.82-.817a.264.264 0 0 1 0-.371.257.257 0 0 1 .37 0l1.004 1.004a.257.257 0 0 1 0 .37Zm4.164-3.649h6.196a1.24 1.24 0 0 1 1.242 1.242v5.075c0 .344-.137.656-.364.879-.226.226-.539.367-.878.367h-6.196a1.23 1.23 0 0 1-.879-.367 1.23 1.23 0 0 1-.367-.88v-5.073a1.244 1.244 0 0 1 1.246-1.243m5.305 1.207a.752.752 0 1 1 .004 1.504.752.752 0 0 1-.004-1.504m1.047 5.094q.158.205.035.192h-6.7a.1.1 0 0 1-.073-.063.1.1 0 0 1 .023-.094l2.297-3.71q.146-.276.328 0l1.309 2.035q.743-1.19.742-1.192c.082-.137.16-.137.242 0 1.195 1.887 1.797 2.832 1.797 2.832m-.156-5.918h-6.196a.87.87 0 0 0-.61.25.87.87 0 0 0-.253.61v5.074a.86.86 0 0 0 .254.61.86.86 0 0 0 .61.253h6.195a.866.866 0 0 0 .863-.863v-5.074a.87.87 0 0 0-.254-.61.88.88 0 0 0-.61-.25m-8.282 9.426a.572.572 0 1 1-.003 1.145.572.572 0 0 1 .003-1.145m8.778-11.879a.323.323 0 1 1-.005.645.323.323 0 0 1 .005-.645m-1.868 0c.176 0 .325.145.325.324 0 .176-.149.32-.325.32a.323.323 0 1 1 0-.644m.934 0a.323.323 0 1 1-.005.645.323.323 0 0 1 .005-.645m0 0"/></g></svg>