<svg xmlns="http://www.w3.org/2000/svg" width="40" height="40" version="1.0" viewBox="0 0 30 30"><defs><clipPath id="a"><path d="M.484 0h29.032v29.031H.484Zm0 0"/></clipPath></defs><g clip-path="url(#a)"><path fill="#fff" d="M28.824 8.137q.112.03.223.008a.5.5 0 0 0 .402-.485.486.486 0 0 0-.195-.395.5.5 0 0 0-.43-.085h-2.789V3.96a.48.48 0 0 0-.144-.347.48.48 0 0 0-.352-.144h-3.203V.69a.504.504 0 0 0-.062-.453.44.44 0 0 0-.176-.152.47.47 0 0 0-.457 0 .5.5 0 0 0-.176.152.5.5 0 0 0-.086.219c-.012.082 0 .16.027.234v2.79h-2.472V.69a.47.47 0 0 0-.149-.347.46.46 0 0 0-.348-.145.48.48 0 0 0-.351.145.48.48 0 0 0-.145.347v2.79H15.47V.69a.46.46 0 0 0-.145-.347.47.47 0 0 0-.347-.145.48.48 0 0 0-.352.145.46.46 0 0 0-.145.347v2.79h-2.472V.69a.5.5 0 0 0-.477-.625.5.5 0 0 0-.219.055.44.44 0 0 0-.175.14.45.45 0 0 0-.09.208.43.43 0 0 0 .008.222v2.79H8.582V.69a.5.5 0 0 0-.086-.43.44.44 0 0 0-.176-.14.47.47 0 0 0-.437 0 .5.5 0 0 0-.258.57v2.79h-3.23c-.137 0-.25.05-.348.144a.48.48 0 0 0-.145.352v3.218H1.125a.5.5 0 0 0-.223-.008.497.497 0 1 0 .223.965h2.793v2.473H1.125a.45.45 0 0 0-.227-.012.486.486 0 0 0-.352.266.47.47 0 0 0 0 .441q.053.106.145.176a.6.6 0 0 0 .207.09.6.6 0 0 0 .227-.012h2.793v2.473H1.125a.48.48 0 0 0-.348.144.47.47 0 0 0-.144.348q0 .205.144.352a.48.48 0 0 0 .348.144h2.793v2.473H1.125a.5.5 0 0 0-.223-.008.497.497 0 1 0 .223.965h2.793v2.473H1.125a.43.43 0 0 0-.223-.008.47.47 0 0 0-.347.265.46.46 0 0 0-.051.22.49.49 0 0 0 .191.39.5.5 0 0 0 .207.093.5.5 0 0 0 .223-.007h2.793v3.218q0 .205.144.352.142.142.348.144H7.63v2.786a.5.5 0 0 0 .086.43c.047.058.105.109.176.14q.1.051.218.05a.49.49 0 0 0 .391-.19.5.5 0 0 0 .086-.43V25.6h2.473v2.79a.45.45 0 0 0-.012.226.486.486 0 0 0 .266.352.5.5 0 0 0 .218.054q.117-.002.223-.054a.486.486 0 0 0 .254-.578V25.6h2.472v2.79q-.001.203.145.347a.48.48 0 0 0 .352.145q.203.001.347-.145a.47.47 0 0 0 .145-.347V25.6h2.472v2.79a.5.5 0 0 0 .258.57.5.5 0 0 0 .223.05.49.49 0 0 0 .39-.19.5.5 0 0 0 .086-.43V25.6h2.473v2.79a.5.5 0 0 0-.008.222.476.476 0 0 0 .266.348c.07.035.14.05.219.05a.5.5 0 0 0 .218-.05.48.48 0 0 0 .266-.348.5.5 0 0 0-.008-.222V25.6h3.219q.205 0 .352-.148a.46.46 0 0 0 .144-.348v-3.207h2.785q.112.047.235.028a.5.5 0 0 0 .218-.086.5.5 0 0 0 .153-.176.47.47 0 0 0 0-.457.5.5 0 0 0-.153-.176.5.5 0 0 0-.453-.062h-2.789v-2.473h2.79a.46.46 0 0 0 .347-.144.46.46 0 0 0 .144-.348.48.48 0 0 0-.144-.352.48.48 0 0 0-.348-.144h-2.789v-2.473h2.79a.46.46 0 0 0 .347-.144.48.48 0 0 0 .144-.352.47.47 0 0 0-.144-.348.46.46 0 0 0-.348-.144h-2.789v-2.473h2.79q.11.031.222.008a.5.5 0 0 0 .351-.707.51.51 0 0 0-.574-.258h-2.789V8.145Zm-10.597.668q.18 0 .316.129a.45.45 0 0 1-.316.77.43.43 0 0 1-.32-.134.45.45 0 0 1 .32-.766m-8.5 11.175a.42.42 0 0 1-.317-.132.42.42 0 0 1-.133-.317q-.001-.187.133-.316a.42.42 0 0 1 .317-.133q.186-.001.32.133a.43.43 0 0 1 .133.316c0 .125-.047.23-.133.317a.43.43 0 0 1-.32.132m15.332-9.058h-2.7a1.4 1.4 0 0 0-.355-.547 1.4 1.4 0 0 0-.563-.328 1.41 1.41 0 0 0-1.668 1.984q.154.298.418.5c.18.133.38.215.598.254q.333.06.652-.039a1.4 1.4 0 0 0 .563-.324q.242-.232.355-.547h2.715v3.766H23.31l-1.903-1.313h-.047a1.39 1.39 0 0 0-.855-.906 1.34 1.34 0 0 0-.633-.082q-.33.033-.605.207c-.188.117-.336.27-.453.453q-.17.282-.204.605a1.42 1.42 0 0 0 .996 1.489q.316.092.637.039c.219-.035.414-.117.594-.246.176-.125.316-.29.422-.48l1.629 1.113a.5.5 0 0 0 .273.082h1.914v8.039h-5.129v-1.832l1.301-1.899a.45.45 0 0 0 .086-.27v-1.152c.207-.078.39-.195.543-.36a1.4 1.4 0 0 0 .11-1.809 1.35 1.35 0 0 0-.497-.417q-.298-.152-.636-.152-.335 0-.633.152a1.41 1.41 0 0 0-.715 1.664c.066.215.172.403.328.563.152.164.336.281.543.36v.988l-1.3 1.902a.48.48 0 0 0-.083.27v1.976h-2.601v-1.828l1.3-1.902a.48.48 0 0 0 .082-.27v-1.137c.211-.078.395-.195.547-.36a1.4 1.4 0 0 0 .367-1.21 1.41 1.41 0 0 0-.757-1.016q-.3-.152-.633-.152-.335 0-.633.152-.3.148-.5.418t-.254.598a1.35 1.35 0 0 0 .04.648q.094.323.323.563c.157.164.336.281.547.36v.988l-1.304 1.902a.5.5 0 0 0-.086.27v1.976h-2.508v-1.828l1.3-1.902a.1.1 0 0 0 0-.047q.316-.1.555-.32a1.414 1.414 0 0 0 .23-1.774 1.36 1.36 0 0 0-.452-.453 1.4 1.4 0 0 0-1.774.234q-.222.241-.32.559a1.4 1.4 0 0 0 .207 1.226q.194.27.48.422l-1.12 1.637a.5.5 0 0 0-.079.27v1.976h-1.742v-3.781q.315-.116.543-.36.226-.24.324-.558.094-.322.035-.649a1.3 1.3 0 0 0-.254-.593c-.132-.18-.3-.317-.496-.418a1.42 1.42 0 0 0-1.261 0q-.299.15-.496.418a1.403 1.403 0 0 0 .105 1.8q.228.245.54.36v3.797H4.874V14.539h.61l1.898 1.3a.46.46 0 0 0 .273.087h1.18q.116.313.355.547.245.229.567.324c.21.066.43.078.648.039a1.393 1.393 0 0 0 1.016-.754q.152-.3.152-.633t-.152-.633a1.41 1.41 0 0 0-2.586.156H7.805l-1.907-1.308a.5.5 0 0 0-.265-.078h-.758v-1.227h1.156a1.42 1.42 0 0 0 .922.871q.319.1.649.04.328-.055.597-.254.27-.2.418-.5.153-.3.153-.633 0-.335-.153-.633a1.41 1.41 0 0 0-1.664-.719 1.4 1.4 0 0 0-.562.328 1.4 1.4 0 0 0-.36.547H5l-.125-.086V4.441h6.688v1.524l-1.301 1.902a.5.5 0 0 0-.082.274v1.175c-.211.079-.395.196-.547.36a1.4 1.4 0 0 0-.367 1.21 1.41 1.41 0 0 0 .757 1.016q.3.153.633.153.335 0 .633-.153.298-.147.496-.418a1.41 1.41 0 0 0 .219-1.246 1.3 1.3 0 0 0-.328-.562 1.4 1.4 0 0 0-.543-.36v-1.03l1.305-1.9a.5.5 0 0 0 .066-.253V4.44h2.508v1.524L13.71 7.867a.1.1 0 0 0 0 .047q-.316.096-.555.32a1.4 1.4 0 0 0-.437 1.168c.02.22.09.418.207.606q.17.279.453.453c.184.113.387.184.605.203.22.024.43-.008.633-.086a1.38 1.38 0 0 0 .852-.91 1.4 1.4 0 0 0-.203-1.23 1.44 1.44 0 0 0-.485-.422l1.117-1.63a.5.5 0 0 0 .067-.253V4.44h1.781v3.493a1.4 1.4 0 0 0-.543.355q-.23.24-.324.563-.093.315-.04.644a1.41 1.41 0 0 0 .755 1.012q.299.15.633.148c.218 0 .43-.047.628-.148q.299-.149.497-.414a1.41 1.41 0 0 0 .218-1.242 1.36 1.36 0 0 0-.324-.563 1.4 1.4 0 0 0-.543-.355V4.44h6.371Zm-3.579.492a.45.45 0 0 1-.453.45.44.44 0 0 1-.316-.13.43.43 0 0 1-.133-.32q-.001-.187.133-.316a.43.43 0 0 1 .316-.133.44.44 0 0 1 .32.117c.09.082.141.188.145.309Zm-1.023 3.336a.44.44 0 0 1-.133.316.43.43 0 0 1-.32.133.43.43 0 0 1-.317-.133.43.43 0 0 1-.132-.316q-.001-.186.133-.32a.44.44 0 0 1 .316-.133.42.42 0 0 1 .32.121.42.42 0 0 1 .145.305Zm-.043 3.39c0-.124.047-.23.133-.316a.43.43 0 0 1 .32-.133c.121 0 .23.043.317.133q.133.13.132.317 0 .186-.132.32a.44.44 0 0 1-.317.129.445.445 0 0 1-.453-.45m-3.559 0q-.001-.186.133-.316a.42.42 0 0 1 .317-.133q.187-.001.316.133.134.13.133.317.001.186-.133.32a.43.43 0 0 1-.316.129.44.44 0 0 1-.325-.125.44.44 0 0 1-.136-.324Zm-3.46 1.387q0-.186.128-.32a.45.45 0 0 1 .32-.129.43.43 0 0 1 .317.129q.134.134.133.32.001.187-.133.317a.42.42 0 0 1-.316.133.42.42 0 0 1-.324-.13.43.43 0 0 1-.137-.32ZM9.71 15.441a.45.45 0 0 1 .453-.449.43.43 0 0 1 .316.13q.134.132.133.32.001.186-.133.316a.42.42 0 0 1-.316.133.454.454 0 0 1-.46-.45Zm-2.8-3.562a.43.43 0 0 1 .128-.316.43.43 0 0 1 .32-.133q.187-.001.317.133.134.127.133.316.001.186-.133.32a.43.43 0 0 1-.317.13.43.43 0 0 1-.324-.126.44.44 0 0 1-.137-.324Zm4.206-1.242q.001.186-.133.32a.45.45 0 0 1-.766-.32.45.45 0 0 1 .45-.45.44.44 0 0 1 .312.137.43.43 0 0 1 .13.313Zm3.461-1.383a.43.43 0 0 1-.129.316.43.43 0 0 1-.32.133.42.42 0 0 1-.316-.133.42.42 0 0 1-.133-.316q-.001-.186.133-.32a.43.43 0 0 1 .316-.13c.121 0 .226.048.312.133q.13.135.13.317Zm0 0"/></g></svg>