<svg xmlns="http://www.w3.org/2000/svg" width="40" height="40" version="1.0" viewBox="0 0 30 30"><defs><clipPath id="a"><path d="M3.133 0H27v29.031H3.133Zm0 0"/></clipPath></defs><g clip-path="url(#a)"><path fill="#fff" d="m20.145 20.793-.688.402c.395-1.289.227-2.703-.516-4-.55-.972-1.382-2.062-2.593-3.402a1.25 1.25 0 0 0-.317-2.188l.578-.578c.239-.238.371-.562.371-.902 0-.344-.132-.664-.37-.906a1.28 1.28 0 0 0-1.54-.203 1.29 1.29 0 0 0-1.234-.946c-.574 0-1.082.395-1.234.946a1.278 1.278 0 0 0-1.54 2.012l.579.577a1.25 1.25 0 0 0-.316 2.188c-1.212 1.34-2.044 2.43-2.595 3.402-.68 1.196-.886 2.453-.609 3.664l-1.855 1.075-.188-.332a.98.98 0 0 0-.605-.473 1 1 0 0 0-.762.094l-1.031.582a1.008 1.008 0 0 0-.379 1.371l3.023 5.344c.133.23.348.398.606.472q.137.036.273.035c.172 0 .34-.043.492-.129l1.028-.582a1.01 1.01 0 0 0 .382-1.37l-.246-.43.454-.262 4.636 1.246q.41.105.809.105a2.9 2.9 0 0 0 1.531-.437l6.656-4.098c.668-.41.883-1.445.45-2.168-.207-.347-1.06-1.382-3.25-.109m-8.075-7.68a.327.327 0 0 1 0-.652h3.532a.327.327 0 0 1 0 .652Zm-.347-3.234a.354.354 0 0 1 .433-.047.88.88 0 0 0 1.34-.555.347.347 0 0 1 .68 0 .88.88 0 0 0 1.34.555.354.354 0 0 1 .433.047.347.347 0 0 1 0 .492l-1.16 1.156h-1.91l-1.156-1.156a.347.347 0 0 1 0-.492m-2.184 7.777c.566-1 1.469-2.152 2.82-3.613h2.954c1.351 1.46 2.25 2.613 2.82 3.613.844 1.48.8 3.07-.11 4.371l-1.546.903a2 2 0 0 1-.227.113c.012-.04.027-.078.035-.121.207-.766-.242-1.567-1.02-1.828q.042-.04.083-.086c.242-.281.347-.633.3-1.02-.093-.765-.68-1.246-1.75-1.418-.824-.136-.835-.441-.843-.554-.02-.434.449-.563.543-.586.386-.086.859.03 1.054.492a.465.465 0 1 0 .86-.36 1.73 1.73 0 0 0-1.227-1.035v-.191a.467.467 0 0 0-.465-.469.467.467 0 0 0-.465.469v.195c-.773.192-1.265.801-1.23 1.528.027.535.328 1.214 1.625 1.43.813.132.95.398.973.613.015.125-.008.214-.078.296-.141.16-.454.274-.778.282a1.4 1.4 0 0 1-.332-.032q-.094-.032-.187-.062a.73.73 0 0 1-.45-.504.463.463 0 0 0-.562-.34.47.47 0 0 0-.348.367c-.18-.066-.355-.129-.508-.18-.945-.304-1.793.036-2.503.434-.133-.89.054-1.816.562-2.707m-1.273 9.848-1.028.582a.08.08 0 0 1-.058.008.07.07 0 0 1-.043-.035l-3.024-5.344c-.015-.02-.011-.043-.008-.055a.07.07 0 0 1 .036-.047l1.027-.582q.018-.007.035-.008.013-.001.02.004a.07.07 0 0 1 .047.032l3.023 5.343a.076.076 0 0 1-.027.102m14.191-5.227-6.656 4.094a1.97 1.97 0 0 1-1.61.227l-4.824-1.293a.47.47 0 0 0-.355.047l-.61.351-1.675-2.96L9.34 21.23c.797-.46 1.332-.582 1.851-.414.22.07.477.164.774.274.324.117.683.246 1.058.37q.123.048.258.083c.54.172 1.117.332 1.707.441.305.114.477.407.399.696-.032.117-.125.465-.692.402-.53-.11-1.039-.254-1.578-.41a54 54 0 0 0-.797-.223.466.466 0 0 0-.242.899c.266.074.531.148.785.222.563.16 1.094.309 1.668.43h.016l.457.074c.715.117 1.351.004 1.941-.34l3.668-2.136c.965-.563 1.727-.645 1.98-.215.188.312.079.758-.136.894m-17.059.664a.37.37 0 0 1-.312.418.366.366 0 0 1-.414-.312.363.363 0 0 1 .308-.414c.2-.031.387.11.418.308M26.695 6.004 23.672.66A1.005 1.005 0 0 0 22.3.281l-1.028.582a1 1 0 0 0-.472.606 1 1 0 0 0 .094.765l.242.43-.45.258-4.64-1.242a2.92 2.92 0 0 0-2.34.332L7.055 6.109c-.672.41-.887 1.442-.453 2.164.21.348 1.058 1.387 3.25.11L13.52 6.25c.074-.047.152-.082.226-.117l-.035.12c-.207.774.25 1.579 1.039 1.837.02.004.04.012.059.012 1.043.191 2.078.562 2.906.863.293.105.566.207.805.281.253.082.5.117.742.117.691 0 1.32-.293 1.863-.61l2.605-1.507.188.328a1 1 0 0 0 .875.512c.168 0 .34-.043.496-.129l1.027-.582a1 1 0 0 0 .473-.61 1 1 0 0 0-.094-.761M20.66 7.945c-.8.465-1.336.582-1.855.414-.22-.07-.477-.164-.774-.27-.851-.308-1.914-.69-3.02-.898-.308-.109-.48-.406-.402-.695.032-.113.125-.465.692-.398.531.109 1.039.254 1.578.406.258.074.523.152.8.223q.059.018.122.02a.467.467 0 0 0 .117-.918c-.266-.071-.531-.145-.785-.22-.563-.16-1.094-.312-1.668-.43h-.008q-.004-.004-.008-.003l-.457-.074c-.715-.114-1.351-.004-1.941.343L9.383 7.578c-.965.563-1.723.645-1.98.219-.188-.313-.079-.762.14-.895l6.652-4.097c.492-.305 1.035-.38 1.61-.227l4.824 1.293c.121.035.25.016.355-.047l.61-.351 1.676 2.96Zm5.23-1.425a.07.07 0 0 1-.035.043l-1.027.582a.076.076 0 0 1-.101-.028l-2.555-4.515-.469-.829a.07.07 0 0 1-.004-.054.07.07 0 0 1 .031-.047l1.032-.582c.031-.02.082-.004.097.027l3.028 5.344a.08.08 0 0 1 .004.059m-.562-.391a.375.375 0 0 1-.312.418.37.37 0 0 1-.418-.313.369.369 0 0 1 .73-.105m-3.293 4.059v4.917l.32-.41a.466.466 0 0 1 .734.57l-1.155 1.477a.46.46 0 0 1-.368.18.47.47 0 0 1-.367-.18l-1.152-1.476a.466.466 0 0 1 .734-.57l.32.41v-4.918a.466.466 0 0 1 .934 0m0 0"/></g></svg>