<svg xmlns="http://www.w3.org/2000/svg" width="40" height="40" version="1.0" viewBox="0 0 30 30"><defs><clipPath id="a"><path d="M1 9h15v20.031H1Zm0 0"/></clipPath><clipPath id="b"><path d="M19 19h10.043v10.031H19Zm0 0"/></clipPath><clipPath id="c"><path d="M19 8h10.043v11H19Zm0 0"/></clipPath><clipPath id="d"><path d="M.738 0H11v10H.738Zm0 0"/></clipPath></defs><g clip-path="url(#a)"><path fill="#fff" d="M14.285 16.074H9.531v-.52c.547-.148.953-.644.953-1.242v-.882l.54-.16a.26.26 0 0 0 .144-.122.25.25 0 0 0 .016-.183l-.043-.137c1.058-.379 2.57-1.062 2.39-1.793-.168-.703-1.707-.691-3.156-.496a1.82 1.82 0 0 0-1.633-1.02q-.241.001-.476.067a1.82 1.82 0 0 0-1.348 1.758v.027c-.457.168-.875.34-1.23.52-.899.457-1.31.89-1.208 1.293.114.476.84.613 1.66.613.255 0 .524-.012.782-.035v.168c0 .437.305.812.715.918v1.218H2.879a1.658 1.658 0 0 0-1.664 1.664v7.961c0 .954.594 1.766 1.426 2.098v.988a.24.24 0 0 0 .238.239h11.406a.24.24 0 0 0 .238-.239v-2.074q.358-.189.649-.476a2.63 2.63 0 0 0 .777-1.883v-6.606c0-.918-.75-1.664-1.664-1.664M7.09 12.281a.24.24 0 0 0-.172.227v.785c-1.438.125-1.957-.11-1.98-.207-.012-.055.113-.336.964-.762.746-.383 1.782-.738 2.91-1.004 1.126-.27 2.208-.418 3.043-.418h.012c.95 0 1.188.196 1.2.246.03.118-.438.641-2.075 1.23l-.285-.898a.23.23 0 0 0-.289-.156Zm.777 4.266a.236.236 0 0 0 .238-.235v-1.664a.237.237 0 0 0-.238-.238.475.475 0 0 1-.472-.476.475.475 0 0 1 .847-.297c.043.054.11.082.172.09a.25.25 0 0 0 .184-.07 1.6 1.6 0 0 0 .328-.477c.304.25.691.375 1.082.351v.781a.81.81 0 0 1-.809.81c-.113 0-.219-.017-.328-.048a.233.233 0 0 0-.297.156.236.236 0 0 0 .156.297c.106.036.215.051.329.063v.723c0 .128.105.234.234.234h.387l-.07.215a1.08 1.08 0 0 1-2.051 0l-.07-.215Zm-.883 0 .118.363a1.544 1.544 0 0 0 1.473 1.063 1.56 1.56 0 0 0 1.48-1.063l.12-.363h.993l-.305 3.328h-4.57l-.3-3.328Zm-.464 3.805h5.23l-.703 3.68a.9.9 0 0 0-.719-.352h-.082c-.11 0-.203.07-.234.175l-.188.774H5.72Zm-4.832-2.614c0-.316.125-.62.351-.84a1.18 1.18 0 0 1 .84-.351h1.68L5 21.39l-.465.367v-2.352a.24.24 0 0 0-.238-.238.24.24 0 0 0-.238.238v1.895H1.688Zm10.609 7.645-.317 1.902a.234.234 0 0 1-.23.195H3.473c-.98 0-1.785-.8-1.785-1.78v-3.923h2.378v3.09a.24.24 0 0 0 .239.238h5.703c.105 0 .203-.07.23-.18l.192-.757a.5.5 0 0 1 .25.152.43.43 0 0 1 .078.375l-.031.114a.231.231 0 0 0 .23.29l1.106-.001q.113.001.18.086a.25.25 0 0 1 .054.199m3.176-1.031c0 .582-.223 1.132-.641 1.543a2.17 2.17 0 0 1-2.227.53l.16-.964a.7.7 0 0 0-.16-.574.7.7 0 0 0-.546-.25h-.637l.18-.942 1.168.453q.045.019.085.02a.26.26 0 0 0 .137-.043.24.24 0 0 0 .098-.195v-2.14h2.379v2.562Zm0-3.051h-2.375V18.93a.238.238 0 0 0-.477 0v2.883l-.574-.446.23-1.207v-.023l.328-3.59h1.68c.652 0 1.188.535 1.188 1.191Zm0 0"/></g><g clip-path="url(#b)"><path fill="#fff" d="M24.27 19.031a5 5 0 0 0-4.993 4.992 5 5 0 0 0 4.993 4.993 5 5 0 0 0 4.992-4.993 5 5 0 0 0-4.992-4.992m0 9.508a4.52 4.52 0 0 1-4.516-4.516 4.52 4.52 0 0 1 4.516-4.515 4.523 4.523 0 0 1 4.515 4.515 4.523 4.523 0 0 1-4.515 4.516m0 0"/></g><g clip-path="url(#c)"><path fill="#fff" d="M19.277 13.09a5 5 0 0 0 4.993 4.992 5 5 0 0 0 4.992-4.992 5 5 0 0 0-4.992-4.992 5 5 0 0 0-4.993 4.992m4.993-4.516a4.523 4.523 0 0 1 4.515 4.516 4.523 4.523 0 0 1-4.515 4.515 4.52 4.52 0 0 1-4.516-4.515 4.52 4.52 0 0 1 4.516-4.516m0 0"/></g><path fill="#fff" d="M16.664 10a4.995 4.995 0 0 0 4.988-4.992A5 5 0 0 0 16.664.016a5 5 0 0 0-4.992 4.992A4.996 4.996 0 0 0 16.664 10m0-9.508a4.523 4.523 0 0 1 4.516 4.516 4.52 4.52 0 0 1-4.516 4.515 4.52 4.52 0 0 1-4.516-4.515A4.52 4.52 0 0 1 16.664.492m0 0"/><g clip-path="url(#d)"><path fill="#fff" d="M5.73 10a4.995 4.995 0 0 0 4.989-4.992A5 5 0 0 0 5.73.016 5 5 0 0 0 .738 5.008 4.996 4.996 0 0 0 5.73 10m0-9.508a4.523 4.523 0 0 1 4.516 4.516A4.52 4.52 0 0 1 5.73 9.523a4.52 4.52 0 0 1-4.515-4.515A4.52 4.52 0 0 1 5.73.492m0 0"/></g><path fill="#fff" d="M2.879 7.625h5.703c.129 0 .238-.11.238-.238V2.633a.25.25 0 0 0-.133-.215L5.837.992a.23.23 0 0 0-.215 0L2.77 2.418a.25.25 0 0 0-.13.215v4.754a.24.24 0 0 0 .239.238m2.375-.477h-.95v-.707l.184-.046c.301-.079.563-.239.766-.457Zm1.426 0h-.95v-.707l.184-.046c.3-.079.563-.239.766-.457Zm1.664 0H7.156v-.707l.184-.046a1.53 1.53 0 0 0 1.004-.817Zm-5.23-4.367L5.73 1.473 8.344 2.78v1.914a.2.2 0 0 0-.082-.02c-.43 0-.828.18-1.106.477v-.601l.07-.262c.079-.285.044-.57-.101-.809a1.16 1.16 0 0 0-.723-.523.24.24 0 0 0-.27.113c-.16.285-.206.602-.124.887.078.266.262.492.52.629l.152.09v.008c-.367.035-.7.207-.95.46v-.593l.07-.262c.079-.285.044-.57-.1-.809-.15-.253-.403-.437-.727-.523a.236.236 0 0 0-.266.113c-.16.285-.207.602-.125.887.078.266.262.492.516.629l.156.09v.008a1.53 1.53 0 0 0-.95.46v-.593l.071-.262c.078-.285.043-.57-.102-.809-.148-.253-.402-.437-.726-.523a.236.236 0 0 0-.266.113c-.16.285-.207.602-.125.887.078.266.262.492.516.629l.156.09v2.472h-.715ZM16.664 8.574a2.616 2.616 0 0 0 2.613-2.613c0-1.379-2.328-4.305-2.43-4.43a.26.26 0 0 0-.183-.086.25.25 0 0 0-.187.086c-.098.125-2.43 3.051-2.43 4.43a2.617 2.617 0 0 0 2.617 2.613m.414-4.683a.24.24 0 0 1 .332.066c.567.824.852 1.469.852 1.902q-.002.344-.121.664a.24.24 0 0 1-.223.157c-.031 0-.055-.008-.086-.012a.24.24 0 0 1-.14-.305q.088-.241.09-.5c0-.324-.274-.906-.77-1.633a.257.257 0 0 1 .066-.34m-.414 3.257a1 1 0 0 0 .402-.09.24.24 0 0 1 .317.118c.05.12 0 .261-.121.316-.188.082-.39.133-.598.133a.24.24 0 0 1-.238-.238c0-.133.105-.239.238-.239M24.98 24.898v-4.203a.714.714 0 0 0-1.425 0v4.203c-.606.286-.98.903-.95 1.586.04.832.723 1.528 1.555 1.575l.11.003c.425 0 .824-.16 1.132-.449.332-.316.524-.754.524-1.215a1.64 1.64 0 0 0-.946-1.5m.102 2.372a1.22 1.22 0 0 1-.89.32 1.195 1.195 0 0 1-1.11-1.125 1.19 1.19 0 0 1 .79-1.184.24.24 0 0 0 .16-.222v-3.176h.476v3.176c0 .101.062.187.16.222.473.168.789.621.789 1.125 0 .328-.129.637-.375.864m0 0"/><path fill="#fff" d="M24.98 26.398q0 .299-.207.508a.7.7 0 0 1-.503.207q-.3 0-.504-.207a.7.7 0 0 1-.211-.508q0-.293.21-.503a.69.69 0 0 1 .505-.207.7.7 0 0 1 .503.207.7.7 0 0 1 .207.503M26.277 22.621l-.476-.238a.24.24 0 0 0-.215.43l.476.238q.052.023.11.023c.086 0 .172-.05.21-.133a.24.24 0 0 0-.105-.32M25.695 20.934q.052 0 .106-.024l.476-.238a.24.24 0 0 0 .106-.32.23.23 0 0 0-.32-.106l-.477.234a.244.244 0 0 0-.106.325.24.24 0 0 0 .215.129M26.406 21.41h-.71a.237.237 0 1 0 0 .473h.71a.236.236 0 1 0 0-.473M20.941 15.23h5.23c.13 0 .235-.109.235-.238 0-.363-.086-.703-.242-1.012a1.68 1.68 0 0 0 .719-1.367 1.67 1.67 0 0 0-1.664-1.664c-.653 0-1.235.383-1.508.965a1 1 0 0 0-.156-.012c-.528 0-1.008.297-1.242.766l-.094.191a1.66 1.66 0 0 0-1.516 1.657v.476a.24.24 0 0 0 .238.238m4.278-3.804c.652 0 1.187.535 1.187 1.187 0 .395-.187.75-.504.969a2.2 2.2 0 0 0-.992-.687l-.113-.227a1.37 1.37 0 0 0-.625-.625c.21-.375.601-.617 1.047-.617M27.3 12.613c0 .133.106.239.235.239h.715a.24.24 0 0 0 .238-.239.24.24 0 0 0-.238-.234h-.715a.235.235 0 0 0-.234.234M25.219 10.477a.24.24 0 0 0 .238-.239v-.715a.238.238 0 0 0-.477 0v.715c0 .13.11.239.239.239M23.39 11.117a.23.23 0 0 0 .333 0 .24.24 0 0 0 0-.34l-.477-.472a.234.234 0 0 0-.34 0 .236.236 0 0 0 0 .336ZM27.055 14.113a.234.234 0 0 0-.34 0 .236.236 0 0 0 0 .336l.465.465q.072.07.168.07a.23.23 0 0 0 .164-.07.234.234 0 0 0 0-.34ZM26.883 11.188a.25.25 0 0 0 .168-.07l.472-.477a.23.23 0 0 0 0-.336.23.23 0 0 0-.335 0l-.477.472a.24.24 0 0 0 0 .34q.083.07.172.07M15.473 14.895q0 .239-.235.238-.239.001-.238-.238-.001-.235.238-.235.235 0 .235.235M15.238 13.707c-.316 0-.62.125-.84.352a.24.24 0 0 0 .34.34.703.703 0 0 1 1.008 0c.05.046.11.07.168.07a.24.24 0 0 0 .168-.41 1.18 1.18 0 0 0-.844-.352m0 0"/><path fill="#fff" d="M15.238 12.758a2.12 2.12 0 0 0-1.515.625.23.23 0 0 0 0 .336.23.23 0 0 0 .336 0 1.66 1.66 0 0 1 1.18-.485c.445 0 .859.172 1.175.485a.24.24 0 0 0 .164.074.24.24 0 0 0 .168-.074.236.236 0 0 0 0-.336 2.1 2.1 0 0 0-1.508-.625m0 0"/><path fill="#fff" d="M15.238 11.805c-.828 0-1.601.324-2.187.906a.23.23 0 0 0 0 .336.23.23 0 0 0 .336 0 2.62 2.62 0 0 1 3.699 0 .22.22 0 0 0 .164.074.23.23 0 0 0 .168-.074.236.236 0 0 0 0-.336 3.07 3.07 0 0 0-2.18-.906M7.629 21.41c0 .156-.078.238-.234.238-.16 0-.239-.082-.239-.238q-.001-.239.239-.238.234-.001.234.238m0 0"/></svg>