<svg xmlns="http://www.w3.org/2000/svg" width="40" height="40" version="1.0" viewBox="0 0 30 30"><defs><clipPath id="a"><path d="M.484 1.941h29.032v25.403H.484Zm0 0"/></clipPath></defs><g clip-path="url(#a)"><path fill="#061c3d" fill-rule="evenodd" d="M24.21 2c-.378 0-.726.152-.983.43a.39.39 0 0 1-.282.117.38.38 0 0 1-.27-.129 1.344 1.344 0 0 0-2.155 1.594.37.37 0 0 1-.278.566.916.916 0 1 0 .996.91.9.9 0 0 0-.074-.351.367.367 0 0 1 .371-.512c.043 0 .078.004.117.004.375 0 .727-.152.985-.43a.36.36 0 0 1 .277-.117.38.38 0 0 1 .273.129 1.34 1.34 0 0 0 1.532.375.368.368 0 0 1 .492.23 2.18 2.18 0 0 0 2.09 1.532 2.192 2.192 0 0 0 0-4.383c-.555 0-1.086.21-1.492.59a.38.38 0 0 1-.282.097.37.37 0 0 1-.261-.14A1.34 1.34 0 0 0 24.21 2M12.677 9.8v1.74h.738V9.8a.368.368 0 1 0-.738 0m-1.754 0v1.74h.738V9.8a.368.368 0 1 0-.738 0m-4.426 7.75v-1.73a.367.367 0 0 0-.367-.367.37.37 0 0 0-.371.367v1.73Zm22.969 8.473H4.344v1.063h25.12Zm-5.477-3.37h-7.324l-.61 2.628h8.516Zm-.379-1.735h-6.543l-.234.996h6.996Zm-.57-2.574H17.66l-.426 1.836h6.211Zm-.383-1.735h-4.593l-.231.996h5.043Zm5.946-1.68v10.352h-3.274L23.047 14.93Zm-1.364 4.384h-.062a.37.37 0 0 0-.371.37v.063a.37.37 0 0 0 .37.367h.063a.37.37 0 0 0 .371-.367v-.062a.37.37 0 0 0-.37-.372m0 1.738h-.062a.37.37 0 0 0-.371.367v.062a.37.37 0 0 0 .37.372h.063a.37.37 0 0 0 .371-.372v-.062a.37.37 0 0 0-.37-.367m-.433 2.105v.063a.37.37 0 0 0 .37.367h.063a.367.367 0 0 0 .367-.367v-.063a.37.37 0 0 0-.367-.37h-.062a.373.373 0 0 0-.371.37m0-5.21v.062a.37.37 0 0 0 .37.37h.063a.37.37 0 0 0 .367-.37v-.063a.37.37 0 0 0-.367-.37h-.062a.373.373 0 0 0-.371.37m.804-1.739a.37.37 0 0 0-.37-.367h-.063a.37.37 0 0 0-.371.367v.066a.37.37 0 0 0 .37.368h.063a.37.37 0 0 0 .371-.368Zm-2.125 6.578a.37.37 0 0 0-.37.371v.063a.37.37 0 0 0 .37.37h.063a.37.37 0 0 0 .367-.37v-.063a.37.37 0 0 0-.367-.37Zm0-1.734a.37.37 0 0 0-.37.367v.062c0 .207.163.372.37.372h.063a.37.37 0 0 0 .367-.372v-.062a.367.367 0 0 0-.367-.367Zm0-1.738a.37.37 0 0 0-.37.37v.063c0 .203.163.367.37.367h.063a.367.367 0 0 0 .367-.367v-.062a.37.37 0 0 0-.367-.372Zm0-1.739a.37.37 0 0 0-.37.371v.063a.37.37 0 0 0 .37.37h.063a.37.37 0 0 0 .367-.37v-.063a.37.37 0 0 0-.367-.37Zm.063-1.734h-.063a.37.37 0 0 0-.37.367v.066a.37.37 0 0 0 .37.368h.063a.367.367 0 0 0 .367-.368v-.066a.367.367 0 0 0-.367-.367M6.407 3.012c1.94 0 3.796.718 5.23 2.027a.362.362 0 0 0 .52-.023.37.37 0 0 0-.02-.524 8.5 8.5 0 0 0-5.73-2.219c-2.126 0-4.16.79-5.731 2.22a.37.37 0 0 0 .496.547 7.75 7.75 0 0 1 5.234-2.028m0 2.332a5.42 5.42 0 0 0-3.66 1.418.37.37 0 0 1-.524-.024.374.374 0 0 1 .023-.523 6.18 6.18 0 0 1 8.32 0 .37.37 0 0 1 .02.523.366.366 0 0 1-.52.024 5.42 5.42 0 0 0-3.66-1.418m0 2.336c.773 0 1.515.285 2.09.808.07.063.155.094.245.094.102 0 .2-.039.274-.121a.366.366 0 0 0-.024-.52 3.82 3.82 0 0 0-2.586-1.003c-.96 0-1.879.355-2.586 1.003a.367.367 0 1 0 .496.543 3.1 3.1 0 0 1 2.09-.804m-.77 3.097a.768.768 0 1 1 1.535.005.768.768 0 0 1-1.535-.005m.77 1.508c.827 0 1.507-.676 1.507-1.508a1.508 1.508 0 0 0-3.016 0c0 .832.676 1.508 1.508 1.508m3.663 12.996v-6.988H5.637v6.988Zm-1.324-6.027c.207 0 .371.164.371.367v.063a.37.37 0 0 1-.37.37h-.06a.37.37 0 0 1-.37-.37v-.063a.37.37 0 0 1 .37-.367Zm0 1.734a.37.37 0 0 1 .371.371v.063a.37.37 0 0 1-.37.371h-.06a.373.373 0 0 1-.37-.371v-.063c0-.203.167-.37.37-.37Zm0 1.739c.207 0 .371.164.371.367v.066a.37.37 0 0 1-.37.367h-.06a.37.37 0 0 1-.37-.367v-.066a.37.37 0 0 1 .37-.367Zm-1.297.367v.062a.37.37 0 0 1-.367.371H7.02a.37.37 0 0 1-.368-.37v-.063c0-.203.164-.367.368-.367h.062c.203 0 .367.164.367.367m0-1.735v.063a.367.367 0 0 1-.367.367H7.02a.367.367 0 0 1-.368-.367v-.063c0-.207.164-.37.368-.37h.062c.203 0 .367.163.367.37m0-1.738v.063a.37.37 0 0 1-.367.37H7.02a.37.37 0 0 1-.368-.37v-.063a.37.37 0 0 1 .368-.371h.062a.373.373 0 0 1 .367.371m7.844 5.66h-4.484V12.285h7.496Zm-1.434-8.558a.37.37 0 0 0-.367.37v.063c0 .203.164.367.367.367h.063a.37.37 0 0 0 .371-.367v-.062a.37.37 0 0 0-.371-.371Zm1.325 3.906c0 .203.168.371.37.371h.06a.373.373 0 0 0 .37-.371v-.063a.37.37 0 0 0-.37-.37h-.06a.373.373 0 0 0-.37.37Zm-1.692-5.274v.063a.37.37 0 0 0 .367.371h.063a.373.373 0 0 0 .371-.371v-.063a.373.373 0 0 0-.371-.37h-.063a.37.37 0 0 0-.367.37m1.692 3.536a.37.37 0 0 0 .37.37h.06a.37.37 0 0 0 .37-.37v-.063a.37.37 0 0 0-.37-.367h-.06a.37.37 0 0 0-.37.367Zm0-1.735a.37.37 0 0 0 .37.367h.06a.37.37 0 0 0 .37-.367v-.062a.37.37 0 0 0-.37-.371h-.06a.37.37 0 0 0-.37.37Zm-1.325-3.105h.063a.37.37 0 0 0 .371-.367v-.067a.37.37 0 0 0-.371-.367h-.063a.367.367 0 0 0-.367.367v.067c0 .203.164.367.367.367m1.325 1.367c0 .203.168.371.37.371h.06a.373.373 0 0 0 .37-.371v-.063a.373.373 0 0 0-.37-.37h-.06a.373.373 0 0 0-.37.37Zm0-1.734a.37.37 0 0 0 .37.367h.06a.37.37 0 0 0 .37-.367v-.067a.37.37 0 0 0-.37-.367h-.06a.37.37 0 0 0-.37.367Zm-1.692 10.418c0 .207.164.37.367.37h.063a.37.37 0 0 0 .371-.37v-.063a.373.373 0 0 0-.371-.371h-.063a.37.37 0 0 0-.367.371Zm0-1.735c0 .203.164.367.367.367h.063a.37.37 0 0 0 .371-.367v-.066a.37.37 0 0 0-.371-.367h-.063a.367.367 0 0 0-.367.367Zm0-1.738a.37.37 0 0 0 .367.371h.063a.373.373 0 0 0 .371-.371v-.063a.37.37 0 0 0-.371-.37h-.063a.37.37 0 0 0-.367.37Zm0-1.738c0 .207.164.37.367.37h.063a.37.37 0 0 0 .371-.37v-.063a.37.37 0 0 0-.371-.367h-.063a.367.367 0 0 0-.367.367ZM12.23 13.25h-.062a.37.37 0 0 0-.371.367v.067a.37.37 0 0 0 .371.367h.062a.37.37 0 0 0 .372-.367v-.067a.37.37 0 0 0-.372-.367m0 1.734h-.062a.373.373 0 0 0-.371.371v.063c0 .203.168.371.371.371h.062a.373.373 0 0 0 .372-.371v-.063a.373.373 0 0 0-.372-.37m0 1.739h-.062a.37.37 0 0 0-.371.37v.063a.37.37 0 0 0 .371.367h.062a.37.37 0 0 0 .372-.367v-.062a.37.37 0 0 0-.372-.371m-.062 1.738a.37.37 0 0 0-.371.367v.063a.37.37 0 0 0 .371.37h.062a.37.37 0 0 0 .372-.37v-.063a.37.37 0 0 0-.372-.367Zm-.371 2.105v.063c0 .203.168.371.371.371h.062a.373.373 0 0 0 .372-.371v-.063a.37.37 0 0 0-.372-.37h-.062a.373.373 0 0 0-.371.37m0 1.735v.066a.37.37 0 0 0 .371.367h.062a.37.37 0 0 0 .372-.367v-.066a.37.37 0 0 0-.372-.367h-.062a.37.37 0 0 0-.371.367m0 1.738v.063a.37.37 0 0 0 .371.37h.062a.37.37 0 0 0 .372-.37v-.063a.373.373 0 0 0-.372-.371h-.062a.373.373 0 0 0-.371.371m5.078-10.355a.37.37 0 0 0 .371.367h.063a.37.37 0 0 0 .37-.367v-.067a.37.37 0 0 0-.37-.367h-.063a.37.37 0 0 0-.371.367Zm5.621 2.187-1.539-6.976h-1.105l-1.618 6.976Zm0 0"/></g></svg>