<svg xmlns="http://www.w3.org/2000/svg" width="40" height="40" version="1.0" viewBox="0 0 30 30"><defs><clipPath id="a"><path d="M.484 4.246h29.032V24.57H.484Zm0 0"/></clipPath></defs><g clip-path="url(#a)"><path fill="#061c3d" fill-rule="evenodd" d="M10.152 20.105a1.757 1.757 0 0 0 .493-3.44.38.38 0 0 1-.27-.395q.012-.128.012-.262a3.38 3.38 0 0 0-3.38-3.375 3.4 3.4 0 0 0-3.148 2.156.38.38 0 0 1-.441.23 1 1 0 0 0-.234-.03.962.962 0 0 0-.926 1.202.38.38 0 0 1-.266.461 1.757 1.757 0 0 0 .457 3.453h1.242v2.973h-.675a1.3 1.3 0 0 0-1.235-.902 1.292 1.292 0 1 0 1.239 1.66h1.046a.38.38 0 0 0 .38-.379v-3.352h1.476v2.125a1.3 1.3 0 0 0-.914 1.239 1.292 1.292 0 1 0 2.586 0 1.3 1.3 0 0 0-.914-1.239v-2.125h1.476v3.352a.38.38 0 0 0 .38.379h1.042c.16.535.656.926 1.242.926a1.292 1.292 0 1 0 0-2.586c-.578 0-1.066.379-1.234.902H8.91v-2.973Zm10.016.754h-4.125v1.743a.38.38 0 0 1-.203.335l-1.332.692q-.054.03-.11.058c-.324.165-.402.223-.402.32 0 .188.152.34.34.34h7.543a.34.34 0 0 0 .336-.34c0-.097-.074-.155-.402-.32q-.052-.029-.11-.058l-1.332-.692a.38.38 0 0 1-.203-.335Zm-7.922-3.886a2.53 2.53 0 0 0-1.105-.934v-.031a4.137 4.137 0 0 0-4.133-4.133 3 3 0 0 0-.313.016V4.559c0-.16.13-.293.293-.293h22.239c.16 0 .293.132.293.293v12.414Zm4.942-2.47c.167 0 .32-.112.363-.284l1.84-7.008a.378.378 0 0 0-.73-.191l-1.84 7.007a.385.385 0 0 0 .366.477m3.718-.687c.098 0 .192-.039.266-.113l2.812-2.816a.384.384 0 0 0 0-.535l-2.812-2.817a.377.377 0 0 0-.535 0 .384.384 0 0 0 0 .535l2.547 2.551-2.547 2.55a.38.38 0 0 0 .27.645m-5.597 0a.38.38 0 0 1-.27-.113l-2.809-2.816a.377.377 0 0 1 0-.535l2.81-2.817a.377.377 0 0 1 .534 0 .377.377 0 0 1 0 .535l-2.543 2.551 2.543 2.55a.373.373 0 0 1 0 .532.38.38 0 0 1-.265.113m-2.645 4.532q0-.316-.082-.621H29.52v2.085c0 .16-.133.293-.293.293H11.945a2.52 2.52 0 0 0 .72-1.757m4.32.57c0 .207.172.375.38.375h1.484a.377.377 0 1 0 0-.754h-1.485a.38.38 0 0 0-.379.379M1.781 22.93a.54.54 0 0 1 0 1.078.54.54 0 0 1 0-1.078m3.98.539a.54.54 0 0 1 1.079 0 .54.54 0 0 1-1.078 0m5.06.539a.54.54 0 0 1 0-1.078.54.54 0 0 1 0 1.078M8.483 18.82a.384.384 0 0 1-.515-.129 1.92 1.92 0 0 0-1.653-.933c-.68 0-1.296.347-1.648.933a.384.384 0 0 1-.52.13.377.377 0 0 1-.128-.52 2.66 2.66 0 0 1 2.296-1.297c.95 0 1.805.484 2.297 1.297.11.18.051.41-.129.52m-1.129.239c.11.175.051.41-.125.515a.38.38 0 0 1-.52-.125.46.46 0 0 0-.79 0 .37.37 0 0 1-.322.18.375.375 0 0 1-.32-.57c.218-.364.617-.59 1.038-.59s.825.226 1.04.59m2.516-1.516c.106.18.047.41-.129.52a.378.378 0 0 1-.52-.129 3.37 3.37 0 0 0-2.906-1.641 3.37 3.37 0 0 0-2.906 1.64.38.38 0 0 1-.52.13.38.38 0 0 1-.124-.52 4.11 4.11 0 0 1 3.55-2.008c1.465 0 2.793.75 3.555 2.008m0 0"/></g></svg>