<svg xmlns="http://www.w3.org/2000/svg" width="40" height="40" version="1.0" viewBox="0 0 30 30"><defs><clipPath id="a"><path d="M.484 4.191h29.032v20.325H.484Zm0 0"/></clipPath></defs><g clip-path="url(#a)"><path fill="#061c3d" d="M9.992 17.605a.357.357 0 0 1-.308.547.36.36 0 0 1-.309-.172 3.22 3.22 0 0 0-2.777-1.57 3.22 3.22 0 0 0-2.782 1.57.357.357 0 0 1-.496.122.364.364 0 0 1-.12-.497 3.95 3.95 0 0 1 3.398-1.918 3.94 3.94 0 0 1 3.394 1.918m-3.394-.515a2.55 2.55 0 0 0-2.196 1.238.357.357 0 0 0 .121.496c.172.106.391.051.497-.12.335-.56.925-.892 1.578-.892.648 0 1.238.333 1.578.891a.36.36 0 0 0 .496.121.364.364 0 0 0 .121-.496 2.55 2.55 0 0 0-2.195-1.238m0 1.402c-.407 0-.785.215-.996.563a.366.366 0 0 0 .12.496c.06.035.126.05.188.05a.36.36 0 0 0 .309-.175.44.44 0 0 1 .379-.211c.152 0 .297.078.375.21a.36.36 0 0 0 .496.126.36.36 0 0 0 .12-.496 1.16 1.16 0 0 0-.991-.563m22.906-13.3v14.581c0 .555-.45 1.004-1.004 1.004h-7.937v1.446l1.078.562q.051.026.097.05c.332.165.782.395.782.954 0 .574-.47 1.043-1.043 1.043h-7.215a1.045 1.045 0 0 1-1.043-1.043c0-.559.449-.789.781-.953q.046-.026.098-.05l1.078-.563v-1.446H9.078v2.121h.645a1.239 1.239 0 0 1 2.418.375 1.238 1.238 0 0 1-2.426.348h-1c-.2 0-.36-.164-.36-.363v-2.48H6.941v1.312c.508.152.875.625.875 1.18 0 .683-.554 1.238-1.234 1.238a1.237 1.237 0 0 1-.363-2.418v-1.313h-1.41v2.48c0 .2-.164.364-.364.364h-1a1.237 1.237 0 1 1-.008-.723h.649v-2.12H2.898a2.406 2.406 0 0 1-2.402-2.403c0-.973.59-1.84 1.469-2.21v-.083c0-.902.734-1.64 1.637-1.64q.045.002.086.003a4 4 0 0 1 2.546-2.12V5.19c0-.55.45-1 1.004-1H28.5c.555 0 1.004.45 1.004 1M2.774 23.272a.515.515 0 1 0-1.03 0 .515.515 0 0 0 1.03 0m3.808-.515a.515.515 0 1 0-.001 1.03.515.515 0 0 0 .001-1.03m3.805.515c0 .282.23.516.515.516a.515.515 0 1 0-.516-.516M6.957 12.2q.151-.012.3-.011c2.18 0 3.95 1.773 3.95 3.949v.031c.438.191.805.504 1.059.895H28.78V5.19a.28.28 0 0 0-.281-.277H7.238a.28.28 0 0 0-.281.277Zm-4.059 7.856h7.364c.925 0 1.68-.754 1.68-1.68 0-.738-.497-1.402-1.208-1.61a.366.366 0 0 1-.257-.374q.01-.125.011-.25c0-1.782-1.449-3.23-3.23-3.23a3.25 3.25 0 0 0-3.012 2.062.36.36 0 0 1-.422.218.922.922 0 0 0-1.11 1.125.357.357 0 0 1-.253.438c-.73.2-1.242.867-1.242 1.621 0 .926.754 1.68 1.68 1.68m16.942 2.39v-1.668h-3.942v1.668a.36.36 0 0 1-.195.32l-1.273.66q-.052.028-.106.055c-.312.157-.383.215-.383.31 0 .175.145.32.32.32h7.216c.175 0 .32-.145.32-.32 0-.095-.07-.153-.383-.31-.035-.02-.07-.035-.105-.054l-1.274-.66a.36.36 0 0 1-.195-.32m8.941-2.672v-1.992H12.59q.072.288.074.594c0 .652-.262 1.246-.687 1.68H28.5a.28.28 0 0 0 .281-.282m-13.843-5.835a.361.361 0 0 0 .511-.512l-2.433-2.442 2.433-2.437a.363.363 0 0 0 0-.512.363.363 0 0 0-.511 0L12.25 10.73a.36.36 0 0 0 0 .508Zm5.351 0a.364.364 0 0 0 .512 0l2.687-2.696a.363.363 0 0 0 0-.512l-2.687-2.69a.363.363 0 0 0-.512 0 .36.36 0 0 0 0 .507l2.434 2.441-2.434 2.438a.363.363 0 0 0 0 .511m-3.39.75a.358.358 0 0 0 .441-.258l1.758-6.703a.362.362 0 0 0-.7-.184l-1.757 6.703c-.051.191.066.39.257.441m1.68 3.87H17.16c-.2 0-.363.16-.363.36s.164.363.363.363h1.418c.2 0 .363-.164.363-.363 0-.2-.164-.36-.363-.36m0 0"/></g></svg>