<svg xmlns="http://www.w3.org/2000/svg" width="40" height="40" version="1.0" viewBox="0 0 30 30"><defs><clipPath id="a"><path d="M.484.383h29.032v28.304H.484Zm0 0"/></clipPath></defs><g clip-path="url(#a)"><path fill="#061c3d" d="M27.227 18.563a.467.467 0 0 0-.47.464v1.711c0 .778-.632 1.41-1.41 1.41H4.653c-.777 0-1.41-.632-1.41-1.41v-1.32a.468.468 0 1 0-.937 0v1.32a2.35 2.35 0 0 0 2.347 2.348h6.036v2.05H8.297c-1.145 0-2.07.786-2.07 1.75v1.278c0 .262.207.469.464.469H23.31a.464.464 0 0 0 .464-.469v-1.277c0-.965-.925-1.75-2.07-1.75h-2.39v-2.051h6.035a2.35 2.35 0 0 0 2.347-2.348v-1.71a.467.467 0 0 0-.468-.465m-4.387 8.324v.812H7.16v-.812c0-.442.52-.813 1.137-.813h13.406c.617 0 1.137.371 1.137.813m-4.465-1.75h-6.75v-2.051h6.75Zm2.777-19.211a.47.47 0 0 1 .47-.469h3.726a2.35 2.35 0 0 1 2.347 2.348v.105a.47.47 0 0 1-.468.469.47.47 0 0 1-.47-.469v-.105c0-.778-.632-1.41-1.41-1.41h-3.726a.47.47 0 0 1-.469-.47M2.305 7.922v-.117a2.35 2.35 0 0 1 2.347-2.348H8.38a.47.47 0 0 1 .469.469.47.47 0 0 1-.47.469H4.653c-.777 0-1.41.632-1.41 1.41v.117a.47.47 0 0 1-.469.469.47.47 0 0 1-.468-.47m16.5-4.414a.467.467 0 1 1 .809-.469 5.384 5.384 0 0 1 .563 3.992h5.218c.402 0 .726.324.726.727v.746q.339.134.652.309a.47.47 0 0 1 .879.063l.246.862a.48.48 0 0 1-.07.403.48.48 0 0 1-.363.195l-.899.031h-.015a.47.47 0 0 1-.469-.453.46.46 0 0 1 .133-.34 4.4 4.4 0 0 0-2.035-.5 4.407 4.407 0 0 0-4.403 4.403c0 .796.215 1.578.625 2.257a.47.47 0 0 1-.804.485 5.34 5.34 0 0 1 5.59-7.985v-.27H19.84A5.34 5.34 0 0 1 15 11.06a5.3 5.3 0 0 1-2.594-.676.46.46 0 0 1-.43.277.466.466 0 0 1-.449-.34l-.246-.863a.463.463 0 0 1 .434-.594l.898-.035a.473.473 0 0 1 .485.453.46.46 0 0 1-.133.34 4.4 4.4 0 0 0 2.035.5 4.406 4.406 0 0 0 4.402-4.398 4.4 4.4 0 0 0-.597-2.215m-7.18 1.34a.47.47 0 0 0-.3.437v.871c0 .192.116.367.3.438l.313.117q.077.247.195.476l-.137.305a.47.47 0 0 0 .098.52l.613.617a.46.46 0 0 0 .52.094l.308-.133c.152.078.309.14.473.195l.12.313c.071.18.243.3.438.3h.868a.47.47 0 0 0 .437-.3l.121-.313c.16-.055.32-.117.473-.195l.305.133c.18.082.386.043.523-.094l.613-.617a.47.47 0 0 0 .098-.52l-.137-.304q.118-.23.195-.477l.313-.117c.184-.07.3-.246.3-.438v-.87a.47.47 0 0 0-.3-.438l-.312-.118a3 3 0 0 0-.196-.476l.137-.305a.47.47 0 0 0-.098-.52l-.613-.616a.47.47 0 0 0-.523-.094l-.305.133a4 4 0 0 0-.473-.196l-.12-.312a.47.47 0 0 0-.438-.301h-.868a.47.47 0 0 0-.437.3l-.121.313q-.245.083-.473.196l-.308-.133a.47.47 0 0 0-.52.094l-.613.617a.47.47 0 0 0-.098.52l.137.304a3 3 0 0 0-.195.476Zm.637.761.23-.09a.46.46 0 0 0 .285-.328c.059-.234.149-.46.278-.664a.47.47 0 0 0 .027-.437l-.098-.227.157-.16.23.102c.14.062.3.05.434-.032q.312-.189.664-.273a.46.46 0 0 0 .328-.29l.09-.23h.226l.09.23a.46.46 0 0 0 .328.29q.353.084.664.273a.46.46 0 0 0 .434.032l.23-.102.157.16-.098.227a.46.46 0 0 0 .027.437c.13.203.22.43.278.664.035.149.14.274.285.329l.23.09v.222l-.23.09a.46.46 0 0 0-.285.328c-.059.234-.153.46-.278.664a.47.47 0 0 0-.03.438l.1.226-.156.16-.23-.101a.46.46 0 0 0-.434.031c-.207.125-.43.219-.664.273a.46.46 0 0 0-.328.29l-.09.23h-.226l-.09-.23a.46.46 0 0 0-.328-.29 2.3 2.3 0 0 1-.664-.273.46.46 0 0 0-.434-.031l-.23.101-.157-.16.098-.226a.47.47 0 0 0-.027-.438 2.3 2.3 0 0 1-.278-.664.46.46 0 0 0-.285-.328l-.23-.09ZM15 7.703c1.094 0 1.984-.89 1.984-1.98 0-1.094-.89-1.985-1.984-1.985s-1.984.89-1.984 1.985c0 1.09.89 1.98 1.984 1.98m0-3.027a1.046 1.046 0 1 1 .002 2.087A1.046 1.046 0 0 1 15 4.676M1.883 16.379a.468.468 0 0 1-.64-.16 5.34 5.34 0 0 1 2.636-7.715v-.746c0-.403.324-.727.726-.727h5.22A5.344 5.344 0 0 1 15 .383c.913 0 1.808.234 2.593.676a.468.468 0 0 1 .879.063l.246.862a.46.46 0 0 1-.07.403.48.48 0 0 1-.364.195l-.898.031h-.016c-.25 0-.457-.199-.469-.453a.46.46 0 0 1 .133-.34A4.4 4.4 0 0 0 15 1.32a4.407 4.407 0 0 0-4.402 4.403c0 .797.218 1.578.625 2.257a.47.47 0 0 1-.399.711.47.47 0 0 1-.402-.226 5 5 0 0 1-.266-.5H4.812v.27a5.4 5.4 0 0 1 1.008-.098c.914 0 1.809.238 2.598.675a.47.47 0 0 1 .297-.261c.25-.07.508.074.578.324l.25.863a.473.473 0 0 1-.434.598l-.898.031h-.02c-.25 0-.457-.199-.464-.453a.44.44 0 0 1 .128-.34 4.36 4.36 0 0 0-2.035-.5 4.404 4.404 0 0 0-3.777 6.66.466.466 0 0 1-.16.645m27.633-2.902a5.34 5.34 0 0 1-3.395 4.968v1.008a.464.464 0 0 1-.469.465H4.348a.464.464 0 0 1-.47-.465v-1.008a6 6 0 0 1-.651-.308.47.47 0 0 1-.301.261.5.5 0 0 1-.13.016.466.466 0 0 1-.448-.34l-.246-.863a.465.465 0 0 1 .434-.594l.898-.035a.47.47 0 0 1 .484.453.46.46 0 0 1-.133.34 4.404 4.404 0 0 0 5.844-6.113.468.468 0 1 1 .808-.469c.473.809.723 1.738.723 2.684a5.344 5.344 0 0 1-5.34 5.336 5.4 5.4 0 0 1-1.008-.098v.27h20.376v-.27a5.4 5.4 0 0 1-1.008.098 5.37 5.37 0 0 1-2.598-.676.47.47 0 0 1-.297.261.5.5 0 0 1-.129.016.466.466 0 0 1-.449-.34l-.25-.863a.47.47 0 0 1 .074-.402.46.46 0 0 1 .36-.192l.898-.035a.47.47 0 0 1 .356.793c.62.328 1.32.5 2.035.5a4.403 4.403 0 0 0 3.804-6.613.468.468 0 1 1 .809-.469c.473.809.723 1.738.723 2.684M24.895 9.98h-2.536a.65.65 0 0 0-.648.653v5.375c0 .36.289.652.648.652h4.211c.36 0 .653-.293.653-.652v-3.7a.8.8 0 0 0-.243-.581l-1.503-1.504a.8.8 0 0 0-.582-.243m.613 1.598.113.117h-.113Zm-2.863 4.145v-4.805h1.93v1.152c0 .309.25.559.558.559h1.152v3.094Zm.285-3.88a.47.47 0 0 1 .468-.468h.528a.47.47 0 0 1 .469.469.47.47 0 0 1-.47.469h-.527a.47.47 0 0 1-.468-.47M26 14.798a.467.467 0 0 1-.465.469h-2.137a.47.47 0 0 1-.468-.47.47.47 0 0 1 .468-.468h2.137c.258 0 .465.211.465.469m0-1.477a.467.467 0 0 1-.465.47h-2.137a.47.47 0 0 1-.468-.47.47.47 0 0 1 .468-.468h2.137c.258 0 .465.21.465.468M5.82 9.797a3.683 3.683 0 0 0-3.675 3.68 3.68 3.68 0 0 0 3.675 3.675 3.68 3.68 0 0 0 3.676-3.675 3.683 3.683 0 0 0-3.676-3.68m0 6.418a2.744 2.744 0 0 1-2.738-2.738 2.745 2.745 0 0 1 2.738-2.743 2.746 2.746 0 0 1 2.742 2.743 2.745 2.745 0 0 1-2.742 2.738m1.785-1.711a.469.469 0 0 1-.64.172l-1.38-.797a.47.47 0 0 1-.233-.402V11.57a.468.468 0 1 1 .937 0v1.633l1.145.664c.226.13.3.414.171.637m0 0"/></g></svg>