<svg xmlns="http://www.w3.org/2000/svg" width="40" height="40" version="1.0" viewBox="0 0 30 30"><defs><clipPath id="a"><path d="M.484 10h29.032v19.031H.484Zm0 0"/></clipPath><clipPath id="b"><path d="M.484 0H15v13H.484Zm0 0"/></clipPath><clipPath id="c"><path d="M15 0h14.516v13H15Zm0 0"/></clipPath></defs><g clip-path="url(#a)"><path fill="#061c3d" d="M28.113 17.793h-8.43a.47.47 0 0 1-.468-.469v-.465h9.363v.465a.467.467 0 0 1-.465.469m-3.281 1.875h-1.871v-.938h1.871Zm-5.148-8.43h8.43c.257 0 .464.211.464.469v4.215h-9.363v-4.215a.47.47 0 0 1 .469-.469M15 28.098a4.22 4.22 0 0 1-4.215-4.215c0-1.801 1.152-3.387 2.809-3.969v1.02a3.27 3.27 0 0 0-1.871 2.949A3.28 3.28 0 0 0 15 27.16a3.28 3.28 0 0 0 3.277-3.277c0-1.27-.742-2.414-1.87-2.95v-1.019a4.22 4.22 0 0 1 2.808 3.969c0 2.32-1.89 4.215-4.215 4.215m-.469-9.836a.47.47 0 0 1 .469-.469.47.47 0 0 1 .469.469v4.683a.47.47 0 0 1-.469.47.47.47 0 0 1-.469-.47Zm.469 6.09c.777 0 1.406-.633 1.406-1.407v-.93c.578.434.934 1.122.934 1.868 0 1.289-1.047 2.34-2.34 2.34a2.34 2.34 0 0 1-2.34-2.34c0-.746.356-1.434.934-1.867v.93c0 .773.629 1.406 1.406 1.406M1.422 17.324c0-2.32 1.89-4.21 4.21-4.21a4.22 4.22 0 0 1 4.216 4.21 4.22 4.22 0 0 1-4.215 4.215c-2.32 0-4.211-1.89-4.211-4.215m26.691-7.023h-8.43c-.777 0-1.406.629-1.406 1.406v5.617c0 .778.63 1.406 1.407 1.406h2.34v.938h-.938v.937h2.344v2.34a.47.47 0 0 1-.47.47H20.13a5.17 5.17 0 0 0-3.723-4.485v-.668c0-.774-.629-1.403-1.406-1.403s-1.406.63-1.406 1.403v.668a5.17 5.17 0 0 0-3.723 4.484h-3.3a.47.47 0 0 1-.47-.469v-.492a5.16 5.16 0 0 0 4.684-5.129 5.154 5.154 0 0 0-5.152-5.148 5.153 5.153 0 0 0-5.149 5.148 5.16 5.16 0 0 0 4.684 5.13v.491c0 .774.629 1.407 1.402 1.407h3.301A5.16 5.16 0 0 0 15 29.032c2.68 0 4.89-2.06 5.129-4.68h2.832a1.41 1.41 0 0 0 1.406-1.407v-2.34h2.34v-.937h-.937v-.938h2.343c.774 0 1.403-.628 1.403-1.406v-5.617c0-.777-.63-1.406-1.403-1.406"/></g><g clip-path="url(#b)"><path fill="#061c3d" d="M1.887.938H6.57a.47.47 0 0 1 .47.468v.469H1.421v-.469c0-.258.207-.468.465-.468M1.422 8.43V2.809h5.617v5.62ZM6.57 10.3H1.887a.467.467 0 0 1-.465-.468v-.465h5.617v.465a.47.47 0 0 1-.469.469m-4.683.938H6.57c.778 0 1.407-.629 1.407-1.406V6.086h4.683c.258 0 .465.21.465.469v6.09h.938v-6.09c0-.774-.63-1.403-1.403-1.403H7.977V1.406C7.977.63 7.347 0 6.57 0H1.887C1.113 0 .484.629.484 1.406v8.426c0 .777.63 1.406 1.403 1.406"/></g><path fill="#061c3d" d="M5.168 19.2a.467.467 0 1 1 .934 0 .468.468 0 1 1-.934 0m1.871 0a1.405 1.405 0 1 0-2.81-.003 1.405 1.405 0 0 0 2.81.002M7.29 17.543l.663-.66a3.277 3.277 0 0 0-4.637 0l.664.66a2.34 2.34 0 0 1 3.31 0"/><path fill="#061c3d" d="m8.613 16.219.664-.66a5.15 5.15 0 0 0-7.285 0l.664.66a4.22 4.22 0 0 1 5.957 0M13.125 16.39h.938v-.937h-.938zM14.063 13.578h-.938v.938h.938zM16.875 15.453h-.937v.938h.937zM16.875 13.578h-.937v.938h.937z"/><g clip-path="url(#c)"><path fill="#061c3d" d="M23.54 1.172a6.3 6.3 0 0 0-.352 1.168h-1.274a3.76 3.76 0 0 1 1.625-1.168m4.214 1.168H26.48a6.3 6.3 0 0 0-.351-1.168c.64.238 1.203.644 1.625 1.168M26.129 8.19a6.3 6.3 0 0 0 .351-1.168h1.274c-.422.528-.984.93-1.625 1.168m-4.215-1.168h1.273c.09.43.208.829.352 1.168a3.73 3.73 0 0 1-1.625-1.168m1.055-1.87c.011.312.035.628.07.933h-1.676a3.6 3.6 0 0 1-.242-.934Zm0-.938H21.12q.06-.492.242-.938h1.676q-.053.463-.07.938m5.578 0h-1.848a12 12 0 0 0-.07-.938h1.676q.182.446.242.938m-1.848.937h1.848a3.6 3.6 0 0 1-.242.934h-1.676a12 12 0 0 0 .07-.934m-2.719.934a11 11 0 0 1-.074-.934h1.856a12 12 0 0 1-.075.934Zm.852 2.344c-.145 0-.46-.48-.684-1.407h1.372c-.227.926-.54 1.407-.688 1.407m.855-5.153c.032.29.063.598.075.938h-1.856c.012-.34.04-.649.074-.938Zm-.855-2.34c.148 0 .461.477.688 1.403h-1.372c.223-.926.54-1.402.684-1.402m-7.957 4.684c0-.262.207-.469.465-.469h2.836a4.687 4.687 0 0 0 4.656 4.215 4.687 4.687 0 0 0 4.684-4.683A4.687 4.687 0 0 0 24.832 0a4.687 4.687 0 0 0-4.656 4.215H17.34c-.774 0-1.402.629-1.402 1.406v7.024h.937z"/></g></svg>