<svg xmlns="http://www.w3.org/2000/svg" width="40" height="40" version="1.0" viewBox="0 0 30 30"><defs><clipPath id="a"><path d="M.484 0H27v22H.484Zm0 0"/></clipPath><clipPath id="b"><path d="M14 2h15.516v27H14Zm0 0"/></clipPath></defs><g clip-path="url(#a)"><path fill="#061c3d" d="M1.688 21.043a.593.593 0 0 1-.59-.594v-7.937h.898a.59.59 0 0 0 .574-.442l.887-3.457 1.512 9.746c.047.293.285.5.586.5a.58.58 0 0 0 .582-.496l.988-6.074h1.422a.59.59 0 0 0 .574-.457l.84-3.574 1.867 8.785a.575.575 0 0 0 .602.465.576.576 0 0 0 .562-.508l.867-6.113h4.192v-.594h-4.192a.59.59 0 0 0-.586.512l-.867 6.113-1.867-8.785a.575.575 0 0 0-.574-.465H9.96a.58.58 0 0 0-.578.453l-.836 3.574H7.125c-.293 0-.54.211-.582.5l-.988 6.07L4.039 8.52a.59.59 0 0 0-.559-.5.594.594 0 0 0-.597.445l-.887 3.457h-.898V1.215c0-.324.265-.594.59-.594H25.66c.324 0 .59.27.59.594v1.73q.335.124.594.36V1.219c0-.657-.532-1.184-1.184-1.184H1.688C1.035.035.504.563.504 1.22v10.976S.5 12.211.5 12.22c0 .011 0 .015.004.027v8.207c0 .656.531 1.184 1.184 1.184H17.94a25 25 0 0 1-.402-.59H1.687Zm0 0"/></g><g clip-path="url(#b)"><path fill="#061c3d" d="M28.488 6.121c-.574 0-1.039.469-1.039 1.04v4.734a.296.296 0 0 1-.293.296.297.297 0 0 1-.297-.296V4.656a1 1 0 0 0-.015-.133 1.23 1.23 0 0 0-.594-.921 1.2 1.2 0 0 0-.621-.176c-.68 0-1.234.554-1.234 1.23v6.914c0 .16-.133.297-.293.297a.3.3 0 0 1-.297-.297V3.465c0-.676-.551-1.23-1.23-1.23-.684 0-1.231.55-1.231 1.23v8.066a.297.297 0 1 1-.594 0V4.54a1.054 1.054 0 0 0-2.105 0v10.258c0 .148-.11.273-.254.293a.29.29 0 0 1-.325-.207 4.9 4.9 0 0 0-2.078-2.742 1.07 1.07 0 0 0-.566-.164c-.313 0-.625.136-.84.398a.68.68 0 0 0-.027.836c.968 1.406 1.797 3.898 1.832 4.004.363 1.418 1.16 2.805 1.863 3.828.148.21.29.41.422.59.305.41.566.73.723.91.152.18.234.402.234.633v.87h1.262v2.388h-1.262v1.105c0 .113.066.211.168.27 1.473.765 3.293.847 4.008.847 2.168 0 3.324-.515 3.824-.82a.3.3 0 0 0 .137-.25v-1.152H26.53V24.05h1.235v-.168c0-1.477.304-2.903.906-4.246a9.7 9.7 0 0 0 .86-4.004V7.164c0-.574-.47-1.039-1.04-1.039Zm-2.55 20.313v.113a.595.595 0 0 1-.59.594h-3.274a.595.595 0 0 1-.59-.594V23.93c0-.328.266-.594.59-.594h3.274c.324 0 .59.266.59.594Zm0 0"/></g><path fill="#061c3d" d="M24.438 24.047a.93.93 0 0 0-.742.121.93.93 0 0 0-.665-.14c-.027.003-.05.011-.078.019a.896.896 0 0 0-.39 1.508l.921.922a.3.3 0 0 0 .418 0l.043-.043.86-.864a.89.89 0 0 0 .277-.82.9.9 0 0 0-.645-.703M7.898 2.55c-.511-.112-1 0-1.382.255a1.78 1.78 0 0 0-1.391-.254A1.72 1.72 0 0 0 3.82 3.867c-.14.645.075 1.242.485 1.645l2 1.996c.117.117.3.117.418 0L8.68 5.547c.43-.395.668-1 .53-1.656a1.71 1.71 0 0 0-1.312-1.34m0 0"/></svg>