<svg xmlns="http://www.w3.org/2000/svg" width="40" height="40" version="1.0" viewBox="0 0 30 30"><defs><clipPath id="a"><path d="M7 7h22.516v18H7Zm0 0"/></clipPath><clipPath id="b"><path d="M13 26h11v3.031H13Zm0 0"/></clipPath><clipPath id="c"><path d="M7 21h22.516v2H7Zm0 0"/></clipPath><clipPath id="d"><path d="M.484 0H11v11H.484Zm0 0"/></clipPath></defs><g clip-path="url(#a)"><path fill="#fff" d="M29.063 24.496H8.195a.453.453 0 0 1-.453-.453v-13.61a.453.453 0 0 1 .906 0V23.59H28.61V8.617H10.012a.454.454 0 0 1-.457-.453c0-.25.203-.453.457-.453h19.05c.25 0 .454.203.454.453v15.879c0 .25-.203.453-.453.453m0 0"/></g><path fill="#fff" d="M21.352 27.219h-5.446a.454.454 0 0 1-.43-.598l.907-2.723a.46.46 0 0 1 .433-.308h3.63c.195 0 .366.125.429.308l.906 2.723a.454.454 0 0 1-.43.598m-4.817-.91h4.188l-.606-1.813h-2.976Zm0 0"/><g clip-path="url(#b)"><path fill="#fff" d="M23.164 29.031h-9.07a.453.453 0 0 1-.453-.453v-1.812c0-.254.203-.457.453-.457h9.07c.25 0 .453.203.453.457v1.812c0 .25-.203.453-.453.453m-8.617-.906h8.164v-.906h-8.164Zm0 0"/></g><g clip-path="url(#c)"><path fill="#fff" d="M29.063 22.68H8.195a.453.453 0 0 1 0-.907h20.868a.453.453 0 0 1 0 .907m0 0"/></g><path fill="#fff" d="M5.473 9.074a.5.5 0 0 1-.184-.039L2.434 7.762a.45.45 0 0 1-.27-.414V3.539a.45.45 0 0 1 .27-.414l2.855-1.27a.43.43 0 0 1 .367 0l2.86 1.27a.45.45 0 0 1 .27.414v3.809a.45.45 0 0 1-.27.414l-2.86 1.273a.5.5 0 0 1-.183.04M3.07 7.054l2.403 1.067 2.406-1.066V3.832L5.473 2.766 3.07 3.832Zm5.262.294"/><path fill="#fff" d="M5.473 5.578a.43.43 0 0 1-.22-.055l-2.858-1.59a.455.455 0 0 1 .44-.792l2.638 1.464 2.64-1.464a.45.45 0 0 1 .614.175.45.45 0 0 1-.176.618l-2.856 1.59a.45.45 0 0 1-.222.054m0 0"/><path fill="#fff" d="M5.473 9.074a.454.454 0 0 1-.453-.457V5.102a.453.453 0 0 1 .906 0v3.515a.454.454 0 0 1-.453.457m0 0"/><g clip-path="url(#d)"><path fill="#fff" d="M10.012 10.887H.938a.453.453 0 0 1-.454-.453V.454C.484.203.688 0 .938 0h9.074c.25 0 .453.203.453.453v9.98c0 .25-.203.454-.453.454M1.39 9.98h8.164V.906H1.39Zm0 0"/></g><path fill="#fff" d="M6.836 15.879H3.66a.454.454 0 0 1-.453-.457v-3.629a.453.453 0 0 1 .906 0v3.176h2.723a.454.454 0 0 1 0 .91M16.816 6.805a.454.454 0 0 1-.457-.453V3.629h-4.988a.453.453 0 0 1 0-.906h5.445c.25 0 .454.203.454.453v3.176c0 .25-.204.453-.454.453M19.082 12.246a1.36 1.36 0 1 1 .002-2.72 1.36 1.36 0 0 1-.002 2.72m0-1.812a.453.453 0 1 0 0 .906.453.453 0 0 0 0-.906M19.082 16.332a1.36 1.36 0 1 1 .002-2.725 1.36 1.36 0 0 1-.002 2.725m0-1.816a.453.453 0 1 0 0 .907.453.453 0 0 0 0-.907M15 14.516a1.36 1.36 0 1 1 .002-2.721 1.36 1.36 0 0 1-.002 2.72m0-1.813a.453.453 0 1 0 0 .907.453.453 0 0 0 0-.907M15 18.598a1.36 1.36 0 0 1 0-2.72 1.36 1.36 0 0 1 0 2.72m0-1.813a.453.453 0 1 0 0 .907.453.453 0 0 0 0-.907M19.082 20.867a1.36 1.36 0 1 1 .002-2.72 1.36 1.36 0 0 1-.002 2.72m0-1.816a.457.457 0 0 0-.453.457.453.453 0 0 0 .906 0 .457.457 0 0 0-.453-.457M23.164 18.598a1.36 1.36 0 1 1 .002-2.721 1.36 1.36 0 0 1-.002 2.72m0-1.813a.453.453 0 1 0 0 .907.453.453 0 0 0 0-.907M23.164 14.516a1.36 1.36 0 1 1 .002-2.721 1.36 1.36 0 0 1-.002 2.72m0-1.813a.453.453 0 1 0 0 .907.453.453 0 0 0 0-.907m0 0"/><path fill="#fff" d="M19.91 15.055a.454.454 0 0 1-.184-.867l2.426-1.079a.45.45 0 0 1 .598.23.45.45 0 0 1-.23.598l-2.422 1.079a.5.5 0 0 1-.188.039M18.293 14.973a.46.46 0 0 1-.223-.059l-2.386-1.363a.454.454 0 1 1 .45-.79l2.386 1.364a.454.454 0 0 1-.227.848m0 0"/><path fill="#fff" d="M15.793 13.168a.44.44 0 0 1-.395-.234.45.45 0 0 1 .176-.618l2.496-1.386a.455.455 0 0 1 .617.175.45.45 0 0 1-.18.618l-2.495 1.386a.44.44 0 0 1-.219.059M22.371 13.168a.45.45 0 0 1-.219-.059l-2.496-1.386a.454.454 0 1 1 .442-.793l2.496 1.386a.455.455 0 0 1-.223.852M19.082 19.05a.453.453 0 0 1-.453-.452v-2.72c0-.253.203-.456.453-.456s.453.203.453.457v2.719c0 .25-.203.453-.453.453m0 0"/><path fill="#fff" d="M19.875 19.52a.455.455 0 0 1-.219-.852l2.496-1.387a.455.455 0 0 1 .442.793l-2.496 1.387a.46.46 0 0 1-.223.059M23.164 16.785a.453.453 0 0 1-.453-.453v-2.27a.453.453 0 0 1 .906 0v2.27c0 .25-.203.453-.453.453M15 16.785a.453.453 0 0 1-.453-.453v-2.27a.453.453 0 0 1 .906 0v2.27c0 .25-.203.453-.453.453M18.29 19.52a.45.45 0 0 1-.22-.06l-2.496-1.386a.45.45 0 0 1-.176-.617.45.45 0 0 1 .614-.176l2.496 1.387a.452.452 0 0 1-.219.852m0 0"/></svg>