<svg xmlns="http://www.w3.org/2000/svg" width="40" height="40" version="1.0" viewBox="0 0 30 30"><defs><clipPath id="a"><path d="M3.496 0h23.227v29.031H3.496Zm0 0"/></clipPath></defs><g clip-path="url(#a)"><path fill="#061c3d" fill-rule="evenodd" d="m19.426 8.41-.446 3.504h.207c.2 0 .36.16.36.36v.851h.164c.195-.762.68-1.328 1.191-1.926.758-.883 1.543-1.8 1.504-3.527v-.008A4.21 4.21 0 0 0 18.2 3.457a4.214 4.214 0 0 0-4.21 4.207v.008c-.04 1.726.745 2.644 1.503 3.527.512.598 1 1.164 1.195 1.926h.16v-.852c0-.199.165-.359.364-.359h.203l-.445-3.492q-.189.084-.43.086a1.046 1.046 0 1 1 0-2.09c.309 0 .586.117.777.336.164.187.254.434.258.695q.005.017.004.028l.563 4.437h.113l.562-4.45q.002-.01.004-.027c.004-.261.094-.507.258-.695.192-.219.469-.336.781-.336a1.046 1.046 0 0 1 0 2.09q-.246-.002-.433-.086M18.25 24.07c0 .633.512 1.145 1.145 1.145h1.468c.16.629.73 1.094 1.407 1.094.8 0 1.453-.653 1.453-1.454s-.653-1.453-1.453-1.453c-.676 0-1.247.465-1.407 1.09h-1.468a.42.42 0 0 1-.422-.422v-3.238h-.723Zm-3.32.47c-.63.16-1.094.73-1.094 1.405 0 .801.652 1.453 1.453 1.453.8 0 1.453-.652 1.453-1.453 0-.675-.465-1.246-1.09-1.406v-3.707h-.722Zm-3.352-3.708v5.34c-.629.16-1.094.73-1.094 1.406 0 .8.653 1.453 1.454 1.453s1.453-.652 1.453-1.453c0-.676-.465-1.246-1.09-1.406v-5.34Zm-3.746 3.66H6.363a1.455 1.455 0 0 0-1.406-1.09c-.8 0-1.453.653-1.453 1.453 0 .801.652 1.454 1.453 1.454.676 0 1.246-.465 1.406-1.094h1.469c.633 0 1.148-.512 1.148-1.145v-3.238h-.722v3.238a.423.423 0 0 1-.426.422M26.129 7.93H24.73c-.199 0-.359.16-.359.363 0 .2.16.36.36.36h1.398c.2 0 .36-.16.36-.36a.36.36 0 0 0-.36-.363m-1.242-3.918-1.211.699a.363.363 0 0 0 .18.676.35.35 0 0 0 .183-.051l1.207-.7a.36.36 0 0 0 .133-.491.363.363 0 0 0-.492-.133m-3.035-2.77-.7 1.211a.36.36 0 1 0 .625.36l.7-1.211a.363.363 0 0 0-.133-.493.36.36 0 0 0-.492.133M17.836.36v1.399a.362.362 0 0 0 .723 0V.359a.362.362 0 0 0-.723 0m-3.918 1.243.7 1.21c.066.118.187.18.312.18a.4.4 0 0 0 .183-.047.36.36 0 0 0 .13-.492l-.696-1.21a.367.367 0 0 0-.496-.134.36.36 0 0 0-.133.493m-2.77 3.035 1.211.699a.33.33 0 0 0 .18.05.36.36 0 0 0 .313-.183.356.356 0 0 0-.133-.492l-1.207-.7a.367.367 0 0 0-.496.134.36.36 0 0 0 .132.492m-.882 4.015h1.398c.2 0 .36-.16.36-.359a.36.36 0 0 0-.36-.363h-1.398c-.2 0-.36.16-.36.363 0 .2.16.36.36.36m5.765 7.086c0 .098.035.188.106.258l.75.75q.381.375.898.375h.824q.517 0 .899-.375l.754-.75a.37.37 0 0 0 .105-.258v-1.531a3.068 3.068 0 0 1-1.172 5.902H8.035a3.07 3.07 0 0 1-3.07-3.066A3.075 3.075 0 0 1 7.84 13.98a.37.37 0 0 0 .273-.156.37.37 0 0 0 .047-.312 2.7 2.7 0 0 1-.129-.825 2.73 2.73 0 0 1 5.133-1.297.364.364 0 0 0 .574.083c.192-.192.407-.356.637-.493.188.247.383.473.57.692.524.613.977 1.144 1.086 1.844Zm3.614-.433h-2.891v.285l.644.64a.52.52 0 0 0 .387.168h.824a.51.51 0 0 0 .387-.168l.649-.64Zm0-1.457h-2.891v.734h2.89Zm-.82-1.211v.488H17.57v-.488Zm-2.286-4.852a.323.323 0 1 1 0-.645c.106 0 .18.028.234.09.051.055.079.141.079.23 0 .08-.024.325-.313.325m3.004-.336c0-.09.031-.172.078-.23.055-.063.133-.09.238-.09a.323.323 0 0 1 0 .644c-.293 0-.316-.246-.316-.324m0 0"/></g></svg>