<svg xmlns="http://www.w3.org/2000/svg" width="40" height="40" version="1.0" viewBox="0 0 30 30"><defs><clipPath id="a"><path d="M.484 5h29.032v18H.484Zm0 0"/></clipPath><clipPath id="b"><path d="M5 25h20v4.031H5Zm0 0"/></clipPath></defs><path fill="#061c3d" fill-rule="evenodd" d="M24.5 17.758h-19a1.403 1.403 0 0 1-1.395-1.395V1.395A1.4 1.4 0 0 1 5.5 0h19a1.4 1.4 0 0 1 1.395 1.395v14.968c0 .762-.63 1.395-1.395 1.395M5.5.68a.72.72 0 0 0-.715.715v14.968c0 .39.324.711.715.711h19c.39 0 .715-.32.715-.71V1.393A.72.72 0 0 0 24.5.68Zm0 0"/><path fill="#061c3d" fill-rule="evenodd" d="M25.555 4.438H4.445a.34.34 0 0 1 0-.68h21.11a.34.34 0 0 1 0 .68M6.352 2.566c-.188 0-.356-.152-.356-.34 0-.187.133-.34.32-.34h.036a.34.34 0 0 1 0 .68M7.762 2.566a.34.34 0 0 1-.34-.34c0-.187.137-.34.324-.34h.016a.34.34 0 0 1 0 .68M9.191 2.566c-.187 0-.355-.152-.355-.34 0-.187.137-.34.32-.34h.035a.34.34 0 0 1 0 .68m0 0"/><g clip-path="url(#a)"><path fill="#061c3d" fill-rule="evenodd" d="M27.05 22.008H2.95A2.3 2.3 0 0 1 .636 19.71V7.484a2.314 2.314 0 0 1 2.312-2.296h1.496a.34.34 0 0 1 0 .68H2.95c-.902 0-1.633.73-1.633 1.616v12.227c0 .902.73 1.617 1.633 1.617h24.102c.902 0 1.633-.715 1.633-1.617V7.484c0-.886-.73-1.617-1.633-1.617h-1.496a.34.34 0 0 1 0-.68h1.496a2.314 2.314 0 0 1 2.312 2.297v12.227a2.3 2.3 0 0 1-2.312 2.297m0 0"/></g><path fill="#061c3d" fill-rule="evenodd" d="M27.05 20.188H2.95a.476.476 0 0 1-.477-.477V7.484c0-.257.207-.476.476-.476h1.496a.34.34 0 0 1 0 .68H3.152v11.82h23.696V7.688h-1.293a.34.34 0 0 1 0-.68h1.496c.27 0 .476.219.476.476v12.227a.476.476 0 0 1-.476.477M21.32 26.582H8.375a.31.31 0 0 1-.273-.152.29.29 0 0 1-.032-.305l1.82-4.574a.35.35 0 0 1 .32-.223h9.58c.151 0 .269.102.32.238l1.515 4.524c.016.05.035.101.035.152 0 .188-.156.34-.34.34m-12.433-.68h11.957l-1.293-3.894h-9.117Zm0 0"/><g clip-path="url(#b)"><path fill="#061c3d" fill-rule="evenodd" d="M23.684 29.031H6.012a.34.34 0 0 1-.34-.34v-2.449a.34.34 0 0 1 .34-.34h17.672a.34.34 0 0 1 .34.34v2.45a.34.34 0 0 1-.34.34m-17.332-.68h16.992v-1.769H6.352Zm0 0"/></g><path fill="#061c3d" fill-rule="evenodd" d="M13.035 10.035a.34.34 0 0 1-.34-.34V6.04a.34.34 0 0 1 .68 0v3.656a.34.34 0 0 1-.34.34m0 0"/><path fill="#061c3d" fill-rule="evenodd" d="M13.953 8.418h-.918a.34.34 0 0 1-.34-.34V6.04a.34.34 0 0 1 .34-.34h.918c.68 0 1.242.559 1.242 1.239v.222c0 .7-.562 1.258-1.242 1.258m-.578-.68h.578a.57.57 0 0 0 .563-.578v-.223a.564.564 0 0 0-.563-.558h-.578ZM16.691 10.035a.34.34 0 0 1-.34-.34V7.652l-.816-1.41c-.086-.172-.035-.375.137-.46.152-.102.355-.052.46.12l.56.985.578-.985a.32.32 0 0 1 .46-.12c.168.085.22.288.118.46l-.817 1.41v2.043a.34.34 0 0 1-.34.34M20.332 9.727a.32.32 0 0 1-.238-.102.33.33 0 0 1 0-.477L21.37 7.86l-1.277-1.277c-.137-.137-.137-.355 0-.477a.33.33 0 0 1 .476 0l1.532 1.516a.34.34 0 0 1 .101.238c0 .082-.035.184-.101.235L20.57 9.625a.32.32 0 0 1-.238.102M10.281 9.727a.35.35 0 0 1-.258-.102L8.512 8.094c-.067-.051-.102-.153-.102-.235 0-.086.035-.171.102-.238l1.511-1.516a.35.35 0 0 1 .497 0c.136.122.136.34 0 .477L9.227 7.859l1.293 1.29a.33.33 0 0 1 0 .476.33.33 0 0 1-.239.102M23.531 12.16H8.29a.34.34 0 0 1 0-.68h15.242c.184 0 .34.153.34.34s-.156.34-.34.34M23.531 13.996H6.47a.343.343 0 0 1-.34-.34c0-.187.156-.34.34-.34H23.53c.184 0 .34.153.34.34s-.156.34-.34.34M23.531 15.816H6.47a.343.343 0 0 1-.34-.34c0-.187.156-.34.34-.34H23.53c.184 0 .34.153.34.34s-.156.34-.34.34m0 0"/></svg>