<svg xmlns="http://www.w3.org/2000/svg" width="40" height="40" version="1.0" viewBox="0 0 30 30"><defs><clipPath id="a"><path d="M.484 0h29.032v29.031H.484Zm0 0"/></clipPath></defs><g clip-path="url(#a)"><path fill="#061c3d" d="M27.582 21.29H16.934a.967.967 0 0 1-.965-.966v-9.68h12.578v9.68a.967.967 0 0 1-.965.965m-4.84 2.905H7.258V21.29q.293 0 .582-.023a.85.85 0 0 0 .71-.536l.313-.789a5.5 5.5 0 0 0 1.094-.453l.785.336a.85.85 0 0 0 .875-.125c.153-.125.293-.254.43-.394q.209-.204.394-.43a.85.85 0 0 0 .125-.875l-.336-.785c.192-.348.34-.711.454-1.094l.789-.312.004-.004c.296-.121.5-.39.53-.707a7 7 0 0 0 0-1.164.85.85 0 0 0-.534-.707l-.79-.317a5.6 5.6 0 0 0-.453-1.094l.336-.785a.85.85 0 0 0-.125-.875 6 6 0 0 0-.394-.43 6 6 0 0 0-.43-.394.85.85 0 0 0-.875-.125l-.785.336a5.7 5.7 0 0 0-1.094-.453l-.316-.79a.85.85 0 0 0-.707-.534 7 7 0 0 0-.582-.028V4.84h15.484v.965h-5.808A1.94 1.94 0 0 0 15 7.742v12.582c0 1.067.867 1.934 1.934 1.934h5.808Zm-.969 3.871H8.227a.97.97 0 0 1-.97-.968V25.16h15.485v1.938a.97.97 0 0 1-.969.968M4.84 18.536a.48.48 0 0 0-.442-.032l-.941.402a4 4 0 0 1-.305-.285 5 5 0 0 1-.285-.305l.406-.941a.49.49 0 0 0-.035-.441 4.7 4.7 0 0 1-.535-1.29.48.48 0 0 0-.289-.332l-.95-.378a7 7 0 0 1 0-.836l.95-.38a.48.48 0 0 0 .29-.331c.112-.453.292-.887.534-1.29a.49.49 0 0 0 .035-.44l-.406-.938a4 4 0 0 1 .285-.309q.147-.149.305-.285l.941.406a.49.49 0 0 0 .442-.035 4.8 4.8 0 0 1 1.289-.535.48.48 0 0 0 .332-.29l.379-.944q.417-.036.836 0l.379.945a.48.48 0 0 0 .332.289q.685.174 1.289.535a.49.49 0 0 0 .441.035l.942-.406c.105.09.207.188.304.285q.152.146.285.309l-.402.937a.48.48 0 0 0 .031.442c.243.402.422.836.536 1.289a.48.48 0 0 0 .289.332l.949.379q.014.208.015.418-.002.21-.015.418l-.95.379a.48.48 0 0 0-.289.332 4.7 4.7 0 0 1-.535 1.289.48.48 0 0 0-.03.441l.401.941a4 4 0 0 1-.285.305 4 4 0 0 1-.304.285l-.942-.402a.48.48 0 0 0-.441.031 4.7 4.7 0 0 1-1.29.535.48.48 0 0 0-.331.29l-.38.949a6 6 0 0 1-.835 0l-.38-.95a.48.48 0 0 0-.331-.289 4.7 4.7 0 0 1-1.29-.535M8.227.968h13.546c.536 0 .97.433.97.965V3.87H7.257V1.934c0-.532.433-.965.969-.965m20.32 6.773v1.934H15.969V7.742c0-.535.433-.969.965-.969h10.648c.531 0 .965.434.965.97m-.965-1.937h-3.871V1.934A1.936 1.936 0 0 0 21.773 0H8.227c-1.07 0-1.938.867-1.938 1.934V7.91a.9.9 0 0 0-.32.39l-.317.79a6 6 0 0 0-1.093.453l-.786-.336a.85.85 0 0 0-.875.125 7 7 0 0 0-.824.824.85.85 0 0 0-.125.875l.336.785q-.282.524-.453 1.094l-.789.317a.84.84 0 0 0-.531.707 6 6 0 0 0-.028.582q-.001.293.028.582a.85.85 0 0 0 .531.71l.789.313q.171.573.453 1.094L1.95 18a.85.85 0 0 0 .125.875q.188.226.395.43.205.209.43.394c.242.203.578.25.874.125l.786-.336c.347.192.714.34 1.093.453l.317.793a.9.9 0 0 0 .32.391v5.973c0 1.066.867 1.933 1.938 1.933h13.546c1.07 0 1.938-.867 1.938-1.933v-4.84h3.871a1.936 1.936 0 0 0 1.934-1.934V7.742a1.94 1.94 0 0 0-1.934-1.937"/></g><path fill="#061c3d" d="M4.355 14.516c0-1.262.81-2.332 1.934-2.735v1.067a1.94 1.94 0 0 0-.965 1.668c0 .714.39 1.332.965 1.668v1.066a2.9 2.9 0 0 1-1.934-2.734m2.903-.97a.969.969 0 1 1 0 1.938.969.969 0 0 1 0-1.937m2.902.97c0 1.601-1.3 2.902-2.902 2.902v-.965a1.94 1.94 0 0 0 1.937-1.937 1.94 1.94 0 0 0-1.937-1.934v-.969c1.601 0 2.902 1.301 2.902 2.903m.969 0a3.88 3.88 0 0 0-3.871-3.871 3.88 3.88 0 0 0-3.871 3.87 3.88 3.88 0 0 0 3.87 3.872 3.88 3.88 0 0 0 3.872-3.871M17.902 14.516v-1.934h8.711v1.934Zm8.711-2.903h-8.71a.97.97 0 0 0-.97.969v1.934c0 .535.438.968.97.968h8.71a.97.97 0 0 0 .969-.968v-1.934a.97.97 0 0 0-.969-.969M13.066 2.902h.48a.484.484 0 1 0 0-.969h-.48a.484.484 0 1 0 0 .97M15.484 2.902h1.45a.484.484 0 0 0 0-.969h-1.45a.484.484 0 1 0 0 .969M15.969 26.129H14.03a.487.487 0 0 0-.484.484c0 .266.219.485.484.485h1.938a.487.487 0 0 0 .484-.485.487.487 0 0 0-.484-.484M17.902 7.742h-.484a.487.487 0 0 0-.484.485c0 .265.218.484.484.484h.484a.487.487 0 0 0 .485-.484.487.487 0 0 0-.485-.485M20.324 7.742h-.484a.484.484 0 1 0 0 .969h.484a.483.483 0 0 0 0-.969M24.676 8.71h2.422a.487.487 0 0 0 .484-.483.487.487 0 0 0-.484-.485h-2.422a.483.483 0 0 0 0 .969M22.742 16.453h-4.355a.483.483 0 1 0 0 .965h4.355a.483.483 0 1 0 0-.965M21.773 18.387h-3.386a.487.487 0 0 0-.485.484c0 .266.22.484.485.484h3.386a.487.487 0 0 0 .485-.484.487.487 0 0 0-.485-.484M26.129 16.453h-1.453a.48.48 0 0 0-.48.48c0 .27.214.485.48.485h1.453a.483.483 0 1 0 0-.965M25.16 18.387h-1.45a.484.484 0 1 0 0 .968h1.45a.484.484 0 1 0 0-.968"/></svg>