<svg xmlns="http://www.w3.org/2000/svg" width="40" height="40" version="1.0" viewBox="0 0 30 30"><defs><clipPath id="a"><path d="M.484.543h29.032v28.309H.484Zm0 0"/></clipPath></defs><path fill="#061c3d" d="M14.25 25.934a.18.18 0 0 0-.18-.176H9.84c-.09 0-.176.07-.176.176 0 .09.07.18.176.18h4.23c.09 0 .18-.09.18-.18M15.617 25.934a.177.177 0 0 0-.176-.176h-.695a.177.177 0 0 0-.176.176c0 .09.07.18.176.18h.695c.106 0 .176-.09.176-.18M16.047 26.113h.46c.09 0 .18-.07.18-.18a.18.18 0 0 0-.18-.175h-.46c-.09 0-.18.07-.18.176 0 .09.07.18.18.18M19.46 26.61h-4.233a.18.18 0 0 0-.176.18c0 .089.07.175.176.175h4.234c.086 0 .176-.07.176-.176 0-.09-.09-.18-.176-.18M14.55 26.61h-.69c-.09 0-.18.07-.18.18 0 .089.07.175.18.175h.69c.09 0 .18-.07.18-.176 0-.09-.09-.18-.18-.18M13.254 26.61h-.461c-.09 0-.18.07-.18.18 0 .089.07.175.18.175h.46c.09 0 .18-.07.18-.176 0-.09-.074-.18-.18-.18M7.707 17.828a2.42 2.42 0 0 0-2.418-2.418 2.407 2.407 0 0 0-2.418 2.418 2.42 2.42 0 0 0 2.418 2.418 2.42 2.42 0 0 0 2.418-2.418m-2.418 2.063a2.084 2.084 0 0 1-2.082-2.082c0-1.137.926-2.079 2.082-2.079s2.078.922 2.078 2.079c-.015 1.156-.941 2.082-2.078 2.082m0 0"/><path fill="#061c3d" d="M5.29 17.398a.639.639 0 1 0 0-1.277.639.639 0 1 0 0 1.277m0-.921c.16 0 .284.125.284.285s-.125.281-.285.281a.28.28 0 0 1-.285-.281c0-.145.125-.285.285-.285M5.29 18.234a.64.64 0 0 0-.642.641c0 .355.286.64.641.64s.64-.285.64-.64a.65.65 0 0 0-.64-.64m0 .926a.28.28 0 0 1-.286-.285c0-.16.125-.285.285-.285s.285.125.285.285a.29.29 0 0 1-.285.285M6.336 17.188a.635.635 0 0 0-.637.64.639.639 0 1 0 1.277 0c0-.355-.3-.64-.64-.64m0 .925a.28.28 0 0 1-.281-.285c0-.16.12-.285.28-.285s.286.125.286.285c0 .14-.125.285-.285.285M4.863 17.828a.64.64 0 0 0-.64-.64.64.64 0 0 0-.641.64c0 .356.285.64.64.64s.641-.304.641-.64m-.625.285a.28.28 0 0 1-.285-.285c0-.16.125-.285.285-.285s.285.125.285.285c0 .14-.14.285-.285.285M14.39 20.246a2.417 2.417 0 1 0 .001-4.837 2.417 2.417 0 0 0 0 4.837m0-4.5c1.141 0 2.083.926 2.083 2.082a2.08 2.08 0 1 1-2.082-2.082m0 0"/><path fill="#061c3d" d="M13.094 18.395h.71v.71c0 .09.071.18.18.18h.817c.09 0 .18-.07.18-.18v-.71h.71c.086 0 .176-.07.176-.176v-.82a.177.177 0 0 0-.176-.176h-.71v-.711c0-.09-.075-.18-.18-.18h-.817c-.09 0-.18.074-.18.18v.71h-.71c-.09 0-.176.071-.176.176v.82c0 .106.086.177.176.177m.18-.817h.71c.086 0 .176-.07.176-.18v-.71h.465v.71c0 .09.07.18.176.18h.71v.461h-.71a.18.18 0 0 0-.176.18v.71h-.465v-.71c0-.09-.07-.18-.176-.18h-.71ZM10.586 18.469c.355 0 .64-.285.64-.64a.64.64 0 0 0-.64-.642.64.64 0 0 0-.64.641c0 .356.284.64.64.64m0-.946c.16 0 .305.125.305.305a.3.3 0 0 1-.305.3c-.16 0-.3-.124-.3-.3a.3.3 0 0 1 .3-.305M9.094 18.469c.355 0 .64-.285.64-.64a.64.64 0 0 0-.64-.642.64.64 0 0 0-.64.641c0 .356.284.64.64.64m0-.946a.3.3 0 0 1 .3.305c0 .16-.124.3-.3.3-.16 0-.301-.124-.301-.3a.3.3 0 0 1 .3-.305M12.969 1.078a.53.53 0 0 0-.531.531c0 .286.23.536.53.536.286 0 .536-.23.536-.536a.535.535 0 0 0-.535-.53m0 .711a.18.18 0 0 1-.176-.18c0-.086.086-.175.176-.175.105 0 .18.09.18.175 0 .09-.075.18-.18.18M14.375 1.078a.535.535 0 0 0-.535.531.533.533 0 1 0 1.066 0 .545.545 0 0 0-.531-.53m0 .711c-.11 0-.18-.09-.18-.18 0-.086.09-.175.18-.175.105 0 .176.09.176.175 0 .09-.086.18-.176.18M15.762 1.078a.535.535 0 0 0-.535.531.533.533 0 1 0 .535-.531m0 .711a.18.18 0 0 1-.18-.18c0-.086.09-.175.18-.175.105 0 .175.09.175.175 0 .09-.07.18-.175.18m0 0"/><g clip-path="url(#a)"><path fill="#061c3d" d="m29.184 18.59-.852-.246c.32-1.176.48-2.383.48-3.63 0-3.198-1.101-6.327-3.093-8.82V1.45a.92.92 0 0 0-.551-.832.8.8 0 0 0-.355-.074h-12.29a.92.92 0 0 0-.675.305C5.27 2.164.504 7.977.504 14.715c0 2.187.48 4.285 1.441 6.242v1.672a2.264 2.264 0 0 0 2.258 2.258c.18 0 .375-.02.535-.07 2.664 2.613 6.168 4.035 9.903 4.035 3.699 0 7.183-1.407 9.832-3.985.285-.015.535.07.586-.125l.214-.71c.125-.141.25-.286.375-.446.106-.05.23-.086.336-.14l.961.515c.07.035.16.02.215-.035l1.207-1.211c.055-.05.07-.14.035-.211l-.515-.961c.105-.195.18-.39.25-.605l1.047-.32a.16.16 0 0 0 .125-.161v-1.723c0-.054-.051-.125-.125-.144m-1.297-.922.375-.711q-.081.533-.215 1.066c-.055-.125-.106-.23-.16-.355m.55-2.953c0 .586-.035 1.176-.105 1.742l-1.172-1.172a.19.19 0 0 0-.215-.035l-.96.516c-.09-.055-.196-.09-.286-.125V6.449a13.85 13.85 0 0 1 2.738 8.266m-8.746 1.992.516.961c-.11.195-.18.39-.25.602l-1.05.32a.17.17 0 0 0-.122.16v.41h-1.05V17.88c0-1.848-1.477-3.375-3.31-3.395h-.034a3.3 3.3 0 0 0-2.274.907c-.055.035-.09.07-.144.105V2.68h13.39v12.73l-.285-.96a.175.175 0 0 0-.16-.126h-1.727c-.07 0-.14.055-.16.125l-.316 1.047c-.215.074-.41.16-.606.25l-.96-.516a.2.2 0 0 0-.215.036l-1.207 1.21c-.07.07-.09.16-.036.231m.016 6.027 1.211 1.211c.05.051.14.07.21.035l.962-.515c.195.105.39.176.605.246l.25.836h-6.277a2.25 2.25 0 0 0 1.066-1.902V19.5h1.051v.957c0 .074.05.145.121.16l1.051.32c.07.215.16.41.25.606l-.516.96c-.054.09-.035.177.016.231m-10.773-9.62h-4.27a.72.72 0 0 1-.726-.727c0-.41.32-.73.726-.73h5.356a.91.91 0 0 0 .906-.907.91.91 0 0 0-.906-.906H7.848a1.209 1.209 0 0 1 0-2.418h3.77v8.215c-.071.015-.161.035-.247.035H10v-1.477a1.05 1.05 0 0 0-1.066-1.086m16.41-11.665v.89H11.973v-.89c0-.3.25-.566.57-.566h12.27c.07 0 .14.015.21.035.18.105.32.3.32.531M.859 14.715C.86 8.242 5.38 2.64 11.652 1.254c-.015.074-.015.125-.015.195v5.637h-3.79c-.85 0-1.562.695-1.562 1.566s.692 1.567 1.563 1.567h2.172c.3 0 .55.246.55.55 0 .301-.25.551-.55.551H4.684a1.09 1.09 0 0 0-1.086 1.082c0 .59.48 1.086 1.086 1.086h4.265c.41 0 .73.32.73.73v1.473H8.313c-.285 0-.55-.105-.75-.28a3.32 3.32 0 0 0-2.308-.907c-1.816 0-3.309 1.527-3.309 3.375v2.223A13.5 13.5 0 0 1 .86 14.715m1.442 7.894v-4.746c0-1.672 1.332-3.023 2.953-3.043a3.07 3.07 0 0 1 2.062.801c.266.25.602.375.977.375h3.078c.371 0 .711-.144.977-.375.55-.516 1.28-.8 2.043-.8h.035c1.636.019 2.953 1.386 2.953 3.042v4.73a1.91 1.91 0 0 1-1.922 1.903c-.816 0-1.527-.516-1.812-1.3l-1.122-2.489a1.44 1.44 0 0 0-1.312-.852H8.453c-.57 0-1.086.336-1.316.852L6.016 23.25a1.91 1.91 0 0 1-1.793 1.281A1.916 1.916 0 0 1 2.3 22.61m11.965 1.922H5.414c.426-.27.746-.66.922-1.156l1.121-2.488c.18-.395.57-.66.996-.66h2.758c.426 0 .832.25.992.66l1.121 2.468c.18.5.516.907.942 1.176m-8.942.356h18.653c-2.543 2.347-5.832 3.625-9.317 3.625a13.8 13.8 0 0 1-9.336-3.625m23.63-4.555-1.013.305a.17.17 0 0 0-.125.125c-.07.246-.18.48-.3.71q-.06.078 0 .16l.496.923-1.032 1.03-.925-.495q-.078-.053-.16 0c-.23.125-.461.215-.711.3-.051.02-.106.055-.125.126l-.106.39-.176.625h-1.46l-.301-1.015c-.02-.051-.055-.106-.125-.125a3 3 0 0 1-.711-.301.135.135 0 0 0-.16 0l-.926.496-1.032-1.031.5-.922q.054-.084 0-.16a5 5 0 0 1-.304-.711c-.016-.055-.051-.11-.121-.125l-1.016-.305v-1.457l1.016-.3c.05-.02.105-.055.12-.126.075-.25.18-.48.305-.71a.135.135 0 0 0 0-.16l-.5-.927 1.032-1.03.926.5a.135.135 0 0 0 .16 0c.23-.126.46-.216.71-.306a.17.17 0 0 0 .126-.125l.3-1.011h1.461l.301 1.011c.02.055.055.11.125.125.25.075.496.18.711.305a.135.135 0 0 0 .16 0l.926-.5 1.031 1.031-.5.926a.135.135 0 0 0 0 .16c.125.23.215.461.301.711.02.055.055.106.125.125l.125.035.89.266v1.457Zm0 0"/></g><path fill="#061c3d" d="M14.941 3.992H13.31c-.09 0-.18.074-.18.18 0 .09.07.176.18.176h1.632c.09 0 .18-.07.18-.176 0-.09-.07-.18-.18-.18M15.656 4.348h.672c.09 0 .18-.07.18-.176 0-.09-.07-.18-.18-.18h-.672c-.09 0-.18.074-.18.18.02.105.09.176.18.176M14.941 4.703H13.31c-.09 0-.18.074-.18.18 0 .09.07.18.18.18h1.632c.09 0 .18-.075.18-.18 0-.106-.07-.18-.18-.18M15.656 5.063h.672c.09 0 .18-.075.18-.18 0-.09-.07-.18-.18-.18h-.672c-.09 0-.18.074-.18.18.02.09.09.18.18.18M15.852 5.879c0 .09.07.176.175.176h1.637c.09 0 .176-.07.176-.176 0-.09-.07-.18-.176-.18h-1.637a.18.18 0 0 0-.175.18M18.5 6.04h1.637c.086 0 .175-.071.175-.18a.177.177 0 0 0-.175-.176H18.5c-.09 0-.18.07-.18.175 0 .11.07.18.18.18M20.953 6.04h3.059c.09 0 .175-.071.175-.18a.177.177 0 0 0-.175-.176h-3.059c-.09 0-.18.07-.18.175 0 .11.09.18.18.18M15.852 6.82c0 .09.07.18.175.18h4.305a.18.18 0 0 0 .176-.18c0-.09-.07-.175-.176-.175h-4.305c-.09.015-.175.085-.175.175M20.953 7h2.277a.18.18 0 0 0 .176-.18c0-.09-.07-.175-.176-.175h-2.277c-.09 0-.18.07-.18.175 0 .106.09.18.18.18M18.82 7.39h-2.793c-.09 0-.175.07-.175.176 0 .09.07.18.175.18h2.793c.086 0 .176-.07.176-.18 0-.105-.07-.175-.176-.175M22.516 7.566a.177.177 0 0 0-.176-.175h-2.793a.177.177 0 0 0-.176.175c0 .09.07.18.176.18h2.793c.105 0 .176-.09.176-.18M14.941 8.758H13.31c-.09 0-.18.07-.18.18 0 .09.07.175.18.175h1.632c.09 0 .18-.07.18-.175 0-.11-.07-.18-.18-.18M15.656 9.113h.672c.09 0 .18-.07.18-.175 0-.09-.07-.18-.18-.18h-.672c-.09 0-.18.07-.18.18.02.09.09.175.18.175M14.941 9.469H13.31c-.09 0-.18.074-.18.18 0 .09.07.175.18.175h1.632c.09 0 .18-.07.18-.176s-.07-.18-.18-.18M16.508 9.648c0-.09-.07-.18-.18-.18h-.672c-.09 0-.18.075-.18.18 0 .09.07.176.18.176h.672c.11-.015.18-.086.18-.176M15.852 10.625c0 .09.07.18.175.18h1.637c.09 0 .176-.07.176-.18 0-.09-.07-.176-.176-.176h-1.637a.186.186 0 0 0-.175.176M18.32 10.625c0 .09.07.18.18.18h1.637c.086 0 .175-.07.175-.18 0-.09-.07-.176-.175-.176H18.5c-.11 0-.18.086-.18.176M24.012 10.45h-3.059c-.09 0-.18.07-.18.175 0 .09.075.18.18.18h3.059c.09 0 .175-.07.175-.18a.186.186 0 0 0-.175-.176M16.027 11.766h4.305a.18.18 0 0 0 .176-.18c0-.09-.07-.18-.176-.18h-4.305a.18.18 0 0 0-.175.18c0 .105.085.18.175.18M23.246 11.406h-2.293c-.09 0-.18.074-.18.18 0 .09.075.18.18.18h2.277a.18.18 0 0 0 .176-.18c0-.09-.07-.18-.16-.18M18.82 12.156h-2.793c-.09 0-.175.07-.175.176 0 .09.07.18.175.18h2.793c.086 0 .176-.07.176-.18 0-.105-.07-.176-.176-.176M22.516 12.332c0-.09-.07-.176-.176-.176h-2.793a.177.177 0 0 0-.176.176c0 .09.07.18.176.18h2.793c.105-.02.176-.09.176-.18M20.953 19.66l1.723.797v-.426l-1.278-.586v-.054l1.278-.586v-.41l-1.723.8ZM23.07 21.313h.371l1.582-3.415h-.37ZM25.398 18.805l1.297.586v.054l-1.297.586v.426l1.743-.797v-.465l-1.743-.8Zm0 0"/></svg>