<svg xmlns="http://www.w3.org/2000/svg" width="40" height="40" version="1.0" viewBox="0 0 30 30"><defs><clipPath id="a"><path d="M9 12h12v9.773H9Zm0 0"/></clipPath><clipPath id="b"><path d="M4.285 5H11v12H4.285Zm0 0"/></clipPath><clipPath id="c"><path d="M4.285 21.434H26.06v7.257H4.285Zm0 0"/></clipPath></defs><path fill="#061c3d" d="M10.543 16.266a.66.66 0 0 1-.66-.66v-2.258c.023-1.489.969-2.371 2.52-2.371h4.84c2.015 0 3.214-1.133 3.214-3.036V5.688a.663.663 0 1 1 1.324 0V7.89c0 2.699-1.781 4.406-4.539 4.406h-4.84c-1.039 0-1.191.539-1.199 1.062v2.246c0 .364-.297.66-.66.66m0 0"/><g clip-path="url(#a)"><path fill="#061c3d" d="M15.102 21.336c-.856 0-1.723-.07-2.551-.203-1.621-.274-2.668-1.52-2.668-3.176v-4.61a.66.66 0 1 1 1.32 0v4.61c0 1.008.586 1.703 1.567 1.871 1.53.246 3.21.246 4.609-.012.824-.14 1.344-.347 1.586-.636.2-.239.285-.602.285-1.223v-2.133h-3.64a.663.663 0 0 1 0-1.324h4.3c.367 0 .664.297.664.66v2.797c0 .637-.07 1.45-.597 2.074-.461.543-1.215.89-2.368 1.09-.777.14-1.632.215-2.507.215m0 0"/></g><path fill="#061c3d" d="M21.727 15.824h-1.813a.66.66 0 1 1 0-1.32h1.813c1.277 0 1.882-.453 2.164-1.613.425-1.778.425-2.813-.004-4.61-.383-1.605-.961-1.933-1.707-1.933h-.399V7.89c0 .363-.297.687-.66.687-.367 0-.664-.27-.664-.637V5.688c0-.368.297-.665.664-.665h1.059c2.047 0 2.691 1.684 2.996 2.95.469 1.988.469 3.257 0 5.23-.422 1.738-1.582 2.621-3.45 2.621M16.715 19.352a1.543 1.543 0 1 1 0-3.086c.848 0 1.539.691 1.539 1.539a1.554 1.554 0 0 1-1.54 1.547m0-1.766a.22.22 0 0 0-.223.219c0 .242.438.246.442-.004a.223.223 0 0 0-.22-.215M8.781 16.484a.66.66 0 0 1-.66-.66v-2.203c0-2.7 1.781-4.41 4.54-4.41H17.5c1.04 0 1.188-.535 1.2-1.059V5.906a.66.66 0 1 1 1.32 0v2.258c-.028 1.488-.97 2.371-2.52 2.371h-4.84c-2.015 0-3.219 1.133-3.219 3.031v2.258a.66.66 0 0 1-.66.66m0 0"/><path fill="#061c3d" d="M19.36 8.824a.657.657 0 0 1-.66-.66v-4.61c0-1.007-.587-1.706-1.567-1.87-1.531-.25-3.211-.246-4.61.007-.824.141-1.343.352-1.59.641-.199.234-.285.598-.285 1.223v2.133h3.641c.367 0 .664.296.664.66 0 .363-.297.66-.664.66h-4.3a.66.66 0 0 1-.66-.66V3.555c0-.64.066-1.453.597-2.078.46-.543 1.21-.891 2.367-1.086 1.535-.282 3.379-.286 5.059-.012 1.62.273 2.668 1.52 2.668 3.176v4.61a.66.66 0 0 1-.66.66m0 0"/><g clip-path="url(#b)"><path fill="#061c3d" d="M8.781 16.484H7.723c-2.051 0-2.692-1.68-2.996-2.945-.473-1.992-.473-3.258 0-5.23.421-1.739 1.582-2.621 3.445-2.621h1.816a.66.66 0 1 1 0 1.32H8.172c-1.274 0-1.879.453-2.16 1.61-.426 1.78-.426 2.816 0 4.612.386 1.606.965 1.934 1.71 1.934h.4v-1.543c0-.367.296-.687.66-.687.363 0 .66.27.66.636v2.254a.66.66 0 0 1-.66.66m0 0"/></g><path fill="#061c3d" d="M13.188 5.246a1.544 1.544 0 0 1-1.543-1.543c.007-.855.699-1.543 1.543-1.543a1.544 1.544 0 0 1 0 3.086m0-1.766a.224.224 0 0 0-.22.23c0 .231.442.235.442-.007a.23.23 0 0 0-.223-.223m0 0"/><g clip-path="url(#c)"><path fill="#061c3d" d="M6.86 21.484h1.187v5.184a8.3 8.3 0 0 1-1.547.152c-1.453 0-2.21-.617-2.21-1.8 0-1.145.804-1.883 2.05-1.883.191 0 .34.011.515.054Zm0 2.61a1.3 1.3 0 0 0-.403-.059c-.605 0-.953.352-.953.961 0 .598.332.922.945.922q.206 0 .41-.027Zm3.085-.88v2.595c0 .894-.07 1.324-.277 1.695-.195.355-.45.582-.977.828l-1.105-.492c.527-.235.781-.438.945-.75.168-.32.223-.692.223-1.664v-2.207Zm-1.191-1.722h1.191v1.153H8.754Zm1.91 1.977a3.8 3.8 0 0 1 1.578-.332c.61 0 1.012.152 1.192.449.097.168.129.387.129.852v2.277c-.532.07-1.208.12-1.7.12-1 0-1.449-.327-1.449-1.054 0-.785.598-1.148 2.059-1.261v-.25c0-.204-.11-.278-.41-.278a3.26 3.26 0 0 0-1.399.344Zm1.863 1.781c-.789.074-1.047.191-1.047.48 0 .22.149.32.473.32.18 0 .344-.015.574-.05Zm1.618-1.86c.707-.175 1.285-.253 1.875-.253.609 0 1.05.129 1.312.383.25.242.324.503.324 1.062v2.195h-1.191v-2.152c0-.43-.152-.59-.578-.59-.164 0-.309.016-.551.082v2.66h-1.191Zm3.972 3.997c.418.203.836.3 1.278.3.78 0 1.113-.3 1.113-1.011v-.024c-.23.11-.461.153-.774.153-1.047 0-1.707-.645-1.707-1.672 0-1.27.98-1.988 2.723-1.988.508 0 .98.05 1.555.156l-.41.808c-.317-.058-.024-.007-.266-.027v.113l.016.473.007.613c.008.153.008.305.016.457v.305c0 .96-.082 1.41-.34 1.781q-.556.819-1.926.817c-.465 0-.867-.067-1.28-.22v-1.03Zm2.371-3.344h-.125c-.23-.008-.5.05-.687.16-.285.152-.434.43-.434.824 0 .559.297.88.82.88.165 0 .297-.032.45-.075v-.387c0-.129-.008-.277-.008-.425l-.008-.52-.008-.367Zm3.664-.922c1.192 0 1.918.703 1.918 1.848 0 1.168-.758 1.902-1.965 1.902-1.19 0-1.925-.703-1.925-1.84 0-1.176.758-1.91 1.972-1.91m-.023 2.848c.457 0 .726-.356.726-.973 0-.613-.261-.973-.718-.973-.473 0-.742.356-.742.973s.27.973.734.973m0 0"/></g></svg>