<svg xmlns="http://www.w3.org/2000/svg" width="40" height="40" version="1.0" viewBox="0 0 30 30"><defs><clipPath id="a"><path d="M.484 6h29.032v23.031H.484Zm0 0"/></clipPath></defs><path fill="#061c3d" d="M5.05 15.352a10.7 10.7 0 0 1-.679-3.73c0-1.423.274-2.806.816-4.071.813-.067 1.649-.723 2.395-1.29.34-.269.703-.542.906-.632.883-.36 1.38-1.672 1.492-2.305.067-.34.047-.703-.046-1.039 1.539-.84 3.28-1.289 5.09-1.289h.023c.61 0 1.195.043 1.762.156-.317.25-.68.387-1.086.364h-.18c-.43-.024-.926-.047-1.402.246-.27.16-.453.363-.567.613a.8.8 0 0 0-.066.496c-.09 0-.18-.023-.293-.043-.52-.137-1.02 0-1.29.383-.316.453-.292 1.039.067 1.582.34.52.973.793 1.88.793h.019c.16 0 .41 0 .613-.137.02.047.336.383.45.477.206.18.476.222.769.156.047-.023.09 0 .09 0 .25.066.542.16.84.273.042.02.109.067.222.157.023.023.023.09 0 .136-.203.067-.43.114-.633.137-.902.11-1.648-.023-2.328-.387.113.204.16.454.16.68v.383q.709.272 1.559.273c.226 0 .476-.023.722-.046.274-.047.567-.09.86-.18.273-.09.453-.317.52-.613.07-.317.023-.723-.223-.993a1.7 1.7 0 0 0-.524-.363 6 6 0 0 0-.925-.293c-.204-.066-.407-.023-.543 0-.043-.047-.473-.52-.586-.61-.297-.226-.68-.202-.93.09h-.133c-.41 0-.93-.09-1.156-.406-.043-.093-.227-.363-.067-.566.067-.09.27-.047.317-.047.406.113.77.09 1.11-.043.292-.137.405-.316.429-.477a.66.66 0 0 0-.09-.519c.043-.047.09-.113.18-.156.246-.137.52-.137.902-.114h.184a2.46 2.46 0 0 0 1.738-.613c.184-.156.34-.293.453-.406a10.8 10.8 0 0 1 4.66 2.734c.856.86 1.559 1.856 2.055 2.918 0 .024-.18 1.516-.43 2.309a1 1 0 0 1-.066.156 52 52 0 0 0-.656-1.152c-.68-1.2-1.786-1.856-2.918-1.672-.203.02-.543.223-.676.52a.76.76 0 0 0 .043.722c.07.113.16.227.203.316.047.067.113.157.113.18 0 0 0 .024-.02.047-.093.227-.25.383-.452.43-.204.066-.43 0-.633-.16a.5.5 0 0 0-.5-.067c-.246.09-.383.383-.43.813-.043.34 0 .746.137 1.132a1.4 1.4 0 0 1 .949-.136 1.1 1.1 0 0 1-.203-.746c.293.113.633.113.926.023.476-.137.859-.5 1.043-.973.203-.52-.07-.882-.227-1.109-.023-.043-.07-.09-.09-.133.86-.113 1.559.563 1.922 1.219.067.137.45.813.563 1.02l.023.02c.137.226.387.655.816.679.247.023.7-.09.95-.883.09-.316.18-.563.226-.836.246.926.383 1.898.383 2.871a9.8 9.8 0 0 1-.316 2.465c.203.34.316.723.316 1.11v.812c.566-1.356.902-2.848.902-4.41a11.5 11.5 0 0 0-3.343-8.207A11.38 11.38 0 0 0 15 0h-.023C11.926.09 9.03 1.29 6.836 3.46a11.46 11.46 0 0 0-3.367 8.161c0 2.125.586 4.117 1.582 5.836ZM7.493 4.113c.5-.496 1.043-.949 1.63-1.332 0 .114 0 .25-.024.364-.133.652-.563 1.492-.973 1.648-.316.137-.676.43-1.105.746-.387.293-.86.68-1.313.906a10 10 0 0 1 1.785-2.332m0 0"/><path fill="#061c3d" d="M10.93 15.465v-.227a.452.452 0 0 0-.902 0v.25c.066 0 .156-.023.222-.023ZM9.121 15.781v-.543a.453.453 0 0 0-.906 0v.907c0 .136.07.25.16.34a2 2 0 0 1 .746-.704M12.063 18.633h-.907a.453.453 0 0 0-.453.449c0 .25.203.453.453.453h.906a.452.452 0 0 0 0-.902M13.871 19.535h.902c.25 0 .454-.203.454-.453a.453.453 0 0 0-.454-.45h-.902a.453.453 0 0 0-.453.45c0 .25.203.453.453.453M12.063 20.441h-.907a.453.453 0 0 0-.453.45c0 .25.203.453.453.453h.906a.452.452 0 0 0 0-.902M13.871 21.344h.902c.25 0 .454-.203.454-.453a.453.453 0 0 0-.454-.45h-.902a.453.453 0 0 0-.453.45c0 .25.203.453.453.453M12.063 22.25h-.907a.453.453 0 0 0-.453.453c0 .246.203.45.453.45h.906a.452.452 0 0 0 0-.903M15.227 22.703a.453.453 0 0 0-.454-.453h-.902a.453.453 0 0 0-.453.453c0 .246.203.45.453.45h.902c.25 0 .454-.204.454-.45M10.477 13.883c.25 0 .453-.203.453-.453v-.903a.453.453 0 0 0-.453-.453.453.453 0 0 0-.45.453v.903c0 .25.203.453.45.453M8.668 13.883c.25 0 .453-.203.453-.453v-.903a.453.453 0 0 0-.906 0v.903c0 .25.207.453.453.453M20.652 16.824a.453.453 0 0 0-.453.45v.906a.453.453 0 0 0 .906 0v-.907a.453.453 0 0 0-.453-.449M22.46 16.824a.453.453 0 0 0-.452.45v.906a.453.453 0 0 0 .906 0v-.907a.453.453 0 0 0-.453-.449M20.652 19.535a.453.453 0 0 0-.453.453v.903a.453.453 0 0 0 .906 0v-.903a.453.453 0 0 0-.453-.453M22.46 19.535a.453.453 0 0 0-.452.453v.903a.453.453 0 0 0 .906 0v-.903a.453.453 0 0 0-.453-.453M20.652 22.25a.453.453 0 0 0-.453.453v.902a.453.453 0 0 0 .906 0v-.902a.453.453 0 0 0-.453-.453M22.46 22.25a.453.453 0 0 0-.452.453v.902a.453.453 0 0 0 .906 0v-.902a.453.453 0 0 0-.453-.453M20.652 24.96a.453.453 0 0 0-.453.454v.906a.453.453 0 0 0 .906 0v-.906a.453.453 0 0 0-.453-.453M22.46 24.96a.453.453 0 0 0-.452.454v.906a.453.453 0 0 0 .906 0v-.906a.453.453 0 0 0-.453-.453m0 0"/><g clip-path="url(#a)"><path fill="#061c3d" d="M29.02 28.129h-1.582v-.817c.542-.246.902-.902.902-1.718 0-1.016-.586-1.809-1.356-1.809s-1.355.793-1.355 1.809c0 .793.36 1.472.902 1.718v.817h-1.808V15.262c0-.43-.227-.836-.61-1.086l-4.703-2.668c-.203-.133-.453-.133-.68-.024a.67.67 0 0 0-.34.567v1.605h-1.355v-1.582c0-.746-.61-1.355-1.355-1.355H13.19v-3.64c0-.25-.136-.5-.382-.59-.227-.114-.5-.067-.704.09L6.406 11.44c-.293.25-.449.586-.449.973V28.13H4.148v-.817c.543-.246.903-.902.903-1.718 0-1.016-.586-1.809-1.356-1.809s-1.355.793-1.355 1.809c0 .793.36 1.472.902 1.718v.817H.98a.455.455 0 0 0-.453.45c0 .25.207.452.453.452h28.04a.456.456 0 0 0 .453-.453.455.455 0 0 0-.453-.45m-2.036-3.438c.18 0 .453.364.453.903 0 .543-.273.906-.453.906s-.453-.363-.453-.906c0-.54.274-.903.453-.903m-23.289 0c.18 0 .453.364.453.903 0 .543-.273.906-.453.906s-.453-.363-.453-.906c0-.54.274-.903.453-.903m15.602-12.21 4.34 2.488c.113.066.18.18.18.316V28.13h-4.52Zm-12.438-.067q.001-.169.137-.273l5.29-4.52v7.844h.905V11.62h2.489c.246 0 .449.203.449.453v1.606A1.36 1.36 0 0 0 15 15.012v.453h.68c.066 0 .156 0 .226.023v-.476c0-.246.203-.45.45-.45h2.035V28.13h-1.356V17.727c0-.747-.61-1.356-1.355-1.356h-5.43c-.746 0-1.355.61-1.355 1.356v10.402H6.859Zm4.977 15.715v-2.715h2.258v2.715Zm2.71-3.617h-3.163a.453.453 0 0 0-.453.449v3.168H9.8V17.727c0-.25.204-.454.45-.454h5.43c.246 0 .449.204.449.454v10.402H15V24.96a.453.453 0 0 0-.453-.45m0 0"/></g></svg>