<svg xmlns="http://www.w3.org/2000/svg" width="40" height="40" version="1.0" viewBox="0 0 30 30"><defs><clipPath id="a"><path d="M.738 0h28.305v29H.738Zm0 0"/></clipPath></defs><g clip-path="url(#a)"><path fill="#061c3d" fill-rule="evenodd" d="M16.84 24.914h-.899c-1.925 0-3.488-1.555-3.488-3.469 0-1.91 1.563-3.465 3.488-3.465h.133a4 4 0 0 1-.02-.406c0-2.406 1.966-4.363 4.387-4.363 2.368 0 4.297 1.867 4.383 4.195q.207-.023.418-.023c2.09 0 3.79 1.687 3.79 3.765s-1.7 3.766-3.79 3.766h-.601v3.41c0 .27-.22.488-.489.488h-6.824a.49.49 0 0 1-.488-.488Zm7.8-.977h.602c1.551 0 2.813-1.25 2.813-2.789 0-1.543-1.262-2.789-2.813-2.789-.273 0-.539.04-.789.11a.48.48 0 0 1-.45-.094.5.5 0 0 1-.171-.426 3 3 0 0 0 .023-.375c0-1.87-1.53-3.387-3.414-3.387-1.882 0-3.414 1.516-3.414 3.387 0 .293.04.582.114.856a.487.487 0 0 1-.59.598 2.6 2.6 0 0 0-.61-.075 2.503 2.503 0 0 0-2.511 2.492 2.503 2.503 0 0 0 2.511 2.492h.899v-3.414c0-.27.219-.484.488-.484h2.926a.485.485 0 1 1 0 .973h-2.438v2.925h5.852v-2.925h-1.465a.485.485 0 1 1 0-.973h1.95c.269 0 .488.215.488.484Zm-6.824.977v2.922h5.852v-2.922Zm1.95 1.95a.488.488 0 0 1 0-.977h1.949a.488.488 0 0 1 0 .976Zm0-3.903a.485.485 0 1 1 0-.973h1.949c.27 0 .488.219.488.489s-.219.484-.488.484ZM5.14 14.676h-.899c-1.926 0-3.488-1.555-3.488-3.469 0-1.91 1.562-3.465 3.488-3.465h.13a5 5 0 0 1-.02-.406c0-2.406 1.964-4.363 4.39-4.363 2.387 0 4.328 1.898 4.387 4.254a.489.489 0 0 1-.09.937q-.146.028-.285.066a.48.48 0 0 1-.45-.093.48.48 0 0 1-.171-.426q.019-.187.02-.375c0-1.871-1.528-3.387-3.41-3.387-1.884 0-3.415 1.516-3.415 3.387 0 .293.04.582.11.855a.5.5 0 0 1-.122.47.49.49 0 0 1-.464.128 2.6 2.6 0 0 0-.61-.074c-1.387 0-2.515 1.117-2.515 2.492 0 1.379 1.128 2.492 2.515 2.492h.899v-3.414c0-.265.218-.484.488-.484h6.824c.27 0 .488.219.488.484V13.7h.602c1.55 0 2.812-1.25 2.812-2.789a2.8 2.8 0 0 0-1.664-2.547c-.246-.11-.359-.398-.246-.644a.484.484 0 0 1 .64-.246 3.76 3.76 0 0 1 2.243 3.437c0 2.078-1.695 3.766-3.785 3.766h-.602v3.41c0 .27-.218.488-.488.488H5.63a.49.49 0 0 1-.488-.488Zm6.824-.977v-2.926H6.117V13.7Zm-5.848.977v2.926h5.848v-2.926Zm1.95 1.949a.488.488 0 0 1 0-.977h1.949a.488.488 0 0 1 0 .977Zm0-3.902a.485.485 0 1 1 0-.973h1.949a.485.485 0 1 1 0 .973Zm20.738-.98-3.207 2.05a.49.49 0 0 1-.715-.227l-1.442-3.523a.5.5 0 0 1 .094-.516.49.49 0 0 1 .508-.132l.754.238a5.849 5.849 0 0 0-4.074-5.895 5.85 5.85 0 0 0-5.528 1.09.487.487 0 0 1-.672-.043l-1.32-1.437a.47.47 0 0 1-.125-.36.48.48 0 0 1 .168-.34 8.776 8.776 0 0 1 14.398 7.887l1.043.332c.184.055.313.211.336.399a.48.48 0 0 1-.218.476m-1.403-.263-.457-.144a.487.487 0 0 1-.332-.555c.157-.8.18-1.601.086-2.379a7.8 7.8 0 0 0-5.39-6.523 7.78 7.78 0 0 0-7.036 1.195l.665.723a6.8 6.8 0 0 1 6.078-.988 6.82 6.82 0 0 1 4.683 7.543.493.493 0 0 1-.629.39l-.332-.105.825 2.02Zm0 0"/></g></svg>