<svg xmlns="http://www.w3.org/2000/svg" width="40" height="40" version="1.0" viewBox="0 0 30 30"><defs><clipPath id="a"><path d="M2.898 0h23.95v29H2.898Zm0 0"/></clipPath></defs><g clip-path="url(#a)"><path fill="#061c3d" d="M21.457 10.773a2.995 2.995 0 0 0 2.992-2.992.6.6 0 0 0-.597-.597 2.995 2.995 0 0 0-2.993 2.992c0 .332.27.597.598.597m-1.355 12.98a5.2 5.2 0 0 1-1.422.192c-1.532 0-2.696-1.34-3.254-2.14-.008-.012-.024-.016-.035-.028a.6.6 0 0 0-.137-.125c-.024-.011-.04-.03-.063-.039a.6.6 0 0 0-.257-.062H4.098V5.984H19.66v1.059a.6.6 0 0 0 1.2 0v-4.05A2.997 2.997 0 0 0 17.866 0H5.895a2.995 2.995 0 0 0-2.993 2.992v22.746a2.996 2.996 0 0 0 2.993 2.996h11.972a3 3 0 0 0 2.992-2.996v-1.406a.598.598 0 0 0-.757-.578M16.68 2.396h.011c.332 0 .602.27.602.597a.601.601 0 0 1-1.203 0c0-.328.262-.597.59-.597m-5.996 0h2.394a.598.598 0 1 1 0 1.195h-2.394a.598.598 0 1 1 0-1.195m1.195 23.945c-.66 0-1.195-.54-1.195-1.2s.535-1.195 1.195-1.195 1.2.535 1.2 1.196-.54 1.199-1.2 1.199m14.871-8.207a.6.6 0 0 0-.426-.27c-.851-.113-1.496-.816-1.496-1.629 0-.714.485-1.343 1.207-1.566a.597.597 0 0 0 .32-.902c-.699-1.055-1.812-1.793-2.71-1.793-.602 0-1.141.175-1.622.332-.37.117-.718.23-1.007.23-.286 0-.637-.113-1.004-.234-.477-.153-1.02-.328-1.621-.328-1.403 0-3.52 1.812-3.52 4.543 0 2.574 1.973 6.23 3.813 6.23.878 0 1.418-.23 1.808-.398.496-.215.559-.215 1.051 0 .39.168.93.398 1.812.398 1.375 0 2.844-2.094 3.465-4.113a.61.61 0 0 0-.07-.5m0 0"/></g></svg>