<svg xmlns="http://www.w3.org/2000/svg" width="40" height="40" version="1.0" viewBox="0 0 30 30"><defs><clipPath id="a"><path d="M.484 0h29.032v29H.484Zm0 0"/></clipPath></defs><g clip-path="url(#a)"><path fill="#fff" d="m6.137 17.137-.078-.024a1.1 1.1 0 0 0-.848.063c-.27.137-.465.363-.559.648l-.117.356a11 11 0 0 1-.656-3.778c0-2.195.637-4.32 1.848-6.144l.023-.031a1.12 1.12 0 0 0-.312-1.547l-.07-.047a1.1 1.1 0 0 0-.837-.164c-.293.062-.543.23-.707.476l-.023.035a13.36 13.36 0 0 0-2.235 7.422c0 1.664.297 3.278.883 4.809l-.328-.11a1.1 1.1 0 0 0-.851.067c-.266.133-.461.363-.555.645l-.027.078a1.12 1.12 0 0 0 .71 1.41l3.762 1.234q.053.019.113.02c.149 0 .29-.098.34-.246l1.235-3.762a1.11 1.11 0 0 0-.711-1.41m.031 1.183-1.125 3.422-3.422-1.125a.4.4 0 0 1-.254-.504l.028-.078a.38.38 0 0 1 .199-.23.42.42 0 0 1 .304-.024l1.07.352a.36.36 0 0 0 .38-.102.36.36 0 0 0 .058-.386 12.6 12.6 0 0 1-1.125-5.243c0-2.511.73-4.941 2.114-7.027l.023-.035a.4.4 0 0 1 .555-.11l.07.047a.393.393 0 0 1 .11.551l-.02.035a11.8 11.8 0 0 0-1.969 6.54c0 1.734.363 3.402 1.082 4.96a.36.36 0 0 0 .668-.04l.418-1.276a.42.42 0 0 1 .2-.235.4.4 0 0 1 .304-.019l.082.023a.4.4 0 0 1 .25.504m16.734 5.47-3.761-1.235a1.11 1.11 0 0 0-.852.062c-.266.137-.46.367-.555.649l-.027.078c-.09.281-.066.582.066.851.133.266.364.461.645.555l.36.117a11 11 0 0 1-3.778.66c-2.2 0-4.324-.64-6.145-1.851l-.035-.024c-.246-.164-.543-.222-.836-.164-.293.063-.543.23-.707.477l-.047.07c-.34.512-.199 1.207.313 1.547l.035.02A13.35 13.35 0 0 0 15 27.84c1.664 0 3.277-.3 4.805-.887l-.106.328a1.113 1.113 0 0 0 .711 1.407l.078.027q.171.057.348.055c.469 0 .906-.297 1.059-.766l1.238-3.762a.364.364 0 0 0-.23-.453m-1.687 3.991a.395.395 0 0 1-.504.254l-.078-.027a.395.395 0 0 1-.254-.504l.351-1.07a.36.36 0 0 0-.101-.38.36.36 0 0 0-.387-.058A12.6 12.6 0 0 1 15 27.125c-2.512 0-4.941-.734-7.027-2.117l-.035-.024a.397.397 0 0 1-.11-.554l.043-.067a.4.4 0 0 1 .555-.113l.035.023A11.8 11.8 0 0 0 15 26.243c1.73 0 3.398-.368 4.96-1.087a.35.35 0 0 0 .204-.347.36.36 0 0 0-.242-.317l-1.281-.422a.397.397 0 0 1-.254-.504l.027-.078a.395.395 0 0 1 .504-.254l3.422 1.125Zm7.387-20.273L24.84 6.273a.36.36 0 0 0-.453.227l-1.235 3.762a1.11 1.11 0 0 0 .711 1.406l.078.027c.282.094.582.07.852-.066.266-.133.46-.363.555-.645l.117-.359a11 11 0 0 1 .66 3.777c0 2.2-.64 4.325-1.852 6.145l-.023.035c-.164.246-.223.543-.164.836.062.293.23.543.477.71l.07.044a1.117 1.117 0 0 0 1.547-.312l.02-.032a13.36 13.36 0 0 0 2.238-7.426 13.3 13.3 0 0 0-.887-4.804l.328.109a1.116 1.116 0 0 0 1.406-.71l.027-.083a1.12 1.12 0 0 0-.71-1.406m.03 1.183-.027.082a.4.4 0 0 1-.503.254l-1.07-.355a.36.36 0 0 0-.38.101.36.36 0 0 0-.058.387 12.7 12.7 0 0 1 1.125 5.242c0 2.516-.73 4.946-2.114 7.028l-.023.035a.4.4 0 0 1-.555.113l-.07-.047a.397.397 0 0 1-.11-.554l.02-.032a11.8 11.8 0 0 0 1.973-6.543c0-1.73-.367-3.398-1.086-4.957a.36.36 0 0 0-.328-.207h-.02a.36.36 0 0 0-.32.246l-.418 1.278a.4.4 0 0 1-.504.254l-.082-.024a.407.407 0 0 1-.254-.508l1.125-3.421 3.422 1.125a.4.4 0 0 1 .258.503M10.86 6.254q.171.054.348.055a1.1 1.1 0 0 0 .504-.122c.266-.132.46-.363.555-.644l.027-.078a1.12 1.12 0 0 0-.711-1.41l-.36-.117A11 11 0 0 1 15 3.28c2.2 0 4.324.64 6.145 1.848l.035.023a1.11 1.11 0 0 0 1.543-.312l.047-.067c.34-.515.199-1.207-.313-1.546l-.035-.024A13.4 13.4 0 0 0 15 .97c-1.664 0-3.273.297-4.805.883l.106-.329A1.114 1.114 0 0 0 9.59.117L9.512.094A1.114 1.114 0 0 0 8.105.8L6.867 4.563c-.062.19.04.39.23.453ZM8.785 1.027a.4.4 0 0 1 .2-.234.4.4 0 0 1 .304-.023l.078.027c.211.07.324.297.254.504L9.27 2.375a.36.36 0 0 0 .101.375.35.35 0 0 0 .387.063A12.6 12.6 0 0 1 15 1.683c2.512 0 4.941.731 7.027 2.118l.035.023a.393.393 0 0 1 .11.551l-.043.07a.4.4 0 0 1-.555.114l-.035-.024A11.78 11.78 0 0 0 15 2.566c-1.73 0-3.402.364-4.96 1.086a.36.36 0 0 0-.208.344.36.36 0 0 0 .246.32l1.277.418c.211.07.325.297.258.508l-.027.078a.4.4 0 0 1-.504.254L7.66 4.45Zm12.05 14.825c.58 0 1.048-.47 1.048-1.047v-.801a1.05 1.05 0 0 0-1.047-1.05h-.617a5.4 5.4 0 0 0-.504-1.22l.433-.433c.2-.196.309-.461.309-.742 0-.278-.11-.543-.309-.739l-.566-.566a1.044 1.044 0 0 0-1.48 0l-.434.434a5.4 5.4 0 0 0-1.219-.504v-.618c0-.578-.469-1.046-1.047-1.046h-.804a1.05 1.05 0 0 0-1.047 1.046v.618a5.4 5.4 0 0 0-1.219.504l-.434-.434a1.05 1.05 0 0 0-1.484 0l-.562.566c-.2.196-.309.457-.309.739 0 .28.11.546.309.742l.433.433a5.4 5.4 0 0 0-.504 1.22h-.617a1.05 1.05 0 0 0-1.047 1.05v.8c0 .579.469 1.048 1.047 1.048h.617c.117.425.285.835.504 1.218l-.433.434a1.05 1.05 0 0 0 0 1.484l.562.567c.41.406 1.074.406 1.484 0l.434-.438a5.4 5.4 0 0 0 1.219.504v.617c0 .578.469 1.047 1.047 1.047h.8a1.05 1.05 0 0 0 1.051-1.047v-.617a5.4 5.4 0 0 0 1.219-.504l.434.438a1.05 1.05 0 0 0 1.48 0l.566-.567a1.05 1.05 0 0 0 0-1.484l-.433-.434a5.4 5.4 0 0 0 .504-1.218Zm-1.245-.434a4.6 4.6 0 0 1-.63 1.516c-.089.14-.07.324.052.445l.633.633a.33.33 0 0 1 0 .468l-.567.567a.33.33 0 0 1-.469 0l-.636-.633a.36.36 0 0 0-.446-.047 4.7 4.7 0 0 1-1.511.63.355.355 0 0 0-.282.347v.894a.33.33 0 0 1-.332.332h-.804a.334.334 0 0 1-.332-.332v-.894a.355.355 0 0 0-.282-.348 4.7 4.7 0 0 1-1.511-.629.37.37 0 0 0-.196-.058.35.35 0 0 0-.25.105l-.636.633a.33.33 0 0 1-.47 0l-.566-.567a.33.33 0 0 1 0-.468l.633-.633a.356.356 0 0 0 .051-.445 4.6 4.6 0 0 1-.629-1.516.36.36 0 0 0-.351-.281h-.895a.33.33 0 0 1-.332-.332v-.801c0-.184.148-.336.332-.336h.895a.356.356 0 0 0 .351-.277c.117-.543.328-1.051.63-1.516a.355.355 0 0 0-.052-.445l-.633-.633a.337.337 0 0 1 0-.473l.567-.566a.33.33 0 0 1 .469 0l.636.633c.118.12.301.14.446.05.464-.3.972-.511 1.515-.629a.35.35 0 0 0 .278-.347v-.899c0-.18.152-.332.336-.332h.8c.184 0 .332.153.332.332v.899c0 .168.118.312.282.348.539.117 1.047.328 1.515.628.14.09.324.07.446-.05l.632-.633a.33.33 0 0 1 .47 0l.566.566a.337.337 0 0 1 0 .473l-.633.633a.355.355 0 0 0-.051.445c.3.465.512.973.629 1.516a.356.356 0 0 0 .351.277h.895c.184 0 .332.152.332.336v.8a.33.33 0 0 1-.332.333h-.895a.36.36 0 0 0-.351.281M15 10.902c-1.93 0-3.5 1.57-3.5 3.5a3.505 3.505 0 0 0 3.5 3.504c1.93 0 3.5-1.57 3.5-3.504 0-1.93-1.57-3.5-3.5-3.5m0 6.29a2.79 2.79 0 0 1-2.785-2.79A2.79 2.79 0 0 1 15 11.617a2.79 2.79 0 0 1 2.785 2.785A2.79 2.79 0 0 1 15 17.192m0 0"/></g></svg>