<svg xmlns="http://www.w3.org/2000/svg" width="40" height="40" version="1.0" viewBox="0 0 30 30"><defs><clipPath id="a"><path d="M5.922 4h18.144v21H5.922Zm0 0"/></clipPath><clipPath id="b"><path d="M8 25h12v4.031H8Zm0 0"/></clipPath></defs><g clip-path="url(#a)"><path fill="#061c3d" d="M24.059 9.672h-1.207V8.46a3.64 3.64 0 0 0-3.63-3.625H9.556a3.64 3.64 0 0 0-3.63 3.625v12.09a3.64 3.64 0 0 0 3.63 3.629h9.668a3.64 3.64 0 0 0 3.629-3.63v-7.253h1.207Zm0 0"/></g><path fill="#061c3d" d="M19.86 3.023c-.395-.945-.637-1.964-.637-3.023H9.555a7.8 7.8 0 0 1-.637 3.023Zm0 0"/><g clip-path="url(#b)"><path fill="#061c3d" d="M8.918 25.992c.398.945.637 1.965.637 3.024h9.668c0-1.059.242-2.078.636-3.024Zm0 0"/></g></svg>