<svg xmlns="http://www.w3.org/2000/svg" width="40" height="40" version="1.0" viewBox="0 0 30 30"><defs><clipPath id="a"><path d="M11 21h3v5.418h-3Zm0 0"/></clipPath><clipPath id="b"><path d="M16 21h3v5.418h-3Zm0 0"/></clipPath><clipPath id="c"><path d="M8 25h14v1.418H8Zm0 0"/></clipPath><clipPath id="d"><path d="M.484 3.195h29.032V23H.484Zm0 0"/></clipPath><clipPath id="e"><path d="M.484 17h29.032v2H.484Zm0 0"/></clipPath></defs><path fill="#061c3d" d="M20.645 20.473h-.782a.5.5 0 0 1-.37-.153.51.51 0 0 1-.153-.37q0-.216.152-.368a.5.5 0 0 1 .371-.156h.782c.144 0 .27.05.37.156a.5.5 0 0 1 .153.367c0 .145-.05.266-.152.371a.5.5 0 0 1-.371.153M23.488 20.473h-.781a.5.5 0 0 1-.371-.153.51.51 0 0 1-.152-.37q0-.216.152-.368a.5.5 0 0 1 .371-.156h.781q.219-.002.371.156a.5.5 0 0 1 .153.367c0 .145-.051.266-.153.371a.5.5 0 0 1-.37.153M26.332 20.473h-.84a.5.5 0 0 1-.367-.153.51.51 0 0 1-.152-.37q0-.216.152-.368a.49.49 0 0 1 .367-.156h.84q.216-.002.367.156a.5.5 0 0 1 .153.367c0 .145-.051.266-.153.371a.5.5 0 0 1-.367.153m0 0"/><g clip-path="url(#a)"><path fill="#061c3d" d="M11.605 26.063a.5.5 0 0 1-.32-.239.5.5 0 0 1-.062-.394l.941-3.946a.51.51 0 0 1 .238-.324.516.516 0 0 1 .715.172.49.49 0 0 1 .063.395l-.942 3.945a.51.51 0 0 1-.234.324.51.51 0 0 1-.399.067m0 0"/></g><g clip-path="url(#b)"><path fill="#061c3d" d="m17.734 25.656-.804-3.941a.52.52 0 0 1 .078-.395.5.5 0 0 1 .332-.222.5.5 0 0 1 .39.074.5.5 0 0 1 .223.332l.805 3.945a.5.5 0 0 1-.078.39.513.513 0 0 1-.723.15.5.5 0 0 1-.223-.333m0 0"/></g><g clip-path="url(#c)"><path fill="#061c3d" d="M20.492 26.074H9.445a.5.5 0 0 1-.37-.152.5.5 0 0 1-.153-.367q0-.219.152-.371a.5.5 0 0 1 .371-.153h11.047q.219 0 .371.153a.5.5 0 0 1 .153.37q0 .213-.153.368a.5.5 0 0 1-.37.152m0 0"/></g><g clip-path="url(#d)"><path fill="#061c3d" d="M27.988 22.129h-26c-.87 0-1.504-.629-1.504-1.5V4.719c0-.856.66-1.528 1.504-1.528h26q.304.002.578.122.277.118.489.332.209.215.324.496c.074.183.11.379.11.578v15.914q0 .298-.11.574a1.48 1.48 0 0 1-1.39.922m-26-17.895c-.312 0-.457.25-.457.485v15.914c0 .285.168.457.457.457h26a.42.42 0 0 0 .325-.133q.134-.136.128-.324V4.719a.44.44 0 0 0-.128-.332.46.46 0 0 0-.325-.153Zm0 0"/></g><g clip-path="url(#e)"><path fill="#061c3d" d="M28.965 18.809H1.008a.5.5 0 0 1-.367-.153.5.5 0 0 1-.153-.367q0-.218.153-.371a.5.5 0 0 1 .367-.152h27.957q.215 0 .367.152a.5.5 0 0 1 .156.371c0 .14-.05.266-.156.367a.5.5 0 0 1-.367.153m0 0"/></g><path fill="#061c3d" d="M6.188 15.668c-.165 0-.211-.04-.926-.223a.72.72 0 0 1-.414-.293.7.7 0 0 1-.121-.492l.058-.555a3 3 0 0 1-.402-.308l-.524.2a.7.7 0 0 1-.511.007.7.7 0 0 1-.391-.324l-.375-.653a.7.7 0 0 1-.086-.504.7.7 0 0 1 .266-.433l.43-.352a4 4 0 0 1-.063-.504l-.508-.226a.7.7 0 0 1-.367-.352.7.7 0 0 1-.043-.508l.195-.73a.7.7 0 0 1 .29-.414.73.73 0 0 1 .491-.125l.551.062q.142-.214.313-.406l-.203-.52a.734.734 0 0 1 .32-.902l.652-.375a.715.715 0 0 1 .938.176l.347.43a4 4 0 0 1 .508-.063l.223-.508a.7.7 0 0 1 .355-.367.7.7 0 0 1 .504-.047l.73.2q.264.064.415.293a.7.7 0 0 1 .125.492l-.059.55c.14.094.278.2.403.313l.52-.203a.7.7 0 0 1 .507-.008.7.7 0 0 1 .39.328l.38.653a.73.73 0 0 1-.176.937l-.434.348q.051.251.066.508l.508.226c.164.07.29.188.367.352.079.164.09.332.043.507l-.195.727a.71.71 0 0 1-.293.418.7.7 0 0 1-.492.121l-.555-.059a3.5 3.5 0 0 1-.308.407l.203.52q.098.255.004.511a.7.7 0 0 1-.332.39l-.649.376a.7.7 0 0 1-.5.086.7.7 0 0 1-.437-.262l-.348-.43a4 4 0 0 1-.504.063l-.226.507c-.125.29-.348.438-.66.438m-.395-1.16.215.055.254-.57q.14-.322.496-.31.445.017.87-.113a.48.48 0 0 1 .56.172l.394.485.195-.114-.226-.582a.48.48 0 0 1 .129-.57q.328-.303.535-.7a.49.49 0 0 1 .52-.273l.617.067.058-.215-.578-.25a.49.49 0 0 1-.312-.496q.016-.45-.114-.875a.484.484 0 0 1 .172-.559l.485-.39-.114-.196-.574.227a.49.49 0 0 1-.57-.133 2.6 2.6 0 0 0-.7-.535.48.48 0 0 1-.273-.52l.063-.617-.211-.059-.254.57a.48.48 0 0 1-.496.31 2.7 2.7 0 0 0-.872.117.48.48 0 0 1-.558-.172l-.39-.485-.2.11.227.586a.48.48 0 0 1-.13.57 2.6 2.6 0 0 0-.53.695.475.475 0 0 1-.524.274l-.617-.063-.059.215.57.25q.323.146.313.496-.017.449.113.875a.484.484 0 0 1-.172.559l-.484.39.11.196.582-.223a.48.48 0 0 1 .57.129q.305.329.699.535a.49.49 0 0 1 .273.52Zm0 0"/><path fill="#061c3d" d="M6.848 12.977a1.943 1.943 0 0 1-.91-.223 1.8 1.8 0 0 1-.395-.266 2.3 2.3 0 0 1-.316-.351 2 2 0 0 1-.223-.414 1.9 1.9 0 0 1-.117-.461 1.9 1.9 0 0 1 .097-.93q.081-.227.215-.426a2 2 0 0 1 .309-.36q.17-.159.383-.273a1.95 1.95 0 0 1 .906-.246 2.042 2.042 0 0 1 .918.203 2 2 0 0 1 .719.602q.14.194.23.41.095.223.129.457c.023.156.031.313.016.473a1.9 1.9 0 0 1-.098.46q-.075.228-.203.43a2 2 0 0 1-.301.364q-.17.166-.375.285a1.94 1.94 0 0 1-.984.266m-.004-2.907q-.24 0-.45.117a.9.9 0 0 0-.335.317.9.9 0 0 0-.141.437.92.92 0 0 0 .379.809.93.93 0 0 0 .883.117.93.93 0 0 0 .574-.683.942.942 0 0 0-.266-.855.96.96 0 0 0-.402-.227 1 1 0 0 0-.242-.032M16.926 14.383a.51.51 0 0 1-.371-.153.5.5 0 0 1-.153-.367v-2.715l-.976 1.637a.5.5 0 0 1-.192.184.512.512 0 0 1-.516 0 .5.5 0 0 1-.19-.184l-.977-1.637v2.715c0 .14-.051.266-.153.367a.5.5 0 0 1-.37.153.5.5 0 0 1-.368-.153.5.5 0 0 1-.152-.367V9.262q-.004-.393.379-.504.386-.106.59.238l1.5 2.504 1.503-2.504q.205-.345.586-.238.385.111.383.504v4.601q0 .216-.152.367a.5.5 0 0 1-.371.153M24.383 14.383a.5.5 0 0 1-.367-.153.5.5 0 0 1-.153-.367V9.262q0-.216.153-.367a.5.5 0 0 1 .367-.153c.144 0 .27.051.37.153a.5.5 0 0 1 .153.367v4.601c0 .14-.05.266-.152.367a.5.5 0 0 1-.371.153m0 0"/><path fill="#061c3d" d="M26.082 12.16h-1.7a.5.5 0 0 1-.366-.152.51.51 0 0 1-.153-.371q0-.216.153-.367a.49.49 0 0 1 .367-.157h1.699q.276.001.469-.191a.66.66 0 0 0 .195-.473.64.64 0 0 0-.195-.469.64.64 0 0 0-.469-.195h-1.7a.5.5 0 0 1-.366-.152.5.5 0 0 1-.153-.371q0-.216.153-.367a.5.5 0 0 1 .367-.153h1.699a1.704 1.704 0 0 1 1.707 1.707q0 .34-.129.656c-.086.207-.21.395-.37.555q-.24.239-.556.367-.313.134-.652.133M20.582 14.383a.48.48 0 0 1-.477-.309L18.04 9.477a.518.518 0 0 1 .66-.707q.206.076.293.28l1.59 3.54 1.59-3.54a.49.49 0 0 1 .289-.28.512.512 0 0 1 .68.305q.076.203-.016.402l-2.07 4.597a.48.48 0 0 1-.473.309m0 0"/></svg>