<svg xmlns="http://www.w3.org/2000/svg" width="40" height="40" version="1.0" viewBox="0 0 30 30"><defs><clipPath id="a"><path d="M.484 0h29.032v29.031H.484Zm0 0"/></clipPath></defs><g clip-path="url(#a)"><path fill="#061c3d" fill-rule="evenodd" d="M2.395 5.898a1.601 1.601 0 1 1-.309-3.176A1.6 1.6 0 0 1 3.152 5.52l.793 1.528h1.832v.848H3.691a.43.43 0 0 1-.378-.23Zm25.21 0-.918 1.766a.43.43 0 0 1-.378.23h-2.086v-.847h1.832l.793-1.527a1.6 1.6 0 0 1 1.066-2.797 1.601 1.601 0 1 1 0 3.203q-.159.001-.309-.028m-1.238 8.465h-2.144v-.843h2.144c.188-.68.809-1.18 1.547-1.18a1.601 1.601 0 1 1-1.547 2.023m.488 8.02c-.39-.75-.8-1.547-.8-1.547h-1.832v-.848h2.086c.16 0 .304.09.378.23l.93 1.794a1.605 1.605 0 1 1 .297 3.18 1.605 1.605 0 0 1-1.059-2.81m-23.71 0a1.605 1.605 0 1 1-2.66 1.207 1.605 1.605 0 0 1 1.898-1.578l.93-1.793a.43.43 0 0 1 .378-.23h2.086v.847H3.945Zm.488-8.02a1.601 1.601 0 1 1-1.547-2.023c.738 0 1.36.5 1.547 1.18h2.144v.843Zm19.742 12.563c0 1.16-.945 2.105-2.105 2.105H8.73a2.11 2.11 0 0 1-2.105-2.105V2.106C6.625.948 7.57 0 8.73 0h12.54c1.16 0 2.105.95 2.105 2.105Zm-2.512-11.098c.696 0 1.258-.562 1.258-1.258v-1.258c0-.695-.562-1.257-1.258-1.257a.542.542 0 0 1-.383-.926 1.254 1.254 0 0 0 0-1.777l-.886-.891a1.26 1.26 0 0 0-1.782 0 .542.542 0 0 1-.925-.383c0-.695-.563-1.258-1.258-1.258H14.37c-.695 0-1.258.563-1.258 1.258a.542.542 0 0 1-.925.383 1.26 1.26 0 0 0-1.782 0l-.886.89a1.254 1.254 0 0 0 0 1.778.542.542 0 0 1-.383.926c-.696 0-1.258.562-1.258 1.258v1.257c0 .696.562 1.258 1.258 1.258.484 0 .722.586.383.926a1.26 1.26 0 0 0 0 1.781l.89.887a1.254 1.254 0 0 0 1.777 0 .541.541 0 0 1 .926.383c0 .699.563 1.258 1.258 1.258h1.258c.695 0 1.258-.56 1.258-1.258 0-.48.586-.723.925-.383.493.492 1.29.492 1.782 0l.886-.887a1.26 1.26 0 0 0 0-1.781.542.542 0 0 1 .383-.926m0-.848c-1.234 0-1.855 1.497-.98 2.372.16.16.16.421 0 .582l-.89.89a.413.413 0 0 1-.583 0c-.875-.875-2.37-.254-2.37.98a.41.41 0 0 1-.411.41H14.37a.41.41 0 0 1-.41-.41c0-1.238-1.496-1.855-2.371-.98a.413.413 0 0 1-.582 0l-.89-.89a.413.413 0 0 1 0-.582c.874-.875.257-2.372-.981-2.372a.41.41 0 0 1-.41-.41v-1.258a.41.41 0 0 1 .41-.41c1.238 0 1.855-1.496.98-2.37a.413.413 0 0 1 0-.583l.89-.89c.161-.16.423-.16.583 0 .875.875 2.37.257 2.37-.98a.41.41 0 0 1 .411-.411h1.258a.41.41 0 0 1 .41.41c0 1.238 1.496 1.856 2.371.98.16-.16.422-.16.582 0l.89.891c.161.16.161.422 0 .582-.874.875-.253 2.371.981 2.371a.41.41 0 0 1 .41.41v1.258a.41.41 0 0 1-.41.41M15 17.38a3.443 3.443 0 0 0 3.438-3.438A3.443 3.443 0 0 0 15 10.504a3.443 3.443 0 0 0-3.437 3.437A3.443 3.443 0 0 0 15 17.38m0-.844a2.6 2.6 0 0 1-2.59-2.594 2.596 2.596 0 0 1 2.59-2.59 2.6 2.6 0 0 1 2.594 2.59A2.6 2.6 0 0 1 15 16.535m-1.145 9.996h2.29a.423.423 0 0 0 .425-.422.423.423 0 0 0-.425-.422h-2.29a.423.423 0 0 0-.425.422c0 .235.191.422.425.422m0 0"/></g></svg>