<svg xmlns="http://www.w3.org/2000/svg" width="40" height="40" version="1.0" viewBox="0 0 30 30"><defs><clipPath id="a"><path d="M12 19h6v8.273h-6Zm0 0"/></clipPath><clipPath id="b"><path d="M15 1.867h3V4h-3Zm0 0"/></clipPath><clipPath id="c"><path d="M28 17h1.516v3H28Zm0 0"/></clipPath><clipPath id="d"><path d="M.484 17H2v3H.484Zm0 0"/></clipPath><clipPath id="e"><path d="M.484 13H2v3H.484Zm0 0"/></clipPath><clipPath id="f"><path d="M28 13h1.516v3H28Zm0 0"/></clipPath><clipPath id="g"><path d="M12 1.867h3V4h-3Zm0 0"/></clipPath></defs><g clip-path="url(#a)"><path fill="#fff" d="M12.164 24.809v1.875c0 .257.211.468.469.468h4.687a.47.47 0 0 0 .47-.468v-1.875c0-.938-.556-1.747-1.356-2.122a1.84 1.84 0 0 0 .418-1.16c0-1.039-.84-1.879-1.875-1.879s-1.875.84-1.875 1.88c0 .437.16.843.418 1.16a2.34 2.34 0 0 0-1.356 2.12m0 0"/></g><path fill="#fff" d="M18.258 24.34v1.875c0 .258.215.469.472.469h2.813a.47.47 0 0 0 .469-.47V24.34c0-.5-.262-.938-.657-1.188.118-.207.188-.433.188-.687a1.41 1.41 0 0 0-1.406-1.406 1.41 1.41 0 0 0-1.407 1.406c0 .254.07.48.188.687-.395.25-.66.688-.66 1.188M11.223 26.684c.257 0 .472-.211.472-.47V24.34c0-.5-.265-.938-.66-1.188.117-.207.188-.433.188-.687a1.41 1.41 0 0 0-1.407-1.406 1.41 1.41 0 0 0-1.406 1.406c0 .254.07.48.188.687-.395.25-.657.688-.657 1.188v1.875c0 .258.211.469.47.469ZM3.719 23.402v1.875c0 .258.21.47.469.47h2.816a.47.47 0 0 0 .469-.47v-1.875c0-.504-.262-.937-.657-1.187.118-.207.188-.438.188-.688 0-.777-.633-1.41-1.406-1.41-.774 0-1.41.633-1.41 1.41 0 .25.07.48.187.688-.39.25-.656.683-.656 1.187M22.48 23.402v1.875c0 .258.211.47.47.47h2.816a.47.47 0 0 0 .468-.47v-1.875c0-.504-.265-.937-.656-1.187.117-.207.188-.438.188-.688 0-.777-.637-1.41-1.41-1.41-.774 0-1.407.633-1.407 1.41 0 .25.07.48.188.688-.395.25-.657.683-.657 1.187M27.64 16.367c0-6.984-5.68-12.664-12.663-12.664-6.985 0-12.664 5.68-12.664 12.664 0 1.266.187 2.52.554 3.719l.895-.277c-.34-1.11-.516-2.27-.516-3.446 0-6.468 5.258-11.726 11.727-11.726 6.468 0 11.726 5.258 11.726 11.726 0 1.172-.176 2.336-.52 3.446l.9.277c.37-1.2.55-2.453.55-3.719ZM2.117 20.805l-.887.304c.106.305.22.61.348.903l.863-.364a12 12 0 0 1-.324-.851Zm0 0"/><g clip-path="url(#b)"><path fill="#fff" d="m17.617 3.023.184-.918a15 15 0 0 0-1.89-.246l-.063.938c.593.039 1.187.113 1.77.23Zm0 0"/></g><path fill="#fff" d="m23.95 6.14.616-.702a16 16 0 0 0-1.507-1.165l-.52.782c.492.328.965.691 1.41 1.086M27.074 8.293a14.5 14.5 0 0 0-1.16-1.508l-.703.617c.39.446.754.922 1.082 1.414Zm0 0"/><g clip-path="url(#c)"><path fill="#fff" d="m28.313 19.05.917.18c.122-.617.211-1.253.254-1.886l-.937-.063c-.04.59-.117 1.188-.235 1.77m0 0"/></g><path fill="#fff" d="m20.988 4.164.414-.84a15 15 0 0 0-1.765-.734l-.297.887c.562.195 1.113.418 1.644.68Zm0 0"/><g clip-path="url(#d)"><path fill="#fff" d="m1.406 17.313-.937.066c.043.633.133 1.273.258 1.89l.921-.187c-.117-.578-.199-1.172-.242-1.77m0 0"/></g><path fill="#fff" d="M2.078 12.04c.188-.563.418-1.118.676-1.653l-.844-.414q-.417.862-.722 1.765Zm0 0"/><g clip-path="url(#e)"><path fill="#fff" d="m1.625 13.762-.922-.176c-.121.617-.2 1.258-.238 1.89l.937.055c.04-.59.114-1.187.227-1.77Zm0 0"/></g><path fill="#fff" d="m2.863 8.324.782.52a14 14 0 0 1 1.082-1.418l-.707-.617c-.418.476-.805.988-1.157 1.515M5.363 5.457l.617.703q.67-.592 1.41-1.086l-.523-.781c-.523.352-1.031.746-1.504 1.164M8.938 4.176a14 14 0 0 1 1.644-.684l-.305-.887a15 15 0 0 0-1.757.73Zm0 0"/><g clip-path="url(#f)"><path fill="#fff" d="M28.324 13.73q.171.873.23 1.77l.938-.059a14 14 0 0 0-.242-1.89l-.922.18Zm0 0"/></g><g clip-path="url(#g)"><path fill="#fff" d="M12.297 3.027a14 14 0 0 1 1.77-.234l-.063-.938c-.633.043-1.27.125-1.887.25l.18.918Zm0 0"/></g><path fill="#fff" d="M28.758 11.71a16 16 0 0 0-.727-1.765l-.84.414c.262.528.493 1.082.68 1.645l.887-.3ZM27.512 21.648l.863.364q.188-.44.348-.903l-.887-.304q-.148.426-.324.847ZM22.012 17.773h-.469v-8.91a.46.46 0 0 0-.258-.418.47.47 0 0 0-.492.043l-3.004 2.25a.47.47 0 0 0-.469-.468h-.468V8.395a.47.47 0 0 0-.47-.47H13.57a.47.47 0 0 0-.468.47v1.875h-.47a.47.47 0 0 0-.468.468L9.16 8.488a.46.46 0 0 0-.492-.043.46.46 0 0 0-.258.418v8.91h-.469v.938h14.07Zm-9.848-5.449-1.621.805a.48.48 0 0 0-.258.418v4.223h-.937V9.8l2.816 2.11Zm4.688 5.45h-.47v-1.876a.47.47 0 0 0-.468-.468H14.04a.47.47 0 0 0-.469.468v1.875h-.468v-6.566h3.75Zm3.753 0h-.937V13.55a.47.47 0 0 0-.258-.414l-1.62-.809v-.414l2.815-2.11v7.973Zm0 0"/><path fill="#fff" d="M13.57 11.676h.938v.937h-.938ZM15.445 11.676h.938v.937h-.938ZM13.57 13.082h.938v.938h-.938ZM15.445 13.082h.938v.938h-.938Zm0 0"/></svg>