<svg xmlns="http://www.w3.org/2000/svg" width="40" height="40" version="1.0" viewBox="0 0 30 30"><defs><clipPath id="a"><path d="M.484 0h29.032v29.031H.484Zm0 0"/></clipPath></defs><g clip-path="url(#a)"><path fill="#061c3d" d="M11.441 10.27H9.332c.84-1.122 2-1.977 3.328-2.442-.555.711-.945 1.582-1.219 2.442m-3.507 3.777h2.894c.031-1.008.152-1.965.356-2.836h-2.45a7 7 0 0 0-.8 2.836m7.535-6.535v2.758h2.105c-.355-1-1.058-2.403-2.105-2.758M14.53 21.52v-2.758H12.43c.351 1 1.054 2.402 2.101 2.758m-1.87-.317c-.556-.71-.946-1.582-1.22-2.441H9.332a7.07 7.07 0 0 0 3.328 2.441m-3.927-3.379h2.45a14.6 14.6 0 0 1-.356-2.84H7.934c.066 1.02.347 1.98.8 2.84m9.496-2.84H15.47v2.84h2.383c.214-.86.347-1.82.378-2.84M15.47 21.52c1.047-.356 1.75-1.758 2.101-2.758H15.47Zm-.938-6.536H11.77c.03 1.02.164 1.98.378 2.84h2.383Zm6.489-5.773h.46c.262 0 .47-.211.47-.469V4.68h2.39a1.346 1.346 0 0 0 2.61-.473c0-.742-.602-1.344-1.348-1.344-.579 0-1.07.364-1.262.875h-2.86a.47.47 0 0 0-.468.469v4.066h-.973c.219.176.434.368.633.57.121.118.234.243.348.368m-2.204 8.613h2.45c.453-.86.734-1.82.8-2.84h-2.894a14.6 14.6 0 0 1-.356 2.84m2.45-6.613h-2.45c.204.871.325 1.828.356 2.836h2.894a7 7 0 0 0-.8-2.836m4.336 12.266a1.35 1.35 0 0 0-1.262.878h-2.39V20.29a.47.47 0 0 0-.47-.469h-.46c-.114.125-.227.25-.348.367a8 8 0 0 1-.633.575h.973v4.062c0 .262.21.469.468.469h2.86a1.348 1.348 0 1 0 1.262-1.816M18.559 10.27h2.109a7.07 7.07 0 0 0-3.328-2.442c.555.711.945 1.582 1.219 2.442m-4.028.94h-2.383a13.4 13.4 0 0 0-.378 2.837h2.761Zm0-3.698c-1.047.355-1.75 1.758-2.101 2.758h2.101Zm11.95 7.476c.19.508.683.875 1.261.875.742 0 1.344-.605 1.344-1.347 0-.743-.602-1.344-1.344-1.344-.578 0-1.074.363-1.262.875h-3.472q.017.234.015.469.002.239-.015.472Zm-2.434-6.707a.47.47 0 0 0-.469.469v2.996h-1.047q.17.456.282.941h1.234c.262 0 .473-.21.473-.472V9.219h2.39c.188.511.684.879 1.262.879.742 0 1.344-.606 1.344-1.348s-.602-1.344-1.344-1.344c-.578 0-1.074.364-1.262.875Zm4.125 10.657c-.578 0-1.074.363-1.262.875h-2.39v-2.997a.47.47 0 0 0-.473-.468h-1.235q-.11.48-.28.937h1.046v2.996c0 .262.211.473.469.473h2.863c.188.508.684.875 1.262.875.742 0 1.344-.606 1.344-1.348s-.602-1.343-1.344-1.343m-10.32-7.727h-2.383v2.836h2.761a13.4 13.4 0 0 0-.378-2.836M5.875 14.516A9.126 9.126 0 0 1 15 5.39c.84 0 1.652.113 2.422.324V0h-4.844v2.43a12.3 12.3 0 0 0-4.41 1.828L6.449 2.539 3.023 5.965l1.72 1.719a12.3 12.3 0 0 0-1.829 4.41H.484v4.844h2.43a12.3 12.3 0 0 0 1.828 4.41l-1.719 1.718 3.426 3.426 1.719-1.719a12.2 12.2 0 0 0 4.41 1.829v2.43h4.844v-5.716c-.77.211-1.582.329-2.422.329-5.04 0-9.125-4.09-9.125-9.13m12.684 4.246c-.274.86-.664 1.73-1.22 2.441a7.1 7.1 0 0 0 3.329-2.441Zm0 0"/></g></svg>