<svg xmlns="http://www.w3.org/2000/svg" width="40" height="40" version="1.0" viewBox="0 0 30 30"><defs><clipPath id="a"><path d="M3 9h24v20.031H3Zm0 0"/></clipPath></defs><path fill="#fff" d="M9.73 9.395a.332.332 0 0 1-.102-.648 19 19 0 0 0 4.102-1.852.33.33 0 0 1 .457.109.33.33 0 0 1-.109.457c-1.262.77-2.687 1.414-4.246 1.918a.3.3 0 0 1-.102.016m0 0"/><g clip-path="url(#a)"><path fill="#fff" d="M15 29.031a.36.36 0 0 1-.203-.066c-2.594-1.985-4.79-4.2-6.524-6.586-1.39-1.914-2.492-3.942-3.27-6.027-1.327-3.563-1.257-6.036-1.253-6.137a.33.33 0 0 1 .297-.32 31 31 0 0 0 3.422-.56c.18-.038.355.071.394.25a.33.33 0 0 1-.25.4c-1.008.226-2.086.41-3.199.538.024.739.188 2.864 1.227 5.63C6.82 19.296 9.398 23.937 15 28.28c5.602-4.343 8.18-8.984 9.36-12.129 1.038-2.765 1.203-4.886 1.226-5.629a31 31 0 0 1-3.2-.539.33.33 0 0 1-.25-.398.33.33 0 0 1 .395-.25c1.078.242 2.23.43 3.422.559.168.02.293.152.297.32.004.101.074 2.574-1.254 6.137-.777 2.085-1.879 4.113-3.27 6.027-1.734 2.387-3.93 4.601-6.523 6.586a.36.36 0 0 1-.203.066m0 0"/></g><path fill="#fff" d="M20.27 9.395a.3.3 0 0 1-.102-.016c-1.559-.504-2.984-1.149-4.246-1.918a.33.33 0 0 1-.11-.457.33.33 0 0 1 .458-.11 19 19 0 0 0 4.101 1.852.332.332 0 0 1-.101.649M9.73 11.297a.334.334 0 0 1-.32-.238.33.33 0 0 1 .227-.41c1.496-.434 2.879-1 4.105-1.684a.334.334 0 0 1 .324.582 20.4 20.4 0 0 1-4.242 1.738.4.4 0 0 1-.094.012m0 0"/><path fill="#fff" d="M15 26.832a.3.3 0 0 1-.207-.074c-2.035-1.63-3.777-3.426-5.18-5.34-1.23-1.68-2.207-3.457-2.898-5.277-.703-1.852-.977-3.387-1.082-4.348a.333.333 0 0 1 .285-.363 29 29 0 0 0 1.559-.262.333.333 0 0 1 .128.652q-.622.124-1.273.22c.125.929.398 2.273 1.004 3.862.672 1.77 1.621 3.493 2.816 5.125 1.317 1.801 2.95 3.496 4.848 5.043 1.898-1.547 3.531-3.246 4.848-5.043 1.195-1.632 2.144-3.355 2.816-5.125a17.5 17.5 0 0 0 1.004-3.859q-.652-.099-1.273-.223a.333.333 0 0 1 .128-.652c.5.098 1.028.187 1.559.262a.333.333 0 0 1 .285.363c-.105.96-.375 2.496-1.082 4.348-.691 1.82-1.668 3.597-2.898 5.277-1.403 1.914-3.145 3.71-5.18 5.34a.3.3 0 0 1-.207.074m0 0"/><path fill="#fff" d="M20.27 11.3a.4.4 0 0 1-.094-.015 20.3 20.3 0 0 1-4.242-1.738.334.334 0 0 1 .324-.582c1.226.683 2.61 1.25 4.105 1.683.176.051.278.235.227.41a.34.34 0 0 1-.32.243M15 21.992a5.083 5.083 0 0 1-5.078-5.078A5.08 5.08 0 0 1 15 11.84c2.8 0 5.078 2.277 5.078 5.074 0 2.8-2.277 5.078-5.078 5.078m0-9.488a4.42 4.42 0 0 0-4.414 4.41A4.42 4.42 0 0 0 15 21.328a4.42 4.42 0 0 0 4.414-4.414c0-2.43-1.98-4.41-4.414-4.41m0 0"/><path fill="#fff" d="M13.82 19.27a.33.33 0 0 1-.234-.098l-1.684-1.684a.33.33 0 0 1 0-.468.326.326 0 0 1 .47 0l1.448 1.449 3.809-3.809a.33.33 0 0 1 .469 0 .33.33 0 0 1 0 .469l-4.043 4.043a.33.33 0 0 1-.235.098M22.46 13.223h-2.19a.33.33 0 0 1-.332-.332V7.969h-.989a.33.33 0 0 1-.289-.168.32.32 0 0 1 .004-.336l2.414-4.024a.33.33 0 0 1 .57 0l2.418 4.024a.333.333 0 0 1-.285.504h-.988v4.922a.33.33 0 0 1-.332.332m-1.858-.664h1.527V7.637c0-.184.148-.332.332-.332h.734l-1.832-3.047-1.828 3.047h.735c.183 0 .332.148.332.332ZM9.73 13.223H7.54a.33.33 0 0 1-.333-.332V7.969h-.988a.333.333 0 0 1-.285-.504L8.352 3.44a.33.33 0 0 1 .57 0l2.414 4.024c.062.105.066.23.004.336a.33.33 0 0 1-.29.168h-.988v4.922a.33.33 0 0 1-.332.332m-1.859-.664h1.527V7.637c0-.184.149-.332.332-.332h.735L8.637 4.258 6.805 7.305h.734c.184 0 .332.148.332.332ZM16.094 9.945h-2.188a.33.33 0 0 1-.332-.332V4.691h-.992a.34.34 0 0 1-.289-.168.34.34 0 0 1 .004-.335L14.715.16a.335.335 0 0 1 .57 0l2.418 4.028c.059.101.063.23.004.335a.34.34 0 0 1-.289.168h-.992v4.922a.33.33 0 0 1-.332.332m-1.856-.664h1.524V4.36c0-.183.148-.332.332-.332h.734L15 .977l-1.828 3.05h.734c.184 0 .332.149.332.332ZM3.727 4.094a.33.33 0 0 1-.332-.332v-.403a.332.332 0 1 1 .664 0v.403a.33.33 0 0 1-.332.332M2.855 4.965H2.45a.332.332 0 1 1 0-.664h.406a.332.332 0 1 1 0 .664M3.727 6.242a.33.33 0 0 1-.332-.332v-.402a.332.332 0 1 1 .664 0v.402a.33.33 0 0 1-.332.332M5.004 4.965h-.402a.335.335 0 0 1-.336-.332c0-.184.152-.332.336-.332h.402a.332.332 0 1 1 0 .664M19.477 1.723a.33.33 0 0 1-.332-.332V.988a.332.332 0 1 1 .664 0v.403a.33.33 0 0 1-.332.332M18.602 2.598h-.403a.332.332 0 1 1 0-.664h.403a.332.332 0 1 1 0 .664M19.477 3.875a.33.33 0 0 1-.332-.332v-.406a.332.332 0 1 1 .664 0v.406a.33.33 0 0 1-.332.332M20.75 2.598h-.402a.332.332 0 1 1 0-.664h.402a.332.332 0 1 1 0 .664M26.273 4.586a.33.33 0 0 1-.332-.332v-.406a.332.332 0 1 1 .664 0v.406a.33.33 0 0 1-.332.332M25.398 5.457h-.402a.332.332 0 1 1 0-.664h.402c.184 0 .336.148.336.332a.335.335 0 0 1-.336.332M26.273 6.734a.33.33 0 0 1-.332-.332V6c0-.184.149-.336.332-.336s.332.152.332.336v.402a.33.33 0 0 1-.332.332M27.55 5.457h-.405a.332.332 0 1 1 0-.664h.406a.332.332 0 1 1 0 .664M10.152 1.32A.33.33 0 0 1 9.82.988V.586a.332.332 0 1 1 .664 0v.402a.33.33 0 0 1-.332.332M9.277 2.195h-.402a.332.332 0 1 1 0-.664h.402c.184 0 .336.149.336.332a.335.335 0 0 1-.336.332M10.152 3.469a.33.33 0 0 1-.332-.332v-.403a.332.332 0 1 1 .664 0v.403a.33.33 0 0 1-.332.332M11.43 2.195h-.407a.332.332 0 1 1 0-.664h.407a.332.332 0 1 1 0 .664m0 0"/></svg>