<svg xmlns="http://www.w3.org/2000/svg" width="40" height="40" version="1.0" viewBox="0 0 30 30"><defs><clipPath id="a"><path d="M.484.398h29.032v28.309H.484Zm0 0"/></clipPath></defs><g clip-path="url(#a)"><path fill="#061c3d" fill-rule="evenodd" d="M29.504 27.719a.308.308 0 0 1-.305.305h-1.617a.32.32 0 0 1-.215-.09.3.3 0 0 1-.086-.215V8.629c0-.164-.136-.3-.304-.3H3.023a.304.304 0 0 0-.304.3v19.09a.3.3 0 0 1-.086.215.32.32 0 0 1-.215.09H.801a.31.31 0 0 1-.305-.305V6.336a.3.3 0 0 1 .192-.277L14.887.426a.32.32 0 0 1 .226 0l14.2 5.633a.3.3 0 0 1 .19.277Zm-17.992-22.7v1.2c0 .078.031.156.09.215a.3.3 0 0 0 .214.086h6.368c.082 0 .16-.032.214-.086a.3.3 0 0 0 .09-.215v-1.2a.308.308 0 0 0-.305-.305h-6.367a.31.31 0 0 0-.304.306m3.234 8.844q.004-.007.008-.008l-.45-1.011 1.192-1.192 1.012.45a5.3 5.3 0 0 1 1.555-.645l.402-1.035h1.683l.399 1.035a5.2 5.2 0 0 1 1.555.645l1.011-.45 1.192 1.192-.446 1.011c.297.48.512 1.004.645 1.56l1.031.394v1.687l-1.031.399a5.5 5.5 0 0 1-.645 1.554l.446 1.012-1.192 1.191-1.011-.449c-.48.3-1.004.516-1.555.649l-.399 1.03h-1.683l-.399-1.03a5 5 0 0 1-.488-.141v-2.676a2.94 2.94 0 1 0 1.727-5.324c-.97 0-1.825.469-2.364 1.187a3 3 0 0 0-.453-.343c-.425-.266-1.02-.5-1.742-.692m1.863 2.649c-.191.16-.468.293-.804.41-1.184.422-3.04.625-4.89.625-1.852 0-3.704-.203-4.892-.625-.335-.117-.613-.25-.804-.41v-.29c0-1.019 2.55-1.843 5.695-1.843 3.149 0 5.695.824 5.695 1.844Zm0 3.332c-.191.156-.468.289-.804.41-1.184.422-3.04.625-4.89.625-1.852 0-3.704-.207-4.892-.625-.335-.121-.613-.254-.804-.41v-2.207c1.218.574 3.457.879 5.695.879 2.242 0 4.477-.305 5.695-.88Zm0 3.332c-.191.156-.468.289-.804.41-1.184.418-3.04.621-4.89.621-1.852 0-3.704-.203-4.892-.621-.335-.121-.613-.254-.804-.41v-2.207c1.218.574 3.457.875 5.695.875 2.242 0 4.477-.301 5.695-.875ZM5.22 24.3c1.218.57 3.457.875 5.695.875 2.242 0 4.477-.305 5.695-.875v1.914c0 2.41-11.39 2.41-11.39 0Zm0 0"/></g></svg>