<svg xmlns="http://www.w3.org/2000/svg" width="40" height="40" version="1.0" viewBox="0 0 30 30"><defs><clipPath id="a"><path d="M2.543 3.938h2.906V9H2.543Zm0 0"/></clipPath><clipPath id="b"><path d="M3 6h2.45v2H3Zm0 0"/></clipPath><clipPath id="c"><path d="M24.559 3.938h4.355V9H24.56Zm0 0"/></clipPath><clipPath id="d"><path d="M.52 0h28.996v29H.52Zm0 0"/></clipPath></defs><g clip-path="url(#a)"><path fill="#fff" d="M5.52 8.016H2.7V4.902h2.82Zm-1.22.488h-.382q-.072-.002-.074-.074c0-.047.027-.078.074-.078h.383c.043 0 .074.03.074.078 0 .039-.031.074-.074.074m-.702-4.149h1.03c.044 0 .075.032.075.075 0 .047-.031.078-.074.078H3.598c-.047 0-.075-.031-.075-.078 0-.04.028-.075.075-.075m1.351 0h.153c.046 0 .074.032.074.075 0 .047-.028.078-.074.078h-.153c-.047 0-.078-.031-.078-.078 0-.04.031-.075.078-.075m.344-.398H2.926a.383.383 0 0 0-.383.383v4.12c0 .212.168.38.383.38h2.367c.21 0 .379-.168.379-.38V4.34a.383.383 0 0 0-.379-.383"/></g><path fill="#fff" d="M3.828 5.621h.152v.152h-.152Zm.41 0h.153v.152h-.153Zm-.816.434h1.375c.039 0 .074-.028.074-.075a.76.76 0 0 0-.21-.527l.112-.168c.024-.039.016-.082-.023-.105-.04-.024-.082-.016-.105.023l-.11.152a.76.76 0 0 0-.433-.14.76.76 0 0 0-.434.14l-.11-.152c-.023-.039-.066-.047-.105-.023-.039.023-.047.066-.023.105l.113.168a.76.76 0 0 0-.211.527c.016.047.05.075.09.075"/><g clip-path="url(#b)"><path fill="#fff" d="M3.223 7.184a.2.2 0 0 0 .125-.043v.175c0 .082.066.153.152.153h.09v.203c0 .047.039.078.078.078.043 0 .074-.031.074-.078v-.203h.727v.203c0 .047.035.078.074.078.047 0 .078-.031.078-.078v-.203h.098c.086 0 .152-.07.152-.153v-.175a.22.22 0 0 0 .125.043c.106 0 .195-.09.195-.196v-.472a.2.2 0 0 0-.195-.2.2.2 0 0 0-.125.043v-.164c-.023.004-.05.012-.074.012H3.422c-.031 0-.055-.008-.074-.012v.164a.25.25 0 0 0-.125-.043.2.2 0 0 0-.196.2v.472c0 .106.09.196.196.196"/></g><g clip-path="url(#c)"><path fill="#fff" d="M27.738 5.785c.282 0 .512-.23.512-.515a.1.1 0 0 0-.102-.102.513.513 0 0 0-.511.512c0 .058.047.105.101.105m-.23 2.223a.9.9 0 0 1-.246.031c-.262 0-.461-.23-.555-.367q-.004.001-.008-.004a.1.1 0 0 0-.023-.02q-.006-.006-.012-.007a.1.1 0 0 0-.043-.012h-1.855V4.965h2.664v.18c0 .058.047.101.105.101a.1.1 0 0 0 .102-.101v-.696a.513.513 0 0 0-.512-.511h-2.05a.514.514 0 0 0-.516.511v3.899c0 .28.23.511.515.511h2.051c.281 0 .512-.23.512-.511v-.243a.11.11 0 0 0-.04-.082.1.1 0 0 0-.09-.015m-.586-3.66a.1.1 0 0 1 .101.101.1.1 0 0 1-.101.106.104.104 0 0 1-.102-.106.1.1 0 0 1 .102-.101m-1.027 0h.41a.103.103 0 0 1 0 .207h-.41a.105.105 0 0 1-.106-.106c0-.054.047-.101.106-.101m.203 4.101a.2.2 0 0 1-.203-.203c0-.113.09-.207.203-.207s.207.094.207.207a.205.205 0 0 1-.207.203m2.547-1.406a.1.1 0 0 0-.07-.043.29.29 0 0 1-.259-.281c0-.121.082-.23.207-.27a.1.1 0 0 0 .067-.062.12.12 0 0 0-.012-.09c-.121-.18-.312-.309-.465-.309a.9.9 0 0 0-.277.059c-.063.02-.125.039-.172.039-.05 0-.11-.02-.172-.04a.9.9 0 0 0-.277-.058c-.242 0-.606.313-.606.778 0 .441.34 1.07.653 1.07a.7.7 0 0 0 .312-.07c.086-.036.094-.036.18 0 .066.03.16.07.308.07.239 0 .489-.36.594-.707a.11.11 0 0 0-.011-.086m0 0"/></g><g clip-path="url(#d)"><path fill="#061c3d" fill-rule="evenodd" d="m16.5 25.777-1.344-4.316a.47.47 0 0 1 .313-.594.47.47 0 0 1 .594.309l1.343 4.32a1.674 1.674 0 1 1-1.594 2.105 1.685 1.685 0 0 1 .688-1.824M4.094 22.61a1.67 1.67 0 0 1-.828 1.633 1.673 1.673 0 0 1-2.286-.61 1.673 1.673 0 0 1 2.743-1.898l4.62-1.949a.474.474 0 1 1 .368.875Zm21.664-.101-4.801-2.055a.477.477 0 0 1-.25-.621.48.48 0 0 1 .625-.25l4.8 2.05a1.74 1.74 0 0 1 2.223-.41 1.74 1.74 0 0 1 .637 2.376 1.74 1.74 0 0 1-3.234-1.09m-13.25-6.543c.433.5.851.973 1.23 1.414.235.273.578.433.946.433.363 0 .707-.156.945-.433.379-.442.797-.914 1.23-1.414 2.536.258 4.36.945 4.36 1.75 0 1.023-2.938 1.855-6.535 1.855-3.602 0-6.54-.832-6.54-1.855 0-.805 1.825-1.492 4.364-1.75m2.402.797a.3.3 0 0 1-.226.101.3.3 0 0 1-.227-.101c-2.363-2.758-6.312-6.805-6.312-10.215a6.538 6.538 0 0 1 13.074 0c0 3.41-3.946 7.457-6.309 10.215m-1.219-7.364V6.195c0-.101.036-.195.098-.27a.32.32 0 0 1 .238-.109h1.313c.086 0 .172.04.234.11a.42.42 0 0 1 .102.27v3.202h1.094V2.645c0-.114-.082-.204-.184-.204h-3.809c-.101 0-.183.09-.183.204v6.753Zm.262-4.75a.475.475 0 0 1 0-.949h1.457a.475.475 0 1 1 0 .95Zm-2.308 4.75v-5.59h-1.27a.293.293 0 0 0-.297.293v5.297Zm6.074-5.59v5.59h1.57V4.102a.28.28 0 0 0-.09-.207.3.3 0 0 0-.207-.086Zm0 0"/></g></svg>