<svg xmlns="http://www.w3.org/2000/svg" width="40" height="40" version="1.0" viewBox="0 0 30 30"><defs><clipPath id="a"><path d="M6 23h18v4.89H6Zm0 0"/></clipPath><clipPath id="b"><path d="M.484 7h29.032v18H.484Zm0 0"/></clipPath><clipPath id="c"><path d="M7 1.035h16V16H7Zm0 0"/></clipPath></defs><g clip-path="url(#a)"><path fill="#061c3d" d="M23.133 27.031h-4.531v-3.09h-7.204v3.09h-4.53a.48.48 0 1 0 0 .961h16.265a.48.48 0 1 0 0-.96m0 0"/></g><g clip-path="url(#b)"><path fill="#061c3d" d="M26.543 7.809h-3.27v.96h3.27c1.105 0 2 .895 2 2v10.692c0 1.102-.895 2-2 2H3.457c-1.105 0-2-.898-2-2V10.77c0-1.106.895-2 2-2h3.27v-.961h-3.27a2.967 2.967 0 0 0-2.965 2.96v10.692a2.967 2.967 0 0 0 2.965 2.96h23.086a2.967 2.967 0 0 0 2.965-2.96V10.77a2.967 2.967 0 0 0-2.965-2.961m0 0"/></g><g clip-path="url(#c)"><path fill="#061c3d" d="M21.523 6.695h-.914c-.004-.008-.004-.011-.007-.02q.001-.004-.004-.015c-.012-.043-.024-.082-.035-.125-.008-.035-.02-.066-.032-.101a1 1 0 0 0-.027-.082l-.012-.043q-.02-.06-.043-.118c-.015-.043-.031-.09-.05-.132a2 2 0 0 0-.055-.13 1 1 0 0 0-.055-.128c-.016-.04-.035-.074-.05-.11l-.071-.144q-.032-.06-.063-.117c0-.008-.003-.012-.007-.02-.024-.035-.04-.07-.063-.105a.1.1 0 0 0-.015-.032l.648-.648a.625.625 0 0 0 0-.887l-1.223-1.222-.023-.024a.634.634 0 0 0-.863.024l-.649.652c-.008-.008-.02-.012-.027-.02l-.106-.058-.02-.012-.116-.058q-.073-.04-.145-.075l-.11-.047-.128-.058c-.043-.02-.086-.035-.133-.055l-.129-.047q-.058-.02-.117-.043c-.016-.004-.027-.011-.043-.015-.027-.008-.055-.02-.086-.028-.031-.007-.066-.02-.098-.027a2 2 0 0 0-.129-.04h-.011v-.003q-.01-.002-.02-.004V1.66a.623.623 0 0 0-.629-.625h-1.726a.62.62 0 0 0-.625.625v.918c-.008 0-.012.004-.02.004-.004.004-.012.004-.015.004a2 2 0 0 0-.13.039c-.03.008-.062.02-.097.027-.027.012-.059.02-.086.028a.1.1 0 0 1-.043.015q-.06.022-.113.043-.07.023-.133.051-.07.026-.133.05l-.238.11a2 2 0 0 0-.145.07 2 2 0 0 0-.132.07q-.052.03-.11.06c-.008.007-.02.011-.027.019l-.649-.648a.626.626 0 0 0-.886 0L9.332 3.738a.625.625 0 0 0 0 .887l.648.652a.1.1 0 0 0-.015.028c-.024.035-.04.07-.063.105q-.007.013-.007.02l-.063.117q-.035.07-.07.144-.026.052-.051.11c-.02.043-.04.082-.055.129q-.03.065-.054.129c-.02.043-.036.09-.051.132q-.022.06-.043.118l-.012.043a1 1 0 0 0-.027.085 1 1 0 0 0-.031.098l-.036.13q-.005.005-.004.01-.003.011-.007.02h-.914a.63.63 0 0 0-.63.63V9.05c0 .344.282.625.63.625h.914c.004.008.004.011.007.02 0 .003 0 .011.004.015l.036.129q.012.045.03.098c.009.027.016.058.028.085l.012.043q.02.06.043.114.022.07.05.133.025.069.055.132.024.064.055.13.026.05.05.109.036.068.071.144.031.06.063.117a.03.03 0 0 0 .007.016c.024.035.04.07.063.11.004.007.008.019.015.027l-.648.648a.625.625 0 0 0 0 .887l1.223 1.222c.242.247.64.247.886 0l.649-.648c.008.008.02.012.027.016q.054.029.11.062c.003.004.011.004.015.008q.06.029.117.062l.145.07.11.052q.063.03.128.054.064.031.133.055.064.029.133.05.053.023.113.04.025.01.043.015l.086.028q.048.016.098.031l.129.035c.003.004.011.004.015.004.004.004.012.004.016.008v.914c0 .348.281.629.629.629h1.726a.63.63 0 0 0 .63-.63v-.913q.006-.004.015-.008c.004 0 .012 0 .015-.004l.13-.035c.03-.012.066-.02.097-.031.031-.008.059-.02.086-.028a.2.2 0 0 0 .043-.015q.058-.017.117-.04.064-.021.129-.05a1 1 0 0 0 .133-.055q.064-.024.129-.054c.035-.016.074-.036.11-.051.046-.024.097-.047.144-.07q.058-.034.117-.063.007-.004.02-.008c.03-.023.07-.043.105-.062l.027-.016.649.648a.63.63 0 0 0 .89 0l1.219-1.222a.625.625 0 0 0 0-.887l-.648-.648c.007-.008.011-.02.02-.028l.058-.11a1.706 1.706 0 0 0 .07-.133q.035-.075.07-.143.029-.056.051-.11l.059-.129c.015-.043.035-.086.05-.133q.03-.062.051-.132.022-.054.043-.114.005-.023.016-.043l.023-.085q.019-.053.032-.098c.011-.043.027-.086.035-.13q.004-.006.007-.015c0-.008.004-.011.004-.02h.918a.627.627 0 0 0 .625-.624V7.324a.63.63 0 0 0-.629-.629m-3.441 4.48c-.027.024-.05.052-.078.075q-.083.087-.172.16l-.07.063a4.3 4.3 0 0 1-.938.597q-.041.023-.078.04-.075.033-.152.062-.049.022-.102.039-.071.029-.148.05a1 1 0 0 1-.102.032 1 1 0 0 1-.097.031l-.051.012-.043.012c.433-.426.785-1.11 1.008-1.957q.708.13 1.394.347l-.012.016c-.003.004-.007.012-.011.016l-.082.105a5 5 0 0 1-.18.21c-.027.032-.059.06-.086.09M15 12.48q-.026 0-.05-.003h-.024c-.352-.032-.684-.274-.969-.665-.27-.374-.496-.882-.66-1.48.73-.11 1.476-.148 2.219-.113a10 10 0 0 1 1.187.113c-.34 1.242-.957 2.105-1.652 2.145q-.026.004-.051.003m-2.988-1.21-.094-.094a2 2 0 0 1-.09-.098c-.027-.027-.05-.055-.078-.086q-.048-.058-.098-.117l-.082-.105-.023-.032q.686-.217 1.394-.347c.153.57.36 1.066.614 1.46q.182.29.394.497l-.043-.012-.05-.012a1 1 0 0 1-.098-.031 1 1 0 0 1-.102-.031 2 2 0 0 1-.148-.051q-.053-.017-.102-.04-.075-.027-.152-.062-.036-.016-.078-.039a4.143 4.143 0 0 1-.973-.629l-.094-.082zM10.895 9.44a4.4 4.4 0 0 1-.184-1.078h1.96c.013.602.079 1.168.188 1.688a12 12 0 0 0-1.515.383 4.3 4.3 0 0 1-.45-.993m.933-4.148q.045-.046.09-.098l.094-.093q.052-.049.097-.09.049-.042.09-.082.447-.382.977-.63.041-.022.078-.038.075-.035.152-.063.048-.022.102-.039.071-.029.148-.05a1 1 0 0 1 .102-.032 1 1 0 0 1 .097-.031l.051-.012.043-.012c-.433.426-.785 1.11-1.008 1.957a11 11 0 0 1-1.394-.347l.023-.031.082-.106q.05-.058.098-.117c.027-.027.05-.059.078-.086m4.266-1.258.05.012q.053.016.098.031.053.013.102.031l.168.059q.04.016.082.031.075.03.152.063.036.016.078.039c.336.156.653.36.938.601l.07.059q.089.076.172.16c.027.024.05.05.078.074.027.032.059.063.086.09a5 5 0 0 1 .262.317l.011.015a.03.03 0 0 0 .008.016q-.68.218-1.39.347a5.3 5.3 0 0 0-.547-1.355 3 3 0 0 0-.465-.602zm-3.07 3.977a8.5 8.5 0 0 1 .187-1.63c.59.09 1.191.138 1.789.138q.276.001.55-.016.481-.019.962-.082.136-.017.273-.04c.11.5.18 1.052.188 1.63Zm3.953.351a8.5 8.5 0 0 1-.188 1.625c-.094-.011-.187-.027-.281-.039q-.476-.058-.957-.082c-.781-.035-1.57.004-2.336.121a8 8 0 0 1-.192-1.625Zm-.465-2.902q.107.272.191.578a11.253 11.253 0 0 1-1.152.113c-.754.035-1.512 0-2.254-.113.348-1.27.988-2.144 1.703-2.144.191 0 .375.062.55.175.38.246.712.739.962 1.39m-3.653.863a9 9 0 0 0-.187 1.688H10.71c.031-.739.246-1.45.633-2.075.492.165 1.004.293 1.515.387m4.282 3.727c.109-.52.175-1.086.187-1.688h1.961a4.27 4.27 0 0 1-.633 2.07 12 12 0 0 0-1.515-.382m.187-2.04a9 9 0 0 0-.187-1.687 11 11 0 0 0 1.515-.386 4.3 4.3 0 0 1 .633 2.074Zm0 0"/></g><path fill="#061c3d" d="M12.973 21.59a.3.3 0 0 1-.223-.094l-1.734-1.73a.323.323 0 0 1 0-.45l1.707-1.707a.323.323 0 0 1 .449 0 .316.316 0 0 1 0 .45l-1.48 1.484 1.507 1.504a.323.323 0 0 1 0 .45.32.32 0 0 1-.226.093M17.027 21.59a.32.32 0 0 1-.226-.094.323.323 0 0 1 0-.45l1.508-1.503-1.48-1.484a.316.316 0 0 1 0-.45.323.323 0 0 1 .448 0l1.707 1.707c.059.059.09.141.09.227a.32.32 0 0 1-.09.223l-1.734 1.73a.3.3 0 0 1-.223.094M14.355 21.7a.32.32 0 0 1-.3-.426l1.293-3.547a.32.32 0 0 1 .406-.192c.164.063.25.242.191.41l-1.293 3.543a.32.32 0 0 1-.297.211M25.441 18.922h-4.003a.374.374 0 0 0-.375.371c0 .207.167.375.375.375h4.003a.373.373 0 0 0 0-.746M8.563 18.922H4.559a.373.373 0 0 0 0 .746h4.004a.375.375 0 0 0 .374-.375.374.374 0 0 0-.374-.371m0 0"/></svg>