<svg xmlns="http://www.w3.org/2000/svg" width="40" height="40" version="1.0" viewBox="0 0 30 30"><defs><clipPath id="a"><path d="M1.883 0h26.129v29.031H1.882Zm0 0"/></clipPath></defs><g clip-path="url(#a)"><path fill="#fff" fill-rule="evenodd" d="M5.34 10.258a1.7 1.7 0 1 1-.003 3.4 1.7 1.7 0 0 1 .003-3.4m19.312 0a1.7 1.7 0 1 0 .003 3.4 1.7 1.7 0 0 0-.003-3.4m-.386 13.16h1.695a1.2 1.2 0 0 0 .848-.355c.214-.215.351-.516.351-.844v-6.157a.475.475 0 1 1 .95 0v6.157a2.144 2.144 0 0 1-2.15 2.148h-2.429v4.664h-1.129v-4.664a.473.473 0 0 1-.476-.476h-.563c-.441 0-.672.355-.804.804l-1.274 4.336h-.219v-5.656c.625-1.36 1.512-2.164 3-2.164h.442a.81.81 0 0 0 .805-.805v-1.14l1.593-1.028a1.815 1.815 0 0 0 .543-2.5 1.82 1.82 0 0 0-1.926-.789 1.34 1.34 0 0 1 1.133-.617c.739 0 1.336.602 1.336 1.336v4.738a3.49 3.49 0 0 1-1.726 3.012m-2.067-4.727a.9.9 0 0 0 .461-.136l1.73-1.117a.858.858 0 0 0-.925-1.446l-1.516.98h-4.043a.86.86 0 0 0 0 1.719Zm2.219-14.113a.473.473 0 1 1-.473-.82l.762-.442a.473.473 0 0 1 .645.176.474.474 0 0 1-.172.649Zm-1.883-2.234a.47.47 0 0 1-.648.176.47.47 0 0 1-.172-.645l.437-.762a.474.474 0 1 1 .82.473Zm-7.851 1.414a.47.47 0 0 1 .171.644.473.473 0 0 1-.644.176l-.762-.437a.48.48 0 0 1-.176-.649.48.48 0 0 1 .649-.176Zm2.23-1.887a.473.473 0 0 1-.172.649.473.473 0 0 1-.648-.172l-.442-.762a.475.475 0 1 1 .824-.473Zm2.875-.516a.473.473 0 1 1-.95 0V.48c0-.265.212-.476.474-.476.265 0 .476.21.476.476Zm-.477 1.262a3.726 3.726 0 0 1 3.727 3.727c0 2.066-1.32 1.945-1.5 4.996h-1.105V7.71h.39a1.342 1.342 0 0 0 0-2.683c-.738 0-1.344.606-1.344 1.344v.39h-.335v-.39c0-.738-.602-1.344-1.34-1.344s-1.344.606-1.344 1.344.605 1.34 1.344 1.34h.39v3.629H17.09c-.18-3.05-1.504-2.93-1.504-4.996a3.73 3.73 0 0 1 3.726-3.727m.168 8.723V7.71h-.335v3.63Zm-1.285-4.578v-.39a.39.39 0 0 0-.39-.392.39.39 0 0 0-.39.391c0 .211.175.39.39.39Zm2.239 0h.39c.211 0 .39-.18.39-.39 0-.216-.179-.392-.39-.392a.39.39 0 0 0-.39.391Zm-3.235 5.527c.11.156.29.262.496.262h3.239a.61.61 0 0 0 .496-.262Zm3.13 1.473a.6.6 0 0 0 .495-.262h-3.02c.11.16.29.262.497.262Zm-1.903.949c.11.16.289.262.496.262h.785a.6.6 0 0 0 .496-.262Zm-4.7-4.438V5.824a.706.706 0 0 0-.703-.707H7.855a.71.71 0 0 0-.707.707v4.45c0 .39.32.706.707.706h.598v1.438l1.379-1.438h3.191a.706.706 0 0 0 .704-.707M8.82 8.523a.473.473 0 1 1 0-.95l3.239.001a.473.473 0 1 1 0 .95Zm0-1.378a.476.476 0 1 1 0-.954h3.239a.476.476 0 1 1 0 .954Zm0 2.761a.473.473 0 1 1 0-.949h3.239c.265 0 .476.211.476.473 0 .265-.21.476-.476.476Zm11.852 9.735H9.203v1.226h2.676v8.164h6.238v-8.164h2.555ZM5.727 23.418A3.488 3.488 0 0 1 4 20.406v-4.738a1.34 1.34 0 0 1 2.469-.719 1.83 1.83 0 0 0-1.926.79 1.82 1.82 0 0 0 .543 2.5l1.594 1.027v1.14c0 .442.363.805.804.805h.442c1.488 0 2.375.805 3 2.164v5.656h-.219l-1.273-4.336c-.133-.449-.364-.804-.805-.804h-.563c0 .265-.21.476-.472.476v4.664H6.46v-4.664H4.03a2.16 2.16 0 0 1-1.52-.629 2.16 2.16 0 0 1-.628-1.52v-6.155a.475.475 0 1 1 .95 0l-.001 6.156c0 .328.137.629.356.843.214.22.515.356.843.356Zm2.07-4.727h4.293a.86.86 0 1 0 0-1.719H8.047l-1.516-.98a.863.863 0 0 0-1.187.258.86.86 0 0 0 .258 1.188l1.73 1.117c.145.09.305.133.465.136m0 0"/></g></svg>