<svg xmlns="http://www.w3.org/2000/svg" width="40" height="40" version="1.0" viewBox="0 0 30 30"><defs><clipPath id="a"><path d="M13 .129h4V8h-4Zm0 0"/></clipPath><clipPath id="b"><path d="M24 12h5.516v3H24Zm0 0"/></clipPath><clipPath id="c"><path d="M.484 12H6v3H.484Zm0 0"/></clipPath></defs><path fill="#061c3d" d="M15.45 26.293v-5.035h-.9v5.035c-.515.18-.898.672-.898 1.258A1.35 1.35 0 0 0 15 28.898a1.35 1.35 0 0 0 1.348-1.347c0-.586-.383-1.078-.899-1.258M15 28a.45.45 0 1 1 0-.898.45.45 0 0 1 0 .898M23.992 21.258a1.34 1.34 0 0 0-1.262.898h-2.785v-2.25h-.898v2.25c0 .492.402.899.898.899h2.785c.184.515.676.898 1.262.898a1.35 1.35 0 0 0 1.348-1.348 1.35 1.35 0 0 0-1.348-1.347m0 1.797a.45.45 0 1 1 0-.899.45.45 0 0 1 0 .899m0 0"/><g clip-path="url(#a)"><path fill="#061c3d" d="M14.55 2.734V7.77h.9V2.734c.515-.18.898-.675.898-1.257A1.35 1.35 0 0 0 15 .129a1.35 1.35 0 0 0-1.348 1.348c0 .582.383 1.078.899 1.257M15 1.027a.45.45 0 1 1 0 .899.45.45 0 0 1 0-.899m0 0"/></g><path fill="#061c3d" d="M6.008 6.422c.586 0 1.078-.383 1.262-.899h2.785V7.77h.898V5.523a.9.9 0 0 0-.898-.902H7.27a1.35 1.35 0 0 0-1.262-.898c-.742 0-1.348.609-1.348 1.347 0 .742.606 1.352 1.348 1.352m0-1.8a.45.45 0 0 1 0 .902.452.452 0 0 1 0-.902M19.945 5.523h2.785c.184.516.676.899 1.262.899.742 0 1.348-.61 1.348-1.352 0-.738-.606-1.347-1.348-1.347-.586 0-1.078.382-1.262.898h-2.785a.9.9 0 0 0-.898.902V7.77h.898Zm4.047-.902a.452.452 0 0 1 0 .902.45.45 0 0 1-.449-.453c0-.246.2-.449.45-.449M17.7 19.457h-.903v-.45h4.723a1.35 1.35 0 0 0 1.347-1.347v-7.644c0-.739-.605-1.348-1.347-1.348H8.48c-.742 0-1.347.61-1.347 1.348v7.644a1.35 1.35 0 0 0 1.347 1.348h4.723v.449h-.902a.45.45 0 0 0 0 .898h5.398a.45.45 0 0 0 0-.898m-1.802-.45v.45h-1.796v-.45ZM8.031 17.66v-7.644c0-.246.203-.45.45-.45H21.52c.246 0 .449.204.449.45v7.644c0 .246-.203.45-.45.45H8.48a.45.45 0 0 1-.449-.45m0 0"/><path fill="#061c3d" d="M17.79 12.691c.089-.382 0-.832-.317-1.125l-.18-.199a1.2 1.2 0 0 0-.832-.36c-.09 0-.203.02-.293.044a1.18 1.18 0 0 0-1.031-.586h-.274c-.425 0-.808.226-1.008.586a1.3 1.3 0 0 0-.293-.043c-.316 0-.609.133-.832.36l-.203.179c-.316.312-.406.742-.316 1.121-.36.227-.582.586-.582 1.035v.27c0 .425.223.808.582 1.011-.09.383 0 .832.316 1.125l.203.203c.223.223.54.36.832.36.09 0 .204-.024.293-.047.2.336.582.586 1.008.586h.274c.425 0 .808-.227 1.008-.586.09.023.203.047.293.047.316 0 .609-.137.832-.36l.203-.203c.316-.316.406-.742.316-1.125.336-.203.582-.586.582-1.011v-.27c0-.45-.223-.808-.582-1.012m-.317 1.282c0 .156-.114.27-.246.27h-.36c-.047.226-.137.429-.27.628l.247.25c.09.09.09.27-.024.36l-.203.199a.26.26 0 0 1-.199.09.2.2 0 0 1-.16-.067l-.246-.246a2.6 2.6 0 0 1-.63.27v.359c0 .137-.112.246-.269.246h-.27c-.16 0-.269-.11-.269-.246v-.36a1.8 1.8 0 0 1-.629-.269l-.25.246a.23.23 0 0 1-.156.067.27.27 0 0 1-.203-.09l-.203-.2c-.11-.113-.11-.27-.02-.359l.246-.25a2.6 2.6 0 0 1-.27-.629h-.359c-.136 0-.246-.113-.246-.27v-.269c0-.156.11-.27.246-.27h.36a1.7 1.7 0 0 1 .27-.628l-.247-.246a.254.254 0 0 1 .02-.36l.203-.203a.28.28 0 0 1 .203-.09c.066 0 .113.024.156.067l.25.246c.18-.11.403-.2.63-.27v-.36c0-.132.109-.245.269-.245h.27c.156 0 .269.113.269.246v.36c.222.046.426.136.629.269l.246-.246a.26.26 0 0 1 .16-.067c.066 0 .133.024.2.09l.202.203c.114.11.114.27.024.36l-.246.246c.109.18.199.406.27.629h.359c.132 0 .246.113.246.27Zm0 0"/><path fill="#061c3d" d="M15 12.488a1.35 1.35 0 0 0 0 2.7 1.35 1.35 0 0 0 0-2.7m0 1.801a.45.45 0 1 1 0-.898.45.45 0 0 1 0 .898M10.281 12.488H9.38a.452.452 0 0 0 0 .903h.902a.452.452 0 0 0 0-.902M10.281 14.29H9.38a.45.45 0 0 0-.45.448c0 .246.204.45.45.45h.902c.246 0 .45-.204.45-.45a.45.45 0 0 0-.45-.449M20.621 12.488h-.902a.452.452 0 0 0 0 .903h.902a.452.452 0 0 0 0-.902M20.621 14.29h-.902a.45.45 0 0 0-.45.448c0 .246.204.45.45.45h.902c.246 0 .45-.204.45-.45a.45.45 0 0 0-.45-.449M3.535 16.313a.45.45 0 0 1-.766.316.43.43 0 0 1-.132-.317q-.001-.186.133-.32a.43.43 0 0 1 .316-.129q.186 0 .32.13.13.132.13.32M27.363 16.313c0 .12-.043.23-.133.316a.45.45 0 0 1-.766-.316q0-.187.13-.32a.45.45 0 0 1 .32-.13.43.43 0 0 1 .316.13q.134.132.133.32M10.055 22.156H7.27a1.34 1.34 0 0 0-1.262-.898 1.35 1.35 0 0 0-1.348 1.347 1.35 1.35 0 0 0 1.348 1.348c.586 0 1.078-.383 1.262-.898h2.785a.9.9 0 0 0 .898-.899v-2.25h-.898Zm-4.047.899a.45.45 0 0 1-.45-.45.45.45 0 1 1 .45.45m0 0"/><g clip-path="url(#b)"><path fill="#061c3d" d="M29.297 13.344c-.496-.676-1.395-1.078-2.383-1.078s-1.91.402-2.383 1.078a.44.44 0 0 0 .09.629.44.44 0 0 0 .629-.09c.316-.45.965-.719 1.664-.719.695 0 1.348.27 1.664.719.09.113.223.18.36.18.09 0 .18-.024.269-.09a.44.44 0 0 0 .09-.63m0 0"/></g><path fill="#061c3d" d="M26.914 14.063c-.719 0-1.371.335-1.73.878-.137.2-.07.493.132.63a.467.467 0 0 0 .63-.137c.179-.293.562-.473.968-.473.402 0 .785.18.965.473a.44.44 0 0 0 .383.203.5.5 0 0 0 .246-.067.463.463 0 0 0 .137-.629c-.36-.543-1.012-.879-1.73-.879m0 0"/><g clip-path="url(#c)"><path fill="#061c3d" d="M1.422 13.883c.316-.45.969-.719 1.664-.719.7 0 1.348.27 1.664.719.09.113.227.18.36.18.09 0 .18-.024.269-.09.203-.133.246-.426.09-.63-.492-.675-1.395-1.077-2.383-1.077s-1.91.402-2.383 1.078a.44.44 0 0 0 .09.629c.203.156.496.113.629-.09m0 0"/></g><path fill="#061c3d" d="M4.816 14.941c-.359-.543-1.011-.879-1.73-.879s-1.371.336-1.73.88c-.133.199-.067.492.136.628.2.133.492.067.63-.136.179-.293.562-.473.964-.473.406 0 .789.18.969.473.09.136.222.203.379.203.093 0 .16-.024.25-.067.203-.136.27-.43.132-.629m0 0"/></svg>