<svg xmlns="http://www.w3.org/2000/svg" width="40" height="40" version="1.0" viewBox="0 0 30 30"><defs><clipPath id="a"><path d="M.484 1.234H29V28H.484Zm0 0"/></clipPath></defs><g clip-path="url(#a)"><path fill="#061c3d" d="M6.926 3.531a2.05 2.05 0 0 1 1.113 3.77 2.36 2.36 0 0 1 2.234 2.351v1.993c0 .199-.16.363-.359.363H3.941a.365.365 0 0 1-.363-.363V9.652a2.36 2.36 0 0 1 2.235-2.351 2.056 2.056 0 0 1-.336-3.172 2.05 2.05 0 0 1 1.449-.598m.937 1.11c-.832-.832-2.261-.239-2.261.937 0 1.18 1.43 1.774 2.261.938.52-.516.52-1.356 0-1.875m.055 3.379H5.934c-.895 0-1.63.734-1.63 1.632v1.633h5.247V9.652c0-.898-.735-1.632-1.633-1.632m-.992-6.387a6.14 6.14 0 0 1 6.137 6.238 7 7 0 0 1 1.23-.445V6.78c0-.55.453-1 1.004-1h1.45c.554 0 1.003.45 1.003 1v.645a6.8 6.8 0 0 1 1.82.758l.457-.457c.391-.391 1.028-.391 1.418 0l1.028 1.027c.39.39.39 1.027 0 1.418l-.457.453q.51.857.757 1.824h.645c.55 0 1 .45 1 1.004v1.45c0 .55-.45 1.003-1 1.003h-.645a6.8 6.8 0 0 1-.757 1.82l.457.458c.39.39.39 1.027 0 1.418l-1.028 1.027a1.01 1.01 0 0 1-1.418 0l-.457-.457q-.85.509-1.82.754v.644c0 .551-.45 1.004-1.004 1.004h-1.45c-.55 0-1.003-.453-1.003-1.004v-.644a7 7 0 0 1-.867-.281 3.48 3.48 0 0 1-2.2.78H3.985a3.51 3.51 0 0 1-3.5-3.5 3.513 3.513 0 0 1 3.5-3.507h3.641v-.555C3.98 14.277.793 11.43.793 7.77a6.134 6.134 0 0 1 6.133-6.137m6.062 7.086a6.14 6.14 0 0 1-4.64 5.02v.679h2.879c.062 0 .125.004.187.004a4.615 4.615 0 1 1 9.223-.246c0 3.113-3.012 5.32-5.973 4.41a3.5 3.5 0 0 1-.684 1.492c.188.067.543.172.723.203a.36.36 0 0 1 .313.36v.925c0 .157.129.282.28.282h1.45a.283.283 0 0 0 .281-.282v-.925c0-.168.118-.32.29-.356a6.334 6.334 0 0 0 2.09-.86.354.354 0 0 1 .472.032l.66.656c.11.11.29.11.395 0l1.027-1.027a.286.286 0 0 0 0-.395l-.656-.656v-.004a.35.35 0 0 1-.047-.449 6.3 6.3 0 0 0 .87-2.09.36.36 0 0 1 .356-.312h.93a.283.283 0 0 0 .281-.282V13.45a.283.283 0 0 0-.28-.281h-.93a.36.36 0 0 1-.352-.285 6.293 6.293 0 0 0-.86-2.09.36.36 0 0 1 .028-.477l.66-.66a.286.286 0 0 0 0-.394l-1.027-1.028a.286.286 0 0 0-.395 0l-.66.66v-.003a.35.35 0 0 1-.45.046 6.3 6.3 0 0 0-2.09-.87.36.36 0 0 1-.312-.356v-.93a.285.285 0 0 0-.28-.281h-1.45a.285.285 0 0 0-.281.281v.93a.36.36 0 0 1-.29.351 6.3 6.3 0 0 0-1.738.657M10.754 3.94a5.41 5.41 0 1 0-7.652 7.652 5.41 5.41 0 0 0 7.652-7.652M5.285 18.95c.195 0 .36.164.36.363 0 .2-.165.364-.36.364h-.789c-.965 0-1.75-.79-1.75-1.754 0-.965.79-1.75 1.75-1.75h.79a.36.36 0 0 1 0 .723h-.79c-.898 0-1.379 1.101-.723 1.753.184.188.442.305.723.305h.79Zm4.543.363c0 .2-.164.364-.363.364a.364.364 0 0 1-.36-.363V16.53c0-.316.391-.5.637-.234l1.043 1.047 1.063-1.067a.36.36 0 0 1 .613.254h.004v2.782c0 .199-.164.363-.363.363-.2 0-.36-.164-.36-.363v-1.907l-.703.703a.36.36 0 0 1-.508 0l-.703-.703Zm-1.984-1.105.554.918a.357.357 0 0 1-.12.496.36.36 0 0 1-.493-.121l-.754-1.246h-.156v1.058c0 .2-.16.364-.36.364a.365.365 0 0 1-.363-.363V16.53c0-.199.164-.36.364-.36H7.52c.949 0 1.449 1.122.753 1.786-.117.113-.265.2-.43.25m-.969-1.312v.64h.645c.312 0 .472-.336.257-.539a.37.37 0 0 0-.257-.101Zm5.27-2.352a3.51 3.51 0 0 1 2.582 3.309c2.5.882 5.187-.965 5.187-3.676a3.894 3.894 0 0 0-3.89-3.895 3.895 3.895 0 0 0-3.88 4.262m-.918.602H3.984a2.786 2.786 0 0 0-2.777 2.777 2.787 2.787 0 0 0 2.777 2.781h7.243a2.787 2.787 0 0 0 2.777-2.781 2.786 2.786 0 0 0-2.777-2.777m2.168-12.243a.36.36 0 0 1-.434-.27.365.365 0 0 1 .273-.433c4.196-.965 8.5.301 11.48 3.281 4.802 4.805 4.802 12.586 0 17.391a12.3 12.3 0 0 1-13.667 2.547l.652 1.844a.36.36 0 0 1-.222.46.357.357 0 0 1-.457-.218l-.95-2.676a.36.36 0 0 1 .22-.46l2.675-.946a.36.36 0 0 1 .46.219.363.363 0 0 1-.222.46l-1.863.66a11.58 11.58 0 0 0 12.863-2.402c4.52-4.52 4.52-11.847 0-16.367a11.57 11.57 0 0 0-10.808-3.09m0 0"/></g></svg>