<svg xmlns="http://www.w3.org/2000/svg" width="40" height="40" version="1.0" viewBox="0 0 30 30"><defs><clipPath id="a"><path d="M13 14h15.445v8H13Zm0 0"/></clipPath><clipPath id="b"><path d="M1.59 2H4v23H1.59Zm0 0"/></clipPath></defs><g clip-path="url(#a)"><path fill="#fff" d="m26.426 14.453-1.215.574-.059-.12a1.2 1.2 0 0 0-1.601-.548l-2.961 1.383a.326.326 0 1 0 .277.59l2.965-1.383a.546.546 0 0 1 .734.246l.051.11c-9.273 4.37-8.64 4.05-8.734 4.125q-.012.005-.024.015l-.004.004-2.02 1.988c-.206.204-.058.56.231.56h.036l2.816-.29a.4.4 0 0 0 .105-.031l8.973-4.219v-.004l1.508-.707a1.267 1.267 0 0 0-1.078-2.293m-9.66 5.27 8.132-3.828.524 1.109-8.156 3.836a1.37 1.37 0 0 0-.5-1.117m-.621.355c.421.242.546.559.425 1.008l-1.613.164Zm11.082-3.926-1.215.57-.52-1.105 1.211-.57a.607.607 0 0 1 .813.293.61.61 0 0 1-.29.812m0 0"/></g><path fill="#fff" d="M21.867 14.18c.18 0 .328-.145.328-.325V3.012a.814.814 0 0 0-.812-.813h-11.27a.324.324 0 0 0-.324.328c0 .18.145.325.324.325h11.27c.086 0 .16.074.16.16v10.843c0 .18.145.325.324.325M6.14 2.2h-.937a.814.814 0 0 0-.812.812v20.875a.327.327 0 0 0 .652 0V3.012c0-.086.074-.16.16-.16h.938a.327.327 0 1 0 0-.653M13.367 25.629c0 .18.149.328.328.328h5.34q.006-.002.012-.004.006.002.012.004a.33.33 0 0 0 .23-.098l2.977-3.02s0-.003.004-.003a.33.33 0 0 0 .09-.207q.002-.013.003-.02v-2.3a.327.327 0 0 0-.328-.325.327.327 0 0 0-.328.325v1.96l-2.32-.09a.763.763 0 0 0-.793.801l.12 2.32h-5.019a.33.33 0 0 0-.328.329m5.988-2.793c.149.004 2.043.074 1.926.07l-1.933 1.965-.102-1.922a.11.11 0 0 1 .11-.113m0 0"/><g clip-path="url(#b)"><path fill="#fff" d="M3.453 3.332a.324.324 0 0 0 .332-.32.327.327 0 0 0-.316-.336h-.02a.82.82 0 0 0-.816.777l-1 20.633a.816.816 0 0 0 .773.855l.656.032c.176 0 .32-.137.329-.313a.33.33 0 0 0-.313-.344l-.64-.03a.16.16 0 0 1-.153-.169l1-20.633c.008-.086.074-.16.168-.152m0 0"/></g><path fill="#fff" d="M18.59 12.2H8.348a.327.327 0 0 0-.325.327c0 .18.145.328.325.328H18.59a.328.328 0 1 0 0-.656M18.59 14.332H8.348a.327.327 0 0 0-.325.328c0 .18.145.328.325.328H18.59a.328.328 0 1 0 0-.656M18.918 16.793a.33.33 0 0 0-.328-.328H8.348a.327.327 0 0 0-.325.328c0 .18.145.328.325.328H18.59a.33.33 0 0 0 .328-.328M7.95 4h-.56a.33.33 0 0 0-.327.328c0 .18.148.324.328.324h.558c.719 0 1.305-.582 1.305-1.3V1.309c0-.602-.492-1.09-1.098-1.09-.601 0-1.094.488-1.094 1.09v1.3c0 .18.149.325.329.325h.515a.327.327 0 1 0 0-.653H7.72V1.31c0-.243.195-.438.441-.438.242 0 .438.195.438.438v2.043c0 .359-.29.648-.649.648M8.762 6.621c-.098-.074-.332-.09-.457.047-.164.176-.067.281-.094 3.156 0 .25.137.38.363.38.242 0 .36-.138.36-.38V7.891l1.629 2.082c.156.195.253.23.402.23.21 0 .32-.156.32-.363V6.938c0-.231-.125-.372-.363-.372s-.363.141-.363.372v1.93C8.895 6.761 8.895 6.714 8.762 6.62M13.387 10.156c1.265 0 1.898-.695 1.898-1.773 0-1.18-.73-1.77-1.898-1.77h-.98c-.262 0-.41.145-.41.407v2.73c0 .258.144.406.41.406Zm-.61-2.906c.297.07 1.696-.332 1.696 1.133 0 1.472-1.395 1.066-1.696 1.137ZM19.082 9.715l-1.297-2.82c-.09-.204-.223-.329-.441-.329-.223 0-.356.13-.45.329l-1.285 2.82c-.129.265.012.488.297.488.172 0 .281-.05.403-.332l.203-.484h1.66l.207.484c.11.262.23.332.426.332.289 0 .406-.226.277-.488m-1.75-2.274h.012l.566 1.336h-1.137ZM6.125 23.777v4.23c0 .423.34.763.762.763h4.902c.418 0 .762-.34.762-.762v-4.23a.766.766 0 0 0-.762-.766h-.457V21.64a1.997 1.997 0 0 0-1.996-1.996 1.996 1.996 0 0 0-1.992 1.996v1.37h-.457a.764.764 0 0 0-.762.766m5.77 0v4.23c0 .06-.047.11-.106.11H6.887a.11.11 0 0 1-.11-.11v-4.23c0-.062.051-.109.11-.109h4.902c.059 0 .106.047.106.11m-3.899-2.136a1.34 1.34 0 1 1 2.68 0v1.37h-2.68Zm0 0"/><path fill="#fff" d="M9.012 26.402v.828c0 .18.144.329.324.329a.33.33 0 0 0 .328-.329v-.828a1.094 1.094 0 0 0-.328-2.14c-.606 0-1.098.492-1.098 1.097 0 .493.328.903.774 1.043m.324-1.484a.444.444 0 1 1 0 .887.444.444 0 0 1 0-.887m0 0"/></svg>