<svg xmlns="http://www.w3.org/2000/svg" width="40" height="40" version="1.0" viewBox="0 0 30 30"><defs><clipPath id="a"><path d="M10 8h17.23v17H10Zm0 0"/></clipPath><clipPath id="b"><path d="M2.55 0H24v29H2.55Zm0 0"/></clipPath></defs><g clip-path="url(#a)"><path fill="#061c3d" d="m26.86 22.879-5.243-5.242a5.87 5.87 0 0 0 1.113-3.453A5.89 5.89 0 0 0 21 10.008a5.87 5.87 0 0 0-4.18-1.73 5.86 5.86 0 0 0-4.175 1.73 5.86 5.86 0 0 0-1.73 4.176c0 1.578.612 3.062 1.73 4.18a5.87 5.87 0 0 0 4.175 1.73c1.258 0 2.453-.39 3.453-1.114l2.907 2.91 2.336 2.333a.95.95 0 1 0 1.343-1.344m-6.739-5.395a4.67 4.67 0 0 1-6.598 0 4.67 4.67 0 0 1 0-6.597 4.67 4.67 0 0 1 6.598 0 4.67 4.67 0 0 1 0 6.597m0 0"/></g><path fill="#061c3d" d="M5.145 17.504h1.843v2.203H5.145ZM7.898 16.125h1.844v3.578H7.898ZM16.16 18.082c.215.035.438.055.66.055.407 0 .805-.063 1.184-.176v-5.414H16.16ZM13.406 16.172q.252.433.621.808c.36.356.774.637 1.223.832v-3.89h-1.844ZM10.652 16.602v3.105h1.844v-.508a6 6 0 0 1-.355-.332 6.55 6.55 0 0 1-1.489-2.265M6.742 8.375h5.426v.688H6.742ZM6.742 10h3.91v.688h-3.91ZM6.742 11.566h3v.692h-3ZM6.754 6.625h12.281v.688H6.754Zm0 0"/><g clip-path="url(#b)"><path fill="#061c3d" d="M22.7 23.488a.51.51 0 0 0-.512.512v3.738H3.581V1.04h18.606v8.856a.512.512 0 1 0 1.023 0V.18a.167.167 0 0 0-.168-.168H2.723A.17.17 0 0 0 2.55.18v28.418c0 .093.078.172.172.172h20.32a.173.173 0 0 0 .172-.172v-4.594a.515.515 0 0 0-.516-.516m0 0"/></g><path fill="#061c3d" d="m8.629 4.887.258.906h.601L8.54 2.512h-.715l-.957 3.281h.586l.25-.906Zm-.617-1.23c.05-.2.101-.45.144-.657h.012c.047.203.098.45.152.66l.223.79h-.754ZM9.79 2.512v1.945c0 .969.433 1.387 1.14 1.387.726 0 1.191-.434 1.191-1.399V2.512h-.574V4.5c0 .613-.227.867-.598.867-.344 0-.582-.258-.582-.867V2.512ZM15.293 4.078c0-.586-.188-.988-.488-1.242-.27-.23-.645-.348-1.192-.348a5 5 0 0 0-.843.07v3.223c.171.024.414.04.71.04.575 0 1.032-.137 1.329-.415.289-.265.484-.703.484-1.328m-1.68 1.285c-.093 0-.199-.004-.27-.015V2.973c.075-.016.184-.032.329-.032.664 0 1.02.422 1.015 1.149 0 .883-.421 1.277-1.074 1.273M15.781 2.512h.574v3.281h-.574ZM18.137 5.793V3.008h.84v-.496H16.73v.496h.832v2.785ZM12.8 27.195a3.192 3.192 0 1 0-.002-6.388 3.192 3.192 0 0 0 .003 6.388m-2.12-3.004a.406.406 0 0 1 .582 0l.683.684 2.172-2.172a.417.417 0 0 1 .586 0c.16.16.16.422 0 .586l-2.758 2.754-1.265-1.27a.406.406 0 0 1 0-.582m0 0"/></svg>