<svg xmlns="http://www.w3.org/2000/svg" width="40" height="40" version="1.0" viewBox="0 0 30 30"><defs><clipPath id="a"><path d="M.484 7h29.032v21.254H.484Zm0 0"/></clipPath><clipPath id="b"><path d="M9 .672h12V12H9Zm0 0"/></clipPath></defs><g clip-path="url(#a)"><path fill="#061c3d" d="M27.668 7.977h-5.734a.337.337 0 0 0-.336.34c0 .183.148.335.336.335h5.734c.582 0 1.055.473 1.055 1.055v16.781c0 .586-.473 1.059-1.055 1.059H2.273a1.057 1.057 0 0 1-1.058-1.059V9.707c0-.582.472-1.055 1.058-1.055H7.82a.34.34 0 0 0 .34-.336.34.34 0 0 0-.34-.34H2.273c-.957 0-1.734.778-1.734 1.731v16.781c0 .957.777 1.735 1.734 1.735h25.395c.953 0 1.73-.778 1.73-1.735V9.707c0-.953-.777-1.73-1.73-1.73m0 0"/></g><path fill="#061c3d" d="M21.57 21.188c.438-.34.715-.72.836-1.149a.53.53 0 0 0 .328-.422c.024-.328.25-.77-.086-1.043q.011-.206.004-.398c.352-.914.016-1.477-.582-1.668a1.2 1.2 0 0 0-.715-.613c-1.195-.293-2.117.418-2.562.867-.582.59-.227 1.32-.219 1.48-.004.117-.008.238.004.36-.101.101-.176.253-.14.496.074.507.097.828.417.949.38 1.2 1.625 1.984 2.715 1.14m-2.394-1.762c-.02-.117-.04-.235-.059-.363a.34.34 0 0 0 .16-.364 1.5 1.5 0 0 1-.03-.324c.105-.328-.325-.785.026-1.137.418-.425 1.094-.89 1.899-.695.012.004.258.09.312.328.032.14.153.246.297.258.004 0 .219.031.305.183.09.157.039.446-.14.813a.34.34 0 0 0 .03.34c-.007.18-.019.246-.023.273-.012.125.078.254.192.325l-.063.367h-.012a.34.34 0 0 0-.28.28c-.056.352-.259.653-.634.942-.347.27-.718.29-1.058.028-.813-.63-.47-1.18-.922-1.254M18.676 21.332l-1.477.652c-1.008.442-1.125 1.399-1.265 1.657-.141.382-.215.785-.215 1.191 0 .188.152.336.336.336.187 0 .34-.148.34-.336 0-.691.246-1.094.375-1.492.125-.328.378-.598.699-.738l1.48-.653a.34.34 0 0 0 .172-.445.34.34 0 0 0-.445-.172M22.309 21.95l1.48.652c.32.14.574.41.7.738.12.37.374.793.374 1.492 0 .188.153.336.34.336a.336.336 0 0 0 .336-.336c0-.848-.3-1.352-.418-1.73a2 2 0 0 0-1.062-1.118l-1.477-.652a.34.34 0 0 0-.445.172.34.34 0 0 0 .172.445m0 0"/><g clip-path="url(#b)"><path fill="#061c3d" d="M9.746 5.879a5.23 5.23 0 0 0 5.223 5.223 5.23 5.23 0 0 0 5.222-5.223A5.23 5.23 0 0 0 14.97.656 5.23 5.23 0 0 0 9.746 5.88m4.887.336v4.156c-1.074-.309-1.938-2.059-2.02-4.156Zm-2.02-.672c.082-2.098.946-3.848 2.02-4.156v4.156Zm2.692 4.828V6.215h2.02c-.083 2.098-.946 3.848-2.02 4.156m0-4.828V1.387c1.074.308 1.937 2.058 2.02 4.156Zm-2.207-3.805c-.668.883-1.106 2.239-1.16 3.805h-1.5a4.57 4.57 0 0 1 2.66-3.805m-2.66 4.477h1.5c.054 1.566.492 2.922 1.16 3.805a4.57 4.57 0 0 1-2.66-3.805m6.402 3.805c.668-.887 1.105-2.239 1.16-3.805h1.5a4.56 4.56 0 0 1-2.66 3.805m2.66-4.477H18c-.055-1.566-.492-2.922-1.16-3.805a4.56 4.56 0 0 1 2.66 3.805m0 0"/></g><path fill="#061c3d" d="M12.844 17.98h-7.89a.725.725 0 0 0-.727.727v4.477c0 .402.324.726.726.726h7.89c.403 0 .731-.324.731-.726V21.75l1.028-.695a.336.336 0 0 0 .011-.551l-1.039-.762v-1.035a.73.73 0 0 0-.73-.727m.98 2.786-.777.523a.34.34 0 0 0-.149.281v1.614a.056.056 0 0 1-.054.054c-8.313-.027-7.946.051-7.946-.054v-4.477c0-.027.028-.055.055-.055h7.89c.032 0 .055.028.055.055v1.207c0 .11.051.211.137.273Zm0 0"/><path fill="#061c3d" d="M7.305 20.578H9.48a.34.34 0 0 0 .34-.34.34.34 0 0 0-.34-.336H7.305a.336.336 0 0 0-.336.336c0 .188.148.34.336.34M11.059 21.578H7.305a.337.337 0 0 0-.336.34c0 .184.148.336.336.336h3.754a.34.34 0 0 0 .34-.336.34.34 0 0 0-.34-.34M2.516 13.094c0 .187.152.34.34.34h24.066a.337.337 0 0 0 .336-.34.333.333 0 0 0-.336-.336H2.855a.337.337 0 0 0-.34.336M4.938 11.074c.152-.844-.793-1.445-1.493-.96-.699.488-.465 1.585.375 1.734a.96.96 0 0 0 1.118-.774m-1.11-.406c.207-.14.492.035.445.285a.27.27 0 0 1-.117.184.27.27 0 0 1-.215.047c-.25-.043-.32-.371-.113-.516M6.598 11.863a.96.96 0 1 0-.547-1.75c-.774.535-.39 1.75.547 1.75m-.164-1.195a.287.287 0 0 1 .445.285.285.285 0 0 1-.516.113.29.29 0 0 1 .07-.398M9.75 11.691c.695-.48.469-1.578-.379-1.734-.851-.148-1.437.8-.957 1.496.3.438.902.543 1.336.238m-.496-1.066a.284.284 0 1 1-.332.227.283.283 0 0 1 .332-.227M25.883 11.512a.34.34 0 0 0 .34-.336.34.34 0 0 0-.34-.34h-2.059a.337.337 0 0 0-.336.34c0 .183.149.336.336.336Zm0 0"/></svg>