<svg xmlns="http://www.w3.org/2000/svg" width="40" height="40" version="1.0" viewBox="0 0 30 30"><defs><clipPath id="a"><path d="M21 10h8.516v14.262H21Zm0 0"/></clipPath><clipPath id="b"><path d="M.484 4.664H24v19.598H.484Zm0 0"/></clipPath></defs><path fill="#061c3d" d="M10.336 10.367h2.59q.215 0 .367-.152a.5.5 0 0 0 .152-.367.5.5 0 0 0-.152-.368.5.5 0 0 0-.367-.152h-2.59a.5.5 0 0 0-.367.152.5.5 0 0 0-.153.368q0 .215.153.367a.5.5 0 0 0 .367.152M15.52 9.328H15a.5.5 0 0 0-.367.152.5.5 0 0 0-.153.368q0 .215.153.367a.5.5 0 0 0 .367.152h.52q.212 0 .367-.152a.5.5 0 0 0 .148-.367.51.51 0 0 0-.515-.52M10.336 12.438h.516a.51.51 0 0 0 .52-.516.5.5 0 0 0-.153-.367.5.5 0 0 0-.367-.153h-.516a.5.5 0 0 0-.367.153.5.5 0 0 0-.153.367q0 .212.153.367a.5.5 0 0 0 .367.149M15.52 11.402h-2.594c-.14 0-.266.051-.367.153a.5.5 0 0 0-.153.367q0 .212.153.367a.52.52 0 0 0 .367.149h2.594q.212-.001.367-.149a.52.52 0 0 0 .148-.367.51.51 0 0 0-.515-.52M10.336 14.512h5.184q.212 0 .367-.153a.5.5 0 0 0 .148-.363.51.51 0 0 0-.515-.52h-5.184a.5.5 0 0 0-.367.153.5.5 0 0 0-.153.367q0 .21.153.363a.5.5 0 0 0 .367.153M17.594 13.477v1.035q0 .215-.153.367a.5.5 0 0 1-.367.152.5.5 0 0 0-.367.153.5.5 0 0 0-.152.367q0 .212.152.367a.5.5 0 0 0 .367.148 1.55 1.55 0 0 0 1.098-.453c.148-.148.258-.316.34-.504q.117-.287.117-.597v-1.035q0-.206.078-.399.081-.188.227-.336a1 1 0 0 1 .336-.222 1 1 0 0 1 .394-.082.51.51 0 0 0 .52-.516.5.5 0 0 0-.153-.367.5.5 0 0 0-.367-.153q-.207 0-.394-.078a1 1 0 0 1-.336-.226 1 1 0 0 1-.227-.336 1 1 0 0 1-.078-.395V9.328a1.55 1.55 0 0 0-.961-1.437 1.55 1.55 0 0 0-.594-.118.5.5 0 0 0-.367.153.5.5 0 0 0-.152.367c0 .14.05.266.152.367a.5.5 0 0 0 .367.149c.14 0 .266.05.367.152a.5.5 0 0 1 .153.367v1.04q0 .938.715 1.554a1.96 1.96 0 0 0-.715 1.555M8.262 10.367V9.328q0-.212.152-.367a.5.5 0 0 1 .367-.152q.21.002.364-.149a.5.5 0 0 0 .152-.367.5.5 0 0 0-.152-.367.5.5 0 0 0-.364-.153q-.31 0-.597.118a1.5 1.5 0 0 0-.504.34 1.5 1.5 0 0 0-.336.503 1.5 1.5 0 0 0-.121.594v1.04q.001.205-.078.394a1 1 0 0 1-.223.336q-.148.145-.336.226a1.1 1.1 0 0 1-.399.078.5.5 0 0 0-.367.153.5.5 0 0 0-.152.367q0 .212.152.367a.5.5 0 0 0 .367.149q.205 0 .399.082a1 1 0 0 1 .559.558q.08.194.078.399v1.035q0 .31.12.597.119.282.337.504.216.218.504.336.287.117.597.117.21 0 .364-.148a.5.5 0 0 0 .152-.367.5.5 0 0 0-.152-.367.5.5 0 0 0-.364-.153.5.5 0 0 1-.367-.152.5.5 0 0 1-.152-.367v-1.035a1.98 1.98 0 0 0-.715-1.555q.709-.616.715-1.555m0 0"/><g clip-path="url(#a)"><path fill="#061c3d" d="M27.96 10.883h-5.183a1.5 1.5 0 0 0-.597.12 1.5 1.5 0 0 0-.504.337 1.566 1.566 0 0 0-.457 1.098v10.37a1.566 1.566 0 0 0 1.558 1.555h5.184q.305 0 .594-.12a1.5 1.5 0 0 0 .504-.337 1.53 1.53 0 0 0 .457-1.097V12.437q0-.305-.118-.593a1.5 1.5 0 0 0-.34-.504 1.5 1.5 0 0 0-.503-.336 1.5 1.5 0 0 0-.594-.121m-5.702 3.113h6.219v7.254h-6.22Zm.52-2.074h5.183c.14 0 .266.05.367.152a.5.5 0 0 1 .149.364v.519h-6.22v-.52q0-.21.153-.363a.5.5 0 0 1 .367-.152m5.183 11.402h-5.184a.5.5 0 0 1-.367-.152.5.5 0 0 1-.152-.363v-.52h6.219v.52c0 .14-.051.265-.149.363a.5.5 0 0 1-.367.152m0 0"/></g><path fill="#061c3d" d="M26.922 15.031h-3.11a.5.5 0 0 0-.367.153.5.5 0 0 0-.152.367v2.074q0 .21.152.363a.5.5 0 0 0 .367.153h3.11q.215 0 .367-.153a.5.5 0 0 0 .152-.363v-2.074a.5.5 0 0 0-.152-.367.5.5 0 0 0-.367-.153m-.516 2.074h-2.074v-1.039h2.074ZM24.332 19.18h-.52a.51.51 0 0 0-.519.515q0 .216.152.367a.5.5 0 0 0 .367.153h.52a.51.51 0 0 0 .516-.52q-.001-.212-.149-.367a.52.52 0 0 0-.367-.148M26.922 19.18h-.516a.51.51 0 0 0-.52.515q0 .216.153.367a.5.5 0 0 0 .367.153h.516q.215 0 .367-.152a.5.5 0 0 0 .152-.368q0-.212-.152-.367a.5.5 0 0 0-.367-.148m0 0"/><g clip-path="url(#b)"><path fill="#061c3d" d="M3.078 23.324q-.31 0-.598-.117a1.6 1.6 0 0 1-.503-.336 1.6 1.6 0 0 1-.336-.504 1.6 1.6 0 0 1-.118-.597v-.52h7.973l.379.754a.48.48 0 0 0 .46.285h5.185c.21 0 .363-.098.46-.285l.38-.754h3.824v-1.035h-4.149a.49.49 0 0 0-.46.285l-.38.75h-4.539l-.379-.75a.48.48 0 0 0-.46-.285H3.077V19.18h17.106v-1.04H3.078V5.7h19.7v4.148h1.035V5.184a.5.5 0 0 0-.153-.368.5.5 0 0 0-.367-.152H2.559a.5.5 0 0 0-.368.152.5.5 0 0 0-.152.368v15.03h-.516c-.14 0-.27.028-.398.079a1.1 1.1 0 0 0-.336.227 1 1 0 0 0-.227.335q-.077.189-.078.395v.52q0 .515.2.992.193.475.562.84.361.369.84.562.475.2.992.2h17.625a2.5 2.5 0 0 1-.484-1.04Zm0 0"/></g></svg>