<svg xmlns="http://www.w3.org/2000/svg" width="40" height="40" version="1.0" viewBox="0 0 30 30"><defs><clipPath id="a"><path d="M1.445 0h26.856v29.031H1.445Zm0 0"/></clipPath></defs><g clip-path="url(#a)"><path fill="#061c3d" d="M25.645 15.363a3.895 3.895 0 0 0 2.902-3.75 3.875 3.875 0 0 0-3.871-3.87h-.969a4.846 4.846 0 0 0-5.77-4.75A6.29 6.29 0 0 0 12.579 0C9.113 0 6.29 2.824 6.29 6.29c0 .491.055.98.168 1.452H5.32a3.873 3.873 0 0 0-3.87 3.871 3.895 3.895 0 0 0 2.902 3.75v8.348c0 .168.03.332.085.484H2.903a.483.483 0 0 0-.484.48 4.36 4.36 0 0 0 4.355 4.356h16.45a4.36 4.36 0 0 0 4.355-4.355.483.483 0 0 0-.484-.48h-1.535c.054-.153.086-.317.086-.485Zm.93 9.797a3.395 3.395 0 0 1-3.352 2.906H6.773a3.39 3.39 0 0 1-3.351-2.906h7.41l.566 1.133c.25.496.747.805 1.301.805h4.61c.55 0 1.05-.309 1.3-.805l.567-1.133ZM13.546 7.742h-.285l1.734-1.734 1.738 1.734h-.285a.487.487 0 0 0-.484.485v6.289H14.03v-6.29a.487.487 0 0 0-.484-.484m0 7.742h2.902a.487.487 0 0 0 .485-.484v-.484h5.804v7.742H7.254v-7.742h5.809V15c0 .266.218.484.484.484m3.387-1.937v-.965h5.804v.965Zm-9.68 0v-.965h5.809v.965Zm5.809-1.934h-6.29a.484.484 0 0 0-.484.485v10.644c0 .266.215.485.484.485h16.45a.487.487 0 0 0 .484-.485V12.098a.487.487 0 0 0-.484-.485h-6.29v-.968h7.258c.266 0 .485.218.485.484V23.71a.487.487 0 0 1-.485.484H5.805a.487.487 0 0 1-.485-.484V11.129c0-.266.22-.484.485-.484h7.258ZM18.09 25.16l-.352.703a.49.49 0 0 1-.437.266h-4.61a.49.49 0 0 1-.433-.266l-.352-.703ZM24.19 9.676h-7.257V8.71h.968a.48.48 0 0 0 .446-.297.48.48 0 0 0-.102-.527l-2.902-2.903a.486.486 0 0 0-.684 0l-2.906 2.903a.48.48 0 0 0-.102.527.49.49 0 0 0 .45.297h.964v.965H5.805c-.801 0-1.453.656-1.453 1.453v3.219a2.92 2.92 0 0 1-1.934-2.735c0-1.601 1.3-2.902 2.902-2.902h1.785c.157 0 .301-.078.391-.207a.47.47 0 0 0 .063-.441 5.4 5.4 0 0 1-.305-1.774 5.327 5.327 0 0 1 10.02-2.516c.105.2.335.297.554.239.34-.098.692-.149 1.04-.149a3.875 3.875 0 0 1 3.847 4.301.5.5 0 0 0 .12.375c.09.106.224.164.364.164h1.477c1.601 0 2.902 1.3 2.902 2.902a2.91 2.91 0 0 1-1.933 2.735v-3.211a1.46 1.46 0 0 0-1.454-1.453m0 0"/></g><path fill="#061c3d" d="M9.191 16.934q0 .204-.14.343a.48.48 0 0 1-.344.141.46.46 0 0 1-.34-.14.45.45 0 0 1-.144-.344q0-.2.144-.34a.46.46 0 0 1 .34-.14.48.48 0 0 1 .484.48M9.191 18.871a.48.48 0 0 1-.484.484.46.46 0 0 1-.34-.14.47.47 0 0 1-.144-.344q0-.198.144-.344a.46.46 0 0 1 .34-.14.48.48 0 0 1 .484.484M9.191 20.805q0 .204-.14.343a.48.48 0 0 1-.344.141.46.46 0 0 1-.34-.14.45.45 0 0 1-.144-.344q0-.2.144-.34a.46.46 0 0 1 .34-.14.48.48 0 0 1 .484.48M10.645 17.418h.964a.483.483 0 1 0 0-.965h-.964a.482.482 0 1 0 0 .965M10.16 18.871c0 .266.215.484.485.484h4.835a.487.487 0 0 0 .485-.484.487.487 0 0 0-.485-.484h-4.835a.484.484 0 0 0-.485.484M17.418 19.355h3.871a.487.487 0 0 0 .484-.484.487.487 0 0 0-.484-.484h-3.871a.487.487 0 0 0-.484.484c0 .266.218.484.484.484M15.48 20.324h-4.835a.482.482 0 1 0 0 .965h4.835a.483.483 0 1 0 0-.965m0 0"/></svg>