<svg xmlns="http://www.w3.org/2000/svg" width="40" height="40" version="1.0" viewBox="0 0 30 30"><defs><clipPath id="a"><path d="M.973 0H29.28v29.031H.973Zm0 0"/></clipPath></defs><path fill="#061c3d" d="M14.996 16.934a.487.487 0 0 0 .484-.485V15h.485c.797 0 1.45-.652 1.45-1.45 0-.8-.653-1.452-1.45-1.452h-.969a.487.487 0 0 0-.484.484v3.867c0 .266.218.485.484.485m.484-3.868h.485c.265 0 .48.215.48.485a.48.48 0 0 1-.48.48h-.485ZM18.863 16.934c.27 0 .485-.22.485-.485v-3.867a.483.483 0 1 0-.965 0v3.867c0 .266.215.485.48.485M11.129 16.934a.487.487 0 0 0 .484-.485V15h.965v1.45c0 .265.219.484.485.484a.487.487 0 0 0 .484-.485v-2.898c0-.801-.652-1.453-1.453-1.453-.797 0-1.45.652-1.45 1.453v2.898c0 .266.22.485.485.485m.484-3.383c0-.27.215-.485.48-.485.266 0 .485.215.485.485v.48h-.965Zm0 0"/><path fill="#061c3d" d="M14.996 21.77c4 0 7.254-3.254 7.254-7.254s-3.254-7.254-7.254-7.254-7.254 3.254-7.254 7.254 3.254 7.254 7.254 7.254m0-13.54c3.465 0 6.285 2.825 6.285 6.286a6.293 6.293 0 0 1-6.285 6.285c-3.46 0-6.285-2.82-6.285-6.285 0-3.461 2.824-6.286 6.285-6.286m0 0"/><g clip-path="url(#a)"><path fill="#061c3d" d="M2.426 25.152c.797 0 1.449-.652 1.449-1.449 0-.629-.406-1.168-.969-1.367v-1.297l3.64-2.914c.22.5.477.992.782 1.445l-.89.887a.486.486 0 0 0 0 .684l1.933 1.933a.486.486 0 0 0 .684 0l.89-.887a9.3 9.3 0 0 0 3.117 1.31v1.655c0 .27.22.485.485.485h2.898c.27 0 .485-.215.485-.485v-1.656c.406-.082.804-.2 1.191-.344l.75 4.5a.48.48 0 0 0 .477.403h1.535c.199.562.738.968 1.367.968.797 0 1.45-.652 1.45-1.453 0-.797-.653-1.449-1.45-1.449-.629 0-1.168.406-1.367.969h-1.125l-.719-4.324a8.4 8.4 0 0 0 1.016-.578l.89.886a.486.486 0 0 0 .684 0l1.933-1.933a.486.486 0 0 0 0-.684l-.89-.887a3 3 0 0 0 .14-.218h3.391c.2.562.738.968 1.367.968.797 0 1.45-.656 1.45-1.453s-.653-1.449-1.45-1.449c-.629 0-1.168.406-1.367.965h-2.871a9 9 0 0 0 .652-1.934h1.649c.27 0 .484-.215.484-.484v-2.899a.484.484 0 0 0-.484-.484h-1.656a9 9 0 0 0-1.309-3.117l.887-.89a.486.486 0 0 0 0-.684L21.62 5.957a.486.486 0 0 0-.683 0l-.887.89a10 10 0 0 0-1.012-.581l2.523-4.32h1.739c.199.562.738.964 1.367.964.797 0 1.45-.652 1.45-1.45 0-.796-.653-1.448-1.45-1.448-.629 0-1.168.402-1.367.965h-2.02a.47.47 0 0 0-.414.242l-2.722 4.668a8.6 8.6 0 0 0-1.207-.352V3.88a.487.487 0 0 0-.485-.484h-2.902a.483.483 0 0 0-.48.484v1.656a9 9 0 0 0-3.122 1.313l-.886-.891a.486.486 0 0 0-.684 0l-.695.684-2.36-1.57V2.827c.563-.2.969-.738.969-1.367 0-.797-.652-1.45-1.45-1.45-.8 0-1.452.653-1.452 1.45 0 .629.406 1.168.968 1.367v2.5c0 .164.079.317.22.406l2.41 1.606-.551.55a.486.486 0 0 0 0 .684l.89.89a9.3 9.3 0 0 0-1.312 3.118H4.359a.487.487 0 0 0-.484.484v2.899c0 .27.219.484.484.484h1.657c.054.242.113.48.187.715L2.13 20.426a.48.48 0 0 0-.184.375v1.535c-.558.2-.965.738-.965 1.367a1.443 1.443 0 0 0 1.446 1.45M22.25 27.09c.266 0 .484.215.484.48a.487.487 0 0 1-.484.485.487.487 0 0 1-.484-.485c0-.265.218-.48.484-.48m5.32-8.707a.483.483 0 1 1-.484.484c0-.265.219-.484.484-.484M24.668.977c.266 0 .484.218.484.484a.487.487 0 0 1-.484.484.487.487 0 0 1-.484-.484c0-.266.218-.484.484-.484m-19.824.968a.487.487 0 0 1-.485-.484c0-.266.22-.484.485-.484a.483.483 0 0 1 0 .968m0 13.54V13.55h1.57a.49.49 0 0 0 .477-.406 8.3 8.3 0 0 1 1.453-3.457.49.49 0 0 0-.051-.63l-.832-.828 1.25-1.25.832.832a.49.49 0 0 0 .629.051 8.2 8.2 0 0 1 3.457-1.453.48.48 0 0 0 .406-.476v-1.57h1.934v1.57c0 .234.172.433.406.476a8.3 8.3 0 0 1 3.457 1.453c.195.137.461.117.629-.05l.832-.833 1.254 1.25-.836.832a.49.49 0 0 0-.047.63 8.2 8.2 0 0 1 1.45 3.456.48.48 0 0 0 .476.407h1.574v1.933H23.59a.49.49 0 0 0-.477.407 8.2 8.2 0 0 1-1.449 3.457.486.486 0 0 0 .047.628l.836.832-1.266 1.243-.832-.836a.486.486 0 0 0-.629-.047 8.2 8.2 0 0 1-3.457 1.45.48.48 0 0 0-.406.476v1.574h-1.934v-1.574a.485.485 0 0 0-.406-.477 8.2 8.2 0 0 1-3.457-1.45.49.49 0 0 0-.629.048l-.82.836L7.46 20.8l.832-.832a.49.49 0 0 0 .05-.63 8.2 8.2 0 0 1-1.452-3.456.48.48 0 0 0-.477-.406h-1.57Zm-2.418 7.734a.483.483 0 1 1-.485.484c0-.265.22-.484.485-.484m0 0"/></g></svg>