<svg xmlns="http://www.w3.org/2000/svg" width="40" height="40" version="1.0" viewBox="0 0 30 30"><defs><clipPath id="a"><path d="M2.152 0h25.403v27H2.152Zm0 0"/></clipPath></defs><path fill="#fff" d="M16.27 5.566c-.004-.27.02-.582-.207-.738-.176-.121-.47-.09-.606.086-.098.129-.098.3-.098.469.004.238-.004.558.008.824.004.363.25.68.621.496.38-.215.274-.758.282-1.121ZM7.746 14.113c-.348-.031-.781-.011-1.105-.02-.313.009-.578.305-.45.622.094.254.352.285.586.289.23 0 .438 0 .676-.004.16 0 .297.008.438-.066.394-.196.23-.746-.13-.817ZM25.125 14.129c-.34-.063-.734-.012-1.059-.024-.164.004-.351.051-.46.172-.22.235-.067.649.23.711.191.04.34.008.543.016.191-.004.488.023.664-.012a.44.44 0 0 0 .098-.86ZM16.242 22.855c-.082-.23-.36-.39-.594-.289-.367.168-.312.668-.296 1.043.015.332-.04.817.414.805a.6.6 0 0 0 .191-.035c.344-.106.332-.438.316-.727-.011-.23.028-.554-.027-.78ZM10.434 8.465c-.227-.274-.547-.57-.77-.809-.23-.222-.625-.199-.758.121-.113.246.047.457.215.63.164.163.313.312.48.484.114.113.208.218.36.265.414.145.684-.363.48-.676ZM22.719 20.953c-.196-.289-.512-.539-.735-.781-.117-.117-.28-.219-.445-.211-.32.012-.5.414-.332.676.11.164.234.25.371.402.137.133.328.367.477.469.422.316.875-.13.672-.543ZM10.36 20.75c.105-.223.015-.535-.22-.629-.378-.148-.687.246-.937.524-.281.289-.633.632-.164.949a.46.46 0 0 0 .637-.094c.14-.145.234-.246.386-.398.126-.141.211-.192.293-.336l.008-.016Zm0 0"/><g clip-path="url(#a)"><path fill="#fff" d="M26.457 3.566c-.316.301-.621.157-.89-.109C23.038 1.227 19.667 0 16.32.027c-6.289-.004-12.25 5-13.238 11.348-.766 4.754 1.11 9.934 4.95 12.828 2.988 2.254 6.991 3.043 10.6 2.184 2.423-.582 4.755-1.926 6.24-3.989.046-.062.112-.168.007-.066a11.7 11.7 0 0 1-3.582 2.473c-9.152 4.23-19.125-4.778-15.246-14.403 2.68-6.785 11.207-8.714 16.504-3.82.328.29.277.559-.024.832q-.757.762-1.508 1.524c-.117.109-.093.175.07.18 2.036.097 4.079.152 6.118.152.21.003.445-.063.5-.297.105-2.098.062-4.211.117-6.317 0-.054 0-.172-.039-.183-.047-.012-.094.03-.137.066-.394.336-.785.68-1.183 1.016Zm0 0"/></g><path fill="#fff" d="M12.941 9.59c.184-.012 1.508.004 1.723 0 .02 0 .035-.004.043.015v4.551c.004.035.02.024.078.028h.598c.113 0 .148 0 .152.05.004.145.004.95.004 1.16 0 .028 0 .055-.027.067-.16.027-.414.004-.59.012-.113.007-.168-.02-.211.023-.012.219 0 1.14-.004 1.578-.004.133.016.172-.039.172h-1.54c-.019 0-.038 0-.046-.016-.02-.425 0-1.527-.008-1.722-.004-.024-.004-.035-.031-.035-.563-.008-2.395.007-2.625-.004-.031-.035-.008-.094-.016-.18.004-.277-.004-.809.004-1.101.153-.286 2.38-4.352 2.531-4.598Zm.258 4.683c.016-.324.004-1.246.008-1.73-.008-.465.008-.98-.008-1.367-.058.125-1.547 2.887-1.636 3.097.328.008 1.253.004 1.636 0M20.121 13.133c0 .05.07.097.113.129 1.184.761 1.266 2.566.239 3.492-.578.586-1.848.726-2.746.52-1.043-.208-1.676-1.126-1.57-2.196.062-.71.456-1.11 1.066-1.484.082-.067.027-.14-.04-.192-.988-.687-1.074-2.191-.32-3.074.442-.578 1.25-.765 1.973-.738 1.21 0 2.11.648 2.144 1.848.024.66-.226 1.183-.746 1.558-.043.035-.113.082-.117.129v.008Zm-1.82.957c-1.047.422-.934 2.152.308 2.148.727.063 1.32-.68.907-1.355-.145-.242-.278-.328-.567-.508-.168-.086-.406-.258-.629-.29h-.02Zm.758-1.48c.742-.5.73-1.981-.325-1.958-.636-.023-1.039.676-.746 1.23.086.169.254.31.418.415.172.113.344.215.52.297.039.015.078.031.12.02ZM11.633 18.793c.066-.012.207-.008.285-.008.062.004.129-.012.145.055.015.168 0 .605.007.742 0 .04.024.059.059.063.07.003.262.003.355 0 .137-.004.075-.122.086-.282 0-.18 0-.41.004-.504.008-.101.106-.066.207-.074.09.004.184-.012.242.016.028.238 0 1.832.008 2.074 0 .027-.015.035-.043.04-.035.003-.105.003-.183.003-.211-.004-.246.031-.235-.215-.004-.223.016-.5-.008-.621-.015-.031-.042-.031-.078-.035-.07-.004-.168 0-.238 0-.082.004-.176-.024-.18.074-.011.137.02.578-.011.762-.012.023-.035.031-.082.035h-.301c-.035-.004-.055-.004-.063-.031-.007-.172-.004-1.309-.004-1.703v-.364q-.002-.022.02-.027ZM14.879 19.867c.016.57-.215 1.153-.84 1.078-.613-.07-.707-.672-.68-1.265.016-.492.258-.973.797-.926.563.027.73.555.723 1.094Zm-.484-.027c-.016-.262.015-.477-.122-.645-.125-.129-.34-.043-.378.121-.043.106-.055.368-.055.536.02.316-.027.664.262.718a.21.21 0 0 0 .168-.066c.14-.156.109-.379.125-.64ZM15.23 18.793c.055-.016.114-.008.204-.012.093.008.156-.011.214.024.032.054.008.105.016.207v.902c.012.2-.039.492.156.61.196.105.418-.04.414-.262.02-.41.004-1.04.012-1.387-.012-.113.082-.086.192-.094.085.012.156-.02.187.043.012.32.004.84.004 1.176-.008.23.012.543-.16.734-.254.297-.89.305-1.133-.03-.145-.196-.129-.532-.133-.79 0-.195-.004-.832 0-1.09q.004-.02.02-.027ZM17.035 18.79c.13-.009.34 0 .492-.005.23.008.45-.027.645.11.305.203.332.765.047 1.015-.051.05-.086.078-.07.133.074.203.288.684.34.816.003.016.011.036-.005.047-.082.024-.203.004-.297.012-.093-.004-.183.023-.21-.082-.047-.129-.16-.469-.22-.637-.015-.05-.03-.105-.081-.117a.4.4 0 0 0-.121-.004c-.098.016-.063.098-.07.188v.578c-.008.11-.106.062-.212.074-.074 0-.152 0-.191-.004-.047-.004-.062-.004-.066-.039.011-.246-.024-1.906.015-2.086Zm.453.343v.133c.008.172-.02.445.012.464.227.008.465.02.46-.308-.003-.317-.23-.297-.468-.29ZM20.008 19.219c-.059.086-.203.129-.305.133-.094-.008-.14-.145-.246-.184-.246-.105-.453.191-.191.34.37.176.863.293.816.82-.02.676-1.066.836-1.383.317-.133-.204-.133-.297.14-.352.099-.027.165.016.212.102.094.19.418.23.52.039.07-.16-.044-.278-.204-.336-.226-.102-.488-.164-.62-.391-.227-.379.042-.918.483-.945.313-.051.739.093.782.449Zm0 0"/></svg>