<svg xmlns="http://www.w3.org/2000/svg" width="40" height="40" version="1.0" viewBox="0 0 30 30"><defs><clipPath id="a"><path d="M.484 3.047h29.032V22H.484Zm0 0"/></clipPath><clipPath id="b"><path d="M.484 17h29.032v2H.484Zm0 0"/></clipPath></defs><path fill="#061c3d" d="M20.645 20.328h-.782a.5.5 0 0 1-.37-.156.5.5 0 0 1-.153-.367q0-.219.152-.371a.5.5 0 0 1 .371-.153h.782c.144 0 .27.051.37.153a.5.5 0 0 1 .153.37q0 .216-.152.368a.5.5 0 0 1-.371.156M23.488 20.328h-.781a.5.5 0 0 1-.371-.156.5.5 0 0 1-.152-.367q0-.219.152-.371a.5.5 0 0 1 .371-.153h.781q.219 0 .371.153a.5.5 0 0 1 .153.37q0 .216-.153.368a.5.5 0 0 1-.37.156M26.332 20.328h-.84a.5.5 0 0 1-.367-.156.5.5 0 0 1-.152-.367q0-.219.152-.371a.5.5 0 0 1 .367-.153h.84q.216 0 .367.153a.5.5 0 0 1 .153.37q0 .216-.153.368a.5.5 0 0 1-.367.156M11.605 25.914a.49.49 0 0 1-.32-.234.5.5 0 0 1-.062-.395l.941-3.945a.5.5 0 0 1 .238-.324.5.5 0 0 1 .395-.063q.21.052.32.235a.49.49 0 0 1 .063.394l-.942 3.945a.51.51 0 0 1-.234.325.5.5 0 0 1-.399.062M17.734 25.512l-.804-3.946q-.04-.21.078-.39a.5.5 0 0 1 .332-.223.5.5 0 0 1 .39.074.5.5 0 0 1 .223.332l.805 3.946q.04.21-.078.39a.5.5 0 0 1-.332.223.5.5 0 0 1-.391-.074.5.5 0 0 1-.223-.332m0 0"/><path fill="#061c3d" d="M20.492 25.93H9.445a.5.5 0 0 1-.37-.153.5.5 0 0 1-.153-.37q0-.216.152-.368a.5.5 0 0 1 .371-.152h11.047q.219 0 .371.152a.5.5 0 0 1 .153.367q0 .219-.153.371a.5.5 0 0 1-.37.153m0 0"/><g clip-path="url(#a)"><path fill="#061c3d" d="M27.988 21.984h-26c-.87 0-1.504-.629-1.504-1.5V4.574c0-.855.66-1.527 1.504-1.527h26c.203 0 .395.043.578.121q.277.116.489.332.209.216.324.496.11.278.11.578v15.914q0 .299-.11.575a1.5 1.5 0 0 1-.324.488q-.211.212-.489.324a1.4 1.4 0 0 1-.578.11m-26-17.894c-.312 0-.457.25-.457.484v15.914c0 .285.168.457.457.457h26a.44.44 0 0 0 .325-.133q.134-.136.128-.324V4.574a.45.45 0 0 0-.128-.336.46.46 0 0 0-.325-.148Zm0 0"/></g><g clip-path="url(#b)"><path fill="#061c3d" d="M28.965 18.664H1.008a.5.5 0 0 1-.367-.152.5.5 0 0 1-.153-.371q0-.216.153-.368a.5.5 0 0 1 .367-.152h27.957q.215 0 .367.152a.49.49 0 0 1 .156.368c0 .144-.05.27-.156.37a.5.5 0 0 1-.367.153m0 0"/></g><path fill="#061c3d" d="M6.188 15.523c-.165 0-.211-.039-.926-.222a.72.72 0 0 1-.414-.293.7.7 0 0 1-.121-.492l.058-.555a3 3 0 0 1-.402-.309l-.524.2a.7.7 0 0 1-.511.007.7.7 0 0 1-.391-.328l-.375-.652a.724.724 0 0 1 .18-.937l.43-.348a4 4 0 0 1-.063-.504l-.508-.227a.7.7 0 0 1-.367-.351.7.7 0 0 1-.043-.508l.195-.73a.7.7 0 0 1 .29-.415.7.7 0 0 1 .491-.125l.551.059q.142-.21.313-.402l-.203-.524a.7.7 0 0 1-.008-.508.72.72 0 0 1 .328-.39l.652-.375a.7.7 0 0 1 .504-.09.7.7 0 0 1 .434.266l.347.43q.251-.048.508-.067l.223-.504a.7.7 0 0 1 .355-.367.7.7 0 0 1 .504-.047l.73.195a.7.7 0 0 1 .415.293.73.73 0 0 1 .125.496l-.059.551c.14.094.278.2.403.309l.52-.2a.7.7 0 0 1 .507-.007.68.68 0 0 1 .39.328l.38.652q.134.235.085.5a.72.72 0 0 1-.261.438l-.434.347q.051.251.066.508l.508.223a.724.724 0 0 1 .41.863l-.195.726a.71.71 0 0 1-.293.418.7.7 0 0 1-.492.122l-.555-.059q-.139.211-.308.406l.203.52q.098.256.004.511a.7.7 0 0 1-.332.391l-.649.375a.72.72 0 0 1-.5.086.72.72 0 0 1-.437-.262l-.348-.433a3 3 0 0 1-.504.066l-.226.508a.68.68 0 0 1-.66.437m-.395-1.164.215.059.254-.57q.14-.322.496-.309.445.018.87-.117a.484.484 0 0 1 .56.176l.394.484.195-.113-.226-.582a.48.48 0 0 1 .129-.57q.328-.306.535-.7.168-.312.52-.273l.617.066.058-.215-.578-.254a.48.48 0 0 1-.312-.496 2.6 2.6 0 0 0-.114-.87q-.1-.341.172-.56l.485-.39-.114-.2-.574.231a.49.49 0 0 1-.57-.133 2.6 2.6 0 0 0-.7-.535.48.48 0 0 1-.273-.52l.063-.616-.211-.059-.254.57a.48.48 0 0 1-.496.309 2.6 2.6 0 0 0-.872.117.484.484 0 0 1-.558-.172l-.39-.484-.2.11.227.585a.475.475 0 0 1-.13.567 2.7 2.7 0 0 0-.53.699q-.166.314-.524.273l-.617-.062-.059.215.57.25q.323.144.313.496-.017.447.113.875a.49.49 0 0 1-.172.558l-.484.39.11.196.582-.223a.48.48 0 0 1 .57.13q.305.325.699.535c.207.109.297.285.273.515Zm0 0"/><path fill="#061c3d" d="M6.848 12.832c-.157 0-.317-.02-.47-.059q-.231-.053-.44-.164a1.94 1.94 0 0 1-.934-1.035 1.8 1.8 0 0 1-.117-.457 2 2 0 0 1-.008-.472q.03-.235.105-.461a1.95 1.95 0 0 1 .524-.782c.113-.105.242-.199.383-.273a1.95 1.95 0 0 1 .906-.246c.156-.004.316.012.469.047.156.03.304.086.449.156a2 2 0 0 1 .719.601q.14.195.23.41.095.224.129.458c.023.156.031.312.016.472a1.9 1.9 0 0 1-.098.461q-.075.228-.203.426a2.064 2.064 0 0 1-.676.652 2 2 0 0 1-.984.266m-.004-2.906q-.24 0-.45.117a.9.9 0 0 0-.335.312.934.934 0 0 0 .238 1.25.916.916 0 0 0 .883.113.924.924 0 0 0 .574-.684.9.9 0 0 0-.024-.456.92.92 0 0 0-.886-.652M16.926 14.238a.51.51 0 0 1-.371-.152.5.5 0 0 1-.153-.371v-2.711l-.976 1.633a.52.52 0 0 1-.45.254.51.51 0 0 1-.449-.254l-.976-1.633v2.71q0 .218-.153.372a.5.5 0 0 1-.37.152.5.5 0 0 1-.368-.152.5.5 0 0 1-.152-.371V9.117q-.004-.397.379-.504.386-.105.59.235l1.5 2.507 1.503-2.507q.205-.34.586-.235.385.106.383.504v4.598c0 .144-.05.27-.152.37a.5.5 0 0 1-.371.153M24.383 14.238a.5.5 0 0 1-.367-.152.5.5 0 0 1-.153-.371V9.117q0-.215.153-.367a.5.5 0 0 1 .367-.152c.144 0 .27.05.37.152a.5.5 0 0 1 .153.367v4.598c0 .144-.05.27-.152.37a.5.5 0 0 1-.371.153m0 0"/><path fill="#061c3d" d="M26.082 12.016h-1.7a.49.49 0 0 1-.366-.157.5.5 0 0 1-.153-.367q0-.214.153-.37a.5.5 0 0 1 .367-.153h1.699q.276.002.469-.196a.64.64 0 0 0 .195-.468.64.64 0 0 0-.195-.47.63.63 0 0 0-.469-.194h-1.7a.5.5 0 0 1-.366-.153.5.5 0 0 1-.153-.37q0-.216.153-.368a.5.5 0 0 1 .367-.152h1.699a1.704 1.704 0 0 1 1.707 1.707 1.7 1.7 0 0 1-.5 1.207q-.24.241-.555.37-.313.132-.652.134M20.582 14.238a.48.48 0 0 1-.477-.308L18.04 9.332a.5.5 0 0 1-.02-.402.5.5 0 0 1 .278-.297.51.51 0 0 1 .402-.012.51.51 0 0 1 .293.285l1.59 3.535 1.59-3.535a.5.5 0 0 1 .289-.285.524.524 0 0 1 .664.711l-2.07 4.598a.48.48 0 0 1-.473.308m0 0"/></svg>