<svg xmlns="http://www.w3.org/2000/svg" width="40" height="40" version="1.0" viewBox="0 0 30 30"><defs><clipPath id="a"><path d="M1.3 0h27.583v29.031H1.3Zm0 0"/></clipPath></defs><g clip-path="url(#a)"><path fill="#061c3d" d="m21.672 11.55 1.242.68c.113-.593.184-1.199.203-1.812h-3.644v2.156q.772.025 1.539.125l.015-.777a.436.436 0 0 1 .645-.371m2.043 1.122 1.504.824a7.05 7.05 0 0 0 .914-3.078h-2.14a12.4 12.4 0 0 1-.278 2.254m2.27 1.242.32.18a.437.437 0 0 1-.004.77l-1.117.644 1.132 1.969a.435.435 0 0 1-.16.593l-1.722.996a.44.44 0 0 1-.594-.16l-1.078-1.863a6 6 0 0 1-.317.156c-.23.11-.46.207-.703.293l-.176.102a.4.4 0 0 1-.293.05c-.32.094-.656.169-.996.223-4.855.758-9.222-2.992-9.222-7.887a7.983 7.983 0 1 1 14.93 3.934m-5.047 2.348.054-2.684a14 14 0 0 0-1.515-.129v3.602c.546-.106 1.039-.399 1.46-.79m4.269-1.778-3.324-1.824-.078 3.785v.008l.84-.488a.436.436 0 0 1 .593.164l1.137 1.965.969-.559-1.137-1.969a.43.43 0 0 1 .16-.593ZM8.68 25.168h2.734v-2.469H3.52a2.22 2.22 0 0 1-2.22-2.215V2.238C1.3 1.016 2.298.02 3.52.02h22.96c1.22 0 2.215.996 2.215 2.218v18.246A2.22 2.22 0 0 1 26.48 22.7h-7.894v2.469h2.734c1.059 0 1.922.863 1.922 1.922a1.926 1.926 0 0 1-1.922 1.922H8.68a1.926 1.926 0 0 1-1.922-1.922c0-1.059.863-1.922 1.922-1.922m12.64.875H8.68c-.918 0-1.407 1.121-.742 1.789.19.188.453.305.742.305h12.64c.918 0 1.407-1.121.739-1.785a1.04 1.04 0 0 0-.739-.309m-9.03-3.344v2.469h5.417v-2.469Zm7.183-19.785v3.602a14.6 14.6 0 0 0 2.984-.414c-.55-1.446-1.57-2.918-2.984-3.188m0 4.473v2.156h3.644a11 11 0 0 0-.39-2.61c-1.067.266-2.16.422-3.254.454m-.871 9.66v-3.602a14.6 14.6 0 0 0-2.993.39c.547 1.454 1.57 2.942 2.993 3.212m0-4.477v-2.152h-3.645c.031.922.164 1.793.383 2.586 1.07-.258 2.16-.402 3.262-.434m0-3.027V7.391a15.4 15.4 0 0 1-3.262-.434 11.2 11.2 0 0 0-.383 2.586Zm0-3.027V2.914c-1.422.27-2.446 1.758-2.993 3.211.985.234 1.985.367 2.993.39m-6.66 3.027h2.136c.035-.996.184-1.945.422-2.816q-.749-.229-1.48-.532a7.1 7.1 0 0 0-1.079 3.348m12.05 0h2.14a7.1 7.1 0 0 0-1.1-3.387c-.485.207-.97.387-1.466.54.247.878.395 1.835.426 2.847m-9.914.875h-2.137a7.1 7.1 0 0 0 1.079 3.352q.731-.306 1.48-.536a12.3 12.3 0 0 1-.422-2.816m-.535-4.95q.602.241 1.223.43c.32-.882.773-1.722 1.363-2.406a7.2 7.2 0 0 0-2.586 1.977m9.754.4q.61-.189 1.203-.434a7.14 7.14 0 0 0-2.555-1.942c.582.676 1.032 1.504 1.352 2.375m-8.535 8.195c-.41.128-.817.269-1.219.433a7.2 7.2 0 0 0 2.586 1.973c-.59-.684-1.043-1.524-1.367-2.407M4.266 11.23h4.777a.93.93 0 0 1 .613.239.82.82 0 0 1 .274.613v1.398c0 .485-.418.852-.887.852H4.266c-.23 0-.45-.09-.61-.238l-.004.004a.84.84 0 0 1-.273-.618v-1.398c0-.484.418-.852.887-.852m4.777.875h-4.79v1.352h4.802v-1.352zM4.266 15.5h4.777c.234 0 .45.09.613.234a.82.82 0 0 1 .274.614v1.402c0 .48-.418.848-.887.848H4.266c-.23 0-.45-.09-.61-.235h-.004a.84.84 0 0 1-.273-.613v-1.402c0-.48.418-.848.887-.848m4.777.875h-4.79v1.348c.013.004 4.79.004 4.802 0v-1.348zM4.266 2.699h4.777c.477 0 .887.371.887.852v1.398c0 .477-.41.848-.887.848H4.266c-.477 0-.887-.371-.887-.848V3.551c0-.48.41-.852.887-.852m4.777.875h-4.79v1.348c.013.004 4.79.004 4.802 0V3.574zm-4.777 3.39h4.777c.477 0 .887.372.887.852v1.399c0 .476-.41.851-.887.851H4.266c-.477 0-.887-.37-.887-.851V7.816c0-.48.41-.851.887-.851m4.777.876-4.79.004v1.343c.013.004 4.79.004 4.802 0V7.845c0-.004-.008-.004-.012-.004m18.781 12.644v-.3H2.176v.3c0 .739.605 1.34 1.344 1.34h22.96c.739 0 1.344-.601 1.344-1.34M26.48.894H3.52c-.739 0-1.344.606-1.344 1.344v17.07h25.648V2.239c0-.738-.605-1.343-1.344-1.343m0 0"/></g></svg>