<svg xmlns="http://www.w3.org/2000/svg" width="40" height="40" version="1.0" viewBox="0 0 30 30"><defs><clipPath id="a"><path d="M.484 3.902h29.032V21H.484Zm0 0"/></clipPath><clipPath id="b"><path d="M10 15h10v9.95H10Zm0 0"/></clipPath></defs><g clip-path="url(#a)"><path fill="#061c3d" fill-rule="evenodd" d="M24.531 20.578h-4.988a.39.39 0 0 1-.387-.383l-.004-.535-1.117.012a.39.39 0 0 1-.375-.277q-.088-.3-.242-.57a.385.385 0 0 1 .062-.462l.782-.797-.703-.687-.782.797a.385.385 0 0 1-.46.07 2.7 2.7 0 0 0-.575-.23.39.39 0 0 1-.281-.371l-.012-1.114-.98.008.008 1.117a.39.39 0 0 1-.274.375q-.3.089-.57.242a.385.385 0 0 1-.461-.062l-.797-.777-.687.699.796.781a.385.385 0 0 1 .07.461c-.097.18-.175.375-.234.574a.38.38 0 0 1-.367.281l-1.113.012.004.387c0 .02.004.043.004.062 0 .215-.18.383-.391.387H7.379a.39.39 0 0 1-.387-.387v-3.117c0-.215.176-.387.387-.387h.953l-2.05-2.12-2.052 2.12h.95c.215 0 .386.172.386.387v3.11a.387.387 0 0 1-.41.386 4.99 4.99 0 0 1-4.668-4.972 4.995 4.995 0 0 1 4.992-4.989 4.9 4.9 0 0 1 1.727.313 4.994 4.994 0 0 1 4.875-3.883c.68 0 1.36.145 1.988.422a5.62 5.62 0 0 1 5.203-3.559c1.786 0 3.422.825 4.485 2.262a5.54 5.54 0 0 1 .98 4.453 4.99 4.99 0 0 1 4.778 4.98 4.99 4.99 0 0 1-4.985 4.981m-4.605-.773h4.605a4.21 4.21 0 0 0 4.207-4.207 4.21 4.21 0 0 0-4.476-4.203.4.4 0 0 1-.328-.145.39.39 0 0 1-.067-.355 4.77 4.77 0 0 0-.734-4.274 4.75 4.75 0 0 0-3.86-1.95 4.84 4.84 0 0 0-4.613 3.442.37.37 0 0 1-.223.246.37.37 0 0 1-.332-.02 4.16 4.16 0 0 0-2.027-.527 4.22 4.22 0 0 0-4.191 3.708.386.386 0 0 1-.555.3 4.16 4.16 0 0 0-1.852-.437 4.224 4.224 0 0 0-4.222 4.215 4.215 4.215 0 0 0 3.535 4.152v-2.29H3.32a.39.39 0 0 1-.281-.656l2.965-3.062a.394.394 0 0 1 .555 0l2.96 3.063c.11.113.137.277.079.422a.39.39 0 0 1-.356.234H7.766v2.344h2.3l-.004-.442a.385.385 0 0 1 .383-.39l1.223-.012a4 4 0 0 1 .078-.191l-.875-.856a.4.4 0 0 1-.117-.273c0-.102.039-.2.113-.274l1.227-1.254a.39.39 0 0 1 .547-.004l.875.856q.094-.042.187-.078l-.012-1.227a.39.39 0 0 1 .383-.39l1.754-.016a.388.388 0 0 1 .39.383l.012 1.222c.063.024.13.051.192.078l.855-.875a.384.384 0 0 1 .547-.003l1.254 1.226a.4.4 0 0 1 .117.274c0 .101-.039.199-.113.273l-.855.875q.041.094.078.188l1.226-.012c.102 0 .2.039.274.11a.4.4 0 0 1 .117.273Zm0 0"/></g><path fill="#061c3d" fill-rule="evenodd" d="M24.531 19.16a.388.388 0 0 1 0-.773 2.792 2.792 0 0 0 0-5.582.385.385 0 0 1-.386-.387c0-.215.171-.387.386-.387a3.567 3.567 0 0 1 3.563 3.567 3.566 3.566 0 0 1-3.563 3.562m-15.62-7.133h-.048a.386.386 0 0 1-.336-.43 3.563 3.563 0 0 1 3.54-3.136.388.388 0 0 1 0 .773 2.79 2.79 0 0 0-2.774 2.454.385.385 0 0 1-.383.34m0 0"/><g clip-path="url(#b)"><path fill="#061c3d" fill-rule="evenodd" d="M14.168 25.129c-.102 0-.2-.04-.27-.11a.38.38 0 0 1-.117-.273l-.011-1.223a3 3 0 0 1-.192-.074l-.855.871a.4.4 0 0 1-.274.117.4.4 0 0 1-.273-.109l-1.254-1.23a.384.384 0 0 1-.004-.547l.855-.875-.082-.188-1.222.012a.393.393 0 0 1-.39-.383l-.017-1.754a.38.38 0 0 1 .11-.273.4.4 0 0 1 .273-.117l1.223-.012q.034-.096.074-.191l-.87-.856a.38.38 0 0 1-.118-.273c0-.102.039-.2.11-.274l1.23-1.254a.39.39 0 0 1 .547-.004l.875.856q.094-.042.187-.078l-.012-1.227a.38.38 0 0 1 .383-.387l1.754-.02a.388.388 0 0 1 .39.383l.012 1.223c.063.024.13.051.192.078l.855-.875a.384.384 0 0 1 .547-.003l1.254 1.226c.07.074.113.172.113.274a.36.36 0 0 1-.109.273l-.855.875q.041.094.078.188l1.226-.012h.004a.39.39 0 0 1 .387.383l.015 1.754a.384.384 0 0 1-.382.39l-1.223.012q-.035.098-.078.191l.875.856a.384.384 0 0 1 .004.547l-1.227 1.254a.38.38 0 0 1-.547.003l-.875-.855-.187.082.012 1.223a.385.385 0 0 1-.383.39l-1.754.016zm-.672-2.54q.095 0 .184.048.275.152.574.234a.38.38 0 0 1 .285.367l.012 1.117.98-.011-.011-1.114c0-.175.113-.328.277-.375.195-.058.39-.14.57-.242a.384.384 0 0 1 .461.059l.797.781.688-.703-.797-.781a.38.38 0 0 1-.07-.457q.147-.276.23-.575a.39.39 0 0 1 .37-.285l1.114-.011-.008-.98-1.117.01a.39.39 0 0 1-.375-.276q-.088-.3-.242-.57a.385.385 0 0 1 .062-.462l.782-.797-.703-.687-.782.797a.385.385 0 0 1-.46.07 2.7 2.7 0 0 0-.575-.23.39.39 0 0 1-.281-.371l-.012-1.114-.98.008.008 1.117a.39.39 0 0 1-.274.375q-.3.089-.57.242a.39.39 0 0 1-.461-.058l-.797-.781-.687.699.796.781a.385.385 0 0 1 .07.461c-.097.18-.175.375-.234.574a.38.38 0 0 1-.367.281l-1.113.012.008.98 1.117-.007h.004c.168 0 .32.11.367.273.062.2.14.39.246.57a.39.39 0 0 1-.062.462l-.782.796.703.688.782-.797a.38.38 0 0 1 .273-.113Zm0 0"/></g><path fill="#061c3d" fill-rule="evenodd" d="M14.988 22.426a2.25 2.25 0 0 1-2.246-2.215 2.247 2.247 0 0 1 2.223-2.262c1.25 0 2.258.996 2.27 2.215a2.24 2.24 0 0 1-2.223 2.258zm0-3.703a1.475 1.475 0 0 0-1.472 1.48c.007.797.668 1.45 1.472 1.45v.386l.016-.387a1.47 1.47 0 0 0 1.457-1.48 1.474 1.474 0 0 0-1.473-1.45M20.223 15.156h-2.008a.384.384 0 0 1-.383-.386v-4.567H16.52a.39.39 0 0 1-.356-.234.38.38 0 0 1 .078-.422l2.7-2.793a.394.394 0 0 1 .554 0L22.2 9.547a.4.4 0 0 1 .078.422.39.39 0 0 1-.355.234h-1.313v4.567a.385.385 0 0 1-.386.386m-1.621-.773h1.234V9.816c0-.21.172-.386.387-.386h.789l-1.793-1.852-1.79 1.852h.79a.39.39 0 0 1 .386.386v4.567ZM7.379 22.89h-2.2a.385.385 0 0 1-.386-.386V17.46H3.32a.39.39 0 0 1-.281-.656l2.965-3.063a.394.394 0 0 1 .555 0l2.96 3.063c.11.113.137.277.079.422a.39.39 0 0 1-.356.234H7.766v5.043a.385.385 0 0 1-.387.387m-1.813-.773h1.426v-5.043c0-.215.176-.387.387-.387h.953l-2.05-2.12-2.052 2.12h.95c.215 0 .386.172.386.387Zm0 0"/></svg>