<svg xmlns="http://www.w3.org/2000/svg" width="40" height="40" version="1.0" viewBox="0 0 30 30"><defs><clipPath id="a"><path d="M14 19h2v10.031h-2Zm0 0"/></clipPath><clipPath id="b"><path d="M.848 14H8v11H.848Zm0 0"/></clipPath><clipPath id="c"><path d="M22 14h7.152v11H22Zm0 0"/></clipPath></defs><path fill="#061c3d" fill-rule="evenodd" d="M9.46 19.059h11.08v1.418H9.46Zm0 0"/><g clip-path="url(#a)"><path fill="#061c3d" fill-rule="evenodd" d="M14.027 19.637h1.946v9.394h-1.946Zm0 0"/></g><path fill="#061c3d" d="M7.098 21.21a1.93 1.93 0 0 1-2.203 1.731 1.934 1.934 0 0 1-1.735-2.203l.684-5.722a1.934 1.934 0 0 1 2.203-1.735 1.935 1.935 0 0 1 1.734 2.207Zm0 0"/><path fill="#061c3d" fill-rule="evenodd" d="M6.418 8.191c1.152 0 2.098.946 2.098 2.098a2.106 2.106 0 0 1-2.098 2.102 2.107 2.107 0 0 1-2.102-2.102c0-1.152.946-2.098 2.102-2.098m0 0"/><path fill="#061c3d" d="M5.945 15.121c-.316-.367-.265-.894.051-1.156.367-.317.895-.262 1.156.05l2.098 2.419h1.996c.473 0 .84.367.84.84 0 .472-.367.84-.84.84H8.883a.97.97 0 0 1-.63-.262l-2.362-2.68ZM4.945 22.941c-.523-.105-.996-1.207-.945-1.73.105-.527.633-.895 1.156-.79 0 0 5.461.895 7.824 6.93.207.528-.054 1.102-.578 1.262-.527.207-1.105-.054-1.261-.578C9.25 23.047 5 22.941 5 22.941Zm0 0"/><g clip-path="url(#b)"><path fill="#061c3d" d="M6.941 24.043c.157.055.262.266.211.422a.36.36 0 0 1-.422.21s-.523-.16-1.207-.316c-.472-.105-.996-.105-1.468-.105-1.262 0-2.313 0-2.625-1.469a17 17 0 0 1-.16-.945c0-.317-.051-.684-.051-1.05V19.53c0-1.523 0-2.73-.317-4.515-.05-.16.106-.368.266-.368.156-.054.367.106.367.262.313 1.836.313 3.043.313 4.621v1.258c0 .316 0 .684.054 1 0 .313.051.574.106.84.207.945 1.047.945 1.992.945.527 0 1.05 0 1.578.102.734.16 1.258.316 1.258.316Zm0 0"/></g><path fill="#061c3d" d="M3.688 23.941h.84v4.829h-.84Zm0 0"/><path fill="#061c3d" d="M5.629 28.14c.21 0 .418.212.418.419 0 .21-.207.421-.418.421H2.582c-.207 0-.418-.21-.418-.421 0-.207.211-.418.418-.418ZM22.902 21.21a1.93 1.93 0 0 0 2.203 1.731 1.934 1.934 0 0 0 1.735-2.203l-.684-5.722a1.934 1.934 0 0 0-2.203-1.735 1.935 1.935 0 0 0-1.734 2.207Zm0 0"/><path fill="#061c3d" fill-rule="evenodd" d="M23.582 8.191a2.106 2.106 0 0 0-2.098 2.098c0 1.156.946 2.102 2.098 2.102a2.107 2.107 0 0 0 2.102-2.102 2.106 2.106 0 0 0-2.102-2.098m0 0"/><path fill="#061c3d" d="M24.055 15.121c.316-.367.265-.894-.051-1.156-.367-.317-.895-.262-1.156.05l-2.098 2.419h-1.996a.83.83 0 0 0-.84.84c0 .472.367.84.84.84h2.363c.211 0 .473-.106.63-.262l2.362-2.68ZM25.105 22.941c.528-.105 1-1.207.946-1.73-.106-.527-.63-.895-1.156-.79 0 0-5.457.895-7.82 6.93-.212.528.05 1.102.577 1.262.524.207 1.102-.054 1.258-.578 1.89-4.988 6.145-5.094 6.145-5.094Zm0 0"/><g clip-path="url(#c)"><path fill="#061c3d" d="M23.059 24.043c-.157.055-.262.266-.211.422a.36.36 0 0 0 .422.21s.523-.16 1.207-.316c.472-.105.996-.105 1.468-.105 1.262 0 2.313 0 2.625-1.469q.08-.394.16-.945c0-.317.051-.684.051-1.05V19.53c0-1.523 0-2.73.317-4.515.05-.16-.106-.368-.266-.368-.156-.054-.367.106-.367.262-.313 1.836-.313 3.043-.313 4.621v1.258c0 .316 0 .684-.054 1 0 .313-.051.574-.106.84-.207.945-1.047.945-1.992.945-.527 0-1.05 0-1.578.102-.735.16-1.258.316-1.258.316Zm0 0"/></g><path fill="#061c3d" d="M25.473 23.941v4.829h.84V23.94Zm0 0"/><path fill="#061c3d" d="M24.371 28.14c-.21 0-.418.212-.418.419 0 .21.207.421.418.421h3.047c.207 0 .418-.21.418-.421 0-.207-.211-.418-.418-.418Zm0 0"/><path fill="#061c3d" fill-rule="evenodd" d="M11.352 9.605c.156.055.316.055.418.055h4.62l2.47 2.469V9.66a2.33 2.33 0 0 0 2.308-2.308V4.254c0-.945-.578-1.785-1.363-2.152v.996c.312.261.523.683.523 1.156v3.098c0 .84-.683 1.52-1.523 1.52h-.84v1.312L16.652 8.87h-4.617l-.789.79Zm0 0"/><path fill="#061c3d" fill-rule="evenodd" d="M9.777 0h7.086a2.33 2.33 0 0 1 2.309 2.309v3.097a2.33 2.33 0 0 1-2.309 2.313h-4.62l-2.466 2.465V7.719a2.333 2.333 0 0 1-2.312-2.313V2.31C7.465 1.05 8.515 0 9.777 0m.786 2.992c.472 0 .894.422.894.895 0 .472-.422.89-.895.89a.916.916 0 0 1-.89-.89c0-.473.418-.895.89-.895m2.785 0c.472 0 .89.422.89.895 0 .472-.418.89-.89.89s-.895-.418-.895-.89.422-.895.895-.895m2.78 0c.474 0 .892.422.892.895 0 .472-.418.89-.891.89s-.895-.418-.895-.89.422-.895.895-.895m0 0"/></svg>