<svg xmlns="http://www.w3.org/2000/svg" width="40" height="40" version="1.0" viewBox="0 0 30 30"><defs><clipPath id="a"><path d="M7 3.195h22.516v22.5H7Zm0 0"/></clipPath><clipPath id="b"><path d="M.484 12H12v12H.484Zm0 0"/></clipPath></defs><g clip-path="url(#a)"><path fill="#061c3d" d="M28.957 23.469 24.539 19.3a9.86 9.86 0 0 0 2.172-6.18c0-5.473-4.453-9.926-9.926-9.926-4.77 0-8.754 3.371-9.707 7.856a3.16 3.16 0 0 1 1.695.953 8.095 8.095 0 0 1 8.012-6.973c4.465 0 8.094 3.63 8.094 8.094 0 4.453-3.629 8.086-8.094 8.086a8 8 0 0 1-3.226-.672c.285.645.34 1.348.171 2.02.965.32 1.993.484 3.055.484 2.34 0 4.48-.816 6.18-2.172l4.176 4.418c.02.02.039.035.047.055a1.28 1.28 0 0 0 1.816-.055 1.29 1.29 0 0 0-.047-1.82m0 0"/></g><g clip-path="url(#b)"><path fill="#061c3d" d="M7.629 13.531a1.388 1.388 0 0 0-2.434 0l-4.183 7.61a1.386 1.386 0 0 0 1.215 2.054h8.375a1.386 1.386 0 0 0 1.214-2.054ZM5.66 15.754a.754.754 0 0 1 1.508 0v2.695a.754.754 0 0 1-1.508 0Zm.754 5.898a.855.855 0 1 1 0-1.711.855.855 0 0 1 0 1.711m0 0"/></g><path fill="#061c3d" d="M14.64 18.531a3.7 3.7 0 0 0 2.145.68c.77 0 1.512-.234 2.145-.68 1.222-.863 1.965-1.906 2.156-3.039.66-.144.984-.617.984-1.441 0-.625-.148-1.063-.449-1.332a1.1 1.1 0 0 0-.617-.262v-.43h1.039a.624.624 0 0 0 .621-.625.62.62 0 0 0-.621-.625h-.734a.53.53 0 0 1-.497-.343l-.753-2.04a1.305 1.305 0 0 0-1.223-.851h-4.102c-.543 0-1.03.34-1.222.852l-.754 2.035a.53.53 0 0 1-.496.343h-.735a.627.627 0 0 0-.625.625c0 .344.282.625.625.625h1.047a8 8 0 0 0 0 .434c-.297.023-.5.145-.62.258-.302.273-.45.707-.45 1.336 0 .816.32 1.293.98 1.437.188 1.133.93 2.18 2.157 3.043m-.902-6.508h6.086c.078.29.117.57.14.82-.96-.343-2.089-.093-2.433.005-.351.101-.597.14-.597.14a1 1 0 0 1-.309 0s-.246-.039-.598-.14c-.343-.098-1.468-.348-2.43-.004.028-.25.067-.531.141-.82m-.511 3.176a.49.49 0 0 0-.446-.449c-.289-.031-.5-.05-.5-.7 0-.507.121-.69.188-.757.023-.02.082-.066.226-.066.024.242.047.46.082.59.059.238.63.242.754.058.149.504.406 1.164 1.32 1.164 1.278 0 1.54-.824 1.54-1.187q0-.07.011-.13a.393.393 0 0 1 .766 0q.012.06.012.13c0 .363.261 1.187 1.539 1.187.91 0 1.172-.66 1.32-1.164.125.184.695.184.754-.059a5 5 0 0 0 .082-.59c.145 0 .203.047.223.067.074.062.191.246.191.758 0 .644-.21.668-.5.695a.49.49 0 0 0-.45.445c-.007.082-.042.164-.062.246a21.5 21.5 0 0 1-6.988.004c-.016-.082-.055-.16-.062-.242m0 0"/></svg>