<svg xmlns="http://www.w3.org/2000/svg" width="40" height="40" version="1.0" viewBox="0 0 30 30"><defs><clipPath id="a"><path d="M.484 12H8v11.242H.484Zm0 0"/></clipPath><clipPath id="b"><path d="M3 12h9v11.242H3Zm0 0"/></clipPath><clipPath id="c"><path d="M22 12h7.516v11.242H22Zm0 0"/></clipPath><clipPath id="d"><path d="M18 12h9v11.242h-9Zm0 0"/></clipPath><clipPath id="e"><path d="M10 15h10v8.242H10Zm0 0"/></clipPath><clipPath id="f"><path d="M9 5.824h12V12H9Zm0 0"/></clipPath></defs><path fill="#061c3d" d="M6.297 12.09a1.764 1.764 0 1 0 .383-3.508 1.764 1.764 0 0 0-.383 3.508m0 0"/><g clip-path="url(#a)"><path fill="#061c3d" d="M6.379 19.137h-2.54a1.23 1.23 0 0 1-1.21-1.016l-.867-4.91a.613.613 0 1 0-1.207.215l.87 4.91a2.45 2.45 0 0 0 2.415 2.027h2.11v2.223a.611.611 0 1 0 1.222 0V19.93a.794.794 0 0 0-.793-.793m0 0"/></g><g clip-path="url(#b)"><path fill="#061c3d" d="M8.383 16.566H6.777l.418-1.906 1.13.543a.8.8 0 0 0 .355.082h.035l1.707-.078a.814.814 0 1 0-.07-1.629l-1.504.067s-1.707-.891-1.918-.938c-.239-.059-1.207-.27-1.207-.27a1.29 1.29 0 0 0-.985.18 1.28 1.28 0 0 0-.566.828l-.715 3.422c-.078.375.016.762.262 1.059.242.3.601.469.984.469h2.832a.33.33 0 0 1 .328.332v3.523c0 .508.41.914.914.914a.91.91 0 0 0 .914-.914v-4.371c0-.723-.586-1.313-1.308-1.313m0 0"/></g><path fill="#061c3d" d="M23.7 12.09a1.764 1.764 0 1 0-.384-3.508 1.764 1.764 0 0 0 .383 3.508m0 0"/><g clip-path="url(#c)"><path fill="#061c3d" d="M28.945 12.715a.61.61 0 0 0-.707.496l-.87 4.91a1.225 1.225 0 0 1-1.212 1.016h-2.539a.794.794 0 0 0-.793.793v2.656a.612.612 0 1 0 1.223 0v-2.223h2.11a2.455 2.455 0 0 0 2.417-2.027l.867-4.91a.615.615 0 0 0-.496-.711m0 0"/></g><g clip-path="url(#d)"><path fill="#061c3d" d="M26.281 17.926c.242-.297.336-.684.258-1.059l-.71-3.422a1.3 1.3 0 0 0-.567-.828 1.29 1.29 0 0 0-.985-.18s-.972.211-1.21.27c-.212.047-1.919.938-1.919.938l-1.503-.067a.815.815 0 0 0-.07 1.629l1.706.078h.035a.8.8 0 0 0 .356-.082l1.129-.543.418 1.906h-1.602c-.726 0-1.312.59-1.312 1.313v4.371c0 .508.41.914.914.914a.913.913 0 0 0 .914-.914v-3.523c0-.184.148-.332.332-.332h2.828c.387 0 .746-.172.988-.47m0 0"/></g><g clip-path="url(#e)"><path fill="#061c3d" d="M19.16 15.898h-8.324a.61.61 0 0 0 0 1.223h3.55v5.465a.612.612 0 1 0 1.223 0V17.12h3.551a.614.614 0 0 0 .613-.613.614.614 0 0 0-.613-.61m0 0"/></g><path fill="#061c3d" d="M17.223 9.46a.33.33 0 0 0 .23.099.33.33 0 0 0 .23-.098L19 8.145a.323.323 0 0 0 0-.461.32.32 0 0 0-.457 0l-1.09 1.09-.531-.532a.325.325 0 0 0-.457 0 .323.323 0 0 0 0 .461Zm0 0"/><g clip-path="url(#f)"><path fill="#061c3d" d="M10.156 10.508c.016.164-.082.336-.199.523-.102.164-.242.39-.078.606a.4.4 0 0 0 .27.14h.023c.289 0 1.219-.265 1.68-.593.187.023.37.039.554.039 1.047 0 1.98-.395 2.594-1.012.61.617 1.543 1.012 2.59 1.012.183 0 .37-.016.558-.04q.652.5 1.25.688.101.03.196.031.053 0 .105-.011a.652.652 0 0 0 .445-1.004 2 2 0 0 1-.214-.446c.633-.504.988-1.191.988-1.918 0-1.488-1.492-2.699-3.328-2.699-1.047 0-1.98.395-2.59 1.012-.613-.617-1.547-1.012-2.594-1.012-1.836 0-3.328 1.211-3.328 2.7 0 .757.39 1.476 1.078 1.984m5.242-3.156c.485-.532 1.286-.875 2.192-.875 1.476 0 2.68.918 2.68 2.046 0 .579-.329 1.133-.895 1.524a.32.32 0 0 0-.137.34q.111.463.356.863-.535-.165-1.153-.664a.32.32 0 0 0-.203-.07q-.03-.001-.054.004-.3.051-.594.05c-.906 0-1.707-.347-2.192-.875.215-.355.336-.75.336-1.172s-.12-.816-.336-1.171m-2.945 2.93a.364.364 0 0 1-.36-.36c0-.2.165-.36.36-.36.2 0 .36.16.36.36a.36.36 0 0 1-.36.36m-.035-3.45c.434 0 .8.211.98.566a.97.97 0 0 1-.074 1.02c-.14.191-.285.293-.386.367-.122.082-.172.117-.184.309a.166.166 0 0 1-.164.152h-.258a.17.17 0 0 1-.168-.18c.035-.453.211-.613.434-.765a1 1 0 0 0 .25-.23.38.38 0 0 0 .023-.403c-.047-.094-.164-.246-.453-.246-.375 0-.492.238-.523.422a.17.17 0 0 1-.165.14h-.257a.17.17 0 0 1-.168-.191c.07-.492.425-.961 1.113-.961m0 0"/></g></svg>