<svg xmlns="http://www.w3.org/2000/svg" width="40" height="40" version="1.0" viewBox="0 0 30 30"><defs><clipPath id="a"><path d="M.484 0h29.032v29.031H.484Zm0 0"/></clipPath></defs><g clip-path="url(#a)"><path fill="#061c3d" d="M6.297 9.977c0 .23-.184.418-.414.418H3.957a.418.418 0 0 1 0-.836h1.926c.23 0 .414.187.414.418M8.113 6.14H3.957a.415.415 0 1 0 0 .832h4.156a.415.415 0 1 0 0-.832M3.957 3.555h11.52a.418.418 0 0 0 0-.836H3.957a.418.418 0 0 0 0 .836m25.77 10.433v4.278c0 .714-.582 1.3-1.301 1.3h-.746v2.22c0 1.378-1.121 2.5-2.5 2.5h-.578l.828 4.245a.43.43 0 0 1-.188.434.43.43 0 0 1-.472-.02l-6.29-4.66H9.527a2.5 2.5 0 0 1-2.5-2.5v-2.219h-.746a1.3 1.3 0 0 1-1.297-1.3v-2.801L1.711 17.71a.437.437 0 0 1-.484-.008.43.43 0 0 1-.153-.46l1.14-3.747a2.27 2.27 0 0 1-1.726-2.203V2.266A2.27 2.27 0 0 1 2.758 0h13.918a2.27 2.27 0 0 1 2.27 2.266v6.87h3.593v-.675a1.951 1.951 0 0 1 .418-3.856c1.074 0 1.953.875 1.953 1.954 0 .93-.66 1.71-1.535 1.902v.676h1.805c1.379 0 2.5 1.12 2.5 2.496v1.055h.746a1.3 1.3 0 0 1 1.3 1.3m-6.77-6.316a1.116 1.116 0 1 0 0-2.23 1.116 1.116 0 0 0 0 2.23M7.027 13.52h-.742a.47.47 0 0 0-.469.468v4.278c0 .257.211.464.47.464h.741Zm2.5-4.383h1.805V8.46a1.951 1.951 0 1 1 .836 0v.676h5.945V2.266c0-.79-.644-1.434-1.437-1.434H2.758c-.793 0-1.434.645-1.434 1.434v9.027c0 .793.64 1.437 1.434 1.437.129 0 .254.063.332.168a.4.4 0 0 1 .066.368l-.937 3.082 2.765-1.895v-.465a1.3 1.3 0 0 1 1.301-1.3h.742v-1.055a2.5 2.5 0 0 1 2.5-2.496m3.34-2.578a1.117 1.117 0 1 0-2.234 0 1.116 1.116 0 0 0 2.234 0m13.98 5.074c0-.918-.75-1.664-1.667-1.664H9.527c-.918 0-1.664.746-1.664 1.664v10.152c0 .918.746 1.664 1.664 1.664h9.09c.09 0 .176.031.246.082l5.54 4.106-.72-3.688a.42.42 0 0 1 .41-.5h1.087c.918 0 1.668-.746 1.668-1.664Zm2.048 2.355a.47.47 0 0 0-.47-.468h-.745v5.21h.746a.467.467 0 0 0 .469-.464Zm-6.348 1.477c0 .879-.715 1.594-1.594 1.594a1.591 1.591 0 1 1 1.594-1.594m-.836 0a.76.76 0 0 0-.758-.758.758.758 0 0 0 0 1.516c.418 0 .758-.34.758-.758m4.219-1.48v2.96c0 .758-.617 1.371-1.371 1.371H10.152a1.37 1.37 0 0 1-1.37-1.37v-2.962c0-.754.613-1.37 1.37-1.37H24.56c.753 0 1.37.616 1.37 1.37m-.836 0a.533.533 0 0 0-.535-.536H10.152a.537.537 0 0 0-.539.535v2.961c0 .297.242.54.54.54h14.406a.537.537 0 0 0 .535-.54Zm-4.54 5.667c0 1.528-1.433 2.77-3.199 2.77s-3.203-1.242-3.203-2.77c0-.23.188-.414.418-.414h5.567c.23 0 .418.184.418.414m-.89.418h-4.621c.234.867 1.184 1.516 2.312 1.516 1.13 0 2.075-.648 2.31-1.516m-4.316-4.605a1.592 1.592 0 1 1-3.183.003 1.592 1.592 0 0 1 3.183-.003m-.836 0a.759.759 0 1 0-1.517.001.759.759 0 0 0 1.517-.001m0 0"/></g></svg>