<svg xmlns="http://www.w3.org/2000/svg" width="40" height="40" version="1.0" viewBox="0 0 30 30"><defs><clipPath id="a"><path d="M.484 0h29.032v28.305H.484Zm0 0"/></clipPath></defs><g clip-path="url(#a)"><path fill="#061c3d" d="M29.137 14.426q.002-3.434-1.567-6.485a4.3 4.3 0 0 0 .63-.644q.28-.351.484-.762.198-.404.316-.844.113-.434.133-.89.021-.453-.051-.899a4.5 4.5 0 0 0-.648-1.672 4.6 4.6 0 0 0-.567-.699 4.6 4.6 0 0 0-.699-.566 4.5 4.5 0 0 0-1.672-.649 4.3 4.3 0 0 0-1.789.086q-.44.112-.844.317a4.27 4.27 0 0 0-1.406 1.11 14 14 0 0 0-2.898-1.11.34.34 0 0 0-.274.035.34.34 0 0 0-.164.219.34.34 0 0 0 .04.273q.07.129.218.164 1.387.362 2.664 1.012a4 4 0 0 0-.367.816 4.3 4.3 0 0 0-.203 1.778q.041.45.175.879a4.3 4.3 0 0 0 .872 1.562 4.4 4.4 0 0 0 1.425 1.074 1.2 1.2 0 0 0-.195.242l-1.395 2.266-3.039 1.598a1.6 1.6 0 0 0-1.125-.446h-4.437q-.652 0-1.121.446L8.59 11.039 7.2 8.773a1 1 0 0 0-.2-.242 4.399 4.399 0 0 0 1.426-1.074q.298-.342.515-.734a4.3 4.3 0 0 0 .532-1.707c.03-.301.027-.598-.008-.899a4.26 4.26 0 0 0-.563-1.695c.852-.434 1.743-.77 2.664-1.012a.33.33 0 0 0 .22-.164.36.36 0 0 0 .034-.27.33.33 0 0 0-.164-.218.35.35 0 0 0-.27-.04 14 14 0 0 0-2.898 1.11A4.38 4.38 0 0 0 7.086.715a4.3 4.3 0 0 0-.844-.313 4.3 4.3 0 0 0-3.46.563 4.5 4.5 0 0 0-.704.566 4.6 4.6 0 0 0-.566.7 4.5 4.5 0 0 0-.649 1.671 4.3 4.3 0 0 0 .086 1.79 4.3 4.3 0 0 0 1.426 2.25 14.2 14.2 0 0 0-1.387 8.761.4.4 0 0 0-.058.125 4.3 4.3 0 0 0 0 2.047q.066.275.347.273h.743l-.524.528q-.2.198-.055.437a4.4 4.4 0 0 0 1.196 1.282 14.2 14.2 0 0 0 2.84 3.535 14.1 14.1 0 0 0 3.8 2.468q.137.062.274.008a.33.33 0 0 0 .199-.191.35.35 0 0 0 .004-.274.34.34 0 0 0-.188-.195 13.56 13.56 0 0 1-6.109-5.367l.395-.395v.743q0 .282.277.347c.594.145 1.191.16 1.789.055q-.024.147-.012.293.011.149.063.285c.031.094.078.184.133.262.058.082.12.156.199.218q.111.099.246.16.133.066.277.094c.098.016.196.024.297.016q.146-.01.285-.062l2.809-.977a1.13 1.13 0 0 0 .496-.344l.578-.687q.207.417.602.664.396.246.863.246h1.863v.312l-2.168.211a.83.83 0 0 0-.535.27.8.8 0 0 0-.21.555v2.066q0 .298.21.508a.7.7 0 0 0 .504.207h.64v1.449H9.45a.34.34 0 0 0-.25.105.35.35 0 0 0-.105.254q0 .148.105.254.105.104.25.102h11.047a.345.345 0 0 0 .356-.356.35.35 0 0 0-.102-.254.35.35 0 0 0-.254-.105h-3.61c0-.02.005-.043.005-.066v-1.383h.636q.299.002.508-.207a.7.7 0 0 0 .211-.508v-2.066a.8.8 0 0 0-.215-.555.8.8 0 0 0-.535-.27l-2.164-.21v-.313h1.86c.312 0 .597-.082.863-.246.261-.164.465-.387.601-.664l.578.687q.204.24.496.344l2.81.977q.138.051.288.062c.098.008.195 0 .293-.016a1.2 1.2 0 0 0 .527-.253q.113-.095.196-.22a1 1 0 0 0 .133-.261q.051-.14.062-.285.012-.152-.012-.297A4.2 4.2 0 0 0 26.086 22a13.3 13.3 0 0 1-5.766 4.77.34.34 0 0 0-.191.199.355.355 0 0 0 .203.465c.09.035.184.035.273-.008a14.2 14.2 0 0 0 3.84-2.473 14.1 14.1 0 0 0 2.864-3.562q.56-.395.968-.942.405-.546.63-1.191a4.4 4.4 0 0 0 .046-2.664.4.4 0 0 0 .04-.121q.145-1.021.144-2.047M13.84 27.875q-.069.002-.067-.066v-3.48q-.002-.064.067-.063h2.27q.063 0 .062.062v3.48q0 .069-.063.067Zm3.687-4.23v2.066h-.636v-1.383a.75.75 0 0 0-.23-.55.75.75 0 0 0-.552-.231h-2.27a.76.76 0 0 0-.554.23.75.75 0 0 0-.226.551v1.383h-.641v-2.066q0-.102.102-.11l2.453-.242 2.453.242c.07.004.101.043.101.11m3.641-19.043q.001-.72.277-1.387a3.61 3.61 0 0 1 1.96-1.96 3.55 3.55 0 0 1 1.392-.278q.719-.002 1.387.277a3.642 3.642 0 0 1 1.965 1.96q.274.668.273 1.388a3.6 3.6 0 0 1-1.063 2.566q-.509.51-1.175.785a3.6 3.6 0 0 1-2.774 0 3.61 3.61 0 0 1-1.965-1.96 3.6 3.6 0 0 1-.277-1.391m.61 7.027a.34.34 0 0 0 .136-.129l1.445-2.355a.4.4 0 0 1 .258-.188.4.4 0 0 1 .317.05q.146.089.187.259a.4.4 0 0 1-.05.316l-1.555 2.535a.4.4 0 0 1-.16.153l-3.528 1.851v-.297q-.001-.303-.113-.59ZM8.03 11.5a.36.36 0 0 0 .137.129l3.062 1.605q-.11.287-.109.59v.297L7.594 12.27a.4.4 0 0 1-.164-.153L5.875 9.582a.4.4 0 0 1-.047-.316.417.417 0 0 1 .762-.121ZM1.523 4.602q.001-.72.278-1.387a3.6 3.6 0 0 1 .785-1.176q.509-.51 1.176-.785a3.5 3.5 0 0 1 1.39-.277q.72-.002 1.387.277a3.6 3.6 0 0 1 1.176.785q.51.509.785 1.176c.188.445.277.906.277 1.387q.002.724-.277 1.39a3.6 3.6 0 0 1-.785 1.176q-.508.51-1.176.785a3.6 3.6 0 0 1-2.777 0A3.6 3.6 0 0 1 1.8 5.993a3.6 3.6 0 0 1-.278-1.391M2.97 8.355c.672.395 1.402.59 2.18.59h.03q-.208.527.087 1.012l1.554 2.535q.164.264.438.41l3.863 2.028v3.133l-1.945 2.316-.676.238q.194-.24.36-.504.145-.239-.055-.437l-.524-.528h.742q.283 0 .348-.273a4.3 4.3 0 0 0 0-2.047q-.065-.272-.348-.273h-.742l.524-.524q.2-.198.054-.437a4.3 4.3 0 0 0-1.449-1.45q-.24-.145-.437.055l-.524.524v-.743q-.001-.281-.277-.347a4.3 4.3 0 0 0-2.043 0q-.277.065-.277.347v.743l-.524-.524q-.198-.2-.437-.054c-.536.328-.977.75-1.332 1.27q-.036-.496-.036-.99-.002-3.204 1.446-6.07m-1.278 8.2a11 11 0 0 1-.054-.383l.383.383Zm4.04 3.937v.942a3.6 3.6 0 0 1-1.16 0v-.942a.33.33 0 0 0-.239-.336 2 2 0 0 1-.23-.093q-.23-.112-.407.07l-.664.664a3.6 3.6 0 0 1-.824-.824l.664-.664q.182-.177.07-.407a2 2 0 0 1-.093-.23.33.33 0 0 0-.336-.238H1.57a3.6 3.6 0 0 1 0-1.16h.942a.33.33 0 0 0 .336-.239q.04-.118.093-.23.112-.23-.07-.407l-.664-.664q.345-.479.824-.824l.664.664q.177.182.407.07.112-.053.23-.093c.156-.059.238-.168.238-.336v-.942a3.6 3.6 0 0 1 1.16 0v.942c0 .168.082.277.239.336q.118.04.23.094.23.11.406-.07l.665-.665q.479.345.824.824l-.664.664q-.182.177-.07.407.053.112.093.23a.33.33 0 0 0 .336.238h.941q.095.58 0 1.16h-.94a.33.33 0 0 0-.337.239 2 2 0 0 1-.094.23q-.11.23.07.407l.665.664q-.344.479-.824.824l-.665-.664q-.176-.182-.406-.07a2 2 0 0 1-.23.093.33.33 0 0 0-.239.336m.972.75-.043.016a1.2 1.2 0 0 0-.215.097v-.37Zm3.457.375a.4.4 0 0 1-.18.125l-2.808.977a.409.409 0 0 1-.531-.254.42.42 0 0 1 .015-.32.4.4 0 0 1 .242-.211l2.606-.91a.37.37 0 0 0 .156-.11l1.457-1.738v1.297Zm7.031-.039h-4.437a.9.9 0 0 1-.649-.265.9.9 0 0 1-.27-.653v-5.898a.4.4 0 0 0 0-.098v-.84q0-.38.27-.648.269-.27.649-.27h4.437q.383 0 .649.27.27.268.27.648v.84a.4.4 0 0 0 0 .098v5.898a.9.9 0 0 1-.27.652.9.9 0 0 1-.649.27Zm6.114.887a.42.42 0 0 1-.211.238.42.42 0 0 1-.32.016l-2.81-.977a.4.4 0 0 1-.179-.125l-.957-1.144v-1.297l1.457 1.738c.043.05.098.086.156.11l2.61.91a.415.415 0 0 1 .254.531m1.492-.985c-.485 0-.945-.093-1.39-.277a3.61 3.61 0 0 1-1.96-1.96 3.62 3.62 0 0 1 .783-3.954q.508-.509 1.176-.789a3.6 3.6 0 0 1 1.39-.273 3.6 3.6 0 0 1 2.563 1.062q.51.508.786 1.176.279.666.277 1.387a3.62 3.62 0 0 1-1.063 2.566q-.509.51-1.175.785a3.6 3.6 0 0 1-1.387.277m0-7.968a4.2 4.2 0 0 0-1.211.172 4.3 4.3 0 0 0-2.047 1.296 4.3 4.3 0 0 0-1.031 2.188 4.1 4.1 0 0 0-.02 1.223q.076.615.32 1.183.246.563.637 1.043l-.675-.238-1.942-2.317V14.93l3.86-2.028q.274-.146.437-.41l1.555-2.535q.297-.485.086-1.012h.03q1.173.001 2.18-.59a13.3 13.3 0 0 1 1.446 6.07q0 .494-.035.99a4.26 4.26 0 0 0-1.559-1.4 4.3 4.3 0 0 0-2.031-.503m0 0"/></g><path fill="#061c3d" d="M13.563 6.91q.239-.001.238.238 0 .148.105.254.104.104.254.102c.098 0 .18-.031.25-.102a.35.35 0 0 0 .106-.254.93.93 0 0 0-.278-.675.92.92 0 0 0-.675-.278.91.91 0 0 0-.676.278.91.91 0 0 0-.278.675.345.345 0 0 0 .355.355.35.35 0 0 0 .255-.1.35.35 0 0 0 .105-.255q-.001-.239.239-.238M15.43 7.148q0 .148.105.254c.07.07.152.102.254.102a.345.345 0 0 0 .356-.356c0-.16.082-.238.238-.238q.239-.001.238.238 0 .148.106.254.106.104.253.102a.35.35 0 0 0 .254-.102.35.35 0 0 0 .106-.254.92.92 0 0 0-.281-.675.91.91 0 0 0-.676-.278.9.9 0 0 0-.672.278.92.92 0 0 0-.281.675M16.133 9.07q-1.16.55-2.32 0a.33.33 0 0 0-.274-.011.35.35 0 0 0-.2.183.35.35 0 0 0-.015.274q.054.139.184.203a3.4 3.4 0 0 0 1.465.328q.767 0 1.464-.328a.35.35 0 0 0 .184-.203.37.37 0 0 0-.012-.274.35.35 0 0 0-.203-.183.33.33 0 0 0-.273.011m0 0"/><path fill="#061c3d" d="M12.91 2.262v1.746h-.332a1.45 1.45 0 0 0-1.457 1.457v4.789a1.44 1.44 0 0 0 .426 1.031 1.48 1.48 0 0 0 1.031.43h4.79c.195 0 .378-.04.558-.113q.269-.112.472-.317.206-.204.317-.473c.074-.18.113-.363.113-.558v-4.79a1.46 1.46 0 0 0-.43-1.03 1.44 1.44 0 0 0-1.03-.426h-.329V2.262a1.027 1.027 0 0 0 .469-1.586 1.024 1.024 0 0 0-1.293-.309 1 1 0 0 0-.363.309 1 1 0 0 0-.188.437 1 1 0 0 0 .024.473 1.03 1.03 0 0 0 .632.676v1.746h-2.695V2.262a1.027 1.027 0 0 0 .469-1.586 1.024 1.024 0 0 0-1.29-.309q-.221.11-.367.309a1 1 0 0 0-.187.437 1.02 1.02 0 0 0 .66 1.149M16.68.977q.134 0 .226.093a.3.3 0 0 1 .09.223c0 .09-.027.164-.09.227a.3.3 0 0 1-.226.093.313.313 0 0 1-.317-.32q.002-.129.09-.223a.31.31 0 0 1 .227-.093m1.43 4.488v4.789c0 .207-.07.379-.215.527a.72.72 0 0 1-.528.215h-4.789a.71.71 0 0 1-.523-.215.7.7 0 0 1-.22-.527v-4.79q-.002-.304.22-.523a.7.7 0 0 1 .523-.218h4.79a.7.7 0 0 1 .527.218q.215.218.214.524M13.265.977q.134 0 .226.093a.3.3 0 0 1 .094.223q0 .134-.094.227a.3.3 0 0 1-.226.093.3.3 0 0 1-.223-.093.3.3 0 0 1-.094-.227q0-.129.094-.223a.3.3 0 0 1 .223-.093M17.371 16.953a.35.35 0 0 0 .254-.105.34.34 0 0 0 .105-.254.33.33 0 0 0-.105-.25.35.35 0 0 0-.254-.106h-.734a.7.7 0 0 0-.203-.457.69.69 0 0 0-.454-.203v-.734a.33.33 0 0 0-.105-.25.35.35 0 0 0-.254-.106.35.35 0 0 0-.254.106.33.33 0 0 0-.105.25v.734h-.578v-.734a.33.33 0 0 0-.106-.25.34.34 0 0 0-.254-.106.35.35 0 0 0-.254.106.35.35 0 0 0-.101.25v.734a.7.7 0 0 0-.457.203.7.7 0 0 0-.203.457h-.735a.33.33 0 0 0-.25.106.33.33 0 0 0-.105.25q0 .15.105.254c.067.07.153.105.25.105h.735v.582h-.735a.33.33 0 0 0-.25.102.35.35 0 0 0-.105.254q0 .147.105.254c.067.07.153.105.25.105h.735a.69.69 0 0 0 .203.453.67.67 0 0 0 .457.203v.735a.36.36 0 0 0 .101.254q.107.105.254.105a.34.34 0 0 0 .254-.105.35.35 0 0 0 .106-.254v-.735h.578v.735q0 .147.105.254.106.105.254.105a.35.35 0 0 0 .254-.105.35.35 0 0 0 .105-.254v-.735a.67.67 0 0 0 .454-.203.69.69 0 0 0 .203-.453h.734a.35.35 0 0 0 .254-.105.35.35 0 0 0 .105-.254.35.35 0 0 0-.105-.254.35.35 0 0 0-.254-.102h-.734v-.582Zm-1.45 1.238h-1.898v-1.898h1.899ZM15.3 25.664l-.327.176-.328-.176a.35.35 0 0 0-.274-.023.34.34 0 0 0-.21.175.34.34 0 0 0-.024.274.34.34 0 0 0 .175.21l.497.259q.162.087.332 0l.492-.258a.353.353 0 0 0 .148-.484.34.34 0 0 0-.207-.176.37.37 0 0 0-.273.023M15.3 24.473l-.327.172-.328-.172a.35.35 0 0 0-.274-.028.36.36 0 0 0-.21.176.34.34 0 0 0-.024.274.32.32 0 0 0 .175.21l.497.262q.162.089.332 0l.492-.262a.34.34 0 0 0 .176-.21.34.34 0 0 0-.028-.27.34.34 0 0 0-.207-.176.37.37 0 0 0-.273.024M15.3 26.86l-.327.171-.328-.172a.35.35 0 0 0-.274-.027.36.36 0 0 0-.21.176.34.34 0 0 0-.024.273.34.34 0 0 0 .175.211l.497.258q.162.089.332 0l.492-.258a.35.35 0 0 0 .176-.21.34.34 0 0 0-.028-.27.32.32 0 0 0-.207-.176.34.34 0 0 0-.273.023M25.05 7.016l.75-.754h.387q.207-.001.395-.078a1.04 1.04 0 0 0 .559-.559 1 1 0 0 0 .082-.398V3.12a1 1 0 0 0-.082-.394 1 1 0 0 0-.223-.336 1 1 0 0 0-.336-.223 1 1 0 0 0-.395-.082h-2.785a1 1 0 0 0-.394.082 1 1 0 0 0-.559.559q-.076.188-.078.394v2.106q0 .208.078.398.083.19.223.332.147.146.336.227.192.077.394.078h.387l.754.754c.07.07.152.105.254.105a.33.33 0 0 0 .25-.105Zm-.859-1.364a.34.34 0 0 0-.253-.105h-.536a.3.3 0 0 1-.222-.094.3.3 0 0 1-.094-.226V3.12a.313.313 0 0 1 .316-.316h2.785c.086 0 .165.03.227.09.059.062.09.14.09.226v2.106q0 .134-.09.226a.31.31 0 0 1-.227.094h-.535a.35.35 0 0 0-.254.105l-.601.606ZM3.281 6.828H7.02a.35.35 0 0 0 .253-.101.35.35 0 0 0 .106-.254v-1.63a.34.34 0 0 0-.106-.253.35.35 0 0 0-.253-.106.35.35 0 0 0-.254.106.34.34 0 0 0-.106.254v1.27H3.64v-3.02h3.38a.35.35 0 0 0 .253-.106.35.35 0 0 0 .106-.254.35.35 0 0 0-.106-.254.35.35 0 0 0-.253-.101H3.28a.345.345 0 0 0-.355.355v3.739a.345.345 0 0 0 .355.355m0 0"/><path fill="#061c3d" d="M6.715 3.438 5.14 5.012l-.594-.594a.35.35 0 0 0-.254-.102.34.34 0 0 0-.25.106.34.34 0 0 0-.106.25c0 .101.036.183.106.254l.844.844q.106.105.254.105a.35.35 0 0 0 .254-.105L7.223 3.94a.34.34 0 0 0 .101-.253.34.34 0 0 0-.105-.25.33.33 0 0 0-.25-.106.35.35 0 0 0-.254.106M6.492 17.852a1.3 1.3 0 0 0-.105-.512 1.3 1.3 0 0 0-.29-.434 1.3 1.3 0 0 0-.433-.289 1.3 1.3 0 0 0-1.027 0 1.3 1.3 0 0 0-.434.29q-.189.186-.289.433-.103.247-.102.512-.002.27.102.515.1.246.29.434.187.188.433.289c.164.07.336.101.515.101.176 0 .348-.03.512-.101q.246-.1.434-.29.188-.186.289-.433c.07-.164.101-.336.105-.515m-1.34.625a.58.58 0 0 1-.441-.184.58.58 0 0 1-.184-.441q-.002-.256.184-.442a.6.6 0 0 1 .441-.18q.256 0 .442.18.18.186.18.442.001.261-.184.441a.58.58 0 0 1-.438.184M26.52 16.727a1.75 1.75 0 0 0-.653-.922 1.76 1.76 0 0 0-1.07-.352 1.77 1.77 0 0 0-1.074.352 1.77 1.77 0 0 0-.653.922 1.7 1.7 0 0 0-.566.293 1.8 1.8 0 0 0-.43.468 1.9 1.9 0 0 0-.238.594q-.066.316-.016.637.047.322.203.601.158.287.403.496.246.212.55.325.304.112.626.113h2.386q.323-.002.63-.113.302-.113.546-.325.248-.209.402-.496a1.7 1.7 0 0 0 .207-.601 1.7 1.7 0 0 0-.02-.637 1.7 1.7 0 0 0-.237-.594 1.7 1.7 0 0 0-.43-.468 1.7 1.7 0 0 0-.566-.293m-.532 2.812h-2.386a1.05 1.05 0 0 1-.735-.289 1.04 1.04 0 0 1-.347-.71q-.037-.424.226-.759c.172-.226.402-.36.68-.406q.257-.04.297-.297.063-.393.367-.652.306-.258.707-.258.398 0 .703.258.305.259.371.652.04.257.293.297.42.069.684.406.26.332.226.758a1.06 1.06 0 0 1-.347.711q-.311.288-.739.29m0 0"/></svg>