<svg xmlns="http://www.w3.org/2000/svg" width="40" height="40" version="1.0" viewBox="0 0 30 30"><defs><clipPath id="a"><path d="M1 .598h28.516V28.18H1Zm0 0"/></clipPath></defs><g clip-path="url(#a)"><path fill="#061c3d" d="M15.258 3.586c0-.629.96-.629.96 0v1.203c0 .633-.96.633-.96 0Zm4.305 0c0-.629.96-.629.96 0v1.203c0 .633-.96.633-.96 0Zm-2.153 0c0-.629.961-.629.961 0v.855c0 .633-.96.633-.96 0Zm-4.363 7.328c-.629 0-.629-.96 0-.96h1.207c.629 0 .629.96 0 .96Zm0-4.305c-.629 0-.629-.96 0-.96h1.207c.629 0 .629.96 0 .96Zm0 2.153c-.629 0-.629-.961 0-.961h.855c.633 0 .633.96 0 .96Zm7.328 4.363c0 .629-.96.629-.96 0v-1.203c0-.633.96-.633.96 0Zm-4.309 0c0 .629-.957.629-.957 0v-1.203c0-.633.957-.633.957 0Zm2.157 0c0 .629-.961.629-.961 0v-.855c0-.633.96-.633.96 0Zm4.363-7.328c.629 0 .629.96 0 .96h-1.207c-.629 0-.629-.96 0-.96Zm0 4.305c.629 0 .629.96 0 .96h-1.207c-.629 0-.629-.96 0-.96Zm0-2.153c.629 0 .629.961 0 .961h-.856c-.632 0-.632-.96 0-.96Zm-2.988-1.285h-3.414v3.414h3.414Zm-3.895-.957h4.375c.266 0 .48.211.48.477v4.375a.48.48 0 0 1-.48.48h-4.375a.477.477 0 0 1-.476-.48V6.184c0-.266.21-.477.476-.477m6.758-1.996a6.573 6.573 0 0 0-9.29 0 6.566 6.566 0 0 0 0 9.289 6.566 6.566 0 0 0 9.29 0 6.566 6.566 0 0 0 0-9.29m-9.715 10.207a7.53 7.53 0 0 1 0-11.125c-2.406 1.18-4.43 3.148-5.89 5.562 1.46 2.415 3.484 4.383 5.89 5.563m10.14-11.125c3.278 2.988 3.274 8.137 0 11.125 2.41-1.18 4.43-3.148 5.891-5.563-1.46-2.414-3.48-4.382-5.89-5.562M16 27.18H6.559c-.825 0-.805 1.23 0 1.23H16c.82.004.8-1.23 0-1.23m-2.273-2.168H8.828l-.363 1.207h5.629Zm6.82-3.996H2.007v1.992c0 .574.473 1.047 1.052 1.047H19.5a1.05 1.05 0 0 0 1.047-1.047Zm-18.54-.957h18.54v-4.301c-4.793 1.094-9.418-.774-12.64-4.371H3.058c-.579 0-1.051.472-1.051 1.047Zm8.333 2.906a.48.48 0 0 1 0-.957h1.875a.48.48 0 0 1 .48.48.477.477 0 0 1-.48.477Zm17.598-5.672c1.187.36 1.574 1.867.69 2.754-1.038 1.039-2.823.297-2.823-1.172 0-.738.488-1.371 1.172-1.582v-3.508c0-.629.96-.629.96 0Zm-4.032 2.387a1.657 1.657 0 0 1 .692 2.754c-1.04 1.035-2.825.296-2.825-1.172 0-.739.489-1.375 1.176-1.582v-3.504c0-.633.957-.633.957 0ZM5.914 1.098c.191.191.336.425.414.691h3.348c.629 0 .629.961 0 .961H6.328c-.36 1.184-1.863 1.574-2.75.688-1.039-1.04-.3-2.82 1.168-2.82.457 0 .871.183 1.168.48M3.86 5.03c.192.192.332.426.414.688h1.489c.633 0 .633.96 0 .96H4.273c-.359 1.188-1.867 1.579-2.753.692C.484 6.328 1.223 4.547 2.69 4.547c.457 0 .868.187 1.168.484m5.625 9.824c.371-.507 1.145.055.774.563l-1.762 2.418c-.367.508-1.14-.055-.77-.563ZM11.2 15.95c0-.629.961-.629.961 0v2.45c0 .632-.96.632-.96 0Zm-2.734-2.703c.59-.219.922.676.336.895l-2.34.87c-.59.22-.922-.675-.332-.894Zm0 0"/></g></svg>