<svg xmlns="http://www.w3.org/2000/svg" width="40" height="40" version="1.0" viewBox="0 0 30 30"><defs><clipPath id="a"><path d="M.484 1.852h29.032v25.402H.484Zm0 0"/></clipPath></defs><g clip-path="url(#a)"><path fill="#fff" d="M16.613 10.785c2.106 1.258 4.41 1.996 6.692 2.145l-.082 1.203a.44.44 0 0 0 .23.422q.107.058.219.058a.46.46 0 0 0 .262-.086l3.949-2.879a.44.44 0 0 0 .183-.347.46.46 0 0 0-.16-.36l-3.55-2.992a.45.45 0 0 0-.738.312l-.087 1.27c-2.414-.164-5.539-1.12-7.601-2.351-2.22-1.325-3.867-2.977-5.04-5.047a.45.45 0 0 0-.558-.2.45.45 0 0 0-.27.528c.82 3.293 3.208 6.328 6.551 8.324M15.47 7.95c2.304 1.38 5.867 2.43 8.469 2.5a.454.454 0 0 0 .46-.418l.055-.824 2.438 2.055-2.707 1.972.046-.699a.45.45 0 0 0-.117-.332.45.45 0 0 0-.316-.148c-2.281-.07-4.606-.774-6.723-2.04-1.945-1.16-3.543-2.687-4.66-4.41A15.8 15.8 0 0 0 15.47 7.95m13.597 16.364h-1.125V18.93c0-.25-.199-.45-.449-.45h-3.215a.45.45 0 0 0-.449.45v5.383h-1.855v-8.618a.45.45 0 0 0-.45-.445h-3.218c-.246 0-.45.2-.45.445v8.618H16V12.32a.45.45 0 0 0-.45-.449h-3.214a.45.45 0 0 0-.45.45v2.534q-.526-.627-1.16-1.324c.415-.246.692-.699.692-1.215a1.42 1.42 0 0 0-1.129-1.39l.856-.86a1.445 1.445 0 0 0 0-2.046 1.454 1.454 0 0 0-1.805-.196c-.024.016-.035.016-.063.004-.023-.008-.03-.02-.035-.043a1.46 1.46 0 0 0-1.418-1.14c-.676 0-1.27.476-1.414 1.14-.008.024-.015.035-.039.043-.023.012-.039.012-.059-.004a1.46 1.46 0 0 0-1.808.196 1.44 1.44 0 0 0-.422 1.023c0 .387.148.75.422 1.023l.855.86a1.421 1.421 0 0 0-.437 2.605c-1.531 1.688-2.578 3.055-3.27 4.266C.512 19.8.488 22.02 1.59 23.879c1.21 2.043 3.543 3.3 6.11 3.3h.25c1.179 0 2.312-.269 3.304-.753h17.812c.247 0 .45-.2.45-.45v-1.214a.45.45 0 0 0-.45-.45m-4.34-4.934h2.317v4.933h-2.316Zm-5.972-3.234h2.32v8.168h-2.32Zm-5.969-3.375h2.317v11.543h-1.329q.152-.212.286-.434c1.101-1.86 1.078-4.078-.063-6.082a17 17 0 0 0-1.21-1.813ZM4.977 9.043a.56.56 0 0 1 .16-.39.555.555 0 0 1 .687-.071c.27.172.594.2.89.078a.95.95 0 0 0 .571-.683.555.555 0 0 1 .54-.438c.257 0 .484.184.538.438a.95.95 0 0 0 .57.683.96.96 0 0 0 .891-.078.555.555 0 0 1 .688.07.554.554 0 0 1 0 .782l-1.461 1.46H6.598l-1.461-1.46a.56.56 0 0 1-.16-.391m.68 2.75h4.34a.523.523 0 0 1 0 1.047h-4.34a.523.523 0 0 1 0-1.047m2.16 14.484c-2.294.04-4.387-1.054-5.454-2.855-.945-1.598-.922-3.438.07-5.18.712-1.246 1.833-2.683 3.52-4.504h3.742c1.688 1.82 2.809 3.258 3.52 4.504.992 1.742 1.02 3.582.07 5.18-1.047 1.77-3.086 2.86-5.336 2.86-.039 0-.125-.005-.133-.005m20.8-.75H12.648q.183-.152.352-.316h15.617ZM9.93 21.187c.054.438-.063.836-.34 1.157-.297.343-.781.582-1.336.668v.328a.45.45 0 0 1-.899 0v-.336c-.835-.149-1.48-.7-1.671-1.473a.446.446 0 0 1 .324-.543.453.453 0 0 1 .547.328c.148.606.754.825 1.25.829h.058c.442-.012.852-.165 1.047-.391.113-.125.152-.274.13-.461-.036-.309-.22-.684-1.302-.86-1.511-.25-1.863-1.03-1.894-1.64-.04-.848.547-1.555 1.465-1.762l.046-.011v-.344a.45.45 0 1 1 .898 0v.34c.618.117 1.212.492 1.517 1.218a.45.45 0 0 1-.239.59.45.45 0 0 1-.59-.242c-.21-.504-.668-.71-1.109-.71a1.4 1.4 0 0 0-.324.034c-.387.086-.79.356-.766.844.008.168.031.613 1.14.797.47.074 1.888.308 2.048 1.64m0 0"/></g></svg>