<svg xmlns="http://www.w3.org/2000/svg" width="40" height="40" version="1.0" viewBox="0 0 30 30"><defs><clipPath id="a"><path d="M.484.598h29.032V28.18H.484Zm0 0"/></clipPath></defs><g clip-path="url(#a)"><path fill="#fff" d="M28.258.602H1.742c-.691 0-1.25.558-1.25 1.25v20.242c0 .687.559 1.25 1.25 1.25h9.969v1.96l-1.402.731q-.066.034-.125.063c-.391.199-.93.468-.93 1.117a1.22 1.22 0 0 0 1.219 1.219h9.054a1.22 1.22 0 0 0 1.22-1.22c0-.648-.54-.917-.93-1.116q-.06-.03-.126-.063l-1.402-.73v-1.961h9.969c.691 0 1.25-.563 1.25-1.25V1.852c0-.692-.559-1.25-1.25-1.25m-26.516.722h26.516c.289 0 .527.235.527.528v17.246H1.215V1.852c0-.293.234-.528.527-.528m16.02 24.524 1.597.832c.043.02.09.043.133.066.403.203.531.293.531.469a.497.497 0 0 1-.496.496h-9.054a.497.497 0 0 1-.496-.496c0-.176.128-.266.53-.469.048-.023.09-.047.134-.066l1.597-.832a.36.36 0 0 0 .196-.32v-2.184h5.132v2.183c0 .133.075.258.196.32m10.496-3.227H1.742a.53.53 0 0 1-.527-.527V19.82h27.57v2.274c0 .289-.234.527-.527.527M23.492 8.56c-.199 0-.363.164-.363.363v8.45h-.871v-5.079c0-.2-.164-.363-.363-.363h-2.657c-.199 0-.363.164-.363.363v5.078h-.871v-6.953c0-.2-.16-.363-.36-.363h-2.66c-.199 0-.359.164-.359.363v6.953h-.875v-3.988c0-.2-.16-.363-.36-.363h-2.66c-.199 0-.359.164-.359.363v3.988H9.11c-.199 0-.363.16-.363.36s.164.363.363.363h18.664a.362.362 0 0 0 0-.723h-1.265v-8.45c0-.198-.16-.362-.36-.362Zm-3.894 4.093h1.937v4.72h-1.937Zm-4.254-1.875h1.937v6.594h-1.937Zm-4.25 2.965h1.933v3.63h-1.933Zm12.758 3.63v-8.09h1.937v8.09Zm-11.79-5.552a1.417 1.417 0 0 0 1.254-2.07l2.227-2.016a1.407 1.407 0 0 0 1.758-.172l1.906 1.149a1.5 1.5 0 0 0-.059.394 1.417 1.417 0 1 0 2.665-.675l2.257-2.117a1.416 1.416 0 1 0-.496-.527l-2.258 2.12a1.4 1.4 0 0 0-.75-.218c-.382 0-.73.156-.988.402l-1.906-1.145a1.5 1.5 0 0 0 .058-.394 1.42 1.42 0 0 0-1.418-1.418 1.417 1.417 0 0 0-1.257 2.066l-2.223 2.016a1.416 1.416 0 1 0-.77 2.605M24.82 4.418a.694.694 0 1 1-.004 1.387.694.694 0 0 1 .004-1.387M20.566 8.41c.383 0 .696.313.696.695a.694.694 0 1 1-1.387 0c0-.382.309-.695.691-.695m-4.253-2.555a.694.694 0 1 1 .004 1.386.694.694 0 0 1-.005-1.386m-4.25 3.856a.693.693 0 1 1-.003 1.385.693.693 0 0 1 .002-1.385m-5.461-.996a2.04 2.04 0 0 0 2.039-2.04A2.04 2.04 0 0 0 6.6 4.638a2.04 2.04 0 0 0-2.038 2.039 2.04 2.04 0 0 0 2.039 2.039m0-3.356A1.317 1.317 0 1 1 6.6 7.993a1.317 1.317 0 0 1 .002-2.634M2.785 7.79h.621q.065.182.153.36l-.442.437a.64.64 0 0 0-.187.453c0 .172.066.332.187.453l.668.668a.64.64 0 0 0 .453.188.64.64 0 0 0 .453-.188l.438-.437q.176.082.36.148v.621c0 .352.288.64.64.64h.945c.352 0 .64-.288.64-.64v-.62q.184-.067.36-.15l.438.438a.64.64 0 0 0 .453.188.64.64 0 0 0 .453-.188l.668-.664c.25-.25.25-.66 0-.91l-.441-.438q.087-.177.152-.359h.621c.352 0 .64-.289.64-.64v-.942c0-.355-.288-.64-.64-.64h-.621a3 3 0 0 0-.152-.364l.44-.437a.64.64 0 0 0 0-.907l-.667-.668a.64.64 0 0 0-.906 0l-.438.442a3 3 0 0 0-.36-.153v-.62c0-.352-.288-.641-.64-.641H6.13c-.352 0-.64.289-.64.64v.621a3 3 0 0 0-.36.153L4.69 3.19a.64.64 0 0 0-.906 0l-.668.668a.64.64 0 0 0-.187.454c0 .171.066.332.187.453l.438.437a4 4 0 0 0-.149.36h-.62c-.352 0-.641.289-.641.644v.941c0 .352.289.641.64.641m.082-1.504h.598a.64.64 0 0 0 .61-.437c.042-.13.093-.25.152-.371a.64.64 0 0 0-.118-.743l-.425-.421.554-.551.422.422a.63.63 0 0 0 .742.117q.179-.089.368-.153a.64.64 0 0 0 .44-.609v-.598h.782v.598a.64.64 0 0 0 .438.61q.192.063.37.152a.635.635 0 0 0 .743-.117l.422-.422.55.55-.421.422a.635.635 0 0 0-.117.743q.087.179.152.37a.64.64 0 0 0 .61.438h.597v.781h-.598a.64.64 0 0 0-.61.442c-.042.125-.093.25-.151.367a.63.63 0 0 0 .117.742l.422.422-.551.55-.422-.421a.64.64 0 0 0-.742-.117q-.18.088-.371.152a.64.64 0 0 0-.438.61v.597h-.781v-.598a.64.64 0 0 0-.441-.609 3 3 0 0 1-.368-.152.64.64 0 0 0-.742.117l-.422.422-.55-.55.421-.423a.64.64 0 0 0 .118-.742 3 3 0 0 1-.153-.367.64.64 0 0 0-.61-.442h-.597Zm0 0"/></g></svg>