<svg xmlns="http://www.w3.org/2000/svg" width="40" height="40" version="1.0" viewBox="0 0 30 30"><defs><clipPath id="a"><path d="M.973 0H16v29.031H.973Zm0 0"/></clipPath><clipPath id="b"><path d="M9 6h20.281v17H9Zm0 0"/></clipPath></defs><path fill="#fff" d="M14.969 12.414a.485.485 0 0 0-.91 0l-1.45 3.867a.486.486 0 0 0 .286.625c.25.09.527-.035.62-.285l.247-.656h1.504l.25.656a.48.48 0 0 0 .453.313.474.474 0 0 0 .449-.653ZM14.125 15l.395-1.04.39 1.04ZM17.414 12.098a.487.487 0 0 0-.484.484v3.867c0 .266.218.485.484.485a.487.487 0 0 0 .484-.485v-3.867a.487.487 0 0 0-.484-.484m0 0"/><g clip-path="url(#a)"><path fill="#fff" d="M15.48 22.738c-4.53 0-8.218-3.691-8.218-8.222 0-4.532 3.687-8.22 8.218-8.22a.487.487 0 0 0 .485-.484V.492a.483.483 0 0 0-.485-.48h-2.546a.485.485 0 0 0-.473.367l-.691 2.773c-.59.196-1.16.426-1.7.703L7.617 2.383a.485.485 0 0 0-.59.074L3.426 6.059a.485.485 0 0 0-.074.59l1.472 2.453c-.277.539-.515 1.109-.703 1.699l-2.773.691a.485.485 0 0 0-.368.473v5.094c0 .222.149.418.368.468l2.773.692c.195.59.426 1.16.703 1.703l-1.472 2.453a.485.485 0 0 0 .074.59l3.601 3.601a.48.48 0 0 0 .59.07l2.453-1.468c.54.277 1.11.512 1.7.703l.69 2.774c.056.218.25.367.474.367h2.546a.484.484 0 0 0 .485-.485v-5.316a.487.487 0 0 0-.485-.484Zm-.484 5.317H13.31l-.668-2.672a.5.5 0 0 0-.328-.348 11 11 0 0 1-2.032-.84.48.48 0 0 0-.476.012l-2.36 1.418-3.07-3.074 1.414-2.36a.48.48 0 0 0 .012-.476 10.6 10.6 0 0 1-.836-2.031.48.48 0 0 0-.352-.329l-2.672-.668v-4.343l2.672-.668a.51.51 0 0 0 .352-.328c.21-.711.492-1.395.836-2.032a.48.48 0 0 0-.012-.476L4.375 6.48l3.07-3.07 2.36 1.414c.144.09.328.094.476.012A10.6 10.6 0 0 1 12.312 4c.165-.05.29-.18.329-.348l.668-2.675h1.687v4.367c-4.84.25-8.703 4.27-8.703 9.172s3.863 8.922 8.703 9.172Zm0 0"/></g><g clip-path="url(#b)"><path fill="#fff" d="M27.086 12.582c-.898 0-1.648.617-1.867 1.45h-4.903v-1.934h1.934a.5.5 0 0 0 .36-.16L24.378 10c.234.102.496.164.773.164a1.933 1.933 0 1 0-1.934-1.934c0 .442.153.84.4 1.165l-1.583 1.738h-1.719v-.969a.487.487 0 0 0-.484-.484h-.969v-.965a.483.483 0 0 0-.48-.485.487.487 0 0 0-.485.485v.965h-1.933v-.965a.487.487 0 0 0-.485-.485.487.487 0 0 0-.484.485v.965h-1.934v-.965a.487.487 0 0 0-.484-.485.487.487 0 0 0-.484.485v.965h-.965a.487.487 0 0 0-.484.484v.969h-.97a.483.483 0 0 0 0 .965h.97v1.933h-.97a.483.483 0 0 0 0 .969h.97v1.934h-.97a.483.483 0 0 0 0 .968h.97v.965c0 .266.218.485.484.485h.965v.968a.483.483 0 0 0 .969 0v-.968h1.933v.968a.483.483 0 0 0 .969 0v-.968h1.933v.968a.483.483 0 0 0 .965 0v-.968h.969a.487.487 0 0 0 .484-.485v-.965h1.72l1.581 1.735a1.92 1.92 0 0 0-.398 1.164 1.934 1.934 0 1 0 3.867 0 1.936 1.936 0 0 0-1.934-1.934c-.277 0-.539.059-.773.164l-1.77-1.937a.5.5 0 0 0-.359-.16h-1.934V15h4.903c.218.832.968 1.45 1.867 1.45a1.933 1.933 0 1 0 0-3.868m-1.934-5.32a.967.967 0 1 1-.969.969c0-.532.438-.97.97-.97m.965 13.539a.97.97 0 0 1-.965.969.97.97 0 0 1-.968-.97.967.967 0 0 1 1.934 0m-6.77-2.418h-7.734v-7.735h7.735Zm7.739-2.899a.974.974 0 0 1-.969-.968.967.967 0 1 1 .969.969m0 0"/></g></svg>