<svg xmlns="http://www.w3.org/2000/svg" width="40" height="40" version="1.0" viewBox="0 0 30 30"><defs><clipPath id="a"><path d="M.484 12H5v8H.484Zm0 0"/></clipPath><clipPath id="b"><path d="M25 12h4.516v8H25Zm0 0"/></clipPath><clipPath id="c"><path d="M13 2.723h4V6h-4Zm0 0"/></clipPath><clipPath id="d"><path d="M13 22h5v4.672h-5Zm0 0"/></clipPath></defs><path fill="#fff" d="M19.082 15.879a.908.908 0 0 1 0-1.816.908.908 0 0 1 0 1.816M15 18.82c-1.254 0-2.27-.812-2.27-1.812h4.54c0 1-1.016 1.812-2.27 1.812m-4.082-2.941a.908.908 0 0 1 0-1.816.908.908 0 0 1 0 1.816m7.71-5.445h-7.257c-1.504 0-2.863.609-3.848 1.593a5.444 5.444 0 0 0 3.848 9.293h7.258c1.504 0 2.863-.61 3.848-1.593a5.42 5.42 0 0 0 1.597-3.848 5.445 5.445 0 0 0-5.445-5.445"/><path fill="#fff" d="M15 24.95h-2.723a9 9 0 0 1-3.53-.712 9.1 9.1 0 0 1-2.884-1.945 9.1 9.1 0 0 1-1.945-2.883 9 9 0 0 1-.711-3.531c0-1.227.238-2.414.711-3.535A9.1 9.1 0 0 1 5.863 9.46a9.1 9.1 0 0 1 2.883-1.945 9 9 0 0 1 3.531-.711h5.446c1.222 0 2.41.238 3.53.71a9.1 9.1 0 0 1 2.884 1.946 9.1 9.1 0 0 1 1.945 2.883 9 9 0 0 1 .711 3.535h-.906c0-4.504-3.664-8.168-8.164-8.168h-5.446c-4.5 0-8.164 3.664-8.164 8.168 0 4.5 3.664 8.164 8.164 8.164H15z"/><g clip-path="url(#a)"><path fill="#fff" d="M4.113 19.508a3.63 3.63 0 0 1-3.629-3.63 3.63 3.63 0 0 1 3.63-3.632z"/></g><g clip-path="url(#b)"><path fill="#fff" d="M25.887 19.508a3.63 3.63 0 0 0 3.629-3.63 3.63 3.63 0 0 0-3.63-3.632z"/></g><path fill="#fff" d="M17.27 10.887c0 1.004-1.016 1.816-2.27 1.816s-2.27-.812-2.27-1.816c0-1 1.016-1.813 2.27-1.813s2.27.813 2.27 1.813"/><g clip-path="url(#c)"><path fill="#fff" d="M16.36 4.082c0 .754-.61 1.363-1.36 1.363a1.361 1.361 0 0 1 0-2.722c.75 0 1.36.609 1.36 1.359"/></g><g clip-path="url(#d)"><path fill="#fff" d="M17.723 24.496c0 1.004-1.016 1.813-2.27 1.813s-2.27-.809-2.27-1.813 1.016-1.816 2.27-1.816 2.27.812 2.27 1.816"/></g><path fill="#fff" d="M15.453 12.266h-.906V4.082h.906z"/></svg>