<svg xmlns="http://www.w3.org/2000/svg" width="40" height="40" version="1.0" viewBox="0 0 30 30"><defs><clipPath id="a"><path d="M.484.707h29.032v27.582H.484Zm0 0"/></clipPath></defs><g clip-path="url(#a)"><path fill="#fff" fill-rule="evenodd" d="m2.477 27.688 3.117-5.403c3.418 1.195 7.054-1.328 7.054-5.008a5.305 5.305 0 1 0-8.765 4.02L.753 26.71a1 1 0 0 0 .372 1.34.99.99 0 0 0 1.352-.363m16.293-5.536 1.058 2.157H10.59l1.062-2.157ZM7.918 25.184h14.586c.531 0 .965.433.965.964a.97.97 0 0 1-.965.965H7.918a.97.97 0 0 1-.965-.965c0-.53.434-.964.965-.964m3.613-13.196h2.48v6.793h-.671a6.18 6.18 0 0 0-1.809-6.047Zm4.875-2.449h2.48v9.242h-2.48zm4.875-2.45h2.48v11.692h-2.48zm-3.71-2.683 1.042.02c-2.66 2.512-6.422 5.043-9.68 6.879q.56.147 1.07.394c3.122-1.808 6.657-4.23 9.208-6.64l-.02 1.035a.433.433 0 0 0 .43.441.433.433 0 0 0 .442-.43l.039-2.09a.435.435 0 0 0-.426-.44l-2.094-.04a.436.436 0 0 0-.012.871M2.241.707H28.18c.73 0 1.328.598 1.328 1.328V19.95c0 .73-.598 1.328-1.328 1.328H12.055a6.2 6.2 0 0 0 1.047-1.75h14.656V2.457H2.664v10.785a6.17 6.17 0 0 0-1.5 4.035c0 1.48.527 2.895 1.469 4h-.39c-.731 0-1.329-.597-1.329-1.328V2.035c0-.73.598-1.328 1.328-1.328m5.54 15.918c.64.43.34 1.441-.438 1.441a1 1 0 0 1-.153-.015l-1.023 1.02a.434.434 0 0 1-.617 0 .434.434 0 0 1 0-.618l1.02-1.02a.79.79 0 0 1 .335-.808V14.73a.437.437 0 1 1 .875 0Zm-.438-3.145a3.8 3.8 0 1 1 .003 7.6 3.8 3.8 0 0 1-.003-7.6m0 0"/></g></svg>