<svg xmlns="http://www.w3.org/2000/svg" width="40" height="40" version="1.0" viewBox="0 0 30 30"><defs><clipPath id="a"><path d="M1.102 2H27v24H1.102Zm0 0"/></clipPath><clipPath id="b"><path d="M7 26h21.68v3.031H7Zm0 0"/></clipPath></defs><path fill="#fff" d="M17.145 19.402c-.094.293.125.375.73.774q0 .186.023.379c-.55.476-.757.593-.613.86.508 1.042.293.948 1.402.722q.129.134.282.25c-.074 1.11-.211.914.906 1.293.309.117.441-.227.77-.735.144.008.253-.004.378-.02.465.532.579.762.864.618 1.035-.512.945-.297.718-1.406.09-.086.172-.184.25-.282 1.11.075.915.207 1.293-.906.102-.297-.136-.383-.73-.77q0-.191-.023-.378c.523-.453.761-.578.613-.863-.508-1.036-.293-.95-1.403-.723a3 3 0 0 0-.28-.246c.046-.688.124-.942-.177-1.047-1.093-.367-.882-.461-1.5.484q-.189-.001-.378.028c-.45-.52-.575-.762-.864-.622-1.047.516-.941.313-.718 1.403q-.134.133-.25.285c-1.114-.074-.918-.207-1.293.902m4.894 1.243c-.625 1.82-3.402.906-2.785-.938a1.467 1.467 0 0 1 1.86-.918 1.474 1.474 0 0 1 .925 1.856M7.605 11.07c.09.094.192.18.297.258-.078 1.149-.21.945.926 1.328.3.114.414-.191.781-.746.145.004.27-.012.403-.027.746.86.508.816 1.586.281.285-.133.172-.367.027-1.086.098-.094.184-.191.262-.3 1.144.081.945.218 1.328-.923.098-.296-.137-.378-.754-.785 0-.133-.008-.27-.027-.398.867-.754.824-.512.289-1.59-.153-.3-.446-.156-1.09-.027a3 3 0 0 0-.301-.262c.047-.617.148-.965-.168-1.074-1.144-.383-.906-.465-1.539.5-.129 0-.254.011-.398.027-.758-.875-.508-.824-1.594-.289-.281.145-.168.387-.02 1.09q-.145.136-.261.3c-.645-.042-.965-.148-1.075.169-.382 1.144-.468.906.496 1.543 0 .129.008.265.024.394-.86.754-.817.516-.281 1.594.14.281.375.172 1.09.023m.59-2.488a1.502 1.502 0 0 1 2.844.961 1.5 1.5 0 0 1-1.898.941 1.506 1.506 0 0 1-.946-1.902m0 0"/><g clip-path="url(#a)"><path fill="#fff" d="M4.621 18.285c-.621 0-1.14-.465-1.203-1.082l-.281-2.683c-.051-.508-1.578-.493-1.215-1.012L3.8 10.793a.33.33 0 0 0 .047-.258c-.004-.027-.614-2.695.734-4.71 1.73-2.583 6.863-3.188 9.328-.942 1.559 1.418 2 3.605 1.902 5.047-.144 2.082-2.12 3.738-2.101 4.277h-3.195a.99.99 0 0 0-.989.988v1.793c0 .43.653.43.653 0v-1.797c0-.183.148-.336.336-.336H25.94c.184 0 .336.149.336.336v9.817c0 .18-.152.332-.336.332H10.516c-.453 0-.336-.352-.336-2.504 0-.434-.653-.434-.653 0v2.172c0 .543.446.984.989.984H25.94a.99.99 0 0 0 .989-.984V15.19a.99.99 0 0 0-.989-.988H14.414c.813-1.258 1.93-2.418 2.05-4.234C17.13 0 1.29.695 3.18 10.539c-1.91 2.762-2.075 2.813-1.918 3.356.14.476.441.543 1.246.882l.254 2.489a1.864 1.864 0 0 0 1.855 1.672h.785l.012 2.308c0 .434.652.43.652-.004l-.011-2.629c0-.41-.375-.328-1.434-.328m0 0"/></g><g clip-path="url(#b)"><path fill="#fff" d="M28.54 26.613H7.917a.327.327 0 0 0-.328.325v.562c0 .852.691 1.547 1.547 1.547h18.187c.852 0 1.543-.695 1.543-1.547v-.562a.327.327 0 0 0-.328-.325m0 0"/></g><path fill="#fff" d="M23.96 13.438v-2.876h.849c.378 1.36 2.39 1.09 2.39-.324 0-1.41-2.008-1.699-2.39-.328h-1.176a.324.324 0 0 0-.324.328v3.2c0 .433.652.43.652 0M14.578 18.578c.43 0 .43-.652 0-.652H11.16a.327.327 0 0 0-.328.324c0 .18.148.328.328.328Zm0 0"/><path fill="#fff" d="M7.797 20.156h6.781c.434 0 .43-.652 0-.652H8.121V17.03c1.29-.386.992-2.261-.324-2.261-1.32 0-1.617 1.875-.328 2.261v2.801c0 .18.144.324.328.324M8.953 24.094c0-.524-.351-.965-.832-1.106v-1.347h4.785c.434 0 .43-.653 0-.653h-5.11a.33.33 0 0 0-.327.328v1.672c-.48.14-.832.582-.832 1.106a1.159 1.159 0 0 0 2.316 0M21.746 7.844v5.379c0 .433.652.437.652 0v-5.38c1.375-.382 1.079-2.394-.328-2.394-1.402 0-1.691 2.012-.324 2.395M19.34 10.563h.676v2.874c0 .434.656.43.656 0v-3.199a.33.33 0 0 0-.328-.328H19.34c-.38-1.344-2.363-1.066-2.363.328 0 1.387 1.98 1.676 2.363.325m0 0"/></svg>