<svg xmlns="http://www.w3.org/2000/svg" width="40" height="40" version="1.0" viewBox="0 0 30 30"><defs><clipPath id="a"><path d="M3.914 1H11v11H3.914Zm0 0"/></clipPath><clipPath id="b"><path d="M19 1h7.414v11H19Zm0 0"/></clipPath><clipPath id="c"><path d="M11 22h8v7.031h-8Zm0 0"/></clipPath></defs><path fill="#fff" d="M18.91 19.7v-.095c0-.554-.105-1.09-.32-1.593a4.1 4.1 0 0 0-2.461-2.282 2.4 2.4 0 0 0 .48-.378 2.505 2.505 0 0 0 .738-1.785c0-.34-.066-.672-.199-.981a2.5 2.5 0 0 0-1.343-1.344c-.309-.133-.64-.199-.98-.199q-.517 0-.985.2a2.49 2.49 0 0 0-1.344 1.344 2.505 2.505 0 0 0 0 1.965 2.54 2.54 0 0 0 1.02 1.178 4 4 0 0 0-.286.106 4.108 4.108 0 0 0-2.176 2.176c-.21.504-.32 1.039-.32 1.593v.094c0 .336.274.606.606.606h6.965c.336 0 .605-.27.605-.606m-5.465-4.755a1.94 1.94 0 0 1-.57-1.379c0-.52.203-1.007.57-1.375.367-.367.86-.57 1.38-.57a1.948 1.948 0 1 1-1.38 3.324M11.312 19.7v-.094q.001-.715.278-1.367c.176-.418.43-.793.75-1.117a3.54 3.54 0 0 1 2.484-1.027 3.5 3.5 0 0 1 2.48 1.027 3.48 3.48 0 0 1 1.028 2.484v.094a.027.027 0 0 1-.027.028H11.34a.027.027 0 0 1-.027-.028m0 0"/><path fill="#fff" d="M10.598 20.016c0-.16-.13-.29-.29-.29H6.274a.027.027 0 0 1-.027-.027v-.054c0-.422.082-.832.246-1.22.156-.37.383-.706.668-.995.29-.285.625-.512.996-.668a3.1 3.1 0 0 1 1.219-.246c.629 0 1.234.183 1.75.535a.29.29 0 1 0 .324-.48 3.6 3.6 0 0 0-.832-.419 2.284 2.284 0 0 0 1.059-1.937c0-.617-.239-1.195-.672-1.63a2.29 2.29 0 0 0-1.629-.67c-.613 0-1.191.237-1.625.67a2.3 2.3 0 0 0-.676 1.63c0 .613.242 1.191.676 1.625q.176.18.383.312-.1.037-.2.078a3.7 3.7 0 0 0-1.18.793c-.339.34-.608.739-.792 1.18a3.6 3.6 0 0 0-.293 1.442v.054c0 .336.273.606.605.606h4.036c.16 0 .289-.13.289-.29M7.652 14.21a1.72 1.72 0 0 1 1.723-1.723 1.72 1.72 0 0 1 1.727 1.723c0 .46-.18.894-.504 1.223a1.73 1.73 0 0 1-2.442 0 1.73 1.73 0 0 1-.504-1.223M22.863 17.023a3.65 3.65 0 0 0-1.379-.87q.207-.136.383-.313a2.3 2.3 0 0 0 .676-1.63c0-.612-.242-1.19-.676-1.624a2.3 2.3 0 0 0-1.625-.676 2.3 2.3 0 0 0-1.629.676 2.28 2.28 0 0 0-.672 1.625A2.29 2.29 0 0 0 19 16.152a3.7 3.7 0 0 0-.812.403.29.29 0 0 0 .32.48 3.17 3.17 0 0 1 2.953-.277c.371.16.707.387.992.672q.437.433.672.996c.164.387.246.797.246 1.219v.054a.027.027 0 0 1-.027.028h-3.985a.288.288 0 1 0 0 .578h3.985a.606.606 0 0 0 .605-.606v-.054c0-.5-.097-.985-.293-1.446a3.7 3.7 0 0 0-.793-1.176m-2.62-1.085c-.462 0-.895-.18-1.223-.504a1.73 1.73 0 0 1 0-2.442 1.73 1.73 0 0 1 2.44 0 1.73 1.73 0 0 1 0 2.441 1.71 1.71 0 0 1-1.218.505M7.438 4.086l-.063.059-.062-.06a1.274 1.274 0 0 0-1.817 0c-.5.5-.5 1.313 0 1.817l1.672 1.672a.3.3 0 0 0 .207.082.29.29 0 0 0 .203-.082L9.25 5.902a1.286 1.286 0 0 0 0-1.816 1.276 1.276 0 0 0-1.812 0m1.406 1.406L7.375 6.961 5.906 5.492a.705.705 0 0 1 .5-1.207c.188 0 .367.074.5.207l.266.266c.11.113.293.113.406 0l.266-.266a.707.707 0 1 1 1 1m0 0"/><g clip-path="url(#a)"><path fill="#fff" d="M7.375 8.793c.219 0 .441-.023.656-.063l1.301 2.262a.29.29 0 0 0 .34.13.29.29 0 0 0 .195-.313l-.375-2.743q.359-.28.637-.644a.287.287 0 1 0-.457-.348q-.276.36-.652.625a.3.3 0 0 0-.122.274l.2 1.457-.676-1.172a.286.286 0 0 0-.32-.137q-.357.094-.727.094c-.77 0-1.492-.3-2.035-.844a2.84 2.84 0 0 1-.844-2.035c0-.77.297-1.492.844-2.035a2.86 2.86 0 0 1 2.035-.844c.414 0 .813.086 1.188.258.363.164.683.398.949.695.11.117.289.13.41.024a.294.294 0 0 0 .02-.41A3.4 3.4 0 0 0 8.8 2.19a3.4 3.4 0 0 0-1.426-.308c-.469 0-.922.09-1.348.27-.41.175-.78.425-1.097.742a3.4 3.4 0 0 0-.739 1.097 3.4 3.4 0 0 0-.273 1.344c0 .469.09.922.273 1.348.172.41.422.78.739 1.097a3.463 3.463 0 0 0 2.445 1.012m0 0"/></g><path fill="#fff" d="M20.813 4.55h.136a.29.29 0 0 0 .285-.288c0-.16-.129-.29-.285-.29h-.137a.29.29 0 0 0-.285.29c0 .16.13.289.285.289m0 0"/><g clip-path="url(#b)"><path fill="#fff" d="M25.809 3.992a3.3 3.3 0 0 0-.743-1.097 3.4 3.4 0 0 0-1.097-.743 3.4 3.4 0 0 0-1.344-.27A3.44 3.44 0 0 0 20 3.09a.29.29 0 0 0 .031.41c.121.102.301.086.407-.031a2.86 2.86 0 0 1 2.187-1.012c.77 0 1.492.3 2.035.844.543.543.844 1.27.844 2.035 0 .77-.3 1.492-.844 2.035a2.86 2.86 0 0 1-2.426.816.29.29 0 0 0-.289.145l-.633 1.098.168-1.23a.29.29 0 0 0-.156-.294 2.9 2.9 0 0 1-.984-.82.288.288 0 1 0-.461.348c.273.355.617.66 1 .886l-.336 2.489a.288.288 0 0 0 .285.328c.102 0 .2-.051.25-.145l1.27-2.21q.138.01.277.011c.465 0 .918-.094 1.344-.273a3.447 3.447 0 0 0 2.11-3.184c0-.465-.09-.918-.27-1.344m0 0"/></g><path fill="#fff" d="M24.46 4.55a.288.288 0 1 0 0-.577h-2.6a.288.288 0 1 0 0 .578ZM20.813 5.625h3.648a.288.288 0 1 0 0-.578h-3.648a.29.29 0 0 0-.286.289c0 .16.13.289.285.289M24.46 6.121h-.093a.288.288 0 1 0 0 .578h.094a.288.288 0 1 0 0-.578M20.813 6.7h2.62a.288.288 0 1 0 0-.579h-2.62a.29.29 0 0 0-.286.29c0 .16.13.288.285.288M14.04 7.473h3.534a.69.69 0 0 0 .61-1.008.69.69 0 0 0 .195-.48.7.7 0 0 0-.094-.352.68.68 0 0 0 .168-.45.7.7 0 0 0-.066-.296.689.689 0 0 0-.465-1.195h-1.594a7 7 0 0 0-.008-1.047.913.913 0 0 0-.91-.895.64.64 0 0 0-.637.64v.212q-.001.417-.101.824a.656.656 0 0 1-.633.496c-.16 0-.289.125-.289.285v2.98c0 .157.129.286.29.286m.284-3.012c.442-.106.793-.445.906-.899q.118-.476.118-.964v-.211c0-.032.027-.059.062-.059.184 0 .332.149.332.332v.024c.04.394.031.796-.012 1.191l-.007.074c-.008.078.02.16.074.223a.3.3 0 0 0 .215.094h1.91c.062 0 .11.05.11.113a.11.11 0 0 1-.11.113h-.156a.288.288 0 1 0 0 .578.11.11 0 0 1 .113.11c0 .062-.05.113-.113.113h-.075a.285.285 0 0 0-.285.289c0 .16.125.29.285.29.063 0 .114.05.114.108 0 .063-.051.114-.114.114h-.117a.288.288 0 1 0 0 .578c.063 0 .113.05.113.113 0 .059-.05.11-.113.11h-3.246V4.46ZM12.016 7.473h1.117a.29.29 0 0 0 .285-.29V4.263c0-.16-.129-.29-.285-.29h-1.117c-.16 0-.29.13-.29.29v2.922c0 .16.13.289.29.289m.289-2.922h.539v2.344h-.54Zm0 0"/><path fill="#fff" d="M10.305 7.164c.254.578.61 1.102 1.058 1.55l-.273 2.56a.29.29 0 0 0 .14.28.275.275 0 0 0 .313-.02l2.059-1.499c.449.125.914.192 1.386.192a5.08 5.08 0 0 0 3.614-1.5 5.08 5.08 0 0 0 1.5-3.613c0-.692-.137-1.36-.403-1.993A5.13 5.13 0 0 0 14.99 0a5.11 5.11 0 0 0-3.618 1.496 5.114 5.114 0 0 0-1.066 5.668m.504-3.816A4.56 4.56 0 0 1 13.223.934a4.5 4.5 0 0 1 1.765-.356 4.515 4.515 0 0 1 3.207 1.328c.418.414.746.903.973 1.442a4.5 4.5 0 0 1 .355 1.765 4.5 4.5 0 0 1-.355 1.766 4.5 4.5 0 0 1-.973 1.441 4.4 4.4 0 0 1-1.441.973 4.5 4.5 0 0 1-1.766.355c-.46 0-.918-.066-1.355-.203a.3.3 0 0 0-.254.04l-1.649 1.203.22-2.047a.3.3 0 0 0-.087-.243 4.519 4.519 0 0 1-1.41-3.285c0-.613.121-1.207.356-1.765M12.313 20.79a.165.165 0 0 0-.325-.044l-.008.008c-.046.031-.148.098-.148.234 0 .098.05.16.098.2a.25.25 0 0 0-.098.199c0 .101.05.16.098.203a.25.25 0 0 0-.098.2.165.165 0 0 0 .324.042l.008-.008c.047-.031.149-.097.149-.234 0-.098-.051-.16-.098-.2a.25.25 0 0 0 .098-.203c0-.097-.051-.16-.098-.199a.25.25 0 0 0 .098-.199M13.895 21.137a.17.17 0 0 0-.043-.23.165.165 0 0 0-.207.019h-.012c-.059 0-.176.004-.254.117a.26.26 0 0 0-.031.238.28.28 0 0 0-.211.117.27.27 0 0 0-.032.239.28.28 0 0 0-.21.117.165.165 0 0 0 .046.23q.043.029.09.028a.17.17 0 0 0 .117-.047h.012c.059 0 .176-.004.254-.117a.27.27 0 0 0 .031-.239.28.28 0 0 0 .211-.117.29.29 0 0 0 .031-.238.27.27 0 0 0 .208-.117M11.14 21.871c0-.004.005-.008.005-.012.02-.054.062-.168-.016-.28a.28.28 0 0 0-.211-.118.27.27 0 0 0-.031-.238.28.28 0 0 0-.211-.118.26.26 0 0 0-.031-.238.167.167 0 0 0-.23-.043.17.17 0 0 0-.06.2q-.002.005-.003.011c-.02.055-.059.164.015.277a.26.26 0 0 0 .211.118c-.015.062-.031.152.031.242.063.09.149.11.211.113a.27.27 0 0 0 .032.242.16.16 0 0 0 .136.07.15.15 0 0 0 .09-.027.16.16 0 0 0 .063-.199M17.816 20.79a.166.166 0 0 0-.168-.165.16.16 0 0 0-.156.121q-.007.004-.008.008c-.047.031-.148.098-.148.234 0 .098.05.16.098.2a.25.25 0 0 0-.098.199c0 .101.05.16.098.203a.25.25 0 0 0-.098.2.165.165 0 0 0 .324.042q.001-.004.008-.008c.047-.031.148-.097.148-.234 0-.098-.05-.16-.097-.2a.25.25 0 0 0 .097-.203c0-.097-.05-.16-.097-.199a.25.25 0 0 0 .097-.199M19.355 20.906a.165.165 0 0 0-.207.02h-.011c-.059 0-.18.004-.254.117a.26.26 0 0 0-.031.238c-.063.008-.153.028-.211.117a.26.26 0 0 0-.032.239.28.28 0 0 0-.21.117.167.167 0 0 0 .042.23q.048.029.094.028a.16.16 0 0 0 .113-.047h.016c.055 0 .176-.004.254-.117a.29.29 0 0 0 .031-.239.268.268 0 0 0 .238-.355c.063-.008.153-.027.211-.117a.17.17 0 0 0-.043-.23M16.629 21.578c-.059-.09-.149-.11-.211-.117a.27.27 0 0 0-.027-.238.28.28 0 0 0-.211-.118.29.29 0 0 0-.032-.238.17.17 0 0 0-.23-.043.16.16 0 0 0-.059.2q-.005.005-.004.011c-.02.055-.062.164.016.277a.26.26 0 0 0 .211.118.27.27 0 0 0 .031.242c.059.09.149.11.211.113a.28.28 0 0 0 .028.242.17.17 0 0 0 .23.043.16.16 0 0 0 .059-.199q.005-.006.004-.012a.28.28 0 0 0-.016-.28m0 0"/><g clip-path="url(#c)"><path fill="#fff" d="M18.324 22.379h-1.496c-.16 0-.289.129-.289.285v2.578c0 .457-.18.887-.504 1.211a1.7 1.7 0 0 1-1.21.504c-.462 0-.891-.18-1.216-.504-.32-.32-.5-.754-.5-1.21v-2.575c0-.16-.129-.29-.289-.29h-1.496c-.16 0-.289.13-.289.29v2.574a3.75 3.75 0 0 0 1.11 2.68 3.749 3.749 0 0 0 2.68 1.11 3.779 3.779 0 0 0 3.488-2.312c.199-.47.3-.966.3-1.478v-2.574c0-.16-.129-.29-.289-.29m-6.71.574h.917v.625q-.493.001-.918-.004Zm6.421 2.29c0 .433-.086.855-.25 1.25a3.25 3.25 0 0 1-1.71 1.71c-.395.168-.817.25-1.25.25a3.18 3.18 0 0 1-2.27-.937 3.175 3.175 0 0 1-.941-2.273V24.16h.921v1.082c0 .613.238 1.188.668 1.621a2.27 2.27 0 0 0 1.621.668c.614 0 1.188-.234 1.621-.668.43-.433.668-1.008.668-1.62v-1.087q.476-.002.922-.004Zm0-1.677q-.452.005-.922.004v-.617h.922Zm0 0"/></g></svg>