<svg xmlns="http://www.w3.org/2000/svg" width="40" height="40" version="1.0" viewBox="0 0 30 30"><defs><clipPath id="a"><path d="M2 20h25v3.496H2Zm0 0"/></clipPath><clipPath id="b"><path d="M.484 5.352h29.032V20H.484Zm0 0"/></clipPath></defs><path fill="#061c3d" d="m12.555 10.559-1.293 3.734h.492l.398-1.2h1.336l.399 1.2h.535l-1.29-3.734Zm-.27 2.18.356-1.071c.09-.223.136-.445.18-.664.042.219.132.441.179.664l.355 1.07ZM15.934 10.512c-.399 0-.711.047-.934.09v3.691h.488v-1.512c.133.043.27.043.403.043.488 0 .886-.133 1.156-.398.176-.18.312-.446.312-.801s-.136-.621-.312-.8a2.17 2.17 0 0 0-1.113-.313m-.043 1.914c-.18 0-.313 0-.403-.043v-1.469c.09 0 .27-.047.446-.047.535 0 .89.223.89.758s-.355.8-.933.8M17.938 10.559h.488v3.734h-.488Zm0 0"/><g clip-path="url(#a)"><path fill="#061c3d" d="M26.52 20.434H3.21a.35.35 0 0 0-.355.355c0 1.602 1.29 2.89 2.891 2.89h18.149a2.887 2.887 0 0 0 2.894-2.89c.043-.223-.09-.355-.27-.355m-2.579 2.578H5.793c-1.113 0-2.047-.844-2.227-1.914h22.598c-.176 1.07-1.11 1.914-2.223 1.914m0 0"/></g><g clip-path="url(#b)"><path fill="#061c3d" d="M25.23 12.96h1.336c.133.622.711 1.067 1.38 1.067.753 0 1.421-.625 1.421-1.425 0-.754-.62-1.422-1.422-1.422-.668 0-1.203.445-1.379 1.066H25.23V9.18h1.336c.133.62.711 1.066 1.38 1.066.753 0 1.421-.621 1.421-1.422 0-.758-.62-1.426-1.422-1.426-.668 0-1.203.446-1.379 1.067H25.23V5.707a.35.35 0 0 0-.355-.355H4.813a.35.35 0 0 0-.356.355v2.758H3.391c-.133-.531-.711-1.02-1.336-1.02-.754 0-1.422.621-1.422 1.422a1.43 1.43 0 0 0 1.422 1.422c.668 0 1.203-.445 1.379-1.066h1.07v3.07H3.39c-.133-.625-.711-1.07-1.38-1.07-.757 0-1.425.625-1.425 1.425 0 .754.625 1.422 1.426 1.422.668 0 1.199-.445 1.379-1.066h1.066v3.07H3.391c-.133-.625-.711-1.07-1.38-1.07-.757 0-1.425.625-1.425 1.426 0 .754.625 1.422 1.426 1.422.668 0 1.199-.446 1.379-1.067h1.066v2.758c0 .176.133.355.356.355h20.105c.18 0 .355-.132.355-.355v-2.758h1.336c.133.621.711 1.067 1.38 1.067.757 0 1.425-.622 1.425-1.422 0-.758-.625-1.426-1.426-1.426-.668 0-1.199.445-1.379 1.07h-1.336v-3.113Zm2.715-1.112a.75.75 0 0 1 .754.754.75.75 0 0 1-.754.757.75.75 0 0 1-.758-.757c.047-.399.356-.754.758-.754m0-3.739a.75.75 0 0 1 .754.758.75.75 0 0 1-.754.758.75.75 0 0 1-.758-.758c.047-.402.356-.758.758-.758M2.055 9.625a.75.75 0 0 1-.754-.758c0-.402.308-.758.754-.758.445 0 .757.313.757.758-.046.399-.355.758-.757.758m0 3.734a.75.75 0 0 1-.754-.757c0-.399.308-.754.754-.754.445 0 .757.312.757.754-.046.402-.355.757-.757.757m0 3.739a.75.75 0 0 1-.754-.758.75.75 0 0 1 .754-.758c.445 0 .757.313.757.758-.046.402-.355.758-.757.758m25.89-1.516a.75.75 0 0 1 .754.758.75.75 0 0 1-.754.758.75.75 0 0 1-.758-.758c.047-.399.356-.758.758-.758m-3.383.445h-.488l-.18-.175v-2.938h.669Zm-5.023-.976h2.09l1.601 1.156v1.555H6.504v-1.555l1.601-1.156h2.09c.18 0 .356-.133.356-.356s-.133-.355-.356-.355H7.973c-.09 0-.133 0-.18.043l-1.332.933v-2.445h3.781a.35.35 0 0 0 .356-.355.35.35 0 0 0-.356-.356H6.461V9.71l1.332.935c.047.046.133.046.18.046h2.222c.18 0 .356-.132.356-.355a.35.35 0 0 0-.356-.356h-2.09L6.504 8.824V7.445h16.77V9l-1.602 1.156h-2.09a.35.35 0 0 0-.355.356c0 .18.132.355.355.355h2.223c.09 0 .133 0 .18-.043l1.331-.933v2.445H19.45a.35.35 0 0 0-.355.355c0 .18.133.356.355.356h3.781v2.45l-1.335-.934c-.043-.047-.133-.047-.18-.047h-2.223a.35.35 0 0 0-.355.355c0 .223.18.18.402.18m5.023-2.758h-.667V9.355l.222-.132h.492v3.07ZM5.125 6.109h19.438v2.403h-.669V7.086c0-.176-.132-.309-.355-.309H6.15c-.18 0-.356.133-.356.309v1.426h-.668Zm0 3.07h.488l.18.133v2.934h-.668Zm0 3.782h.668v2.934l-.18.132h-.488Zm19.438 6.137H5.125v-2.403h.668v1.426c0 .176.133.356.355.356h17.438a.354.354 0 0 0 .355-.356v-1.426h.668v2.403Zm0 0"/></g></svg>