<svg xmlns="http://www.w3.org/2000/svg" width="40" height="40" version="1.0" viewBox="0 0 30 30"><defs><clipPath id="a"><path d="M.484.29h29.032v28.308H.484Zm0 0"/></clipPath></defs><g clip-path="url(#a)"><path fill="#061c3d" d="M14.105 4.387a.487.487 0 0 1 .657-.246c.25.109.363.402.246.652l-.688 1.516a.493.493 0 0 1-.656.246.49.49 0 0 1-.246-.657Zm-4.101-.344a.495.495 0 0 1 .984-.094l.164 1.656a.495.495 0 1 1-.988.09ZM6.277 5.801a.494.494 0 0 1 .118-.688.49.49 0 0 1 .69.117l.97 1.348a.5.5 0 0 1-.117.692.505.505 0 0 1-.696-.118Zm15.078 12.597c1.2 0 2.18.977 2.18 2.184 0 1.2-.973 2.18-2.18 2.18a2.18 2.18 0 0 1-2.183-2.18c0-1.203.976-2.184 2.183-2.184m.836 1.344c-.746-.746-2.03-.215-2.03.844s1.284 1.586 2.03.84a1.184 1.184 0 0 0 0-1.684m.625-3.101a4.3 4.3 0 0 1 1.22.699c.124-.07.421-.258.538-.285l1.063-.27a.49.49 0 0 1 .566.258l.656 1.137c.118.199.078.453-.086.61l-.753.773c-.082.082-.395.253-.516.324.074.48.074.925 0 1.406.121.074.441.242.516.324l.77.79c.151.16.179.406.07.593l-.676 1.164a.505.505 0 0 1-.551.234l-1.067-.273c-.109-.031-.425-.227-.539-.293-.363.3-.77.54-1.218.703 0 .18.02.492-.028.64l-.285 1.028a.49.49 0 0 1-.473.363H20.68a.5.5 0 0 1-.489-.39c-.058-.235-.304-1.008-.304-1.164v-.473a4.2 4.2 0 0 1-1.219-.7c-.125.071-.422.259-.54.286l-1.065.273a.49.49 0 0 1-.563-.261L15.844 23a.5.5 0 0 1 .086-.61l.75-.773c.078-.082.41-.258.52-.324a4.3 4.3 0 0 1 0-1.406c-.141-.078-.434-.235-.532-.34l-.754-.77a.5.5 0 0 1-.07-.593l.676-1.168a.5.5 0 0 1 .55-.23l1.067.269c.11.027.425.226.535.293.367-.297.773-.54 1.223-.7 0-.183-.02-.496.027-.644l.285-1.024a.49.49 0 0 1 .48-.363h1.344c.239 0 .442.168.485.395.058.234.304 1.004.304 1.156v.473Zm.141 1.156a3 3 0 0 0-.738-.313.5.5 0 0 1-.39-.488v-.77l-.177-.617h-.597l-.176.621v.774a.5.5 0 0 1-.367.48 3.25 3.25 0 0 0-1.43.825.49.49 0 0 1-.598.078l-.66-.383-.637-.164-.296.515.453.465.656.383c.195.106.297.34.238.559-.14.539-.14 1.11 0 1.656a.48.48 0 0 1-.234.55l-.66.384-.453.468.297.512.636-.16.66-.383a.49.49 0 0 1 .598.074c.363.367.902.696 1.402.82.223.044.391.247.391.485v.773l.176.625h.597l.172-.625v-.773c0-.219.153-.422.371-.477a3.2 3.2 0 0 0 1.414-.812.5.5 0 0 1 .614-.09l.66.383.637.16.297-.512-.461-.468-.637-.364a.49.49 0 0 1-.258-.57 3.2 3.2 0 0 0 0-1.64.5.5 0 0 1 .227-.567l.668-.383.457-.469-.301-.511-.637.164-.633.367a.5.5 0 0 1-.625-.063 2.7 2.7 0 0 0-.656-.52m-1.602-5.356a8.147 8.147 0 1 1-7.07 12.196 6.28 6.28 0 0 1-5.894 4.097c-3.926 0-6.88-3.558-6.176-7.414l-1.399-.804a.49.49 0 0 1-.18-.668l5.192-9.32a.5.5 0 0 1 .434-.255h10.847l2.473-4.648-1.277-.734a.497.497 0 0 1 .004-.864L24.457.484a.491.491 0 0 1 .738.43v7.102a.49.49 0 0 1-.77.406l-1.202-.692-2.532 4.739q.324-.029.664-.028M13.63 23.184a8.3 8.3 0 0 1-.422-2.598c0-.102 0-.215.008-.316a5.3 5.3 0 0 0-1.906-2.239 5.31 5.31 0 0 0-6.66.672 5.293 5.293 0 0 0 0 7.485 5.28 5.28 0 0 0 7.25.214 5.24 5.24 0 0 0 1.73-3.218m-.2-4.493a8.1 8.1 0 0 1 2.54-4.21H8.438l-.973 1.75a6.29 6.29 0 0 1 5.965 2.46m3.934-5.207a8 8 0 0 1 2.11-.824l3.113-5.828a.49.49 0 0 1 .695-.219l.93.54V1.765l-4.668 2.691.941.54a.5.5 0 0 1 .203.667l-2.82 5.297a.49.49 0 0 1-.453.305H6.543l-4.809 8.632.739.43a6.3 6.3 0 0 1 3.66-3.746l1.558-2.805a.5.5 0 0 1 .454-.293Zm9.047 2.04c-2.789-2.79-7.32-2.79-10.113 0A7.15 7.15 0 1 0 26.41 25.636c2.793-2.79 2.793-7.317 0-10.114M8.39 20.812c1.45 0 2.184 1.765 1.157 2.792-1.024 1.024-2.79.297-2.79-1.156 0-.906.731-1.637 1.634-1.637m.45 1.183c-.402-.402-1.098-.117-1.098.453s.696.856 1.098.453a.634.634 0 0 0 0-.906m.703-2.324c.238.098.465.234.672.39.094-.054.215-.132.312-.156l.715-.183a.5.5 0 0 1 .57.261l.434.758a.494.494 0 0 1-.07.59l-.512.535c-.07.07-.203.133-.293.188.04.277.04.504 0 .785.09.05.223.117.293.187l.512.532c.164.168.183.43.058.617l-.214.37-.227.392a.5.5 0 0 1-.55.23l-.716-.18c-.097-.027-.214-.105-.312-.156a2.8 2.8 0 0 1-.672.39c0 .13.012.247-.027.376l-.196.683a.49.49 0 0 1-.472.364h-.91a.495.495 0 0 1-.485-.399c-.047-.187-.21-.676-.21-.816v-.215a3 3 0 0 1-.673-.39c-.093.054-.215.136-.312.155l-.723.184a.49.49 0 0 1-.562-.262l-.442-.757a.495.495 0 0 1 .082-.606c.133-.129.496-.531.614-.598l.18-.109a3.2 3.2 0 0 1 0-.777c-.11-.067-.22-.117-.305-.203l-.508-.52a.5.5 0 0 1-.07-.59l.453-.785a.51.51 0 0 1 .554-.234l.719.183c.098.024.215.102.305.157.207-.157.437-.293.675-.391 0-.137-.011-.254.028-.375l.187-.684a.49.49 0 0 1 .473-.363h.91c.238 0 .442.168.485.39.046.188.21.676.21.817v.215Zm-.152 1.031a2.1 2.1 0 0 0-.453-.195.495.495 0 0 1-.391-.485v-.5l-.078-.28h-.153l-.078.28v.5a.504.504 0 0 1-.37.48c-.321.083-.65.27-.876.505a.51.51 0 0 1-.613.094l-.426-.25-.293-.079-.078.137.207.215.422.242c.195.11.3.336.242.559a2 2 0 0 0 0 1.023.51.51 0 0 1-.23.567l-.426.246-.207.215.078.136.289-.074.43-.246a.5.5 0 0 1 .597.078c.227.223.559.43.871.508.22.05.387.246.387.484v.5l.078.282h.157l.078-.282v-.5a.5.5 0 0 1 .37-.48c.317-.082.65-.266.884-.504a.5.5 0 0 1 .609-.094l.43.25.289.07.039-.07.039-.074-.215-.215-.395-.23a.494.494 0 0 1-.257-.575c.09-.336.09-.691 0-1.03a.484.484 0 0 1 .23-.552l.43-.246.215-.215-.078-.136-.293.078-.426.246a.49.49 0 0 1-.598-.078c-.144-.11-.281-.215-.437-.305m0 0"/></g></svg>