<svg xmlns="http://www.w3.org/2000/svg" width="40" height="40" version="1.0" viewBox="0 0 30 30"><defs><clipPath id="a"><path d="M25.563 11.39h3.058v6.829h-3.058Zm0 0"/></clipPath><clipPath id="b"><path d="M1.04 11H5v8H1.04Zm0 0"/></clipPath><clipPath id="c"><path d="M7 1.828h16V6H7Zm0 0"/></clipPath><clipPath id="d"><path d="M12.234 25.293h5.43v1.887h-5.43Zm0 0"/></clipPath></defs><path fill="#fff" d="m10.488 21.781.27.149a8.7 8.7 0 0 0 4.199 1.078 8.65 8.65 0 0 0 6.156-2.551 8.65 8.65 0 0 0 2.551-6.156 8.65 8.65 0 0 0-2.55-6.156 8.65 8.65 0 0 0-6.157-2.551 8.65 8.65 0 0 0-6.16 2.55 8.65 8.65 0 0 0-2.547 6.157c0 1.457.363 2.898 1.059 4.168l.148.27-1.113 4.156Zm4.469 2.098a9.56 9.56 0 0 1-4.582-1.168L6.438 23.77a.798.798 0 0 1-.836-.285.78.78 0 0 1-.133-.684l1.058-3.953A9.54 9.54 0 0 1 5.38 14.3c0-2.559.996-4.965 2.805-6.774a9.52 9.52 0 0 1 6.773-2.804c2.559 0 4.961.996 6.77 2.804a9.52 9.52 0 0 1 2.804 6.774c0 2.558-.996 4.96-2.804 6.773a9.5 9.5 0 0 1-6.77 2.805"/><path fill="#fff" d="M23.59 5.883a12.12 12.12 0 0 0-8.633-3.578c-3.266 0-6.332 1.27-8.637 3.578a12.13 12.13 0 0 0-3.578 8.637c0 1.128.153 2.238.45 3.296l.761-.21a11.4 11.4 0 0 1-.422-3.086c0-6.301 5.125-11.426 11.426-11.426 6.3 0 11.426 5.125 11.426 11.426 0 6.296-5.125 11.425-11.426 11.425v.785c3.262 0 6.328-1.27 8.633-3.578a12.12 12.12 0 0 0 3.578-8.632c0-3.262-1.27-6.332-3.578-8.637"/><g clip-path="url(#a)"><path fill="#fff" d="M28.738 13.469v-.082a1.56 1.56 0 0 0-1.3-1.559l-.735-.094a.3.3 0 0 0-.05-.097.4.4 0 0 0-.141-.137.53.53 0 0 0-.367-.086h-.004a.53.53 0 0 0-.461.574 25.5 25.5 0 0 1-.106 5.563.54.54 0 0 0 .453.597h.008a.532.532 0 0 0 .582-.367c.067.004.14.004.14.004.165.008.485 0 .575-.012q.005 0 .016-.003a1.56 1.56 0 0 0 1.355-1.524v-.078a1 1 0 0 0 .23-.617l.028-1.434a1 1 0 0 0-.223-.648"/></g><g clip-path="url(#b)"><path fill="#fff" d="m1.273 13.469-.003-.082a1.56 1.56 0 0 1 1.3-1.559l.735-.094a.3.3 0 0 1 .05-.097.4.4 0 0 1 .141-.137.53.53 0 0 1 .367-.086h.004c.285.04.488.29.461.574a26 26 0 0 0 .106 5.563.534.534 0 0 1-.454.597h-.003a.532.532 0 0 1-.586-.367c-.067.004-.141.004-.141.004-.164.008-.484 0-.57-.012q-.011 0-.016-.003a1.565 1.565 0 0 1-1.36-1.524v-.078a1 1 0 0 1-.23-.617l-.027-1.434a.98.98 0 0 1 .226-.648"/></g><g clip-path="url(#c)"><path fill="#fff" d="M22.777 4.867a.82.82 0 0 0-.336-.57 12.53 12.53 0 0 0-7.484-2.45c-2.723 0-5.312.848-7.488 2.45a.84.84 0 0 0-.336.57.87.87 0 0 0 .187.645l.008.011a.85.85 0 0 0 1.152.145 10.88 10.88 0 0 1 6.477-2.121c2.344 0 4.582.734 6.473 2.121.144.105.316.16.5.16.254 0 .492-.11.652-.305l.008-.011a.86.86 0 0 0 .187-.645"/></g><g clip-path="url(#d)"><path fill="#fff" d="M16.762 27.18h-3.61a.903.903 0 0 1-.902-.903v-.02c0-.495.406-.902.902-.902h3.61c.496 0 .902.407.902.903v.02c0 .5-.406.902-.902.902"/></g><path fill="#fff" d="M11.336 15.621H9.934l1.168-1.328c.14-.16.261-.328.355-.508.098-.18.148-.36.148-.531 0-.27-.054-.512-.156-.715a1.15 1.15 0 0 0-.453-.48 1.37 1.37 0 0 0-.676-.168 1.33 1.33 0 0 0-1.36 1.363c0 .09.036.172.103.238a.33.33 0 0 0 .242.098c.097 0 .18-.031.246-.102a.33.33 0 0 0 .094-.234q0-.194.09-.36a.7.7 0 0 1 .245-.265.64.64 0 0 1 .34-.098c.196 0 .344.063.453.192.114.132.172.312.172.53q-.002.269-.332.65l-1.558 1.82a.34.34 0 0 0-.094.238q.002.14.098.238.099.103.246.102h2.03q.148.001.247-.098a.33.33 0 0 0 .102-.242.33.33 0 0 0-.102-.242.33.33 0 0 0-.246-.098M14.05 13.129v1.574h-1.195Zm1.173 1.648a.37.37 0 0 0-.243-.074h-.27v-2.465a.35.35 0 0 0-.085-.242.29.29 0 0 0-.234-.105.34.34 0 0 0-.278.148l-2.101 2.754a.338.338 0 0 0 .023.438.34.34 0 0 0 .25.101h1.766v.629q0 .14.094.238.094.103.23.102a.3.3 0 0 0 .238-.102.32.32 0 0 0 .098-.238v-.629h.27q.136 0 .238-.09a.3.3 0 0 0 .101-.226q.002-.16-.097-.239M17.621 11.89a.36.36 0 0 0-.187.055.3.3 0 0 0-.13.153l-1.652 4.129a.4.4 0 0 0-.03.144.334.334 0 0 0 .339.336.4.4 0 0 0 .187-.047.3.3 0 0 0 .13-.156l1.652-4.133a.5.5 0 0 0 .027-.14.35.35 0 0 0-.098-.243.34.34 0 0 0-.238-.097M20.852 11.992a.33.33 0 0 0-.243-.101h-2.09a.333.333 0 0 0-.34.343q0 .148.098.243a.32.32 0 0 0 .243.097h1.57l-1.531 3.184a.44.44 0 0 0-.059.203q0 .142.102.242a.33.33 0 0 0 .238.098.36.36 0 0 0 .176-.047.32.32 0 0 0 .132-.137l.004-.004 1.754-3.703.004-.004a.5.5 0 0 0 .043-.172.33.33 0 0 0-.101-.242"/></svg>