<svg xmlns="http://www.w3.org/2000/svg" width="40" height="40" version="1.0" viewBox="0 0 30 30"><defs><clipPath id="a"><path d="M.484.262h29.032V28.57H.484Zm0 0"/></clipPath></defs><path fill="#061c3d" d="M12.992 3.695h12.64a.432.432 0 1 0 0-.863h-12.64a.433.433 0 1 0 0 .863M2.566 3.738h.016a.433.433 0 1 0 0-.867h-.016a.435.435 0 0 0-.433.434c0 .238.195.433.433.433M4.95 3.738h.015a.435.435 0 0 0 .433-.433.435.435 0 0 0-.433-.434h-.016a.435.435 0 0 0-.433.434c0 .238.195.433.433.433M7.316 3.738h.016a.435.435 0 0 0 .434-.433.435.435 0 0 0-.434-.434h-.016a.433.433 0 1 0 0 .867M11.516 14.656c-.79.149-1.41-.05-1.75-.562a1.6 1.6 0 0 1-.004-1.727c.34-.52.965-.726 1.758-.582a.432.432 0 1 0 .152-.852c-1.137-.206-2.098.141-2.637.958a2.5 2.5 0 0 0 .008 2.687c.434.645 1.137.992 1.984.992q.313 0 .649-.062a.436.436 0 0 0 .347-.508.437.437 0 0 0-.507-.344M16.758 10.941a.44.44 0 0 0-.488.192l-1.184 1.953-1.184-1.953a.44.44 0 0 0-.488-.192.43.43 0 0 0-.316.418v3.723c0 .238.195.434.433.434a.435.435 0 0 0 .434-.434v-2.176l.75 1.239a.43.43 0 0 0 .37.207.43.43 0 0 0 .372-.207l.75-1.239v2.176c0 .238.195.434.434.434a.435.435 0 0 0 .433-.434v-3.723a.43.43 0 0 0-.316-.418M20.414 12.762c-.207-.055-.41-.055-.61-.055-.175-.004-.34-.004-.456-.047a.37.37 0 0 1-.254-.312.6.6 0 0 1 .226-.543c.242-.18.621-.168 1.063.039a.433.433 0 0 0 .363-.79c-1.008-.46-1.648-.163-1.941.06a1.44 1.44 0 0 0-.567 1.359c.067.468.371.84.813 1.004.258.093.52.093.75.093.148 0 .289.004.383.028.199.054.27.187.293.289.043.191-.04.41-.204.554-.308.27-.851.29-1.496.051a.432.432 0 1 0-.3.813c.437.16.808.222 1.125.222.628 0 1.027-.246 1.242-.433.41-.36.59-.899.476-1.403a1.26 1.26 0 0 0-.906-.93m0 0"/><path fill="#061c3d" d="M21.57 8.66H8.43a2.184 2.184 0 0 0-2.184 2.18v4.437c0 1.2.98 2.18 2.184 2.18h13.14c1.203 0 2.18-.98 2.18-2.18V10.84a2.18 2.18 0 0 0-2.18-2.18m1.313 6.617c0 .723-.59 1.313-1.313 1.313H8.43c-.727 0-1.317-.59-1.317-1.313V10.84c0-.723.59-1.313 1.317-1.313h13.14c.723 0 1.313.59 1.313 1.313Zm0 0"/><g clip-path="url(#a)"><path fill="#061c3d" d="M28.477.266H1.52C.8.266.215.848.215 1.566v25.899c0 .719.586 1.3 1.305 1.3h26.957c.722 0 1.304-.581 1.304-1.3V1.566c0-.718-.582-1.3-1.304-1.3m.441 1.3v3.715H9.609l1.715-4.148h17.153a.44.44 0 0 1 .441.433M1.52 1.133h8.867L8.672 5.28h-7.59V1.566c0-.238.195-.433.438-.433m6.113 26.765c.031-.98.84-1.77 1.836-1.77.992 0 1.8.79 1.832 1.77Zm4.535 0a2.7 2.7 0 0 0-2.7-2.632 2.7 2.7 0 0 0-2.702 2.632H4.21v-.375c0-.09.078-.164.168-.164h.55c.204 0 .38-.14.426-.336.102-.46.282-.894.532-1.293a.43.43 0 0 0-.063-.535l-.394-.394a.17.17 0 0 1-.047-.113c0-.028.008-.075.047-.118l.62-.617a.17.17 0 0 1 .235 0l.39.387c.141.144.368.168.536.062a4.1 4.1 0 0 1 1.3-.543.44.44 0 0 0 .337-.422v-.554c0-.09.074-.164.164-.164h.875c.09 0 .168.074.168.164v.543c0 .203.14.379.34.426.464.101.91.285 1.316.539.172.109.394.082.539-.059l.39-.39a.17.17 0 0 1 .235 0l.504.503c-.41.168-.7.57-.7 1.04v1.003c0 .621.505 1.125 1.122 1.125h.304l.094.282v.003Zm9.457 0h-3.918a2.73 2.73 0 0 1-.785-1.91 2.745 2.745 0 0 1 2.742-2.738 2.745 2.745 0 0 1 2.742 2.738c0 .715-.281 1.403-.781 1.91m2.848-.816a5 5 0 0 1-.27.816h-1.48c.355-.566.55-1.23.55-1.91a3.607 3.607 0 0 0-3.609-3.601 3.61 3.61 0 0 0-3.61 3.601c0 .68.196 1.344.551 1.91H15.13a5 5 0 0 1-.266-.816.43.43 0 0 0-.422-.336h-.64a.26.26 0 0 1-.258-.258v-1.004a.26.26 0 0 1 .258-.254h.636c.204 0 .38-.14.426-.335.121-.54.332-1.043.621-1.508a.44.44 0 0 0-.062-.54l-.453-.452a.25.25 0 0 1-.074-.18c0-.067.027-.133.074-.18l.71-.71a.267.267 0 0 1 .368 0l.45.445c.14.144.362.168.534.062q.71-.448 1.52-.637a.43.43 0 0 0 .332-.422v-.636c0-.14.117-.254.258-.254h1.011c.137 0 .254.117.254.254v.629c0 .199.14.375.34.422.55.12 1.067.335 1.54.632.171.11.394.082.538-.058l.45-.45a.26.26 0 0 1 .367 0l.71.708a.26.26 0 0 1 0 .363l-.449.449a.43.43 0 0 0-.062.54c.297.468.508.98.633 1.523a.43.43 0 0 0 .422.335h.636c.137 0 .254.118.254.254v1.004a.26.26 0 0 1-.254.258h-.636a.43.43 0 0 0-.422.336m4.004.816h-3.344c.035-.093.066-.191.094-.285h.304c.617 0 1.121-.504 1.121-1.125v-1.004c0-.617-.504-1.12-1.12-1.12h-.302a5.7 5.7 0 0 0-.48-1.157l.215-.21a1.12 1.12 0 0 0 0-1.587l-.715-.71a1.12 1.12 0 0 0-1.586 0l-.215.21a5.7 5.7 0 0 0-1.176-.48v-.293c0-.617-.503-1.121-1.12-1.121H19.14c-.618 0-1.121.504-1.121 1.12v.305a5.7 5.7 0 0 0-1.153.48l-.21-.21a1.13 1.13 0 0 0-1.587 0l-.715.71c-.21.212-.328.493-.328.794 0 .3.118.582.328.793l.22.219a6 6 0 0 0-.372.832 1 1 0 0 0-.098-.114l-.62-.617a1.034 1.034 0 0 0-1.458 0l-.156.156a5 5 0 0 0-.953-.39v-.211c0-.567-.461-1.031-1.031-1.031h-.875c-.57 0-1.032.464-1.032 1.03v.223a5 5 0 0 0-.93.387l-.152-.152a1.035 1.035 0 0 0-1.46 0l-.618.617a1.025 1.025 0 0 0 0 1.457l.157.16a5.2 5.2 0 0 0-.38.918H4.38c-.57 0-1.031.465-1.031 1.031v.375H1.52a.436.436 0 0 1-.438-.433V6.145h27.836v21.32a.44.44 0 0 1-.441.433m0 0"/></g></svg>