<svg xmlns="http://www.w3.org/2000/svg" width="40" height="40" version="1.0" viewBox="0 0 30 30"><defs><clipPath id="a"><path d="M2 2h27.516v27H2Zm0 0"/></clipPath><clipPath id="b"><path d="M.484 4H3v2H.484Zm0 0"/></clipPath></defs><path fill="#fff" d="M11.438 9.23a.956.956 0 0 0-.958.957.957.957 0 1 0 1.915 0 .96.96 0 0 0-.957-.957m0 1.153a.193.193 0 0 1-.196-.195c0-.106.086-.196.195-.196.106 0 .196.09.196.195 0 .11-.09.196-.195.196M13.555 9.23a.959.959 0 1 0 .003 1.918.959.959 0 0 0-.003-1.918m0 1.153a.193.193 0 0 1-.192-.195c0-.106.086-.196.192-.196.11 0 .195.09.195.195 0 .11-.086.196-.195.196M15.676 9.23a.956.956 0 0 0-.957.957.957.957 0 1 0 1.914 0 .956.956 0 0 0-.957-.957m0 1.153a.193.193 0 0 1-.196-.195c0-.106.086-.196.196-.196.105 0 .195.09.195.195 0 .11-.09.196-.195.196M17.066 17.555a1.929 1.929 0 1 0-.001 3.857 1.929 1.929 0 0 0 .001-3.857m0 3.093c-.644 0-1.164-.52-1.164-1.164s.52-1.164 1.164-1.164a1.164 1.164 0 0 1 0 2.328M4.73 24.559c.149.148.391.152.543.003l1.043-1.03a.38.38 0 0 0 .004-.54l-1.03-1.047a.382.382 0 1 0-.544.54l.762.769-.774.766a.386.386 0 0 0-.004.539M7.074 23.625h2.23a.38.38 0 1 0 0-.762h-2.23a.38.38 0 1 0 0 .762M22.176 11.371a.383.383 0 0 0 .55-.531l-.624-.645.64-.625a.38.38 0 0 0 .008-.539.38.38 0 0 0-.54-.008l-.917.891a.38.38 0 0 0-.008.54ZM26.262 10.21l-.625.642a.38.38 0 0 0 .008.539.38.38 0 0 0 .539-.004l.89-.918a.383.383 0 0 0-.008-.543l-.914-.89a.39.39 0 0 0-.543.007.39.39 0 0 0 .008.543ZM23.617 11.688a.38.38 0 0 0 .492-.223l.86-2.285a.381.381 0 1 0-.715-.27l-.86 2.285a.38.38 0 0 0 .223.492m0 0"/><g clip-path="url(#a)"><path fill="#fff" d="M27.992 2.668c-.86 0-1.558.7-1.558 1.559 0 .144.027.28.066.414l-.61.324a.38.38 0 0 0-.203.336v1.5h-1.054V5.082a1.554 1.554 0 0 0-.383-3.062 1.555 1.555 0 0 0-.379 3.062v1.719h-1.195V5.3a.38.38 0 0 0-.203-.336l-.61-.324c.035-.133.063-.27.063-.414a1.557 1.557 0 1 0-3.113 0 1.555 1.555 0 0 0 2.675 1.082l.422.222v1.27h-1.152a.764.764 0 0 0-.766.761v.59H10.07c-.633 0-1.148.512-1.148 1.145v8.258H4.598a.78.78 0 0 0-.547.23l-1.082 1.11a.78.78 0 0 0-.215.535v8.754c0 .421.344.765.766.765h6.957a.764.764 0 0 0 .765-.765v-8.106h1.656c-.03.64.418 1.293 1.204 1.309a.47.47 0 0 1 .449.566c-.258 1.254 1.332 2.02 2.152 1.035a.474.474 0 0 1 .723 0c.82.985 2.41.219 2.156-1.035a.47.47 0 0 1 .45-.566c.784-.016 1.234-.668 1.202-1.309h2.825c.632 0 1.148-.512 1.148-1.144v-5.356h2.398a.767.767 0 0 0 .766-.765v-5.25a.764.764 0 0 0-.766-.762H26.45V5.53l.426-.222a1.555 1.555 0 0 0 2.676-1.082c0-.86-.696-1.559-1.559-1.559M20.367 5.02a.794.794 0 0 1 0-1.586c.442 0 .797.355.797.793a.794.794 0 0 1-.797.793m3.09-1.442c0-.441.355-.797.793-.797a.794.794 0 0 1 0 1.59.794.794 0 0 1-.793-.793M9.687 9.297c0-.211.172-.383.383-.383h9.922V11.5H9.688Zm.79 18.887H3.52V19.43l1.078-1.11h5.879Zm9.535-7.559a1.233 1.233 0 0 0-1.18 1.48c.098.477-.508.77-.82.395a1.235 1.235 0 0 0-1.895 0c-.312.375-.918.082-.82-.395a1.23 1.23 0 0 0-1.18-1.48c-.488-.012-.637-.668-.203-.887a1.235 1.235 0 0 0 .422-1.847c-.293-.387.125-.914.566-.711a1.236 1.236 0 0 0 1.707-.825c.121-.468.793-.468.91 0a1.237 1.237 0 0 0 1.708.825c.441-.203.863.324.566.71a1.237 1.237 0 0 0 .422 1.848c.433.219.285.875-.203.887m4.43-1.691c0 .21-.172.382-.383.382h-3.145a1.4 1.4 0 0 0-.352-.261.468.468 0 0 1-.16-.703c.774-1.02-.324-2.399-1.492-1.868a.47.47 0 0 1-.648-.312c-.313-1.242-2.078-1.242-2.395 0a.47.47 0 0 1-.648.312c-1.164-.53-2.266.848-1.492 1.868.18.234.101.57-.16.703q-.207.11-.348.261h-1.977v-.996a.764.764 0 0 0-.765-.765h-.79v-5.293h10.305v.55c0 .422.344.766.766.766h3.683Zm3.163-11.372v5.25h-6.847v-5.25Zm.387-2.542a.794.794 0 1 1 .001-1.588.794.794 0 0 1 0 1.588m0 0"/></g><path fill="#fff" d="m8.754 1.352-.629.832a.385.385 0 0 0 .074.535c.168.125.41.094.535-.074l.63-.829a.38.38 0 0 0-.075-.535.38.38 0 0 0-.535.07m0 0"/><path fill="#fff" d="M3.645 8.66c.3.238.476.531.476.817v.609c0 .473.285.879.695 1.055v.125c0 .523.422.945.946.945a.945.945 0 0 0 .945-1l-.004-.059c.43-.164.738-.578.738-1.066v-.61c0-.285.176-.578.473-.816a3.75 3.75 0 0 0 1.402-2.953C9.316 3.676 7.75 2 5.781 2 3.81 2 2.242 3.676 2.242 5.707c0 1.203.547 2.277 1.403 2.953m2.117 2.79a.183.183 0 0 1-.184-.184v-.036h.367v.024a.186.186 0 0 1-.183.195m.914-1.364c0 .21-.172.383-.383.383H5.266a.383.383 0 0 1-.383-.383v-.52h1.793ZM5.78 2.762c1.512 0 2.77 1.3 2.77 2.945 0 .969-.438 1.82-1.114 2.356a2.15 2.15 0 0 0-.601.738H4.723a2.15 2.15 0 0 0-.602-.739 3 3 0 0 1-1.113-2.355c0-1.644 1.258-2.945 2.773-2.945M5.398.43v1.039a.38.38 0 1 0 .762 0V.429a.38.38 0 1 0-.762 0m0 0"/><path fill="#fff" d="M2.293 1.246a.38.38 0 0 0-.07.535l.625.832a.38.38 0 0 0 .535.07.38.38 0 0 0 .074-.535l-.629-.828a.384.384 0 0 0-.535-.074M9.938 4.492a.38.38 0 0 0-.333.426.385.385 0 0 0 .426.332l1.031-.129a.377.377 0 0 0 .333-.426.383.383 0 0 0-.426-.332Zm0 0"/><g clip-path="url(#b)"><path fill="#fff" d="M1.984 4.426.954 4.3a.384.384 0 0 0-.427.332.383.383 0 0 0 .332.426l1.036.128a.387.387 0 0 0 .425-.335.387.387 0 0 0-.336-.426m0 0"/></g><path fill="#fff" d="M27.21 25.96h-.94q-.053.002-.098.009a.8.8 0 0 0 .098-.371v-.938a.767.767 0 0 0-.766-.765h-.938c-.039 0-.078.007-.117.011a.74.74 0 0 0 .102-.37v-.938a.767.767 0 0 0-.766-.766h-.937a.767.767 0 0 0-.766.766v.937c0 .223.098.422.25.563a.76.76 0 0 0-.25.562v.938c0 .226.098.425.25.562a.76.76 0 0 0-.25.563v.941c0 .422.344.762.766.762h.937c.145 0 .277-.04.39-.11.114.07.247.11.391.11h.938c.14 0 .27-.04.383-.106a.75.75 0 0 0 .383.106h.94a.76.76 0 0 0 .763-.762v-.941a.76.76 0 0 0-.762-.762m-3.425 1.704h-.937v-.941h.937Zm0-2.066h-.937v-.938h.937Zm0-2.063h-.937v-.937h.937Zm1.719 4.13h-.938v-.942h.938Zm0-2.067h-.938v-.938h.938Zm1.707 2.066h-.941v-.941h.94Zm0 0"/></svg>