<svg xmlns="http://www.w3.org/2000/svg" width="40" height="40" version="1.0" viewBox="0 0 30 30"><defs><clipPath id="a"><path d="M.484 23h29.032v3.129H.484Zm0 0"/></clipPath></defs><path fill="#fff" d="M18.652 12.887a5.48 5.48 0 0 0 1.914-4.18 5.6 5.6 0 0 0-2.441-4.621c-1.262-.856-2.8-1.152-4.332-.836-2.055.438-3.746 2.102-4.211 4.14q-.039.179-.066.356a5.57 5.57 0 0 0 1.863 5.18 4 4 0 0 1 1.34 2.176h4.566c.192-.829.66-1.59 1.367-2.215m.36-5.953a.33.33 0 0 1 .418.187.324.324 0 0 1-.188.418.3.3 0 0 1-.113.024.33.33 0 0 1-.305-.211.33.33 0 0 1 .188-.418m-4.336-2.551c0-.176.144-.32.32-.32a4.7 4.7 0 0 1 3.766 1.859.324.324 0 0 1-.258.52.3.3 0 0 1-.2-.083c-.019-.015-.038-.023-.054-.046a4.07 4.07 0 0 0-3.254-1.606.323.323 0 0 1-.32-.324M17.172 15.98c0-.082.004-.156.008-.234h-4.367q.01.116.011.227v1.23h4.348ZM14.035 21.406h1.934c.168 0 .3-.136.3-.308v-1.196H13.73v1.2c0 .168.137.304.305.304m0 0"/><path fill="#fff" d="M25.965 9.246c0-.68-.547-1.23-1.227-1.23h-3.566a1 1 0 0 1 .004.097l.012.11a6.122 6.122 0 0 1-2.117 5.148c-.665.594-1.083 1.32-1.208 2.102q.001.004-.004.007v.004c-.007.051-.015.102-.015.153q-.002.016-.004.039a2 2 0 0 0-.027.304v2.895c0 .52-.395.95-.899 1.012v1.21a.954.954 0 0 1-.95.954h-1.933a.954.954 0 0 1-.949-.953v-1.211a1.025 1.025 0 0 1-.906-1.012v-2.902c0-.11-.012-.211-.02-.317a1 1 0 0 0-.02-.148c-.003-.004 0-.012 0-.016l-.011-.027a3.33 3.33 0 0 0-1.172-2.055c-.098-.086-.2-.18-.293-.27-.031-.03-.058-.062-.094-.093q-.088-.094-.18-.188c-.034-.039-.066-.082-.1-.12-.056-.06-.102-.118-.15-.177l-.105-.132c-.043-.059-.09-.117-.133-.18q-.046-.07-.093-.14-.06-.088-.117-.18-.047-.076-.086-.153c-.036-.062-.07-.12-.102-.183l-.082-.16a4 4 0 0 0-.09-.184l-.07-.164c-.028-.063-.051-.129-.078-.191a8 8 0 0 1-.125-.368l-.047-.168c-.02-.07-.035-.136-.055-.203l-.035-.172c-.02-.07-.027-.14-.04-.21l-.03-.172c-.008-.07-.02-.145-.024-.215q-.012-.087-.02-.172l-.011-.223q-.007-.086-.008-.168v-.238c0-.05 0-.106.004-.156.004-.086.012-.168.016-.254l.011-.145v-.02H5.262c-.68 0-1.235.555-1.235 1.231V23.34h21.938ZM5.684 10.762a.323.323 0 1 1 .645 0v.644a.325.325 0 0 1-.321.324.326.326 0 0 1-.324-.324Zm0 1.933a.323.323 0 0 1 .644 0v.649a.322.322 0 0 1-.644 0Zm0 1.938a.323.323 0 1 1 .645 0v.644a.325.325 0 0 1-.321.325.326.326 0 0 1-.324-.325Zm0 1.933a.323.323 0 0 1 .644 0v.649a.322.322 0 0 1-.644 0Zm2.945 5.243H6.008a.323.323 0 0 1-.324-.32v-2.942a.323.323 0 1 1 .645 0v2.617h2.3c.176 0 .324.145.324.324 0 .176-.148.32-.324.32m16.23-1.02a.323.323 0 1 1-.645 0v-.644a.322.322 0 0 1 .645 0Zm0-1.934a.323.323 0 0 1-.644 0v-.644a.323.323 0 1 1 .644 0Zm0-2.582v.645a.323.323 0 1 1-.645 0v-6.621c0-.176.145-.324.321-.324.18 0 .324.148.324.324Zm0 0"/><g clip-path="url(#a)"><path fill="#fff" d="M.492 23.992c.07.524.309 1.012.692 1.395.457.46 1.066.715 1.718.715H27.09a2.444 2.444 0 0 0 2.418-2.11Zm0 0"/></g><path fill="#fff" d="M17.172 18.875v-1.027h-4.348v1.027c0 .207.172.379.387.379h3.574c.211 0 .387-.172.387-.379m0 0"/></svg>