<svg xmlns="http://www.w3.org/2000/svg" width="40" height="40" version="1.0" viewBox="0 0 30 30"><defs><clipPath id="a"><path d="M3 .488h21V28H3Zm0 0"/></clipPath><clipPath id="b"><path d="M.484 6H15v8H.484Zm0 0"/></clipPath><clipPath id="c"><path d="M15 14h14.516v7H15Zm0 0"/></clipPath><clipPath id="d"><path d="M.484 21H15v7.797H.484Zm0 0"/></clipPath></defs><path fill="#061c3d" fill-rule="evenodd" d="M20.555 5.371h-13.2a.332.332 0 1 1 0-.664H20.56a.332.332 0 1 1-.004.664M20.555 8.977h-6.547a.335.335 0 0 1-.332-.336c0-.184.148-.332.332-.332h6.55c.184 0 .333.148.333.332a.336.336 0 0 1-.336.336M20.555 12.578h-6.547a.332.332 0 1 1 0-.664h6.55a.332.332 0 1 1-.003.664M10.07 16.18H7.355a.332.332 0 1 1 0-.664h2.715a.332.332 0 1 1 0 .664M20.555 23.387h-6.47a.332.332 0 1 1 0-.664h6.47c.183 0 .332.148.332.332a.33.33 0 0 1-.332.332M15.992 16.18h-2.664a.332.332 0 1 1 0-.664h2.664a.332.332 0 1 1 0 .664M13.957 19.781H7.355a.332.332 0 1 1 0-.664h6.602a.332.332 0 1 1 0 .664m0 0"/><g clip-path="url(#a)"><path fill="#061c3d" fill-rule="evenodd" d="M23.598 14.734a.335.335 0 0 1-.336-.332V2.91c0-.965-.785-1.754-1.754-1.754H6.406c-.968 0-1.758.785-1.758 1.754v4.086a.332.332 0 1 1-.664 0V2.91A2.423 2.423 0 0 1 6.406.492h15.102A2.423 2.423 0 0 1 23.93 2.91v11.492a.33.33 0 0 1-.332.332M4.316 22.281a.33.33 0 0 1-.332-.332V13.25a.332.332 0 1 1 .664 0v8.7a.33.33 0 0 1-.332.331m17.192 5.32h-7.422a.332.332 0 1 1 0-.663h7.422c.969 0 1.754-.79 1.754-1.758v-4.528c0-.183.152-.332.336-.332.183 0 .332.149.332.332v4.528a2.424 2.424 0 0 1-2.422 2.422m0 0"/></g><path fill="#061c3d" fill-rule="evenodd" d="M22.945 19.457c-.726 0-1.316-.488-1.316-1.09a.332.332 0 1 1 .664 0c0 .227.305.426.652.426s.653-.2.653-.426c0-.23-.293-.36-.782-.543-.527-.199-1.187-.445-1.187-1.137 0-.601.59-1.09 1.316-1.09s1.317.489 1.317 1.09a.332.332 0 1 1-.664 0c0-.226-.305-.425-.653-.425-.347 0-.652.199-.652.425 0 .215.3.344.758.516.539.203 1.21.457 1.21 1.164 0 .602-.59 1.09-1.316 1.09M19.61 19.457c-1.106 0-2.005-.867-2.005-1.93 0-1.066.899-1.93 2.004-1.93.43 0 .86.137 1.203.387a.327.327 0 0 1 .075.461.336.336 0 0 1-.465.078 1.4 1.4 0 0 0-.813-.261c-.738 0-1.34.566-1.34 1.265 0 .7.602 1.266 1.34 1.266.293 0 .582-.094.813-.262a.336.336 0 0 1 .465.078.327.327 0 0 1-.075.461c-.343.25-.773.387-1.203.387M26.258 19.457c-.727 0-1.317-.488-1.317-1.09a.332.332 0 1 1 .664 0c0 .227.305.426.653.426.347 0 .648-.2.648-.426 0-.23-.293-.36-.777-.543-.527-.199-1.188-.445-1.188-1.137 0-.601.59-1.09 1.317-1.09.722 0 1.316.489 1.316 1.09a.33.33 0 0 1-.332.333.335.335 0 0 1-.336-.332c0-.227-.3-.426-.648-.426s-.653.199-.653.425c0 .215.301.344.758.516.54.203 1.211.457 1.211 1.164 0 .602-.59 1.09-1.316 1.09M2.176 11.734a.33.33 0 0 1-.332-.332V8.848c0-.184.148-.336.332-.336.183 0 .332.152.332.336v2.554a.33.33 0 0 1-.332.332M3.762 11.734a.335.335 0 0 1-.336-.332V8.848c0-.184.152-.336.336-.336.183 0 .332.152.332.336v2.554a.33.33 0 0 1-.332.332m0 0"/><path fill="#061c3d" fill-rule="evenodd" d="M3.762 10.453H2.176a.332.332 0 1 1 0-.664h1.586a.332.332 0 1 1 0 .664M9.945 11.734a.33.33 0 0 1-.332-.332v-.906l-.433 1.035a.334.334 0 0 1-.614 0l-.433-1.035v.906a.335.335 0 0 1-.336.332.33.33 0 0 1-.332-.332V8.844a.334.334 0 0 1 .64-.125l.77 1.824.766-1.824a.332.332 0 0 1 .64.125v2.558a.335.335 0 0 1-.336.332M12.645 11.734H10.89a.33.33 0 0 1-.332-.332V8.848c0-.184.148-.336.332-.336.183 0 .332.152.332.336v2.222h1.422a.332.332 0 1 1 0 .664M6.855 9.176H4.703a.332.332 0 1 1 0-.664h2.152a.332.332 0 1 1 0 .664m0 0"/><path fill="#061c3d" fill-rule="evenodd" d="M5.781 11.734a.335.335 0 0 1-.336-.332V8.848c0-.184.153-.336.336-.336s.332.152.332.336v2.554a.33.33 0 0 1-.332.332M5.621 27.152a1.43 1.43 0 0 1-1.437-1.414.332.332 0 1 1 .664 0c0 .414.347.75.773.75.43 0 .777-.336.777-.75v-2.402c0-.184.149-.336.332-.336s.332.152.332.336v2.402c0 .778-.644 1.414-1.44 1.414M9.395 27.152c-.774 0-1.407-.523-1.407-1.16a.332.332 0 1 1 .664 0c0 .266.34.492.743.492.398 0 .738-.226.738-.492 0-.273-.328-.414-.867-.617-.57-.215-1.278-.48-1.278-1.21 0-.642.63-1.161 1.407-1.161.773 0 1.402.52 1.402 1.16a.332.332 0 1 1-.664 0c0-.27-.34-.496-.738-.496-.403 0-.743.227-.743.496 0 .25.32.39.848.586.578.219 1.297.492 1.297 1.242 0 .637-.629 1.16-1.402 1.16m0 0"/><g clip-path="url(#b)"><path fill="#061c3d" fill-rule="evenodd" d="M1.148 12.918h12.528v-5.59H1.148Zm12.86.664H.816a.33.33 0 0 1-.332-.332V6.996c0-.184.149-.332.332-.332h13.192c.183 0 .332.149.332.332v6.254a.33.33 0 0 1-.332.332m0 0"/></g><g clip-path="url(#c)"><path fill="#061c3d" fill-rule="evenodd" d="M16.324 20.32h12.528v-5.586H16.324Zm12.86.664H15.992a.33.33 0 0 1-.332-.332v-6.25c0-.183.149-.332.332-.332h13.192c.183 0 .332.149.332.332v6.25a.33.33 0 0 1-.332.332m0 0"/></g><g clip-path="url(#d)"><path fill="#061c3d" fill-rule="evenodd" d="M1.227 27.871h12.527v-5.59H1.227zm12.859.664H.895a.33.33 0 0 1-.332-.332V21.95c0-.183.148-.332.332-.332h13.19c.185 0 .333.149.333.332v6.254a.33.33 0 0 1-.332.332m0 0"/></g></svg>