<svg xmlns="http://www.w3.org/2000/svg" width="40" height="40" version="1.0" viewBox="0 0 30 30"><defs><clipPath id="a"><path d="M.484 2.54H24V25H.484Zm0 0"/></clipPath><clipPath id="b"><path d="M19 10h10.516v16.492H19Zm0 0"/></clipPath></defs><g clip-path="url(#a)"><path fill="#fff" fill-rule="evenodd" d="M23.602 4.387h-.957v-.469a.49.49 0 0 0-.489-.484H2.11a.485.485 0 0 0-.488.484V16.32c0 .27.219.489.488.489h10.98v3.824H10.98l-.718 2.863h2.828v.957H7.832a.476.476 0 0 1-.477-.476c0-.254.215-.48.485-.48h1.238a.25.25 0 0 0 .235-.184l.671-2.68H2.11a1.44 1.44 0 0 1-1.441-1.43V3.906c0-.793.637-1.43 1.441-1.43h20.047c.797 0 1.446.649 1.446 1.43Zm-11.47 15.289a.955.955 0 1 0-.953-.957c0 .527.426.957.954.957m0 0"/></g><path fill="#fff" fill-rule="evenodd" d="M27.422 9.164h-.957v-1.91H15v15.289h3.82v2.867h-3.336a1.435 1.435 0 0 1-1.441-1.437V6.78c0-.797.637-1.437 1.441-1.437h10.5c.797 0 1.438.636 1.438 1.437Zm0 0"/><g clip-path="url(#b)"><path fill="#fff" fill-rule="evenodd" d="M21.215 10.121h6.68c.796 0 1.437.637 1.437 1.438v13.367c0 .797-.637 1.437-1.437 1.437h-6.68a1.43 1.43 0 0 1-1.438-1.437V11.559c0-.797.637-1.438 1.438-1.438m-.48 12.422h7.644V12.031h-7.645Zm3.82 2.867c.527 0 .957-.43.957-.957a.955.955 0 1 0-1.91 0c0 .527.425.957.953.957m0 0"/></g></svg>