<svg xmlns="http://www.w3.org/2000/svg" width="40" height="40" version="1.0" viewBox="0 0 30 30"><defs><clipPath id="a"><path d="M7 12h12v17.031H7Zm0 0"/></clipPath></defs><path fill="#061c3d" fill-rule="evenodd" d="M27.238 22.297h-4.73l.05-.067a.9.9 0 0 0 .087-.699.95.95 0 0 0-.426-.543l-.645-.375v-.152l.63-.36h3.858a.34.34 0 0 0 .34-.34V5.36h2.282v15.493c0 .8-.649 1.445-1.446 1.445M25.723 5.359v14.063H22.66a.8.8 0 0 0-.101-.559l-.95-1.652a.85.85 0 0 0-.562-.426.88.88 0 0 0-.68.086l-.648.375c-.032-.035-.086-.05-.137-.086v-.73a.91.91 0 0 0-.898-.918h-.051V13.18c0-.934-.766-1.7-1.703-1.7H9.023c-.937 0-1.703.766-1.703 1.7v6.242H4.277V5.359Zm-22.125 0v14.403c0 .187.152.34.34.34H7.32v2.195H2.762a1.445 1.445 0 0 1-1.446-1.445V5.359Zm-2.282-.683v-3.23C1.316.644 1.965 0 2.762 0h19.933v4.676ZM23.375 0h3.863c.797 0 1.446.645 1.446 1.445v3.23h-5.309Zm3.555 3.012h-2.211a.343.343 0 0 1 0-.684h2.21a.343.343 0 0 1 0 .684m-6.106 0H13.75a.343.343 0 0 1 0-.684h7.074a.343.343 0 0 1 0 .684m-9.879.918h-.715a.894.894 0 0 1-.886-.903v-.715c0-.492.39-.882.886-.882h.715c.492 0 .883.39.883.883v.714c0 .493-.39.903-.883.903m-.715-1.82a.21.21 0 0 0-.207.203v.714c0 .118.086.223.207.223h.715c.117 0 .203-.105.203-.223v-.715a.207.207 0 0 0-.203-.203ZM7.61 3.93h-.715a.894.894 0 0 1-.883-.903v-.715c0-.492.39-.882.883-.882h.714a.88.88 0 0 1 .887.883v.714a.897.897 0 0 1-.887.903m-.715-1.82a.207.207 0 0 0-.204.203v.714c0 .118.086.223.204.223h.714c.121 0 .204-.105.204-.223v-.715a.204.204 0 0 0-.204-.203ZM4.277 3.93h-.715a.894.894 0 0 1-.882-.903v-.715c0-.492.39-.882.882-.882h.715c.493 0 .883.39.883.883v.714c0 .493-.39.903-.883.903m-.715-1.82a.22.22 0 0 0-.203.203v.714c0 .118.102.223.204.223h.714c.118 0 .203-.105.203-.223v-.715a.207.207 0 0 0-.203-.203Zm0 0"/><g clip-path="url(#a)"><path fill="#061c3d" fill-rule="evenodd" d="M16.93 29.031H9.023c-.632 0-1.14-.508-1.14-1.136v-.852H18.07v.852c0 .628-.511 1.136-1.14 1.136m-2.227-.715H11.25a.34.34 0 0 1 0-.68h3.453a.33.33 0 0 1 .34.34.33.33 0 0 1-.34.34m-6.82-1.953V13.18c0-.61.508-1.121 1.14-1.121h1.547v1.039c0 .578.457 1.035 1.035 1.035h2.739a1.03 1.03 0 0 0 1.039-1.035v-1.04h1.547c.629 0 1.14.512 1.14 1.122v2.332h-1.293a.91.91 0 0 0-.902.918v.73c-.05.035-.086.05-.137.086l-.644-.375a.906.906 0 0 0-1.242.34l-.954 1.652a.86.86 0 0 0-.082.68.9.9 0 0 0 .422.543l.649.375v.152l-.649.375a.914.914 0 0 0-.34 1.242l.954 1.649a.915.915 0 0 0 1.242.324l.644-.375c.051.035.086.067.137.086v.73c0 .512.41.919.902.919h1.293v.8ZM11.25 12.06h3.453v1.039a.35.35 0 0 1-.36.355h-2.738a.347.347 0 0 1-.355-.355Zm0 0"/></g><path fill="#061c3d" fill-rule="evenodd" d="M18.684 24.984h-1.907a.34.34 0 0 1-.34-.34v-1.09a4 4 0 0 1-.68-.39l-.937.543a.335.335 0 0 1-.476-.117l-.95-1.649c-.035-.086-.054-.171-.035-.257.036-.082.086-.168.168-.204l.938-.543c-.02-.136-.02-.273-.02-.39 0-.137 0-.274.02-.395l-.938-.543a.46.46 0 0 1-.168-.218.43.43 0 0 1 .036-.258l.949-1.649c.101-.152.308-.222.476-.12l.938.546a4 4 0 0 1 .68-.39v-1.09a.34.34 0 0 1 .34-.34h1.906a.34.34 0 0 1 .34.34v1.09c.238.101.456.238.68.39l.952-.547c.067-.05.168-.05.254-.031.086.016.152.082.203.152l.953 1.649a.357.357 0 0 1-.136.476l-.934.543c.016.121.016.258.016.395 0 .117 0 .254-.016.39l.934.543c.086.036.136.122.172.204a.46.46 0 0 1-.036.257l-.953 1.649a.3.3 0 0 1-.203.152.26.26 0 0 1-.254-.035l-.953-.543c-.223.152-.441.29-.68.39v1.09a.34.34 0 0 1-.34.34m-.954-2.433a2.01 2.01 0 0 1-2.007-2.004c0-1.106.902-2.008 2.007-2.008 1.106 0 2.008.902 2.008 2.008a2.01 2.01 0 0 1-2.008 2.004m0-3.332a1.33 1.33 0 0 0-1.328 1.328 1.325 1.325 0 1 0 1.328-1.328m0 0"/></svg>