<svg xmlns="http://www.w3.org/2000/svg" width="40" height="40" version="1.0" viewBox="0 0 30 30"><defs><clipPath id="a"><path d="M.555 0H8v7H.555Zm0 0"/></clipPath><clipPath id="b"><path d="M.555 22H8v7.031H.555Zm0 0"/></clipPath><clipPath id="c"><path d="M22 0h7.516v7H22Zm0 0"/></clipPath><clipPath id="d"><path d="M22 22h7.516v7.031H22Zm0 0"/></clipPath></defs><path fill="#fff" d="M15.7 24.48h-1.407a1.38 1.38 0 0 1-1.375-1.378v-1.555a7.4 7.4 0 0 1-1.418-.586l-1.102 1.098c-.535.539-1.41.539-1.949 0l-.992-.993a1.38 1.38 0 0 1 0-1.945l1.102-1.101a7.2 7.2 0 0 1-.586-1.418H6.414a1.38 1.38 0 0 1-1.375-1.38V13.82c0-.761.617-1.379 1.375-1.379h1.559c.144-.488.34-.964.586-1.418L7.457 9.926a1.384 1.384 0 0 1 0-1.95l.992-.992c.54-.539 1.41-.539 1.95 0L11.5 8.086a7 7 0 0 1 1.418-.59V5.941c0-.761.617-1.378 1.375-1.378h1.406c.758 0 1.375.617 1.375 1.378v1.555a7 7 0 0 1 1.418.59l1.102-1.102c.535-.539 1.41-.539 1.949 0l.992.993c.535.535.535 1.41 0 1.949l-1.101 1.097q.369.68.586 1.418h1.558c.758 0 1.375.618 1.375 1.38v1.402c0 .761-.617 1.379-1.375 1.379H22.02q-.217.737-.586 1.418l1.101 1.101a1.38 1.38 0 0 1 0 1.945l-.992.993c-.54.539-1.414.539-1.95 0l-1.1-1.098c-.45.242-.927.441-1.419.586v1.555c0 .761-.617 1.378-1.375 1.378m-4.262-4.367a.34.34 0 0 1 .19.055c.552.324 1.142.57 1.759.727a.38.38 0 0 1 .285.367v1.84c0 .347.277.625.621.625h1.406a.624.624 0 0 0 .621-.625v-1.84c0-.176.117-.325.285-.367a6.7 6.7 0 0 0 1.758-.727.37.37 0 0 1 .457.055l1.305 1.304c.246.243.64.243.883 0l.992-.992a.62.62 0 0 0 0-.883l-1.305-1.3a.38.38 0 0 1-.054-.461c.328-.547.57-1.141.726-1.758a.38.38 0 0 1 .367-.285h1.844a.62.62 0 0 0 .621-.621V13.82a.62.62 0 0 0-.62-.62h-1.845a.38.38 0 0 1-.367-.286 6.5 6.5 0 0 0-.726-1.758.37.37 0 0 1 .058-.457L22 9.395a.62.62 0 0 0 0-.883l-.992-.992a.627.627 0 0 0-.883 0l-1.3 1.3a.374.374 0 0 1-.462.059 6.4 6.4 0 0 0-1.758-.727.38.38 0 0 1-.28-.367V5.941a.627.627 0 0 0-.626-.625h-1.402a.627.627 0 0 0-.625.625v1.844a.37.37 0 0 1-.285.363 6.5 6.5 0 0 0-1.754.73.37.37 0 0 1-.461-.058L9.867 7.516a.627.627 0 0 0-.883 0l-.992.996a.61.61 0 0 0-.18.437c0 .168.063.324.18.442l1.305 1.304a.38.38 0 0 1 .055.461 6.7 6.7 0 0 0-.727 1.758.38.38 0 0 1-.367.281h-1.84a.624.624 0 0 0-.625.625v1.403c0 .343.281.625.625.625h1.84c.176 0 .324.117.367.285.156.617.402 1.207.727 1.754.09.148.066.34-.055.46l-1.305 1.305a.627.627 0 0 0 0 .883l.992.992c.243.243.641.243.883 0l1.305-1.304c.07-.07.168-.11.265-.11m0 0"/><path fill="#fff" d="M14.996 19.313a4.795 4.795 0 0 1-4.789-4.79c0-2.64 2.148-4.789 4.79-4.789 2.64 0 4.788 2.149 4.788 4.79s-2.148 4.789-4.789 4.789m0-8.825a4.04 4.04 0 0 0-4.035 4.035 4.04 4.04 0 0 0 4.035 4.036 4.04 4.04 0 0 0 4.035-4.036 4.04 4.04 0 0 0-4.035-4.035m0 0"/><g clip-path="url(#a)"><path fill="#fff" d="M5.7 6.914a.4.4 0 0 1-.27-.11L2.285 3.657l-.484.485a.378.378 0 0 1-.64-.215L.68.44a.38.38 0 0 1 .105-.32.38.38 0 0 1 .317-.105l3.488.48c.14.02.258.117.305.254a.38.38 0 0 1-.094.387l-.48.484L7.464 4.77a.373.373 0 0 1 0 .53l-1.5 1.505a.38.38 0 0 1-.266.11M2.284 2.746c.094 0 .192.035.266.11l3.148 3.148.969-.969L3.52 1.887a.373.373 0 0 1 0-.532l.214-.214L1.492.832l.309 2.238.215-.215a.38.38 0 0 1 .27-.109m0 0"/></g><g clip-path="url(#b)"><path fill="#fff" d="M.945 29.031a.37.37 0 0 1-.265-.11.37.37 0 0 1-.11-.316l.485-3.488a.38.38 0 0 1 .25-.305.37.37 0 0 1 .386.09l.485.485 3.148-3.145a.377.377 0 0 1 .535 0l1.5 1.5a.38.38 0 0 1 0 .531l-3.148 3.149.484.484c.102.102.137.25.094.387a.38.38 0 0 1-.309.254l-3.484.48q-.026.005-.05.004m.75-3.058-.308 2.242 2.242-.313-.215-.21a.377.377 0 0 1 0-.536l3.145-3.148-.97-.969-3.144 3.148a.38.38 0 0 1-.535 0Zm0 0"/></g><g clip-path="url(#c)"><path fill="#fff" d="M24.293 6.914a.38.38 0 0 1-.266-.11l-1.5-1.503a.373.373 0 0 1 0-.531l3.149-3.149-.485-.484a.38.38 0 0 1-.093-.387.38.38 0 0 1 .308-.254l3.485-.48a.38.38 0 0 1 .316.105.36.36 0 0 1 .105.32l-.48 3.485a.378.378 0 0 1-.64.215l-.485-.485-3.145 3.145a.37.37 0 0 1-.269.113m-.969-1.879.969.969 3.148-3.149a.384.384 0 0 1 .536 0l.214.215L28.5.832l-2.242.309.215.214a.373.373 0 0 1 0 .532Zm0 0"/></g><g clip-path="url(#d)"><path fill="#fff" d="M29.047 29.031q-.026.001-.05-.004l-3.485-.48a.37.37 0 0 1-.305-.254.38.38 0 0 1 .09-.387l.484-.484-3.148-3.145a.38.38 0 0 1 0-.535l1.504-1.5a.373.373 0 0 1 .531 0l3.148 3.149.485-.485a.38.38 0 0 1 .387-.093.38.38 0 0 1 .253.308l.48 3.484a.38.38 0 0 1-.105.317.4.4 0 0 1-.27.11m-2.684-1.129 2.242.313-.308-2.242-.215.215a.377.377 0 0 1-.535 0l-3.145-3.149-.968.969 3.144 3.148c.07.07.113.168.113.266a.38.38 0 0 1-.113.265Zm0 0"/></g></svg>