<svg xmlns="http://www.w3.org/2000/svg" width="40" height="40" version="1.0" viewBox="0 0 30 30"><defs><clipPath id="a"><path d="M.484 8h29.032v20.254H.484Zm0 0"/></clipPath><clipPath id="b"><path d="M9 .672h12V12H9Zm0 0"/></clipPath></defs><g clip-path="url(#a)"><path fill="#061c3d" d="M27.766 8.004h-5.754a.337.337 0 0 0-.336.34c0 .187.148.34.336.34h5.754a1.06 1.06 0 0 1 1.062 1.058v16.844a1.06 1.06 0 0 1-1.062 1.059H2.277a1.06 1.06 0 0 1-1.058-1.06V9.743a1.06 1.06 0 0 1 1.058-1.058h5.57a.34.34 0 0 0 0-.68h-5.57C1.32 8.004.54 8.785.54 9.742v16.844c0 .957.781 1.738 1.738 1.738h25.489a1.74 1.74 0 0 0 1.738-1.738V9.742a1.74 1.74 0 0 0-1.738-1.738m0 0"/></g><path fill="#061c3d" d="M21.648 21.262c.442-.34.715-.719.84-1.153a.53.53 0 0 0 .328-.422c.024-.328.25-.773-.086-1.046q.011-.205.004-.403c.352-.914.016-1.48-.586-1.672a1.2 1.2 0 0 0-.714-.613c-1.2-.297-2.13.418-2.575.871-.586.59-.226 1.32-.214 1.485a2 2 0 0 0 0 .359c-.102.102-.176.254-.141.496.074.512.098.836.418.953.383 1.203 1.633 1.992 2.726 1.145m-2.402-1.766c-.02-.117-.043-.234-.062-.367a.34.34 0 0 0 .164-.363 1.5 1.5 0 0 1-.032-.325c.106-.332-.324-.789.024-1.14.422-.43 1.101-.895 1.91-.7.008.004.258.09.313.329.03.144.152.25.296.261.004 0 .223.028.305.18.09.16.043.453-.137.82a.33.33 0 0 0 .028.336c-.008.184-.02.25-.024.278-.008.129.078.258.196.328l-.063.367h-.012a.34.34 0 0 0-.28.281c-.06.352-.263.653-.642.946-.347.273-.718.289-1.058.027-.817-.633-.473-1.184-.926-1.258M18.742 21.41l-1.48.652c-1.012.442-1.13 1.407-1.27 1.665a3.4 3.4 0 0 0-.215 1.195c0 .187.149.34.336.34a.34.34 0 0 0 .34-.34c0-.695.25-1.098.379-1.5.121-.328.379-.598.7-.738l1.484-.657a.34.34 0 0 0 .175-.445.34.34 0 0 0-.449-.172M22.39 22.027l1.485.657c.32.14.578.41.703.738.121.375.375.797.375 1.5a.34.34 0 0 0 .68 0c0-.852-.301-1.356-.422-1.738a2 2 0 0 0-1.063-1.122l-1.484-.652a.333.333 0 0 0-.445.172.333.333 0 0 0 .172.445m0 0"/><g clip-path="url(#b)"><path fill="#061c3d" d="M9.781 5.898a5.25 5.25 0 0 0 5.242 5.243 5.245 5.245 0 0 0 5.239-5.243A5.245 5.245 0 0 0 15.023.656a5.25 5.25 0 0 0-5.242 5.242m4.903.34v4.168c-1.075-.308-1.942-2.066-2.028-4.168Zm-2.028-.68c.086-2.105.953-3.859 2.028-4.167v4.168Zm2.703 4.848V6.238h2.028c-.082 2.102-.95 3.86-2.028 4.168m0-4.847V1.39c1.079.308 1.946 2.062 2.028 4.168Zm-2.214-3.817c-.668.887-1.11 2.246-1.165 3.817h-1.503a4.56 4.56 0 0 1 2.668-3.817m-2.668 4.496h1.503c.055 1.567.497 2.93 1.165 3.817a4.57 4.57 0 0 1-2.668-3.817m6.421 3.817c.672-.887 1.11-2.25 1.168-3.817h1.504a4.58 4.58 0 0 1-2.672 3.817m2.672-4.496h-1.504c-.058-1.57-.496-2.93-1.168-3.817A4.58 4.58 0 0 1 19.57 5.56m0 0"/></g><path fill="#061c3d" d="M12.89 18.043H4.97a.73.73 0 0 0-.73.73v4.493c0 .402.327.73.73.73h7.922c.402 0 .73-.328.73-.73v-1.438l1.031-.695a.34.34 0 0 0 .012-.555l-1.043-.765v-1.04a.73.73 0 0 0-.73-.73m.985 2.797-.781.527a.34.34 0 0 0-.149.281v1.618a.056.056 0 0 1-.054.054c-8.344-.027-7.973.051-7.973-.054v-4.493c0-.027.023-.054.05-.054h7.923c.027 0 .054.027.054.054v1.211c0 .11.051.211.137.274Zm0 0"/><path fill="#061c3d" d="M7.332 20.652h2.184a.34.34 0 0 0 0-.68H7.332a.34.34 0 0 0 0 .68M11.098 21.656H7.332a.34.34 0 0 0 0 .68h3.766a.34.34 0 0 0 0-.68M2.523 13.14c0 .188.153.34.34.34H27.02a.34.34 0 0 0 0-.68H2.863a.34.34 0 0 0-.34.34M4.953 11.113c.152-.847-.797-1.449-1.496-.965a.964.964 0 1 0 1.496.965m-1.11-.406c.204-.145.489.031.446.285a.3.3 0 0 1-.121.184.26.26 0 0 1-.215.047c-.25-.043-.32-.371-.11-.516M6.621 11.906c.45 0 .863-.32.95-.793.148-.843-.798-1.449-1.5-.965-.774.54-.391 1.758.55 1.758m-.164-1.199c.207-.145.492.035.445.285a.288.288 0 0 1-.52.113.29.29 0 0 1 .075-.398M9.785 11.734c.695-.484.469-1.59-.379-1.742-.86-.148-1.445.805-.965 1.5a.966.966 0 0 0 1.344.242m-.5-1.074c.25.043.32.371.113.516a.286.286 0 1 1-.113-.516M25.98 11.55a.336.336 0 0 0 .336-.335.34.34 0 0 0-.336-.34h-2.07a.34.34 0 0 0-.34.34c0 .187.153.336.34.336Zm0 0"/></svg>