<svg xmlns="http://www.w3.org/2000/svg" width="40" height="40" version="1.0" viewBox="0 0 30 30"><defs><clipPath id="a"><path d="M.484 2.05h29.032V22H.484Zm0 0"/></clipPath><clipPath id="b"><path d="M9 22h10v4.727H9Zm0 0"/></clipPath><clipPath id="c"><path d="M19 11h10.516v15.727H19Zm0 0"/></clipPath></defs><g clip-path="url(#a)"><path fill="#061c3d" d="M17.492 21.54H4.348a3.857 3.857 0 0 1-3.852-3.852V5.902a3.857 3.857 0 0 1 3.852-3.851h21.304a3.857 3.857 0 0 1 3.852 3.851v3.852a.453.453 0 0 1-.906 0V5.902a2.95 2.95 0 0 0-2.946-2.945H4.348a2.95 2.95 0 0 0-2.946 2.945v11.786a2.95 2.95 0 0 0 2.946 2.945h13.144a.453.453 0 0 1 0 .906m0 0"/></g><g clip-path="url(#b)"><path fill="#061c3d" d="M18.016 26.977H11.53c-.59 0-1.14-.293-1.469-.79a1.75 1.75 0 0 1-.16-1.656l.848-2.035a.454.454 0 0 1 .836.352l-.848 2.03a.84.84 0 0 0 .078.81c.16.242.422.382.715.382h6.485a.453.453 0 0 1 0 .907m0 0"/></g><g clip-path="url(#c)"><path fill="#061c3d" d="M27.238 26.977h-5.894a2.267 2.267 0 0 1-2.266-2.266v-5.438a.453.453 0 0 1 .906 0v5.438c0 .75.61 1.36 1.36 1.36h5.894c.75 0 1.36-.61 1.36-1.36V13.383c0-.75-.61-1.363-1.36-1.363h-6.347a.453.453 0 0 1 0-.907h6.347a2.27 2.27 0 0 1 2.266 2.27V24.71a2.27 2.27 0 0 1-2.266 2.266m0 0"/></g><path fill="#061c3d" d="M27.012 25.164H21.57a.453.453 0 0 1 0-.906h5.442a.453.453 0 0 1 0 .906M15.453 19.5a4.537 4.537 0 0 1-4.531-4.531c0-2.5 2.031-4.535 4.531-4.535s4.531 2.035 4.531 4.535a4.537 4.537 0 0 1-4.53 4.531m0-8.16a3.63 3.63 0 0 0-3.625 3.629 3.63 3.63 0 0 0 3.625 3.625c2 0 3.625-1.63 3.625-3.625 0-2-1.625-3.63-3.625-3.63m0 0"/><path fill="#061c3d" d="M14.887 16.895a.47.47 0 0 1-.32-.133l-1.247-1.246a.455.455 0 0 1 0-.641.45.45 0 0 1 .64 0l.927.926 2.285-2.285a.45.45 0 0 1 .64 0 .455.455 0 0 1 0 .64l-2.605 2.606a.47.47 0 0 1-.32.133M24.293 18.594a.454.454 0 0 1-.457-.453V16.1a.68.68 0 0 0-.68-.68h-3.625a.453.453 0 0 1 0-.905h3.625c.875 0 1.59.71 1.59 1.586v2.039c0 .25-.203.453-.453.453m0 0"/><path fill="#061c3d" d="M24.293 21.313c-1 0-1.816-.813-1.816-1.813s.816-1.812 1.816-1.812c.996 0 1.812.812 1.812 1.812s-.816 1.813-1.812 1.813m0-2.72a.91.91 0 0 0-.91.907c0 .5.41.906.91.906a.91.91 0 0 0 .906-.906.91.91 0 0 0-.906-.906M11.375 15.422H7.75a1.59 1.59 0 0 1-1.586-1.586v-2.043a.453.453 0 0 1 .906 0v2.043c0 .371.305.68.68.68h3.625a.453.453 0 0 1 0 .906m0 0"/><path fill="#061c3d" d="M6.617 12.246c-1 0-1.816-.812-1.816-1.812S5.617 8.62 6.617 8.62c.996 0 1.813.813 1.813 1.813s-.817 1.812-1.813 1.812m0-2.719a.91.91 0 0 0-.91.907.907.907 0 1 0 .91-.906m0 0"/></svg>