<svg xmlns="http://www.w3.org/2000/svg" width="40" height="40" version="1.0" viewBox="0 0 30 30"><defs><clipPath id="a"><path d="M2 0h26v29.031H2Zm0 0"/></clipPath></defs><path fill="#061c3d" d="M19.535 8.688c-.015.007-.031.011-.047.023l-.906.68a.453.453 0 0 0 .273.816.48.48 0 0 0 .274-.09l.031-.023a3.64 3.64 0 0 1-3.48 2.61 3.61 3.61 0 0 1-2.82-1.349.46.46 0 0 0-.641-.07.46.46 0 0 0-.067.64 4.52 4.52 0 0 0 3.528 1.684c2.101 0 3.867-1.441 4.383-3.382l.019.027c.086.117.223.18.363.18a.451.451 0 0 0 .36-.727l-.68-.906q-.012-.01-.023-.02c-.02-.027-.047-.043-.07-.062a.4.4 0 0 0-.067-.047q-.041-.017-.082-.027a.4.4 0 0 0-.09-.02c-.012 0-.02-.008-.031-.008-.02 0-.035.012-.055.012-.027.004-.059.008-.086.02a.3.3 0 0 0-.086.039m0 0"/><g clip-path="url(#a)"><path fill="#061c3d" d="M27.926 12.246a4.54 4.54 0 0 0-4.106-4.512C23.594 3.434 20.035 0 15.68 0c-3.375 0-6.282 2.059-7.524 4.988H7.97c-3.25 0-5.895 2.649-5.895 5.899 0 2.449 1.5 4.55 3.625 5.441v1.39a3.636 3.636 0 0 0-3.176 3.598c0 2 1.63 3.63 3.63 3.63a3.63 3.63 0 0 0 3.628-3.63A3.63 3.63 0 0 0 6.61 17.72v-1.102c.438.106.891.168 1.36.168h6.351v3.2a4.54 4.54 0 0 0-4.082 4.511c0 2.5 2.035 4.535 4.535 4.535s4.536-2.035 4.536-4.535a4.54 4.54 0 0 0-4.082-4.512v-3.199h7.71v.934a3.63 3.63 0 0 0-3.175 3.597c0 2 1.629 3.63 3.629 3.63s3.629-1.63 3.629-3.63a3.636 3.636 0 0 0-3.176-3.597v-.957a4.543 4.543 0 0 0 4.082-4.516m-19.051 9.07c0 1.5-1.219 2.723-2.723 2.723a2.724 2.724 0 0 1-2.718-2.723c0-1.5 1.218-2.722 2.718-2.722a2.725 2.725 0 0 1 2.723 2.722m9.527 3.18c0 2-1.629 3.629-3.629 3.629s-3.628-1.629-3.628-3.629 1.628-3.629 3.628-3.629 3.63 1.63 3.63 3.63M2.98 10.886a4.994 4.994 0 0 1 4.86-4.984 8.2 8.2 0 0 0-.324 2.262c0 .254.203.453.453.453s.453-.199.453-.453c0-4 3.254-7.258 7.258-7.258 4 0 7.258 3.258 7.258 7.258 0 .254.203.453.453.453 2 0 3.629 1.63 3.629 3.63a3.635 3.635 0 0 1-3.63 3.632H7.97a5 5 0 0 1-4.989-4.992m23.133 10.43c0 1.5-1.222 2.723-2.722 2.723a2.727 2.727 0 0 1-2.723-2.723c0-1.5 1.223-2.722 2.723-2.722s2.722 1.222 2.722 2.722m0 0"/></g><path fill="#061c3d" d="M15.813 25.723c.09.09.203.132.32.132a.44.44 0 0 0 .32-.132l.906-.903v-.004a.45.45 0 0 0 .133-.32.44.44 0 0 0-.133-.32v-.004l-.906-.902a.45.45 0 0 0-.64 0 .455.455 0 0 0 0 .64l.585.586-.585.586a.455.455 0 0 0 0 .64M13.734 23.27a.45.45 0 0 0-.64 0l-.903.902q-.004-.001-.007.004a.456.456 0 0 0 0 .64q.004.005.007.004l.903.903a.453.453 0 1 0 .64-.64l-.586-.587.586-.586a.455.455 0 0 0 0-.64M14.21 26.75a.4.4 0 0 0 .11.016.46.46 0 0 0 .442-.344l.906-3.629a.45.45 0 0 0-.332-.55.454.454 0 0 0-.55.327l-.907 3.633a.453.453 0 0 0 .332.547M24.43 22.094a.453.453 0 0 0 .64 0l.45-.45q.004 0 .003-.003a.44.44 0 0 0 .133-.32.45.45 0 0 0-.133-.321l-.003-.004-.45-.445a.45.45 0 0 0-.64 0 .455.455 0 0 0 0 .64l.133.13-.133.132a.45.45 0 0 0 0 .64M22.352 20.547a.455.455 0 0 0-.641 0l-.453.45q.001.004-.004.003a.46.46 0 0 0-.133.32c0 .117.047.235.133.32l.004.005.453.449a.453.453 0 1 0 .64-.64l-.132-.134.133-.133a.455.455 0 0 0 0-.64M23.176 20.3l-.453 1.817a.45.45 0 0 0 .332.547.4.4 0 0 0 .11.016c.202 0 .386-.14.44-.344l.454-1.816a.453.453 0 0 0-.332-.547.45.45 0 0 0-.551.328M7.191 22.094a.453.453 0 0 0 .641 0l.453-.45.004-.003a.46.46 0 0 0 .133-.32.46.46 0 0 0-.133-.321q-.005.001-.004-.004l-.45-.445a.45.45 0 0 0-.64 0 .45.45 0 0 0 0 .64l.13.13-.134.132a.455.455 0 0 0 0 .64M5.113 20.547a.455.455 0 0 0-.64 0l-.45.45L4.02 21a.45.45 0 0 0-.133.32.44.44 0 0 0 .133.32q0 .006.003.005l.45.449a.453.453 0 0 0 .64 0 .45.45 0 0 0 0-.64l-.129-.134.13-.133a.45.45 0 0 0 0-.64M5.941 20.3l-.453 1.817a.45.45 0 0 0 .328.547.454.454 0 0 0 .55-.328l.454-1.816a.447.447 0 0 0-.332-.547.45.45 0 0 0-.547.328M11.234 9.348l.02.015c.031.04.07.067.11.09.011.008.023.024.034.027q.006.005.012.004a.442.442 0 0 0 .328.02c.004 0 .008-.004.012-.004s.004-.004.008-.004c.02-.008.031-.016.05-.027.02-.008.044-.016.06-.031h.003l.906-.684a.45.45 0 0 0 .086-.633.45.45 0 0 0-.633-.09l-.03.024a3.63 3.63 0 0 1 3.48-2.61 3.61 3.61 0 0 1 2.82 1.348.454.454 0 0 0 .707-.57 4.52 4.52 0 0 0-3.527-1.684 4.535 4.535 0 0 0-4.38 3.379l-.019-.023a.454.454 0 0 0-.726.543Zm0 0"/></svg>