<svg xmlns="http://www.w3.org/2000/svg" width="40" height="40" version="1.0" viewBox="0 0 30 30"><defs><clipPath id="a"><path d="M.484 1.453h29.032v26.129H.484Zm0 0"/></clipPath></defs><g clip-path="url(#a)"><path fill="#061c3d" d="M27.648 19h-25.5V3.086h25.5ZM17.7 21.625h-5.605a.544.544 0 0 1-.543-.543c0-.3.246-.543.543-.543h5.605a.542.542 0 1 1 0 1.086M28.344 1.461H1.449a.93.93 0 0 0-.93.93v19.84c0 .511.419.93.93.93h12.543v2.5h-1.515a.2.2 0 0 0-.118.038l-2.171 1.52c-.165.113-.083.375.117.375h9.187c.2 0 .281-.262.117-.375l-2.175-1.52a.18.18 0 0 0-.118-.039h-1.515v-2.5h12.543a.933.933 0 0 0 .933-.93V2.39a.933.933 0 0 0-.933-.93"/></g><path fill="#061c3d" d="M8.266 7.227a2.085 2.085 0 1 1 .002 4.169 2.085 2.085 0 0 1-.002-4.17m-3.028 3.859-.656.855 1.055 1.055.855-.656c.274.164.574.289.89.37l.141 1.067h1.489l.14-1.066c.317-.082.618-.207.891-.371l.855.656 1.055-1.055-.656-.855c.164-.274.289-.574.371-.89l1.066-.141V8.566l-1.066-.14a3.4 3.4 0 0 0-.371-.89l.656-.856-1.055-1.055-.855.656a3.4 3.4 0 0 0-.89-.37l-.141-1.067H7.523l-.14 1.066a3.4 3.4 0 0 0-.89.371l-.856-.656L4.582 6.68l.656.855c-.164.274-.289.574-.37.89L3.8 8.567v1.489l1.066.14c.082.317.207.617.371.89M22.996 12.246l1.863 1.863-1.433 1.434.273.863 2.297-2.297-2.433-2.43zM20.508 12.676l-.274-.86-2.297 2.293 2.43 2.43.57-.566-1.863-1.864zM20.621 10.992l2.047 6.442.645-.207-2.047-6.438zM25.996 4.46H13.918v.958h12.078zM15.879 14.813H3.8v.96h12.078zM8.785 17.496h7.094v-.957H8.785zM16.793 7.336h9.203v-.957h-9.203zM18.133 9.254h7.863v-.957h-7.863z"/></svg>