<svg xmlns="http://www.w3.org/2000/svg" width="40" height="40" version="1.0" viewBox="0 0 30 30"><defs><clipPath id="a"><path d="M2.191 6h25.403v23.031H2.19Zm0 0"/></clipPath></defs><g clip-path="url(#a)"><path fill="#061c3d" d="M26.102 6.633h-6.653v.773h6.653c.511 0 .93.418.93.93V21.43H2.968V8.336c0-.512.414-.93.926-.93h3.18v-.773h-3.18c-.938 0-1.7.765-1.7 1.703v15.379a1.7 1.7 0 0 0 1.7 1.7h8.558l-.965 2.843h-2.02a.39.39 0 0 0-.386.387c0 .214.176.386.387.386h11.058a.388.388 0 0 0 0-.773h-2.015l-.969-2.844h8.559c.937 0 1.703-.762 1.703-1.7V8.337c0-.938-.766-1.703-1.703-1.703m-8.407 21.625h-5.39l.965-2.844h3.457Zm9.336-4.543a.93.93 0 0 1-.93.926H3.896a.925.925 0 0 1-.926-.926v-1.512H27.03Zm0 0"/></g><path fill="#061c3d" d="M12.527 11.773h-6.89a.39.39 0 0 0-.387.387v6.895c0 .21.172.386.387.386h6.89a.39.39 0 0 0 .387-.386V12.16a.39.39 0 0 0-.387-.387m-4.14.774h1.39v1.39h-1.39Zm3.754 6.121H6.023v-6.121h1.59v1.777c0 .215.172.387.387.387h2.164a.385.385 0 0 0 .387-.387v-1.777h1.59ZM18.008 9.398a.39.39 0 0 0-.387-.386h-2.039a.39.39 0 0 0-.387.386v2.04c0 .214.172.386.387.386h2.04a.385.385 0 0 0 .386-.386Zm-.774 1.653H15.97V9.785h1.265ZM18.945 9.176h5.91v.773h-5.91ZM18.945 10.695h3.996v.774h-3.996ZM18.008 13.617a.39.39 0 0 0-.387-.387h-2.039a.39.39 0 0 0-.387.387v2.04c0 .214.172.386.387.386h2.04a.385.385 0 0 0 .386-.387Zm-.774 1.653H15.97v-1.266h1.265ZM18.945 13.395h5.91v.773h-5.91ZM18.945 14.914h3.996v.774h-3.996ZM17.621 17.45h-2.039a.39.39 0 0 0-.387.386v2.039c0 .215.172.387.387.387h2.04a.385.385 0 0 0 .386-.387v-2.04a.39.39 0 0 0-.387-.386m-.387 2.038H15.97v-1.265h1.265ZM18.945 17.613h5.91v.774h-5.91ZM18.945 19.133h3.996v.773h-3.996ZM7.734 8.273a.33.33 0 0 0 .305.223l.465.016.156.18-.058.464c-.02.137.05.27.171.332l.602.305a.33.33 0 0 0 .371-.05l.34-.325.238.02.285.37c.063.083.16.126.258.126q.053.001.102-.016l.64-.207a.33.33 0 0 0 .227-.3l.012-.466.183-.156.461.059c.137.02.274-.051.336-.176l.305-.598a.33.33 0 0 0-.055-.375l-.32-.336.02-.242.367-.285a.32.32 0 0 0 .113-.36l-.207-.64a.33.33 0 0 0-.301-.223l-.469-.011-.156-.184.063-.465a.33.33 0 0 0-.176-.332l-.602-.305a.32.32 0 0 0-.37.055l-.34.32-.24-.02-.284-.37a.325.325 0 0 0-.36-.11l-.64.207a.33.33 0 0 0-.227.301l-.011.465-.184.156-.461-.058a.32.32 0 0 0-.332.176l-.309.597a.33.33 0 0 0 .055.375l.32.336-.02.242-.366.285a.325.325 0 0 0-.114.36Zm.79-.855a.34.34 0 0 0 .124-.234l.043-.528a.33.33 0 0 0-.09-.25L8.34 6.13l.098-.191.378.05a.33.33 0 0 0 .254-.074l.403-.348a.32.32 0 0 0 .113-.238l.012-.379.199-.066.234.3c.055.075.14.122.235.13l.527.039a.32.32 0 0 0 .25-.086L11.32 5l.188.098-.047.379a.33.33 0 0 0 .074.253l.344.403c.062.07.148.113.238.117l.383.008.066.203-.304.23a.35.35 0 0 0-.125.235l-.043.527a.34.34 0 0 0 .09.25l.261.277-.093.192-.38-.05a.33.33 0 0 0-.253.073l-.406.348a.32.32 0 0 0-.114.238l-.011.38-.2.066-.234-.301a.3.3 0 0 0-.23-.125l-.532-.043H9.97a.34.34 0 0 0-.227.086l-.277.265-.188-.097.047-.38a.3.3 0 0 0-.074-.253l-.344-.402a.32.32 0 0 0-.238-.114l-.383-.011-.066-.204Zm0 0"/><path fill="#061c3d" d="M10.395 8.328c.699 0 1.27-.574 1.27-1.273a1.272 1.272 0 0 0-2.544 0c0 .699.57 1.273 1.274 1.273m0-1.89c.34 0 .617.277.617.617a.618.618 0 0 1-1.239 0 .62.62 0 0 1 .622-.617M12.36 5.133a.34.34 0 0 0 .285.258l.671.078.243.34-.145.66a.33.33 0 0 0 .149.355l.765.48a.33.33 0 0 0 .383-.023l.531-.418.414.067.364.574a.34.34 0 0 0 .28.152q.035-.001.075-.008l.883-.207a.33.33 0 0 0 .254-.28l.078-.677.344-.242.66.145a.33.33 0 0 0 .351-.145l.48-.77a.335.335 0 0 0-.019-.382l-.422-.531.07-.414.571-.364a.335.335 0 0 0 .145-.355l-.204-.883a.33.33 0 0 0-.285-.254l-.672-.078-.242-.34.145-.664a.33.33 0 0 0-.149-.352l-.765-.48a.335.335 0 0 0-.383.02l-.531.421-.414-.07-.364-.57a.34.34 0 0 0-.355-.145l-.883.203a.33.33 0 0 0-.254.286l-.078.671-.344.246-.66-.148a.33.33 0 0 0-.352.149l-.48.769a.33.33 0 0 0 .02.379l.421.531-.07.414-.57.367a.33.33 0 0 0-.145.352Zm.992-1.121a.34.34 0 0 0 .148-.223l.117-.707a.32.32 0 0 0-.066-.258l-.367-.465.234-.37.574.124a.32.32 0 0 0 .266-.05l.582-.415a.35.35 0 0 0 .137-.234l.066-.586.43-.098.316.497c.05.078.133.132.227.148l.703.121a.33.33 0 0 0 .261-.07l.461-.363.375.23-.128.578c-.02.09 0 .188.054.262l.414.582a.31.31 0 0 0 .23.137l.587.07.097.426-.496.32a.32.32 0 0 0-.148.223l-.117.703a.33.33 0 0 0 .066.261l.367.465-.234.371-.574-.128a.34.34 0 0 0-.266.054l-.582.414a.33.33 0 0 0-.137.23l-.066.59-.43.098-.316-.5a.34.34 0 0 0-.227-.148l-.703-.117c-.02-.004-.035-.004-.055-.004a.33.33 0 0 0-.207.07l-.46.367-.376-.234.13-.574a.34.34 0 0 0-.055-.266l-.414-.582a.34.34 0 0 0-.23-.137l-.587-.066-.101-.43Zm0 0"/><path fill="#061c3d" d="M15.668 5.598a1.79 1.79 0 0 0 2.055-1.465 1.785 1.785 0 0 0-3.52-.59 1.78 1.78 0 0 0 .309 1.332c.273.387.687.645 1.156.723m-.809-1.946a1.12 1.12 0 0 1 1.29-.918 1.122 1.122 0 0 1-.371 2.21 1.1 1.1 0 0 1-.727-.456 1.1 1.1 0 0 1-.192-.836m0 0"/></svg>