<svg xmlns="http://www.w3.org/2000/svg" width="40" height="40" version="1.0" viewBox="0 0 30 30"><defs><clipPath id="a"><path d="M.484 2.633h29.032V21H.484Zm0 0"/></clipPath><clipPath id="b"><path d="M11 18h8v8.582h-8Zm0 0"/></clipPath><clipPath id="c"><path d="M5 24h20v2.582H5Zm0 0"/></clipPath></defs><g clip-path="url(#a)"><path fill="#061c3d" fill-rule="evenodd" d="M.418 3.645c0-.56.453-1.012 1.012-1.012h27.008c.558 0 1.011.453 1.011 1.012v16.207c0 .558-.453 1.011-1.012 1.011H6.833a1.013 1.013 0 1 1 0-2.027h20.59V4.66H2.442v15.192a1.012 1.012 0 0 1-2.024 0Zm0 0"/></g><g clip-path="url(#b)"><path fill="#061c3d" fill-rule="evenodd" d="M11.219 19.852c0-.563.453-1.016 1.011-1.016h5.403c.558 0 1.012.453 1.012 1.016v5.398c0 .563-.454 1.016-1.012 1.016H12.23a1.013 1.013 0 0 1-1.011-1.016Zm2.027 1.011v3.375h3.375v-3.375Zm0 0"/></g><g clip-path="url(#c)"><path fill="#061c3d" fill-rule="evenodd" d="M5.816 25.25c0-.559.454-1.012 1.016-1.012h16.203a1.013 1.013 0 0 1 0 2.027H6.832a1.014 1.014 0 0 1-1.016-1.015m0 0"/></g><path fill="#061c3d" fill-rule="evenodd" d="M10.246 6.98a1.01 1.01 0 0 1 0 1.434l-3.332 3.332 3.332 3.336a1.01 1.01 0 0 1 0 1.434 1.01 1.01 0 0 1-1.43 0l-4.05-4.051a1.01 1.01 0 0 1 0-1.434l4.05-4.05a1.01 1.01 0 0 1 1.43 0M19.617 6.98a1.016 1.016 0 0 0 0 1.434l3.336 3.332-3.336 3.336a1.016 1.016 0 0 0 0 1.434c.395.394 1.04.394 1.434 0l4.05-4.051a1.016 1.016 0 0 0 0-1.434l-4.05-4.05a1.016 1.016 0 0 0-1.434 0M17.355 6.09c.516.223.754.816.536 1.332l-4.055 9.45a1.011 1.011 0 1 1-1.86-.798l4.051-9.453c.22-.512.817-.75 1.328-.531m0 0"/></svg>