<svg xmlns="http://www.w3.org/2000/svg" width="40" height="40" version="1.0" viewBox="0 0 30 30"><defs><clipPath id="a"><path d="M10 25h10v4.031H10Zm0 0"/></clipPath><clipPath id="b"><path d="M.484 6h29.032v19H.484Zm0 0"/></clipPath></defs><g clip-path="url(#a)"><path fill="#061c3d" d="M18.82 27.504h-.765v-1.527h-6.11v1.527h-.765a.767.767 0 0 0-.766.766c0 .418.344.761.766.761h7.64a.766.766 0 0 0 .766-.761.767.767 0 0 0-.766-.766m0 0"/></g><path fill="#061c3d" d="M15 7.39a.668.668 0 1 0 0-1.337.668.668 0 0 0 0 1.338m0 0"/><path fill="#061c3d" d="m11.922 8.219-.578.39.55.813.579-.395a.72.72 0 0 1 .82.016c.227.168.477.305.746.398a.71.71 0 0 1 .473.668v.7h.976v-.7c0-.3.192-.57.473-.668.27-.093.52-.23.746-.398a.72.72 0 0 1 .82-.016l.578.395.551-.813-.578-.39a.71.71 0 0 1-.289-.766q.098-.374.098-.73c0-.239-.032-.485-.098-.73a.71.71 0 0 1 .29-.766l.577-.395-.55-.809-.579.391a.71.71 0 0 1-.82-.016 2.8 2.8 0 0 0-.746-.394.71.71 0 0 1-.473-.668v-.7h-.976v.7c0 .3-.192.566-.473.668q-.406.142-.746.394a.71.71 0 0 1-.82.016l-.578-.39-.551.808.578.395c.25.168.363.472.289.765a2.8 2.8 0 0 0 0 1.461.71.71 0 0 1-.29.766M15 4.715a2.006 2.006 0 0 1 0 4.012 2.006 2.006 0 0 1 0-4.012m0 0"/><path fill="#061c3d" d="M8.887 13.754h12.226c.84 0 1.528-.688 1.528-1.531V1.527C22.64.687 21.953 0 21.113 0H8.887c-.84 0-1.528.688-1.528 1.527v10.696c0 .843.688 1.53 1.528 1.53m1.812-7.031c0-.2.016-.391.04-.586l-.774-.528a.707.707 0 0 1-.192-.988l1.344-1.976a.71.71 0 0 1 .988-.192l.778.527.207-.117v-.937c0-.39.32-.703.71-.703h2.4c.39 0 .71.312.71.703v.937l.207.117.778-.527a.71.71 0 0 1 .988.192l1.344 1.976a.707.707 0 0 1-.192.988l-.773.528c.023.195.039.386.039.586q-.002.288-.04.59l.774.527c.328.21.414.656.192.976l-1.344 1.989a.72.72 0 0 1-.988.187l-.778-.523c-.07.035-.137.074-.207.105v.938c0 .39-.32.71-.71.71h-2.4c-.39 0-.71-.32-.71-.71v-.938c-.07-.031-.137-.07-.207-.105l-.778.523a.72.72 0 0 1-.988-.187L9.773 8.816a.693.693 0 0 1 .192-.976l.773-.527c-.023-.2-.039-.399-.039-.59m0 0"/><g clip-path="url(#b)"><path fill="#061c3d" d="M27.988 6.113h-3.82v8.403c0 .84-.688 1.527-1.527 1.527H7.359c-.84 0-1.527-.688-1.527-1.527V6.113h-3.82c-.84 0-1.528.688-1.528 1.528v15.28c0 .84.688 1.528 1.528 1.528h25.976c.84 0 1.528-.687 1.528-1.527V7.64c0-.84-.688-1.528-1.528-1.528M9.727 21.707a.69.69 0 0 1 .687.695.686.686 0 0 1-.687.688 2.76 2.76 0 0 1-2.758-2.758 2.763 2.763 0 0 1 2.758-2.762c.382 0 .687.309.687.692a.693.693 0 0 1-.687.695c-.762 0-1.383.61-1.383 1.375 0 .754.62 1.375 1.383 1.375m8.015.695a.693.693 0 0 1-.695.688.686.686 0 0 1-.688-.688v-2.07l-.824 1.098c-.262.351-.848.351-1.11 0l-.823-1.098v2.07a.686.686 0 0 1-.688.688.686.686 0 0 1-.687-.688v-4.14c0-.301.183-.559.464-.653a.68.68 0 0 1 .774.239l1.52 2.023 1.511-2.023a.69.69 0 0 1 .774-.239.685.685 0 0 1 .472.653Zm3.57-2.757c.946 0 1.72.77 1.72 1.718 0 .953-.774 1.727-1.72 1.727h-1.039a.686.686 0 0 1-.687-.688.69.69 0 0 1 .687-.695h1.04a.347.347 0 0 0 .343-.344.35.35 0 0 0-.343-.343 1.725 1.725 0 1 1 0-3.45h1.03a.69.69 0 0 1 .688.692.695.695 0 0 1-.687.695h-1.032a.35.35 0 0 0-.351.344c0 .18.16.344.352.344m0 0"/></g></svg>