<svg xmlns="http://www.w3.org/2000/svg" width="40" height="40" version="1.0" viewBox="0 0 30 30"><defs><clipPath id="a"><path d="M.484 0h29.032v28.996H.484Zm0 0"/></clipPath></defs><g clip-path="url(#a)"><path fill="#061c3d" d="M21.527 24.438a.43.43 0 0 1 .16-.594.43.43 0 0 1 .594.16l.043.078.68-.68a.439.439 0 0 1 .617.621l-1.078 1.079a.44.44 0 0 1-.688-.094Zm1.02-2.567a2.33 2.33 0 1 1-.003 4.66 2.33 2.33 0 0 1 .003-4.66m1.027 1.3c-.914-.91-2.48-.26-2.48 1.032 0 1.29 1.566 1.942 2.48 1.027a1.46 1.46 0 0 0 0-2.058M20.828 6.716a.435.435 0 1 1 .754-.437l.078.132.781-.781a.439.439 0 0 1 .617.621l-1.183 1.184a.44.44 0 0 1-.687-.09ZM21.91 3.96a2.516 2.516 0 1 1-.002 5.033 2.516 2.516 0 0 1 .002-5.033m1.16 1.36c-1.03-1.032-2.797-.301-2.797 1.156s1.766 2.187 2.797 1.16c.637-.64.637-1.68 0-2.317M6.133 12.772a.44.44 0 0 1 .16-.597.436.436 0 0 1 .598.16l.152.266 1.035-1.032a.434.434 0 0 1 .617 0 .434.434 0 0 1 0 .617l-1.433 1.434a.436.436 0 0 1-.688-.09ZM7.367 9.57a2.957 2.957 0 0 1 2.957 2.957 2.96 2.96 0 0 1-2.957 2.961 2.96 2.96 0 0 1 0-5.918M8.84 11.06a2.084 2.084 0 0 0-2.945 0 2.08 2.08 0 0 0 0 2.941 2.084 2.084 0 0 0 2.945 0 2.08 2.08 0 0 0 0-2.941m5.523 16.3a.43.43 0 0 1 .43.438.433.433 0 0 1-.438.433 7.92 7.92 0 0 1-6.566-3.585l-.012.273a.443.443 0 0 1-.457.422.44.44 0 0 1-.418-.457l.09-1.914a.437.437 0 0 1 .672-.348l1.613 1.035a.43.43 0 0 1 .13.602.436.436 0 0 1-.602.133l-.23-.149a7.05 7.05 0 0 0 5.788 3.117M6.746 5.477a.434.434 0 0 1-.617.023.434.434 0 0 1-.024-.617 9.09 9.09 0 0 1 8.317-2.754l-.379-.375a.439.439 0 0 1 .617-.621l1.563 1.562a.438.438 0 0 1-.215.739L13.89 4a.44.44 0 0 1-.223-.848l.605-.16a8.2 8.2 0 0 0-7.527 2.485M2.5 8.379h9.734c.243 0 .438.195.438.437v7.625a.437.437 0 0 1-.438.438H2.5a.437.437 0 0 1-.437-.438v-7.62c0-.247.195-.442.437-.442m9.297.875h-8.86v6.75h8.86ZM1.305 6.949H13.43c.449 0 .816.367.816.813v9.734a.81.81 0 0 1-.242.574.8.8 0 0 1-.574.239H9.078a2.8 2.8 0 0 0 .39 1.437h1.927c.328 0 .59.266.59.586v1.148a.59.59 0 0 1-.172.41v.005a.6.6 0 0 1-.418.171H3.34a.59.59 0 0 1-.59-.586v-1.148c0-.16.066-.305.176-.414h-.004a.6.6 0 0 1 .418-.172h1.933c.274-.426.422-.933.422-1.437h-4.39a.81.81 0 0 1-.813-.813V7.762c0-.219.09-.43.238-.57l-.003-.005a.8.8 0 0 1 .578-.238m6.898 11.36H6.57c0 .492-.11.984-.308 1.437h2.234a3.7 3.7 0 0 1-.293-1.437m5.164-10.48h-12v9.605h12ZM11.11 20.62H3.625v.567h7.484ZM24.24.84l-.481 1.14a.435.435 0 0 1-.403.27h-2.89a.44.44 0 0 1-.41-.281l-.473-1.13h-.562c-.239 0-.438.2-.438.438v8.973h6.652V1.277a.44.44 0 0 0-.437-.437Zm-3.708 0 .223.535h2.308L23.29.84Zm4.703 10.289h-6.652v.547c0 .242.2.437.438.437h5.777a.437.437 0 0 0 .437-.437ZM19.02-.035h5.777c.726 0 1.316.59 1.316 1.312v10.399c0 .722-.593 1.312-1.316 1.312H19.02c-.723 0-1.313-.59-1.313-1.312V1.277c0-.722.59-1.312 1.313-1.312m8.457 23.902a.44.44 0 0 1 .878 0v.668a.44.44 0 0 1-.878 0Zm-9.72-3.156h9.055a.44.44 0 0 1 .438.437v6.106a.44.44 0 0 1-.437.437h-9.055a.437.437 0 0 1-.438-.437v-6.106c0-.242.196-.437.438-.437m8.618.875h-8.18v5.23h8.18Zm-9.367-2.176h11.078c.746 0 1.355.606 1.355 1.352v6.879c0 .746-.609 1.355-1.355 1.355H17.008c-.746 0-1.356-.61-1.356-1.355v-6.88c0-.745.61-1.35 1.356-1.35m11.078.875H17.008a.48.48 0 0 0-.48.477v6.879c0 .261.218.48.48.48h11.078c.262 0 .48-.219.48-.48v-6.88a.48.48 0 0 0-.48-.476m0 0"/></g></svg>