<svg xmlns="http://www.w3.org/2000/svg" width="40" height="40" version="1.0" viewBox="0 0 30 30"><defs><clipPath id="a"><path d="M8 0h21.516v29H8Zm0 0"/></clipPath><clipPath id="b"><path d="M.484 5H10v19H.484Zm0 0"/></clipPath></defs><path fill="#061c3d" fill-rule="evenodd" d="M27.379 25H11.098a.39.39 0 0 1-.387-.387V4.375c0-.215.176-.387.387-.387h16.28c.216 0 .388.172.388.387v20.238a.39.39 0 0 1-.387.387m-15.895-.773h15.508V4.762H11.484Zm0 0"/><g clip-path="url(#a)"><path fill="#061c3d" fill-rule="evenodd" d="M27.43 28.98H11.047a2.09 2.09 0 0 1-2.086-2.085V2.094C8.96.94 9.898.008 11.047.008H27.43c1.148 0 2.086.933 2.086 2.086v24.8a2.09 2.09 0 0 1-2.086 2.086M11.047.777c-.723 0-1.313.59-1.313 1.317v24.8c0 .727.59 1.317 1.313 1.317H27.43c.722 0 1.312-.59 1.312-1.316V2.094c0-.727-.59-1.317-1.312-1.317Zm0 0"/></g><path fill="#061c3d" fill-rule="evenodd" d="M22.648 26.992h-6.82a.388.388 0 0 1 0-.773h6.82c.215 0 .387.172.387.386a.39.39 0 0 1-.387.387M23.426 2.77h-5.477a.39.39 0 0 1-.387-.387.39.39 0 0 1 .387-.387h5.477a.388.388 0 0 1 0 .774M15.371 2.77h-.32a.388.388 0 0 1 0-.773h.32a.388.388 0 0 1 0 .773M17.172 17.055a.38.38 0 0 1-.274-.114l-2.097-2.097a.387.387 0 0 1 0-.543l2.097-2.098a.384.384 0 0 1 .547 0 .38.38 0 0 1 0 .543l-1.824 1.828 1.824 1.824a.38.38 0 0 1 0 .543.38.38 0 0 1-.273.114M21.305 17.055a.38.38 0 0 1-.274-.114.38.38 0 0 1 0-.543l1.824-1.828-1.824-1.824a.38.38 0 0 1 0-.543.384.384 0 0 1 .547 0l2.098 2.098a.387.387 0 0 1 0 .543l-2.098 2.097a.38.38 0 0 1-.273.114M18.36 17.79a.389.389 0 0 1-.371-.5l1.761-5.817a.386.386 0 1 1 .738.226l-1.761 5.817a.39.39 0 0 1-.368.273M24.848 7.23h-11.22a.388.388 0 0 1 0-.773h11.22a.388.388 0 0 1 0 .773M24.848 9.309h-11.22a.384.384 0 1 1 0-.77h11.22a.385.385 0 1 1 0 .77M24.848 20.45h-11.22a.385.385 0 1 1 0-.77h11.22a.384.384 0 1 1 0 .77M24.848 22.531h-11.22a.388.388 0 0 1 0-.773h11.22a.388.388 0 0 1 0 .773m0 0"/><g clip-path="url(#b)"><path fill="#061c3d" fill-rule="evenodd" d="M9.348 23.262H7.05a.39.39 0 0 1-.387-.387v-2.664a6.2 6.2 0 0 1-1.101-.633L3.258 20.91a.386.386 0 0 1-.528-.144L.55 16.988a.386.386 0 0 1 .141-.527l2.29-1.32a6 6 0 0 1 0-1.293l-2.29-1.32A.387.387 0 0 1 .551 12l2.18-3.777a.37.37 0 0 1 .234-.18.38.38 0 0 1 .293.035L5.566 9.41q.517-.37 1.098-.629V6.113c0-.215.176-.386.387-.386h2.297c.21 0 .386.171.386.386v16.762a.39.39 0 0 1-.386.387m-1.91-.774H8.96V6.5H7.437v2.535c0 .16-.097.3-.242.36a5.5 5.5 0 0 0-1.363.78.39.39 0 0 1-.434.032L3.207 8.941l-1.797 3.11 2.176 1.258a.39.39 0 0 1 .191.39 5.5 5.5 0 0 0 0 1.594.39.39 0 0 1-.191.387L1.41 16.938l1.797 3.109 2.188-1.266a.39.39 0 0 1 .433.032c.418.324.875.59 1.367.78a.39.39 0 0 1 .242.36Zm0 0"/></g><path fill="#061c3d" fill-rule="evenodd" d="M9.227 18.336a3.83 3.83 0 0 1-3.836-3.5 3.8 3.8 0 0 1 .882-2.805 3.84 3.84 0 0 1 3.086-1.375.384.384 0 0 1 .375.383v6.906c0 .211-.168.38-.375.387-.043.004-.09.004-.132.004m-.266-6.898c-.82.074-1.566.46-2.094 1.09a3.04 3.04 0 0 0-.707 2.242 3.05 3.05 0 0 0 2.8 2.78Zm0 0"/></svg>