<svg xmlns="http://www.w3.org/2000/svg" width="40" height="40" version="1.0" viewBox="0 0 30 30"><defs><clipPath id="a"><path d="M2.152 0h25.403v27H2.152Zm0 0"/></clipPath></defs><path fill="#fff" d="M16.113 5.504c-.004-.266.02-.574-.203-.727-.176-.12-.465-.093-.598.082-.097.13-.097.301-.101.465.008.235-.004.551.012.813.004.363.246.672.613.492.371-.211.27-.75.277-1.11ZM7.684 13.957c-.344-.031-.774-.012-1.094-.02-.309.008-.57.301-.442.618.09.25.344.28.579.285.23 0 .43-.004.668-.004.156 0 .293.008.433-.066.39-.192.227-.739-.129-.81ZM24.871 13.973c-.336-.063-.723-.012-1.047-.02-.164.004-.347.047-.457.164-.215.235-.062.64.23.707.188.035.337.008.536.016.191-.004.484.023.656-.012a.437.437 0 0 0 .098-.851ZM16.086 22.602c-.078-.227-.356-.383-.586-.286-.363.168-.309.66-.293 1.036.016.324-.039.804.41.793a.6.6 0 0 0 .188-.036c.34-.101.328-.43.312-.718-.012-.227.028-.551-.027-.774ZM10.344 8.371c-.223-.27-.543-.562-.766-.797-.226-.222-.617-.199-.746.117-.11.247.047.45.215.622.16.164.305.308.473.48.113.11.203.215.355.262.41.14.676-.36.477-.668l-.012-.016ZM22.492 20.723c-.195-.29-.508-.532-.726-.774-.118-.113-.278-.215-.442-.207-.316.012-.492.41-.328.664.11.164.23.25.367.403.137.132.325.359.473.464.418.309.863-.132.664-.539l-.008-.015ZM10.27 20.523c.101-.222.015-.53-.22-.625-.37-.144-.679.243-.925.52-.277.285-.629.625-.16.937a.457.457 0 0 0 .629-.093c.136-.145.23-.242.379-.395.125-.137.21-.187.293-.332Zm0 0"/><g clip-path="url(#a)"><path fill="#fff" d="M26.191 3.527c-.316.297-.613.153-.886-.109C22.809 1.215 19.473 0 16.165.028 9.944.022 4.046 4.972 3.074 11.245c-.759 4.703 1.093 9.828 4.894 12.692 2.953 2.226 6.914 3.007 10.484 2.156 2.395-.574 4.7-1.903 6.168-3.946.047-.058.11-.164.008-.062a11.6 11.6 0 0 1-3.543 2.445C12.03 28.715 2.172 19.805 6.008 10.29c2.648-6.71 11.086-8.621 16.324-3.781.324.285.273.555-.027.824q-.744.754-1.489 1.508c-.117.11-.093.172.067.176 2.015.097 4.035.152 6.05.152.208.004.442-.063.493-.297.11-2.074.062-4.164.117-6.242 0-.059 0-.172-.035-.184-.047-.011-.094.032-.137.063-.39.336-.777.676-1.168 1.008l-.015.011Zm0 0"/></g><path fill="#fff" d="M12.824 9.484c.18-.011 1.492.004 1.7-.004.023 0 .039 0 .042.02.004.988 0 4.121 0 4.5.008.035.024.023.079.027h.59c.113 0 .148 0 .152.051.008.145.004.938.004 1.145 0 .027 0 .054-.024.07-.16.023-.414 0-.586.008-.113.008-.164-.02-.207.027-.015.211 0 1.125-.008 1.559-.004.129.016.168-.035.168h-1.523c-.02 0-.04 0-.047-.016-.02-.418 0-1.508-.008-1.703-.004-.02-.004-.031-.027-.035-.559-.004-2.371.008-2.598-.004-.035-.035-.008-.09-.015-.176 0-.277-.004-.8 0-1.09.152-.281 2.355-4.304 2.507-4.547Zm.254 4.63c.016-.321 0-1.231.008-1.708-.008-.465.008-.972-.008-1.355-.058.125-1.531 2.855-1.621 3.066a75 75 0 0 0 1.621 0ZM19.922 12.988c0 .047.07.094.113.125 1.168.758 1.25 2.54.235 3.453-.57.582-1.829.723-2.715.516-1.032-.207-1.657-1.113-1.551-2.172.058-.703.45-1.094 1.055-1.469.078-.066.023-.136-.043-.187-.977-.68-1.063-2.168-.317-3.043.442-.57 1.238-.754 1.95-.727 1.203 0 2.09.641 2.124 1.825q.034.984-.742 1.546c-.039.032-.11.079-.11.125Zm-1.8.946c-1.036.418-.923 2.129.304 2.125.719.062 1.308-.672.898-1.34-.144-.239-.273-.324-.558-.5-.168-.086-.403-.258-.625-.285Zm.75-1.461c.733-.496.722-1.961-.321-1.938-.63-.023-1.028.668-.735 1.219.082.164.25.3.41.41.169.11.34.211.512.29.04.019.082.03.121.023ZM11.527 18.582c.067-.008.207-.004.286-.004.058.004.124-.012.14.05.012.169 0 .602.008.74 0 .034.023.054.059.058.07.008.261.004.351.004.133-.004.074-.121.086-.278v-.5c.012-.101.105-.066.207-.074.086.004.18-.012.238.016.032.234.004 1.812.012 2.05 0 .028-.02.036-.043.04-.035.003-.11.003-.187.003-.207-.003-.239.032-.227-.214-.008-.22.012-.493-.008-.614-.015-.03-.043-.03-.078-.03-.07-.005-.168-.005-.238-.005-.078.004-.172-.02-.176.074-.012.137.02.57-.012.754q-.012.034-.082.032c-.082.003-.23.003-.297 0-.03 0-.05 0-.062-.028-.008-.172 0-1.297-.004-1.683v-.36q.004-.022.02-.027ZM14.738 19.648c.016.563-.21 1.141-.828 1.067-.61-.07-.7-.664-.672-1.254.012-.484.254-.961.785-.914.559.027.723.55.715 1.082Zm-.48-.027c-.012-.262.015-.473-.121-.637-.121-.129-.332-.043-.375.118-.04.105-.051.363-.051.53.02.313-.027.661.258.708a.2.2 0 0 0 .168-.059c.136-.16.11-.375.12-.64ZM15.086 18.586c.055-.016.113-.008.2-.012.093.008.155-.012.214.024.027.05.008.105.016.207v.886c.011.204-.04.489.156.606.191.105.41-.04.406-.258.02-.406.004-1.027.012-1.371-.008-.113.082-.086.191-.094.082.008.153-.02.184.043.015.317.004.828.004 1.164-.008.227.011.535-.157.723-.253.293-.882.3-1.125-.027-.14-.196-.12-.528-.128-.782 0-.195-.004-.824.004-1.078.003-.012.003-.023.015-.027ZM16.871 18.582c.129-.012.336 0 .484-.004.227.008.446-.027.641.106.297.203.324.757.047 1.007-.055.047-.086.079-.07.13.074.202.285.675.332.808.008.016.015.035 0 .047-.082.023-.203.004-.293.012-.094-.004-.184.019-.211-.083-.043-.125-.156-.464-.215-.628-.016-.051-.031-.106-.082-.114a.25.25 0 0 0-.121-.004c-.098.016-.063.094-.067.184 0 .18 0 .465-.003.57-.004.106-.102.063-.208.075-.074 0-.148 0-.19-.004-.044-.004-.06-.004-.063-.04.011-.242-.024-1.882.011-2.062Zm.45.34s0 .055-.005.129c.012.172-.015.441.016.46.223.009.461.02.457-.3-.004-.316-.23-.297-.465-.29ZM19.809 19.008c-.055.086-.2.125-.301.129-.09-.008-.137-.145-.242-.18-.243-.105-.45.191-.188.336.363.172.856.289.805.809-.02.671-1.051.828-1.363.316-.133-.203-.137-.297.136-.348.098-.027.164.012.211.098.09.191.41.23.512.039.07-.156-.043-.273-.203-.332-.223-.098-.48-.164-.61-.387-.23-.375.04-.906.477-.933.309-.047.73.093.773.441l-.003.012Zm0 0"/></svg>