<svg xmlns="http://www.w3.org/2000/svg" width="40" height="40" version="1.0" viewBox="0 0 30 30"><defs><clipPath id="a"><path d="M.484 5h28.868v20H.484Zm0 0"/></clipPath><clipPath id="b"><path d="M.484 20h28.868v2H.484Zm0 0"/></clipPath></defs><path fill="#061c3d" d="M15.18 19.805h-.696c-.625 0-1.129-.496-1.171-1.153l-.11-1.636a7.2 7.2 0 0 1-2.25-.93L9.72 17.164c-.496.434-1.203.43-1.645-.012l-.492-.496c-.441-.441-.445-1.144-.016-1.64l1.082-1.239a7.1 7.1 0 0 1-.93-2.246l-1.636-.11c-.656-.042-1.152-.546-1.152-1.171v-.695c0-.625.496-1.13 1.152-1.176l1.637-.11c.18-.796.492-1.55.93-2.246L7.565 4.79c-.43-.496-.425-1.203.016-1.644l.492-.493c.442-.441 1.149-.449 1.645-.015l1.238 1.082a7.2 7.2 0 0 1 2.246-.934l.11-1.637C13.355.492 13.859 0 14.484 0h.696c.625 0 1.129.492 1.172 1.148l.113 1.637c.797.184 1.55.496 2.246.934l1.234-1.082c.496-.434 1.203-.426 1.645.015l.492.493c.441.44.45 1.148.016 1.644l-1.082 1.234c.437.696.75 1.45.933 2.247l1.637.109c.656.047 1.148.55 1.148 1.176v.695c0 .625-.492 1.129-1.148 1.172l-1.64.11c-.18.8-.493 1.554-.93 2.245l1.082 1.239c.433.496.425 1.199-.016 1.64l-.492.496c-.442.442-1.149.446-1.645.012l-1.234-1.078c-.695.437-1.45.75-2.246.93l-.113 1.636c-.043.657-.547 1.153-1.172 1.153m-4.254-4.457c.066 0 .129.015.183.054.75.508 1.579.852 2.465 1.02a.33.33 0 0 1 .266.3l.125 1.887c.023.309.246.54.52.54h.695c.273 0 .496-.231.52-.54l.124-1.882a.33.33 0 0 1 .266-.301 6.6 6.6 0 0 0 2.465-1.024.33.33 0 0 1 .398.024l1.426 1.246c.23.203.55.207.746.015l.492-.492c.195-.195.188-.515-.015-.75l-1.243-1.422a.324.324 0 0 1-.027-.398 6.6 6.6 0 0 0 1.023-2.465.324.324 0 0 1 .301-.265l1.883-.13c.309-.019.54-.242.54-.515v-.695c0-.278-.231-.496-.54-.52l-1.883-.125a.33.33 0 0 1-.3-.265 6.6 6.6 0 0 0-1.024-2.465.32.32 0 0 1 .027-.399l1.243-1.426c.203-.23.21-.55.015-.746l-.492-.492c-.195-.195-.516-.187-.746.016l-1.426 1.242a.33.33 0 0 1-.398.027A6.6 6.6 0 0 0 16.09 3.38a.33.33 0 0 1-.266-.3L15.7 1.194c-.023-.308-.246-.539-.52-.539h-.695c-.273 0-.496.23-.52.54l-.124 1.882a.33.33 0 0 1-.266.3 6.6 6.6 0 0 0-2.465 1.024.33.33 0 0 1-.398-.027L9.285 3.133c-.23-.203-.55-.211-.746-.016l-.492.492c-.192.196-.188.516.015.746L9.31 5.781c.097.11.105.274.023.399a6.6 6.6 0 0 0-1.023 2.465.33.33 0 0 1-.301.265l-1.883.125c-.309.02-.54.242-.54.52v.695c0 .273.231.496.54.516l1.883.129a.324.324 0 0 1 .3.265 6.6 6.6 0 0 0 1.024 2.465.33.33 0 0 1-.023.398l-1.246 1.422c-.204.235-.208.555-.016.75l.492.492c.195.192.516.188.746-.015l1.426-1.246a.34.34 0 0 1 .215-.078m0 0"/><path fill="#061c3d" d="M14.832 15.55a5.656 5.656 0 0 1-5.648-5.648 5.656 5.656 0 0 1 5.648-5.648 5.656 5.656 0 0 1 5.648 5.648 5.656 5.656 0 0 1-5.648 5.649m0-10.64A4.996 4.996 0 0 0 9.84 9.902a5 5 0 0 0 4.992 4.993 5 5 0 0 0 4.992-4.993 4.996 4.996 0 0 0-4.992-4.992m0 0"/><g clip-path="url(#a)"><path fill="#061c3d" d="M26.98 24.758H2.684A2.37 2.37 0 0 1 .316 22.39V7.777A2.37 2.37 0 0 1 2.684 5.41h6.152a.33.33 0 0 1 .328.328.33.33 0 0 1-.328.328H2.684c-.942 0-1.711.766-1.711 1.711v14.614c0 .941.77 1.71 1.71 1.71H26.98c.946 0 1.711-.769 1.711-1.71V7.777a1.71 1.71 0 0 0-1.71-1.71h-6.153a.33.33 0 0 1-.328-.329.33.33 0 0 1 .328-.328h6.152a2.37 2.37 0 0 1 2.368 2.367v14.614a2.37 2.37 0 0 1-2.368 2.367m0 0"/></g><path fill="#061c3d" d="M17.414 28.7H12.25a.32.32 0 0 1-.281-.16.33.33 0 0 1-.012-.321c.637-1.211.637-2.367 0-3.645a.325.325 0 0 1 .293-.472h5.164a.325.325 0 0 1 .293.473c-.637 1.277-.637 2.433 0 3.644a.33.33 0 0 1-.012.32.32.32 0 0 1-.28.16m-4.648-.657h4.132c-.437-1.082-.433-2.164.012-3.285h-4.152c.441 1.12.445 2.203.008 3.285m0 0"/><path fill="#061c3d" d="M18.977 28.7h-8.29a.33.33 0 0 1-.328-.329c0-.183.145-.328.329-.328h8.289a.328.328 0 1 1 0 .656m0 0"/><g clip-path="url(#b)"><path fill="#061c3d" d="M29.02 21.2H.645a.33.33 0 0 1-.329-.329.33.33 0 0 1 .329-.328H29.02a.328.328 0 1 1 0 .656m0 0"/></g><path fill="#061c3d" d="M16.922 22.977h-4.18a.328.328 0 1 1 0-.657h4.18c.183 0 .328.149.328.328a.325.325 0 0 1-.328.329M15.39 11.27a.33.33 0 0 1-.3-.196l-.922-2.148a.328.328 0 1 1 .602-.258l.62 1.441.622-1.441a.328.328 0 1 1 .602.258l-.923 2.148a.33.33 0 0 1-.3.196M17.36 11.336a.33.33 0 0 1-.329-.328V8.797c0-.184.145-.328.328-.328.18 0 .328.144.328.328v2.21a.33.33 0 0 1-.328.329m0 0"/><path fill="#061c3d" d="M17.996 10.332h-.637a.33.33 0 0 1-.328-.328V8.797c0-.184.145-.328.328-.328h.637a.932.932 0 0 1 0 1.863m-.308-.66h.308a.274.274 0 0 0 .274-.274.274.274 0 0 0-.274-.273h-.308ZM13.406 11.27a.325.325 0 0 1-.328-.329V9.59l-.543.543a.335.335 0 0 1-.465 0l-.543-.543v1.351a.33.33 0 0 1-.328.329.325.325 0 0 1-.328-.329V8.797a.327.327 0 0 1 .559-.235l.87.872.872-.871a.33.33 0 0 1 .36-.07c.12.05.202.171.202.304v2.144a.33.33 0 0 1-.328.329M6.66 19.61H2.113a.328.328 0 1 1 0-.656H6.66a.328.328 0 1 1 0 .655M6.66 18.168H2.113a.33.33 0 0 1-.328-.328.33.33 0 0 1 .328-.328H6.66a.33.33 0 0 1 .328.328.33.33 0 0 1-.328.328M5.46 16.727H2.114a.328.328 0 1 1 0-.657h3.348c.184 0 .328.149.328.328a.325.325 0 0 1-.328.329M27.516 19.61h-4.543a.33.33 0 0 1-.328-.329c0-.183.144-.328.328-.328h4.543a.328.328 0 1 1 0 .656M27.516 18.168h-4.543a.328.328 0 1 1 0-.656h4.543a.328.328 0 1 1 0 .656M27.516 16.727h-3.348a.328.328 0 1 1 0-.657h3.348c.183 0 .328.149.328.328a.325.325 0 0 1-.328.329m0 0"/></svg>