<svg xmlns="http://www.w3.org/2000/svg" width="40" height="40" version="1.0" viewBox="0 0 30 30"><defs><clipPath id="a"><path d="M.484 2.05h29.032v24.677H.484Zm0 0"/></clipPath></defs><g clip-path="url(#a)"><path fill="#061c3d" fill-rule="evenodd" d="M14.242 8.48a.49.49 0 0 1-.367.457 6 6 0 0 0-1.625.672.48.48 0 0 1-.586-.062l-.914-.863-1.594 1.597.86.914c.152.16.175.395.066.582a6.3 6.3 0 0 0-.676 1.625.49.49 0 0 1-.457.371l-1.258.036v2.254l1.258.039a.49.49 0 0 1 .457.367 6 6 0 0 0 .676 1.625.49.49 0 0 1-.066.586l-.86.914 1.594 1.593.914-.859a.484.484 0 0 1 .586-.066c.504.3 1.05.527 1.621.672a.48.48 0 0 1 .367.46l.04 1.258h2.257l.035-1.257a.49.49 0 0 1 .371-.461 6.2 6.2 0 0 0 1.622-.668.48.48 0 0 1 .585.062l.915.86 1.593-1.594-.86-.914a.484.484 0 0 1-.062-.586c.297-.508.524-1.051.668-1.621a.49.49 0 0 1 .461-.371l1.258-.04V13.81l-1.258-.04a.475.475 0 0 1-.457-.367 6.2 6.2 0 0 0-.672-1.62.49.49 0 0 1 .063-.587l.863-.914-1.594-1.597-.918.863a.49.49 0 0 1-.585.062 6 6 0 0 0-1.622-.671.49.49 0 0 1-.37-.458l-.036-1.257h-2.254Zm-2.824 16.141c0 1.16-.945 2.106-2.105 2.106a2.11 2.11 0 0 1-2.106-2.106 2.11 2.11 0 0 1 2.106-2.11c.5 0 .957.177 1.32.47l1.55-1.907q.329.169.672.309l-1.746 2.14a2.1 2.1 0 0 1 .309 1.098m11.98-2.2c.36-.284.813-.456 1.309-.456 1.16 0 2.105.945 2.105 2.105a2.11 2.11 0 0 1-2.105 2.11 2.11 2.11 0 0 1-2.11-2.11c0-.406.122-.789.325-1.113l-1.79-1.789.505-.508Zm1.786-12.898a2.106 2.106 0 1 1 4.04-.832c-.001 1.16-.947 2.106-2.107 2.106-.61 0-1.156-.262-1.543-.672l-3.672 2.395a7 7 0 0 0-.289-.665ZM5.89 5.926A2.108 2.108 0 0 1 2.637 4.16c0-1.16.945-2.105 2.105-2.105S6.848 3 6.848 4.16c0 .48-.16.926-.434 1.277l3.27 3.27-.508.504Zm-1.227 8.652a2.11 2.11 0 0 0-2.078-1.746c-1.16 0-2.106.945-2.106 2.105s.946 2.106 2.106 2.106c1.039 0 1.906-.758 2.078-1.75h2.29v-.715Zm13.234-.937a.358.358 0 0 1 .715 0v2.59a.358.358 0 1 1-.715 0Zm-2.734 0a.36.36 0 0 1 .36-.356h.972a1.004 1.004 0 1 1 0 2.008h-.613v.937c0 .2-.16.36-.36.36a.36.36 0 0 1-.359-.36Zm.719.937V14h.613a.288.288 0 1 1 0 .578Zm-1.375-.137v1.79a.358.358 0 1 1-.715 0v-.536h-.879v.535a.358.358 0 1 1-.715 0v-1.789a1.155 1.155 0 1 1 2.309 0M13.355 14c.243 0 .438.2.438.441v.536h-.879v-.536a.44.44 0 0 1 .441-.441m-1.453-2.566a4.96 4.96 0 0 1 7.008 0 4.96 4.96 0 0 1 0 7.007 4.965 4.965 0 0 1-7.008 0 4.965 4.965 0 0 1 0-7.007m0 0"/></g></svg>