<svg xmlns="http://www.w3.org/2000/svg" width="40" height="40" version="1.0" viewBox="0 0 30 30"><defs><clipPath id="a"><path d="M13 2h16.516v17H13Zm0 0"/></clipPath><clipPath id="b"><path d="M.484 15H5v5H.484Zm0 0"/></clipPath></defs><path fill="#061c3d" fill-rule="evenodd" d="M10.52 25.395a.3.3 0 0 1-.29-.293v-1.309c0-.39-.273-.715-.628-.715-.36 0-.649.324-.649.715v1.309a.3.3 0 0 1-.289.293c-.152 0-.273-.137-.273-.293v-1.309c0-.695.547-1.273 1.21-1.273.66 0 1.208.578 1.208 1.273v1.309a.3.3 0 0 1-.29.293m0 0"/><path fill="#061c3d" fill-rule="evenodd" d="M10.52 24.73H8.664a.27.27 0 0 1-.273-.273c0-.172.12-.289.273-.289h1.856c.152 0 .289.117.289.289 0 .152-.137.273-.29.273M12.39 25.324a.296.296 0 0 1-.288-.289v-2.297c0-.168.132-.289.289-.289.152 0 .289.121.289.29v2.296c0 .152-.137.29-.29.29m0 0"/><path fill="#061c3d" fill-rule="evenodd" d="M13.035 23.012h-1.293c-.168 0-.289-.121-.289-.274 0-.168.121-.289.29-.289h1.292c.152 0 .29.121.29.29 0 .152-.137.273-.29.273M13.035 25.324h-1.293a.29.29 0 0 1-.289-.289c0-.152.121-.289.29-.289h1.292c.152 0 .29.137.29.29 0 .151-.137.288-.29.288M23.426 11.855h-1.309a.27.27 0 0 1-.273-.273V9.27c0-.153.12-.274.273-.274s.29.121.29.274v2.023h1.019c.156 0 .289.137.289.289s-.133.273-.29.273M20.773 11.855c-.152 0-.289-.12-.289-.273v-.852l-.375.954a.3.3 0 0 1-.27.171c-.1 0-.222-.07-.257-.171l-.39-.954v.852a.27.27 0 0 1-.27.273c-.172 0-.29-.12-.29-.273V9.27c0-.137.102-.254.22-.274a.29.29 0 0 1 .324.172l.664 1.648.68-1.648c.05-.121.168-.203.304-.172.137.02.238.137.238.274v2.312c0 .152-.136.273-.289.273m0 0"/><g clip-path="url(#a)"><path fill="#061c3d" fill-rule="evenodd" d="M22.645 18.828h-1.7c-.152 0-.289-.121-.289-.273 0-.168.137-.29.29-.29h1.613v-1.242c0-.117.101-.238.222-.27a6.4 6.4 0 0 0 1.617-.663.26.26 0 0 1 .34.05l.867.868 2.075-2.074-.867-.868c-.086-.101-.122-.238-.051-.34a6.4 6.4 0 0 0 .68-1.617c.035-.136.136-.222.273-.222h1.223V8.965h-1.223c-.137 0-.238-.086-.274-.223a6.4 6.4 0 0 0-.68-1.617c-.07-.102-.034-.238.052-.34l.867-.867-2.075-2.074-.867.867a.26.26 0 0 1-.34.05 6.4 6.4 0 0 0-1.617-.663c-.12-.032-.222-.153-.222-.27V2.586h-2.926v1.242a.28.28 0 0 1-.203.27 6.4 6.4 0 0 0-1.614.664c-.12.07-.257.05-.34-.051l-.886-.867-2.074 2.074.882.867c.086.102.102.238.036.34a8 8 0 0 0-.325.648c-.05.137-.218.204-.37.137-.137-.07-.208-.223-.137-.375.066-.172.152-.34.238-.492l-.766-.766a.57.57 0 0 1-.152-.359c0-.137.066-.254.152-.356l2.176-2.16a.505.505 0 0 1 .7 0l.76.766a7 7 0 0 1 1.364-.563v-1.09c0-.269.219-.492.492-.492h3.079c.273 0 .492.223.492.493v1.09c.46.136.918.324 1.343.562l.786-.766a.45.45 0 0 1 .34-.152c.136 0 .269.05.355.152l2.176 2.16a.54.54 0 0 1 .136.356c0 .137-.05.254-.136.36l-.782.765c.239.422.426.883.563 1.344h1.09c.289 0 .508.234.508.508v3.062a.494.494 0 0 1-.508.492h-1.09a6.3 6.3 0 0 1-.563 1.36l.782.765a.538.538 0 0 1 0 .715l-2.176 2.16a.5.5 0 0 1-.695 0l-.786-.765a6.6 6.6 0 0 1-1.343.562v1.09c0 .27-.219.492-.492.492m0 0"/></g><path fill="#061c3d" fill-rule="evenodd" d="M21.098 15.512a5.1 5.1 0 0 1-4.082-2.075c-.102-.12-.067-.289.05-.39.137-.086.305-.07.41.066a4.53 4.53 0 0 0 3.622 1.836c2.5 0 4.523-2.039 4.523-4.523a4.53 4.53 0 0 0-4.523-4.524 4.51 4.51 0 0 0-4.387 3.47c-.035.151-.188.237-.344.202-.152-.031-.234-.187-.203-.34a5.06 5.06 0 0 1 4.934-3.894 5.09 5.09 0 0 1 5.086 5.086 5.09 5.09 0 0 1-5.086 5.086M17.133 27.008H4.582a.286.286 0 0 1-.289-.29V16.075c0-.156.137-.273.289-.273h12.55c.157 0 .274.117.274.273V26.72c0 .172-.117.289-.273.289M4.87 26.445h11.973V16.363H4.87Zm0 0"/><g clip-path="url(#b)"><path fill="#061c3d" fill-rule="evenodd" d="M4.582 19.508H.773a.286.286 0 0 1-.289-.29v-1.905c0-.833.68-1.512 1.512-1.512h2.586c.152 0 .29.117.29.273 0 .168-.138.29-.29.29H1.996a.945.945 0 0 0-.95.948v1.618h3.536c.152 0 .29.136.29.289s-.138.289-.29.289m0 0"/></g><path fill="#061c3d" fill-rule="evenodd" d="M1.758 27.008a.286.286 0 0 1-.29-.29v-7.5c0-.152.137-.288.29-.288.156 0 .289.136.289.289v7.5c0 .172-.133.289-.29.289M20.945 19.508h-3.812a.29.29 0 0 1-.29-.29c0-.152.122-.288.29-.288h3.523v-1.617a.95.95 0 0 0-.953-.95h-2.57a.28.28 0 0 1-.29-.289c0-.156.122-.273.29-.273h2.57c.832 0 1.531.68 1.531 1.511v1.907c0 .152-.136.289-.289.289m0 0"/><path fill="#061c3d" fill-rule="evenodd" d="M19.957 27.008a.277.277 0 0 1-.289-.29v-7.5c0-.152.121-.288.289-.288.152 0 .273.136.273.289v7.5c0 .172-.12.289-.273.289M14.363 27.008c-.152 0-.273-.117-.273-.29v-5.613c0-.152.12-.27.273-.27.168 0 .29.118.29.27v5.614c0 .172-.122.289-.29.289m-7.023 0a.284.284 0 0 1-.29-.29v-5.613c0-.152.134-.27.29-.27.152 0 .289.118.289.27v5.614c0 .172-.137.289-.29.289m0 0"/><path fill="#061c3d" fill-rule="evenodd" d="M15.043 21.395H6.676a.83.83 0 0 1-.836-.817v-1.156c0-.457.375-.817.836-.817h8.367c.457 0 .816.36.816.817v1.156c0 .445-.359.817-.816.817m-8.367-2.227a.25.25 0 0 0-.258.254v1.156c0 .137.105.258.258.258h8.367a.26.26 0 0 0 .254-.258v-1.156a.26.26 0 0 0-.254-.254ZM15.555 14.676H6.996a2.144 2.144 0 0 1-2.14-2.14c0-3.454 2.824-6.278 6.273-6.278h.273c3.47 0 6.278 2.824 6.278 6.277 0 1.172-.953 2.14-2.125 2.14m-4.426-7.84c-3.145 0-5.711 2.55-5.711 5.7 0 .866.71 1.562 1.578 1.562h8.559a1.57 1.57 0 0 0 1.562-1.563c0-3.148-2.566-5.7-5.715-5.7Zm0 0"/><path fill="#061c3d" fill-rule="evenodd" d="M15.555 13.027H6.996a.493.493 0 0 1-.492-.492 4.63 4.63 0 0 1 4.625-4.625h.273a4.63 4.63 0 0 1 4.625 4.625.486.486 0 0 1-.472.492m-8.473-.578h8.387a4.065 4.065 0 0 0-4.067-3.96h-.273c-2.211 0-4.012 1.765-4.047 3.96m0 0"/><path fill="#061c3d" fill-rule="evenodd" d="M9.465 12.008a1.177 1.177 0 0 1-1.176-1.176c0-.645.527-1.172 1.176-1.172a1.18 1.18 0 0 1 1.191 1.172 1.18 1.18 0 0 1-1.191 1.176m0-1.77a.605.605 0 0 0 0 1.207.61.61 0 0 0 .613-.613.61.61 0 0 0-.613-.594M13.07 12.008a1.177 1.177 0 0 1-1.175-1.176c0-.645.527-1.172 1.175-1.172.645 0 1.172.527 1.172 1.172 0 .648-.527 1.176-1.172 1.176m0-1.77a.61.61 0 0 0-.613.594.603.603 0 1 0 1.207 0c0-.32-.27-.594-.594-.594M15.297 16.363c-.168 0-.29-.12-.29-.273a3.8 3.8 0 0 0-.374-1.582.275.275 0 0 1 .137-.375.274.274 0 0 1 .375.137c.273.562.425 1.171.425 1.804 0 .153-.12.29-.273.29m-8.043 0h-.02c-.152 0-.27-.136-.27-.289 0-.633.153-1.242.427-1.804a.27.27 0 0 1 .37-.137.27.27 0 0 1 .137.375 3.9 3.9 0 0 0-.375 1.582.27.27 0 0 1-.27.273m0 0"/></svg>