<svg xmlns="http://www.w3.org/2000/svg" width="40" height="40" version="1.0" viewBox="0 0 30 30"><defs><clipPath id="a"><path d="M.484 0h29.032v29H.484Zm0 0"/></clipPath></defs><g clip-path="url(#a)"><path fill="#061c3d" d="M23.926 5.402a.438.438 0 0 1-.254-.832l1.41-.586c.3-.125.656.114.598.489l-.196 1.484a.435.435 0 0 1-.484.379.44.44 0 0 1-.379-.41l-1.164 1.472a.44.44 0 0 1-.344.165l-2.605.007c1.117 2.063 3.914 2.485 5.578.817a3.51 3.51 0 0 0 0-4.969 3.51 3.51 0 0 0-4.965 0 3.52 3.52 0 0 0-.941 3.285l2.726-.008ZM14 16.945q-.01-.029-.02-.05c-.312-.887-.84-1.676-1.57-2.266-.848-.684-1.976-1.094-3.367-1.063-1.844.04-4.059.297-5.29 1.641-.98 1.078-1.288 2.77-1.108 5.188a.4.4 0 0 1-.043.226l-.985 1.973c-.07.14.024.297.176.308l1.098.09c.23.02.402.211.402.434v2.472a.874.874 0 0 0 .96.645l1.27-.34a.44.44 0 0 1 .536.309l.414 1.554 5.457-.011c-.52-1.254-1.051-2.563-.407-3.907.098-.199.23-.359.415-.492a5.76 5.76 0 0 0 2.218-3.379A6.06 6.06 0 0 0 14 16.945m.473-1.11.246-.39-1.938-4.882a.43.43 0 0 1 .242-.563c.223-.09.477.02.567.242l1.703 4.29 3.371-5.391a5.85 5.85 0 0 1-.96-3.094H6.776a.7.7 0 0 0-.703.7v6.28c.844-.199 1.824-.308 2.95-.332 2.456-.054 4.421 1.121 5.449 3.14m4.761-5.964-3.543 5.664 1.504 3.797 1.29-1.914a.438.438 0 0 1 .788.152l.907 3.86 1.14-1.426a.43.43 0 0 1 .34-.164h1.762c-.277-.375.152-.871.562-.64l1.2.679c.289.164.308.59-.012.766L24 21.332c-.398.234-.84-.242-.578-.621h-1.55l-1.563 1.953a.435.435 0 0 1-.774-.16l-.887-3.77-1.191 1.766a.435.435 0 0 1-.766-.082l-1.574-3.965-.238.379c.36 1.156.41 2.426.129 3.637a6.65 6.65 0 0 1-2.563 3.89c-.113.082-.152.188-.203.317h14.774a.7.7 0 0 0 .699-.696V10.137a5.9 5.9 0 0 1-1.906 1.242v.047h-.004c0 .707-.192 1.89-.922 1.976v3.825c0 2.14-2.563 2.14-2.563 0h.004v-3.829c-.754-.085-.926-1.304-.926-2.02a5.9 5.9 0 0 1-2.164-1.507m4.371-8.355a4.38 4.38 0 0 1 4.383 4.386 4.384 4.384 0 1 1-8.77 0 4.385 4.385 0 0 1 4.387-4.386m0-1.516a5.905 5.905 0 0 1 5.903 5.902c0 1.164-.34 2.25-.922 3.164V23.98c0 .864-.707 1.57-1.57 1.57H12.109c.032.907.528 1.891.871 2.782a.437.437 0 0 1-.406.594l-6.402.012a.44.44 0 0 1-.453-.325l-.39-1.453-.923.242c-.46.07-.91-.047-1.265-.293a1.75 1.75 0 0 1-.703-1.043.5.5 0 0 1-.02-.128v-2.11l-.695-.055a1.09 1.09 0 0 1-.887-1.57l.934-1.863c-.18-2.606.199-4.465 1.34-5.719.535-.582 1.222-1.027 2.093-1.34V6.746c0-.867.707-1.574 1.57-1.574h10.973A5.9 5.9 0 0 1 23.606 0m1.325 11.656c-.871.2-1.782.2-2.649 0 .016.281.063.528.13.711.038.106-.06.168-.013.168h2.407v-.004c.05 0-.047-.062-.008-.164a2.8 2.8 0 0 0 .133-.71m2.23-9.308a5.03 5.03 0 0 0-7.113 0 5.029 5.029 0 1 0 7.113 0m-3.148 11.054h-.82v3.825h.003c0 .98.817.98.817 0h.004v-3.825Zm-12.98 4.258c1.09 0 1.636 1.32.866 2.09a1.2 1.2 0 0 1-.421.277v1.453l.671.555a.43.43 0 0 1 .059.613.44.44 0 0 1-.613.059l-.828-.687a.43.43 0 0 1-.16-.336V20.03a1.225 1.225 0 0 1 .425-2.37m.25.977a.351.351 0 1 0 0 .5.356.356 0 0 0 0-.5M5.112 24.5a.44.44 0 0 1-.59-.184.44.44 0 0 1 .184-.59l1.012-.53v-5.18l-.555-.559a1.224 1.224 0 0 1-1.715-1.121c0-1.086 1.32-1.637 2.09-.867.36.36.461.91.246 1.379l.676.675a.43.43 0 0 1 .133.309v5.625H6.59a.44.44 0 0 1-.23.387Zm2.832-2.238a.437.437 0 0 1-.437.437.433.433 0 0 1-.434-.437v-5.356a1.222 1.222 0 0 1-.43-2.008c.766-.77 2.09-.222 2.09.864 0 .52-.32.968-.789 1.144Zm2.395.746c.21.11.293.375.183.586a.44.44 0 0 1-.59.183l-1.245-.656a.44.44 0 0 1-.231-.387h-.004v-4.902c0-.121.05-.23.133-.309l.809-.812c-.36-.8.23-1.719 1.117-1.719 1.09 0 1.636 1.32.867 2.094a1.23 1.23 0 0 1-1.371.246l-.68.684v4.457Zm-.078-6.547a.35.35 0 1 0 .502-.488.35.35 0 0 0-.502.488m-5.34-.371a.352.352 0 0 0-.602.246c0 .312.383.469.602.246a.347.347 0 0 0 0-.492m2.836-.574a.352.352 0 0 0-.602.246c0 .316.38.468.602.25a.35.35 0 0 0 0-.496m0 0"/></g></svg>