<svg xmlns="http://www.w3.org/2000/svg" width="40" height="40" version="1.0" viewBox="0 0 30 30"><defs><clipPath id="a"><path d="M1.734 0H28.59v29H1.734Zm0 0"/></clipPath></defs><g clip-path="url(#a)"><path fill="#061c3d" fill-rule="evenodd" d="M12.328 27.61c-.277.48-1 .382-1.144-.153-.145-.535.437-.977.914-.7.297.169.402.552.23.852m.207-1.61a1.5 1.5 0 0 0-1.77.203l-8.152-4.707V9.594a.436.436 0 1 0-.871 0V21.75c0 .152.082.297.219.375l8.371 4.832a1.496 1.496 0 0 0 1.84 1.785c1.281-.344 1.515-2.074.363-2.742M4.547 5.465a.624.624 0 0 1 .625 1.082.624.624 0 0 1-.625-1.082M4.863 7.5c.957 0 1.668-.898 1.453-1.832L14.47.961l10.308 5.953a.44.44 0 0 0 .598-.16.443.443 0 0 0-.16-.598L14.688.078a.46.46 0 0 0-.438 0L5.879 4.914a1.493 1.493 0 0 0-2.313 1.84c.274.48.778.746 1.297.746m13.512 11.059q-.026.021-.05.05v-.84a3.86 3.86 0 0 0-2.423-3.578c.368-.367.594-.87.594-1.43a2.03 2.03 0 0 0-2.027-2.027 2.03 2.03 0 0 0-2.028 2.028c0 .558.23 1.062.594 1.43a3.86 3.86 0 0 0-2.418 3.578v.84c-.02-.02-.035-.036-.055-.051a5.533 5.533 0 0 1 0-7.813 5.533 5.533 0 0 1 7.813 0 5.526 5.526 0 0 1 0 7.813m-3.906-4.645a1.155 1.155 0 0 1 0-2.309c.636 0 1.156.52 1.156 1.157 0 .636-.52 1.152-1.156 1.152m-2.98 5.39V17.77a2.986 2.986 0 0 1 2.98-2.985c1.644 0 2.98 1.34 2.98 2.985v1.535a5.53 5.53 0 0 1-5.96 0m7.503-9.175a6.396 6.396 0 0 1-9.043 9.047c-2.496-2.496-2.496-6.555 0-9.047a6.403 6.403 0 0 1 9.043 0m7.145.523a.624.624 0 1 1 1.247.005.624.624 0 0 1-1.247-.005m-.094 16.262.691-.691-5.984-5.98a9 9 0 0 1-.691.69ZM9.141 19.98a7.53 7.53 0 0 1 0-10.656c2.937-2.937 7.718-2.937 10.656 0 2.937 2.938 2.937 7.719 0 10.656-2.938 2.938-7.719 2.938-10.656 0m18.058 1.77v-9.668a1.5 1.5 0 0 0 1.059-1.43c0-.824-.672-1.496-1.496-1.496-.825 0-1.496.672-1.496 1.496 0 .672.449 1.243 1.058 1.43v9.414l-1.957 1.129-3.07-3.07c2.363-3.282 2.066-7.899-.883-10.848-3.277-3.277-8.613-3.277-11.89 0a8.405 8.405 0 0 0 0 11.89c2.93 2.93 7.542 3.262 10.851.883l2.555 2.555-5.914 3.414c-.383.223-.223.813.218.813q.113 0 .22-.059l6.112-3.531 3.168 3.168a.434.434 0 0 0 .618 0l1.308-1.305a.44.44 0 0 0 0-.617l-2.652-2.652 1.972-1.141a.44.44 0 0 0 .22-.375m0 0"/></g></svg>