<svg xmlns="http://www.w3.org/2000/svg" width="40" height="40" version="1.0" viewBox="0 0 30 30"><defs><clipPath id="a"><path d="M.484 2h29.032v25.707H.484Zm0 0"/></clipPath></defs><g clip-path="url(#a)"><path fill="#061c3d" fill-rule="evenodd" d="m10.14 4.805 2.563 1.504a.07.07 0 0 1 .027.054v1.88c0 .042.043.07.082.054q.404-.165.79-.34c.02-.012.035-.031.035-.055V6.07h-.004a.44.44 0 0 0-.223-.386l-2.812-1.657c-.024-.015-.036-.039-.028-.066.2-.953-.527-1.86-1.511-1.86-1.371 0-2.063 1.665-1.094 2.633a1.54 1.54 0 0 0 2.105.075.06.06 0 0 1 .07-.004m2.15 4.668c.913-.34 1.823-.735 2.687-1.188a.07.07 0 0 1 .054 0c2.54 1.332 5.574 2.219 8.403 2.637a.06.06 0 0 1 .05.058c.016.489.028.973.036 1.461 0 .028.02.051.046.059 1.254.3 2.305.754 3.075 1.34l.53.441c.017.012.032.02.052.016.5-.106 1.011.05 1.359.402.938.938.273 2.543-1.05 2.543-1.247 0-1.93-1.441-1.177-2.406a.06.06 0 0 0-.011-.082l-.25-.195c-.621-.477-1.469-.852-2.489-1.121-.039-.008-.074.019-.074.058.004 2.441-.156 4.84-.847 6.965q-.01.023-.032.035c-1.707.914-3.808 1.7-6.152 2.234-2.742.63-5.418.829-7.703.633q-.03-.005-.043-.027c-1.445-2.016-1.988-4.465-2.18-6.957a.063.063 0 0 0-.094-.047c-1.48.895-2.582 1.883-3.175 2.86-.016.023-.047.035-.07.027a2.5 2.5 0 0 0-.81-.125c-.046.004-.073-.047-.054-.086.719-1.363 2.223-2.656 4.106-3.715a.07.07 0 0 0 .03-.055c-.058-1.402-.027-2.836.016-4.258 0-.03.02-.054.051-.058a29 29 0 0 0 5.715-1.45m-1.087 5.445a.45.45 0 0 0-.445.445v.38a.06.06 0 0 1-.063.062h-1.52a.45.45 0 1 0 0 .902h1.52c.035 0 .063.027.063.063v.914a.06.06 0 0 1-.063.062h-1.52a.45.45 0 1 0 0 .902h1.52c.035 0 .063.028.063.059v.918a.06.06 0 0 1-.063.063h-1.52a.45.45 0 1 0 0 .902h1.52c.035 0 .063.027.063.058v.38c0 .245.199.445.445.445h7.602c.246 0 .445-.2.445-.446v-.379a.06.06 0 0 1 .059-.058h1.523a.45.45 0 1 0 0-.902h-1.523c-.032 0-.059-.028-.059-.063v-.918a.06.06 0 0 1 .059-.059h1.523a.45.45 0 1 0 0-.902h-1.523c-.032 0-.059-.027-.059-.062v-.914c0-.036.027-.063.059-.063h1.523a.45.45 0 1 0 0-.902h-1.523c-.032 0-.059-.028-.059-.063v-.379c0-.242-.2-.445-.445-.445h-.5a.06.06 0 0 1-.059-.059v-.91a3.25 3.25 0 0 0-3.242-3.242 3.25 3.25 0 0 0-3.242 3.242v.91c0 .032-.028.059-.063.059Zm2.149-2.621a2.35 2.35 0 0 0-.688 1.652v.91c0 .032.027.059.063.059h4.554a.06.06 0 0 0 .059-.059v-.91a2.34 2.34 0 0 0-2.336-2.336 2.34 2.34 0 0 0-1.652.684m3.214 4.41-2.234 1.93a.06.06 0 0 1-.086-.008l-.734-1.012a.45.45 0 0 0-.63-.097.446.446 0 0 0-.1.628l1.058 1.461c.164.227.465.246.683.059l2.633-2.277a.451.451 0 0 0-.59-.684m.032 6.879c-2.692.617-5.293.812-7.512.644-2.234-.168-4.063-.699-5.172-1.546-.086-.067-.277-.172-.285-.223q-.001-.023.016-.047C4.41 21.454 3.727 20 2.477 20c-1.325 0-1.989 1.605-1.055 2.543a1.5 1.5 0 0 0 1.285.418.05.05 0 0 1 .043.008l.617.433c1.656 1.274 4.469 1.774 7.117 1.79q.023 0 .04.011c1.144.922 2.601 1.684 4.46 2.242h.036c5.117-1.53 6.316-4.425 6.52-4.511 2.53-1.094 5.312-2.856 6.245-5.016a.056.056 0 0 0-.031-.078l-.723-.3a.06.06 0 0 0-.078.03c-.504 1.16-1.762 2.352-3.55 3.41-1.813 1.075-4.153 1.997-6.805 2.606M8.778 9.582q-.17.042-.34.078c-.04.008-.075-.02-.075-.058V7.695q0-.032-.031-.05L5.773 6.137a.07.07 0 0 0-.07.008c-.61.53-1.531.5-2.105-.075-.97-.968-.278-2.636 1.093-2.636.985 0 1.711.91 1.508 1.863a.07.07 0 0 0 .031.066l2.813 1.653a.45.45 0 0 1 .223.39v2.008c0 .027-.016.05-.043.059q-.223.057-.446.109M19.41 4.027l-2.816 1.657a.45.45 0 0 0-.223.386v1.832q0 .037.035.055.381.175.785.34a.06.06 0 0 0 .082-.055V6.363q.001-.036.032-.054l2.562-1.504a.06.06 0 0 1 .07.004c.989.863 2.555.16 2.555-1.164 0-1.372-1.664-2.063-2.637-1.094a1.55 1.55 0 0 0-.418 1.41.07.07 0 0 1-.027.066m4.367 1.336-2.812 1.653a.45.45 0 0 0-.223.39h-.004v2.008c0 .027.02.05.047.059l.785.187c.035.008.075-.02.075-.058V7.695q-.002-.032.027-.05l2.562-1.508a.07.07 0 0 1 .07.008c.989.863 2.555.16 2.555-1.168 0-1.368-1.664-2.059-2.636-1.09-.364.363-.528.89-.418 1.41.008.027-.004.05-.028.066m0 0"/></g></svg>