<svg xmlns="http://www.w3.org/2000/svg" width="40" height="40" version="1.0" viewBox="0 0 30 30"><defs><clipPath id="a"><path d="M2.227 0h25.402v29.031H2.227Zm0 0"/></clipPath></defs><g clip-path="url(#a)"><path fill="#fff" d="M15 4.29c-4.68 0-8.484 3.804-8.484 8.483 0 3.32 1.406 5.086 2.898 6.95.664.836 1.352 1.695 1.914 2.726a1.22 1.22 0 0 0-.824 1.153c0 .367.164.695.422.918a1.44 1.44 0 0 0-.422 1.02c0 .679.473 1.245 1.101 1.401a2.415 2.415 0 0 0 2.391 2.09H16c1.219 0 2.23-.914 2.39-2.09a1.45 1.45 0 0 0 1.102-1.402c0-.398-.16-.758-.422-1.02a1.216 1.216 0 0 0-.402-2.07c.562-1.031 1.25-1.89 1.914-2.726 1.492-1.864 2.898-3.63 2.898-6.95 0-4.68-3.804-8.484-8.48-8.484m1 24.019h-2.004c-.805 0-1.484-.57-1.648-1.329h5.304A1.696 1.696 0 0 1 16 28.31m2.05-2.051h-6.105a.72.72 0 0 1 0-1.438h6.106a.72.72 0 0 1 0 1.438m.22-2.16v.02a1.3 1.3 0 0 0-.22-.02h-6.105a1.3 1.3 0 0 0-.218.02v-.02a.498.498 0 1 1 0-.996h6.543a.498.498 0 1 1 0 .996m1.75-4.825c-.747.934-1.512 1.899-2.133 3.106h-5.778c-.617-1.207-1.386-2.172-2.132-3.106-1.407-1.765-2.739-3.433-2.739-6.5 0-4.28 3.485-7.761 7.762-7.761s7.758 3.48 7.758 7.761c0 3.07-1.328 4.735-2.738 6.5m-3.047-9.632H13.02c-.633 0-1.149.515-1.149 1.152v3.95c0 .636.516 1.152 1.149 1.152h3.953c.636 0 1.152-.516 1.152-1.153v-3.949c0-.637-.516-1.152-1.152-1.152m.43 5.105a.43.43 0 0 1-.43.426H13.02a.427.427 0 0 1-.426-.426v-3.953c0-.238.191-.43.426-.43h3.953c.238 0 .43.192.43.43ZM19.62 9.73c0-.875-.71-1.585-1.586-1.585h-.656v-1.72a.362.362 0 0 0-.723 0v1.72H15.36v-1.72a.362.362 0 0 0-.722 0v1.72h-1.301v-1.72a.362.362 0 0 0-.723 0v1.72h-.656c-.875 0-1.582.71-1.582 1.585v.657H8.656a.362.362 0 0 0 0 .723h1.719v1.296H8.656a.362.362 0 0 0 0 .723h1.719v1.3H8.656a.362.362 0 0 0 0 .723h1.719v.657c0 .87.707 1.582 1.582 1.582h.656v1.718a.362.362 0 0 0 .723 0v-1.718h1.3v1.718a.362.362 0 0 0 .723 0v-1.718h1.297v1.718a.362.362 0 0 0 .723 0v-1.718h.656c.875 0 1.586-.711 1.586-1.582v-.66h1.719a.362.362 0 0 0 0-.723H19.62v-1.297h1.719c.2 0 .36-.16.36-.363 0-.2-.16-.36-.36-.36H19.62V11.11h1.719c.2 0 .36-.164.36-.363 0-.2-.16-.363-.36-.363H19.62Zm-.723 6.079c0 .472-.386.859-.863.859h-6.078a.863.863 0 0 1-.863-.86V9.73c0-.476.386-.863.863-.863h6.078c.477 0 .863.387.863.863Zm-4.078-4.336a.36.36 0 0 0-.324-.203.35.35 0 0 0-.32.203l-1.156 2.304a.362.362 0 0 0 .648.324l.21-.421h1.24l.21.422a.36.36 0 0 0 .485.16.36.36 0 0 0 .16-.485Zm-.582 1.484.258-.516.258.516Zm2.774-1.36v2.305a.362.362 0 1 1-.723 0v-2.304c0-.2.16-.364.36-.364s.363.164.363.364m-2.375-9.132V.363C14.637.16 14.8 0 15 0c.2 0 .36.16.36.363v2.102c0 .2-.16.363-.36.363a.365.365 0 0 1-.363-.363m9.39 1.277c.141.14.141.367 0 .512L22.54 5.742a.364.364 0 0 1-.512 0 .363.363 0 0 1 0-.512l1.489-1.488a.36.36 0 0 1 .511 0m3.739 9.028c0 .199-.164.359-.364.359h-2.105a.362.362 0 0 1 0-.723h2.105c.2 0 .364.164.364.364M7.46 5.742 5.973 4.254a.356.356 0 0 1 0-.512c.14-.14.367-.14.507 0L7.97 5.23a.356.356 0 0 1 0 .512.36.36 0 0 1-.254.106.36.36 0 0 1-.254-.106M5.059 12.77c0 .199-.16.359-.36.359H2.594c-.2 0-.364-.16-.364-.36s.165-.363.364-.363h2.105c.2 0 .36.164.36.364m0 0"/></g></svg>