<svg xmlns="http://www.w3.org/2000/svg" width="40" height="40" version="1.0" viewBox="0 0 30 30"><defs><clipPath id="a"><path d="M1.535 0h26.856v29.031H1.535Zm0 0"/></clipPath></defs><g clip-path="url(#a)"><path fill="#fff" d="m13.395 3.984-.399 1.704a.45.45 0 0 0 .176.472.44.44 0 0 0 .5.024l1.5-.91 1.496.91a.46.46 0 0 0 .504-.024.45.45 0 0 0 .176-.473l-.399-1.703 1.324-1.144a.454.454 0 0 0-.258-.797l-1.745-.148L15.59.28A.46.46 0 0 0 15.172 0a.47.47 0 0 0-.422.281l-.676 1.614-1.746.148a.45.45 0 0 0-.394.312.45.45 0 0 0 .136.485Zm1.03-1.207a.45.45 0 0 0 .38-.277l.367-.867.367.867c.063.156.211.266.379.277l.941.082-.714.618a.45.45 0 0 0-.145.445l.215.922-.809-.492a.46.46 0 0 0-.469 0l-.808.492.215-.922a.45.45 0 0 0-.145-.445l-.715-.618ZM5.59 8.094l1.746-.13.926 1.49c.082.136.23.214.386.214q.036.001.07-.004a.46.46 0 0 0 .372-.344l.418-1.699 1.699-.418a.45.45 0 0 0 .34-.371.45.45 0 0 0-.207-.457l-1.488-.922.128-1.746a.46.46 0 0 0-.25-.441.46.46 0 0 0-.5.058l-1.335 1.13-1.622-.661a.46.46 0 0 0-.496.098.46.46 0 0 0-.097.496l.66 1.62-1.13 1.337a.46.46 0 0 0-.058.504c.082.16.254.257.438.246m1.7-2.176-.36-.871.875.355a.46.46 0 0 0 .465-.074l.722-.61-.07.942a.46.46 0 0 0 .215.422l.8.496-.914.227a.46.46 0 0 0-.335.332l-.223.918-.5-.805a.46.46 0 0 0-.387-.215h-.031l-.942.07.61-.718a.47.47 0 0 0 .074-.469m-5.126 7.789 1.617.676.145 1.746a.455.455 0 0 0 .453.418.46.46 0 0 0 .348-.156l1.144-1.328 1.703.402a.46.46 0 0 0 .473-.176.45.45 0 0 0 .02-.504l-.907-1.5.906-1.496a.454.454 0 0 0-.492-.68l-1.703.399-1.144-1.324a.46.46 0 0 0-.489-.137.46.46 0 0 0-.312.394l-.145 1.746-1.617.68a.45.45 0 0 0-.277.418c0 .184.11.348.277.422m2.223-.785a.46.46 0 0 0 .277-.383l.078-.941.617.714a.46.46 0 0 0 .45.145l.918-.215-.489.809a.47.47 0 0 0 0 .472l.489.805-.918-.215a.46.46 0 0 0-.45.145l-.617.715-.078-.938a.45.45 0 0 0-.277-.383l-.871-.367Zm14.75-5.719 1.699.418.418 1.7a.46.46 0 0 0 .371.343.449.449 0 0 0 .457-.21l.922-1.49 1.75.13a.46.46 0 0 0 .437-.246.47.47 0 0 0-.058-.504l-1.13-1.336.661-1.621a.46.46 0 0 0-.098-.496.46.46 0 0 0-.496-.098l-1.62.66-1.337-1.129a.46.46 0 0 0-.5-.058.46.46 0 0 0-.25.441l.13 1.746-1.49.922a.46.46 0 0 0-.21.457.455.455 0 0 0 .344.371m2.07-1.121a.46.46 0 0 0 .215-.422l-.07-.941.722.61c.13.109.309.136.465.073l.875-.355-.36.871a.47.47 0 0 0 .075.469l.61.718-.942-.07a.45.45 0 0 0-.418.215l-.5.805-.223-.918a.46.46 0 0 0-.336-.332l-.914-.227Zm6.969 6.785-1.613-.68-.145-1.746a.456.456 0 0 0-.8-.258l-1.145 1.325-1.703-.399a.45.45 0 0 0-.473.176.46.46 0 0 0-.024.504l.91 1.496-.91 1.5a.458.458 0 0 0 .496.68l1.704-.402 1.144 1.328a.458.458 0 0 0 .801-.262l.145-1.746 1.613-.676a.455.455 0 0 0 0-.84m-2.219.785a.45.45 0 0 0-.277.383l-.082.938-.614-.715a.46.46 0 0 0-.449-.145l-.922.215.492-.805a.47.47 0 0 0 0-.472l-.492-.809.922.215a.46.46 0 0 0 .45-.145l.613-.714.082.941a.46.46 0 0 0 .277.383l.867.363Zm-4.402 5.61a1.94 1.94 0 0 0-1.473.191l-4.785 2.766a2 2 0 0 0-.25-.7 2.08 2.08 0 0 0-1.266-.984l-5.52-1.504-.062-.011a3.04 3.04 0 0 0-2.32.62L4.5 20.696l-.031-.11a.78.78 0 0 0-.364-.476.79.79 0 0 0-.593-.078l-1.313.352a.786.786 0 0 0-.554.957l1.906 7.11a.784.784 0 0 0 .754.581q.104 0 .203-.027l1.316-.352a.783.783 0 0 0 .551-.957l-.059-.218c.747-.547 1.434-.696 2.266-.508l3.16.726q.422.096.82.098c.551 0 1.07-.14 1.547-.414l7.91-4.57a1.94 1.94 0 0 0 .711-2.645 1.94 1.94 0 0 0-1.175-.902M4.398 28.09l-1.84-6.86 1.067-.285 1.836 6.86Zm17.168-6.067-7.91 4.567c-.511.293-1.07.363-1.71.219l-3.16-.727c-.993-.227-1.852-.086-2.72.461l-1.312-4.895 1.68-1.285a2.12 2.12 0 0 1 1.617-.441l5.492 1.492a1.188 1.188 0 0 1 .832 1.453 1.183 1.183 0 0 1-1.453.832l-2.95-.8a.456.456 0 0 0-.242.879l2.954.8q.276.075.546.074c.844 0 1.625-.511 1.946-1.312l5.363-3.098a1 1 0 0 1 .777-.097c.266.07.489.238.625.476a1.03 1.03 0 0 1-.375 1.402M15.172 7.238a6.05 6.05 0 0 0-6.047 6.047c0 3.336 2.71 6.05 6.047 6.05a6.055 6.055 0 0 0 6.047-6.05 6.05 6.05 0 0 0-6.047-6.047m-3.04 10.188a3.71 3.71 0 0 1 3.04-1.594 3.71 3.71 0 0 1 3.039 1.594 5.1 5.1 0 0 1-3.04.996 5.1 5.1 0 0 1-3.038-.996m3.04-2.723c-.988 0-1.793-.8-1.793-1.789s.805-1.793 1.793-1.793a1.792 1.792 0 0 1 0 3.582m3.723 2.117a4.6 4.6 0 0 0-2.239-1.652 2.69 2.69 0 0 0 1.219-2.254 2.71 2.71 0 0 0-2.703-2.703 2.71 2.71 0 0 0-2.703 2.703c0 .941.484 1.774 1.219 2.254a4.65 4.65 0 0 0-2.243 1.652 5.11 5.11 0 0 1-1.41-3.535 5.143 5.143 0 0 1 5.137-5.137 5.143 5.143 0 0 1 5.137 5.137c0 1.371-.54 2.613-1.414 3.535m0 0"/></g></svg>