<svg xmlns="http://www.w3.org/2000/svg" width="40" height="40" version="1.0" viewBox="0 0 30 30"><defs><clipPath id="a"><path d="M.484.074h29.032v28.957H.484Zm0 0"/></clipPath></defs><g clip-path="url(#a)"><path fill="#fff" d="M23.926 5.473a.43.43 0 0 1-.488-.258.437.437 0 0 1 .234-.57l1.41-.586c.3-.13.656.109.598.484l-.196 1.484A.433.433 0 0 1 24.621 6l-1.164 1.469a.43.43 0 0 1-.344.164l-2.605.012c1.117 2.062 3.914 2.48 5.578.816a3.513 3.513 0 0 0 0-4.973 3.51 3.51 0 0 0-4.965 0 3.52 3.52 0 0 0-.941 3.285l2.726-.007ZM14 17.016q-.01-.023-.02-.051c-.312-.883-.84-1.672-1.57-2.262-.848-.683-1.976-1.098-3.367-1.066-1.844.043-4.059.3-5.29 1.644-.98 1.074-1.288 2.766-1.108 5.188a.4.4 0 0 1-.043.226l-.985 1.973c-.07.14.024.297.176.309l1.098.09c.23.015.402.21.402.433v2.469c.055.207.18.383.348.5.172.117.39.176.613.148l1.27-.34a.435.435 0 0 1 .535.309l.414 1.555 5.457-.012c-.52-1.258-1.051-2.567-.407-3.91.098-.196.23-.36.415-.489a5.77 5.77 0 0 0 2.218-3.382A6.07 6.07 0 0 0 14 17.016m.473-1.106.246-.39-1.938-4.887a.43.43 0 0 1 .242-.563.44.44 0 0 1 .567.246l1.703 4.29 3.371-5.395a5.84 5.84 0 0 1-.96-3.094H6.776a.704.704 0 0 0-.703.7v6.28c.844-.199 1.824-.304 2.95-.327 2.456-.055 4.421 1.12 5.449 3.14m4.761-5.965-3.543 5.664 1.504 3.793 1.29-1.91a.437.437 0 0 1 .788.153l.907 3.859 1.14-1.426a.43.43 0 0 1 .34-.164v-.004h1.762c-.277-.37.152-.87.562-.637l1.2.68c.289.164.308.59-.012.766L24 21.406c-.398.235-.84-.242-.578-.62h-1.55l-1.563 1.952a.437.437 0 0 1-.774-.164l-.887-3.77-1.191 1.77a.438.438 0 0 1-.766-.082l-1.574-3.965-.238.38c.36 1.156.41 2.421.129 3.636a6.65 6.65 0 0 1-2.563 3.89c-.113.079-.152.188-.203.317h14.774c.382 0 .699-.316.699-.7V10.21a6 6 0 0 1-1.906 1.243v.043h-.004c0 .711-.192 1.895-.922 1.977v3.824c0 2.14-2.563 2.14-2.563 0h.004v-3.824c-.754-.086-.926-1.305-.926-2.02a5.9 5.9 0 0 1-2.164-1.508m4.371-8.36a4.385 4.385 0 0 1 4.383 4.392 4.384 4.384 0 1 1-8.77 0c0-2.426 1.962-4.391 4.387-4.391m0-1.515a5.906 5.906 0 0 1 5.903 5.907c0 1.16-.34 2.246-.922 3.16V24.05c0 .867-.707 1.574-1.57 1.574H12.109c.032.906.528 1.887.871 2.777a.436.436 0 0 1-.406.594l-6.402.016a.44.44 0 0 1-.453-.325l-.39-1.457-.923.247c-.46.07-.91-.047-1.265-.293a1.76 1.76 0 0 1-.703-1.043.5.5 0 0 1-.02-.13v-2.109l-.695-.058a1.086 1.086 0 0 1-.887-1.567l.934-1.867c-.18-2.601.199-4.465 1.34-5.719.535-.582 1.222-1.023 2.093-1.336V6.816c0-.863.707-1.57 1.57-1.57h10.973A5.9 5.9 0 0 1 23.606.07m1.325 11.66c-.871.2-1.782.2-2.649 0 .016.282.063.524.13.711.038.102-.06.164-.013.164h2.407c.05 0-.047-.062-.008-.164a2.8 2.8 0 0 0 .133-.71m2.23-9.312a5.03 5.03 0 0 0-7.113 0 5.03 5.03 0 0 0 0 7.113 5.029 5.029 0 1 0 7.113-7.113m-3.148 11.059h-.82v3.82h.003c0 .98.817.98.817 0h.004v-3.82Zm-12.98 4.257c1.09 0 1.636 1.32.866 2.09a1.2 1.2 0 0 1-.421.278v1.449l.671.554c.188.157.215.43.059.614a.43.43 0 0 1-.613.058l-.828-.683a.43.43 0 0 1-.16-.336v-1.653c-.829-.308-1.07-1.382-.438-2.011.223-.223.527-.36.863-.36m.25.977c-.22-.223-.598-.063-.598.246 0 .313.379.469.597.25a.35.35 0 0 0 0-.496m-6.169 5.86a.437.437 0 0 1-.59-.18.44.44 0 0 1 .184-.59l1.012-.531v-5.18l-.555-.559a1.226 1.226 0 0 1-1.715-1.12 1.223 1.223 0 1 1 2.336.508l.676.675a.44.44 0 0 1 .133.312v5.625H6.59a.43.43 0 0 1-.23.383Zm2.832-2.235a.433.433 0 0 1-.437.434.43.43 0 0 1-.434-.434V16.98a1.222 1.222 0 0 1-.43-2.007c.766-.774 2.09-.223 2.09.863 0 .516-.32.965-.789 1.144Zm2.395.742c.21.113.293.375.183.586a.44.44 0 0 1-.59.188l-1.245-.657a.44.44 0 0 1-.231-.386h-.004v-4.903c0-.12.05-.23.133-.312l.809-.809a1.222 1.222 0 0 1 1.117-1.719 1.225 1.225 0 1 1-.504 2.34l-.68.684v4.457Zm-.078-6.543a.35.35 0 0 0 .601-.246.35.35 0 0 0-.597-.246.35.35 0 0 0-.004.492m-5.34-.375a.354.354 0 0 0-.602.25c0 .313.383.465.602.246a.35.35 0 0 0 0-.496m2.836-.57a.352.352 0 0 0-.602.246c0 .312.38.469.602.25a.35.35 0 0 0 0-.496m0 0"/></g></svg>