<svg xmlns="http://www.w3.org/2000/svg" width="40" height="40" version="1.0" viewBox="0 0 30 30"><defs><clipPath id="a"><path d="M.484 0H11v10H.484Zm0 0"/></clipPath><clipPath id="b"><path d="M19 0h10.516v10H19Zm0 0"/></clipPath><clipPath id="c"><path d="M21 20h8.516v9.031H21Zm0 0"/></clipPath><clipPath id="d"><path d="M.484 19H10v10.031H.484Zm0 0"/></clipPath></defs><path fill="#061c3d" d="M22.71 18.598v-1.813a.453.453 0 0 0-.452-.453h-1.36v-.453h1.36c.25 0 .453-.203.453-.457v-1.813a.453.453 0 0 0-.453-.453h-1.36v-.453h1.36c.25 0 .453-.203.453-.457v-1.812a.453.453 0 0 0-.453-.454h-1.36c0-.75-.613-1.363-1.363-1.363v-1.36a.453.453 0 0 0-.453-.452H17.27a.45.45 0 0 0-.454.453v1.36h-.457v-1.36a.453.453 0 0 0-.453-.453h-1.812a.453.453 0 0 0-.453.453v1.36h-.457v-1.36c0-.25-.2-.453-.454-.453h-1.812a.453.453 0 0 0-.453.453v1.36c-.75 0-1.363.612-1.363 1.362h-1.36a.453.453 0 0 0-.453.454v1.812c0 .254.203.457.453.457h1.36v.453h-1.36a.453.453 0 0 0-.453.453v1.813c0 .254.203.457.453.457h1.36v.453h-1.36a.453.453 0 0 0-.453.453v1.813c0 .25.203.453.453.453h1.36c0 .754.613 1.363 1.363 1.363v1.36c0 .25.203.453.453.453h1.812a.45.45 0 0 0 .454-.454v-1.359h.457v1.36c0 .25.203.453.453.453h1.812c.25 0 .453-.204.453-.454v-1.359h.457v1.36c0 .25.2.453.454.453h1.812c.25 0 .453-.204.453-.454v-1.359c.75 0 1.363-.61 1.363-1.363h1.36c.25 0 .453-.203.453-.453m-.905-4.535v.906h-.907v-.906Zm0-3.176v.906h-.907v-.906ZM17.723 7.71h.906v.906h-.906Zm-3.176 0h.906v.906h-.906Zm-3.176 0h.906v.906h-.906Zm-3.176 4.082v-.906h.907v.906Zm0 3.176v-.906h.907v.906Zm0 3.176v-.907h.907v.907Zm4.082 3.175h-.906v-.906h.906Zm3.176 0h-.906v-.906h.906Zm3.176 0h-.906v-.906h.906Zm1.36-2.27c0 .25-.204.458-.454.458h-9.07a.457.457 0 0 1-.453-.457V9.98c0-.25.203-.454.453-.454h9.07c.25 0 .453.203.453.453Zm1.816-.905h-.907v-.907h.907Zm0 0"/><path fill="#061c3d" d="M13.184 12.703a.453.453 0 0 0-.454.453v1.223l-.98-1.477a.46.46 0 0 0-.512-.18.45.45 0 0 0-.32.434v2.723a.453.453 0 0 0 .906 0v-1.227l.985 1.477a.45.45 0 0 0 .507.183.46.46 0 0 0 .325-.433v-2.723a.454.454 0 0 0-.457-.453M15.906 15.422H15v-2.266a.453.453 0 0 0-.906 0v2.723c0 .25.203.453.453.453h1.36a.454.454 0 0 0 0-.91M17.723 12.703h-.453a.45.45 0 0 0-.454.453v2.723a.453.453 0 0 0 .906 0v-.457a1.36 1.36 0 0 0 0-2.719m0 1.813v-.907a.453.453 0 0 1 0 .907m0 0"/><g clip-path="url(#a)"><path fill="#061c3d" d="m.883 6.348 1.008.125-.625.804a.45.45 0 0 0 .039.598l1.28 1.285c.165.16.419.176.603.04l.8-.63.13 1.012a.455.455 0 0 0 .448.398h1.817a.455.455 0 0 0 .449-.398l.125-1.012.805.63c.18.136.437.12.597-.04l1.286-1.285a.453.453 0 0 0 .035-.598l-.625-.804 1.011-.125a.455.455 0 0 0 .399-.45V4.082a.455.455 0 0 0-.399-.45l-1.011-.124.625-.805a.46.46 0 0 0-.035-.601L8.359.82a.45.45 0 0 0-.597-.039l-.805.625L6.832.398A.455.455 0 0 0 6.382 0H4.567a.455.455 0 0 0-.449.398l-.129 1.008-.8-.625a.454.454 0 0 0-.602.04L1.305 2.1a.454.454 0 0 0-.04.602l.626.805-1.008.125a.455.455 0 0 0-.399.449v1.816c0 .227.172.422.399.45m.508-1.864 1.164-.148a.45.45 0 0 0 .37-.29q.034-.098.079-.19a.46.46 0 0 0-.055-.47l-.722-.925.718-.715.926.719a.45.45 0 0 0 .469.055c.062-.032.125-.055.187-.079a.45.45 0 0 0 .293-.37L4.97.905H5.98l.145 1.164a.47.47 0 0 0 .293.371c.066.024.129.047.187.079a.46.46 0 0 0 .473-.055l.926-.719.715.715L8 3.387a.45.45 0 0 0-.055.468q.043.093.078.192c.059.156.2.27.368.289l1.164.148v1.012l-1.164.145a.46.46 0 0 0-.368.293q-.035.098-.078.191A.45.45 0 0 0 8 6.594l.719.926-.715.714-.926-.718a.46.46 0 0 0-.473-.055 2 2 0 0 1-.187.078.47.47 0 0 0-.293.371L5.98 9.074H4.97L4.82 7.91a.45.45 0 0 0-.293-.37q-.093-.037-.187-.08a.45.45 0 0 0-.469.056l-.926.718-.718-.714.722-.926a.46.46 0 0 0 .055-.469 2 2 0 0 1-.078-.191.47.47 0 0 0-.371-.293L1.39 5.496Zm0 0"/></g><path fill="#061c3d" d="M5.473 7.258c1.25 0 2.27-1.016 2.27-2.27a2.267 2.267 0 1 0-2.27 2.27m0-3.63c.75 0 1.363.61 1.363 1.36a1.361 1.361 0 1 1-1.363-1.36m0 0"/><g clip-path="url(#b)"><path fill="#061c3d" d="m21.492 7.324-.547 1.094a.45.45 0 0 0 .07.508c.09.094.212.148.337.148a.4.4 0 0 0 .168-.035l2.296-.918q.373.045.711.043c2.75 0 4.989-1.832 4.989-4.082S27.277 0 24.527 0c-2.754 0-4.992 1.832-4.992 4.082 0 1.285.723 2.473 1.957 3.242M24.527.906c2.25 0 4.082 1.426 4.082 3.176s-1.832 3.176-4.082 3.176c-.222 0-.453-.016-.707-.051a.47.47 0 0 0-.23.027l-1.3.52.206-.41a.453.453 0 0 0-.2-.606c-1.16-.593-1.85-1.586-1.85-2.656 0-1.75 1.827-3.176 4.081-3.176m0 0"/></g><g clip-path="url(#c)"><path fill="#061c3d" d="M29.063 28.125h-6.805V21.32a.453.453 0 0 0-.906 0v7.258c0 .25.203.453.453.453h7.258a.453.453 0 0 0 0-.906m0 0"/></g><path fill="#061c3d" d="M28.156 25.402c.25 0 .453-.203.453-.453v-1.36a.44.44 0 0 0-.281-.418.4.4 0 0 0-.172-.034h-1.363a.453.453 0 0 0 0 .906h.266l-.84.84-1.094-.363a.45.45 0 0 0-.465.109l-1.363 1.36a.46.46 0 0 0 0 .644.47.47 0 0 0 .32.133.47.47 0 0 0 .324-.133l1.16-1.164 1.094.363a.45.45 0 0 0 .465-.11l1.043-1.038v.265c0 .25.203.453.453.453M23.004 5.867c.234.086.5-.031.586-.265l.23-.614h1.414l.227.614c.07.183.242.296.426.296a.5.5 0 0 0 .16-.03.453.453 0 0 0 .265-.583L24.95 1.656a.45.45 0 0 0-.847 0l-1.36 3.63a.45.45 0 0 0 .262.581m1.523-2.762.364.977h-.73Zm0 0"/><g clip-path="url(#d)"><path fill="#061c3d" d="M5.02 19.96a4.54 4.54 0 0 0-4.536 4.536c0 2.5 2.036 4.535 4.536 4.535s4.535-2.035 4.535-4.535-2.035-4.535-4.535-4.535m3.144 2.731a9 9 0 0 1-.601.164 5.6 5.6 0 0 0-.477-1.34c.441.305.809.708 1.078 1.176m.484 1.805q-.001.503-.132.965a10 10 0 0 0-.813-.219 8 8 0 0 0 .04-.746 8 8 0 0 0-.04-.746q.42-.095.813-.219.13.463.132.965m-7.257 0c0-.336.05-.656.132-.965q.398.125.813.219a8 8 0 0 0-.04.746c0 .254.017.504.04.746q-.415.095-.813.219a3.7 3.7 0 0 1-.132-.965m1.816 0q0-.3.027-.582.652.087 1.332.11v.945q-.68.016-1.332.11a6 6 0 0 1-.027-.583M5.473 21c.496.285.957 1.008 1.195 2.016q-.58.08-1.195.101Zm-.907 0v2.117a12 12 0 0 1-1.195-.101c.238-1.008.703-1.73 1.195-2.016m0 4.875v2.113c-.492-.281-.957-1.004-1.195-2.011.387-.055.79-.086 1.195-.102m.907 2.113v-2.113c.41.016.808.047 1.195.102-.238 1.007-.7 1.73-1.195 2.011m0-3.02v-.945q.685-.022 1.336-.109c.015.188.027.383.027.582 0 .2-.012.395-.027.582a11 11 0 0 0-1.336-.11m-2.516-3.452c-.203.39-.367.843-.477 1.34-.21-.047-.406-.106-.605-.165.27-.468.64-.87 1.082-1.175M1.875 26.3c.2-.059.398-.117.605-.164.11.496.274.949.477 1.34A3.6 3.6 0 0 1 1.875 26.3m5.21 1.176c.204-.391.364-.844.478-1.34.207.047.406.105.601.164-.27.469-.637.87-1.078 1.176m0 0"/></g><path fill="#061c3d" d="M11.824 2.723h.906v.906h-.906ZM13.64 2.723h.907v.906h-.906ZM15.453 2.723h.906v.906h-.906ZM17.27 2.723h.906v.906h-.906ZM11.824 25.402h.906v.907h-.906ZM13.64 25.402h.907v.907h-.906ZM15.453 25.402h.906v.907h-.906ZM17.27 25.402h.906v.907h-.906ZM25.887 11.34h.906v.906h-.906ZM25.887 13.156h.906v.906h-.906ZM25.887 14.969h.906v.91h-.906ZM25.887 16.785h.906v.906h-.906ZM3.207 11.34h.906v.906h-.906ZM3.207 13.156h.906v.906h-.906ZM3.207 14.969h.906v.91h-.906ZM3.207 16.785h.906v.906h-.906Zm0 0"/></svg>