<svg xmlns="http://www.w3.org/2000/svg" width="40" height="40" version="1.0" viewBox="0 0 30 30"><defs><clipPath id="a"><path d="M2 1.324h26v26.13H2Zm0 0"/></clipPath><clipPath id="b"><path d="M25.984 11.27h3.532v7.097h-3.532Zm0 0"/></clipPath><clipPath id="c"><path d="M.484 11H5v8H.484Zm0 0"/></clipPath><clipPath id="d"><path d="M6 1.324h18V6H6Zm0 0"/></clipPath><clipPath id="e"><path d="M12.125 25.723h5.648v1.73h-5.648Zm0 0"/></clipPath></defs><path fill="#fff" d="m10.309 22.07.28.157a9.1 9.1 0 0 0 4.364 1.12 9 9 0 0 0 6.402-2.652 9 9 0 0 0 2.653-6.402 9 9 0 0 0-2.653-6.402 9 9 0 0 0-6.402-2.653 9 9 0 0 0-6.402 2.653 9 9 0 0 0-2.649 6.402c0 1.516.38 3.012 1.102 4.332l.152.281L6 23.226Zm4.644 2.18a9.96 9.96 0 0 1-4.762-1.21l-4.097 1.097a.827.827 0 0 1-.863-.293.82.82 0 0 1-.141-.715l1.098-4.106a10 10 0 0 1-1.192-4.73c0-2.66 1.035-5.16 2.918-7.043a9.9 9.9 0 0 1 7.04-2.918c2.66 0 5.16 1.04 7.042 2.918a9.9 9.9 0 0 1 2.918 7.043c0 2.66-1.039 5.16-2.918 7.039a9.9 9.9 0 0 1-7.043 2.918"/><g clip-path="url(#a)"><path fill="#fff" d="M23.934 5.54a12.61 12.61 0 0 0-8.98-3.72 12.6 12.6 0 0 0-8.977 3.72 12.62 12.62 0 0 0-3.723 8.98c0 1.175.16 2.328.469 3.43l.793-.223a11.8 11.8 0 0 1-.442-3.207c0-6.551 5.328-11.883 11.88-11.883 6.55 0 11.882 5.332 11.882 11.883s-5.332 11.878-11.883 11.878v.82c3.395 0 6.582-1.323 8.98-3.722a12.6 12.6 0 0 0 3.72-8.976c0-3.395-1.321-6.582-3.72-8.98"/></g><g clip-path="url(#b)"><path fill="#fff" d="M29.285 13.426v-.086a1.62 1.62 0 0 0-1.351-1.617l-.766-.098a.3.3 0 0 0-.05-.102.6.6 0 0 0-.145-.144.6.6 0 0 0-.383-.09l-.004.004a.55.55 0 0 0-.48.598 26.7 26.7 0 0 1-.11 5.78.56.56 0 0 0 .473.622h.004q.075.012.152 0a.56.56 0 0 0 .457-.379h.145c.171.012.503.004.593-.012h.016a1.63 1.63 0 0 0 1.414-1.59v-.078c.148-.18.234-.406.238-.644l.028-1.488a1.04 1.04 0 0 0-.23-.676"/></g><g clip-path="url(#c)"><path fill="#fff" d="M.727 13.426v-.086a1.614 1.614 0 0 1 1.351-1.617l.762-.098c.012-.04.031-.07.05-.102a.6.6 0 0 1 .15-.144.6.6 0 0 1 .378-.09l.004.004c.297.035.508.3.484.598a26.5 26.5 0 0 0 .11 5.78.566.566 0 0 1-.473.622h-.008a.56.56 0 0 1-.605-.379h-.145a4 4 0 0 1-.598-.012h-.015a1.63 1.63 0 0 1-1.41-1.59v-.078a1.02 1.02 0 0 1-.242-.644l-.028-1.488a1.04 1.04 0 0 1 .235-.676"/></g><g clip-path="url(#d)"><path fill="#fff" d="M23.086 4.484a.84.84 0 0 0-.348-.593 13.05 13.05 0 0 0-7.785-2.547c-2.828 0-5.52.883-7.785 2.547a.87.87 0 0 0-.348.593.9.9 0 0 0 .196.668l.007.012a.883.883 0 0 0 1.2.152 11.3 11.3 0 0 1 6.73-2.207c2.442 0 4.77.766 6.735 2.207a.877.877 0 0 0 1.195-.152l.012-.012a.88.88 0 0 0 .19-.668"/></g><g clip-path="url(#e)"><path fill="#fff" d="M16.832 27.684h-3.75a.94.94 0 0 1-.937-.938v-.02c0-.519.418-.937.937-.937h3.75c.52 0 .938.418.938.938v.02a.94.94 0 0 1-.938.937"/></g><path fill="#fff" d="M11.191 15.664H9.734l1.211-1.379c.149-.164.274-.344.371-.527.102-.192.157-.375.157-.555 0-.281-.059-.531-.164-.742a1.2 1.2 0 0 0-.473-.5 1.4 1.4 0 0 0-.703-.172q-.4.001-.719.184a1.4 1.4 0 0 0-.691 1.23q0 .141.105.246a.34.34 0 0 0 .25.106.34.34 0 0 0 .254-.106.35.35 0 0 0 .102-.246q0-.2.093-.375a.69.69 0 0 1 .606-.375.6.6 0 0 1 .476.2c.114.136.176.32.176.55q0 .284-.348.672L8.82 15.77a.34.34 0 0 0-.097.25q.001.145.101.25.102.105.254.105h2.113a.34.34 0 0 0 .254-.105.34.34 0 0 0 .106-.25.354.354 0 0 0-.36-.355M14.012 13.074v1.637H12.77Zm1.218 1.711a.4.4 0 0 0-.25-.074h-.28v-2.563a.37.37 0 0 0-.09-.253.3.3 0 0 0-.243-.106q-.17 0-.289.149l-2.187 2.867a.33.33 0 0 0-.07.21q.001.136.097.243.099.105.258.105h1.836v.657c0 .093.035.18.097.25a.337.337 0 0 0 .493 0 .35.35 0 0 0 .097-.25v-.657h.281c.094 0 .18-.031.247-.093.07-.063.109-.141.109-.235q0-.166-.106-.25M17.723 11.79a.4.4 0 0 0-.192.054.33.33 0 0 0-.136.156l-1.715 4.297a.4.4 0 0 0-.035.148c0 .098.035.184.105.25.07.067.156.102.25.102a.4.4 0 0 0 .191-.05c.063-.04.11-.09.137-.161l1.719-4.3a.4.4 0 0 0 .027-.15.345.345 0 0 0-.352-.348M21.086 11.89a.36.36 0 0 0-.25-.1H18.66a.35.35 0 0 0-.355.355q.001.15.101.253a.35.35 0 0 0 .254.102h1.633l-1.594 3.309a.5.5 0 0 0-.058.21q0 .146.105.25a.34.34 0 0 0 .43.051.33.33 0 0 0 .14-.14l1.829-3.856a.5.5 0 0 0 .046-.18.35.35 0 0 0-.105-.253"/></svg>