<svg xmlns="http://www.w3.org/2000/svg" width="40" height="40" version="1.0" viewBox="0 0 30 30"><defs><clipPath id="a"><path d="M1.195 0H16v29.031H1.195Zm0 0"/></clipPath><clipPath id="b"><path d="M17 0h11.777v25H17Zm0 0"/></clipPath><clipPath id="c"><path d="M17 27h4v2.031h-4Zm0 0"/></clipPath></defs><g clip-path="url(#a)"><path fill="#fff" d="M14.668.887c0 .797-.57 1.488-1.352 1.644a1.68 1.68 0 0 1-1.879-1.004L11.114.75c-.648.219-1.289.48-1.906.79l.328.792a1.66 1.66 0 0 1-.61 2.016c-.671.449-1.57.359-2.14-.211L6.2 3.555c-.52.449-1.008.941-1.457 1.457l.594.593a1.69 1.69 0 0 1 .207 2.122 1.686 1.686 0 0 1-2.04.617l-.776-.32a14 14 0 0 0-.79 1.906l.774.32a1.685 1.685 0 0 1 1.008 1.879A1.685 1.685 0 0 1 2.07 13.48h-.836q-.04.516-.039 1.032-.001.515.04 1.031h.835c.797 0 1.493.57 1.649 1.352a1.68 1.68 0 0 1-1.008 1.878l-.773.325c.214.652.48 1.289.789 1.906l.777-.324a1.68 1.68 0 0 1 1.828 2.738l-.59.594q.677.782 1.457 1.457l.594-.59a1.68 1.68 0 0 1 2.738 1.828l-.324.777c.617.309 1.258.575 1.906.79l.34-.813a1.635 1.635 0 0 1 1.824-.977l.078.016a1.64 1.64 0 0 1 1.313 1.602v.875q.393.029.793.035v-8.367a6.144 6.144 0 0 1-5.898-6.133 6.14 6.14 0 0 1 5.898-6.13V.013a13 13 0 0 0-.793.035Zm0 0"/></g><path fill="#fff" d="M19.496 13.879q-.002.445-.215.762-.215.316-.52.316c-.202 0-.378-.105-.519-.316a1.3 1.3 0 0 1-.215-.762q-.001-.446.215-.758c.14-.21.317-.316.52-.316q.303 0 .52.316.212.312.214.758M19.953 23.266c0-.239-.215-.43-.476-.43h-2.465v1.328h2.941ZM17.012 24.637h3.715v1.101h-3.715Zm0 0"/><path fill="#fff" d="M18.988 20.285c0-1.008.551-1.965 1.438-2.496.777-.46 1.777-1.234 2.133-2.273.375-1.098.28-2.235-.247-2.97-.375-.523-.93-.8-1.613-.8-.894 0-1.351.39-1.562.66.484.203.836.785.836 1.473 0 .855-.543 1.55-1.211 1.55s-1.211-.695-1.211-1.55c0-.645.308-1.2.75-1.434-.363-.336-.778-.613-1.29-.68V22.36h1.977Zm0 0"/><g clip-path="url(#b)"><path fill="#fff" d="M17.012.012v11.273c.71.074 1.254.461 1.699.895.258-.36.84-.91 1.988-.91.828 0 1.54.355 2 1 .613.855.73 2.16.309 3.398-.403 1.18-1.492 2.027-2.34 2.531a2.45 2.45 0 0 0-1.203 2.086v2.074h.012c.523 0 .953.407.953.907v.898h.32a1.46 1.46 0 0 1 .86-1.102 12.05 12.05 0 0 0 7.195-11.019c0-6.555-5.27-11.902-11.793-12.031m0 0"/></g><path fill="#fff" d="M17.012 26.21h3.715v1.099h-3.715Zm0 0"/><g clip-path="url(#c)"><path fill="#fff" d="M17.012 29.012h2.25c.726 0 1.332-.532 1.445-1.227h-3.695Zm0 0"/></g></svg>