<svg xmlns="http://www.w3.org/2000/svg" width="40" height="40" version="1.0" viewBox="0 0 30 30"><defs><clipPath id="a"><path d="M.664 11H10v10H.664Zm0 0"/></clipPath><clipPath id="b"><path d="M21 11h8.516v9H21Zm0 0"/></clipPath><clipPath id="c"><path d="M6 21h18v5.129H6Zm0 0"/></clipPath><clipPath id="d"><path d="M5 2.902h17V11H5Zm0 0"/></clipPath></defs><g clip-path="url(#a)"><path fill="#fff" d="M7.566 18.898a.22.22 0 0 0 .243-.066l.625-.762a.22.22 0 0 0 .015-.25l-.469-.78.168-.556.82-.386a.22.22 0 0 0 .126-.223l-.098-.977a.22.22 0 0 0-.164-.191l-.883-.219-.273-.511.304-.856a.22.22 0 0 0-.066-.242l-.762-.621a.22.22 0 0 0-.25-.02l-.78.469-.556-.168-.386-.82a.23.23 0 0 0-.223-.125l-.977.097a.22.22 0 0 0-.19.164l-.22.883-.511.274-.856-.305a.22.22 0 0 0-.242.066l-.621.762a.22.22 0 0 0-.02.25l.47.781-.169.555-.82.387a.22.22 0 0 0-.125.219l.097.98a.22.22 0 0 0 .164.191l.883.22.274.507-.305.86a.22.22 0 0 0 .066.242l.762.62c.07.06.172.067.25.02l.781-.469.555.168.387.82a.23.23 0 0 0 .137.118.3.3 0 0 0 .085.008l.977-.098a.225.225 0 0 0 .191-.168l.22-.883.51-.273Zm-1.242-3.015a1.44 1.44 0 0 1-2.875-.156 1.44 1.44 0 0 1 1.516-1.36 1.443 1.443 0 0 1 1.36 1.516m0 0"/></g><g clip-path="url(#b)"><path fill="#fff" d="m29.367 14.977-.847-.329-.211-.539.414-.812a.21.21 0 0 0-.04-.25l-.675-.711a.22.22 0 0 0-.246-.05l-.832.37-.532-.238-.28-.863a.215.215 0 0 0-.204-.149l-.984-.027a.215.215 0 0 0-.207.14l-.328.848-.543.211-.809-.414a.22.22 0 0 0-.25.04l-.715.675a.215.215 0 0 0-.047.246l.367.832-.234.531-.863.282a.22.22 0 0 0-.153.203l-.023.984a.215.215 0 0 0 .14.207l.848.328.207.543-.41.809a.22.22 0 0 0 .035.25l.68.715a.215.215 0 0 0 .246.046l.832-.367.527.235.286.863a.21.21 0 0 0 .117.133q.04.018.086.02l.98.023a.22.22 0 0 0 .211-.14l.328-.849.54-.207.812.41a.22.22 0 0 0 .25-.035l.71-.68a.21.21 0 0 0 .052-.245l-.372-.832.239-.528.863-.285a.22.22 0 0 0 .152-.203l.024-.98a.22.22 0 0 0-.14-.211m-2.637.851c-.14.781-.89 1.3-1.671 1.156-.782-.14-1.301-.89-1.157-1.672.141-.78.891-1.3 1.672-1.156.781.14 1.301.89 1.156 1.672m0 0"/></g><path fill="#fff" d="M21.758 13.984a.35.35 0 0 0 .09-.402l-.614-1.488a.36.36 0 0 0-.351-.223l-1.488.078-.676-.676.078-1.488a.36.36 0 0 0-.223-.351l-1.488-.614a.35.35 0 0 0-.402.09l-1 1.11h-.95l-1-1.11a.36.36 0 0 0-.406-.09l-1.488.614a.36.36 0 0 0-.219.351l.074 1.488-.672.676-1.488-.078a.36.36 0 0 0-.351.223l-.618 1.488c-.058.14-.02.3.094.402l1.106 1v.954l-1.106 1a.36.36 0 0 0-.094.402l.618 1.488c.058.14.199.23.351.223l1.488-.078.672.672-.074 1.492a.36.36 0 0 0 .219.347l1.488.618a.36.36 0 0 0 .406-.09l1-1.11h.95l1 1.11a.37.37 0 0 0 .265.117.3.3 0 0 0 .137-.027l1.488-.618a.36.36 0 0 0 .223-.347l-.078-1.492.676-.672 1.488.078a.36.36 0 0 0 .351-.223l.614-1.488a.35.35 0 0 0-.09-.402l-1.106-1v-.954Zm-6.551 5.352a3.874 3.874 0 1 1 0-7.75 3.874 3.874 0 1 1 0 7.75m0 0"/><path fill="#fff" d="M15.879 15.016a1.305 1.305 0 0 0-.691-2.41 1.304 1.304 0 0 0-.688 2.41 2.36 2.36 0 0 0-1.668 2.254c0 .152.11.277.254.308.21.215 1.074.375 2.105.375 1.036 0 1.899-.16 2.11-.375a.32.32 0 0 0 .246-.308 2.36 2.36 0 0 0-1.668-2.254M22.375 10.582V8.879a.287.287 0 0 0-.285-.285h-.965a.287.287 0 0 0-.285.285v1.703c0 .156.129.285.285.285h.965a.284.284 0 0 0 .285-.285M23.305 7.695a.285.285 0 0 0-.285.29v2.597c0 .156.128.285.285.285h.96c.16 0 .29-.129.29-.285V7.984c0-.16-.13-.289-.29-.289ZM25.195 6.316v4.266a.29.29 0 0 0 .29.285h.96c.16 0 .29-.129.29-.285V6.316c0-.16-.13-.289-.29-.289h-.96a.29.29 0 0 0-.29.29M21.54 7.242h.179c.031 0 .062-.004.093-.004q.043.001.09-.004l.09-.007c.031-.004.063-.004.09-.008l.09-.012q.023-.002.047-.004l.047-.008a4.3 4.3 0 0 0 1.406-.468 4.5 4.5 0 0 0 1.945-2.047l.363.105c.094.027.18-.066.141-.152l-.539-1.297a.122.122 0 0 0-.176-.05l-1.144.804a.115.115 0 0 0 .031.207l.332.098a3.6 3.6 0 0 1-.39.898 3.8 3.8 0 0 1-.856.98q-.26.213-.559.38a4 4 0 0 1-.62.28l-.04.012q-.02.008-.043.016l-.082.023q-.041.017-.082.028l-.086.023q-.041.007-.082.02a1 1 0 0 0-.086.02l-.086.015c-.027.004-.054.012-.086.015l-.699.122Zm0 0"/><g clip-path="url(#c)"><path fill="#fff" d="M23.813 21.61a.41.41 0 0 0-.57.054 10.42 10.42 0 0 1-8.055 3.793c-2.145 0-4.204-.645-5.958-1.863a.3.3 0 0 0-.113-.055l.785-.785a.35.35 0 0 0 .09-.332.35.35 0 0 0-.242-.242l-3.07-.852a.34.34 0 0 0-.336.09.34.34 0 0 0-.09.336l.848 3.07a.36.36 0 0 0 .335.254c.09 0 .176-.039.243-.101l.933-.934c.028.082.078.16.157.215a11.2 11.2 0 0 0 6.418 2.008 11.3 11.3 0 0 0 4.874-1.106c.731-.351 1.426-.785 2.067-1.289.637-.5 1.219-1.07 1.734-1.691a.404.404 0 0 0-.05-.57m-16.2 2.456-.531-1.91 1.91.532Zm0 0"/></g><g clip-path="url(#d)"><path fill="#fff" d="M5.371 10.367a.404.404 0 0 0 .547-.172 10.42 10.42 0 0 1 9.27-5.629c.976 0 1.937.133 2.863.399l-.5.883a.35.35 0 0 0 0 .347.35.35 0 0 0 .3.168h3.137a.35.35 0 0 0 .301-.168.36.36 0 0 0 0-.347l-1.57-2.77a.34.34 0 0 0-.301-.176.34.34 0 0 0-.297.176l-.66 1.164a11.3 11.3 0 0 0-6.402-.043c-.98.285-1.918.7-2.79 1.242A11.27 11.27 0 0 0 5.2 9.824a.406.406 0 0 0 .172.543M19.418 3.95l.977 1.723H18.44Zm0 0"/></g></svg>