<svg xmlns="http://www.w3.org/2000/svg" width="40" height="40" version="1.0" viewBox="0 0 30 30"><defs><clipPath id="a"><path d="M.484 0h29.032v29.031H.484Zm0 0"/></clipPath></defs><g clip-path="url(#a)"><path fill="#fff" fill-rule="evenodd" d="M3.313 7.074H4.53v1.219H3.313a.24.24 0 0 0-.239.238v15.617c0 .13.11.239.239.239h23.375c.128 0 .238-.11.238-.239V8.531a.24.24 0 0 0-.238-.238h-1.22V7.074h1.22c.804 0 1.46.656 1.46 1.457v15.617c0 .805-.656 1.461-1.46 1.461H3.313c-.801 0-1.461-.656-1.461-1.46V8.53c0-.8.66-1.457 1.46-1.457m21.503-4.66h3.02V4.82h-3.02v1.84l-4.601-3.008L24.816.645ZM8.286 18.02h-3.02v2.41h3.02v1.836l4.6-3.008-4.6-3.004Zm12-4.036c.401.09.776.25 1.112.461l1.278-.726.297.293.293.297-.727 1.277c.211.336.371.71.461 1.113l1.418.387v.84L23 18.313a3.6 3.6 0 0 1-.46 1.113l.726 1.277-.59.59-1.278-.727c-.335.211-.71.368-1.113.461l-.387 1.414h-.835l-.391-1.414a3.7 3.7 0 0 1-1.11-.46l-1.277.726-.297-.297-.297-.293.73-1.277a3.6 3.6 0 0 1-.464-1.113l-1.414-.387v-.84l1.414-.387c.094-.402.25-.777.465-1.113l-.73-1.277.296-.297.297-.293 1.274.726c.34-.21.714-.37 1.113-.46l.39-1.419h.836Zm-.806 1.157a2.365 2.365 0 1 1-.003 4.731 2.365 2.365 0 0 1 .003-4.731M13.82 1.398a5.7 5.7 0 0 1 2.086.868l.676-.68a.45.45 0 0 1 .629 0l.926.93a.45.45 0 0 1 0 .629l-.676.675c.418.621.715 1.328.863 2.086h.957c.242 0 .442.2.442.446v1.312c0 .242-.2.445-.442.445h-.957a5.65 5.65 0 0 1-.863 2.082l.676.676a.45.45 0 0 1 0 .63l-.926.929a.45.45 0 0 1-.629 0l-.676-.676a5.7 5.7 0 0 1-2.086.863v.957c0 .242-.199.442-.445.442h-1.312a.444.444 0 0 1-.446-.442v-.957a5.7 5.7 0 0 1-2.086-.863l-.676.676a.45.45 0 0 1-.628 0l-.926-.93a.45.45 0 0 1 0-.629l.676-.676a5.7 5.7 0 0 1-.868-2.082h-.953a.45.45 0 0 1-.445-.445V6.352c0-.247.2-.446.445-.446h.953a5.7 5.7 0 0 1 .868-2.086L7.3 3.145a.45.45 0 0 1 0-.63l.926-.93a.45.45 0 0 1 .628 0l.676.68a5.7 5.7 0 0 1 2.086-.867V.445c0-.246.2-.445.445-.445h1.313c.246 0 .445.2.445.445ZM12.72 6.02a.986.986 0 1 1-.004 1.972.986.986 0 0 1 .004-1.972m0-3.56a4.546 4.546 0 1 1 0 9.095 4.546 4.546 0 1 1 0-9.094M.484 26.3h10.793v.516h7.45v-.515h10.789v1.367c0 .75-.645 1.363-1.434 1.363H1.918c-.79 0-1.434-.613-1.434-1.363Zm0 0"/></g></svg>