<svg xmlns="http://www.w3.org/2000/svg" width="40" height="40" version="1.0" viewBox="0 0 30 30"><defs><clipPath id="a"><path d="M.484 1.543h29.032v26.129H.484Zm0 0"/></clipPath></defs><g clip-path="url(#a)"><path fill="#061c3d" d="M28.422 24.09h-2.27c.008-1.297.051-14.395.051-15.266l2.219.457ZM20.668 9.82c0 .383 0 1.188.004 1.578l4.598-.953.003-1.582c-1.148.239-3.464.715-4.605.957m.043 14.27h4.512l.039-12.695-4.59.949Zm-.98-14.645c0-.226.16-.414.37-.465l2.407-.5V3.207l-4.625-1.582V24.09h1.894c-.011-.508-.039-14.567-.047-14.645M7.522 3.88 16.95 1.57v2.871l-7.582 1.86c-.597.152-.37 1.035.219.902l7.363-1.805V8.57l-7.582 1.86a.465.465 0 0 0-.344.562.47.47 0 0 0 .563.344l7.363-1.8v3.163l-7.582 1.86a.46.46 0 0 0-.344.562.47.47 0 0 0 .563.344l7.363-1.8v3.16l-3.96.972a.463.463 0 0 0-.344.562.47.47 0 0 0 .562.344l3.742-.918v6.309H8.602V16.98c0-.218-.16-.41-.372-.457l-.796-.164V4.156c0-.172.07-.265.09-.277M9.48 19.602c-.058.039 1.567-.38 1.579-.375.59-.157.375-1.036-.227-.907l-1.465.364c-.531.128-.43.918.113.918m-1.816-2.243c-.008-.007-.785-.16-.797-.164l-.824-.168-.016 7.063h1.637Zm-6.105.848.023 5.883H5.09l.023-7.031-3.351.699c-.075.015-.203.18-.203.449m2.421 8.32H1.098c-.614.012-.614.926 0 .93h2.89c.61-.012.61-.918-.008-.93m6.23 0H7.325c-.617.012-.617.926 0 .93h2.887c.613-.012.613-.918 0-.93m6.231 0h-2.89a.467.467 0 0 0-.465.47c0 .257.207.468.465.468h2.89c.614-.02.614-.926 0-.938m6.23 0H19.79c-.613.012-.613.926 0 .93h2.887c.61-.012.61-.918-.004-.93m6.231 0h-2.89c-.614.012-.614.926 0 .93h2.89c.614-.012.614-.918 0-.93m0 0"/></g></svg>