<svg xmlns="http://www.w3.org/2000/svg" width="40" height="40" version="1.0" viewBox="0 0 30 30"><defs><clipPath id="a"><path d="M3 24h6v5.031H3Zm0 0"/></clipPath><clipPath id="b"><path d="M9 24h6v5.031H9Zm0 0"/></clipPath><clipPath id="c"><path d="M15 24h6v5.031h-6Zm0 0"/></clipPath><clipPath id="d"><path d="M21 24h6v5.031h-6Zm0 0"/></clipPath><clipPath id="e"><path d="M27 10h2.516v2H27Zm0 0"/></clipPath><clipPath id="f"><path d="M.484 10H3v2H.484Zm0 0"/></clipPath></defs><path fill="#061c3d" d="M18.098 8.809a.1.1 0 0 0-.024.02c-.25.19-.406.421-.476.698h4.66A7.264 7.264 0 0 0 15 2.27a7.264 7.264 0 0 0-7.258 7.257h3.211c.078-.687.336-1.289.75-1.718.418-.438.977-.72 1.531-.77.457-.043.864.102 1.227.227q.09.034.18.062c.254.086.449.027.8-.094.18-.058.38-.129.602-.168.746-.132 1.512.13 2.094.72a.75.75 0 0 1 .234.55.54.54 0 0 1-.18.39Zm-2.946-2.547c-.07.015-.136-.043-.132-.13 0-.402.125-1.476 1.328-1.82.07-.019.136.036.136.122-.007.414-.14 1.554-1.332 1.828m0 0"/><path fill="#061c3d" d="M5.7 4.988A4.09 4.09 0 0 1 9.784.906h10.43A4.09 4.09 0 0 1 24.3 4.988v4.54h.906v-4.54A4.995 4.995 0 0 0 20.215 0H9.785a4.995 4.995 0 0 0-4.992 4.988v4.54h.906ZM26.34 10.434H3.66a.453.453 0 0 0 0 .906h22.68a.453.453 0 0 0 0-.906M7.29 12.246H5.02c-.75 0-1.36.613-1.36 1.363v2.27c0 .75.61 1.36 1.36 1.36h2.27c.75 0 1.358-.61 1.358-1.36v-2.27c0-.75-.609-1.363-1.359-1.363M13.184 12.246h-2.266c-.75 0-1.363.613-1.363 1.363v2.27c0 .75.613 1.36 1.363 1.36h2.266c.754 0 1.363-.61 1.363-1.36v-2.27c0-.75-.61-1.363-1.363-1.363m.457 3.633c0 .25-.203.453-.457.453h-2.266a.453.453 0 0 1-.453-.453v-2.27c0-.25.203-.453.453-.453h2.266c.254 0 .457.203.457.453ZM19.082 12.246h-2.266c-.753 0-1.363.613-1.363 1.363v2.27c0 .75.61 1.36 1.363 1.36h2.266c.75 0 1.363-.61 1.363-1.36v-2.27c0-.75-.613-1.363-1.363-1.363M24.98 12.246h-2.27c-.75 0-1.358.613-1.358 1.363v2.27c0 .75.609 1.36 1.359 1.36h2.27c.75 0 1.359-.61 1.359-1.36v-2.27c0-.75-.61-1.363-1.36-1.363m.454 3.633c0 .25-.204.453-.454.453h-2.27a.453.453 0 0 1-.452-.453v-2.27c0-.25.203-.453.453-.453h2.27c.25 0 .453.203.453.453ZM7.29 18.145H5.02c-.75 0-1.36.609-1.36 1.363v2.265c0 .75.61 1.364 1.36 1.364h2.27c.75 0 1.358-.614 1.358-1.364v-2.265c0-.754-.609-1.363-1.359-1.363m.452 3.628c0 .25-.203.454-.453.454H5.02a.453.453 0 0 1-.453-.454v-2.265c0-.25.204-.457.454-.457h2.27c.25 0 .452.207.452.457ZM13.184 18.145h-2.266c-.75 0-1.363.609-1.363 1.363v2.265c0 .75.613 1.364 1.363 1.364h2.266c.754 0 1.363-.614 1.363-1.364v-2.265c0-.754-.61-1.363-1.363-1.363M19.082 18.145h-2.266c-.753 0-1.363.609-1.363 1.363v2.265c0 .75.61 1.364 1.363 1.364h2.266c.75 0 1.363-.614 1.363-1.364v-2.265c0-.754-.613-1.363-1.363-1.363m.453 3.628c0 .25-.203.454-.453.454h-2.266a.454.454 0 0 1-.457-.454v-2.265c0-.25.203-.457.457-.457h2.266c.25 0 .453.207.453.457ZM24.98 18.145h-2.27c-.75 0-1.358.609-1.358 1.363v2.265c0 .75.609 1.364 1.359 1.364h2.27c.75 0 1.359-.614 1.359-1.364v-2.265c0-.754-.61-1.363-1.36-1.363m0 0"/><g clip-path="url(#a)"><path fill="#061c3d" d="M7.29 24.043H5.02c-.75 0-1.36.61-1.36 1.36v2.269c0 .75.61 1.36 1.36 1.36h2.27c.75 0 1.358-.61 1.358-1.36v-2.27c0-.75-.609-1.359-1.359-1.359m0 0"/></g><g clip-path="url(#b)"><path fill="#061c3d" d="M13.184 24.043h-2.266c-.75 0-1.363.61-1.363 1.36v2.269c0 .75.613 1.36 1.363 1.36h2.266c.754 0 1.363-.61 1.363-1.36v-2.27c0-.75-.61-1.359-1.363-1.359m.457 3.629c0 .25-.203.453-.457.453h-2.266a.453.453 0 0 1-.453-.453v-2.27c0-.25.203-.453.453-.453h2.266c.254 0 .457.203.457.453Zm0 0"/></g><g clip-path="url(#c)"><path fill="#061c3d" d="M19.082 24.043h-2.266c-.753 0-1.363.61-1.363 1.36v2.269c0 .75.61 1.36 1.363 1.36h2.266c.75 0 1.363-.61 1.363-1.36v-2.27c0-.75-.613-1.359-1.363-1.359m0 0"/></g><g clip-path="url(#d)"><path fill="#061c3d" d="M24.98 24.043h-2.27c-.75 0-1.358.61-1.358 1.36v2.269c0 .75.609 1.36 1.359 1.36h2.27c.75 0 1.359-.61 1.359-1.36v-2.27c0-.75-.61-1.359-1.36-1.359m.454 3.629c0 .25-.204.453-.454.453h-2.27a.453.453 0 0 1-.452-.453v-2.27c0-.25.203-.453.453-.453h2.27c.25 0 .453.203.453.453Zm0 0"/></g><g clip-path="url(#e)"><path fill="#061c3d" d="M29.063 10.434h-.907a.453.453 0 0 0 0 .906h.907a.453.453 0 0 0 0-.906m0 0"/></g><g clip-path="url(#f)"><path fill="#061c3d" d="M1.844 10.434H.937a.453.453 0 0 0 0 .906h.907a.453.453 0 0 0 0-.906m0 0"/></g></svg>