<svg xmlns="http://www.w3.org/2000/svg" width="40" height="40" version="1.0" viewBox="0 0 30 30"><defs><clipPath id="a"><path d="M14 2.902h2V6h-2Zm0 0"/></clipPath><clipPath id="b"><path d="M22 13h7.516v13H22Zm0 0"/></clipPath><clipPath id="c"><path d="M.484 13H8v13H.484Zm0 0"/></clipPath></defs><g clip-path="url(#a)"><path fill="#061c3d" d="M14.566 5.805q0 .023.024.023l.754.004q.028 0 .027-.023v-2.47a.395.395 0 0 0-.437-.401c-.364.039-.383.417-.368.73Zm0 0"/></g><path fill="#061c3d" d="m14.203 8.254 1.074-.004h.45q.023 0 .023-.023l-.012-1.137c0-.2-.02-.336-.062-.418q-.115-.239-.43-.207l-.828.008a.06.06 0 0 0-.035.011q-.195.123-.195.329-.006.716 0 1.425c0 .008.007.016.015.016M2.086 13.184h.004q.148-.495.379-.907c.148-.265.37-.597.66-1.004q.27-.377.809-.824c.074-.078.156-.152.242-.21A8 8 0 0 1 5.28 9.57 7 7 0 0 1 7.5 8.945c.453-.047.95-.058 1.484-.023l-.527-.625a.3.3 0 0 0-.098-.074.26.26 0 0 0-.113-.032C6.88 8.145 5.441 8.5 4.29 9.25q-1.12.726-1.707 1.828c-.219.41-.375.89-.46 1.434l-.04.672zM22.527 8.965q1.323.141 2.457.77.528.275.973.656.468.375.836.832c.426.523.773 1.066.996 1.703l.094.27.004.003q.005-.001.004-.008c-.028-.375-.055-.773-.145-1.12a5 5 0 0 0-.312-.868c-.438-.887-1.149-1.594-2.004-2.078a7.36 7.36 0 0 0-3.805-.937c-.262.164-.48.476-.668.73a10 10 0 0 1 1.57.047M9.344 10.93h.043c.199.004.363-.16.367-.36l.004-.62c0-.2-.16-.364-.36-.368h-.043c-.199 0-.363.16-.363.36l-.004.624c-.004.2.157.364.356.364M20.523 10.926h.04a.37.37 0 0 0 .375-.371v-.598a.37.37 0 0 0-.372-.371h-.039a.37.37 0 0 0-.375.371v.598c0 .203.164.367.371.37m0 0"/><path fill="#061c3d" d="M25.102 10.563a3.8 3.8 0 0 0-1.16-.508 12 12 0 0 1-.493-.153.5.5 0 0 1-.238-.039q-.004-.006-.008 0h-.008q-.007.001.004.008.406.131.805.274c.64.222 1.203.562 1.7 1.027l.37.363a5.2 5.2 0 0 0-.972-.973M23.64 10.934a.7.7 0 0 1 .462.312q.163.251.105.543a.67.67 0 0 1-.312.453.7.7 0 0 1-.547.102.7.7 0 0 1-.461-.309.67.67 0 0 1-.106-.543.7.7 0 0 1 .313-.457.71.71 0 0 1 .547-.101M6.316 12.68c.051.043.137.074.188.035q.31-.251.578-.508a.12.12 0 0 0 .04-.086l-.013-.793a.1.1 0 0 0-.007-.027q-.176-.266-.391-.32-.225-.063-.578.027a.5.5 0 0 0-.363.449c-.004.227 0 .453.003.676q0 .03.024.055c.16.18.336.347.52.492M11.367 13.34q.14.051.473.05 3.097-.01 6.195-.003.317 0 .477-.059.573-.208.543-1.015.005-1.372.004-2.79c0-.386-.243-.593-.618-.59-2.347.005-4.691 0-7.035-.007q-.389 0-.508.273c-.039.086-.054.254-.054.508q.01 1.292.008 2.57c-.047.418.101.903.515 1.063M20.969 13.332q.031.293.25.457.52.392 1.008-.07a.56.56 0 0 0 .187-.39c.082-1.126-1.559-1.06-1.445.003M24.836 12.633q-.37.233-.324.707.14.543.597.613c.496.074.891-.262.868-.777-.075-.551-.665-.852-1.141-.543M5.355 12.578a14 14 0 0 0-.71-.004.45.45 0 0 0-.215.051q-.406.223-.348.703c.043.293.238.602.555.602.238 0 .472-.004.707-.004.011 0 .027-.004.035-.012q.262-.24.488-.539a.2.2 0 0 0 .082-.191q-.007-.076-.09-.153-.234-.217-.468-.441-.012-.012-.036-.012m0 0"/><g clip-path="url(#b)"><path fill="#061c3d" d="M29.27 20.52c-.372-1.356-.766-2.707-1.137-4.063-.238-.898-.496-1.793-.758-2.687l-.004-.004q-.005.001-.004.007c.012.54-.172.997-.402 1.47a.1.1 0 0 0-.004.07q.405 1.604.875 3.19c.219.75.41 1.5.605 2.255q.241.945-.109 1.949a1.3 1.3 0 0 1-.148.309q-.006.005-.012.004-.019.001-.02-.016a3.4 3.4 0 0 0-.25-1.3 15 15 0 0 0-1.097-2.114l-.004-.004q-.005.001-.004.008a13 13 0 0 1 .473 1.937c.05.32.074.711.058 1.168-.012.446-.113 1.098-.48 1.36a.86.86 0 0 1-.68.043 3.8 3.8 0 0 1-1.012-.48c-1.105-.747-2.054-1.77-2.797-2.868a1 1 0 0 0-.086-.078q-.03-.035-.011.008c.175.355.289.742.43 1.113.675 1.746 1.902 3.45 3.976 3.433.094-.003.234-.023.426-.07 1.203-.265 2.031-1.469 2.273-2.61.14-.66.078-1.378-.097-2.03m0 0"/></g><path fill="#061c3d" d="M8.371 13.89c.02.024.055.012.113-.023q.393-.275.325-.808a.73.73 0 0 0-.32-.43.33.33 0 0 0-.18-.047q-.365-.007-.723.016a.26.26 0 0 0-.188.078q-.247.235-.5.465c-.043.043-.039.113-.003.164.046.07.093.12.14.16l.418.418q.433.06.918.008M8.504 17.07q.31.944 1.266 1.36c.968.351 2.043.054 2.625-.817q.162-.21.25-.472.332-1.014-.149-1.875c-.539-.953-1.668-1.328-2.687-.953-1.11.41-1.68 1.64-1.305 2.757m1.121-1.988c.613-.45 1.465-.465 2.023.086q.358.357.446.844.04.44.011.586-.205.867-.96 1.195c-.676.289-1.418-.016-1.829-.578-.421-.703-.359-1.613.309-2.133M17.23 16.941q.27 1.044 1.332 1.5c.946.375 2.016.004 2.594-.808q.51-.831.309-1.75a2.3 2.3 0 0 0-.457-.914c-.508-.656-1.442-.918-2.235-.735-1.214.282-1.851 1.528-1.543 2.707m2.29-2.171c.75.109 1.289.707 1.37 1.468 0 .637-.331 1.27-.93 1.535-.597.27-1.187.11-1.675-.293-.75-.804-.637-2.074.399-2.578q.408-.197.836-.132M6.426 15.484c.285-.023.488-.039.644-.265a.3.3 0 0 0 .047-.164q.006-.324 0-.64 0-.083-.035-.095a3.4 3.4 0 0 0-.5-.46q-.17-.118-.305.011-.3.291-.476.441a.05.05 0 0 0-.016.036l-.012.703c.079.316.297.465.653.433M13.316 14.734a.3.3 0 0 0 .204.371.3.3 0 0 0 .363-.214.3.3 0 0 0-.203-.371.3.3 0 0 0-.364.214M15.207 14.762a.28.28 0 0 1-.055.222.27.27 0 0 1-.191.118.28.28 0 0 1-.223-.051.28.28 0 0 1-.117-.192.3.3 0 0 1 .05-.222.28.28 0 0 1 .196-.117.28.28 0 0 1 .219.05.3.3 0 0 1 .121.192M16.082 14.54c-.14.07-.191.25-.113.401.074.149.25.215.386.141.141-.07.192-.25.114-.398-.074-.149-.25-.215-.387-.145M24.234 14.809a.66.66 0 0 0-.293-.586c-.414-.317-.914-.157-1.125.308q-.129.463.141.774c.469.539 1.25.18 1.277-.496m-1.449-.07q-.002.01-.004.023.002-.012.004-.024m-.004.023q-.001.012.004.023-.005-.012-.004-.023m.008.035q-.002-.006-.004-.012.002.006.004.012m.004.004q.002.001.004.008-.002-.004-.004-.008m.008.012q.005.002.004.003s0-.004-.004-.004M15.73 15.3c-.117-.105-.3-.1-.402.012-.105.114-.09.293.027.403.122.11.301.105.403-.008a.286.286 0 0 0-.028-.406M14.516 15.387a.28.28 0 0 0-.371-.133.28.28 0 0 0-.122.375c.07.14.239.203.372.133a.28.28 0 0 0 .12-.375m0 0"/><path fill="#061c3d" d="M18.395 16.46c.175.618.828 1.009 1.421.653q.44-.264.454-.828.03-.322-.239-.625c-.668-.75-1.847-.156-1.636.8M9.988 17.004c.504.43 1.227.262 1.461-.363q.088-.24.07-.496a.956.956 0 0 0-1.734-.422.78.78 0 0 0-.137.699c-.003.215.188.453.34.582M14.758 17.746q.493.136.758-.273c.09-.118.117-.274.09-.457a.57.57 0 0 0-.27-.434c-.379-.254-.871-.059-.984.398q-.053.275.105.532a.53.53 0 0 0 .3.234M25.555 25.922q-.034-.011-.063-.016c-.672-.136-1.23-.433-1.75-.89a5.8 5.8 0 0 1-1.39-1.84c-.317-.66-.516-1.215-.75-1.836a4.3 4.3 0 0 0-.34-.746q-.634-.998-1.828-1.121a11 11 0 0 0-.82-.016q-3.75-.012-7.493 0c-.379 0-.648.016-.82.047a2.37 2.37 0 0 0-1.688 1.156c-.191.309-.3.727-.425 1.098-.391 1.164-.954 2.289-1.868 3.133a4.35 4.35 0 0 1-1.945 1.039v.007c.34.012.703.024 1.027-.039 1.832-.343 2.844-2.085 3.36-3.707q.122-.37.25-.746.327-.974 1.265-1.21.235-.06.692-.06 3.895-.015 7.797 0 .575.001.816.055c.492.114.871.375 1.137.801.082.133.191.383.316.75.465 1.317.926 2.598 2.086 3.48q1.073.81 2.426.665h.004zm0 0"/><g clip-path="url(#c)"><path fill="#061c3d" d="M6.605 23.145q.322-.52.497-.989.274-.739.554-1.472.005-.016-.008-.008c-.074.066-.117.168-.16.222-.254.336-.508.684-.785.985q-.668.72-1.418 1.347a6 6 0 0 1-.902.61 2.1 2.1 0 0 1-1.172.285.3.3 0 0 1-.082-.02 1.25 1.25 0 0 1-.387-.636 4.3 4.3 0 0 1-.094-1.324q.066-.913.278-1.797.087-.367.226-.723l-.011-.004h-.004c-.219.383-.469.758-.653 1.145-.343.726-.617 1.406-.671 2.199q-.005.1-.051.008a3.3 3.3 0 0 1-.301-1.188c-.035-.566.129-1.246.285-1.816q.646-2.339 1.274-4.684c0-.012 0-.027-.008-.035-.242-.406-.469-1.008-.41-1.484q.001-.011-.004-.016-.011-.018-.016 0a107 107 0 0 0-.672 2.445c-.289 1.11-.816 2.88-1.215 4.524a5 5 0 0 0-.144.808c-.051.774.117 1.508.5 2.192a3.06 3.06 0 0 0 1.77 1.445q1.229.242 2.242-.426a5.3 5.3 0 0 0 1.542-1.593m-4.234.554q-.007-.002-.008-.004.001-.001.008.004m.008.004q-.001-.002-.008-.004.007.002.008.004m-.027-.004q-.005.002-.004.004zm.007-.004q-.005-.001-.004.004s0-.004.004-.004m-.015.012v.004zm0 0"/></g></svg>