<svg xmlns="http://www.w3.org/2000/svg" width="40" height="40" version="1.0" viewBox="0 0 30 30"><defs><clipPath id="a"><path d="M.484.45h29.032V23H.484Zm0 0"/></clipPath><clipPath id="b"><path d="M7 23h6v5.754H7Zm0 0"/></clipPath><clipPath id="c"><path d="M21 23h6v5.754h-6Zm0 0"/></clipPath></defs><g clip-path="url(#a)"><path fill="#061c3d" d="M29.191 5.102a1.2 1.2 0 0 0-.933-.442H7.574l-.996-3.344A1.21 1.21 0 0 0 5.414.45h-3.7a1.213 1.213 0 1 0 0 2.426h2.798l4.531 15.219c-.492.898-.957 2.187-.43 3.27.469.956 1.524 1.44 3.14 1.44.028 0 .06 0 .087-.003.105-.012 10.55-.969 14.152-.766A.953.953 0 0 0 27 21.137a.955.955 0 0 0-.898-1.012c-3.657-.207-13.532.688-14.391.766-.887-.008-1.297-.203-1.379-.368-.09-.187-.027-.539.129-.937q.035.001.078-.004l15.82-1.914a1.22 1.22 0 0 0 1.047-.973L29.45 6.102a1.22 1.22 0 0 0-.258-1m-8.78 5.878h-4.977V7.086h4.976ZM9.796 12.13h4.488v4.559l-3.023.367Zm5.637 0h4.976v3.816l-4.976.602Zm10.605-1.149h-4.48V7.086h5.23ZM14.285 7.086v3.894H9.453l-1.16-3.894Zm7.274 8.723v-3.68h4.257l-.625 3.238Zm0 0"/></g><g clip-path="url(#b)"><path fill="#061c3d" d="M12.688 26.16c0 .32-.06.633-.184.93a2.41 2.41 0 0 1-2.238 1.492q-.481.002-.926-.184a2.4 2.4 0 0 1-.785-.523 2.5 2.5 0 0 1-.528-.785 2.45 2.45 0 0 1 0-1.856 2.44 2.44 0 0 1 2.239-1.496q.482.001.93.184c.292.125.558.3.784.527q.341.34.524.785.186.446.184.926m0 0"/></g><g clip-path="url(#c)"><path fill="#061c3d" d="M26.473 26.16c0 .32-.063.633-.188.93a2.41 2.41 0 0 1-2.238 1.492q-.48.002-.926-.184a2.406 2.406 0 0 1-1.309-1.309 2.38 2.38 0 0 1 0-1.855q.183-.445.524-.785.34-.34.785-.527a2.43 2.43 0 0 1 1.856 0 2.44 2.44 0 0 1 1.496 2.238m0 0"/></g></svg>