<svg xmlns="http://www.w3.org/2000/svg" width="40" height="40" version="1.0" viewBox="0 0 30 30"><defs><clipPath id="a"><path d="M3.86 0h22.5v29.031H3.86Zm0 0"/></clipPath></defs><g clip-path="url(#a)"><path fill="#061c3d" d="M7.254 12.582h4.84a2.423 2.423 0 0 0 2.418-2.422V4.355a2.423 2.423 0 0 0-2.418-2.421h-4.84v-.48c0-.27.219-.485.484-.485h14.516c.266 0 .484.215.484.484v.48h-4.84a2.42 2.42 0 0 0-2.418 2.422v5.805a2.42 2.42 0 0 0 2.418 2.422h4.84v.965h-4.84a2.42 2.42 0 0 0-2.418 2.422v5.804a2.42 2.42 0 0 0 2.418 2.422h4.84v.965H7.254v-.965h4.84a2.423 2.423 0 0 0 2.418-2.422V15.97a2.423 2.423 0 0 0-2.418-2.422h-4.84ZM4.836 10.16V4.355c0-.8.648-1.453 1.45-1.453h5.808c.8 0 1.449.653 1.449 1.453v5.805c0 .8-.648 1.453-1.45 1.453H6.286c-.8 0-1.45-.652-1.45-1.453m20.32-5.805v5.805c0 .8-.648 1.453-1.449 1.453h-5.809c-.8 0-1.453-.652-1.453-1.453V4.355c0-.8.653-1.453 1.453-1.453h5.809c.8 0 1.45.653 1.45 1.453m0 11.614v5.804c0 .801-.648 1.454-1.449 1.454h-5.809c-.8 0-1.453-.653-1.453-1.454V15.97c0-.801.653-1.453 1.453-1.453h5.809c.8 0 1.45.652 1.45 1.453m-2.902 12.097H16.07c.23-.257.375-.597.375-.968 0-.375-.144-.711-.375-.97h6.668v1.454a.487.487 0 0 1-.484.484m-7.258-.484a.487.487 0 0 1-.484-.484c0-.266.218-.485.484-.485s.484.219.484.485a.487.487 0 0 1-.484.484m-7.742 0v-1.453h6.668a1.43 1.43 0 0 0 0 1.937H7.738a.487.487 0 0 1-.484-.484m-2.418-5.809V15.97c0-.801.648-1.453 1.45-1.453h5.808c.8 0 1.449.652 1.449 1.453v5.804c0 .801-.648 1.454-1.45 1.454H6.286c-.8 0-1.45-.653-1.45-1.454m-.969-5.804v5.804a2.423 2.423 0 0 0 2.418 2.422v3.387c0 .8.652 1.45 1.453 1.45h14.516c.8 0 1.453-.65 1.453-1.45v-3.387a2.423 2.423 0 0 0 2.418-2.422V15.97a2.423 2.423 0 0 0-2.418-2.422v-.965a2.423 2.423 0 0 0 2.418-2.422V4.355a2.423 2.423 0 0 0-2.418-2.421v-.48C23.707.647 23.055 0 22.254 0H7.738c-.8 0-1.453.648-1.453 1.453v.48a2.423 2.423 0 0 0-2.418 2.422v5.805a2.423 2.423 0 0 0 2.418 2.422v.965a2.423 2.423 0 0 0-2.418 2.422"/></g><path fill="#061c3d" d="M6.77 20.805a.483.483 0 1 1 .966.006.483.483 0 0 1-.966-.006m1.937 0c0-.801-.652-1.45-1.453-1.45a1.452 1.452 0 1 0 1.453 1.45"/><path fill="#061c3d" d="M7.254 18.387a2.42 2.42 0 0 1 2.418 2.418.484.484 0 1 0 .969 0 3.39 3.39 0 0 0-3.387-3.387.487.487 0 0 0-.484.484c0 .266.218.485.484.485"/><path fill="#061c3d" d="M7.254 16.453a4.36 4.36 0 0 1 4.355 4.352.482.482 0 1 0 .965 0 5.326 5.326 0 0 0-5.32-5.32.487.487 0 0 0-.484.484c0 .265.218.484.484.484M21.836 21.047c.262-.54.418-1.11.477-1.692h.859a2.41 2.41 0 0 1-1.336 1.692m-3.402-1.692h.859a5 5 0 0 0 .473 1.692 2.41 2.41 0 0 1-1.332-1.692m1.332-2.66a5 5 0 0 0-.473 1.692h-.86a2.41 2.41 0 0 1 1.333-1.692m1.57 2.66a4 4 0 0 1-.535 1.579 4.1 4.1 0 0 1-.535-1.579Zm-1.07-.968c.066-.551.246-1.086.535-1.578a4 4 0 0 1 .535 1.578Zm2.906 0h-.86a5 5 0 0 0-.476-1.692c.676.32 1.184.942 1.336 1.692M20.8 15.484a3.39 3.39 0 0 0-3.387 3.387 3.39 3.39 0 0 0 3.387 3.387 3.39 3.39 0 0 0 3.387-3.387 3.39 3.39 0 0 0-3.387-3.387M20.8 9.676c-.382 0-.75-.086-1.093-.262a.5.5 0 0 0-.219-.055.4.4 0 0 0-.097.012l-.618.121.141-.281a.48.48 0 0 0-.047-.504 2.4 2.4 0 0 1-.484-1.45 2.42 2.42 0 0 1 4.84 0A2.42 2.42 0 0 1 20.8 9.677m0-5.805a3.39 3.39 0 0 0-3.386 3.387c0 .633.176 1.242.508 1.777l-.457.91a.485.485 0 0 0 .527.691l1.434-.284q.651.293 1.375.293a3.39 3.39 0 0 0 3.387-3.387A3.39 3.39 0 0 0 20.8 3.87"/><path fill="#061c3d" d="M20.984 6.813a.49.49 0 0 0-.527.101.52.52 0 0 0-.14.344c0 .129.05.25.14.344q.074.066.16.101a.5.5 0 0 0 .184.04.53.53 0 0 0 .344-.14.48.48 0 0 0 .14-.345c0-.125-.05-.25-.14-.344a.4.4 0 0 0-.16-.101M7.496 6.773c.387 0 .727.227.727.485s-.34.484-.727.484-.726-.226-.726-.484.34-.485.726-.485m3.387 2.903c-.387 0-.727-.227-.727-.48 0-.258.34-.485.727-.485s.726.226.726.484c0 .254-.34.48-.726.48M7.496 8.71c.934 0 1.691-.652 1.691-1.453V4.996l2.422.691v2.2a1.9 1.9 0 0 0-.726-.145c-.934 0-1.695.649-1.695 1.453 0 .801.761 1.45 1.695 1.45.933 0 1.691-.649 1.691-1.45v-3.87a.48.48 0 0 0-.351-.466l-3.387-.968a.481.481 0 0 0-.613.465v1.597a1.9 1.9 0 0 0-.727-.148c-.934 0-1.695.652-1.695 1.453 0 .8.761 1.453 1.695 1.453M19.008 6.914a.5.5 0 0 0-.14.344.48.48 0 0 0 .484.484c.128 0 .25-.05.343-.14a.5.5 0 0 0 .14-.344.52.52 0 0 0-.14-.344.506.506 0 0 0-.687 0M22.07 6.813a.5.5 0 0 0-.16.101.52.52 0 0 0-.14.344c0 .129.046.25.14.344a.53.53 0 0 0 .344.14c.129 0 .25-.05.344-.14a.5.5 0 0 0 .14-.344.52.52 0 0 0-.14-.344.49.49 0 0 0-.528-.101"/></svg>