<svg xmlns="http://www.w3.org/2000/svg" width="40" height="40" version="1.0" viewBox="0 0 30 30"><defs><clipPath id="a"><path d="M2.59 0H24v29H2.59Zm0 0"/></clipPath></defs><g clip-path="url(#a)"><path fill="#061c3d" d="M21.617 24.348H4.067V4.523h17.968v9.72c.45-.384.735-.481 1.473-.45V2.215A2.217 2.217 0 0 0 21.297 0H4.805c-1.22 0-2.211.996-2.211 2.215V26.66c0 1.219.992 2.211 2.21 2.211h16.493c1.219 0 2.21-.992 2.21-2.21v-1.99c-.16 0-1.187.095-1.89-.323M13.051 27.3a.93.93 0 1 1 .93-.93c0 .48-.418.93-.93.93m0 0"/></g><path fill="#061c3d" d="M23.125 23.996c-.48 0-.996-.094-1.477-.32l-5.035-2.406c-.289-.16-.547-.383-.644-.707-.094-.32-.094-.672.066-.961a.25.25 0 0 1 .13-.13c.51-.32 1.538-.48 2.148-.19l-2.344-3.755c-.192-.289-.223-.64-.16-.96.066-.325.289-.61.578-.774.578-.352 1.379-.191 1.734.418l1.024 1.668c.097-.094.195-.191.289-.223.386-.226.836-.258 1.218-.066.098-.192.258-.352.45-.48.386-.223.835-.255 1.218-.063.098-.192.258-.356.45-.48.289-.196.675-.227.996-.16.32.093.578.284.738.573l1.86 3.372c.898 1.636.32 3.43-.673 4.488-.707.738-1.636 1.156-2.566 1.156m-3.883-7.152a.284.284 0 0 1-.32-.16l-1.348-2.118a.66.66 0 0 0-.898-.195.58.58 0 0 0-.29.387c-.03.16-.03.32.067.48l2.887 4.653c.062.129.062.257-.035.382-.094.098-.254.165-.383.067l-.899-.516c-.351-.125-1.09-.062-1.507.13a.55.55 0 0 0 .03.386c.067.16.192.289.321.351l5.07 2.407c1.38.64 2.598.066 3.336-.703.801-.899 1.348-2.375.579-3.754l-1.86-3.371a.5.5 0 0 0-.355-.254.56.56 0 0 0-.512.062c-.191.098-.29.29-.29.512a.4.4 0 0 1-.226.289c-.125.035-.254 0-.32-.094a.63.63 0 0 0-.8-.129c-.192.094-.29.29-.29.512a.4.4 0 0 1-.222.289c-.13.031-.258 0-.325-.094a.63.63 0 0 0-.8-.129M13.66 17.453c-.098 0-.16-.066-.223-.129-.066-.129-.035-.258.094-.32l1.7-.93c.128-.066.257-.035.324.094.062.129.03.258-.098.32l-1.7.934c0 .031-.034.031-.097.031m0 0"/><path fill="#061c3d" d="M19.145 14.438c-.094 0-.16-.067-.223-.13-.067-.128-.031-.257.098-.32l1.699-.93c.129-.066.258-.035.32.094.063.13.031.258-.098.32l-1.699.934c0 .031-.062.031-.097.031M17.863 13.25c-.031 0-.066 0-.066-.031-.125-.035-.223-.196-.16-.32l.547-1.864c.03-.129.191-.223.32-.16.129.031.226.191.16.32l-.543 1.864c-.035.125-.129.191-.258.191M15.969 13.441c-.094 0-.16-.062-.223-.129l-1.027-1.636c-.063-.125-.031-.254.097-.352.13-.097.254-.031.352.098l1.027 1.637c.063.125.032.254-.097.351-.032.031-.063.031-.13.031M14.879 14.758h-.063l-1.894-.45c-.129-.03-.223-.16-.192-.288.032-.13.16-.227.29-.192l1.89.45c.13.03.227.16.195.288 0 .094-.128.192-.226.192m0 0"/></svg>