<svg xmlns="http://www.w3.org/2000/svg" width="40" height="40" version="1.0" viewBox="0 0 30 30"><defs><clipPath id="a"><path d="M.484 5.129h29.032V24H.484Zm0 0"/></clipPath></defs><g clip-path="url(#a)"><path fill="#061c3d" d="M29.102 9.922a5.3 5.3 0 0 0-1.114-1.652 5.2 5.2 0 0 0-1.648-1.11 5 5 0 0 0-1.582-.39V5.414a.287.287 0 0 0-.285-.285H4.848a.4.4 0 0 0-.13.047q-.006.004-.007.008h-.004c-.004.003-.004.007-.008.007l-.004.004s-.004.004-.008.004v.004q-.005.007-.011.008L.57 9.316q.001.005-.004.004v.004q-.006.004-.007.008l-.004.004S.55 9.34.55 9.344H.547c0 .004-.004.008-.004.008l-.004.003c0 .004-.004.004-.004.008q-.005.004-.004.008s-.004 0-.004.004-.004.004-.004.008l-.003.004q.001.004-.004.008v.003c0 .004-.004.008-.004.008v.004c-.004.004-.004.008-.008.012q.001.006-.004.012v.004q.001.005-.004.011v.012l-.004.004v.023c-.004 0-.004.004-.004.004V22.09c0 .156.13.285.285.285h22.153v.129c0 .77.625 1.394 1.39 1.394.77 0 1.395-.625 1.395-1.394V18.23a.284.284 0 0 0-.285-.285h-.133v-.898a5.185 5.185 0 0 0 2.695-1.434 5.185 5.185 0 0 0 1.114-5.691M4.594 6.098v2.648a.547.547 0 0 1-.555.547l-2.594-.047Zm18.613 11.847a.283.283 0 0 0-.281.285v3.575H1.059V9.809l2.968.05h.024a1.1 1.1 0 0 0 .777-.32c.215-.21.332-.492.332-.793V5.7h19.028v1.055a5.2 5.2 0 0 0-1.891.406 5.2 5.2 0 0 0-1.652 1.11 5.2 5.2 0 0 0-1.11 1.652c-.273.64-.41 1.32-.41 2.02 0 .261.02.523.059.777a.811.811 0 0 0-.93.23l-1.613-.734v-.063a.816.816 0 0 0-1.633-.015l-1.606.562a.8.8 0 0 0-.629-.297.82.82 0 0 0-.816.817q.001.057.008.11l-1.703.91a.82.82 0 0 0-1.082 0l-1.7-.91a.819.819 0 0 0-.809-.926.816.816 0 0 0-.73 1.179l-2.003 2.137a.82.82 0 0 0-1.137.754.82.82 0 0 0 1.636 0 .8.8 0 0 0-.085-.364l2.003-2.136q.147.06.317.062a.82.82 0 0 0 .539-.203l1.703.91c-.008.035-.008.07-.008.11 0 .449.367.816.817.816a.82.82 0 0 0 .808-.926l1.703-.91a.815.815 0 0 0 1.355-.598l1.606-.558a.824.824 0 0 0 1.207.054l1.657.758a.82.82 0 0 0 .816.805c.27 0 .508-.129.656-.332q.002.005.004.004a5.202 5.202 0 0 0 3.809 3.078v.902Zm-4.082-4.468a.248.248 0 1 1-.496 0 .248.248 0 1 1 .496 0m-3.05-1.325c0 .137-.114.25-.25.25a.248.248 0 1 1 .25-.25m-3.052 1.067c0 .136-.113.25-.25.25a.25.25 0 0 1-.25-.25c0-.137.114-.25.25-.25.137 0 .25.113.25.25m-3.05 1.633c0 .136-.114.25-.25.25a.25.25 0 0 1-.25-.25c0-.137.113-.25.25-.25.136 0 .25.113.25.25m-3.551-1.633c0-.137.113-.25.25-.25s.246.113.246.25c0 .136-.11.25-.246.25a.25.25 0 0 1-.25-.25m-2.555 3.254a.248.248 0 1 1-.497.003.248.248 0 0 1 .497-.003m21.278 6.03a.825.825 0 0 1-1.653 0v-3.987h1.653Zm-.422-5.366v.808h-.809v-.808Zm3.855-3.395a4.5 4.5 0 0 1-.992 1.469 4.5 4.5 0 0 1-1.469.992 4.6 4.6 0 0 1-1.8.363 4.6 4.6 0 0 1-1.797-.363 4.6 4.6 0 0 1-1.473-.992 4.6 4.6 0 0 1-.988-1.469 4.6 4.6 0 0 1-.364-1.8 4.63 4.63 0 0 1 1.352-3.27 4.63 4.63 0 0 1 3.27-1.352c.624 0 1.23.121 1.8.364a4.6 4.6 0 0 1 1.469.988c.426.426.762.922.992 1.473.242.57.363 1.175.363 1.796 0 .625-.12 1.23-.363 1.801m0 0"/></g><path fill="#061c3d" d="M27.29 8.973a4.2 4.2 0 0 0-1.337-.899 4.18 4.18 0 0 0-3.27 0c-.5.211-.949.512-1.335.899a4.2 4.2 0 0 0-.899 1.336 4.18 4.18 0 0 0 0 3.27c.211.5.512.948.899 1.335.386.383.836.688 1.336.899a4.184 4.184 0 0 0 3.27 0c.5-.211.948-.516 1.335-.899.383-.387.688-.836.898-1.336a4.18 4.18 0 0 0 0-3.27c-.21-.5-.515-.949-.898-1.335m-6.317 1.558a3.631 3.631 0 0 1 3.344-2.219c.492 0 .968.094 1.413.286.434.183.82.445 1.157.777q.5.505.777 1.156c.188.446.285.922.285 1.41v.07h-.687l-.89-1.792a.24.24 0 0 0-.216-.137.24.24 0 0 0-.215.137l-.757 1.527-.368-.629a.23.23 0 0 0-.218-.117.23.23 0 0 0-.207.145l-.887 2.027-1-2.73a.25.25 0 0 0-.219-.157h-.008a.24.24 0 0 0-.218.149l-.672 1.578h-.7v-.07c0-.489.094-.965.286-1.41m5.914 3.98a3.629 3.629 0 0 1-3.98.777 3.63 3.63 0 0 1-2.18-2.796h.82a.25.25 0 0 0 .223-.144l.492-1.168 1 2.718c.035.09.12.153.218.157h.008c.094 0 .18-.059.219-.145l.934-2.14.351.605a.25.25 0 0 0 .215.117.24.24 0 0 0 .207-.133l.742-1.496.742 1.496c.04.082.122.133.215.133h.793a3.5 3.5 0 0 1-.242.863q-.278.651-.777 1.157M6.766 10.36l-.094.632a.25.25 0 0 0 .121.254.25.25 0 0 0 .129.04c.055 0 .105-.02.152-.052l1.153-.863h.023v.488c0 .172.066.332.188.454a.64.64 0 0 0 .453.187h1.78l1.157.863q.065.05.149.051a.26.26 0 0 0 .132-.039.25.25 0 0 0 .118-.254l-.094-.633a.6.6 0 0 0 .328-.175.62.62 0 0 0 .191-.454v-.488h.09l1.156.863q.066.05.149.051a.26.26 0 0 0 .133-.039.25.25 0 0 0 .117-.254l-.094-.633a.6.6 0 0 0 .328-.175.62.62 0 0 0 .192-.454V7.38a.62.62 0 0 0-.192-.453.64.64 0 0 0-.453-.188h-3.117a.64.64 0 0 0-.453.188l-.024.023-.023-.023a.64.64 0 0 0-.453-.188H6.89a.64.64 0 0 0-.453.188.64.64 0 0 0-.188.453V9.73c0 .172.066.332.188.454.09.093.203.152.328.175m4.058-2.981c0-.074.063-.137.137-.137h3.117c.074 0 .137.063.137.137V9.73a.14.14 0 0 1-.137.137h-.168a.26.26 0 0 0-.191.086.26.26 0 0 0-.059.203l.047.305-.73-.543a.24.24 0 0 0-.153-.05h-.172v-1.36a.64.64 0 0 0-.191-.453.64.64 0 0 0-.453-.188h-1.184Zm1.184.992c.074 0 .137.063.137.137v2.351a.14.14 0 0 1-.137.137h-.168a.25.25 0 0 0-.192.086.26.26 0 0 0-.058.203l.047.305-.73-.543a.24.24 0 0 0-.153-.05H8.89a.14.14 0 0 1-.137-.138V8.508c0-.074.062-.137.137-.137ZM6.754 7.38c0-.074.062-.137.137-.137h3.117c.074 0 .137.063.137.137v.488H8.89a.64.64 0 0 0-.453.188.64.64 0 0 0-.188.453v1.36h-.105a.24.24 0 0 0-.153.05l-.73.543.047-.305a.26.26 0 0 0-.059-.203.25.25 0 0 0-.191-.086H6.89a.14.14 0 0 1-.137-.137Zm0 0"/><path fill="#061c3d" d="M9.352 9.535h2.074a.253.253 0 1 0 0-.508H9.352a.253.253 0 0 0-.25.254c0 .14.113.254.25.254M9.281 10.266h1.617c.141 0 .254-.114.254-.25a.253.253 0 0 0-.254-.254H9.281a.253.253 0 0 0-.254.254c0 .136.114.25.254.25M20.145 19.934h-.27v-5.082a.287.287 0 0 0-.285-.286h-1.426a.287.287 0 0 0-.285.286v5.082h-1.055v-6.137a.287.287 0 0 0-.285-.285h-1.426a.284.284 0 0 0-.285.285v6.137h-1.055v-5.082a.287.287 0 0 0-.285-.286h-1.43a.283.283 0 0 0-.28.286v5.082h-1.06v-3.618a.283.283 0 0 0-.28-.285h-1.43a.287.287 0 0 0-.285.285v3.618H7.668v-5.082a.284.284 0 0 0-.285-.286H5.957a.287.287 0 0 0-.285.286v5.082H4.617V18a.283.283 0 0 0-.285-.281H2.906a.283.283 0 0 0-.285.281v1.934h-.387a.283.283 0 0 0-.285.28c0 .157.13.286.285.286h17.91a.283.283 0 0 0 0-.566m-16.954 0v-1.649h.856v1.649Zm3.051 0v-4.797h.86v4.797Zm3.051 0v-3.332h.86v3.332Zm3.05 0v-4.797h.86v4.797Zm3.052 0v-5.852h.859v5.852Zm3.054 0v-4.797h.856v4.797Zm0 0"/></svg>