<svg xmlns="http://www.w3.org/2000/svg" width="40" height="40" version="1.0" viewBox="0 0 30 30"><defs><clipPath id="a"><path d="M.484 0h29.032v29.031H.484Zm0 0"/></clipPath></defs><g clip-path="url(#a)"><path fill="#061c3d" d="M14.871 3.39a6.224 6.224 0 0 0-6.219 6.215c0 3.43 2.79 6.22 6.22 6.22a6.224 6.224 0 0 0 6.214-6.22 6.223 6.223 0 0 0-6.215-6.214m0 11.712a5.5 5.5 0 0 1-5.496-5.497 5.5 5.5 0 0 1 5.496-5.492 5.5 5.5 0 0 1 5.492 5.492 5.5 5.5 0 0 1-5.492 5.497m-1.605-6.95v2.91c0 .16-.106.301-.262.348a.4.4 0 0 1-.098.012.36.36 0 0 1-.308-.172l-1.125-1.824v1.636a.362.362 0 0 1-.723 0v-2.91a.363.363 0 0 1 .672-.191l1.121 1.824V8.152a.362.362 0 0 1 .723 0m2.793 2.91c0 .2-.164.36-.364.36h-1.293c-.199 0-.363-.16-.363-.36v-2.91c0-.199.164-.363.363-.363.2 0 .36.164.36.363V10.7h.933c.2 0 .364.16.364.364m1.66-3.269h-.903a.36.36 0 0 0-.363.36v2.91c0 .199.16.359.363.359.2 0 .36-.16.36-.36v-.718h.543c.699 0 1.27-.57 1.27-1.27V9.06c0-.7-.571-1.266-1.27-1.266m.547 1.281c0 .301-.246.547-.547.547h-.543V8.516h.543c.3 0 .547.242.547.543ZM29.25 23.652c0-.101-.04-.199-.117-.27l-2.586-2.359a.36.36 0 0 0-.242-.093v-.004h-.98v-6.32c0-.965-.786-1.75-1.75-1.75h-1.49c.259-.579.45-1.184.563-1.805h.383c.797 0 1.446-.649 1.446-1.446S23.828 8.16 23.03 8.16h-.383a7.85 7.85 0 0 0-1.257-3.031l.27-.27a1.445 1.445 0 1 0-2.044-2.046l-.27.273a7.8 7.8 0 0 0-3.035-1.258v-.383A1.44 1.44 0 0 0 14.873 0c-.798 0-1.446.648-1.446 1.445v.383a7.9 7.9 0 0 0-3.035 1.254l-.27-.27a1.45 1.45 0 0 0-1.023-.421c-.387 0-.75.152-1.02.422a1.44 1.44 0 0 0 0 2.042l.27.274A7.85 7.85 0 0 0 7.09 8.16h-.383c-.797 0-1.445.649-1.445 1.445 0 .797.648 1.446 1.445 1.446h.383c.113.62.305 1.226.562 1.804H6.164c-.965 0-1.75.786-1.75 1.75v6.32H.848c-.2 0-.36.165-.36.364v7.383c0 .2.16.36.36.36h7.855c.2 0 .36-.16.36-.36v-5.02c0-.101-.04-.199-.118-.27L6.36 21.024a.37.37 0 0 0-.246-.093v-.004h-.976v-6.32c0-.567.46-1.028 1.027-1.028h1.863q.149.257.32.508l-.269.27a1.43 1.43 0 0 0-.426 1.023c0 .387.153.75.426 1.02.27.273.633.421 1.02.421.386 0 .75-.148 1.023-.422l.27-.27a7.9 7.9 0 0 0 3.035 1.259v.383c0 .671.46 1.238 1.082 1.398v1.762H10.94c-.199 0-.359.16-.359.36v7.382c0 .2.16.36.36.36h7.855c.2 0 .36-.16.36-.36v-5.02c0-.101-.04-.199-.118-.27l-2.586-2.359a.37.37 0 0 0-.246-.093v-.004h-.977v-1.758a1.445 1.445 0 0 0 1.086-1.398v-.383a7.9 7.9 0 0 0 3.032-1.258l.27.27c.273.273.636.421 1.023.421s.75-.148 1.023-.422a1.445 1.445 0 0 0 0-2.043l-.273-.27c.117-.167.222-.335.324-.507h1.86c.566 0 1.027.461 1.027 1.027v6.32h-3.563c-.2 0-.363.165-.363.364v7.383c0 .2.164.36.363.36h7.852c.199 0 .363-.16.363-.36v-5.02ZM6.477 22.11l1.293 1.18H6.477Zm-.723-.46v2.003c0 .2.16.36.36.36H8.34v4.297H1.21v-6.66Zm10.816.46 1.293 1.18H16.57Zm-.722-.46v2.003c0 .2.16.36.359.36h2.227v4.297h-7.13v-6.66Zm4.78-7.743a.36.36 0 0 0 .036.473l.488.488a.722.722 0 1 1-1.023 1.02l-.488-.485a.353.353 0 0 0-.47-.035 7.2 7.2 0 0 1-3.269 1.356.36.36 0 0 0-.312.355v.692a.724.724 0 0 1-.723.722.723.723 0 0 1-.719-.722v-.692a.36.36 0 0 0-.312-.355 7.2 7.2 0 0 1-3.27-1.356.35.35 0 0 0-.214-.07.36.36 0 0 0-.254.105l-.489.489a.73.73 0 0 1-.511.207.72.72 0 0 1-.508-.207.72.72 0 0 1-.211-.512c0-.195.074-.375.21-.512l.485-.488a.36.36 0 0 0 .035-.473 7.1 7.1 0 0 1-1.355-3.265.365.365 0 0 0-.36-.313h-.687a.724.724 0 0 1 0-1.445h.691a.36.36 0 0 0 .356-.309 7.2 7.2 0 0 1 1.355-3.27.36.36 0 0 0-.035-.472l-.484-.484a.72.72 0 0 1 0-1.024.7.7 0 0 1 .508-.21c.195 0 .375.074.511.21l.489.489c.125.124.328.14.472.03a7.16 7.16 0 0 1 3.266-1.35.365.365 0 0 0 .312-.36v-.688a.72.72 0 1 1 1.441 0v.688c0 .18.134.332.313.36a7.16 7.16 0 0 1 3.27 1.355c.14.105.344.09.469-.035l.488-.489a.71.71 0 0 1 .512-.21c.195 0 .375.074.511.21a.726.726 0 0 1 0 1.024l-.488.484a.36.36 0 0 0-.035.473 7.16 7.16 0 0 1 1.355 3.27c.028.179.18.312.36.312h.687c.399 0 .723.324.723.718a.724.724 0 0 1-.723.723h-.687a.365.365 0 0 0-.36.313 7.1 7.1 0 0 1-1.355 3.265m6.036 8.203 1.297 1.18h-1.297Zm1.867 6.2h-7.133v-6.66h4.543v2.003c0 .2.164.36.364.36h2.226Zm-6.515-5.164c0-.2.16-.364.359-.364h2.617a.362.362 0 0 1 0 .723h-2.617c-.2 0-.36-.16-.36-.36m.359 1.472h4.242a.362.362 0 0 1 0 .723h-4.242a.362.362 0 0 1 0-.723m4.602 2.2c0 .199-.16.359-.36.359h-4.242a.362.362 0 0 1 0-.723h4.242c.2 0 .36.164.36.363m-15.059-3.672c0-.2.164-.364.363-.364h2.617a.362.362 0 0 1 0 .723h-2.617c-.199 0-.363-.16-.363-.36m0 1.835c0-.199.164-.363.363-.363h4.242a.362.362 0 0 1 0 .723h-4.242c-.199 0-.363-.16-.363-.36m0 1.836c0-.199.164-.363.363-.363h4.242a.362.362 0 0 1 0 .723h-4.242c-.199 0-.363-.16-.363-.36M1.824 23.145c0-.2.164-.364.363-.364h2.614a.362.362 0 1 1 0 .723H2.188c-.2 0-.364-.16-.364-.36m0 1.835c0-.199.164-.363.363-.363h4.239c.199 0 .363.164.363.363 0 .2-.164.36-.363.36H2.188c-.2 0-.364-.16-.364-.36m0 1.836c0-.199.164-.363.363-.363h4.239c.199 0 .363.164.363.363 0 .2-.164.36-.363.36H2.188c-.2 0-.364-.16-.364-.36m0 0"/></g></svg>