<svg xmlns="http://www.w3.org/2000/svg" width="40" height="40" version="1.0" viewBox="0 0 30 30"><defs><clipPath id="a"><path d="M3.242 8H26.47v16H3.242Zm0 0"/></clipPath><clipPath id="b"><path d="M3.242 20H26.47v2H3.242Zm0 0"/></clipPath></defs><g clip-path="url(#a)"><path fill="#061c3d" d="M24.266 23.883H5.44a2.205 2.205 0 0 1-2.203-2.2V10.23c0-1.214.989-2.199 2.203-2.199h.579a.35.35 0 0 1 .351.352v1.668c0 .191.18.304.344.316l1.695.121a.36.36 0 0 1 .317.266c.148.582.378 1.144.687 1.664a.35.35 0 0 1-.035.41L8.266 14.11c-.11.13-.153.336-.016.47l1.215 1.214c.133.137.34.094.465-.016l1.285-1.113a.35.35 0 0 1 .41-.035c.52.309 1.078.539 1.664.687.149.04.254.168.266.317l.12 1.695c.012.164.126.344.317.344h1.719c.191 0 .309-.18.32-.344l.117-1.695a.36.36 0 0 1 .266-.317 6.3 6.3 0 0 0 1.664-.687.35.35 0 0 1 .41.035l1.285 1.113c.125.11.332.153.47.016l1.21-1.215c.137-.133.094-.34-.015-.469l-1.114-1.28a.35.35 0 0 1-.035-.411c.309-.52.54-1.082.688-1.664a.36.36 0 0 1 .32-.266l1.691-.12c.164-.013.344-.126.344-.317V8.383a.35.35 0 0 1 .352-.352h.582c1.21 0 2.199.989 2.199 2.2v11.453c0 1.21-.985 2.199-2.2 2.199M5.44 8.734c-.828 0-1.496.672-1.496 1.496v11.454c0 .824.672 1.492 1.496 1.492h18.825c.824 0 1.492-.668 1.492-1.492V10.23c0-.824-.668-1.496-1.492-1.496h-.227v1.317c0 .543-.43.98-1 1.023l-1.445.102c-.14.476-.332.941-.57 1.379l.949 1.093c.37.43.367 1.047-.02 1.43l-1.21 1.215c-.388.383-1 .39-1.434.016l-1.09-.946q-.663.36-1.383.57l-.102 1.446c-.039.566-.48.996-1.023.996h-1.719c-.543 0-.98-.43-1.023-.996l-.102-1.445a7 7 0 0 1-1.379-.57l-1.093.945c-.434.375-1.047.367-1.43-.016L7.75 15.078c-.383-.383-.39-1-.016-1.43l.946-1.093a7 7 0 0 1-.57-1.38l-1.446-.1c-.566-.044-.996-.481-.996-1.024V8.734Zm0 0"/></g><path fill="#061c3d" d="M12.805 27.113a.4.4 0 0 1-.168-.039.36.36 0 0 1-.145-.48c.88-1.645.117-2.86.11-2.871a.353.353 0 0 1 .593-.383c.04.062.992 1.582-.082 3.59a.35.35 0 0 1-.308.183M16.902 27.113a.36.36 0 0 1-.312-.183c-1.074-2.008-.121-3.528-.078-3.59a.35.35 0 0 1 .484-.106c.164.106.211.32.11.485-.036.054-.762 1.254.109 2.875a.36.36 0 0 1-.145.48.4.4 0 0 1-.168.04m0 0"/><path fill="#061c3d" d="M18.566 28.86h-7.425a.356.356 0 0 1-.356-.352v-.988c0-.614.5-1.11 1.113-1.11h5.907c.613 0 1.113.496 1.113 1.11v.988a.353.353 0 0 1-.352.351m-7.074-.708h6.723v-.632a.41.41 0 0 0-.406-.407h-5.91a.41.41 0 0 0-.407.407Zm0 0"/><g clip-path="url(#b)"><path fill="#061c3d" d="M26.113 21.012H3.593a.353.353 0 0 1-.355-.352c0-.195.16-.351.356-.351h22.52a.35.35 0 0 1 .35.351.35.35 0 0 1-.35.352m0 0"/></g><path fill="#061c3d" d="M5.898 22.45h-.671a.353.353 0 1 1 0-.707h.671a.353.353 0 0 1 0 .707M7.992 22.45H7.32a.353.353 0 0 1 0-.708h.672a.353.353 0 0 1 0 .707M10.086 22.45h-.672a.353.353 0 0 1 0-.708h.672a.353.353 0 0 1 0 .707M15.71 18.375h-1.714c-.547 0-.984-.43-1.023-1l-.106-1.441a7 7 0 0 1-1.379-.575l-1.093.95c-.43.375-1.047.367-1.43-.016L7.75 15.078c-.383-.383-.39-1-.016-1.43l.95-1.093a7 7 0 0 1-.575-1.38l-1.441-.105c-.57-.039-1-.476-1-1.023V8.332c0-.543.43-.984 1-1.023l1.441-.102q.211-.72.575-1.383l-.95-1.09c-.375-.433-.367-1.046.016-1.433L8.965 2.09c.383-.387 1-.395 1.43-.02l1.093.95c.438-.239.903-.43 1.38-.57l.105-1.446c.039-.57.476-1 1.023-1h1.715c.543 0 .984.43 1.023 1l.102 1.445q.72.212 1.383.57l1.093-.949c.43-.375 1.043-.367 1.43.02l1.211 1.21c.387.388.395 1 .02 1.434l-.95 1.09q.36.663.57 1.383l1.446.102c.57.039 1 .48 1 1.023v1.719c0 .543-.43.98-1 1.023l-1.445.102c-.14.476-.332.941-.57 1.379l.949 1.093c.37.43.367 1.047-.02 1.43l-1.21 1.215c-.388.383-1 .39-1.434.016l-1.09-.946q-.663.36-1.383.57l-.102 1.446c-.039.566-.48.996-1.023.996m-4.265-3.797a.33.33 0 0 1 .18.05c.52.31 1.082.54 1.664.688.149.04.254.168.266.317l.12 1.695c.012.164.126.344.321.344h1.715c.191 0 .309-.18.32-.344l.117-1.695a.36.36 0 0 1 .266-.317 6.3 6.3 0 0 0 1.664-.687.35.35 0 0 1 .414.035l1.281 1.113c.125.11.332.153.47.016l1.214-1.215c.133-.133.09-.34-.02-.469l-1.113-1.28a.35.35 0 0 1-.035-.411 6.3 6.3 0 0 0 .691-1.664.35.35 0 0 1 .317-.266l1.691-.12c.168-.013.344-.126.344-.317V8.332c0-.191-.176-.309-.344-.32l-1.691-.117a.35.35 0 0 1-.317-.266 6.3 6.3 0 0 0-.69-1.664.36.36 0 0 1 .034-.414l1.113-1.281c.11-.125.153-.332.02-.47l-1.215-1.214c-.137-.133-.344-.09-.469.02l-1.28 1.113a.36.36 0 0 1-.415.035 6.4 6.4 0 0 0-1.664-.691.35.35 0 0 1-.266-.317l-.117-1.691c-.011-.168-.129-.344-.32-.344h-1.715c-.191 0-.309.176-.32.344l-.121 1.691a.35.35 0 0 1-.266.317 6.5 6.5 0 0 0-1.664.69.35.35 0 0 1-.41-.034L9.934 2.605c-.125-.109-.332-.152-.47-.02L8.25 3.802c-.137.136-.094.344.016.469l1.113 1.28a.35.35 0 0 1 .035.415 6.3 6.3 0 0 0-.687 1.664.35.35 0 0 1-.317.266l-1.695.117c-.164.011-.344.129-.344.32v1.719c0 .191.18.304.344.316l1.695.121a.35.35 0 0 1 .317.266 6.2 6.2 0 0 0 .691 1.664.35.35 0 0 1-.04.41L8.267 14.11c-.11.13-.153.336-.016.47l1.215 1.214c.133.137.344.094.469-.016l1.28-1.113a.35.35 0 0 1 .231-.086m0 0"/><path fill="#061c3d" d="M14.852 14.848A5.665 5.665 0 0 1 9.195 9.19a5.66 5.66 0 0 1 5.657-5.656 5.66 5.66 0 0 1 5.656 5.656 5.66 5.66 0 0 1-5.656 5.657m0-10.606a4.955 4.955 0 0 0-4.95 4.95 4.96 4.96 0 0 0 4.95 4.949c2.73 0 4.949-2.223 4.949-4.95 0-2.73-2.219-4.949-4.95-4.949m0 0"/><path fill="#061c3d" d="M12.91 10.777a.35.35 0 0 1-.351-.351V7.957a.35.35 0 0 1 .351-.352.35.35 0 0 1 .352.352v2.469a.35.35 0 0 1-.352.351m-2.062 0a.353.353 0 0 1-.352-.351V7.957a.353.353 0 0 1 .707 0v2.469c0 .195-.16.351-.355.351m0 0"/><path fill="#061c3d" d="M11.879 9.34a.37.37 0 0 1-.25-.102l-1.027-1.031a.35.35 0 0 1 0-.5.35.35 0 0 1 .496 0l.78.781.782-.781a.356.356 0 0 1 .5 0c.14.137.14.363 0 .5L12.13 9.238a.36.36 0 0 1-.25.102M17.691 10.777a.353.353 0 0 1-.355-.351V7.953a.353.353 0 0 1 .707 0v2.473a.35.35 0 0 1-.352.351m0 0"/><path fill="#061c3d" d="M18.273 9.68h-.582a.353.353 0 0 1-.355-.352V7.953c0-.195.16-.351.355-.351h.582c.516 0 .934.418.934.937v.207a.934.934 0 0 1-.934.934m-.23-.703h.23c.125 0 .23-.106.23-.23v-.212a.233.233 0 0 0-.23-.23h-.23ZM15.3 10.777a.35.35 0 0 1-.331-.226l-.914-2.473a.35.35 0 0 1 .207-.453.35.35 0 0 1 .453.207L15.3 9.41l.586-1.578a.35.35 0 0 1 .453-.207c.18.066.273.27.207.453l-.914 2.473a.36.36 0 0 1-.332.226m0 0"/></svg>