<svg xmlns="http://www.w3.org/2000/svg" width="40" height="40" version="1.0" viewBox="0 0 30 30"><defs><clipPath id="a"><path d="M.484 0h29.032v29H.484Zm0 0"/></clipPath></defs><path fill="#061c3d" d="M11.898 7.54c-1.753 0-3.18 1.25-3.18 2.788 0 .117.012.235.028.348a2.73 2.73 0 0 0-1.18.984 2.7 2.7 0 0 0-.476 1.461q.006.92.598 1.629a2.48 2.48 0 0 0-.598 1.629q.021.791.465 1.453.44.662 1.168.984c.066 1.489 1.464 2.68 3.175 2.68q.722.01 1.38-.277a3.3 3.3 0 0 0 1.144-.828.45.45 0 0 0 .113-.305V8.946a.45.45 0 0 0-.113-.305 3.24 3.24 0 0 0-1.145-.825 3.2 3.2 0 0 0-1.379-.277m0 13.026a2.12 2.12 0 0 1-1.402-.414 2.108 2.108 0 0 1-.809-1.215q.574-.152.942-.62a1.73 1.73 0 0 0 .379-1.063h-.93a.864.864 0 0 1-.734.816 1.83 1.83 0 0 1-.926-.64 1.85 1.85 0 0 1-.398-1.051q.017-.785.62-1.281a.44.44 0 0 0 .16-.348.45.45 0 0 0-.16-.352 1.63 1.63 0 0 1-.62-1.277 1.87 1.87 0 0 1 .43-1.094c.26-.32.593-.527.991-.629l.004-.003a.83.83 0 0 1 .559.261.85.85 0 0 1 .246.563h.93a1.7 1.7 0 0 0-.121-.61 1.792 1.792 0 0 0-1.395-1.125 2 2 0 0 1-.016-.156c0-1.027 1.008-1.86 2.25-1.86a2.33 2.33 0 0 1 1.707.66v4.329a2.2 2.2 0 0 0-1.046.523q-.451.404-.645.977l-.023.066.882.293.024-.066q.205-.61.808-.832v5.484a2.35 2.35 0 0 1-1.707.664M17.043 9.672a.44.44 0 0 0 .375.191h.848a1.399 1.399 0 0 0 1.047.684 1.4 1.4 0 0 0 1.171-.434 1.384 1.384 0 0 0 .094-1.789 1.4 1.4 0 0 0-.496-.41 1.385 1.385 0 0 0-1.738.426c-.13.18-.215.375-.25.594h-.438l-.886-1.207a.44.44 0 0 0-.375-.188H15v.93h1.16Zm2.422-.973a.464.464 0 0 1 .465.465.46.46 0 0 1-.465.469.464.464 0 0 1-.328-.797q.135-.136.328-.137M20.203 12.191h-1.91l-.977-1.222a.44.44 0 0 0-.363-.176h-1.86v.93h1.637l.977 1.222a.44.44 0 0 0 .363.176h2.133a1.39 1.39 0 0 0 .906.867 1.39 1.39 0 0 0 1.805-1.332q.002-.334-.148-.629a1.35 1.35 0 0 0-.418-.496 1.36 1.36 0 0 0-.594-.25 1.34 1.34 0 0 0-.645.04 1.4 1.4 0 0 0-.906.87m1.777.465a.464.464 0 0 1-.797.328.45.45 0 0 1-.136-.328.464.464 0 0 1 .797-.328q.136.135.136.328M19.465 18.473c-.531 0-.934.234-1.2.695h-.847a.44.44 0 0 0-.375.191l-.883 1.207H15v.93h1.395a.43.43 0 0 0 .375-.191l.886-1.207h.438a1.39 1.39 0 0 0 1.531 1.152 1.4 1.4 0 0 0 .91-.488q.171-.206.254-.457a1.3 1.3 0 0 0 .07-.52 1.3 1.3 0 0 0-.129-.508 1.3 1.3 0 0 0-.304-.425 1.3 1.3 0 0 0-.446-.282 1.3 1.3 0 0 0-.515-.097m0 1.859a.45.45 0 0 1-.328-.137.45.45 0 0 1-.137-.328q.001-.193.137-.328c.09-.094.199-.137.328-.137s.238.043.332.137q.134.135.133.328a.464.464 0 0 1-.465.465M21.422 14.98q-.444 0-.805.258c-.238.172-.41.395-.508.672h-2.132a.44.44 0 0 0-.364.176l-.976 1.223H15v.93h1.86a.43.43 0 0 0 .363-.177l.98-1.218h1.906q.09.239.254.437a1.39 1.39 0 0 0 1.375.45c.168-.04.32-.106.465-.2a1.41 1.41 0 0 0 .606-1.316 1.397 1.397 0 0 0-1.387-1.235m0 1.864a.464.464 0 0 1-.465-.465.46.46 0 0 1 .465-.469q.193.001.328.137a.464.464 0 0 1 0 .66q-.135.136-.328.137m0 0"/><g clip-path="url(#a)"><path fill="#061c3d" d="M28.695 11.363h-.91a.84.84 0 0 1-.515-.187.87.87 0 0 1-.31-.457q-.322-1.022-.815-1.973a.85.85 0 0 1-.11-.543.87.87 0 0 1 .235-.5l.644-.644a.43.43 0 0 0 .133-.282.46.46 0 0 0-.074-.304 14.3 14.3 0 0 0-3.926-3.926.45.45 0 0 0-.305-.078.45.45 0 0 0-.285.133l-.645.644a.87.87 0 0 1-.5.234.87.87 0 0 1-.542-.105 12 12 0 0 0-1.973-.82.886.886 0 0 1-.645-.824V.823a.45.45 0 0 0-.105-.297.44.44 0 0 0-.27-.16 14.1 14.1 0 0 0-5.554 0 .44.44 0 0 0-.27.16.45.45 0 0 0-.105.297v.906a.89.89 0 0 1-.645.825q-1.022.322-1.973.82a.87.87 0 0 1-.543.105.87.87 0 0 1-.5-.234l-.644-.644a.43.43 0 0 0-.285-.133.45.45 0 0 0-.305.078 14.3 14.3 0 0 0-3.926 3.926.46.46 0 0 0-.074.304c.008.11.055.203.133.282l.644.644q.2.212.235.5a.87.87 0 0 1-.106.543 12 12 0 0 0-.82 1.973.87.87 0 0 1-.309.457.84.84 0 0 1-.515.187h-.91a.45.45 0 0 0-.293.106.44.44 0 0 0-.16.27 14 14 0 0 0 0 5.554q.03.165.16.27a.45.45 0 0 0 .293.105h.91a.89.89 0 0 1 .824.645q.323 1.024.816 1.972a.85.85 0 0 1 .11.543.87.87 0 0 1-.235.5l-.644.645a.43.43 0 0 0-.133.285c-.012.11.016.21.074.305a14.4 14.4 0 0 0 3.926 3.925.458.458 0 0 0 .59-.059l.644-.644a.87.87 0 0 1 .5-.234.85.85 0 0 1 .543.11q.949.491 1.973.816a.9.9 0 0 1 .645.828v.906q0 .165.105.293t.27.164q2.777.55 5.554 0 .165-.035.27-.164a.45.45 0 0 0 .105-.293v-.906a.89.89 0 0 1 .645-.828q1.022-.324 1.973-.817a.85.85 0 0 1 .543-.11q.287.036.5.235l.644.645a.46.46 0 0 0 .59.058 14.4 14.4 0 0 0 3.926-3.925.47.47 0 0 0 .074-.305.43.43 0 0 0-.133-.285l-.644-.645a.87.87 0 0 1-.235-.5.88.88 0 0 1 .106-.543q.498-.948.82-1.973a.9.9 0 0 1 .824-.644h.91a.45.45 0 0 0 .293-.105.44.44 0 0 0 .16-.27 14 14 0 0 0 0-5.555.44.44 0 0 0-.16-.27.45.45 0 0 0-.293-.105m-.39 5.375h-.52c-.394.004-.75.13-1.066.367a1.76 1.76 0 0 0-.645.926q-.3.946-.758 1.824a1.8 1.8 0 0 0-.203 1.114q.083.592.5 1.015l.367.371a13.3 13.3 0 0 1-3.14 3.141l-.371-.367a1.77 1.77 0 0 0-1.016-.5 1.78 1.78 0 0 0-1.113.203q-.88.459-1.824.758a1.76 1.76 0 0 0-.926.644 1.74 1.74 0 0 0-.367 1.07v.516c-1.48.25-2.965.25-4.446 0v-.515a1.74 1.74 0 0 0-.367-1.07 1.76 1.76 0 0 0-.926-.645q-.944-.3-1.824-.758a1.78 1.78 0 0 0-1.113-.203c-.395.055-.73.223-1.016.5l-.37.367a13.3 13.3 0 0 1-3.141-3.14l.367-.372q.417-.421.5-1.015a1.78 1.78 0 0 0-.203-1.114 11.4 11.4 0 0 1-.758-1.824 1.76 1.76 0 0 0-.645-.926 1.76 1.76 0 0 0-1.066-.367h-.52a13 13 0 0 1 0-4.445h.52q.592-.006 1.066-.363.475-.362.645-.93.3-.944.758-1.824.282-.522.203-1.114a1.77 1.77 0 0 0-.5-1.015l-.367-.371a13.3 13.3 0 0 1 3.14-3.14l.371.366c.285.278.621.446 1.016.5q.591.084 1.113-.203a11.4 11.4 0 0 1 1.824-.758q.57-.17.926-.644.362-.475.367-1.067v-.52c1.48-.25 2.965-.25 4.446 0v.52q.005.592.367 1.067.357.474.926.644.944.301 1.824.758.522.284 1.113.203c.395-.054.73-.222 1.016-.5l.37-.367a13.3 13.3 0 0 1 3.141 3.14l-.367.372a1.77 1.77 0 0 0-.5 1.016q-.08.591.203 1.113.459.88.758 1.824.17.568.645.93.474.358 1.066.363h.52a13 13 0 0 1 0 4.445m0 0"/></g><path fill="#061c3d" d="M15 4.281q-1.007.001-1.996.196a10.3 10.3 0 0 0-3.691 1.527q-.838.563-1.551 1.273c-.477.477-.899.993-1.274 1.551a10.288 10.288 0 0 0-1.723 5.688q-.002 1.01.196 1.996a10.3 10.3 0 0 0 1.527 3.691 10.3 10.3 0 0 0 2.824 2.824q.84.558 1.77.946.932.387 1.922.582c.66.133 1.324.195 1.996.195s1.336-.062 1.996-.195q.99-.196 1.922-.582.93-.388 1.77-.946a10.3 10.3 0 0 0 2.824-2.824q.556-.837.945-1.77a10.3 10.3 0 0 0 .777-3.917q0-1.007-.195-1.996a10.395 10.395 0 0 0-1.531-3.687 10.3 10.3 0 0 0-2.824-2.825 10.4 10.4 0 0 0-1.77-.945 10 10 0 0 0-1.918-.583q-.989-.199-1.996-.199m0 19.54a9 9 0 0 1-1.816-.18 9.2 9.2 0 0 1-3.352-1.387 9.3 9.3 0 0 1-2.57-2.567 9.4 9.4 0 0 1-.86-1.609 9 9 0 0 1-.527-1.746 9 9 0 0 1-.18-1.816q0-.914.18-1.817a9 9 0 0 1 .527-1.742 9.2 9.2 0 0 1 2.02-3.02q.646-.65 1.41-1.16a9.171 9.171 0 0 1 3.352-1.387A9 9 0 0 1 15 5.21q.915 0 1.816.18a9.2 9.2 0 0 1 3.352 1.387q.764.51 1.41 1.16a9.22 9.22 0 0 1 2.02 3.02 9 9 0 0 1 .527 1.742 9 9 0 0 1 .18 1.817 9 9 0 0 1-.18 1.816 9.35 9.35 0 0 1-3.957 5.918 9.345 9.345 0 0 1-3.352 1.39 9 9 0 0 1-1.816.18m0 0"/><path fill="#061c3d" d="M15.465 12.656h.93v.93h-.93ZM16.395 14.516h.933v.93h-.933Zm0 0"/></svg>