<svg xmlns="http://www.w3.org/2000/svg" width="40" height="40" version="1.0" viewBox="0 0 30 30"><path fill="#061c3d" d="M25.957 24.34v-1.914a.46.46 0 0 0-.05-.219l-1.844-3.547q.229-.323.23-.723V11.07q-.001-.396-.23-.722l1.843-3.551a.5.5 0 0 0 .051-.227V4.656q.282-.053.547-.183c.172-.082.336-.188.484-.309a2.6 2.6 0 0 0 .399-.422q.17-.235.281-.5a2.3 2.3 0 0 0 .164-1.137 2.447 2.447 0 0 0-.387-1.078 2.4 2.4 0 0 0-.379-.433 2.2 2.2 0 0 0-.472-.332A2.35 2.35 0 0 0 24.91.055a2.3 2.3 0 0 0-.539.207q-.257.134-.473.332-.216.193-.378.433a2.7 2.7 0 0 0-.258.516 2.35 2.35 0 0 0 .32 2.2q.17.233.395.421c.148.121.312.227.484.309q.265.13.547.183v1.801L23.27 9.809a1.6 1.6 0 0 0-.27 0h-2.316V8.508q.282-.06.543-.184c.175-.086.335-.187.484-.312q.223-.183.394-.418.17-.236.282-.5a2.3 2.3 0 0 0 .164-1.133 2.3 2.3 0 0 0-.13-.559 2.3 2.3 0 0 0-.26-.511 2.2 2.2 0 0 0-.376-.438 2.3 2.3 0 0 0-.473-.328 2.34 2.34 0 0 0-2.21 0q-.258.136-.473.328-.218.195-.375.438a2.3 2.3 0 0 0-.262.511q-.1.271-.129.559a2.35 2.35 0 0 0 .84 2.05 2.33 2.33 0 0 0 1.027.497v1.27H15.5V5.835q.284-.06.543-.184c.176-.086.336-.187.484-.312q.225-.183.395-.418.17-.232.281-.5a2.3 2.3 0 0 0 .164-1.129 2.3 2.3 0 0 0-.129-.563 2 2 0 0 0-.258-.511 2.5 2.5 0 0 0-.375-.438 2.3 2.3 0 0 0-.472-.328 2.359 2.359 0 0 0-3.324 1.277 2.45 2.45 0 0 0-.114 1.137q.041.287.153.555.105.268.28.5.172.235.395.418a2.33 2.33 0 0 0 1.028.496v3.941h-4.23v-1.27q.282-.058.542-.183c.176-.086.336-.187.485-.312q.223-.183.394-.418.17-.236.281-.5a2.347 2.347 0 0 0 .035-1.691 2.3 2.3 0 0 0-.261-.512 2.2 2.2 0 0 0-.375-.438 2.3 2.3 0 0 0-.473-.328 2.34 2.34 0 0 0-1.676-.207 2.4 2.4 0 0 0-.539.207q-.252.136-.468.328-.217.195-.375.438a2.3 2.3 0 0 0-.262.511q-.1.271-.129.559a2.35 2.35 0 0 0 .84 2.05 2.33 2.33 0 0 0 1.027.497v1.27h-2.32a1.5 1.5 0 0 0-.266 0L5.047 6.456v-1.8c.191-.04.371-.098.547-.184.172-.082.336-.188.484-.309q.222-.189.39-.418a2.1 2.1 0 0 0 .282-.504 2.3 2.3 0 0 0 .164-1.129A2.35 2.35 0 0 0 6.148.605 2.25 2.25 0 0 0 5.14.07 2.3 2.3 0 0 0 4 .07a2.2 2.2 0 0 0-.535.203 2.5 2.5 0 0 0-.473.332q-.21.194-.375.434-.163.241-.262.512a2.5 2.5 0 0 0-.125.562 2.355 2.355 0 0 0 1.864 2.543V6.57a.6.6 0 0 0 .058.227l1.836 3.547q-.229.324-.23.719v6.855c0 .266.078.504.23.723l-1.836 3.566a.43.43 0 0 0-.058.219v1.914q-.284.057-.543.183a2.3 2.3 0 0 0-.88.727 2.5 2.5 0 0 0-.28.504q-.106.268-.149.555a2.4 2.4 0 0 0-.012.574q.031.287.125.562.1.271.262.512.165.24.375.434.216.192.473.332.253.136.535.207.283.065.57.066c.196 0 .383-.023.57-.066a2.4 2.4 0 0 0 .54-.207 2.5 2.5 0 0 0 .847-.766q.159-.241.258-.512a2.35 2.35 0 0 0-.316-2.195 2.5 2.5 0 0 0-.39-.418 2.4 2.4 0 0 0-.485-.309 2.3 2.3 0 0 0-.547-.183v-1.8l1.734-3.352q.136.017.266 0h2.32v1.273q-.282.057-.543.184a2.3 2.3 0 0 0-.879.73q-.17.232-.28.5a2.3 2.3 0 0 0-.165 1.129 2.35 2.35 0 0 0 .766 1.508q.216.195.468.332.258.136.54.207a2.35 2.35 0 0 0 2.523-.973 2.34 2.34 0 0 0 .379-1.648 2.5 2.5 0 0 0-.153-.555 2.4 2.4 0 0 0-.675-.922 2.3 2.3 0 0 0-.485-.308 2.2 2.2 0 0 0-.543-.184v-1.242h4.23v3.949q-.281.06-.546.184a2.44 2.44 0 0 0-.883.73 2.5 2.5 0 0 0-.281.504q-.111.268-.152.555a2.4 2.4 0 0 0 .374 1.656 2.4 2.4 0 0 0 .852.77q.258.136.54.206a2.35 2.35 0 0 0 1.683-.207q.257-.139.472-.332.216-.195.38-.437a2.45 2.45 0 0 0 .386-1.078 2.4 2.4 0 0 0-.012-.578 2.3 2.3 0 0 0-.152-.555 2.3 2.3 0 0 0-.285-.504 2.2 2.2 0 0 0-.395-.418 2.4 2.4 0 0 0-.484-.312 2.5 2.5 0 0 0-.547-.184v-3.95h4.23v1.27q-.282.06-.543.184a2.3 2.3 0 0 0-.484.312 2.2 2.2 0 0 0-.394.418 2.322 2.322 0 0 0-.445 1.633q.029.29.128.559.1.273.262.511c.105.16.23.31.375.438q.215.193.473.328a2.34 2.34 0 0 0 2.21 0q.258-.135.473-.328.218-.195.375-.438.163-.238.262-.511.1-.27.129-.559a2.35 2.35 0 0 0-.84-2.05 2.33 2.33 0 0 0-1.027-.497v-1.27H23q.135.018.27 0l1.738 3.352v1.77a2 2 0 0 0-.543.183 2.35 2.35 0 0 0-1.195 2.918 2.3 2.3 0 0 0 .632.95 2.34 2.34 0 0 0 1.008.539 2.36 2.36 0 0 0 2.79-1.489q.094-.27.124-.558a2.36 2.36 0 0 0-.84-2.051 2.2 2.2 0 0 0-.484-.309 2 2 0 0 0-.543-.183m-5.777-2.95q.281-.009.547.087.262.1.472.293.204.193.32.453.12.258.126.539t-.098.547a1.4 1.4 0 0 1-.297.468 1.4 1.4 0 0 1-.457.313 1.372 1.372 0 0 1-1.086.012 1.4 1.4 0 0 1-.465-.305 1.4 1.4 0 0 1-.308-.461 1.43 1.43 0 0 1 0-1.074c.066-.172.168-.32.296-.453q.194-.194.446-.305.257-.107.531-.113ZM15 24.07a1.4 1.4 0 0 1 .988.414 1.43 1.43 0 0 1 .407.993c0 .187-.04.363-.11.535q-.105.259-.305.453c-.132.133-.28.23-.453.3q-.259.112-.535.106a1.4 1.4 0 0 1-.539-.105 1.404 1.404 0 0 1-.75-1.84q.106-.258.313-.457.2-.2.464-.301.265-.105.547-.098Zm-5.184-2.68c.184 0 .368.036.54.106q.257.105.457.305c.132.133.238.285.308.457q.11.258.11.539a1.41 1.41 0 0 1-.872 1.305 1.4 1.4 0 0 1-1.078-.004 1.3 1.3 0 0 1-.457-.305 1.41 1.41 0 0 1 .473-2.305c.176-.066.36-.101.547-.097Zm15.633 6.66a1.405 1.405 0 0 1-1.304-1.933 1.42 1.42 0 0 1 .746-.77 1.41 1.41 0 0 1 1.074-.015 1.4 1.4 0 0 1 .8 1.816 1.4 1.4 0 0 1-.745.786 1.4 1.4 0 0 1-.54.117ZM15.027 2.126q.281 0 .543.105a1.38 1.38 0 0 1 .762.766 1.41 1.41 0 0 1-2.305 1.527 1.4 1.4 0 0 1-.3-.46 1.41 1.41 0 0 1 .765-1.836q.26-.107.535-.102m6.582 4.078c0 .188-.035.363-.109.535a1.4 1.4 0 0 1-.3.457 1.39 1.39 0 0 1-.992.41 1.39 1.39 0 0 1-1.294-.867 1.3 1.3 0 0 1-.11-.535q0-.276.11-.535a1.37 1.37 0 0 1 .758-.758c.172-.07.348-.11.535-.11s.363.04.535.11a1.38 1.38 0 0 1 .758.758q.11.26.11.535M6.711 17.926V11.07q-.001-.14.098-.238a.33.33 0 0 1 .238-.102H23q.142.002.242.102a.32.32 0 0 1 .098.238v6.856a.32.32 0 0 1-.098.238.33.33 0 0 1-.242.102H7.047a.33.33 0 0 1-.238-.102.32.32 0 0 1-.098-.238M25.484 3.754c-.183 0-.363-.035-.53-.11a1.3 1.3 0 0 1-.454-.304 1.3 1.3 0 0 1-.305-.453 1.4 1.4 0 0 1-.101-.54q0-.276.105-.534.111-.252.305-.454a1.43 1.43 0 0 1 .992-.406q.277-.001.535.11a1.37 1.37 0 0 1 .758.757 1.4 1.4 0 0 1-.004 1.075 1.38 1.38 0 0 1-1.305.859ZM9.844 4.8q.279.002.535.11a1.38 1.38 0 0 1 .758.757q.11.26.11.535c0 .188-.036.363-.11.535a1.4 1.4 0 0 1-.301.457 1.39 1.39 0 0 1-.992.41 1.39 1.39 0 0 1-1.293-.867 1.3 1.3 0 0 1-.11-.535q0-.276.11-.535a1.37 1.37 0 0 1 .758-.758c.171-.07.347-.11.535-.11M4.57 3.754q-.276 0-.535-.106a1.3 1.3 0 0 1-.453-.304 1.3 1.3 0 0 1-.305-.453A1.405 1.405 0 0 1 5.11 1.059a1.43 1.43 0 0 1 .758.757 1.41 1.41 0 0 1-.304 1.528 1.4 1.4 0 0 1-.454.304 1.4 1.4 0 0 1-.539.106m0 24.297a1.4 1.4 0 0 1-.992-.406 1.4 1.4 0 0 1-.308-.45 1.407 1.407 0 0 1-.012-1.074 1.37 1.37 0 0 1 .746-.77q.256-.111.535-.117.275-.005.54.094.256.104.46.297a1.414 1.414 0 0 1 .04 2 1.3 1.3 0 0 1-.462.313 1.4 1.4 0 0 1-.547.113m0 0"/><path fill="#061c3d" d="M15.027 17.414a.44.44 0 0 0 .332-.14.44.44 0 0 0 .141-.333v-1.968h3.016a.46.46 0 0 0 .34-.137.46.46 0 0 0 .136-.336v-2.437a.45.45 0 0 0-.137-.34.45.45 0 0 0-.34-.137h-3.488a.44.44 0 0 0-.336.137.46.46 0 0 0-.14.34v4.878q0 .198.14.336a.46.46 0 0 0 .336.137m.473-3.39v-1.485h2.54v1.484ZM8.773 17.39h.16q.334.007.45-.312l.445-1.191h1.711l.441 1.238q.117.31.45.309c.05.007.105.007.156 0a.49.49 0 0 0 .273-.247.46.46 0 0 0 .016-.367l-1.746-4.875q-.11-.322-.45-.316c-.222-.004-.374.101-.445.316l-1.75 4.832a.48.48 0 0 0 .29.614m2.43-2.476H10.16l.516-1.445ZM21.117 17.414a.46.46 0 0 0 .336-.14.47.47 0 0 0 .14-.333v-4.878a.46.46 0 0 0-.14-.34.45.45 0 0 0-.336-.137.45.45 0 0 0-.336.137.46.46 0 0 0-.14.34v4.878q0 .198.14.336a.45.45 0 0 0 .336.137m0 0"/></svg>