<svg xmlns="http://www.w3.org/2000/svg" width="40" height="40" version="1.0" viewBox="0 0 30 30"><defs><clipPath id="a"><path d="M.484.906h29.032v27.582H.484Zm0 0"/></clipPath></defs><g clip-path="url(#a)"><path fill="#061c3d" d="M29.422 16.055 27.48 12.48c.09-.585.18-1.175.18-1.761A9.804 9.804 0 0 0 17.848.906c-2.395 0-4.703.86-6.465 2.442H6.59q-.205.001-.27.136l-2.894 4.52H.895a.36.36 0 0 0-.364.363c0 .18.137.363.364.363h2.71q.204 0 .274-.136l2.89-4.524h8.727l1.992.86v.183c0 .723.586 1.266 1.266 1.266.723 0 1.266-.59 1.266-1.266 0-.68-.59-1.265-1.266-1.265-.41 0-.77.18-.996.496l-2.078-.907c-.047 0-.094-.042-.137-.042h-3.121a9.1 9.1 0 0 1 5.383-1.766c5.015 0 9.133 4.117 9.133 9.133a7.8 7.8 0 0 1-.184 1.765c0 .09 0 .227.09.27l1.765 3.21-2.441.95a.34.34 0 0 0-.227.316v4.747h-3.707a.36.36 0 0 0-.363.363v2.984h-8.453v-6.465c0-.136-.047-.226-.18-.273-.77-.45-1.36-.902-1.945-1.535h2.758l2.351 3.57c.043.09.18.137.27.137h1.808c.137.543.633.949 1.223.949.723 0 1.266-.586 1.266-1.266s-.59-1.265-1.266-1.265c-.59 0-1.086.406-1.223.949h-1.625l-2.035-3.031h3.117c.137.543.633.953 1.223.953.723 0 1.266-.59 1.266-1.27a1.265 1.265 0 0 0-2.488-.316H6.547L3.426 12.03c-.047-.183-.137-.226-.27-.226H.895c-.227 0-.364.133-.364.316 0 .18.137.36.364.36H3.02l3.117 4.476c.047.09.183.137.273.137h4.024c.722.86 1.445 1.492 2.351 2.035v6.238c-.723 0-1.355.633-1.355 1.356 0 .77.633 1.402 1.398 1.402h9.766c.77 0 1.402-.633 1.402-1.402a1.33 1.33 0 0 0-1.355-1.356v-2.62h3.664c.18 0 .36-.138.36-.364v-4.836l2.577-.996c.09-.047.18-.09.18-.18.047-.137.047-.226 0-.316M18.754 4.48c.316 0 .586.27.586.586 0 .317-.27.59-.586.59a.6.6 0 0 1-.59-.59c0-.316.273-.586.59-.586m.992 15.325c.317 0 .59.273.59.59a.6.6 0 0 1-.59.585.595.595 0 0 1-.586-.585c0-.317.27-.59.586-.59m-.543-3.66c.317 0 .59.27.59.585 0 .317-.273.59-.59.59a.6.6 0 0 1-.586-.59c0-.316.27-.585.586-.585m4.027 10.578a.715.715 0 0 1-.726.722h-9.719a.714.714 0 0 1-.723-.722c0-.407.317-.723.723-.723h9.766c.363.047.68.363.68.723m0 0"/></g><path fill="#061c3d" d="M25.309 10.719c0 .18.136.36.363.36.18 0 .36-.134.36-.36 0-2.848-1.536-5.563-4.024-7.008-.18-.09-.363-.047-.453.137-.09.18-.043.359.136.449 2.172 1.312 3.618 3.8 3.618 6.422M21.285 3.71c.09-.179 0-.362-.18-.452-.726-.317-1.449-.496-2.218-.633-.18 0-.36.09-.36.273-.047.18.09.36.27.36.723.09 1.402.273 2.035.59.18.132.363.043.453-.137M6.68 20.305c-1.22 0-2.215 1.039-2.215 2.304 0 1.266.996 2.305 2.215 2.305 1.222 0 2.215-1.039 2.215-2.305 0-1.265-.993-2.304-2.215-2.304m0 3.933c-.86 0-1.535-.726-1.535-1.629 0-.906.675-1.629 1.535-1.629s1.539.723 1.539 1.63c0 .902-.68 1.628-1.54 1.628m0 0"/><path fill="#061c3d" d="M11.246 23.695c.184-.047.274-.183.274-.316v-1.45c0-.179-.137-.316-.274-.316l-.676-.133a6 6 0 0 0-.316-.816l.406-.633c.09-.136.09-.316-.047-.406l-.992-1.04a.35.35 0 0 0-.453-.046l-.59.406c-.223-.133-.496-.222-.765-.316l-.137-.723c-.047-.18-.18-.27-.317-.27H5.957c-.18 0-.316.134-.316.27l-.137.68c-.27.09-.496.18-.766.316l-.59-.406a.35.35 0 0 0-.453.043l-.992 1.04c-.09.136-.137.273-.047.41l.406.632c-.132.27-.222.543-.316.813l-.676.136c-.183.043-.273.18-.273.317v1.445c0 .18.137.316.273.316l.723.18c.09.274.18.543.316.817l-.406.632c-.09.137-.09.317.043.407l.996 1.039a.35.35 0 0 0 .453.047l.586-.407c.227.133.5.223.77.317l.136.722c.043.18.18.27.317.27h1.402c.18 0 .317-.133.317-.27l.132-.722c.274-.094.5-.184.77-.317l.586.407c.137.09.32.09.453-.047l.996-1.04c.09-.136.137-.269.043-.406l-.406-.632c.137-.274.226-.543.316-.817Zm-1.039-.5a.4.4 0 0 0-.27.274c-.09.36-.226.676-.406 1.039a.5.5 0 0 0 0 .363l.36.543-.586.633-.543-.363c-.137-.09-.274-.09-.364 0q-.474.27-.949.406a.4.4 0 0 0-.27.273l-.136.676H6.23l-.136-.676a.42.42 0 0 0-.274-.273 3.9 3.9 0 0 1-.992-.406c-.137-.09-.273-.09-.363 0l-.496.363-.59-.633.363-.59c.09-.09.09-.27 0-.363a4.1 4.1 0 0 1-.406-1.04.41.41 0 0 0-.273-.269l-.633-.136v-.903l.632-.136a.42.42 0 0 0 .274-.274c.09-.36.227-.676.406-1.039a.48.48 0 0 0 0-.36l-.363-.59.59-.632.543.363c.133.09.27.09.36 0a3.7 3.7 0 0 1 .995-.406.4.4 0 0 0 .27-.273l.136-.676h.813l.137.676a.42.42 0 0 0 .273.273q.54.133.95.406c.132.09.269.09.359 0l.543-.363.59.633-.364.68c-.09.09-.09.226 0 .359.18.316.317.68.406 1.043a.42.42 0 0 0 .274.27l.633.136v.902ZM11.836 6.965a1.261 1.261 0 0 0 2.484-.317c0-.675-.586-1.265-1.265-1.265-.586 0-1.082.406-1.22.949H7.813c-.09 0-.226.047-.273.137l-2.574 3.66v.094c0 .043-.047.09-.047.132 0 .047 0 .09.047.137v.09l2.574 3.664c.047.09.184.133.274.133h12.613a1.264 1.264 0 0 0 2.488-.316c0-.723-.59-1.266-1.27-1.266-.585 0-1.081.406-1.218.95h-5.79l1.993-2.985h1.625c.137.543.633.953 1.223.953.722 0 1.265-.59 1.265-1.27 0-.675-.59-1.265-1.265-1.265-.59 0-1.086.41-1.223.949h-1.809q-.199.001-.27.137l-2.35 3.347H7.991L5.914 10.63h4.973c.133.543.633.95 1.218.95.723 0 1.266-.59 1.266-1.267 0-.68-.586-1.265-1.266-1.265-.585 0-1.085.406-1.218.95H5.914l2.078-2.985h3.844Zm1.219-.902c.316 0 .59.269.59.585 0 .317-.274.59-.59.59a.6.6 0 0 1-.586-.59c0-.316.27-.585.586-.585M19.52 9.68c.316 0 .59.27.59.586s-.274.59-.59.59a.6.6 0 0 1-.586-.59c-.047-.317.226-.586.586-.586m2.125 3.66c.316 0 .59.273.59.59a.6.6 0 0 1-.59.586.595.595 0 0 1-.586-.586c-.047-.317.226-.59.586-.59m-9.54-3.66c.317 0 .59.27.59.586s-.273.59-.59.59a.6.6 0 0 1-.585-.59c0-.317.27-.586.585-.586M4.012 10.629a.357.357 0 0 0 .363-.363c0-.18-.137-.36-.363-.36H2.656c-.18 0-.36.133-.36.36 0 .18.134.363.36.363Zm0 0"/></svg>