<svg xmlns="http://www.w3.org/2000/svg" width="40" height="40" version="1.0" viewBox="0 0 30 30"><defs><clipPath id="a"><path d="M.484 9H14v13H.484Zm0 0"/></clipPath><clipPath id="b"><path d="M5 3.395h24.516v22.5H5Zm0 0"/></clipPath></defs><path fill="#061c3d" d="M20.176 9.82a.486.486 0 0 0-.684 0l-1.933 1.934a.486.486 0 0 0 0 .684l1.933 1.933a.485.485 0 0 0 .684 0 .48.48 0 0 0 0-.684l-1.59-1.593 1.59-1.59a.48.48 0 0 0 0-.684M23.36 14.371a.485.485 0 0 0 .683 0l1.934-1.934a.48.48 0 0 0 0-.683L24.043 9.82a.486.486 0 0 0-.684 0 .486.486 0 0 0 0 .684l1.594 1.59-1.594 1.594a.486.486 0 0 0 0 .683M21.285 13.547a.49.49 0 0 0 .434-.27l.965-1.933a.482.482 0 1 0-.864-.43l-.968 1.934a.484.484 0 0 0 .433.699m0 0"/><g clip-path="url(#a)"><path fill="#061c3d" d="M9.586 20.7v-2.415h2.418c.586 0 1.062-.48 1.062-1.066v-3.48c0-.587-.476-1.063-1.062-1.063h-2.32c-.036 0-.067.008-.098.008v-2.426c0-.586-.477-1.063-1.063-1.063H5.04c-.586 0-1.062.477-1.062 1.063v2.418H1.559c-.586 0-1.063.476-1.063 1.062v3.48c0 .587.477 1.067 1.063 1.067h2.32c.035 0 .066-.008.098-.012V20.7c0 .59.476 1.067 1.062 1.067h3.484c.586 0 1.063-.477 1.063-1.067m-5.707-3.384h-2.32a.096.096 0 0 1-.094-.097v-3.48c0-.052.043-.094.094-.094H6.78a.484.484 0 1 0 0-.969H4.945v-2.418c0-.055.043-.098.094-.098h3.484c.051 0 .094.043.094.098v2.902c0 .082.028.156.067.227-.04.11-.067.226-.067.351v1.16a.096.096 0 0 1-.094.098H5.04c-.586 0-1.062.477-1.062 1.063v1.16a.097.097 0 0 1-.098.097M4.945 20.7v-2.898a.44.44 0 0 0-.066-.227c.039-.113.066-.23.066-.355v-1.16c0-.051.043-.094.094-.094h3.484c.586 0 1.063-.48 1.063-1.067v-1.16c0-.05.043-.093.098-.093h2.32c.05 0 .094.043.094.093v3.48a.096.096 0 0 1-.094.098H6.78a.484.484 0 1 0 0 .97h1.836v2.413a.096.096 0 0 1-.094.098H5.04a.096.096 0 0 1-.094-.098m0 0"/></g><g clip-path="url(#b)"><path fill="#061c3d" d="M28.055 3.395H6.78c-.8 0-1.449.648-1.449 1.449v2.902c0 .266.215.48.48.48h22.723v15.958a.48.48 0 0 1-.48.48H6.78a.483.483 0 0 1-.484-.48v-.97a.483.483 0 1 0-.965 0v.97c0 .796.648 1.449 1.45 1.449h21.273c.797 0 1.449-.653 1.449-1.45V4.844c0-.8-.652-1.448-1.45-1.448M6.297 7.262V4.844c0-.266.219-.485.484-.485h21.274c.265 0 .48.22.48.485v2.418Zm0 0"/></g><path fill="#061c3d" d="M8.09 5.469a.5.5 0 0 0-.156-.102.48.48 0 0 0-.528.102.5.5 0 0 0-.101.156.4.4 0 0 0-.04.184q-.001.1.04.183a.5.5 0 0 0 .101.16.503.503 0 0 0 .344.14.5.5 0 0 0 .34-.14.5.5 0 0 0 .101-.16.36.36 0 0 0 .04-.183.4.4 0 0 0-.04-.184.5.5 0 0 0-.101-.156M9.867 5.367a.46.46 0 0 0-.281-.031.3.3 0 0 0-.09.031.4.4 0 0 0-.086.043l-.07.059a.6.6 0 0 0-.102.156.4.4 0 0 0-.039.184q-.001.1.04.183a.5.5 0 0 0 .1.16c.024.02.048.043.071.059q.046.03.086.043a.4.4 0 0 0 .09.031q.045.007.098.008a.5.5 0 0 0 .34-.14.49.49 0 0 0 0-.684.4.4 0 0 0-.157-.102M11.96 5.469a.5.5 0 0 0-.16-.102.46.46 0 0 0-.28-.031.2.2 0 0 0-.086.031.3.3 0 0 0-.09.043l-.07.059a.5.5 0 0 0-.14.34q0 .1.038.183a.5.5 0 0 0 .101.16c.024.02.047.043.07.059q.047.03.09.043a.3.3 0 0 0 .087.031c.035.004.062.008.097.008a.53.53 0 0 0 .344-.14.5.5 0 0 0 .137-.344.55.55 0 0 0-.137-.34M17.418 20.313h8.219a.483.483 0 1 0 0-.965h-8.219a.482.482 0 1 0 0 .965M25.637 22.25H20.8a.483.483 0 1 0 0 .965h4.836a.483.483 0 1 0 0-.965M17.418 23.215h1.45a.483.483 0 1 0 0-.965h-1.45a.482.482 0 1 0 0 .965M16.934 16.93c0 .265.214.484.484.484h4.832a.484.484 0 1 0 0-.969h-4.832a.484.484 0 0 0-.484.485M24.188 16.445a.484.484 0 1 0 0 .97h1.449a.487.487 0 0 0 .484-.485.487.487 0 0 0-.484-.485Zm0 0"/></svg>