<svg xmlns="http://www.w3.org/2000/svg" width="40" height="40" version="1.0" viewBox="0 0 30 30"><defs><clipPath id="a"><path d="M.484 0h29.032v29.031H.484Zm0 0"/></clipPath></defs><g clip-path="url(#a)"><path fill="#061c3d" d="M28.547 15.484a.969.969 0 1 0 0-1.937h-2.902v-1.934h2.902a.969.969 0 1 0 0-1.937h-2.902V6.773c0-1.601-1.301-2.902-2.903-2.902H19.84V.97a.969.969 0 1 0-1.938 0V3.87H15.97V.97a.969.969 0 1 0-1.938 0V3.87h-1.933V.97a.969.969 0 1 0-1.938 0V3.87H7.258a2.904 2.904 0 0 0-2.903 2.902v2.903H1.453a.969.969 0 1 0 0 1.937h2.902v1.934H1.453a.969.969 0 1 0 0 1.937h2.902v1.934H1.453a.969.969 0 1 0 0 1.937h2.902v2.903c0 1.601 1.301 2.902 2.903 2.902h2.902v2.906a.968.968 0 0 0 1.938 0V25.16h1.933v2.906a.968.968 0 0 0 1.938 0V25.16h1.933v2.906a.968.968 0 0 0 1.938 0V25.16h2.902c1.602 0 2.903-1.3 2.903-2.902v-2.903h2.902a.969.969 0 1 0 0-1.937h-2.902v-1.934Zm-4.836 6.774a.97.97 0 0 1-.969.969H7.258a.97.97 0 0 1-.969-.97V6.774c0-.53.438-.968.969-.968h15.484c.531 0 .969.437.969.968ZM10.16 11.613v6.774a.968.968 0 1 1-1.934 0v-6.774c0-.535.433-.968.968-.968.532 0 .965.433.965.968m3.87 1.934a2.907 2.907 0 0 0-2.902 2.906c0 1.598 1.3 2.902 2.902 2.902a2.907 2.907 0 0 0 2.903-2.902c0-1.601-1.301-2.906-2.903-2.906m0 3.871a.967.967 0 1 1 .004-1.934.967.967 0 0 1-.004 1.934m7.742-5.805a.97.97 0 0 1-.968.969h-.965v5.805a.969.969 0 1 1-1.938 0v-5.805h-.968a.968.968 0 0 1 0-1.937h3.87c.536 0 .97.433.97.968m0 0"/></g></svg>