<svg xmlns="http://www.w3.org/2000/svg" width="40" height="40" version="1.0" viewBox="0 0 30 30"><defs><clipPath id="a"><path d="M21 10h8.516v14.262H21Zm0 0"/></clipPath><clipPath id="b"><path d="M.484 4.664H24v19.598H.484Zm0 0"/></clipPath></defs><path fill="#061c3d" d="M10.285 10.336h2.578q.21 0 .364-.152a.5.5 0 0 0 .152-.364.5.5 0 0 0-.152-.363.5.5 0 0 0-.364-.152h-2.578a.5.5 0 0 0-.367.152.49.49 0 0 0-.148.363c0 .14.046.266.148.364a.5.5 0 0 0 .367.152M15.441 9.305h-.515a.5.5 0 0 0-.367.152.5.5 0 0 0-.149.363c0 .14.05.266.149.364a.5.5 0 0 0 .367.152h.515q.211 0 .364-.152a.5.5 0 0 0 .152-.364.5.5 0 0 0-.152-.363.5.5 0 0 0-.364-.152M10.285 12.398h.516q.21 0 .363-.152a.48.48 0 0 0 .152-.363q0-.21-.152-.363a.5.5 0 0 0-.363-.153h-.516a.5.5 0 0 0-.367.153.5.5 0 0 0-.148.363.48.48 0 0 0 .148.363.5.5 0 0 0 .367.152M15.441 11.367h-2.578a.5.5 0 0 0-.367.153.5.5 0 0 0-.148.363q0 .216.148.363a.5.5 0 0 0 .367.152h2.578q.211 0 .364-.152a.48.48 0 0 0 .152-.363q0-.21-.152-.363a.5.5 0 0 0-.364-.153M10.285 14.46h5.156q.211 0 .364-.148a.5.5 0 0 0 .152-.367q0-.21-.152-.363a.5.5 0 0 0-.364-.152h-5.156a.5.5 0 0 0-.367.152.5.5 0 0 0-.148.363.51.51 0 0 0 .516.516M17.504 13.43v1.03q0 .217-.152.368a.5.5 0 0 1-.364.149.5.5 0 0 0-.367.152.5.5 0 0 0-.148.363.51.51 0 0 0 .515.516c.203 0 .403-.04.59-.117a1.544 1.544 0 0 0 .957-1.43V13.43a1.05 1.05 0 0 1 .3-.73q.149-.142.337-.223.189-.078.394-.079a.5.5 0 0 0 .364-.152.48.48 0 0 0 .152-.363q0-.21-.152-.363a.5.5 0 0 0-.364-.153 1.05 1.05 0 0 1-.73-.3 1.045 1.045 0 0 1-.3-.73V9.304a1.55 1.55 0 0 0-.454-1.094 1.5 1.5 0 0 0-.504-.336 1.5 1.5 0 0 0-.59-.117.5.5 0 0 0-.367.152.5.5 0 0 0-.148.363c0 .141.05.266.148.364a.5.5 0 0 0 .367.152q.21 0 .364.152a.5.5 0 0 1 .152.364v1.03c.004.626.238 1.142.71 1.548-.472.41-.706.926-.71 1.547M8.219 10.336V9.305c0-.14.05-.266.152-.364a.5.5 0 0 1 .367-.152q.21 0 .364-.152a.5.5 0 0 0 .152-.364.48.48 0 0 0-.152-.363.5.5 0 0 0-.364-.152q-.312 0-.593.117a1.533 1.533 0 0 0-.836.836 1.5 1.5 0 0 0-.122.594v1.03c0 .138-.023.27-.078.395a1 1 0 0 1-.558.56q-.189.076-.395.077-.21 0-.363.153a.5.5 0 0 0-.152.363q0 .216.152.363a.5.5 0 0 0 .363.152 1.05 1.05 0 0 1 .73.301q.147.148.223.336a1 1 0 0 1 .079.395v1.03c0 .208.039.403.12.595a1.53 1.53 0 0 0 1.43.953q.21-.001.364-.149a.5.5 0 0 0 .152-.367q0-.21-.152-.363a.5.5 0 0 0-.364-.152.51.51 0 0 1-.52-.516V13.43q-.001-.932-.71-1.547.709-.61.71-1.547m0 0"/><g clip-path="url(#a)"><path fill="#061c3d" d="M27.816 10.852H22.66q-.305 0-.594.117a1.54 1.54 0 0 0-.836.84 1.5 1.5 0 0 0-.117.59v10.316q0 .306.117.59a1.533 1.533 0 0 0 .836.836q.289.122.594.12h5.156q.309.002.594-.12a1.53 1.53 0 0 0 .953-1.426V12.398q0-.306-.117-.59a1.544 1.544 0 0 0-1.43-.957m-5.671 3.093h6.187v7.22h-6.187Zm.515-2.062h5.156q.216 0 .368.152a.5.5 0 0 1 .148.363v.516h-6.187v-.516q0-.21.152-.363a.5.5 0 0 1 .363-.152m5.156 11.347H22.66a.5.5 0 0 1-.363-.152.5.5 0 0 1-.152-.363v-.52h6.187v.52q0 .21-.148.363a.5.5 0 0 1-.368.152m0 0"/></g><path fill="#061c3d" d="M26.785 14.977h-3.094q-.21 0-.363.152a.5.5 0 0 0-.152.363v2.063q0 .215.152.367a.5.5 0 0 0 .363.148h3.094a.51.51 0 0 0 .516-.515v-2.063q-.001-.21-.149-.363a.5.5 0 0 0-.367-.152m-.515 2.062h-2.063v-1.031h2.063ZM24.207 19.102h-.516q-.21 0-.363.152a.5.5 0 0 0-.152.363q0 .216.152.367a.5.5 0 0 0 .363.149h.516a.48.48 0 0 0 .363-.149.5.5 0 0 0 .153-.367q0-.21-.153-.363a.48.48 0 0 0-.363-.152M26.785 19.102h-.515q-.211 0-.364.152a.5.5 0 0 0-.152.363q0 .216.152.367a.5.5 0 0 0 .364.149h.515a.51.51 0 0 0 .516-.516q-.001-.21-.149-.363a.5.5 0 0 0-.367-.152m0 0"/><g clip-path="url(#b)"><path fill="#061c3d" d="M3.063 23.23c-.204 0-.403-.043-.59-.12a1.5 1.5 0 0 1-.84-.837 1.5 1.5 0 0 1-.117-.593v-.516h7.933l.375.75q.143.281.461.281h5.156q.317 0 .457-.28l.38-.75h3.804v-1.032h-4.125a.49.49 0 0 0-.46.285l-.376.746h-4.52l-.374-.746a.49.49 0 0 0-.457-.285H3.063v-1.031h17.019V18.07H3.062V5.695H22.66V9.82h1.031V5.18a.5.5 0 0 0-.152-.367.5.5 0 0 0-.363-.149H2.546q-.21 0-.362.149a.5.5 0 0 0-.153.367v14.953h-.515a1 1 0 0 0-.395.082 1.068 1.068 0 0 0-.559.555 1.1 1.1 0 0 0-.078.394v.516q.001.514.196.988.198.474.562.836c.238.242.52.43.836.558q.475.2.985.2h17.535a2.5 2.5 0 0 1-.48-1.032Zm0 0"/></g></svg>