<svg xmlns="http://www.w3.org/2000/svg" width="40" height="40" version="1.0" viewBox="0 0 30 30"><defs><clipPath id="a"><path d="M.484 4.191h29.032v20.325H.484Zm0 0"/></clipPath></defs><g clip-path="url(#a)"><path fill="#fff" d="M25.418 16.227a.4.4 0 0 1 .543-.145l.422.246c.191.11.258.352.148.543a.4.4 0 0 1-.543.145l-.425-.246a.4.4 0 0 1-.145-.543m.344-2.477c.07 0 .136-.02.199-.05l.422-.247a.397.397 0 0 0 .148-.543.4.4 0 0 0-.543-.144l-.425.246a.394.394 0 0 0-.184.445.4.4 0 0 0 .383.293m-1.32-1.176c.09.051.199.067.3.04a.38.38 0 0 0 .238-.188l.247-.422a.397.397 0 0 0-.688-.395l-.246.422a.397.397 0 0 0 .148.543m1.331 2.317c0 .218.18.394.399.394h.492a.397.397 0 0 0 0-.793h-.492a.4.4 0 0 0-.399.399m-.793 2.46a.396.396 0 0 0-.687.395l.246.426a.39.39 0 0 0 .54.144.394.394 0 0 0 .148-.539Zm-1.878-5.136a.397.397 0 0 0 .398-.395v-.492a.397.397 0 0 0-.793 0v.492c0 .22.176.395.395.395m-2.676 2.676a.397.397 0 0 0-.395-.399h-.492a.397.397 0 0 0 0 .793h.492a.393.393 0 0 0 .395-.394m.215 1.879a.4.4 0 0 0 .144-.543.4.4 0 0 0-.543-.145l-.426.246a.4.4 0 0 0-.144.543.4.4 0 0 0 .543.145Zm-.825-3.317.426.246a.397.397 0 0 0 .399-.687l-.426-.246a.4.4 0 0 0-.543.144.4.4 0 0 0 .144.543m9.7 1.438a6.42 6.42 0 0 1-3.633 5.78 6.42 6.42 0 0 1-6.785-.773v4.07h.703c.222 0 .398.18.398.4a.394.394 0 0 1-.398.394H1.69a.397.397 0 1 1 0-.793h.707v-5.637c0-.219.176-.395.395-.395h2.508c.219 0 .398.176.398.395v5.637h1.164v-8.04c0-.218.176-.398.395-.398h2.508c.222 0 .398.18.398.399v8.039h1.164V13.527c0-.218.176-.398.395-.398h2.511c.22 0 .395.18.395.398V23.97h1.164V11.125a.4.4 0 0 1 .398-.398h2.032a6.413 6.413 0 0 1 11.293 4.164m-24.61 3.84H3.191v5.238h1.715Zm4.465-2.407H7.656v7.645h1.715Zm4.465-2.402H12.12v10.047h1.715Zm5.262 2.68a4.35 4.35 0 0 0 4.875 2.554 4.354 4.354 0 0 0 0-8.531 4.35 4.35 0 0 0-4.875 2.555Zm-.793 7.367V11.52h-1.72v12.449Zm10.418-9.078a5.622 5.622 0 0 0-9.657-3.914q.031.07.032.148v.527a5.15 5.15 0 0 1 5.718-1.617 5.148 5.148 0 1 1-5.719 8.094v.707a5.625 5.625 0 0 0 6.137 1.258 5.63 5.63 0 0 0 3.489-5.203m-5.621 3.957a.397.397 0 0 0 .398-.395v-.492a.397.397 0 0 0-.793 0v.492c0 .219.176.395.395.395m-.2-3.614 1.004.579c.188.109.43.046.54-.145a.396.396 0 0 0-.145-.543l-.801-.465V12.81a.396.396 0 0 0-.793 0v2.082c0 .14.074.273.195.343m-1.68-2.808c.11.191.352.258.54.148a.4.4 0 0 0 .148-.543l-.246-.422a.4.4 0 0 0-.543-.148.4.4 0 0 0-.144.543Zm-.1 5.89a.39.39 0 0 0 .542-.144l.246-.422a.4.4 0 0 0-.148-.543.396.396 0 0 0-.54.145l-.245.425a.395.395 0 0 0 .144.54M7.534 5.488h3.887a.397.397 0 0 0 0-.793H7.535a.396.396 0 0 0 0 .793m0 1.258h3.887a.393.393 0 0 0 .394-.394.394.394 0 0 0-.394-.399H7.535a.397.397 0 0 0 0 .793m0 1.262h3.887a.397.397 0 0 0 0-.793H7.535a.396.396 0 0 0 0 .793m-5.137-.399V5.09c0-.218.176-.394.395-.394h3.36c.218 0 .398.176.398.395v2.52a.4.4 0 0 1-.399.398H2.793a.396.396 0 0 1-.395-.398m.793-.394h2.567V5.488H3.19Zm-2.195 9.12a.4.4 0 0 1-.453-.28.4.4 0 0 1 .234-.477c4.996-2.027 11.36-5.613 14.582-9.156l-.867-.684a.39.39 0 0 1-.14-.398.4.4 0 0 1 .3-.3l3.485-.77a.4.4 0 0 1 .332.074.41.41 0 0 1 .152.304l.059 3.57a.41.41 0 0 1-.223.364.39.39 0 0 1-.418-.047l-.82-.644c-3.93 4.464-9.094 7.148-16.223 8.445M16.867 7.09a.393.393 0 0 1 .547-.055l.457.363-.035-2.25-2.195.485.539.43c.086.066.14.164.148.273a.39.39 0 0 1-.094.293c-2.488 2.898-7.078 5.844-11.453 8.008 5.102-1.489 9-3.934 12.086-7.547m0 0"/></g></svg>