<svg xmlns="http://www.w3.org/2000/svg" width="40" height="40" version="1.0" viewBox="0 0 30 30"><defs><clipPath id="a"><path d="M.484 0h29.032v29H.484Zm0 0"/></clipPath></defs><g clip-path="url(#a)"><path fill="#061c3d" d="M14.32 10.273h-2.656a.43.43 0 0 0-.426.43v6.875c0 .235.192.426.426.426h2.656c.239 0 .43-.192.43-.426v-6.875a.43.43 0 0 0-.43-.43m-.425 6.88h-1.801v-6.024h1.8Zm4.44-6.88H15.68a.43.43 0 0 0-.43.43v6.875c0 .235.191.426.43.426h2.656a.427.427 0 0 0 .426-.426v-6.875a.43.43 0 0 0-.426-.43m-.429 6.88h-1.8v-6.024h1.8Zm.43 2.71H15.68a.43.43 0 0 0-.43.426v6.879c0 .234.191.426.43.426h2.656a.427.427 0 0 0 .426-.426v-6.879a.427.427 0 0 0-.426-.426m-.43 6.88h-1.8v-6.028h1.8Zm-3.586-6.88h-2.656a.427.427 0 0 0-.426.426v6.879c0 .234.192.426.426.426h2.656c.239 0 .43-.192.43-.426v-6.879a.43.43 0 0 0-.43-.426m-.425 6.88h-1.801v-6.028h1.8Zm-4.942-6.88H6.297a.427.427 0 0 0-.426.426v6.879c0 .234.191.426.426.426h2.656a.424.424 0 0 0 .426-.426v-6.879a.424.424 0 0 0-.426-.426m-.426 6.88H6.723v-6.028h1.804Zm-3.586-6.88H2.285a.427.427 0 0 0-.426.426v6.879c0 .234.192.426.426.426h2.656a.427.427 0 0 0 .426-.426v-6.879a.427.427 0 0 0-.426-.426m-.425 6.88H2.71v-6.028h1.805Zm24.09-8.235h-8.45q-.02-.001-.043.004.002-.022.004-.043v-1.375h1.649a4.53 4.53 0 0 0 4.523-4.524 4.54 4.54 0 0 0-1.687-3.515 3.23 3.23 0 0 0-.579-2.489 3.18 3.18 0 0 0-2.078-1.277 5.55 5.55 0 0 0-1.586-3.621 5.53 5.53 0 0 0-3.98-1.672 5.51 5.51 0 0 0-4.027 1.727 5.5 5.5 0 0 0-1.536 3.554A3.234 3.234 0 0 0 7.164 8.05h-.562a4.525 4.525 0 0 0-4.524 4.52 4.53 4.53 0 0 0 4.524 4.524h3.28v1.375c0 .015.005.027.005.043q-.022-.005-.043-.004h-8.45a.89.89 0 0 0-.89.89v8.66c0 .493.398.891.89.891h8.45a.85.85 0 0 0 .465-.133.9.9 0 0 0 .468.133h8.446a.9.9 0 0 0 .468-.133.85.85 0 0 0 .465.133h8.45a.89.89 0 0 0 .89-.89v-8.66a.89.89 0 0 0-.89-.891m-17.868-.04V9.814c0-.024.016-.04.04-.04h8.445c.023 0 .039.016.039.04v8.656a.04.04 0 0 1-.04.039h-8.445a.04.04 0 0 1-.039-.04m-4.136-2.23A3.674 3.674 0 0 1 2.93 12.57a3.674 3.674 0 0 1 3.672-3.668h.96a.427.427 0 0 0 .426-.425 2.38 2.38 0 0 1 3.121-2.262.426.426 0 0 0 .559-.426 4.67 4.67 0 0 1 1.3-3.48 4.67 4.67 0 0 1 3.41-1.457c1.278 0 2.477.5 3.372 1.414a4.68 4.68 0 0 1 1.348 3.398.43.43 0 0 0 .41.438c.73.023 1.398.378 1.828.968.437.594.574 1.34.375 2.043-.047.176.02.36.164.461a3.68 3.68 0 0 1 1.559 2.996 3.67 3.67 0 0 1-3.668 3.668h-1.649V9.813a.897.897 0 0 0-.894-.895h-8.446a.897.897 0 0 0-.894.895v6.425Zm3.242 11.86h-8.45c-.019 0-.039-.02-.039-.04v-8.66c0-.02.02-.039.04-.039h8.449c.02 0 .039.02.039.04v8.66c0 .02-.02.039-.04.039m9.379 0h-8.446a.04.04 0 0 1-.039-.04v-8.66c0-.02.016-.039.04-.039h8.445c.023 0 .039.02.039.04v8.66a.04.04 0 0 1-.04.039m9.422-.04c0 .02-.02.04-.04.04h-8.449c-.02 0-.039-.02-.039-.04v-8.66c0-.02.02-.039.04-.039h8.448c.02 0 .04.02.04.04Zm-4.942-8.195h-2.656a.424.424 0 0 0-.426.426v6.879c0 .234.188.426.426.426h2.656a.427.427 0 0 0 .426-.426v-6.879a.427.427 0 0 0-.426-.426m-.426 6.88h-1.804v-6.028h1.804Zm4.438-6.88h-2.656a.427.427 0 0 0-.426.426v6.879c0 .234.191.426.426.426h2.656a.427.427 0 0 0 .426-.426v-6.879a.427.427 0 0 0-.426-.426m-.426 6.88h-1.805v-6.028h1.805Zm0 0"/></g></svg>