<svg xmlns="http://www.w3.org/2000/svg" width="40" height="40" version="1.0" viewBox="0 0 30 30"><defs><clipPath id="a"><path d="M.484 0h29.032v29H.484Zm0 0"/></clipPath></defs><g clip-path="url(#a)"><path fill="#061c3d" fill-rule="evenodd" d="M22.957 13.063v1.742a.9.9 0 0 1-.898.898H20.8a.13.13 0 0 0-.13.094c-.093.281-.21.562-.343.828a.14.14 0 0 0 .024.16l.433.43h3.442a5.296 5.296 0 0 0 5.289-5.29c0-2.741-2.145-5.058-4.88-5.269a.38.38 0 0 1-.347-.37C24.223 3.362 21.797.987 18.875.987c-1.441 0-2.8.563-3.82 1.578a.37.37 0 0 1-.325.106.37.37 0 0 1-.28-.192A4.72 4.72 0 0 0 10.29 0a4.735 4.735 0 0 0-4.513 6.156.376.376 0 0 1-.336.492 5.3 5.3 0 0 0-4.953 5.278 5.296 5.296 0 0 0 5.29 5.289h3.44l.434-.43a.14.14 0 0 0 .024-.16 6 6 0 0 1-.344-.828.13.13 0 0 0-.129-.094H7.945a.9.9 0 0 1-.898-.898v-1.742c0-.493.402-.895.898-.895h1.258c.063 0 .11-.035.129-.098q.143-.421.344-.828a.14.14 0 0 0-.024-.16l-.89-.887a.9.9 0 0 1-.262-.633c0-.242.094-.468.262-.636l1.23-1.23a.896.896 0 0 1 1.27 0l.89.886a.126.126 0 0 0 .157.027q.404-.204.832-.343a.13.13 0 0 0 .093-.133V6.879c0-.496.403-.899.899-.899h1.738c.496 0 .899.403.899.899v1.254c0 .066.035.113.093.133q.429.14.828.343c.059.028.118.02.16-.027l.891-.887a.896.896 0 0 1 1.27 0l1.23 1.23a.903.903 0 0 1 0 1.27l-.89.887a.14.14 0 0 0-.024.16q.201.406.344.828c.02.063.066.098.129.098h1.258c.496 0 .898.402.898.895m-4.816 10.44 1.129.88c-.075.207-.118.43-.118.66a1.862 1.862 0 0 0 3.723 0 1.865 1.865 0 0 0-1.863-1.863c-.52 0-.989.215-1.328.562l-.93-.722v-2.66c-.035-.032-.07-.06-.106-.094l-.652-.653v3.59c0 .117.055.227.145.3m-3.52-1.487v3.07a1.864 1.864 0 0 0-1.48 1.82c0 1.028.836 1.864 1.859 1.864a1.865 1.865 0 0 0 1.863-1.864c0-.894-.636-1.644-1.48-1.82v-3.07Zm-2.613 1.187v-3.59l-.653.653q-.053.052-.105.093v2.66l-.93.723a1.85 1.85 0 0 0-1.328-.562 1.865 1.865 0 0 0-1.863 1.863 1.862 1.862 0 1 0 3.605-.66l1.13-.88a.4.4 0 0 0 .144-.3M15 16.656a2.724 2.724 0 0 1-2.719-2.722c0-1.5 1.219-2.723 2.719-2.723a2.725 2.725 0 0 1 2.723 2.723c0 1.5-1.22 2.722-2.723 2.722m7.195-1.851a.14.14 0 0 1-.136.136H20.8c-.387 0-.73.25-.852.618a5 5 0 0 1-.3.722.9.9 0 0 0 .167 1.043l.887.887c.055.05.055.14 0 .195l-1.23 1.23a.13.13 0 0 1-.098.04.14.14 0 0 1-.098-.04l-.886-.89a.9.9 0 0 0-1.04-.164 5.4 5.4 0 0 1-.726.3.9.9 0 0 0-.617.852v1.258a.14.14 0 0 1-.137.137h-1.738a.14.14 0 0 1-.137-.137v-1.258c0-.386-.25-.73-.617-.851a5.4 5.4 0 0 1-.727-.301.896.896 0 0 0-1.04.164l-.885.89a.14.14 0 0 1-.098.04.13.13 0 0 1-.098-.04l-1.23-1.23a.14.14 0 0 1-.04-.097c0-.024.005-.063.04-.098l.886-.887a.9.9 0 0 0 .168-1.043 5 5 0 0 1-.3-.722.9.9 0 0 0-.852-.618H7.945a.14.14 0 0 1-.136-.136v-1.742c0-.075.062-.137.136-.137h1.258c.387 0 .73-.246.852-.617q.124-.37.3-.723a.89.89 0 0 0-.168-1.04l-.886-.89a.13.13 0 0 1-.04-.094c0-.023.005-.062.04-.097l1.23-1.23a.137.137 0 0 1 .196 0l.886.886a.905.905 0 0 0 1.04.168q.351-.18.726-.3a.9.9 0 0 0 .617-.856V6.879c0-.074.063-.137.137-.137h1.738c.074 0 .137.063.137.137v1.254c0 .39.25.734.62.855q.372.121.724.301a.905.905 0 0 0 1.039-.168l.886-.887a.137.137 0 0 1 .196 0l1.23 1.23c.055.052.055.141 0 .192l-.887.89a.89.89 0 0 0-.168 1.04q.178.352.301.723a.89.89 0 0 0 .852.617h1.258c.074 0 .136.062.136.136Zm-3.71-.871A3.49 3.49 0 0 1 15 17.418a3.487 3.487 0 0 1-3.48-3.484 3.486 3.486 0 0 1 3.48-3.48 3.487 3.487 0 0 1 3.484 3.48m0 0"/></g></svg>