<svg xmlns="http://www.w3.org/2000/svg" width="40" height="40" version="1.0" viewBox="0 0 30 30"><defs><clipPath id="a"><path d="M16 19h12.39v8H16Zm0 0"/></clipPath><clipPath id="b"><path d="M7 0h17v29.031H7Zm0 0"/></clipPath><clipPath id="c"><path d="M1.535 9H9v14H1.535Zm0 0"/></clipPath></defs><path fill="#061c3d" d="M20.18 24.992a.3.3 0 0 1-.22-.09l-1.534-1.535a.3.3 0 0 1-.094-.222q0-.129.094-.223l1.535-1.535a.316.316 0 0 1 .441 0 .316.316 0 0 1 0 .441l-1.316 1.317 1.316 1.316q.148.146.067.34-.078.192-.29.191M24.95 24.992q-.213.001-.29-.191a.286.286 0 0 1 .067-.34l1.316-1.316-1.316-1.313a.32.32 0 0 1-.09-.223q0-.129.09-.222a.316.316 0 0 1 .441 0l1.535 1.535a.3.3 0 0 1 .094.223q0 .128-.094.222l-1.535 1.535a.3.3 0 0 1-.219.09M21.535 24.992a.3.3 0 0 1-.277-.164.3.3 0 0 1 .015-.32l2.063-3.074a.3.3 0 0 1 .2-.133.28.28 0 0 1 .234.047.28.28 0 0 1 .132.199.3.3 0 0 1-.047.234l-2.062 3.074a.3.3 0 0 1-.258.137m0 0"/><g clip-path="url(#a)"><path fill="#061c3d" d="M28.148 26.777H16.98a.3.3 0 0 1-.218-.093.3.3 0 0 1-.094-.22v-6.64a.3.3 0 0 1 .094-.219.3.3 0 0 1 .218-.093h11.168a.3.3 0 0 1 .22.093.3.3 0 0 1 .093.22v6.64a.3.3 0 0 1-.094.219.3.3 0 0 1-.219.093m-10.855-.625h10.543v-6.015H17.293Zm0 0"/></g><g clip-path="url(#b)"><path fill="#061c3d" d="M21.54 29.031H9.28a1.54 1.54 0 0 1-1.535-1.535V1.566c0-.847.691-1.535 1.535-1.535H21.54c.844 0 1.535.688 1.535 1.535v18.258q0 .129-.094.223a.316.316 0 0 1-.441 0 .32.32 0 0 1-.09-.223V1.566a.87.87 0 0 0-.27-.644.88.88 0 0 0-.64-.266H9.281q-.376.001-.64.266a.87.87 0 0 0-.27.644v25.93q0 .375.27.645.264.264.64.265H21.54q.376-.001.64-.265a.88.88 0 0 0 .27-.645v-1.031q0-.129.09-.223a.316.316 0 0 1 .441 0 .3.3 0 0 1 .094.223v1.031c0 .848-.691 1.535-1.535 1.535m0 0"/></g><path fill="#061c3d" d="M17.39 1.941h-3.96a1.45 1.45 0 0 1-1.086-.449l-.93-.93a.29.29 0 0 1-.09-.218.3.3 0 0 1 .09-.219.3.3 0 0 1 .223-.094q.127.002.218.09l.93.93q.263.271.645.265h3.96a.85.85 0 0 0 .645-.265l.93-.93a.3.3 0 0 1 .219-.09q.129 0 .222.094a.3.3 0 0 1 .09.219.3.3 0 0 1-.09.219l-.93.93q-.446.452-1.085.448M7.523 4.203h.536V8.54h-.536q-.187.002-.187-.184V4.387q0-.183.187-.184M23.297 8.54h-.535V4.202h.535q.187.001.187.184v3.968q0 .186-.187.184M23.297 13.563h-.535v-4.34h.535q.187 0 .187.187v3.965q0 .188-.187.188m0 0"/><g clip-path="url(#c)"><path fill="#061c3d" d="M8.059 22.281H6.887q-.258.002-.305-.254l-.203-1.07q-.417-.134-.805-.332l-.902.613q-.212.147-.395-.035l-1.66-1.66q-.181-.182-.035-.398l.613-.899a5.5 5.5 0 0 1-.332-.805l-1.07-.203q-.258-.047-.258-.304v-2.348q0-.258.258-.305l1.07-.203q.135-.417.332-.805l-.613-.902q-.147-.211.035-.394l1.66-1.66q.183-.182.395-.036l.902.614q.388-.199.805-.332l.203-1.07c.031-.173.133-.255.305-.255h1.172a.3.3 0 0 1 .222.09c.063.063.09.133.09.219 0 .09-.027.16-.09.223a.3.3 0 0 1-.222.09h-.91l-.192 1.003a.29.29 0 0 1-.223.242q-.537.157-1.027.43a.3.3 0 0 1-.328-.015l-.844-.579-1.293 1.293.578.844q.107.159.016.328a5 5 0 0 0-.43 1.028.29.29 0 0 1-.242.222l-1.004.192v1.824l1.004.191a.29.29 0 0 1 .242.223q.154.538.426 1.027a.3.3 0 0 1-.012.328l-.578.844 1.293 1.293L5.38 20a.3.3 0 0 1 .328-.016q.49.274 1.027.43c.125.035.2.113.223.242l.188 1.004h.914a.3.3 0 0 1 .222.09c.063.063.09.133.09.223a.3.3 0 0 1-.09.218.3.3 0 0 1-.222.09m0 0"/></g><path fill="#061c3d" d="M8.059 18.48c-.36 0-.707-.066-1.04-.207a2.6 2.6 0 0 1-.882-.59 2.6 2.6 0 0 1-.59-.882q-.21-.498-.211-1.043 0-.54.21-1.04.206-.502.59-.882.381-.386.884-.59.5-.209 1.039-.207a.3.3 0 0 1 .222.09c.063.062.09.133.09.223a.3.3 0 0 1-.09.218.3.3 0 0 1-.222.09 2.098 2.098 0 0 0 0 4.195q.129 0 .222.094c.063.059.09.133.09.219a.3.3 0 0 1-.09.223.3.3 0 0 1-.222.09M21.059 14.23h-8.504a.3.3 0 0 1-.223-.093.316.316 0 0 1 0-.441.32.32 0 0 1 .223-.09h8.504q.129 0 .222.09a.316.316 0 0 1 0 .44.3.3 0 0 1-.222.094M11.254 14.23H9.762a.3.3 0 0 1-.219-.093.3.3 0 0 1-.094-.219q0-.129.094-.223a.3.3 0 0 1 .219-.09h1.492q.129.002.223.09a.3.3 0 0 1 .09.223q.002.13-.09.219a.3.3 0 0 1-.223.093M21.059 16.348H9.762a.3.3 0 0 1-.219-.094.3.3 0 0 1-.094-.219q0-.129.094-.223a.3.3 0 0 1 .219-.09h11.297q.129.002.222.09a.316.316 0 0 1 0 .442.3.3 0 0 1-.222.094M21.059 18.465H9.762a.3.3 0 0 1-.219-.094.3.3 0 0 1-.094-.219q0-.129.094-.222a.29.29 0 0 1 .219-.09h11.297a.3.3 0 0 1 .222.09.316.316 0 0 1 0 .441.3.3 0 0 1-.222.094M19.148 11.738H12.04q-.516.001-.996-.191a2.6 2.6 0 0 1-.844-.563 2.576 2.576 0 0 1-.566-2.832q.198-.475.566-.84.364-.364.844-.558c.32-.133.652-.195.996-.195q.527 0 1.012.207.644-.656 1.562-.66.14-.48.45-.872.312-.393.746-.64.433-.252.925-.32a2.6 2.6 0 0 1 .985.05q.48.122.89.414a2.6 2.6 0 0 1 1.032 1.63 2.5 2.5 0 0 1-.008.98q.403.087.742.316a2.2 2.2 0 0 1 .926 1.293q.1.394.058.805-.046.405-.234.77a2.2 2.2 0 0 1-1.184 1.058c-.253.098-.52.148-.793.148M12.04 7.184a1.97 1.97 0 0 0-1.965 1.964c0 1.082.883 1.965 1.965 1.965h7.11a1.597 1.597 0 0 0 .074-3.191.29.29 0 0 1-.246-.14.3.3 0 0 1-.032-.278q.115-.323.114-.668a1.966 1.966 0 0 0-3.223-1.508q-.265.222-.438.52-.176.298-.234.636a.32.32 0 0 1-.121.2.32.32 0 0 1-.223.058 2 2 0 0 0-.187-.012q-.779 0-1.258.614-.165.205-.395.078a2 2 0 0 0-.94-.238m0 0"/></svg>