<svg xmlns="http://www.w3.org/2000/svg" width="40" height="40" version="1.0" viewBox="0 0 30 30"><defs><clipPath id="a"><path d="M.484 0h29.032v29.031H.484Zm0 0"/></clipPath></defs><g clip-path="url(#a)"><path fill="#061c3d" d="M8.262 23.066c.375.34.558.786.558 1.344q0 .48-.195.832a1.8 1.8 0 0 1-.531.598q-.336.239-.758.355a3.3 3.3 0 0 1-.879.121q-.54 0-1.027-.171-.49-.167-.852-.473a1.86 1.86 0 0 1-.531-.7.34.34 0 0 1 .004-.327c.054-.102.156-.165.297-.196q.15-.03.3.047a.54.54 0 0 1 .223.242q.098.21.332.387c.156.117.344.215.563.285q.328.112.691.113.406 0 .746-.128t.55-.368c.142-.16.212-.355.212-.593q0-.45-.348-.801c-.23-.235-.617-.383-1.148-.438q-1.048-.1-1.645-.617-.597-.514-.597-1.27.002-.56.308-.945.315-.389.848-.59c.36-.132.758-.203 1.195-.203.344 0 .64.047.899.145q.38.14.668.394c.19.168.359.368.496.598.078.125.113.238.097.348a.36.36 0 0 1-.168.258.38.38 0 0 1-.343.039.47.47 0 0 1-.278-.215c-.09-.164-.203-.301-.328-.414a1.5 1.5 0 0 0-.457-.266 1.7 1.7 0 0 0-.617-.098q-.621-.006-1.043.235a.79.79 0 0 0-.422.734q-.001.256.133.488.13.23.476.399.352.17 1.008.234 1.003.1 1.567.613Zm5.918-.332q.304.534.304 1.196v1.879a.415.415 0 0 1-.43.43.4.4 0 0 1-.304-.122.42.42 0 0 1-.125-.308v-.317a2.024 2.024 0 0 1-1.625.773q-.615.002-1.102-.308a2.2 2.2 0 0 1-.773-.832 2.5 2.5 0 0 1-.281-1.195q-.001-.662.308-1.196c.207-.351.48-.632.832-.84a2.3 2.3 0 0 1 1.184-.304q.66 0 1.18.305.521.311.832.84m-.52 1.196c0-.301-.066-.575-.195-.813a1.54 1.54 0 0 0-.531-.566 1.45 1.45 0 0 0-.766-.203c-.285 0-.535.066-.766.203q-.34.21-.539.566c-.133.238-.199.512-.199.813 0 .304.066.566.2.804q.192.36.538.567c.227.14.485.207.766.207s.543-.07.766-.207q.332-.204.53-.567.196-.358.196-.804m6.207-1.196q.305.534.305 1.196v1.879a.415.415 0 0 1-.43.43.4.4 0 0 1-.305-.122.42.42 0 0 1-.125-.308v-.317a2.024 2.024 0 0 1-1.625.773q-.615.002-1.101-.308a2.2 2.2 0 0 1-.773-.832 2.5 2.5 0 0 1-.282-1.195q0-.662.309-1.196c.207-.351.48-.632.832-.84a2.3 2.3 0 0 1 1.183-.304c.442 0 .832.101 1.18.305q.522.311.832.84m-.52 1.196c0-.301-.062-.575-.19-.813a1.54 1.54 0 0 0-.532-.566 1.46 1.46 0 0 0-.77-.203c-.285 0-.53.066-.761.203q-.34.21-.54.566c-.136.238-.199.512-.199.813 0 .304.067.566.2.804q.193.36.539.567.34.209.761.207c.282 0 .543-.07.77-.207q.333-.204.531-.567c.125-.238.192-.507.192-.804m4.528-1.473c-.437-.043-.773-.125-1.008-.234q-.346-.172-.476-.403a.94.94 0 0 1-.133-.484q0-.498.422-.738.421-.242 1.043-.23c.238 0 .441.03.617.093.176.066.324.156.457.27.125.113.238.25.328.41a.45.45 0 0 0 .277.218q.187.06.344-.039a.35.35 0 0 0 .168-.261.5.5 0 0 0-.098-.348 2.5 2.5 0 0 0-.496-.598 2.2 2.2 0 0 0-.672-.394c-.253-.098-.55-.14-.894-.14q-.657-.001-1.195.202a1.95 1.95 0 0 0-.848.586 1.48 1.48 0 0 0-.309.945q0 .757.598 1.274c.398.34.945.547 1.645.613q.796.084 1.148.438.346.357.348.8a.88.88 0 0 1-.211.598 1.3 1.3 0 0 1-.551.363 2.1 2.1 0 0 1-.746.13 2.1 2.1 0 0 1-.692-.11 1.9 1.9 0 0 1-.562-.29 1.16 1.16 0 0 1-.332-.382.52.52 0 0 0-.223-.242.41.41 0 0 0-.3-.047.42.42 0 0 0-.301.195.34.34 0 0 0 0 .328q.169.394.53.7.36.304.852.472a3.1 3.1 0 0 0 1.028.168q.457 0 .879-.117t.758-.36c.218-.16.398-.355.53-.593.13-.234.196-.516.196-.832 0-.559-.183-1.008-.558-1.348q-.56-.51-1.567-.61Zm5.64-3.258v7.492c0 1.293-1.05 2.34-2.34 2.34H2.826a2.34 2.34 0 0 1-2.34-2.34V19.2c0-1.023.66-1.883 1.574-2.199a5.64 5.64 0 0 1-1.575-3.887A5.63 5.63 0 0 1 5.95 7.496a4.48 4.48 0 0 1 4.137-2.812h.043A6.51 6.51 0 0 1 16.406 0a6.563 6.563 0 0 1 6.555 6.555v.02c.16-.013.312-.02.469-.02 3.355 0 6.086 2.734 6.086 6.09a6.08 6.08 0 0 1-1.782 4.289 2.345 2.345 0 0 1 1.782 2.27ZM1.423 13.11c0 1.477.707 2.864 1.887 3.746h6.12v-1.757c0-.18-.054-.36-.152-.508a2.341 2.341 0 0 1-3.64-1.945c0-1.29 1.05-2.34 2.34-2.34s2.34 1.05 2.34 2.34c0 .468-.141.906-.383 1.273.27.332.43.75.43 1.18v1.757h1.792l2.375-2.375v-4.226a2.346 2.346 0 0 1-1.87-2.293c0-1.293 1.05-2.34 2.339-2.34 1.29 0 2.34 1.05 2.34 2.34a2.35 2.35 0 0 1-1.871 2.293v4.226l2.375 2.375h1.816v-1.757c0-.422.152-.832.414-1.164a2.3 2.3 0 0 1-.39-1.29c0-1.292 1.05-2.34 2.34-2.34 1.288 0 2.34 1.051 2.34 2.34 0 1.29-1.052 2.34-2.34 2.34-.473 0-.915-.144-1.282-.386a.94.94 0 0 0-.148.5v1.757h5.785a5.13 5.13 0 0 0 2.2-4.214 5.156 5.156 0 0 0-5.15-5.149q-.425-.001-.882.078a.47.47 0 0 1-.402-.113.48.48 0 0 1-.149-.394q.029-.253.027-.512A5.623 5.623 0 0 0 16.406.934a5.59 5.59 0 0 0-5.468 4.34.47.47 0 0 1-.489.363 3.533 3.533 0 0 0-3.723 2.469.48.48 0 0 1-.484.332 2 2 0 0 0-.137-.008 4.69 4.69 0 0 0-4.683 4.68m20.601.938c.774 0 1.407-.629 1.407-1.402 0-.778-.633-1.407-1.407-1.407-.777 0-1.406.63-1.406 1.407 0 .378.156.726.403.976.253.262.609.426 1 .426ZM16.406 7.96c0-.777-.633-1.406-1.406-1.406s-1.406.629-1.406 1.406A1.41 1.41 0 0 0 15 9.367a1.41 1.41 0 0 0 1.406-1.406m-7.023 4.684a1.405 1.405 0 1 0-2.81-.002 1.405 1.405 0 0 0 2.81.002m19.195 6.554c0-.773-.629-1.406-1.406-1.406h-9.524a.46.46 0 0 1-.332-.137L15 15.34l-2.316 2.316a.46.46 0 0 1-.332.137H2.824c-.777 0-1.406.633-1.406 1.406v7.492c0 .778.629 1.407 1.406 1.407h24.348c.777 0 1.406-.63 1.406-1.407Zm0 0"/></g></svg>