<svg xmlns="http://www.w3.org/2000/svg" width="40" height="40" version="1.0" viewBox="0 0 30 30"><defs><clipPath id="a"><path d="M.738 0h28.305v29.031H.738Zm0 0"/></clipPath></defs><g clip-path="url(#a)"><path fill="#fff" fill-rule="evenodd" d="M16.965 25.102h-.906c-1.942 0-3.516-1.567-3.516-3.493s1.574-3.492 3.516-3.492h.132a4 4 0 0 1-.02-.41c0-2.426 1.977-4.395 4.419-4.395 2.387 0 4.332 1.88 4.418 4.227.14-.016.277-.023.422-.023 2.105 0 3.816 1.699 3.816 3.793 0 2.093-1.71 3.793-3.816 3.793h-.606v3.441a.49.49 0 0 1-.492.488h-6.879a.49.49 0 0 1-.488-.488Zm7.86-.98h.605c1.562 0 2.832-1.263 2.832-2.813S26.992 18.5 25.43 18.5q-.416-.001-.797.11a.49.49 0 0 1-.625-.524q.023-.19.023-.379c0-1.883-1.543-3.41-3.441-3.41-1.895 0-3.438 1.527-3.438 3.41q.002.447.114.863a.492.492 0 0 1-.594.602 2.7 2.7 0 0 0-.613-.074c-1.399 0-2.536 1.125-2.536 2.511s1.137 2.512 2.536 2.512h.906V20.68c0-.27.219-.489.488-.489h2.95c.269 0 .492.22.492.489a.493.493 0 0 1-.493.492h-2.457v2.95h5.895v-2.95h-1.473a.493.493 0 0 1-.492-.492c0-.27.223-.489.492-.489h1.965a.49.49 0 0 1 .492.489Zm-6.88.98v2.949h5.895V25.1Zm1.965 1.964a.49.49 0 0 1 0-.98h1.965a.49.49 0 1 1 0 .98Zm0-3.93a.49.49 0 0 1 0-.98h1.965a.49.49 0 1 1 0 .98Zm-14.734-8.35h-.91c-1.938 0-3.512-1.567-3.512-3.493s1.574-3.492 3.512-3.492h.132a5 5 0 0 1-.02-.41c0-2.426 1.981-4.395 4.423-4.395 2.406 0 4.363 1.914 4.422 4.285a.492.492 0 0 1-.09.945q-.148.025-.29.067a.488.488 0 0 1-.624-.523q.023-.186.023-.38c0-1.882-1.543-3.41-3.441-3.41-1.895 0-3.438 1.528-3.438 3.41 0 .298.04.59.11.864a.47.47 0 0 1-.125.469.48.48 0 0 1-.465.132 2.7 2.7 0 0 0-.617-.074c-1.395 0-2.532 1.125-2.532 2.512s1.137 2.512 2.532 2.512h.91v-3.442c0-.27.219-.488.488-.488h6.879c.27 0 .492.219.492.488v3.442h.602c1.566 0 2.836-1.258 2.836-2.813 0-1.14-.688-2.125-1.676-2.566a.493.493 0 0 1-.25-.649.494.494 0 0 1 .648-.25 3.79 3.79 0 0 1 2.258 3.465c0 2.094-1.707 3.793-3.816 3.793h-.602v3.442c0 .27-.223.488-.492.488H5.664a.49.49 0 0 1-.488-.488Zm6.875-.981v-2.95H6.156v2.95Zm-5.895.98v2.95h5.895v-2.95Zm1.965 1.965a.49.49 0 0 1-.492-.488c0-.274.223-.492.492-.492h1.965a.49.49 0 1 1 0 .98Zm0-3.93a.49.49 0 0 1-.492-.488c0-.273.223-.492.492-.492h1.965a.49.49 0 1 1 0 .98Zm20.899-.988-3.235 2.066a.5.5 0 0 1-.414.055.5.5 0 0 1-.305-.281l-1.449-3.555a.49.49 0 0 1 .602-.652l.761.238a6 6 0 0 0-.195-1.844 5.892 5.892 0 0 0-9.48-2.992.49.49 0 0 1-.676-.047l-1.332-1.449a.48.48 0 0 1-.125-.36.48.48 0 0 1 .172-.343A8.83 8.83 0 0 1 21.766.957a8.85 8.85 0 0 1 6.109 7.39 8.8 8.8 0 0 1-.027 2.266l1.054.336a.5.5 0 0 1 .34.403.5.5 0 0 1-.222.48m-1.415-.262-.46-.148a.487.487 0 0 1-.332-.559 7.865 7.865 0 0 0-5.344-8.973 7.86 7.86 0 0 0-7.09 1.208l.668.726A6.877 6.877 0 0 1 25.89 10.43a.5.5 0 0 1-.227.344.5.5 0 0 1-.41.051l-.332-.105.832 2.035Zm0 0"/></g></svg>