<svg xmlns="http://www.w3.org/2000/svg" width="40" height="40" version="1.0" viewBox="0 0 30 30"><defs><clipPath id="a"><path d="M.484 0h29.032v29.031H.484Zm0 0"/></clipPath></defs><g clip-path="url(#a)"><path fill="#fff" fill-rule="evenodd" d="m11.84 2.652 10.703 4.586a.48.48 0 0 1 .285.434v8.652c0 6.25-4.55 11.649-10.703 12.719l-.39.07a.6.6 0 0 1-.165 0l-.39-.07C5.03 27.973.48 22.574.48 16.324V7.672c0-.188.114-.36.286-.434l10.703-4.586c.117-.05.25-.05.37 0m-.188.942L1.422 7.98v8.344c0 5.793 4.219 10.801 9.922 11.793h.004l.304.055.309-.055c5.707-.992 9.926-6 9.926-11.793V7.98Zm.188 1.676 8.207 3.515a.48.48 0 0 1 .285.434v7.129c0 5.05-3.648 9.43-8.59 10.37a.7.7 0 0 1-.176 0c-4.945-.94-8.59-5.32-8.59-10.37v-7.13c0-.187.114-.359.286-.433l8.207-3.515c.117-.051.25-.051.37 0m-.188.945L3.918 9.527v6.82c0 4.571 3.277 8.536 7.734 9.426 4.461-.89 7.739-4.855 7.739-9.425v-6.82Zm-2.922 14H6.102a.47.47 0 0 1-.47-.473v-6.336c0-.261.212-.472.47-.472h2.66c.515-.375 1.082-.73 1.527-1.168.414-.399.719-.871.719-1.532V8.313c0-.262.21-.473.469-.473a2.79 2.79 0 0 1 2.78 2.781v1.492q0 .031-.007.063a2.2 2.2 0 0 1-.133.484q.165-.042.34-.043h2.285c.762 0 1.387.625 1.387 1.387 0 .258-.07.5-.195.707a1.383 1.383 0 0 1-.196 2.371 1.387 1.387 0 0 1-.566 1.793c.098.191.152.402.152.629 0 .766-.625 1.39-1.387 1.39h-1.48q-.154 0-.3-.035c-2.509.434-3.954.664-5.427-.644m-.285-6.34h-1.87v5.395h1.87Zm4.371 2.555a4.4 4.4 0 0 1-.566.383.47.47 0 0 1-.469-.817c.492-.281 1.864-1.148.977-2.441a.47.47 0 0 1 .055-.602c.292-.293.46-.633.5-.879v-1.453c0-.848-.579-1.566-1.364-1.777v1.39c0 .942-.414 1.633-1 2.207-.46.446-1.031.817-1.562 1.204q.006 4.97 0 5.89c.699.606 1.398.766 2.265.727.465-.024.97-.094 1.54-.192a1.382 1.382 0 0 1 .227-1.48 1.4 1.4 0 0 1-.349-.918c0-.258.07-.5.196-.707a1.4 1.4 0 0 1-.45-.535m1.512 3.504a.5.5 0 0 0 .129.015h1.48a.445.445 0 1 0 0-.89h-1.48a.45.45 0 0 0-.445.445c0 .195.129.363.304.422q.006.004.012.008m1.61-1.817h.546a.445.445 0 1 0 0-.89h-2.027a.445.445 0 1 0 0 .89Zm-1.868-1.836h3.059a.445.445 0 1 0 0-.89H14.07a.45.45 0 0 0-.445.445c0 .246.203.445.445.445m2.672-1.832a.445.445 0 1 0 0-.89h-2.285a.445.445 0 1 0 0 .89ZM23.91 3.477v1.437a1.26 1.26 0 0 1-2.52 0V3.477a1.258 1.258 0 0 1-.683-2.278L21.91.324a1.26 1.26 0 0 1 1.48 0l1.208.875a1.26 1.26 0 0 1-.687 2.277m-.223-.989c.141.09.329.055.426-.082a.323.323 0 0 0-.07-.445l-1.203-.875a.33.33 0 0 0-.375 0l-1.203.875a.316.316 0 0 0-.07.445.31.31 0 0 0 .421.082.46.46 0 0 1 .477-.008.46.46 0 0 1 .242.41v2.024a.318.318 0 0 0 .637 0V2.891c0-.172.093-.328.242-.41a.46.46 0 0 1 .477.007m4.458 5.535v1.438a1.26 1.26 0 0 1-2.52 0V8.023a1.26 1.26 0 0 1-.687-2.277l1.207-.875a1.26 1.26 0 0 1 1.48 0l1.203.875a1.261 1.261 0 0 1-.683 2.277m-.223-.984c.14.086.324.05.422-.086a.316.316 0 0 0-.07-.445l-1.204-.875a.33.33 0 0 0-.375 0l-1.203.875a.32.32 0 0 0 .355.531.468.468 0 0 1 .719.398v2.024c0 .176.141.316.317.316s.32-.14.32-.316V7.437a.46.46 0 0 1 .242-.41.46.46 0 0 1 .477.012m0 0"/></g></svg>