<svg xmlns="http://www.w3.org/2000/svg" width="40" height="40" version="1.0" viewBox="0 0 30 30"><defs><clipPath id="a"><path d="M2 0h26v29.031H2Zm0 0"/></clipPath></defs><g clip-path="url(#a)"><path fill="#061c3d" d="M14.89 4.844c.473 0 .887.281 1.067.703l1.55.008a.44.44 0 0 1 .348.152l1.27 1.5.012.016.3-.094q.01-.011.008-.027v-.34c0-.489.399-.89.887-.89h.875c.488 0 .887.401.887.89l.008.367.668.23q.315.13.613.301c.129.024.32-.504.91-.504a.9.9 0 0 1 .633.258l.613.617a.884.884 0 0 1 0 1.254l-.254.262c0 .008.004.02.008.027.227.395.402.817.523 1.258l.036.027h.289c.922-2.234-.586-4.78-3.043-4.992a.42.42 0 0 1-.383-.344c-.41-2.12-2.602-3.41-4.66-2.757q-.529.17-.98.488a.426.426 0 0 1-.548-.024 5.694 5.694 0 0 0-7.172-.457A5.74 5.74 0 0 0 7.273 5.57a.42.42 0 0 1-.386.285 3.623 3.623 0 0 0-3.5 3.625c0 1.055.445 2.032 1.218 2.715.188-.105.317-.101.52-.101v-1.758c0-.211.055-.383.156-.566.332-.579.739-.997 1.332-1.297A3.1 3.1 0 0 1 10.77 9.84c.078.16.117.316.117.496v1.758c.273 0 .48.015.695.234.246.246.234.48.234.777h2.79a.85.85 0 0 1-.145-.484v-.871a.89.89 0 0 1 .887-.89l.363-.005.117-.363-1.512-1.168h-.648a1.155 1.155 0 0 1-1.898.41c-.727-.726-.207-1.972.816-1.972.473 0 .89.289 1.066.715h.809c.09 0 .18.027.258.09l1.46 1.128c.051-.097.094-.133.06-.168-.262-.265-.5-.449-.5-.867 0-.223.09-.457.261-.625v-.004l.617-.617a.884.884 0 0 1 1.254 0l.262.254.187-.094-.988-1.172-1.355-.007a1.16 1.16 0 0 1-1.907.421c-.722-.726-.207-1.972.82-1.972m.215.937a.308.308 0 0 0-.523.219c0 .27.332.406.523.215a.3.3 0 0 0 .086-.16 1 1 0 0 1-.007-.086q-.001-.028.004-.051a.3.3 0 0 0-.083-.137m-2.3 2.922a.305.305 0 0 0-.524.215.307.307 0 1 0 .523-.215m7.965-.047a3.53 3.53 0 1 1 0 7.059 3.53 3.53 0 1 1 0-7.059m1.894 1.633a2.68 2.68 0 0 0-3.789 0 2.683 2.683 0 0 0 0 3.793 2.685 2.685 0 0 0 3.79 0 2.683 2.683 0 0 0 0-3.793m4.242.934c.11.148.172.328.172.527v.871c0 .488-.398.89-.887.89v-.003h-.34v.004l-.035.027a5.1 5.1 0 0 1-.523 1.254c-.027.133.508.324.508.918h-.004a.9.9 0 0 1-.258.629l-.617.617a.896.896 0 0 1-1.258 0l-.258-.258q-.01.001-.027.008a5 5 0 0 1-1.258.523c-.11.075.133.582-.289 1.004a.89.89 0 0 1-.625.262h-.875a.89.89 0 0 1-.887-.89l-.008-.364c-.003-.004-.011-.012-.019-.012a5.2 5.2 0 0 1-1.258-.523l-.047.008c-.265.265-.449.5-.867.5a.89.89 0 0 1-.629-.262L16 16.336a.884.884 0 0 1 0-1.254l.25-.262q.004-.01-.004-.027a5 5 0 0 1-.39-.836h-4.04v4.371c0 .442-.359.797-.796.797H4.992a.8.8 0 0 1-.797-.797v-5.371c-2.03-1.648-2.234-4.691-.402-6.586A4.47 4.47 0 0 1 6.57 5.027c1.313-3.351 5.106-5.03 8.477-3.71.66.257 1.27.62 1.808 1.07 2.54-1.524 5.848-.196 6.622 2.672 2.875.449 4.562 3.488 3.43 6.164m-5.699-4.5h-.875l-.039.039v.34a.88.88 0 0 1-.656.855 4.4 4.4 0 0 0-1.055.438.88.88 0 0 1-1.07-.141c-.04-.035-.235-.25-.266-.25q-.02 0-.027.012l-.617.617v.055l.238.238c.285.289.344.722.14 1.074-.093.164-.18.332-.253.512l-.184.539a.88.88 0 0 1-.855.66c-.051 0-.34-.016-.368.012q-.011.008-.011.027v.871c0 .125.504-.098.918.223.214.164.285.344.351.594.074.285.254.68.402.933a.89.89 0 0 1-.14 1.074c-.04.035-.25.23-.25.266q.001.017.008.027l.62.617h-.003.058l.239-.242v.004a.875.875 0 0 1 1.07-.14c.328.187.684.335 1.055.433.39.106.656.453.656.856 0 .054-.012.343.016.367q.005.012.023.012h.875c.121 0-.098-.5.219-.918a.88.88 0 0 1 .476-.317 4.4 4.4 0 0 0 1.055-.433.885.885 0 0 1 1.07.136c.04.04.235.254.266.254q.02 0 .027-.012l.617-.617a.03.03 0 0 0 .016-.027h-.004c0-.082-.441-.3-.504-.781-.054-.426.196-.63.36-1.051a5 5 0 0 0 .191-.559.88.88 0 0 1 .856-.66v.004h.34v-.004l.038-.039v-.871c0-.125-.503.098-.918-.223a.9.9 0 0 1-.32-.476A4.2 4.2 0 0 0 24.56 10a.886.886 0 0 1 .14-1.074c.035-.035.25-.23.25-.266a.04.04 0 0 0-.012-.027l-.617-.617c-.086-.086-.285.422-.804.492a.88.88 0 0 1-.559-.11 4 4 0 0 0-.516-.253V8.14a4 4 0 0 0-.539-.18.886.886 0 0 1-.66-.86c0-.05.016-.34-.012-.367-.003-.007-.015-.011-.023-.011M8.004 13.586c1.226 0 1.816 1.504.926 2.344v1.011a.693.693 0 0 1-.692.692h-.465a.7.7 0 0 1-.695-.692V15.93c-.887-.84-.297-2.344.926-2.344m.36 1a.506.506 0 1 0-.65.77c.13.074.216.21.216.367v1.062h.152v-1.062c0-.137.07-.274.195-.356a.504.504 0 0 0 .086-.781m-2.391-2.492h.496v-1.586c0-.285.394-.625.617-.766.8-.488 1.816-.273 2.375.516.05.07.082.156.082.25v1.586h.496c0-.219.012-1.73-.012-1.817a1 1 0 0 0-.113-.218c-.777-1.27-2.543-1.43-3.547-.36-.086.09-.394.461-.394.637Zm1.347 0h1.375v-1.446a1.1 1.1 0 0 0-.215-.18.91.91 0 0 0-1.16.18Zm3.645.851H5.043v5.332h5.922ZM4.985 28.18h2.484l.02-.024v-7.355l-.02-.024H4.984l-.02.024v7.355Zm2.484.847H4.984a.874.874 0 0 1-.87-.87V20.8c0-.48.394-.871.87-.871H7.47c.476 0 .87.39.87.87v1.641c.56.2 1.044.266 1.571.211.664-.078 1.332-.3 2.348-.699.32-.129.625-.18.969-.21 1.421-.122 2.507-.157 3.343-.087l1.153-.914c.613-.488 1.41-.777 2.054-.566.203.062.371.172.5.316l.575-.453c.57-.457 1.316-.75 1.957-.594.214.051.402.153.55.293 1.953-1.422 3.586.102 2.286 1.746-.07.086-6.149 5.532-6.782 6.102-.234.207-1.425.45-2.054.574-1.739.371-2.454.793-4.914.031-1.207-.375-2.66-.836-3.555-.945v.91c0 .48-.395.871-.871.871m.87-5.695v3.059c.997.101 2.493.582 3.802.988 2.27.707 2.832.285 4.504-.05.546-.11 1.585-.317 1.648-.376l6.703-6.02c.215-.28.29-.515.262-.68-.028-.136-.14-.202-.281-.222-.29-.047-.707.074-1.184.442l-4.594 3.64q-.24.661-.8.93-.576.27-1.438.078c-1.375-.273-2.766-.242-3.902.45a.423.423 0 0 1-.441-.723c1.331-.813 2.913-.875 4.507-.559v.004c.398.082.684.09.91-.016.164-.078.29-.23.367-.457-.074-.574-.324-.949-.93-1.144-1-.32-2.812-.203-4.175-.086-.266.027-.485.055-.73.152-1.051.418-1.833.676-2.567.75-.57.063-1.09.012-1.66-.16m11.266-2.309c-.109-.07-.27-.082-.425-.058-.266.035-.582.176-.93.441l-.566.45c.21.066.406.144.57.242Zm3.055-.738c-.367-.14-.926.14-1.281.414v.004l-2.488 1.969c.09.133.16.273.214.433Zm0 0"/></g></svg>